<?xml version="1.0" encoding="utf-8"?>
<!-- Generator: Adobe Illustrator 16.0.3, SVG Export Plug-In . SVG Version: 6.00 Build 0)  -->
<!DOCTYPE svg PUBLIC "-//W3C//DTD SVG 1.1//EN" "http://www.w3.org/Graphics/SVG/1.1/DTD/svg11.dtd">
<svg version="1.1" id="Ebene_1" xmlns="http://www.w3.org/2000/svg" xmlns:xlink="http://www.w3.org/1999/xlink" x="0px" y="0px"
	 width="512px" height="512px" viewBox="640 640 512 512" enable-background="new 640 640 512 512" xml:space="preserve">
<path id="rect2987" fill="#BCBCBC" d="M707,643h384c35.346,0,64,28.654,64,64v384c0,35.347-28.654,64-64,64H707
	c-35.347,0-64-28.653-64-64V707C643,671.654,671.654,643,707,643z"/>
<path d="M956.212,796.353l-21.931,63.097l22.508,4.04c21.16-57.839,31.74-91.055,31.74-99.647c0-7.182-2.437-10.773-7.31-10.773
	C973.909,753.07,965.573,767.498,956.212,796.353z M898.694,928.511l6.348,16.928c4.745-5.386,9.298-9.683,13.658-12.889
	l-6.348-1.058l-7.406-1.347L898.694,928.511z M842.522,756.148c0,12.568,10.195,45.976,30.586,100.224
	c2.309-1.283,5.451-1.924,9.426-1.924c1.924,0,6.733,0.321,14.428,0.962l-23.277-67.521c-9.618-28.214-17.505-42.321-23.661-42.321
	c-2.437,0-4.296,1.123-5.579,3.367C843.163,751.178,842.522,753.583,842.522,756.148z M827.324,902.156
	c0,4.616,3.302,12.247,9.907,22.892c6.604,10.645,14.139,20.455,22.603,29.433c8.464,8.977,14.876,13.466,19.237,13.466
	c1.795,0,3.43-0.834,4.905-2.501c1.475-1.667,2.212-3.398,2.212-5.194c0-3.078-2.052-9.618-6.156-19.621
	c-1.667-4.104-3.719-8.721-6.156-13.851s-5.482-10.837-9.137-17.121c-3.655-6.284-7.599-11.479-11.831-15.582
	c-4.232-4.104-8.208-6.156-11.927-6.156c-2.565,0-5.482,1.731-8.753,5.194C828.96,896.577,827.324,899.591,827.324,902.156z
	 M796.93,966.6c0,5.258,1.603,11.927,4.809,20.006c7.566,18.596,19.333,33.151,35.3,43.668
	c15.966,10.517,34.017,15.774,54.152,15.774c29.112,0,53.607-10.901,73.485-32.703c19.493-21.674,29.24-49.054,29.24-82.142
	c0-5.515-0.064-9.811-0.192-12.889c-0.129-3.077-0.866-7.054-2.213-11.927s-3.302-8.464-5.867-10.772
	c-7.182-6.284-20.743-11.125-40.686-14.524c-19.942-3.398-37.288-5.098-52.036-5.098c-4.745,0-7.887,0.706-9.426,2.116
	c-1.539,0.641-2.309,2.885-2.309,6.733c0,4.36,1.378,8.208,4.136,11.542c2.757,3.334,6.316,5.899,10.676,7.694
	c4.36,1.796,9.33,3.303,14.908,4.521c5.579,1.218,11.189,1.955,16.833,2.212c5.643,0.256,11.093,0.513,16.351,0.77
	c5.259,0.256,9.747,0.256,13.466,0h4.425c3.078,0,5.643,1.218,7.695,3.655c1.923,2.437,3.142,5.963,3.654,10.58
	c-3.591,3.591-9.746,7.054-18.467,10.388c-7.823,2.821-13.787,5.771-17.891,8.849c-8.208,5.899-15.165,13.21-20.872,21.931
	s-8.561,17.505-8.561,26.354c0,3.976,1.187,9.65,3.559,17.024c2.373,7.374,3.56,12.985,3.56,16.832l-0.577,2.309
	c-0.514,1.539-0.77,2.437-0.77,2.693c-17.57-1.282-26.932-15.133-28.086-41.552c-1.026,0.257-3.655,0.385-7.887,0.385
	c0.256,0.897,0.385,2.244,0.385,4.04c0,6.797-2.597,12.536-7.791,17.217s-11.253,7.021-18.179,7.021
	c-10.517,0-21.193-5.002-32.03-15.005s-16.255-20.199-16.255-30.587c0-4.36,2.116-8.656,6.348-12.889
	c6.668,8.208,10.516,13.081,11.542,14.62c9.875,13.338,18.403,20.007,25.585,20.007c1.539,0,3.238-0.545,5.098-1.636
	c1.859-1.09,2.789-2.404,2.789-3.943c0-4.36-5.611-13.658-16.832-27.894c-11.222-14.235-18.692-21.353-22.411-21.353
	c-5.515,0-10.003,2.854-13.466,8.561C798.661,954.897,796.93,960.7,796.93,966.6z M775,968.331c0-12.953,2.725-23.405,8.176-31.356
	c5.45-7.951,14.203-13.594,26.258-16.929c-3.591-9.49-5.386-16.159-5.386-20.006c0-7.952,3.911-15.838,11.734-23.662
	c7.823-7.823,15.646-11.734,23.469-11.734c3.719,0,8.208,0.961,13.466,2.885c-20.904-59.25-31.356-95.607-31.356-109.073
	c0-10.259,2.629-18.627,7.887-25.104c5.258-6.476,12.889-9.714,22.892-9.714c16.8,0,37.64,37.255,62.52,111.766
	c0.77,2.18,1.282,3.655,1.539,4.424c0.769-2.052,2.629-7.149,5.578-15.293s5.739-15.742,8.368-22.796s6.092-15.229,10.388-24.527
	s8.433-17.185,12.408-23.662c3.976-6.476,8.496-12.023,13.562-16.64c5.065-4.617,9.972-6.925,14.717-6.925
	c9.105,0,16.287,3.142,21.545,9.426c5.258,6.284,7.887,14.107,7.887,23.469c0,13.851-10.195,49.118-30.586,105.803
	c7.822,1.924,14.267,4.874,19.333,8.849c5.065,3.976,8.816,8.977,11.253,15.004s4.104,12.023,5.002,17.986
	c0.897,5.964,1.347,13.05,1.347,21.257c0,19.237-3.014,37.191-9.041,53.863c-6.028,16.672-14.492,31.1-25.393,43.283
	c-10.901,12.184-24.432,21.802-40.59,28.855c-16.159,7.054-33.985,10.58-53.479,10.58c-14.235,0-28.535-2.693-42.898-8.079
	c-19.109-7.311-35.653-19.59-49.631-36.839C781.99,1006.195,775,987.824,775,968.331z"/>
</svg>
