<?xml version="1.0" encoding="utf-8"?>
<!-- Generator: Adobe Illustrator 16.0.3, SVG Export Plug-In . SVG Version: 6.00 Build 0)  -->
<!DOCTYPE svg PUBLIC "-//W3C//DTD SVG 1.1//EN" "http://www.w3.org/Graphics/SVG/1.1/DTD/svg11.dtd">
<svg version="1.1" id="Ebene_1" xmlns="http://www.w3.org/2000/svg" xmlns:xlink="http://www.w3.org/1999/xlink" x="0px" y="0px"
	 width="256px" height="256px" viewBox="0 0 256 256" enable-background="new 0 0 256 256" xml:space="preserve">
<g>
	
		<linearGradient id="SVGID_1_" gradientUnits="userSpaceOnUse" x1="-70.3384" y1="327.1533" x2="-70.3384" y2="326.5352" gradientTransform="matrix(255.7156 0 0 -255.7156 18114.6621 83710.3125)">
		<stop  offset="0" style="stop-color:#FDFDFD"/>
		<stop  offset="1" style="stop-color:#CBCBCB"/>
	</linearGradient>
	<circle fill="url(#SVGID_1_)" cx="128" cy="128" r="82.335"/>
	
		<linearGradient id="SVGID_2_" gradientUnits="userSpaceOnUse" x1="-70.2769" y1="327.0459" x2="-70.2769" y2="326.4278" gradientTransform="matrix(233.8133 0 0 -233.8133 16559.5293 76526.5547)">
		<stop  offset="0" style="stop-color:#B2E198"/>
		<stop  offset="1" style="stop-color:#04A171"/>
	</linearGradient>
	<circle fill="url(#SVGID_2_)" cx="127.908" cy="128.091" r="75.283"/>
	<g transform="translate(45.511111, 52.622222)">
		<path fill="#F2F8F6" d="M64.75,63.848c-0.886,1.366-1.742,2.737-2.568,4.11c-0.904-2.488-1.697-4.937-2.373-7.327
			c2.402-0.344,4.956-0.616,7.646-0.804C66.542,61.139,65.639,62.479,64.75,63.848L64.75,63.848L64.75,63.848z M131.166,68.662
			c-2.66-2.555-6.465-4.895-11.306-6.957c-9.612-4.093-22.486-6.745-36.252-7.467c-1.66-0.087-3.281-0.146-4.848-0.178
			c10.51-12.544,20.661-19.219,26.571-19.444c1.252-0.048,2.304,0.2,3.126,0.735c2.768,1.798,3.534,7.375,2.054,14.918
			c-0.292,1.489,0.678,2.933,2.166,3.225c1.489,0.292,2.934-0.677,3.227-2.167c2.546-12.968-1.016-18.351-4.451-20.584
			c-1.793-1.166-3.924-1.71-6.329-1.619C96.03,29.471,83.29,39.166,71.665,54.113c-4.603,0.159-9.04,0.556-13.19,1.176
			c-0.456-2.115-0.808-4.166-1.046-6.131c-1.042-8.593,0.236-14.692,3.42-16.316c0.512-0.261,1.071-0.411,1.709-0.458
			c2.845-0.214,6.859,1.698,11.296,5.382c1.167,0.969,2.899,0.809,3.869-0.358c0.969-1.167,0.809-2.899-0.358-3.869
			c-5.699-4.732-10.819-6.965-15.219-6.635c-1.36,0.102-2.637,0.453-3.794,1.043c-2.958,1.508-4.979,4.396-6.008,8.585
			c-0.881,3.586-1.006,8.058-0.371,13.289c0.251,2.068,0.618,4.222,1.091,6.438c-3.245,0.684-6.252,1.518-8.949,2.492
			c-11.794,4.26-14.518,9.876-14.725,13.837c-0.198,3.784,1.739,9.415,12.091,14.753c1.349,0.695,3.006,0.166,3.701-1.183
			c0.696-1.349,0.166-3.006-1.183-3.701c-5.955-3.071-9.28-6.563-9.122-9.583c0.223-4.253,7.352-8.754,19.495-11.291
			c1.125,4.063,2.57,8.282,4.302,12.56c-4.365,8.193-7.549,16.268-9.201,23.45c-1.18,5.133-1.525,9.589-1.025,13.244
			c0.583,4.271,2.292,7.353,5.075,9.162c1.42,0.923,3.333,1.645,5.846,1.645c3.644,0,8.548-1.519,15.032-6.143
			c1.236-0.881,1.523-2.597,0.642-3.832c-0.881-1.235-2.597-1.522-3.832-0.642c-6.391,4.559-11.884,6.19-14.693,4.365
			c-2.996-1.947-3.627-8.142-1.689-16.568c1.285-5.588,3.577-11.782,6.687-18.165c0.674,1.444,1.379,2.891,2.114,4.334
			c6.257,12.291,13.917,22.985,21.568,30.112c3.854,3.589,7.539,6.115,10.955,7.51c2.071,0.847,4.018,1.271,5.824,1.271
			c1.672-0.001,3.226-0.363,4.647-1.089c2.853-1.454,4.836-4.198,5.896-8.156c0.907-3.389,1.111-7.616,0.606-12.565
			c-0.994-9.729-4.671-21.597-10.354-33.415c-0.657-1.368-2.3-1.943-3.667-1.286c-1.367,0.658-1.942,2.299-1.285,3.667
			c5.414,11.259,8.908,22.479,9.839,31.592c0.818,8.016-0.503,13.723-3.533,15.268c-3.182,1.623-8.858-0.926-15.184-6.817
			c-7.193-6.7-14.444-16.852-20.417-28.584c-1.366-2.683-2.624-5.371-3.768-8.039c1.42-2.54,2.957-5.089,4.6-7.622
			c1.675-2.582,3.372-5.016,5.072-7.298c0.451-0.006,0.905-0.011,1.362-0.013c2.36-0.007,4.889,0.059,7.526,0.197
			c13.14,0.689,25.352,3.188,34.387,7.035c7.946,3.384,12.579,7.537,12.393,11.108c-0.159,3.032-3.843,6.166-10.107,8.598
			c-1.415,0.55-2.116,2.143-1.567,3.557c0.423,1.087,1.462,1.754,2.563,1.754c0.33,0,0.667-0.061,0.993-0.188
			c10.886-4.227,13.408-9.638,13.606-13.434C135.76,74.839,134.273,71.645,131.166,68.662L131.166,68.662L131.166,68.662z"/>
		<path fill="#F1F8F3" d="M76.818,76.107c0,3.318,2.688,6.008,6.003,6.008c3.316,0,6.003-2.689,6.003-6.008
			s-2.688-6.009-6.003-6.009C79.506,70.098,76.818,72.789,76.818,76.107"/>
	</g>
</g>
</svg>
