<?xml version="1.0" encoding="utf-8"?>
<!-- Generator: Adobe Illustrator 16.0.3, SVG Export Plug-In . SVG Version: 6.00 Build 0)  -->
<!DOCTYPE svg PUBLIC "-//W3C//DTD SVG 1.1//EN" "http://www.w3.org/Graphics/SVG/1.1/DTD/svg11.dtd">
<svg version="1.1" id="Ebene_1" xmlns="http://www.w3.org/2000/svg" xmlns:xlink="http://www.w3.org/1999/xlink" x="0px" y="0px"
	 width="256px" height="256px" viewBox="0 31 256 256" enable-background="new 0 31 256 256" xml:space="preserve">
<g>
	<path fill="#002A41" d="M60.48,75.122v90.69l67.503,38.479v-26.156l-45.159-25.742v-40.434l45.159,25.743v-24.1L60.48,75.122
		L60.48,75.122z"/>
	<path fill="#0071B5" d="M195.486,75.122v90.69l-67.503,38.479v-26.156l45.158-25.742v-40.434l-45.158,25.743v-24.1L195.486,75.122
		L195.486,75.122z"/>
	<path fill="#0071B5" d="M60.48,242.811v-90.689l67.503-38.479v26.156L82.825,165.54v38.377l45.159-25.742v26.156L60.48,242.811
		L60.48,242.811z"/>
	<path fill="#002A41" d="M195.486,242.811v-90.689l-67.503-38.479v26.156l45.158,25.742v38.377l-45.158-25.742v26.156
		L195.486,242.811L195.486,242.811z"/>
</g>
</svg>
