<?xml version="1.0" encoding="utf-8"?>
<!-- Generator: Adobe Illustrator 16.0.3, SVG Export Plug-In . SVG Version: 6.00 Build 0)  -->
<!DOCTYPE svg PUBLIC "-//W3C//DTD SVG 1.1//EN" "http://www.w3.org/Graphics/SVG/1.1/DTD/svg11.dtd">
<svg version="1.1" id="Ebene_1" xmlns="http://www.w3.org/2000/svg" xmlns:xlink="http://www.w3.org/1999/xlink" x="0px" y="0px"
	 width="256px" height="257px" viewBox="0 0 256 257" enable-background="new 0 0 256 257" xml:space="preserve">
<g>
	<path fill="#EF3F36" d="M127.915,49.704c0,0,46.143-2.071,70.606,44.31h-74.532c0,0-14.065-0.453-26.081,16.611
		c-3.452,7.162-7.162,14.54-2.999,29.08c-5.997-10.161-31.841-55.161-31.841-55.161S81.297,51.538,127.915,49.704L127.915,49.704z"
		/>
	<path fill="#FCD900" d="M196.127,167.445c0,0-21.293,41.01-73.67,38.982c6.472-11.196,37.277-64.545,37.277-64.545
		s7.442-11.951-1.338-30.892c-4.466-6.58-9.017-13.461-23.687-17.128c11.8-0.108,63.682,0,63.682,0S217.828,126.157,196.127,167.445
		L196.127,167.445z"/>
	<path fill="#61BC5B" d="M60.026,167.77c0,0-24.873-38.938,3.085-83.291c6.45,11.196,37.255,64.544,37.255,64.544
		s6.645,12.426,27.419,14.281c7.917-0.582,16.158-1.078,26.685-11.929c-5.803,10.268-31.841,55.139-31.841,55.139
		S84.921,207.204,60.026,167.77L60.026,167.77z"/>
	<path fill="#5AB055" d="M122.436,206.815l10.484-43.749c0,0,11.52-0.906,21.184-11.497
		C148.106,162.117,122.436,206.815,122.436,206.815L122.436,206.815z"/>
	<path fill="#FFFFFF" d="M92.795,128.745c0-19.286,15.64-34.925,34.926-34.925c19.286,0,34.926,15.64,34.926,34.925
		c0,19.286-15.64,34.926-34.926,34.926C108.435,163.649,92.795,148.031,92.795,128.745L92.795,128.745z"/>
	
		<linearGradient id="SVGID_1_" gradientUnits="userSpaceOnUse" x1="-69.2153" y1="325.7314" x2="-69.2153" y2="325.141" gradientTransform="matrix(94.9348 0 0 -94.9348 6698.7139 31023.2969)">
		<stop  offset="0" style="stop-color:#86BBE5"/>
		<stop  offset="1" style="stop-color:#1072BA"/>
	</linearGradient>
	<path fill="url(#SVGID_1_)" d="M98.641,128.745c0-16.05,13.008-29.08,29.08-29.08c16.05,0,29.08,13.008,29.08,29.08
		c0,16.05-13.009,29.079-29.08,29.079C111.671,157.824,98.641,144.795,98.641,128.745L98.641,128.745z"/>
	<path fill="#EACA05" d="M198.37,93.884l-43.166,12.663c0,0-6.515-9.557-20.516-12.663C146.834,93.82,198.37,93.884,198.37,93.884
		L198.37,93.884z"/>
	<path fill="#DF3A32" d="M94.068,138.107c-6.062-10.506-31-53.564-31-53.564l31.97,31.625c0,0-3.279,6.752-2.049,16.417
		L94.068,138.107L94.068,138.107z"/>
</g>
</svg>
