<?xml version="1.0" encoding="utf-8"?>
<!-- Generator: Adobe Illustrator 16.0.3, SVG Export Plug-In . SVG Version: 6.00 Build 0)  -->
<!DOCTYPE svg PUBLIC "-//W3C//DTD SVG 1.1//EN" "http://www.w3.org/Graphics/SVG/1.1/DTD/svg11.dtd">
<svg version="1.1" id="Ebene_1" xmlns:svg="http://www.w3.org/2000/svg"
	 xmlns="http://www.w3.org/2000/svg" xmlns:xlink="http://www.w3.org/1999/xlink" x="0px" y="0px" width="256px" height="256px"
	 viewBox="0 -5.5 256 256" enable-background="new 0 -5.5 256 256" xml:space="preserve">
<g>
	<path fill="#FFFFFF" d="M77.501,171.293c0.145-0.36,0.289-0.721,0.433-1.081l0.072-0.145c0.36-0.864,0.721-1.802,1.082-2.667
		c0.433-1.154,0.865-2.38,1.297-3.533c0.289-0.648,0.505-1.298,0.721-2.019c0.577-1.586,1.37-3.678,2.307-5.696
		c0.577-1.226,1.009-2.09,1.514-2.884c0.577-0.937,1.153-1.802,1.803-2.668l0.504-0.721l0.793-0.504
		c0.072-0.072,0.216-0.145,0.361-0.217c0.36-0.216,0.793-0.36,1.082-0.504c0.504-0.217,1.153-0.434,1.875-0.649
		c1.009-0.289,2.163-0.577,3.533-0.865c2.019-0.433,4.182-0.865,6.921-1.298c4.109-0.649,8.508-1.226,13.771-1.803
		c9.301-1.01,18.602-1.73,27.542-2.163c4.758-0.216,8.363-0.288,11.752-0.288c0.721,0,1.441,0,2.163,0
		c2.234,0.072,4.83,0.145,7.21,0.505c0.865,0.145,1.658,0.288,2.234,0.505c0.216,0.071,0.433,0.144,0.505,0.216l0.721,0.289
		l0.577,0.505c0.216,0.216,0.433,0.432,0.649,0.648c0.792,0.793,1.657,1.73,2.523,2.812c2.739,3.461,5.19,7.643,7.354,12.401
		c2.091,4.614,3.389,8.724,4.182,12.761l1.082,5.696h-13.267l-0.793-3.821c-0.865-4.038-11.752-14.708-17.159-16.799
		c-0.577-0.217-2.884-0.865-10.022-0.865c-14.708,0-35.473,2.596-38.428,3.244c-3.533,1.658-8.94,8.58-12.041,15.502l-1.298,2.811"
		/>
	<path fill="#BA8449" d="M167.625,150.24c-0.649-0.864-1.37-1.658-2.163-2.379c-0.145-0.145-0.36-0.36-0.505-0.505
		c0,0-0.072,0-0.145-0.071c-0.36-0.145-0.865-0.217-1.37-0.289c-2.091-0.288-4.326-0.36-6.561-0.433
		c-4.542-0.071-9.084,0.072-13.627,0.289c-9.084,0.433-18.241,1.153-27.253,2.163c-4.542,0.504-9.084,1.081-13.554,1.802
		c-2.235,0.361-4.47,0.722-6.633,1.226c-1.082,0.217-2.163,0.505-3.172,0.794c-0.504,0.144-1.009,0.287-1.442,0.505
		c-0.216,0.071-0.433,0.144-0.504,0.287c0,0-0.072,0-0.072,0.073c-0.505,0.721-1.009,1.441-1.514,2.234s-0.865,1.658-1.297,2.523
		c-0.793,1.73-1.514,3.533-2.163,5.336c-0.649,1.802-1.37,3.677-2.019,5.551c-0.36,0.938-0.721,1.875-1.154,2.813
		c-0.144,0.432-0.36,0.865-0.577,1.297h6.128c3.317-7.426,9.589-15.934,14.78-18.024c1.442-0.576,24.658-3.461,40.015-3.461
		c5.696,0,9.589,0.433,11.752,1.227c6.273,2.45,18.818,14.059,20.116,20.332h3.532c-0.721-3.966-2.163-7.859-3.821-11.608
		C172.527,157.595,170.292,153.629,167.625,150.24"/>
	<path fill="#FFFFFF" d="M164.885,147.213L164.885,147.213L164.885,147.213L164.885,147.213L164.885,147.213L164.885,147.213z"/>
	<path fill="#BA8449" d="M164.885,147.213L164.885,147.213L164.885,147.213L164.885,147.213L164.885,147.213L164.885,147.213z"/>
	<path fill="#FFFFFF" d="M174.257,177.998l-0.721-3.893c-0.648-3.244-1.729-6.705-3.46-10.526c-1.875-4.038-3.894-7.57-6.2-10.382
		c-0.434-0.577-0.866-1.082-1.298-1.515c-1.803-0.288-3.894-0.288-5.769-0.36c-0.648,0-1.298,0-2.019,0
		c-3.245,0-6.705,0.072-11.319,0.288c-8.796,0.433-17.809,1.153-26.965,2.163c-5.119,0.577-9.373,1.153-13.266,1.73
		c-2.523,0.361-4.542,0.793-6.345,1.153c-1.153,0.289-2.019,0.505-2.812,0.722c-0.144,0-0.216,0.071-0.289,0.071
		c-0.145,0.289-0.36,0.505-0.505,0.794c-0.36,0.576-0.649,1.226-1.153,2.09c-0.793,1.659-1.442,3.389-2.019,4.903
		c-0.288,0.648-0.504,1.298-0.721,1.946c-0.433,1.226-0.865,2.452-1.37,3.678c-0.36,0.937-0.793,1.874-1.153,2.884l-0.072,0.145
		c-0.144,0.432-0.36,0.864-0.504,1.225l-1.298,2.884h-8.435l-1.226-0.576l-0.144-0.072c-2.884-1.657-2.884-4.109-2.813-5.119v-0.216
		l0.145-0.648l0.216-0.794c0.144-0.505,0.289-1.081,0.433-1.586c0.288-1.082,0.648-2.091,1.009-3.101
		c0.649-1.874,1.442-3.893,2.379-6.056c1.009-2.235,1.946-4.183,3.028-5.984c0.505-0.938,1.082-1.875,1.803-2.956
		c0.649-1.01,1.37-2.019,2.091-2.956c0.649-0.793,1.226-1.298,1.658-1.586h0.072c0.433-0.36,0.865-0.577,1.082-0.649
		c0.649-0.36,1.153-0.576,1.514-0.721c0.865-0.36,1.658-0.577,2.307-0.793c1.442-0.433,2.812-0.721,3.822-0.938
		c2.091-0.433,4.326-0.865,7.138-1.298c4.181-0.648,8.58-1.153,13.987-1.73c9.373-0.937,18.746-1.657,27.83-2.019
		c4.326-0.144,7.715-0.288,10.814-0.288c1.154,0,2.235,0,3.317,0c2.307,0.071,4.902,0.145,7.715,0.576h0.071
		c0.649,0.145,1.658,0.289,2.813,0.649h0.071c0.289,0.145,0.722,0.288,1.227,0.505c0.36,0.216,0.648,0.36,0.865,0.504l0.36,0.289
		l0.288,0.216l0.288,0.289c0.288,0.288,0.505,0.505,0.793,0.793c0.938,0.937,1.803,1.946,2.739,3.172
		c2.885,3.75,5.408,8.075,7.715,13.194c1.082,2.379,2.019,4.758,2.74,7.065c0.793,2.523,1.37,4.902,1.802,7.21l0.865,5.552h-13.122
		V177.998z"/>
	<path fill="#FFFFFF" d="M82.115,177.998l3.173-6.849c2.667-5.695,9.084-16.15,16.222-19.106l0.144-0.072
		c2.379-0.865,26.46-3.677,41.168-3.677c8.22,0,11.32,0.793,12.906,1.442c7.426,2.884,20.331,15.068,22.062,22.278l1.442,5.912
		H82.115V177.998z"/>
	<path fill="#FFFFFF" d="M169.428,177.998l-0.866-3.677c-0.793-3.389-10.959-13.554-16.222-15.646
		c-0.505-0.216-2.596-0.792-9.518-0.792c-14.131,0-34.607,2.523-37.924,3.172c-2.739,1.37-7.714,7.21-10.958,14.132l-1.298,2.739
		H80.673l3.028-6.705c3.533-7.931,10.526-17.736,17.376-20.477c2.667-1.081,27.037-3.821,41.817-3.821
		c6.417,0,10.743,0.505,13.41,1.515c7.427,2.884,21.342,15.429,23.072,23.792l1.153,5.768H169.428z"/>
	<path fill="#FFFFFF" d="M174.979,177.998l-1.37-1.297c-5.19-4.831-6.633-14.853-5.047-18.962c1.082-2.74,3.39-3.677,5.119-3.677
		c0.505,0,0.938,0.071,1.37,0.216c0.938-0.072,3.101-1.875,3.749-2.884c1.009-1.875,2.956-3.028,5.335-3.028
		c3.533,0,9.301,2.813,11.176,5.479c1.081,1.515,1.37,3.316,0.793,4.903c-0.072,0.144-0.145,0.432-0.288,0.792
		c-1.947,5.84-4.471,12.979-6.489,16.295l-1.37,2.235L174.979,177.998L174.979,177.998z"/>
	<path fill="#FFFFFF" d="M174.546,177.998l4.471-7.281c2.163-3.533,3.677-6.417,4.687-8.651c-2.523,1.802-6.057,2.884-11.32,3.172
		l-0.145-0.145l-0.071,0.505c-3.101,0-5.624-2.523-5.768-5.624c-0.073-1.514,0.504-3.027,1.514-4.182
		c1.01-1.153,2.451-1.802,3.965-1.874c5.191-0.216,5.841-1.442,6.777-3.244c1.298-2.452,4.11-3.894,7.787-3.894
		c0.937,0,1.874,0.072,2.739,0.288c4.542,1.009,7.499,4.471,7.715,8.94c0.216,4.542-2.308,11.175-7.354,19.684l-1.369,2.306H174.546
		L174.546,177.998z"/>
	<path fill="#FFFFFF" d="M193.508,163.796c-5.84,0-12.185-3.822-15.429-7.57c-2.956-3.389-3.244-6.417-2.956-8.364
		c0.36-2.379,2.307-4.758,5.84-4.758c0.648,0,1.298,0.071,1.874,0.144c0.577-2.596,1.947-8.003,7.499-8.003c0.288,0,0.504,0,0.793,0
		c2.668,0.289,4.687,1.947,5.479,4.471c0.866-0.433,1.875-0.793,3.028-0.793c1.731,0,3.39,0.721,4.615,2.019
		c1.946,2.09,2.379,4.975,1.153,7.715c1.298,0.792,2.307,2.019,2.739,3.604c0.577,2.019,0.217,4.182-1.081,5.911
		c-2.523,3.533-8.363,5.191-12.979,5.336C193.797,163.796,193.652,163.796,193.508,163.796"/>
	<path fill="#FFFFFF" d="M187.74,45.049c-5.264,3.316-11.031,10.887-18.097,21.269c-1.082,1.658-2.884,2.523-4.902,2.523
		c-2.597,0-5.913-1.586-9.733-4.686c-6.057-4.903-6.201-7.643-6.273-8.724c-0.144-2.884,2.019-5.335,5.047-5.624
		c5.84-0.504,10.671-4.037,15.357-7.426c4.687-3.389,9.013-6.489,14.203-6.489c1.01,0,2.091,0.145,3.101,0.361"/>
	<path fill="#FFF8EE" d="M154.214,54.638c14.132-1.297,22.423-15.934,31.003-13.699c-5.769,3.605-11.464,10.815-19.467,22.639
		C163.803,66.39,150.321,54.999,154.214,54.638"/>
	<path fill="#FFFFFF" d="M62.648,47.933c3.533-3.244,8.292-4.903,14.132-4.903c5.047,0,11.031,1.226,17.736,3.677
		c1.802,0.649,4.182,0.793,5.984,0.793c0.505,0,1.01,0,1.442,0c0.433,0,0.865,0,1.226,0c1.658,0,5.191,0,6.705,3.245
		c0.505,1.226,1.154,3.749-0.792,6.705c-2.379,3.677-8.652,7.57-14.708,7.57c-0.072,0-0.216,0-0.288,0
		c-3.245-0.072-6.272-1.802-9.806-3.749c-4.398-2.452-9.373-5.263-15.285-5.263c-0.793,0-1.659,0.072-2.451,0.144"/>
	<path fill="#FFFFFF" d="M171.373,82.901c-2.595,0-7.497-1.082-10.598-8.436c-1.73-3.893-2.308-8.291-2.308-10.743
		c0-5.047,2.668-6.417,4.326-6.777c1.153-1.154,3.316-4.11,4.902-6.345c6.561-8.94,11.32-14.78,16.872-14.78
		c0.937,0,1.802,0.144,2.667,0.504c7.427,2.957,11.031,9.229,9.806,17.16c-0.865,5.84-4.542,12.762-9.949,19.106
		c-2.523,2.956-9.085,9.878-14.925,10.311C171.878,82.901,171.662,82.901,171.373,82.901"/>
	<path fill="#FFFFFF" d="M86.153,85.64c-0.649,0-1.297,0-1.875-0.144c-9.229-1.514-20.764-10.815-25.09-20.404
		c-2.956-6.561-1.658-11.031,0-13.626c2.668-4.254,6.633-6.489,11.536-6.489c5.913,0,11.824,3.245,17.016,6.057
		c2.019,1.081,4.902,2.667,6.128,2.956c0.433-0.145,0.865-0.217,1.37-0.217c1.875,0,3.605,1.01,4.614,2.74
		c2.379,4.182,0.938,15.429-2.812,21.918C94.444,83.189,90.551,85.64,86.153,85.64L86.153,85.64z"/>
	<path fill="#FFFFFF" d="M118.309,166.103c-21.63,0-43.043-10.599-50.181-18.313c-7.426-8.004-10.094-17.088-8.075-27.037
		c1.73-8.147,6.272-15.43,10.238-21.919c2.74-4.47,5.335-8.651,6.056-11.68c8.796-38.861,30.859-43.836,49.1-43.836
		c1.153,0,2.379,0,3.749,0.072c38.861,1.153,42.756,19.899,45.062,31.146c0.434,2.091,0.866,4.038,1.371,5.335
		c13.049,32.012,15.212,51.19,7.209,64.167c-7.858,12.762-25.09,19.034-59.409,21.846
		C121.77,166.03,120.039,166.103,118.309,166.103L118.309,166.103z"/>
	<path fill="#FFFFFF" d="M117.516,166.175c-22.062,0-42.466-10.959-49.315-18.385c-7.426-8.004-10.094-17.088-8.075-27.037
		c1.731-8.147,6.273-15.43,10.238-21.919c2.74-4.47,5.335-8.651,6.056-11.68c8.796-38.861,30.858-43.836,49.1-43.836
		c1.153,0,2.379,0,3.75,0.072c38.86,1.153,42.754,19.899,45.062,31.146c0.432,2.091,0.865,4.038,1.369,5.335
		c12.834,31.507,14.925,50.541,7.066,63.518c-9.013,14.925-30.21,19.756-59.193,22.495
		C121.553,166.103,119.535,166.175,117.516,166.175"/>
	<path fill="#FFFFFF" d="M173.681,139.065c0.289-0.648,0.576-1.37,0.865-2.019c2.956-7.065,5.191-13.266,1.658-17.231
		c-4.182-4.614-21.846-12.978-37.563-20.332c-30.065-14.204-48.667-23.36-51.334-32.444c-0.649-2.307-0.36-4.687,0.865-6.706
		c5.191-8.147,19.683-16.871,39.51-16.871c0.216,0,0.361,0,0.577,0c18.674,0.145,32.228,5.552,40.375,15.934
		c6.922,8.796,8.436,19.106,9.589,26.604c0.36,2.523,0.865,5.768,1.37,6.633c14.131,24.297,7.643,42.25,2.523,50.685
		L173.681,139.065z"/>
	<path fill="#FFFFFF" d="M158.9,111.091c-7.281,0-19.467-1.802-23.648-5.84c-3.316-3.172-4.542-8.436-5.84-13.554
		c-0.505-2.163-1.37-5.624-2.163-7.21h-0.072c-0.288,0.793-0.648,1.802-0.937,2.596c-1.947,5.479-4.687,13.049-10.382,17.159
		c-2.452,1.803-11.32,3.39-18.169,3.39l0,0c-6.849,0-12.04-1.442-15.501-4.398c-4.975-4.182-8.724-11.896-11.248-22.927
		c-0.144-0.072-0.216-0.145-0.36-0.217c-1.153-0.792-2.667-1.73-3.46-3.388c-1.298-2.596-0.793-7.21,0.576-9.661
		c1.01-1.803,2.74-2.956,4.615-3.101c0.216,0,0.36,0,0.649,0c1.009,0,2.019,0.145,3.172,0.36c1.153,0.217,2.523,0.433,3.677,0.433
		c0.288,0,0.504,0,0.648,0c6.85-1.01,13.266-1.442,19.106-1.442c14.204,0,21.702,2.884,24.513,4.038
		c0.216,0.072,0.433,0.144,0.577,0.216c0.793,0.216,2.308,0.505,3.894,0.505c0.577,0,1.153,0,1.658-0.145
		c6.417-1.009,12.546-1.442,18.169-1.442c14.997,0,22.928,3.389,26.388,4.903c0.289,0.144,0.577,0.289,0.794,0.289
		c0,0,0.144,0,0.288,0c0.937,0,2.308-0.289,3.461-0.505c0.865-0.216,1.73-0.36,2.523-0.504c0.217,0,0.433,0,0.648,0
		c2.235,0,4.254,1.297,5.479,3.46c1.37,2.523,2.308,7.787,0.36,10.815c-1.298,2.019-3.388,2.956-5.118,3.749
		c-0.217,0.072-0.505,0.216-0.722,0.361c-0.576,1.009-1.586,3.028-2.451,4.687c-2.523,4.902-5.335,10.525-7.931,13.554
		C169.788,109.865,165.462,111.091,158.9,111.091"/>
	<g>
		<g>
			<defs>
				<rect id="SVGID_1_" x="66.398" y="67.255" width="122.208" height="42.682"/>
			</defs>
			<clipPath id="SVGID_2_">
				<use xlink:href="#SVGID_1_"  overflow="visible"/>
			</clipPath>
			<g opacity="0.3" clip-path="url(#SVGID_2_)">
				<g transform="translate(443.9775,368.7813)">
					<path fill="#FFFFFF" d="M-287.978-258.857c-5.768,0-13.915-0.866-19.755-4.976c-3.316-2.379-4.83-7.138-6.921-14.78
						c-0.577-2.163-1.442-5.191-2.091-6.705l0,0c-0.36,0.865-0.793,2.019-1.154,2.956c-2.163,5.84-5.119,13.771-10.526,17.087
						c-2.812,1.731-11.536,3.316-18.313,3.316c-7.282,0-12.545-1.657-15.573-4.83c-7.714-8.075-9.229-15.79-10.166-20.332
						c-0.145-0.649-0.289-1.514-0.433-2.019c-4.542-2.379-4.831-5.912-4.759-7.426c0.216-2.812,2.379-4.902,5.047-4.902
						c1.803,0,2.956,0.865,3.821,1.442c0.072,0.072,0.144,0.144,0.289,0.144c0.072,0,0.288,0.072,0.36,0.145
						c1.153,0.36,4.542,1.297,5.263,5.696c0.145,0.793,1.297,5.407,3.172,10.238c2.956,7.714,5.047,9.012,5.263,9.084
						c2.451,0.865,5.335,1.298,8.58,1.298c5.335,0,9.806-1.153,11.608-1.73c1.082-1.658,3.245-5.984,4.758-8.94
						c4.542-9.013,5.336-10.383,7.282-11.392c1.082-0.577,2.379-0.865,4.038-0.865c2.163,0,5.264,0.504,6.705,1.153
						c3.316,1.442,5.047,5.768,8.94,16.943c0.722,2.019,1.586,4.615,2.163,5.912c2.884,1.37,9.445,2.308,16.294,2.308
						c1.946,0,3.389-0.072,4.326-0.145c0.649-1.369,1.586-3.316,2.379-4.975c5.48-11.68,6.345-13.05,7.715-14.131
						c2.379-1.802,6.561-3.028,8.94-3.028c3.172,0,4.902,2.091,5.335,4.11c0.794,4.182-3.316,5.768-4.687,6.272
						c-0.36,0.144-0.865,0.361-1.226,0.505c-0.504,0.865-1.442,2.74-2.163,4.253c-5.911,11.536-7.859,14.708-10.094,16.079
						C-276.297-259.578-282.931-258.857-287.978-258.857"/>
				</g>
			</g>
		</g>
	</g>
	<g>
		<g>
			<defs>
				<rect id="SVGID_3_" x="68.2" y="64.155" width="24.081" height="11.68"/>
			</defs>
			<clipPath id="SVGID_4_">
				<use xlink:href="#SVGID_3_"  overflow="visible"/>
			</clipPath>
			<g opacity="0.3" clip-path="url(#SVGID_4_)">
				<g transform="translate(285.2881,440.1162)">
					<path fill="#FFFFFF" d="M-205.272-364.342c-0.865,0-2.523-0.144-5.84-1.226c-0.865-0.288-1.658-0.577-2.163-0.793
						c-1.082-0.433-3.894-1.514-3.894-4.831v-4.831h4.759c0.649,0,1.082,0.144,1.442,0.216c1.009,0.145,4.254,0.361,5.335,0.433
						l0.648,0.072c0.866,0,3.533-0.36,4.687-0.505c1.442-0.216,1.875-0.288,2.451-0.288h4.11l0.649,4.038
						c0.288,2.019-0.793,4.542-3.46,5.335c-0.145,0.072-0.649,0.217-1.082,0.361c-2.523,0.938-5.047,1.802-7.21,1.875
						C-204.984-364.342-205.128-364.342-205.272-364.342"/>
				</g>
			</g>
		</g>
	</g>
	<g>
		<g>
			<defs>
				<rect id="SVGID_5_" x="166.255" y="70.355" width="18.313" height="12.401"/>
			</defs>
			<clipPath id="SVGID_6_">
				<use xlink:href="#SVGID_5_"  overflow="visible"/>
			</clipPath>
			<g opacity="0.3" clip-path="url(#SVGID_6_)">
				<g transform="translate(484.2881,425.6104)">
					<path fill="#FFFFFF" d="M-309.029-342.919c-1.587,0-3.173-0.648-5.336-2.163c-2.091-1.442-3.677-2.884-3.677-5.408v-4.83h4.687
						c0.649,0,1.298,0.144,1.946,0.433c0.505,0.216,2.451,0.865,3.316,1.082c0.288,0,0.865-0.145,2.019-0.361
						c0.578-0.144,0.938-0.144,1.442-0.144h4.109l0.648,4.038c0.289,1.946-0.575,4.398-3.244,5.335
						c-0.144,0.072-0.576,0.289-0.864,0.433c-1.299,0.649-2.813,1.37-4.326,1.658C-308.453-342.919-308.741-342.919-309.029-342.919
						"/>
				</g>
			</g>
		</g>
		<path fill="#FFFFFF" d="M159.55,188.597h-17.737V173.24h17.737V188.597z"/>
	</g>
	<path fill="#BA8449" d="M167.625,150.24c-0.649-0.864-1.37-1.658-2.163-2.379c-0.145-0.145-0.36-0.36-0.505-0.505
		c0,0-0.072,0-0.145-0.071c-0.36-0.145-0.865-0.217-1.37-0.289c-2.091-0.288-4.326-0.36-6.561-0.433
		c-4.542-0.071-9.084,0.072-13.627,0.289c-9.084,0.433-18.241,1.153-27.253,2.163c-4.542,0.504-9.084,1.081-13.554,1.802
		c-2.235,0.361-4.47,0.722-6.633,1.226c-1.082,0.217-2.163,0.505-3.172,0.794c-0.504,0.144-1.009,0.287-1.442,0.505
		c-0.216,0.071-0.433,0.144-0.504,0.287c0,0-0.072,0-0.072,0.073c-0.505,0.721-1.009,1.441-1.514,2.234s-0.865,1.658-1.297,2.523
		c-0.793,1.73-1.514,3.533-2.163,5.336c-0.649,1.802-1.37,3.677-2.019,5.551c-0.36,0.938-0.721,1.875-1.154,2.813
		c-0.144,0.432-0.36,0.865-0.577,1.297h6.128c3.317-7.426,9.589-15.934,14.78-18.024c1.442-0.576,24.658-3.461,40.015-3.461
		c5.696,0,9.589,0.433,11.752,1.227c6.273,2.45,18.818,14.059,20.116,20.332h3.532c-0.721-3.966-2.163-7.859-3.821-11.608
		C172.527,157.595,170.292,153.629,167.625,150.24"/>
	<path fill="#BA8449" d="M164.885,147.213L164.885,147.213L164.885,147.213L164.885,147.213L164.885,147.213L164.885,147.213z"/>
	<path fill="#895B2E" d="M164.885,147.213L164.885,147.213L164.885,147.213L164.885,147.213L164.885,147.213L164.885,147.213z
		 M177.719,160.118c-1.947-4.326-4.183-8.436-7.139-12.185c-0.721-0.938-1.514-1.875-2.379-2.74
		c-0.216-0.216-0.433-0.432-0.648-0.648l-0.145-0.145l-0.072-0.071l-0.145-0.145c-0.144-0.072-0.288-0.145-0.36-0.216
		c-0.216-0.145-0.432-0.217-0.648-0.289c-0.793-0.289-1.37-0.36-2.02-0.505c-2.45-0.36-4.758-0.433-7.065-0.505
		c-4.687-0.071-9.229,0-13.843,0.217c-9.229,0.36-18.385,1.082-27.542,2.019c-4.542,0.505-9.156,1.01-13.771,1.73
		c-2.307,0.36-4.542,0.721-6.849,1.226c-1.153,0.289-2.307,0.505-3.461,0.865c-0.577,0.145-1.153,0.36-1.802,0.649
		c-0.289,0.144-0.649,0.288-1.009,0.504c-0.145,0.145-0.361,0.217-0.577,0.36c-0.216,0.145-0.432,0.36-0.721,0.722l0,0
		c-0.648,0.793-1.297,1.73-1.874,2.596c-0.577,0.865-1.154,1.803-1.659,2.739c-1.009,1.803-1.946,3.677-2.812,5.552
		c-0.793,1.874-1.586,3.749-2.235,5.695c-0.36,0.938-0.649,1.875-0.865,2.884c-0.145,0.505-0.289,0.938-0.433,1.442l-0.217,0.721
		l-0.072,0.36c0,0.073,0.144,0.145,0.433,0.361h0.072h4.182c0.216-0.433,0.36-0.865,0.577-1.298c0.36-0.938,0.793-1.874,1.154-2.74
		c0.721-1.874,1.37-3.677,2.019-5.552c0.649-1.802,1.37-3.677,2.163-5.334c0.433-0.866,0.865-1.659,1.298-2.523
		c0.504-0.794,0.937-1.515,1.514-2.236c0,0,0.072,0,0.072-0.071c0.144-0.072,0.36-0.145,0.505-0.289
		c0.433-0.145,0.937-0.36,1.442-0.505c1.009-0.288,2.091-0.576,3.172-0.793c2.163-0.504,4.398-0.865,6.633-1.226
		c4.47-0.721,9.012-1.298,13.554-1.802c9.084-1.01,18.169-1.73,27.253-2.163c4.542-0.217,9.085-0.361,13.627-0.288
		c2.234,0.071,4.542,0.144,6.561,0.432c0.505,0.072,1.01,0.217,1.37,0.289c0.072,0,0.145,0,0.145,0.072
		c0.144,0.144,0.36,0.36,0.504,0.505c0.794,0.792,1.442,1.586,2.163,2.379c2.668,3.389,4.903,7.354,6.777,11.392
		c1.658,3.749,3.101,7.643,3.821,11.607h3.604c-0.36-2.235-0.937-4.398-1.586-6.488
		C179.521,164.444,178.655,162.281,177.719,160.118"/>
	<path fill="#FFF8EE" d="M154.069,154.278c-1.874-0.721-5.695-1.154-11.175-1.154c-15.429,0-38.212,2.885-39.438,3.39
		c-4.687,1.875-10.526,9.806-13.771,16.727h83.563C171.878,167.833,160.271,156.729,154.069,154.278"/>
	<path fill="#E5D0AE" d="M154.574,152.908c-2.09-0.793-6.056-1.226-11.752-1.226c-15.356,0-38.573,2.884-40.015,3.461
		c-5.263,2.163-11.463,10.599-14.78,18.024h1.586c3.245-6.849,9.084-14.779,13.771-16.727c1.226-0.505,24.009-3.389,39.438-3.389
		c5.479,0,9.302,0.36,11.176,1.153c6.2,2.38,17.809,13.555,19.178,18.962h1.442C173.393,166.968,160.848,155.36,154.574,152.908"/>
	<path fill="#BA8449" d="M183.126,153.558c-0.865,1.803-5.407,6.416-9.229,5.335c-2.019-0.577-1.658,10.094,2.957,14.348h8.363
		c2.307-3.677,5.912-14.925,6.344-16.078C192.065,155.792,183.99,151.755,183.126,153.558"/>
	<path fill="#895B2E" d="M191.994,156.226c-0.145-2.308-1.515-3.966-3.966-4.543c-1.946-0.433-4.542-0.072-5.191,1.154
		c-1.297,2.45-2.884,5.407-10.742,5.839c-0.505,0-0.938,0.505-0.938,1.01s0.505,0.938,1.01,0.938
		c8.219-0.36,10.599-3.533,12.328-6.777c0.36-0.288,2.308-0.648,3.894,0c1.153,0.505,1.658,1.298,1.73,2.523
		c0.217,4.47-4.47,12.762-6.993,16.943h2.234C188.173,168.409,192.21,160.839,191.994,156.226"/>
	<g>
		<g>
			<defs>
				<rect id="SVGID_7_" x="175.267" y="154.855" width="16.943" height="19.683"/>
			</defs>
			<clipPath id="SVGID_8_">
				<use xlink:href="#SVGID_7_"  overflow="visible"/>
			</clipPath>
			<g opacity="0.15" clip-path="url(#SVGID_8_)">
				<g transform="translate(485.335,236)">
					<path fill="#E3AB5E" d="M-309.538-62.544c5.119-1.226,9.661-6.344,10.021-13.626c0.072-1.37-2.739-3.965-2.739-4.687
						c0-0.721,8.579,0.144,9.012,2.163c0.36,2.019-5.335,14.203-7.282,16.223C-302.4-60.525-312.566-61.822-309.538-62.544"/>
				</g>
			</g>
		</g>
	</g>
	<path fill="#FCD4C3" d="M179.809,148.582c-0.648,4.471,8.075,10.599,13.988,10.455c4.902-0.145,10.454-2.451,9.66-5.191
		c-0.793-2.812-5.551,0.505-5.983-1.442c-0.361-1.874,5.552-5.407,3.172-8.003c-2.235-2.379-4.83,3.75-7.426,2.885
		c-2.596-0.866,0.504-6.85-2.74-7.21c-3.821-0.36-2.379,8.146-5.263,8.291C183.198,148.582,180.025,147.141,179.809,148.582"/>
	<path fill="none" stroke="#F8A38F" stroke-width="2" stroke-miterlimit="10" d="M179.809,148.582
		c-0.648,4.471,8.075,10.599,13.988,10.455c4.902-0.145,10.454-2.451,9.66-5.191c-0.793-2.812-5.551,0.505-5.983-1.442
		c-0.361-1.874,5.552-5.407,3.172-8.003c-2.235-2.379-4.83,3.75-7.426,2.885c-2.596-0.866,0.504-6.85-2.74-7.21
		c-3.821-0.36-2.379,8.146-5.263,8.291C183.198,148.582,180.025,147.141,179.809,148.582z"/>
	<g>
		<g>
			<defs>
				<rect id="SVGID_9_" x="182.261" y="144.978" width="5.623" height="4.614"/>
			</defs>
			<clipPath id="SVGID_10_">
				<use xlink:href="#SVGID_9_"  overflow="visible"/>
			</clipPath>
			<g opacity="0.5" clip-path="url(#SVGID_10_)">
				<g transform="translate(498.9385,288.042)">
					<path fill="#FCD4C3" d="M-316.65-139.501c0.938,0.721,4.326,1.658,4.831,0.432c0.576-1.225,1.009-3.676,0.648-4.037
						c-0.288,1.153-0.648,3.316-1.875,3.821C-313.982-138.925-316.001-139.357-316.65-139.501"/>
				</g>
			</g>
		</g>
	</g>
	<g>
		<g>
			<defs>
				<rect id="SVGID_11_" x="191.417" y="143.824" width="5.552" height="5.191"/>
			</defs>
			<clipPath id="SVGID_12_">
				<use xlink:href="#SVGID_11_"  overflow="visible"/>
			</clipPath>
			<g opacity="0.5" clip-path="url(#SVGID_12_)">
				<g transform="translate(518.459,298.042)">
					<path fill="#FCD4C3" d="M-326.855-154.26c-0.144,0.793-0.793,4.542,1.153,5.047c1.658,0.433,2.885-0.577,4.182-2.668
						c-0.721,0.649-2.523,2.235-3.893,1.659C-326.783-150.871-326.928-152.313-326.855-154.26"/>
				</g>
			</g>
		</g>
	</g>
	<g>
		<g>
			<defs>
				<rect id="SVGID_13_" x="183.198" y="152.332" width="11.391" height="6.2"/>
			</defs>
			<clipPath id="SVGID_14_">
				<use xlink:href="#SVGID_13_"  overflow="visible"/>
			</clipPath>
			<g opacity="0.25" clip-path="url(#SVGID_14_)">
				<g transform="translate(500.876,276.958)">
					<path fill="#FCD4C3" d="M-317.623-123.07c9.805-4.831,11.824,3.027,11.318,4.614
						C-310.197-117.808-317.047-121.845-317.623-123.07"/>
				</g>
			</g>
		</g>
	</g>
	<g>
		<g>
			<defs>
				<rect id="SVGID_15_" x="196.536" y="150.817" width="4.109" height="3.605"/>
			</defs>
			<clipPath id="SVGID_16_">
				<use xlink:href="#SVGID_15_"  overflow="visible"/>
			</clipPath>
			<g opacity="0.5" clip-path="url(#SVGID_16_)">
				<g transform="translate(530.751,283.3955)">
					<path fill="#FCD4C3" d="M-333.24-132.581c-1.659,1.875-0.866,3.389,0.215,3.604c1.37,0.288,3.173-1.153,2.885-1.153
						c-0.361,0-3.028,0.865-3.533-0.433C-334.034-131.572-333.457-132.148-333.24-132.581"/>
				</g>
			</g>
		</g>
	</g>
	<g>
		<g>
			<defs>
				<rect id="SVGID_17_" x="83.413" y="144.833" width="92.936" height="26.316"/>
			</defs>
			<clipPath id="SVGID_18_">
				<use xlink:href="#SVGID_17_"  overflow="visible"/>
			</clipPath>
			<g opacity="0.15" clip-path="url(#SVGID_18_)">
				<g transform="translate(296.834,257.166)">
					<path fill="#E3AB5E" d="M-211.305-93.828c31.507,18.098,94.016-0.288,90.7-6.2c-4.397-7.859-6.128-12.762-15.79-12.328
						c-9.589,0.504-71.305,5.407-73.828,7.281C-212.675-103.128-215.415-96.207-211.305-93.828"/>
				</g>
			</g>
		</g>
	</g>
	<path fill="#FFF8EE" d="M154.214,54.638c14.132-1.297,22.423-15.934,31.003-13.699c-5.769,3.605-11.464,10.815-19.467,22.639
		C163.803,66.39,150.321,54.999,154.214,54.638"/>
	<path fill="none" stroke="#E5D0AE" stroke-width="3" stroke-linecap="round" stroke-linejoin="round" stroke-miterlimit="10" d="
		M154.214,54.638c14.132-1.297,22.423-15.934,31.003-13.699c-5.769,3.605-11.464,10.815-19.467,22.639
		C163.803,66.39,150.321,54.999,154.214,54.638z"/>
	<path fill="#BA8449" d="M65.893,51.466c6.345-5.913,17.809-3.605,27.037-0.289c5.263,1.875,12.113,0.36,12.545,1.442
		c1.153,2.523-5.696,7.714-11.32,7.57C88.604,60.118,79.304,49.663,65.893,51.466"/>
	<path fill="none" stroke="#895B2E" stroke-width="2" stroke-linecap="round" stroke-linejoin="round" stroke-miterlimit="10" d="
		M65.893,51.466c6.345-5.913,17.809-3.605,27.037-0.289c5.263,1.875,12.113,0.36,12.545,1.442c1.153,2.523-5.696,7.714-11.32,7.57
		C88.604,60.118,79.304,49.663,65.893,51.466z"/>
	<path fill="#FCD4C3" d="M163.876,61.632c3.244,0.937,15.572-23.216,21.557-20.837c19.034,7.57-5.768,36.698-13.626,37.347
		C163.876,78.719,162.073,61.055,163.876,61.632"/>
	<path fill="none" stroke="#F8A38F" stroke-width="2" stroke-miterlimit="10" d="M163.876,61.632
		c3.244,0.937,15.572-23.216,21.557-20.837c19.034,7.57-5.768,36.698-13.626,37.347C163.876,78.719,162.073,61.055,163.876,61.632z"
		/>
	<path fill="#FCD4C3" d="M95.093,58.748c-5.263,2.307-23.937-17.232-31.795-4.687c-5.191,8.292,10.526,25.018,21.773,26.821
		C96.319,82.684,97.833,57.522,95.093,58.748"/>
	<path fill="none" stroke="#F8A38F" stroke-width="2" stroke-miterlimit="10" d="M95.093,58.748
		c-5.263,2.307-23.937-17.232-31.795-4.687c-5.191,8.292,10.526,25.018,21.773,26.821C96.319,82.684,97.833,57.522,95.093,58.748z"
		/>
	<g>
		<g>
			<defs>
				<rect id="SVGID_19_" x="165.895" y="45.481" width="12.978" height="32.156"/>
			</defs>
			<clipPath id="SVGID_20_">
				<use xlink:href="#SVGID_19_"  overflow="visible"/>
			</clipPath>
			<g clip-path="url(#SVGID_20_)">
				<g transform="translate(491.167,503.5005)">
					<path fill="#FCD4C3" d="M-312.607-458.019c-1.009,3.317-9.517,11.896-8.363,19.25c0.433,2.74,3.316,10.815,4.543,10.527
						c1.225-0.289,4.325-2.235,4.037-1.803c-0.289,0.433-4.326,3.389-5.84,4.182c-1.515-0.793-7.931-15.717-6.994-16.511
						C-322.413-444.897-313.833-457.875-312.607-458.019"/>
				</g>
			</g>
		</g>
	</g>
	<g>
		<g>
			<defs>
				<rect id="SVGID_21_" x="63.586" y="50.312" width="31.868" height="22.783"/>
			</defs>
			<clipPath id="SVGID_22_">
				<use xlink:href="#SVGID_21_"  overflow="visible"/>
			</clipPath>
			<g clip-path="url(#SVGID_22_)">
				<g transform="translate(250.833,484.5005)">
					<path fill="#FCD4C3" d="M-187.295-429.935c5.768-3.533,16.294-2.019,22.422,3.966c2.163,2.163,2.812,9.373-2.091,14.275
						c-1.947,1.947,11.536-6.921,11.608-9.517c0-2.596-0.865-3.316-2.884-4.038c-7.426-2.74-15.213-9.084-21.99-8.94
						C-184.627-434.116-186.646-431.088-187.295-429.935"/>
				</g>
			</g>
		</g>
	</g>
	<g>
		<g>
			<defs>
				<rect id="SVGID_23_" x="166.326" y="43.607" width="18.891" height="31.867"/>
			</defs>
			<clipPath id="SVGID_24_">
				<use xlink:href="#SVGID_23_"  overflow="visible"/>
			</clipPath>
			<g opacity="0.25" clip-path="url(#SVGID_24_)">
				<g transform="translate(496,507.375)">
					<path fill="#FCD4C3" d="M-315.109-463.786c13.122,7.209-8.003,18.169-6.416,31.795c-2.741-0.289-9.518-13.482-7.859-14.636
						C-327.077-448.213-317.345-464.363-315.109-463.786"/>
				</g>
			</g>
		</g>
	</g>
	<path fill="#E5D0AE" d="M79.664,87.875c0.216-0.938,0.36-1.947,0.36-2.884c0.072-1.009,0.145-2.019,0.36-2.957
		c0.072-0.504,0.217-1.009,0.433-1.442c0.216-0.433,0.36-0.937,0.504-1.37c0.361-0.938,0.721-1.875,1.153-2.74
		c1.659-3.677,3.533-7.138,5.84-10.382s4.831-6.272,7.715-8.868c2.884-2.667,6.272-4.831,9.877-6.272
		c3.605-1.514,7.499-2.452,11.392-2.884c3.893-0.504,7.786-0.577,11.68-0.504c3.894,0.072,7.786,0.289,11.68,0.793
		c3.894,0.505,7.787,1.37,11.536,2.74c1.874,0.721,3.677,1.514,5.407,2.523s3.389,2.235,4.902,3.677
		c1.515,1.37,2.813,3.028,3.895,4.758c1.081,1.73,1.874,3.605,2.595,5.552c0.649,1.875,1.154,3.821,1.586,5.768
		c0.433,1.947,0.722,3.821,1.153,5.624c0.218,0.865,0.505,1.73,0.794,2.595c0.36,0.866,0.721,1.803,1.009,2.74
		c0.649,1.802,1.37,3.677,2.02,5.479c2.523,7.354,4.758,14.853,6.128,22.495c0.648,3.821,1.153,7.715,1.226,11.608
		s-0.288,7.787-1.369,11.535c-0.289,0.938-0.577,1.875-0.938,2.74s-0.865,1.73-1.154,2.667c-0.144,0.505-0.288,0.938-0.505,1.371
		c-0.216,0.432-0.504,0.865-0.792,1.297c-0.505,0.794-1.153,1.658-1.803,2.38c-2.523,3.028-5.769,5.479-9.229,7.354
		c-3.461,1.875-7.21,3.317-10.959,4.398c-3.821,1.082-7.57,1.946-11.464,2.667c-3.894,0.722-7.715,1.227-11.536,1.731
		c-1.946,0.216-3.893,0.432-5.84,0.648l-2.884,0.288c-0.938,0.072-1.947,0.145-2.956,0.217c-7.931,0.433-15.862-0.722-23.432-2.812
		c-3.821-1.082-7.499-2.38-11.103-3.966c-3.605-1.586-7.138-3.389-10.455-5.552c-1.658-1.081-3.316-2.308-4.831-3.677
		c-0.361-0.36-0.793-0.721-1.153-1.081c-0.361-0.361-0.649-0.794-1.01-1.154c-0.649-0.793-1.298-1.587-1.875-2.379
		c-2.235-3.316-4.038-7.21-4.614-11.247c-0.649-4.11-0.072-8.292,1.082-12.113c1.153-3.894,2.956-7.426,4.831-10.887
		c1.947-3.389,4.038-6.705,6.056-9.949c1.009-1.659,1.947-3.317,2.812-4.976C78.583,91.264,79.304,89.606,79.664,87.875
		L79.664,87.875z M82.548,88.524c-0.504,2.019-1.37,3.893-2.307,5.695c-0.938,1.803-1.947,3.461-2.957,5.119
		c-2.019,3.316-4.109,6.561-5.912,9.878c-1.802,3.316-3.46,6.776-4.47,10.31c-1.01,3.533-1.442,7.21-0.865,10.815
		c0.577,3.533,2.091,6.921,4.253,9.877c0.505,0.722,1.154,1.442,1.73,2.163c0.289,0.36,0.649,0.722,0.938,1.009
		c0.288,0.361,0.649,0.649,0.937,0.938c1.298,1.225,2.812,2.307,4.398,3.388c3.172,2.02,6.489,3.822,10.022,5.336
		c3.461,1.514,7.066,2.813,10.743,3.821c3.677,1.01,7.354,1.802,11.104,2.307c3.749,0.505,7.498,0.649,11.247,0.505
		c0.938-0.072,1.875-0.145,2.812-0.216l2.884-0.289c1.875-0.144,3.821-0.36,5.768-0.576c3.821-0.36,7.643-0.865,11.392-1.515
		c3.821-0.648,7.498-1.369,11.175-2.379c3.677-1.009,7.282-2.163,10.743-3.677c3.389-1.587,6.705-3.533,9.373-6.201
		c0.648-0.648,1.298-1.369,1.874-2.091c0.289-0.36,0.577-0.793,0.865-1.153s0.648-0.722,0.938-1.153
		c0.649-0.793,0.938-1.658,1.37-2.523c0.36-0.865,0.648-1.803,0.864-2.74c0.938-3.749,1.154-7.643,0.938-11.464
		c-0.289-3.82-0.938-7.642-1.875-11.392c-1.803-7.498-4.471-14.708-7.282-21.845c-0.721-1.803-1.441-3.605-2.163-5.335l-1.153-2.667
		c-0.36-0.938-0.722-1.947-1.009-2.884c-0.505-1.947-0.866-3.821-1.298-5.696c-0.36-1.875-0.865-3.677-1.442-5.407
		c-1.226-3.533-3.028-6.706-5.696-9.229c-2.595-2.523-5.839-4.47-9.301-5.912c-3.46-1.442-7.21-2.379-10.958-3.028
		c-3.75-0.649-7.57-1.009-11.393-1.226c-3.821-0.144-7.714-0.216-11.535,0.217c-3.822,0.433-7.57,1.226-11.104,2.74
		c-3.533,1.442-6.777,3.533-9.517,6.128c-2.812,2.595-5.047,5.768-6.705,9.084c-1.73,3.389-2.956,6.994-4.038,10.599
		c-0.288,0.865-0.504,1.802-0.721,2.739c-0.145,0.433-0.217,0.938-0.36,1.37c-0.072,0.216-0.072,0.505-0.145,0.721
		c-0.072,0.217-0.144,0.433-0.289,0.649c-0.36,0.865-0.793,1.73-1.226,2.596C83.053,86.722,82.765,87.587,82.548,88.524
		L82.548,88.524z"/>
	<path fill="#FFF8EE" d="M81.106,88.236c-3.028,13.411-29.488,34.607-9.373,56.309c6.849,7.354,29.056,18.674,51.334,16.583
		c57.968-5.48,72.604-19.467,48.162-79.453c-3.965-9.733,0.504-32.228-42.105-33.526C111.244,47.644,89.758,50.096,81.106,88.236"/>
	<path fill="#E5BFA1" d="M91.127,61.992c1.875-2.884,4.326-5.264,7.066-7.21c2.74-1.947,5.84-3.389,8.94-4.542
		c6.344-2.307,12.978-3.172,19.611-3.388c6.633-0.145,13.338,0.36,19.828,2.019c3.244,0.865,6.416,2.019,9.444,3.677
		s5.84,3.677,8.22,6.201c2.379,2.523,4.325,5.335,5.84,8.436c1.514,3.1,2.596,6.345,3.389,9.589c0.792,3.316,1.297,6.561,1.73,9.805
		c0.216,1.658,0.433,3.244,0.793,4.758c0.144,0.793,0.36,1.514,0.576,2.091c0.072,0.145,0.145,0.289,0.216,0.433l0.073,0.072
		l0.071,0.072l0.145,0.288l0.649,1.082c3.172,5.84,5.551,12.257,6.416,18.962c0.434,3.316,0.505,6.705,0.145,10.094
		c-0.36,3.316-1.226,6.633-2.523,9.733c-0.649,1.514-1.37,3.028-2.234,4.542c-0.217,0.36-0.434,0.721-0.649,1.081
		c-0.217,0.36-0.433,0.649-0.721,1.081c-0.072,0.073-0.072,0.145-0.145,0.218c-0.217-0.145,0.288,0.504-1.153,0
		c-0.36-0.649-0.145-0.505-0.217-0.649c0-0.217,0.072-0.289,0.072-0.433l0.216-0.649l0.36-1.153c1.01-3.101,1.875-6.2,2.236-9.445
		c0.144-1.586,0.216-3.172,0-4.83c-0.217-1.586-0.649-3.101-1.442-4.398c-0.217-0.36-0.433-0.648-0.721-0.937
		c-0.289-0.289-0.505-0.577-0.794-0.865c-0.576-0.577-1.153-1.082-1.803-1.587c-1.297-1.009-2.667-1.802-4.109-2.523
		c-2.956-1.298-6.2-1.802-9.373-1.658c-3.244,0.145-6.416,0.793-9.517,1.658c-1.586,0.434-3.101,0.938-4.687,1.442
		c-0.793,0.288-1.586,0.505-2.379,0.721c-0.433,0.145-0.793,0.216-1.298,0.289c-0.433,0.071-0.793,0.145-1.226,0.145
		c-3.316,0.36-6.562,0.576-9.95,0.504c-3.316-0.072-6.633-0.433-9.949-1.153c-3.245-0.722-6.489-1.803-9.517-3.173
		c-3.028-1.442-5.912-3.172-8.508-5.335c-2.595-2.163-4.902-4.614-6.921-7.282c-4.038-5.407-6.705-11.68-8.003-18.241
		c-0.649-3.316-0.937-6.633-0.793-10.022c0.072-1.658,0.289-3.388,0.649-5.047C89.614,65.165,90.19,63.506,91.127,61.992
		L91.127,61.992z M92.57,62.929c-0.793,1.298-1.298,2.74-1.658,4.326c-0.361,1.514-0.505,3.1-0.649,4.686
		c-0.145,3.172,0.216,6.417,0.865,9.518c1.37,6.272,4.038,12.257,7.931,17.304c1.947,2.523,4.182,4.83,6.633,6.849
		c2.451,2.02,5.191,3.75,8.075,5.119c2.884,1.37,5.912,2.379,9.084,3.101c3.101,0.721,6.344,1.153,9.517,1.226
		c3.244,0.145,6.417,0,9.661-0.36l1.226-0.145c0.36-0.072,0.721-0.144,1.154-0.216c0.792-0.217,1.514-0.433,2.307-0.648
		c1.586-0.434,3.172-0.938,4.759-1.299c3.173-0.793,6.488-1.369,9.877-1.369c3.316,0,6.705,0.576,9.733,2.019
		c1.515,0.721,2.956,1.586,4.254,2.595c0.649,0.505,1.298,1.082,1.875,1.659c0.288,0.288,0.576,0.576,0.865,0.864
		c0.288,0.289,0.576,0.649,0.793,1.01c0.937,1.442,1.441,3.101,1.658,4.831c0.216,1.729,0.216,3.389,0.072,5.047
		c-0.289,3.316-1.01,6.561-1.947,9.733l-0.36,1.153l-0.144,0.576c0,0.073-0.072,0.217,0,0.217c-0.072-0.072,0.144,0.144-0.145-0.505
		c-1.37-0.504-0.865,0.145-1.009-0.072l0,0c0.144-0.288,0.36-0.648,0.576-1.009s0.36-0.721,0.577-1.081
		c0.721-1.442,1.37-2.885,1.946-4.398c2.163-5.984,2.596-12.545,1.514-18.818c-0.505-3.172-1.441-6.2-2.595-9.156
		c-1.154-2.956-2.523-5.84-4.11-8.651l-0.576-1.01l-0.145-0.288l-0.072-0.145l-0.072-0.144c-0.145-0.217-0.216-0.434-0.288-0.649
		c-0.36-0.865-0.577-1.802-0.793-2.596c-0.36-1.658-0.648-3.316-0.865-4.903c-0.505-3.244-0.938-6.417-1.73-9.517
		c-0.721-3.101-1.73-6.128-3.1-8.94c-1.37-2.812-3.028-5.407-5.191-7.714c-4.182-4.542-9.949-7.57-16.078-9.373
		c-6.128-1.802-12.617-2.379-19.106-2.379c-6.417,0-12.906,0.792-18.962,2.812c-3.028,1.009-5.912,2.379-8.58,4.182
		C96.607,58.099,94.3,60.261,92.57,62.929L92.57,62.929z"/>
	<path fill="#895B2E" d="M90.263,61.632c1.082-1.731,2.379-3.101,3.677-4.398c1.37-1.298,2.812-2.379,4.326-3.389
		c3.028-2.019,6.272-3.605,9.661-4.831c6.777-2.379,13.915-3.316,20.98-3.172c6.994,0.216,14.06,1.082,20.837,3.533
		c3.389,1.225,6.633,2.812,9.589,4.975c2.956,2.091,5.552,4.687,7.715,7.643c2.091,2.956,3.677,6.2,4.903,9.589
		c1.152,3.389,1.945,6.85,2.523,10.238c0.287,1.73,0.504,3.388,0.792,5.119c0.289,1.659,0.505,3.389,0.793,4.903
		c0.145,0.793,0.36,1.515,0.649,2.091l0.071,0.145l0.073,0.144l0.145,0.289l0.287,0.576l0.649,1.154
		c0.793,1.514,1.587,3.1,2.308,4.687c1.369,3.172,2.523,6.561,3.316,10.021c0.793,3.39,1.153,6.922,1.153,10.455
		c-0.072,7.065-2.019,14.059-5.695,20.044l0,0c-0.289,0.432-0.865,0.648-1.298,0.36c-0.434-0.289-0.577-0.794-0.434-1.154l0,0
		c1.01-2.595,2.092-5.047,2.885-7.57c0.865-2.523,1.441-5.118,1.441-7.642c0-2.524-0.648-4.976-2.163-6.923
		c-0.071-0.144-0.216-0.287-0.288-0.36l-0.144-0.144l-0.145-0.217c-0.217-0.216-0.433-0.433-0.649-0.648
		c-0.433-0.433-0.938-0.865-1.442-1.226c-1.009-0.793-2.162-1.514-3.244-2.234c-4.542-2.813-9.373-5.265-14.275-7.715
		c-4.902-2.38-9.878-4.687-14.78-6.922c-9.949-4.542-19.899-9.084-29.704-13.987c-4.903-2.523-9.733-5.047-14.492-8.075
		c-2.523-1.802-4.831-3.389-7.065-5.407c-1.082-1.009-2.163-2.163-3.028-3.749c-0.433-0.793-0.793-1.73-0.865-2.884
		c0-0.577,0-1.153,0.145-1.73c0.072-0.289,0.144-0.577,0.288-0.865c0.072-0.216,0.288-0.649,0.36-0.721H90.263z M94.3,64.083
		c-0.145,0.216-0.072,0.144-0.145,0.216c0,0.072,0,0.072-0.072,0.145c0,0.072,0,0.144,0,0.289c0,0.216,0.144,0.577,0.288,1.009
		c0.433,0.865,1.226,1.802,2.091,2.595c1.802,1.73,3.893,3.317,6.128,4.759c4.397,2.956,9.156,5.551,13.987,8.147
		c9.589,5.047,19.466,9.733,29.272,14.492c4.902,2.379,9.806,4.83,14.708,7.281c4.903,2.523,9.733,5.047,14.42,8.147
		c1.153,0.793,2.307,1.586,3.389,2.524c0.576,0.432,1.081,0.937,1.658,1.441c0.288,0.288,0.505,0.504,0.793,0.864l0.145,0.218
		l0.217,0.216c0.144,0.145,0.216,0.288,0.36,0.433c0.865,1.226,1.514,2.596,1.946,4.037c0.433,1.442,0.504,2.956,0.504,4.398
		c-0.071,2.884-0.864,5.695-1.802,8.363c-0.938,2.667-2.091,5.119-3.172,7.643l-1.731-0.865l0,0
		c3.39-5.769,4.976-12.401,4.903-19.034c-0.144-6.633-1.875-13.194-4.687-19.25c-0.722-1.515-1.442-3.028-2.307-4.471l-1.299-2.307
		c-0.504-0.938-0.721-1.875-0.937-2.74c-0.433-1.803-0.722-3.461-1.009-5.191c-0.289-1.73-0.578-3.389-0.866-4.975
		c-0.648-3.317-1.441-6.489-2.596-9.589c-1.153-3.028-2.667-5.984-4.542-8.508c-1.874-2.596-4.253-4.831-6.85-6.633
		c-2.668-1.802-5.552-3.244-8.651-4.253c-6.2-2.091-12.834-2.812-19.467-2.884c-3.316,0-6.561,0.145-9.805,0.721
		c-3.245,0.505-6.417,1.298-9.445,2.379c-3.028,1.082-5.984,2.451-8.652,4.182c-1.37,0.865-2.596,1.802-3.75,2.884
		S95.093,62.929,94.3,64.083L94.3,64.083z"/>
	<path fill="#BA8449" d="M91.849,62.424c-7.931,12.257,1.514,59.337,51.334,52.993c5.264-0.648,22.783-10.021,34.607,3.1
		c6.417,7.21-2.234,25.452,0,21.63c2.523-4.182,12.186-20.331-2.307-45.205c-4.614-8.003,3.028-46.432-46.864-46.937
		C109.513,47.933,97.112,54.277,91.849,62.424"/>
	<g>
		<g>
			<defs>
				<rect id="SVGID_25_" x="80.241" y="59.757" width="84.571" height="80.679"/>
			</defs>
			<clipPath id="SVGID_26_">
				<use xlink:href="#SVGID_25_"  overflow="visible"/>
			</clipPath>
			<g opacity="0.15" clip-path="url(#SVGID_26_)">
				<g transform="translate(307.168,461.833)">
					<path fill="#E3AB5E" d="M-216.64-396.429c14.348-9.229,57.751-8.58,71.594,13.555c9.229,14.708-7.643,51.046-13.915,55.66
						c-6.2,4.614-14.853,8.652-37.636,3.172c-19.323-4.613,9.733-22.566-12.905-25.161
						C-230.195-351.583-232.286-386.335-216.64-396.429"/>
				</g>
			</g>
		</g>
	</g>
	<g>
		<g>
			<defs>
				<rect id="SVGID_27_" x="121.193" y="99.123" width="9.445" height="3.965"/>
			</defs>
			<clipPath id="SVGID_28_">
				<use xlink:href="#SVGID_27_"  overflow="visible"/>
			</clipPath>
			<g opacity="0.25" clip-path="url(#SVGID_28_)">
				<g transform="translate(391,387.166)">
					<path fill="#E3AB5E" d="M-260.362-286.049c0,1.081-2.091,2.019-4.686,2.019c-2.596,0-4.687-0.865-4.687-2.019
						c0-1.082,2.091-2.019,4.687-2.019C-262.453-287.995-260.362-287.131-260.362-286.049"/>
				</g>
			</g>
		</g>
	</g>
	<path fill="#F8A38F" d="M122.347,95.229c1.082-0.721,6.849-0.505,7.57,0.288c0.721,0.722,2.307,3.749,0.505,5.047
		c-0.648,0.433-0.648-1.37-2.091-1.081c-1.73,0.36-0.793,2.596-2.163,2.596c-2.091-0.072-0.072-2.452-1.875-2.74
		c-1.37-0.288-1.658,1.082-2.307,0.938C119.896,99.844,120.833,96.239,122.347,95.229"/>
	<g>
		<g>
			<defs>
				<rect id="SVGID_29_" x="120.76" y="94.797" width="10.455" height="7.138"/>
			</defs>
			<clipPath id="SVGID_30_">
				<use xlink:href="#SVGID_29_"  overflow="visible"/>
			</clipPath>
			<g clip-path="url(#SVGID_30_)">
				<g transform="translate(380.2207,400.4053)">
					<path fill="#F8A38F" d="M-254.759-305.605c-1.37,0-2.668,0.145-3.101,0.433c-1.514,1.009-2.451,4.614-0.433,4.975h0.072
						c0.505,0,0.793-1.01,1.875-1.01c0.145,0,0.216,0,0.36,0c1.803,0.289-0.144,2.74,1.875,2.74l0,0c1.297,0,0.36-2.163,2.163-2.523
						c0.144,0,0.217,0,0.288,0c1.01,0,1.153,1.153,1.587,1.153c0.071,0,0.145,0,0.216-0.071c1.874-1.299,0.289-4.326-0.505-5.048
						C-250.722-305.316-252.813-305.605-254.759-305.605 M-254.759-305.1L-254.759-305.1c2.163,0,3.821,0.288,4.109,0.505
						c0.433,0.432,1.298,2.019,1.153,3.172c-0.071,0.433-0.216,0.793-0.505,1.01c0-0.072-0.071-0.072-0.144-0.145
						c-0.288-0.36-0.722-0.938-1.515-0.938c-0.144,0-0.288,0-0.36,0.072c-1.226,0.288-1.442,1.226-1.658,1.875
						c-0.145,0.648-0.217,0.648-0.433,0.648l0,0c-0.577,0-0.577-0.145-0.577-0.793c0-0.649,0-1.658-1.298-1.875
						c-0.144,0-0.288,0-0.433,0c-0.793,0-1.297,0.505-1.658,0.793c-0.072,0.072-0.216,0.217-0.288,0.217
						c-0.289-0.072-0.577-0.217-0.721-0.793c-0.216-1.01,0.505-2.74,1.298-3.316C-257.354-304.956-256.345-305.1-254.759-305.1"/>
				</g>
			</g>
		</g>
	</g>
	<g>
		<g>
			<defs>
				<rect id="SVGID_31_" x="89.181" y="103.232" width="81.399" height="46.215"/>
			</defs>
			<clipPath id="SVGID_32_">
				<use xlink:href="#SVGID_31_"  overflow="visible"/>
			</clipPath>
			<g opacity="0.25" clip-path="url(#SVGID_32_)">
				<g transform="translate(474.0986,359.9502)">
					<path fill="#F7E8D0" d="M-303.663-245.794c2.163,13.842-15.141,31.218-38.43,34.822c-23.287,3.533-40.447-17.23-42.609-31.146
						c-2.163-13.844,12.113-8.58,35.4-12.113C-326.014-257.763-305.826-259.638-303.663-245.794"/>
				</g>
			</g>
		</g>
	</g>
	<g>
		<g>
			<defs>
				<rect id="SVGID_33_" x="93.435" y="103.954" width="67.484" height="34.246"/>
			</defs>
			<clipPath id="SVGID_34_">
				<use xlink:href="#SVGID_33_"  overflow="visible"/>
			</clipPath>
			<g opacity="0.5" clip-path="url(#SVGID_34_)">
				<g transform="translate(347.2148,315.9766)">
					<path fill="#D8CAB2" d="M-237.547-180.749c-0.648-1.01-1.009-2.235-1.37-3.389s-0.721-2.307-1.082-3.461
						c-0.721-2.308-1.514-4.614-2.596-6.777c-1.082-2.162-2.451-4.182-4.181-5.695c-1.73-1.515-3.821-2.523-6.057-2.956l0,0l0,0
						c-0.793-0.289-1.153-1.082-0.865-1.803c0.289-0.721,1.009-1.081,1.658-0.938c5.191,1.226,10.599,1.803,15.934,1.875
						c5.335,0.071,10.814-0.217,16.222-0.865c5.407-0.649,10.742-1.587,16.006-2.813c5.263-1.225,10.526-2.667,15.645-4.397
						c0.794-0.289,1.587,0.145,1.803,0.865c0.217,0.576,0,1.153-0.433,1.514l0,0l0,0c-0.144,0.145-0.432,0.36-0.648,0.577
						c-0.216,0.217-0.433,0.504-0.648,0.721c-0.434,0.505-0.865,1.081-1.298,1.658c-0.865,1.153-1.659,2.307-2.38,3.533
						c-1.586,2.379-3.027,4.83-4.397,7.354s-2.74,5.047-3.966,7.57c-0.649,1.298-1.225,2.596-1.73,3.894
						c-0.288,0.649-0.504,1.298-0.793,2.02c-0.144,0.36-0.216,0.648-0.289,1.009c0,0,0,0.072,0,0.145s0,0.072-0.071,0.144
						c0,0.072-0.072,0.145-0.144,0.145c-0.072,0.072-0.146,0.145-0.289,0.216c-0.145,0.145-0.36,0.217-0.505,0.289
						c-1.369,0.577-2.812,0.864-4.182,1.153s-2.812,0.505-4.254,0.649c-2.884,0.36-5.695,0.648-8.579,0.721
						c-2.884,0.144-5.768,0.144-8.58-0.145c-1.442-0.145-2.884-0.36-4.254-0.721c-0.721-0.216-1.37-0.433-2.019-0.794
						C-236.538-179.739-237.114-180.173-237.547-180.749 M-237.475-180.821c0.361,0.577,1.009,1.009,1.659,1.298
						c0.649,0.289,1.297,0.505,2.019,0.721c1.37,0.36,2.812,0.577,4.254,0.649c2.884,0.216,5.695,0.216,8.58,0.071
						c2.884-0.144,5.695-0.504,8.507-0.865c1.37-0.216,2.813-0.432,4.183-0.792c1.369-0.361,2.812-0.649,4.037-1.227
						c0.145-0.071,0.288-0.144,0.433-0.288c0.144-0.072,0.217-0.144,0.217-0.217c0.071-0.36,0.144-0.721,0.288-1.081
						c0.216-0.721,0.433-1.369,0.648-2.091c0.505-1.37,1.009-2.668,1.587-4.038c1.153-2.667,2.307-5.263,3.532-7.857
						c1.226-2.597,2.523-5.191,3.893-7.715c0.649-1.298,1.37-2.523,2.163-3.821c0.36-0.649,0.794-1.299,1.227-1.875
						c0.216-0.288,0.433-0.648,0.648-0.938c0.288-0.288,0.505-0.648,0.865-0.937l0,0l1.37,2.45
						c-5.264,1.803-10.526,3.245-15.934,4.471c-5.408,1.226-10.815,2.235-16.295,2.884c-5.479,0.649-11.031,1.01-16.583,0.865
						c-5.551-0.145-11.103-0.793-16.583-2.091l0.793-2.884l0,0c2.379,1.441,4.542,2.812,6.201,4.759
						c1.658,1.946,2.812,4.182,3.749,6.488c0.865,2.308,1.586,4.687,2.163,6.994c0.288,1.153,0.649,2.379,0.937,3.532
						C-238.484-182.984-238.124-181.831-237.475-180.821"/>
				</g>
			</g>
		</g>
	</g>
	<g>
		<g>
			<defs>
				<rect id="SVGID_35_" x="94.156" y="104.675" width="66.042" height="33.525"/>
			</defs>
			<clipPath id="SVGID_36_">
				<use xlink:href="#SVGID_35_"  overflow="visible"/>
			</clipPath>
			<g opacity="0.5" clip-path="url(#SVGID_36_)">
				<g transform="translate(347.2324,315.9883)">
					<path fill="#D8CAB2" d="M-237.552-180.753c-0.648-1.009-1.009-2.163-1.37-3.316s-0.649-2.307-1.009-3.46
						c-0.721-2.308-1.442-4.615-2.523-6.85c-1.009-2.163-2.379-4.183-4.038-5.768c-1.73-1.659-3.821-2.813-6.056-3.317l0,0v-0.071
						c-0.361-0.145-0.577-0.577-0.433-0.938s0.505-0.577,0.865-0.505c5.263,1.226,10.67,1.803,16.15,1.874
						c5.479,0.073,10.887-0.216,16.294-0.865c5.407-0.648,10.743-1.658,16.079-2.812c5.335-1.226,10.598-2.668,15.717-4.398
						c0.36-0.144,0.793,0.073,0.938,0.434c0.071,0.288,0,0.576-0.216,0.793l0,0l0,0c-0.434,0.36-0.938,0.937-1.371,1.441
						c-0.432,0.505-0.865,1.154-1.297,1.658c-0.793,1.154-1.587,2.38-2.308,3.604c-1.514,2.38-2.956,4.903-4.326,7.427
						c-1.369,2.523-2.668,5.048-3.821,7.643c-0.576,1.298-1.152,2.596-1.73,3.894c-0.288,0.648-0.504,1.298-0.721,2.019
						c-0.144,0.36-0.216,0.648-0.288,1.009c-0.072,0.289-0.288,0.361-0.433,0.505c-0.144,0.145-0.36,0.217-0.505,0.289
						c-1.37,0.576-2.812,0.865-4.182,1.153c-1.37,0.289-2.812,0.505-4.254,0.721c-2.812,0.36-5.695,0.649-8.58,0.794
						c-2.884,0.144-5.768,0.144-8.58-0.145c-1.442-0.145-2.884-0.36-4.254-0.721c-0.721-0.217-1.37-0.434-2.019-0.722
						C-236.542-179.743-237.191-180.176-237.552-180.753 M-237.552-180.824c0.361,0.576,1.01,1.009,1.659,1.369
						c0.649,0.289,1.298,0.505,2.019,0.721c1.37,0.361,2.812,0.578,4.254,0.649c2.884,0.289,5.696,0.216,8.58,0.072
						c2.884-0.144,5.695-0.433,8.579-0.865c1.37-0.217,2.813-0.433,4.254-0.793c1.37-0.288,2.813-0.648,4.037-1.226
						c0.145-0.072,0.289-0.145,0.434-0.288c0.145-0.073,0.288-0.217,0.288-0.289c0.072-0.36,0.145-0.721,0.288-1.081
						c0.217-0.722,0.433-1.37,0.722-2.019c0.504-1.371,1.081-2.668,1.658-3.966c1.153-2.668,2.379-5.191,3.677-7.786
						c1.298-2.597,2.596-5.12,4.037-7.644c0.722-1.298,1.442-2.523,2.235-3.677c0.36-0.649,0.793-1.226,1.226-1.803
						c0.433-0.576,0.865-1.152,1.515-1.73l0,0l0.721,1.299c-5.191,1.803-10.526,3.244-15.861,4.47
						c-5.336,1.226-10.743,2.162-16.223,2.884c-5.479,0.649-10.959,1.01-16.511,0.865c-5.479-0.145-11.031-0.721-16.438-1.947
						l0.361-1.369l0,0c2.379,0.938,4.542,2.379,6.2,4.254c1.658,1.874,2.884,4.037,3.821,6.272c0.937,2.235,1.658,4.542,2.307,6.922
						c0.289,1.153,0.649,2.307,1.009,3.532C-238.562-182.987-238.201-181.834-237.552-180.824"/>
				</g>
			</g>
		</g>
	</g>
	<path fill="#333333" d="M109.729,135.172c3.677,5.769,33.742,1.803,34.246-0.505c1.299-5.839,12.113-26.46,15.574-29.344
		c-6.201,2.163-38.429,12.473-64.601,6.201C106.701,115.489,106.845,130.702,109.729,135.172"/>
	<g>
		<g>
			<defs>
				<rect id="SVGID_37_" x="94.877" y="105.396" width="64.601" height="32.732"/>
			</defs>
			<clipPath id="SVGID_38_">
				<use xlink:href="#SVGID_37_"  overflow="visible"/>
			</clipPath>
			<g clip-path="url(#SVGID_38_)">
				<g transform="translate(451.25,378.25)">
					<path fill="#333333" d="M-291.809-272.818c-4.831,1.658-25.162,8.219-46.215,8.219c-6.201,0-12.401-0.576-18.385-1.946
						c11.824,3.821,11.968,19.106,14.852,23.576c1.37,2.163,6.633,2.956,12.618,2.956c9.661,0,21.269-2.019,21.629-3.461
						C-306.013-249.387-295.27-270.007-291.809-272.818 M-295.846-270.007c-4.687,7.066-11.465,20.692-12.834,25.812
						c-1.803,1.009-11.104,2.74-20.26,2.74c-7.354,0-10.671-1.227-11.392-2.308c-0.721-1.082-1.298-3.101-1.875-5.407
						c-1.226-4.398-2.957-10.455-7.066-14.636c3.605,0.432,7.354,0.648,11.32,0.648
						C-320.793-263.229-303.993-267.556-295.846-270.007"/>
				</g>
			</g>
		</g>
	</g>
	<path fill="#FCD4C3" d="M122.058,138.2c-6.2,0-10.238-0.865-11.824-2.596c-0.144-0.145-0.144-1.009,0.577-2.668
		c1.73-3.965,7.066-10.742,16.294-11.318c0.649,0,1.226-0.073,1.802-0.073c10.815,0,17.304,5.48,17.304,6.418
		c-0.144,0.287-0.288,0.721-0.505,1.297c-0.576,1.37-1.441,3.533-2.234,5.84C142.534,136.038,131.719,138.2,122.058,138.2"/>
	<path fill="#F8A38F" d="M128.907,121.185c-0.649,0-1.226,0-1.874,0.073c-12.618,0.792-18.458,13.266-17.16,14.78
		c1.875,2.019,6.706,2.739,12.185,2.739c9.734,0,21.486-2.235,21.846-3.317c1.081-3.244,2.307-5.911,2.812-7.21
		C147.148,126.953,139.867,121.113,128.907,121.185 M128.907,122.122c9.661,0,16.15,4.614,16.799,5.984
		c-0.144,0.288-0.288,0.648-0.432,1.082c-0.577,1.369-1.442,3.388-2.235,5.695c-1.514,0.865-11.608,2.812-20.981,2.812
		c-5.84,0-9.877-0.865-11.392-2.379c-0.072-0.505,0.433-2.523,2.235-5.047c1.586-2.307,6.201-7.715,14.204-8.147
		C127.682,122.122,128.331,122.122,128.907,122.122L128.907,122.122"/>
	<g>
		<g>
			<defs>
				<rect id="SVGID_39_" x="110.09" y="120.896" width="36.193" height="14.924"/>
			</defs>
			<clipPath id="SVGID_40_">
				<use xlink:href="#SVGID_39_"  overflow="visible"/>
			</clipPath>
			<g clip-path="url(#SVGID_40_)">
				<g transform="translate(348.084,315.917)">
					<path fill="#FCD4C3" d="M-238.006-180.661c-0.865,3.894,23-15.212,35.833-6.056c2.668-3.532-11.535-9.518-19.827-8.147
						C-228.994-193.639-236.203-189.168-238.006-180.661"/>
				</g>
			</g>
		</g>
	</g>
	<path fill="#FFF7E3" d="M114.92,114.696c1.226,2.163,3.461,12.689,4.398,12.905c0.938,0.217,6.849,1.875,7.643,1.514
		c0.865-0.36,0.793-2.379,1.658-1.802c0.721,0.505,1.081,1.441,1.803,1.081c1.297-0.648,5.119-3.028,5.768-4.037
		c0.576-1.081,0.505-7.065,0-11.824C133.738,113.688,119.246,115.201,114.92,114.696"/>
	<g>
		<g>
			<defs>
				<rect id="SVGID_41_" x="114.92" y="112.605" width="21.702" height="16.727"/>
			</defs>
			<clipPath id="SVGID_42_">
				<use xlink:href="#SVGID_41_"  overflow="visible"/>
			</clipPath>
			<g clip-path="url(#SVGID_42_)">
				<g transform="translate(402.75,363.25)">
					<path fill="#FFDC99" d="M-266.524-250.681c-2.163,0.938-13.482,2.235-19.178,2.235c-0.865,0-1.514,0-2.091-0.073
						c1.226,2.163,3.46,12.69,4.398,12.906c0.865,0.216,5.768,1.587,7.282,1.587c0.145,0,0.289,0,0.36-0.073
						c0.721-0.288,0.793-1.874,1.37-1.874c0.072,0,0.216,0,0.289,0.145c0.648,0.36,0.938,1.153,1.514,1.153
						c0.072,0,0.217,0,0.288-0.072c1.299-0.649,5.12-3.028,5.769-4.038C-265.876-239.866-266.02-245.851-266.524-250.681
						 M-266.886-250.032c0.434,4.903,0.434,10.094,0,10.96c-0.504,0.865-3.965,3.1-5.551,3.893h-0.072
						c-0.145,0-0.36-0.217-0.505-0.433c-0.216-0.216-0.433-0.433-0.721-0.649c-0.217-0.144-0.36-0.216-0.577-0.216
						c-0.648,0-0.865,0.649-1.081,1.154c-0.144,0.288-0.289,0.721-0.505,0.793c0,0-0.072,0-0.216,0c-1.226,0-4.902-1.01-6.417-1.37
						c-0.289-0.072-0.505-0.145-0.649-0.145c-0.433-0.504-1.37-3.894-2.091-6.345c-0.649-2.235-1.226-4.326-1.73-5.551
						c0.361,0,0.865,0,1.37,0C-280.223-247.94-270.13-249.095-266.886-250.032"/>
				</g>
			</g>
		</g>
	</g>
	<g>
		<g>
			<defs>
				<rect id="SVGID_43_" x="114.992" y="112.316" width="21.413" height="7.427"/>
			</defs>
			<clipPath id="SVGID_44_">
				<use xlink:href="#SVGID_43_"  overflow="visible"/>
			</clipPath>
			<g clip-path="url(#SVGID_44_)">
				<g transform="translate(361.751,348.25)">
					<path fill="#EADCBE" d="M-245.136-228.472c-0.36-3.893,17.592-5.19,19.827-4.829c0-0.938-0.144-1.515-0.144-2.597
						c-2.956,1.515-19.106,3.101-21.27,2.452C-246.505-233.014-245.712-230.851-245.136-228.472"/>
				</g>
			</g>
		</g>
	</g>
	<g>
		<g>
			<defs>
				<rect id="SVGID_45_" x="125.158" y="116.859" width="3.966" height="10.599"/>
			</defs>
			<clipPath id="SVGID_46_">
				<use xlink:href="#SVGID_45_"  overflow="visible"/>
			</clipPath>
			<g clip-path="url(#SVGID_46_)">
				<g transform="translate(380.458,354.3682)">
					<path fill="#FFDC99" d="M-254.897-237.532c0.361,0.866,0.721,1.658,1.009,2.523c0.289,0.866,0.577,1.73,0.866,2.596
						l0.792,2.596l0.793,2.596l-1.226,0.36l-0.577-2.668l-0.649-2.668c-0.216-0.864-0.433-1.73-0.648-2.595
						c-0.289-0.865-0.505-1.73-0.793-2.523L-254.897-237.532z"/>
				</g>
			</g>
		</g>
	</g>
	<g>
		<g>
			<defs>
				<rect id="SVGID_47_" x="63.947" y="50.312" width="28.407" height="25.739"/>
			</defs>
			<clipPath id="SVGID_48_">
				<use xlink:href="#SVGID_47_"  overflow="visible"/>
			</clipPath>
			<g opacity="0.4" clip-path="url(#SVGID_48_)">
				<g transform="translate(253.584,481.9165)">
					<path fill="#FCD4C3" d="M-188.712-426.113c9.517,2.451,8.003,18.89,13.627,20.188c5.696,1.297,13.122-13.555,13.843-16.799
						c-10.959-4.687-16.078-10.166-23.937-8.58C-187.774-430.799-191.379-426.834-188.712-426.113"/>
				</g>
			</g>
		</g>
	</g>
	<g>
		<g>
			<defs>
				<rect id="SVGID_49_" x="78.943" y="77.133" width="96.396" height="30.642"/>
			</defs>
			<clipPath id="SVGID_50_">
				<use xlink:href="#SVGID_49_"  overflow="visible"/>
			</clipPath>
			<g opacity="0.5" clip-path="url(#SVGID_50_)">
				<g transform="translate(308.667,381.333)">
					<path fill="#E3AB5E" d="M-217.419-277.428c11.968,0.937,21.846,1.441,25.379-2.235s4.831-19.971,10.599-19.539
						c4.902,0.36,6.561,21.557,9.733,22.134c3.173,0.648,25.595,6.776,31.219,1.009c5.552-5.768,8.146-9.372,6.85-12.833
						c-1.298-3.461-34.104-14.636-40.809-15.285c-6.705-0.648-51.983,5.047-53.136,7.859c-1.154,2.884-2.379,2.452-2.163,5.479
						C-229.315-284.998-229.387-278.365-217.419-277.428"/>
				</g>
			</g>
		</g>
	</g>
	<path fill="#333333" d="M124.798,79.8c0.865,0,4.254-0.289,5.047,0.36c4.326,3.389,4.182,17.304,8.724,21.63
		c4.038,3.893,26.1,6.705,29.921,2.307c3.822-4.398,9.445-17.809,10.743-18.818c1.298-0.937,4.182-1.658,5.047-3.028
		c0.865-1.297,0.145-7.21-1.874-6.921c-2.02,0.288-5.841,1.514-8.22,0.865c-2.379-0.721-13.987-8.003-43.188-3.605
		c-2.812,0.433-5.624,0-7.57-0.504c-1.947-0.505-12.906-6.85-42.25-2.668c-2.884,0.433-6.921-0.865-8.364-0.721
		c-1.442,0.144-1.875,4.687-1.297,5.84c0.577,1.154,3.605,2.163,3.965,3.605s3.028,15.574,9.95,21.414
		c7.354,6.2,26.1,1.874,27.758,0.721C120.616,95.013,122.274,79.8,124.798,79.8"/>
	<g>
		<g>
			<defs>
				<rect id="SVGID_51_" x="71.156" y="68.048" width="113.412" height="38.285"/>
			</defs>
			<clipPath id="SVGID_52_">
				<use xlink:href="#SVGID_51_"  overflow="visible"/>
			</clipPath>
			<g clip-path="url(#SVGID_52_)">
				<g transform="translate(326.0381,456.2231)">
					<path fill="#1A1A1A" d="M-226.52-388.158c-5.119,0-11.248,0.36-18.458,1.442c-0.432,0.072-0.865,0.072-1.297,0.072
						c-2.523,0-5.479-0.793-6.85-0.793c-0.072,0-0.144,0-0.216,0c-1.442,0.145-1.875,4.687-1.298,5.84
						c0.577,1.226,3.605,2.163,3.966,3.605c0.36,1.442,3.028,15.574,9.95,21.414c2.884,2.451,7.642,3.244,12.401,3.244
						c7.209,0,14.347-1.803,15.357-2.523c7.499-5.336,9.229-20.548,11.752-20.548c0.361,0,1.298-0.072,2.163-0.072
						c1.154,0,2.379,0.072,2.812,0.36c4.326,3.389,4.183,17.304,8.725,21.63c2.596,2.45,12.544,4.542,20.332,4.542
						c4.397,0,8.146-0.649,9.516-2.235c3.822-4.398,9.446-17.808,10.743-18.818c1.299-1.009,4.183-1.658,5.047-3.028
						c0.793-1.298,0.145-6.921-1.802-6.921c0,0-0.072,0-0.144,0c-1.588,0.216-4.326,1.009-6.562,1.009
						c-0.577,0-1.154-0.072-1.658-0.216c-1.875-0.577-9.157-4.975-25.739-4.975c-4.975,0-10.743,0.36-17.448,1.37
						c-0.793,0.144-1.658,0.144-2.379,0.144c-1.947,0-3.749-0.288-5.119-0.649C-204.169-384.409-210.802-388.158-226.52-388.158
						 M-226.52-386.716c13.05,0,19.755,2.596,22.207,3.605c0.504,0.216,0.865,0.36,1.226,0.433c1.298,0.289,3.245,0.721,5.479,0.721
						c0.866,0,1.802-0.072,2.596-0.217c6.128-0.937,11.896-1.37,17.231-1.37c13.698,0,20.836,3.028,23.937,4.398
						c0.649,0.289,1.081,0.433,1.442,0.577c0.648,0.216,1.297,0.289,2.091,0.289c1.586,0,3.316-0.36,4.758-0.649
						c0.649-0.144,1.298-0.289,1.803-0.361c0.649,0.721,1.081,3.894,0.721,4.759c-0.288,0.433-1.514,1.009-2.38,1.37
						c-0.864,0.361-1.657,0.721-2.234,1.154c-0.793,0.577-1.586,2.091-3.894,6.706c-2.234,4.398-4.975,9.877-7.064,12.256
						c-0.722,0.865-3.317,1.73-8.509,1.73c-7.57,0-17.231-2.019-19.395-4.109c-2.019-1.875-3.027-6.272-4.037-10.527
						c-1.153-4.758-2.235-9.229-4.759-11.247c-0.648-0.505-1.658-0.721-3.677-0.721c-0.577,0-1.154,0-1.586,0
						c-0.288,0-0.504,0-0.649,0c-2.019,0-2.884,2.379-4.398,6.705c-1.658,4.759-4.038,11.176-8.147,14.132
						c-0.938,0.576-7.715,2.307-14.564,2.307c-5.263,0-9.229-1.009-11.464-2.884c-2.74-2.307-6.561-7.714-9.301-20.043
						c-0.072-0.288-0.144-0.505-0.144-0.649c-0.36-1.37-1.658-2.163-2.74-2.884c-0.433-0.288-1.154-0.793-1.298-1.009
						c-0.289-0.649,0-3.028,0.433-3.821c0.505,0,1.226,0.144,2.019,0.288c1.37,0.217,3.1,0.505,4.687,0.505
						c0.504,0,1.081,0,1.514-0.144C-238.199-386.211-232.071-386.716-226.52-386.716"/>
				</g>
			</g>
		</g>
	</g>
	<g>
		<g>
			<defs>
				<rect id="SVGID_53_" x="82.188" y="73.312" width="36.41" height="24.658"/>
			</defs>
			<clipPath id="SVGID_54_">
				<use xlink:href="#SVGID_53_"  overflow="visible"/>
			</clipPath>
			<g opacity="0.5" clip-path="url(#SVGID_54_)">
				<g transform="translate(292.5,434.75)">
					<path fill="none" stroke="#333333" stroke-width="4" stroke-miterlimit="10" d="M-209.015-356.355
						c-0.649,0.865-1.082,13.626,4.326,17.087c3.533,2.308,18.529,1.803,21.557,0.145c4.687-2.667,9.301-14.78,8.003-16.51
						c-2.163-2.884-17.737-6.706-29.417-3.677C-205.987-359.023-208.222-357.437-209.015-356.355z"/>
				</g>
			</g>
		</g>
	</g>
	<path fill="#FFFFFF" d="M83.485,78.358c-0.649,0.865-1.082,13.626,4.326,17.088c3.533,2.307,18.529,1.802,21.557,0.144
		c4.687-2.667,9.301-14.78,8.003-16.511c-2.163-2.884-17.737-6.705-29.417-3.677C86.513,75.763,84.278,77.277,83.485,78.358"/>
	<g>
		<g>
			<defs>
				<rect id="SVGID_55_" x="136.55" y="76.7" width="36.122" height="25.234"/>
			</defs>
			<clipPath id="SVGID_56_">
				<use xlink:href="#SVGID_55_"  overflow="visible"/>
			</clipPath>
			<g opacity="0.5" clip-path="url(#SVGID_56_)">
				<g transform="translate(476.5938,423.063)">
					<path fill="none" stroke="#333333" stroke-width="4" stroke-miterlimit="10" d="M-305.008-339.107
						c0.576,0.937-0.721,13.626-6.489,16.438c-3.821,1.803-18.602-0.648-21.341-2.667c-4.326-3.244-7.354-15.862-5.841-17.448
						c2.523-2.596,18.458-4.326,29.633,0.144C-307.676-342.136-305.657-340.261-305.008-339.107z"/>
				</g>
			</g>
		</g>
	</g>
	<path fill="#FFFFFF" d="M171.59,83.982c0.577,0.937-0.721,13.626-6.488,16.438c-3.822,1.802-18.603-0.649-21.342-2.668
		c-4.326-3.244-7.354-15.862-5.84-17.448c2.523-2.596,18.457-4.326,29.633,0.144C168.923,80.954,170.869,82.756,171.59,83.982"/>
	<path d="M100.573,86.145c-0.361,2.812-1.803,4.903-3.172,4.687s-2.091-2.596-1.73-5.407c0.361-2.813,1.803-4.903,3.172-4.687
		S100.933,83.333,100.573,86.145"/>
	<path d="M158.035,89.317c0.289,2.812-0.577,5.191-1.874,5.335c-1.37,0.145-2.668-2.018-2.956-4.831
		c-0.289-2.812,0.576-5.191,1.874-5.335C156.377,84.415,157.675,86.578,158.035,89.317"/>
	<g>
		<g>
			<defs>
				<rect id="SVGID_57_" x="71.156" y="72.014" width="112.69" height="33.165"/>
			</defs>
			<clipPath id="SVGID_58_">
				<use xlink:href="#SVGID_57_"  overflow="visible"/>
			</clipPath>
			<g opacity="0.3" clip-path="url(#SVGID_58_)">
				<g transform="translate(270.375,446.25)">
					<path fill="#333333" d="M-197.506-373.407c1.658,1.082,3.172,0.433,3.533,2.596c0.361,2.163,5.335,20.908,11.536,23.071
						c10.166,3.533,23,0.072,24.729-1.009c1.731-1.082,9.878-19.323,11.248-20.044s5.696,0.072,6.633,0.505
						c2.812,1.226,8.003,20.98,9.372,21.99c6.273,4.397,26.389,4.037,27.326,2.884c1.01-1.226,8.508-18.458,9.878-19.467
						c1.946-1.514,6.488-2.523,6.633-1.875c0.144,0.649-3.678,1.298-4.831,2.668c-1.153,1.442-8.724,17.952-11.104,19.394
						c-2.379,1.442-19.971,3.821-28.911-2.451c-4.254-3.028-5.912-20.98-9.301-21.99c-2.163-0.649-3.821-0.577-5.407-0.145
						c-2.091,1.37-5.047,16.655-11.319,20.476c-2.523,1.514-22.063,5.335-27.902-0.793c-10.887-11.392-7.57-21.558-11.104-23
						c-2.379-1.009-2.884-2.307-2.884-3.172C-199.165-374.705-198.372-373.984-197.506-373.407"/>
				</g>
			</g>
		</g>
	</g>
	<g>
		<g>
			<defs>
				<rect id="SVGID_59_" x="72.959" y="68.841" width="14.563" height="2.163"/>
			</defs>
			<clipPath id="SVGID_60_">
				<use xlink:href="#SVGID_59_"  overflow="visible"/>
			</clipPath>
			<g opacity="0.3" clip-path="url(#SVGID_60_)">
				<g transform="translate(270.75,454.25)">
					<path fill="#333333" d="M-197.683-385.229c-1.153-0.433,4.903,2.091,7.138,1.947c2.235-0.144,5.984-1.73,7.21-2.091
						c1.082-0.36-5.624,0.865-7.282,0.793S-197.034-385.012-197.683-385.229"/>
				</g>
			</g>
		</g>
	</g>
	<g>
		<g>
			<defs>
				<rect id="SVGID_61_" x="119.823" y="72.374" width="15.646" height="3.821"/>
			</defs>
			<clipPath id="SVGID_62_">
				<use xlink:href="#SVGID_61_"  overflow="visible"/>
			</clipPath>
			<g opacity="0.3" clip-path="url(#SVGID_62_)">
				<g transform="translate(368.5,447.25)">
					<path fill="#333333" d="M-248.677-374.84c2.091,0.938,3.028,3.316,5.047,3.533c2.019,0.216,4.47,0.577,5.624-0.072
						c1.153-0.649,4.037-2.163,4.83-2.307c0.865-0.145-6.272,0.937-8.94,0.721C-244.784-373.253-247.884-374.768-248.677-374.84"/>
				</g>
			</g>
		</g>
	</g>
	<g>
		<g>
			<defs>
				<rect id="SVGID_63_" x="170.869" y="75.186" width="8.868" height="2.812"/>
			</defs>
			<clipPath id="SVGID_64_">
				<use xlink:href="#SVGID_63_"  overflow="visible"/>
			</clipPath>
			<g opacity="0.3" clip-path="url(#SVGID_64_)">
				<g transform="translate(475.375,441.375)">
					<path fill="#333333" d="M-304.38-366.207c-0.865-0.36,3.172,2.884,4.397,2.74c1.227-0.144,3.39-1.514,4.326-1.875
						c0.721-0.289-2.884,0.721-3.965,0.505C-300.703-364.909-303.515-365.847-304.38-366.207"/>
				</g>
			</g>
		</g>
	</g>
	<g>
		<g>
			<defs>
				<rect id="SVGID_65_" x="80.673" y="72.879" width="20.837" height="20.62"/>
			</defs>
			<clipPath id="SVGID_66_">
				<use xlink:href="#SVGID_65_"  overflow="visible"/>
			</clipPath>
			<g opacity="0.3" clip-path="url(#SVGID_66_)">
				<g transform="translate(287.75,438.625)">
					<path fill="#333333" d="M-206.536-362.123c5.336-5.263,18.025-3.461,20.332-3.028c-15.213,1.082-15.501,2.235-18.169,4.903
						c-0.36,2.091-0.865,9.012,1.514,15.069C-205.526-346.622-208.338-360.321-206.536-362.123"/>
				</g>
			</g>
		</g>
	</g>
	<g>
		<g>
			<defs>
				<rect id="SVGID_67_" x="154.791" y="76.484" width="20.044" height="21.99"/>
			</defs>
			<clipPath id="SVGID_68_">
				<use xlink:href="#SVGID_67_"  overflow="visible"/>
			</clipPath>
			<g opacity="0.3" clip-path="url(#SVGID_68_)">
				<g transform="translate(482.6602,426.7979)">
					<path fill="#333333" d="M-308.143-344.62c-4.614-5.912-17.376-5.84-19.755-5.624c14.924,3.1,15.068,4.254,17.375,7.282
						c0.145,2.091-0.288,9.012-3.389,14.708C-311.171-329.407-306.629-342.673-308.143-344.62"/>
				</g>
			</g>
		</g>
	</g>
	<g>
		<g>
			<defs>
				<rect id="SVGID_69_" x="83.197" y="74.321" width="34.463" height="19.827"/>
			</defs>
			<clipPath id="SVGID_70_">
				<use xlink:href="#SVGID_69_"  overflow="visible"/>
			</clipPath>
			<g clip-path="url(#SVGID_70_)">
				<g transform="translate(292.8125,416.375)">
					<path fill="#D0DDDC" d="M-209.174-329.238c0.504-6.201,1.082-11.248,13.41-11.608c9.877-0.288,17.736,2.019,18.818,4.398
						c0.721,1.514,0.144,8.147-4.758,14.203c3.172-2.812,8.219-13.987,6.056-15.357c-8.003-5.119-23.937-5.263-29.849-3.172
						c-1.082,0.361-2.813,1.586-3.966,2.884C-209.679-336.304-209.679-330.104-209.174-329.238"/>
				</g>
			</g>
		</g>
	</g>
	<g>
		<g>
			<defs>
				<rect id="SVGID_71_" x="83.918" y="87.443" width="25.379" height="10.022"/>
			</defs>
			<clipPath id="SVGID_72_">
				<use xlink:href="#SVGID_71_"  overflow="visible"/>
			</clipPath>
			<g clip-path="url(#SVGID_72_)">
				<g transform="translate(293.584,415.5)">
					<path fill="#D0DDDC" d="M-209.605-327.913c1.875,12.112,24.009,8.436,25.307,7.931c-0.072,0.649-11.608,3.894-21.269,0.145
						C-209.461-321.28-209.75-329.283-209.605-327.913"/>
				</g>
			</g>
		</g>
	</g>
	<g>
		<g>
			<defs>
				<rect id="SVGID_73_" x="137.56" y="77.709" width="34.392" height="18.385"/>
			</defs>
			<clipPath id="SVGID_74_">
				<use xlink:href="#SVGID_73_"  overflow="visible"/>
			</clipPath>
			<g clip-path="url(#SVGID_74_)">
				<g transform="translate(474.457,405.0869)">
					<path fill="#D0DDDC" d="M-303.907-312.535c0.288-6.272,0.288-11.248-11.825-13.122c-9.732-1.514-17.808-0.216-19.249,2.019
						c-0.866,1.37-1.154,8.075,3.027,14.708c-2.812-3.244-6.489-14.853-4.109-16.006c8.579-4.109,24.441-2.307,29.993,0.505
						c1.01,0.505,2.668,1.875,3.604,3.389C-302.537-319.528-303.258-313.328-303.907-312.535"/>
				</g>
			</g>
		</g>
	</g>
	<g>
		<g>
			<defs>
				<rect id="SVGID_75_" x="144.049" y="92.778" width="26.171" height="8.436"/>
			</defs>
			<clipPath id="SVGID_76_">
				<use xlink:href="#SVGID_75_"  overflow="visible"/>
			</clipPath>
			<g clip-path="url(#SVGID_76_)">
				<g transform="translate(473.583,404.3135)">
					<path fill="#D0DDDC" d="M-303.447-311.382c-3.316,11.753-24.874,5.407-26.1,4.759c0,0.648,11.03,5.264,21.124,2.812
						C-304.385-304.82-303.015-312.751-303.447-311.382"/>
				</g>
			</g>
		</g>
	</g>
	<g>
		<g>
			<defs>
				<rect id="SVGID_77_" x="98.698" y="81.819" width="1.442" height="1.442"/>
			</defs>
			<clipPath id="SVGID_78_">
				<use xlink:href="#SVGID_77_"  overflow="visible"/>
			</clipPath>
			<g opacity="0.25" clip-path="url(#SVGID_78_)">
				<g transform="translate(327.375,426)">
					<path fill="#FFFFFF" d="M-227.181-343.46c0-0.36-0.289-0.721-0.721-0.721s-0.721,0.288-0.721,0.721s0.289,0.721,0.721,0.721
						S-227.181-343.027-227.181-343.46"/>
				</g>
			</g>
		</g>
	</g>
	<g>
		<g>
			<defs>
				<rect id="SVGID_79_" x="155.656" y="85.208" width="1.441" height="1.442"/>
			</defs>
			<clipPath id="SVGID_80_">
				<use xlink:href="#SVGID_79_"  overflow="visible"/>
			</clipPath>
			<g opacity="0.25" clip-path="url(#SVGID_80_)">
				<g transform="translate(446.375,419)">
					<path fill="#FFFFFF" d="M-289.223-333.071c0-0.36-0.289-0.721-0.721-0.721c-0.361,0-0.722,0.289-0.722,0.721
						s0.289,0.721,0.722,0.721C-289.583-332.351-289.223-332.711-289.223-333.071"/>
				</g>
			</g>
		</g>
	</g>
	<g>
		<g>
			<defs>
				<rect id="SVGID_81_" x="73.247" y="70.211" width="46.72" height="6.849"/>
			</defs>
			<clipPath id="SVGID_82_">
				<use xlink:href="#SVGID_81_"  overflow="visible"/>
			</clipPath>
			<g opacity="0.1" clip-path="url(#SVGID_82_)">
				<g transform="translate(271.125,447.875)">
					<path fill="#D0DDDC" d="M-197.86-375.808c1.73,1.947,2.812,2.163,5.119,1.875c22.423-2.884,34.824-2.812,40.952,2.884
						c1.298,1.226,0.577-3.677-1.875-4.326c-18.89-4.975-32.589-0.505-35.473-0.144
						C-192.092-375.086-194.183-375.735-197.86-375.808"/>
				</g>
			</g>
		</g>
	</g>
	<g>
		<g>
			<defs>
				<rect id="SVGID_83_" x="135.036" y="72.518" width="34.535" height="6.633"/>
			</defs>
			<clipPath id="SVGID_84_">
				<use xlink:href="#SVGID_83_"  overflow="visible"/>
			</clipPath>
			<g opacity="0.1" clip-path="url(#SVGID_84_)">
				<g transform="translate(400.625,441.875)">
					<path fill="#D0DDDC" d="M-265.354-366.923c-0.505,0.505-0.289,5.696,2.163,3.749c7.065-5.624,21.846-4.326,32.155-0.865
						c-1.658-3.245-13.698-5.479-20.476-5.407C-254.757-369.303-263.985-368.365-265.354-366.923"/>
				</g>
			</g>
		</g>
	</g>
	<path fill="#D0DDDC" d="M177.935,79.079c0,0.217-1.154,0.361-2.523,0.361c-1.37,0-2.523-0.144-2.523-0.361
		c0-0.216,1.153-0.36,2.523-0.36C176.854,78.719,177.935,78.936,177.935,79.079"/>
	<path fill="#D0DDDC" d="M80.746,72.879c0,0.216-1.154,0.216-2.523,0c-1.37-0.216-2.452-0.577-2.379-0.793s1.154-0.216,2.523,0
		C79.736,72.23,80.818,72.59,80.746,72.879"/>
	<g transform="translate(578.4404,204.8359)">
		<path fill="#FFFFFF" d="M-358.082-16.429c-0.434-4.398-3.678-6.345-6.634-6.345c-1.37,0-2.451,0.36-2.885,0.576l-0.575,0.288
			l-0.506,0.361c-0.721,0.504-1.946,1.298-3.027,1.658c-0.072-0.865,0-2.02,0.144-3.028v-0.145c0.793-7.714-0.793-12.257-4.83-13.41
			c-0.649-0.217-1.37-0.288-2.091-0.288c-2.452,0-4.615,1.153-5.984,2.163c-1.154-1.514-3.172-2.308-5.624-2.308
			c-3.677,0-6.633,1.73-7.714,4.471c-0.145,0.288-0.288,0.721-0.434,1.297c-2.163-4.758-6.561-6.561-10.67-6.561
			c-3.894,0-7.643,1.514-9.012,2.596c-0.073,0.072-0.146,0.072-0.217,0.145c-3.677,2.595-6.562,5.912-8.58,9.877
			c-1.009-3.389-3.172-6.633-6.993-9.012l-0.072-0.073c-0.145-0.071-0.217-0.144-0.288-0.144c3.82-6.705,7.138-15.646,5.118-24.152
			c-2.163-9.085-7.498-10.383-10.454-10.383c-1.225,0-2.523,0.216-3.821,0.649h-0.072h-0.072c-5.623,2.234-8.074,5.551-8.651,6.344
			c-0.577,0.866-6.705,10.238-8.219,23.938c-0.144,1.514-0.36,3.1-0.504,4.687c-0.865-1.226-2.308-2.38-4.542-3.028
			c-0.721-0.217-1.442-0.289-2.163-0.289c-3.1,0-5.624,1.875-6.993,3.173l0,0c-1.154-1.73-3.028-2.813-5.119-2.884
			c-0.145,0-0.36,0-0.505,0c-3.316,0-5.912,1.441-7.859,3.1c-1.226-2.163-3.533-3.533-6.2-3.533c-0.216,0-0.433,0-0.649,0
			c-0.145,0-0.289,0-0.433,0c-3.677,0-6.561,1.731-7.714,4.615c-0.072,0.216-0.217,0.505-0.289,0.865
			c-2.884-3.605-6.561-5.264-11.536-5.264c-0.144,0-0.288,0-0.504,0c-3.101,0.072-10.743,1.37-15.501,11.969
			c-0.721,1.658-1.298,3.316-1.731,4.902c-1.009-0.505-2.019-0.576-2.667-0.576c-2.451,0-4.326,1.37-5.191,2.739
			c-0.721,1.081-3.028,4.831-1.875,8.58c0.649,2.019,2.019,3.532,4.038,4.326c1.803,0.721,4.038,1.369,5.696,1.874
			c1.01,2.379,2.884,5.047,6.201,7.57c2.307,1.803,5.335,2.668,8.796,2.668c5.912,0,11.608-2.523,12.185-2.813l0.216-0.144
			l0.072-0.072c1.154,1.153,2.596,2.019,4.47,2.379c0.577,0.145,1.298,0.217,2.163,0.217c3.172,0,5.407-1.659,7.498-4.687
			c1.658,2.667,4.759,4.109,8.364,4.109l0,0c0.216,0,0.36,0.145,0.649,0.145c1.875,0,4.326-0.648,6.272-3.894
			c1.658,2.956,4.687,4.687,8.292,4.687c3.172,0,5.984-1.298,6.489-1.586l0.144-0.072c1.082-0.577,1.947-1.082,2.668-1.442
			c2.379,1.298,5.984,2.668,10.454,2.668c0.794,0,1.515,0,2.308-0.145h0.217h0.216c9.373-1.874,15.501-4.109,19.178-5.84
			c2.523,2.884,6.634,5.624,12.402,6.057c0.648,0.072,1.297,0.072,1.945,0.072c4.759,0,8.58-1.37,11.393-2.813
			c0.864,0.938,2.018,1.803,3.46,2.38c0.866,0.36,1.803,0.504,2.668,0.504c5.84,0,8.58-6.921,9.301-9.3l1.369-3.75
			c1.227,1.298,2.813,2.38,4.832,2.956c1.081,0.289,2.307,0.505,3.46,0.505c6.417,0,12.617-4.542,13.555-5.335
			C-359.597-9.292-357.722-12.319-358.082-16.429"/>
	</g>
	<g transform="translate(455.4502,200.8125)">
		<path fill="#E24B31" d="M-293.99-10.476c0,0-0.793-2.884,2.235-8.364c3.028-5.479,5.335-2.523,5.335-2.523s2.596,2.813-0.36,6.994
			S-293.99-10.476-293.99-10.476 M-317.134-6.51c-3.461,9.012-11.824,5.335-11.824,5.335s-0.937-3.245,1.803-12.257
			c2.74-9.013,9.084-5.479,9.084-5.479S-313.673-15.522-317.134-6.51 M-323.406-44.362c0,0,5.191-13.627,6.489-6.993
			c1.297,6.633-10.959,26.315-10.959,26.315C-327.732-29.438-323.406-44.362-323.406-44.362 M-398.028-10.476
			c0.216-8.725,5.912-12.546,7.931-10.671c2.019,1.875,1.298,6.057-2.523,8.58C-396.298-9.972-398.028-10.476-398.028-10.476
			 M-239.916-11.918c-0.288-2.956-2.956-1.875-2.956-1.875s-4.254,3.317-8.003,2.957s-2.523-8.725-2.523-8.725
			s0.793-7.715-1.37-8.363c-2.234-0.648-4.902,2.019-4.902,2.019s-3.389,3.75-4.975,8.508l-0.433,0.145
			c0,0,0.505-8.363-0.073-10.311c-0.432-0.937-4.469-0.865-5.118,0.793s-3.894,13.411-4.109,18.386c0,0-6.345,5.335-11.824,6.272
			c-5.552,0.865-6.85-2.596-6.85-2.596s14.996-4.182,14.492-16.15c-0.505-11.968-12.113-7.57-13.41-6.561
			c-1.299,0.938-8.003,5.047-10.022,16.294c-0.071,0.36-0.216,2.092-0.216,2.092s-5.841,3.893-9.013,4.902
			c0,0,9.013-15.214-2.019-22.135c-4.975-3.028-9.013,3.316-9.013,3.316s14.924-16.583,11.608-30.642
			c-1.586-6.705-4.903-7.427-8.003-6.345c-4.687,1.875-6.417,4.542-6.417,4.542s-6.057,8.725-7.426,21.773
			c-1.37,13.051-3.46,28.695-3.46,28.695s-2.884,2.813-5.479,2.957c-2.668,0.145-1.442-7.859-1.442-7.859s2.019-12.185,1.875-14.275
			c-0.145-2.091-0.289-3.173-2.74-3.894c-2.379-0.721-5.047,2.38-5.047,2.38s-6.993,10.598-7.57,12.185l-0.36,0.648l-0.361-0.433
			c0,0,4.903-14.42,0.217-14.636c-4.687-0.217-7.787,5.119-7.787,5.119s-5.335,9.013-5.551,10.021l-0.36-0.433
			c0,0,2.235-10.454,1.802-13.05s-2.884-2.019-2.884-2.019s-3.101-0.36-3.893,1.658c-0.793,2.019-3.75,15.141-4.11,19.322
			c0,0-7.715,5.552-12.762,5.552c-5.047,0.072-4.542-3.245-4.542-3.245s18.601-6.345,13.554-18.962
			c-2.307-3.244-4.902-4.253-8.652-4.182c-3.749,0.072-8.147,2.38-11.175,9.085c-1.442,3.244-2.019,6.272-2.019,8.58l0,0
			c0,0-3.46,0.648-5.263-0.793c-1.802-1.442-2.812,0-2.812,0s-3.1,4.397-0.072,5.551c3.028,1.154,7.642,2.308,7.642,2.308l0,0
			c0.433,1.875,1.659,5.047,5.335,7.786C-394.928,8.631-384.33,3.8-384.33,3.8l4.326-2.596c0,0,0.145,3.894,3.317,4.47
			c3.172,0.577,4.47-0.071,10.021-13.41c3.245-6.849,3.46-6.488,3.46-6.488l0.361-0.072c0,0-2.523,13.05-1.514,16.582
			c1.01,3.533,5.119,3.173,5.119,3.173s2.307,0.793,4.109-5.696c1.875-6.488,5.335-13.266,5.335-13.266h0.433
			c0,0-1.514,13.05,0.793,17.304c2.379,4.254,8.435,1.298,8.435,1.298s4.254-2.235,4.903-2.884c0,0,5.047,4.254,12.186,3.46
			c15.933-3.172,21.629-7.426,21.629-7.426s2.739,6.921,11.247,7.57c9.733,0.721,14.997-5.407,14.997-5.407
			s-0.073,3.966,3.316,5.336c3.389,1.369,5.695-5.985,5.695-5.985l5.695-15.212h0.506c0,0,0.288,9.732,5.911,11.319
			c5.625,1.586,12.906-4.038,12.906-4.038S-239.556-8.962-239.916-11.918"/>
	</g>
</g>
</svg>
