<?xml version="1.0" encoding="utf-8"?>
<!-- Generator: Adobe Illustrator 16.0.3, SVG Export Plug-In . SVG Version: 6.00 Build 0)  -->
<!DOCTYPE svg PUBLIC "-//W3C//DTD SVG 1.1//EN" "http://www.w3.org/Graphics/SVG/1.1/DTD/svg11.dtd">
<svg version="1.1" id="Ebene_1" xmlns="http://www.w3.org/2000/svg" xmlns:xlink="http://www.w3.org/1999/xlink" x="0px" y="0px"
	 width="256px" height="256px" viewBox="128 -91.5 256 256" enable-background="new 128 -91.5 256 256" xml:space="preserve">
<g>
	<path fill="#FC4349" d="M134.486,18.917h11.26v33.295h-11.26V18.917z M149.229,18.917h8.749l8.668,12.8l8.667-12.8h8.83v33.295
		h-10.693v-11.99l-6.805,9.965l-6.805-9.965v11.99h-10.612V18.917z M187.547,18.917h8.83l8.587,12.8l8.668-12.8h8.83v33.295h-10.693
		v-11.99l-6.805,10.046l-6.805-9.964v11.989h-10.612V18.917z M238.664,53.104c-2.106,0-3.97-0.242-5.671-0.81
		s-3.16-1.297-4.375-2.431c-1.215-1.053-2.106-2.431-2.754-4.051s-0.972-3.563-0.972-5.751V18.917h10.612v20.739
		c0,1.134,0.243,2.025,0.729,2.673c0.485,0.648,1.296,0.892,2.43,0.892c1.134,0,1.944-0.324,2.43-0.892
		c0.486-0.647,0.729-1.539,0.729-2.673V18.917h10.693v21.144c0,2.188-0.324,4.131-0.972,5.751s-1.62,2.998-2.835,4.051
		c-1.215,1.053-2.673,1.863-4.375,2.431C242.634,52.78,240.77,53.104,238.664,53.104z M260.374,27.667h-6.156v-8.75h23.25v8.75
		h-6.157v24.546h-11.018V27.667H260.374z M285.488,18.917h8.021l12.637,33.295h-10.45l-1.134-2.998h-10.126l-1.134,2.998H272.85
		L285.488,18.917z M291.726,41.924l-2.269-5.832l-2.269,5.832H291.726z M306.955,18.917h13.042c1.701,0,3.16,0.162,4.537,0.567
		c1.377,0.405,2.592,0.972,3.564,1.701c0.972,0.729,1.782,1.701,2.269,2.835c0.566,1.134,0.81,2.43,0.81,3.888
		c0,1.053-0.162,1.944-0.405,2.754c-0.243,0.729-0.566,1.377-0.81,1.863c-0.405,0.567-0.811,1.134-1.216,1.458
		c0.729,0.486,1.377,1.053,2.025,1.782c0.486,0.648,0.973,1.458,1.377,2.431c0.405,0.972,0.648,2.187,0.648,3.564
		c0,1.62-0.243,3.078-0.81,4.374c-0.567,1.296-1.378,2.431-2.431,3.322c-1.053,0.891-2.35,1.619-3.808,2.105
		c-1.539,0.486-3.24,0.729-5.104,0.729h-13.609V18.917H306.955z M320.97,29.044c0-1.539-0.81-2.269-2.511-2.269h-1.216v4.618h1.216
		C320.16,31.393,320.97,30.583,320.97,29.044L320.97,29.044L320.97,29.044z M318.459,44.354c2.511,0,3.807-0.972,3.807-2.916
		s-1.296-2.917-3.807-2.917h-1.216v5.833H318.459z M335.632,18.917h11.099v24.546h9.154v8.749h-20.253V18.917z M357.505,18.917
		h19.604v8.75h-8.992v3.726h8.83v8.263h-8.83v3.808h9.397v8.749h-20.01V18.917z"/>
	<path fill="#2C3E50" d="M134.486,18.917h11.26v33.295h-11.26V18.917L134.486,18.917z M140.804,48.243V22.887h-1.296v25.356H140.804
		z M149.229,18.917h8.749l8.668,12.8l8.667-12.8h8.83v33.295h-10.693v-11.99l-6.805,9.965l-6.805-9.965v11.99h-10.612V18.917z
		 M155.467,48.243V25.317l11.18,16.283l11.179-16.283v22.926h1.296V22.887h-1.296l-11.179,16.445l-11.18-16.445h-1.296v25.356
		H155.467z M187.547,18.917h8.83l8.587,12.8l8.668-12.8h8.83v33.295h-10.693v-11.99l-6.805,10.046l-6.805-9.964v11.989h-10.612
		V18.917z M193.784,48.243V25.317l11.179,16.283l11.099-16.283v22.926h1.296V22.887h-1.296l-11.099,16.445l-11.179-16.445h-1.296
		v25.356H193.784z M238.664,53.104c-2.106,0-3.97-0.242-5.671-0.81s-3.16-1.297-4.375-2.431c-1.215-1.053-2.106-2.431-2.754-4.051
		s-0.972-3.563-0.972-5.751V18.917h10.612v20.739c0,1.134,0.243,2.025,0.729,2.673c0.485,0.648,1.296,0.892,2.43,0.892
		c1.134,0,1.944-0.324,2.43-0.892c0.486-0.647,0.729-1.539,0.729-2.673V18.917h10.693v21.144c0,2.188-0.324,4.131-0.972,5.751
		s-1.62,2.998-2.835,4.051c-1.215,1.053-2.673,1.863-4.375,2.431C242.634,52.78,240.77,53.104,238.664,53.104z M238.664,47.109
		c-5.023,0-7.453-2.431-7.453-7.372v-16.85h-1.296v16.85c0,2.835,0.729,4.941,2.269,6.399s3.727,2.188,6.481,2.188
		c2.835,0,5.022-0.729,6.562-2.188s2.269-3.646,2.269-6.399v-16.85h-1.377v16.85C246.117,44.598,243.687,47.109,238.664,47.109z
		 M260.374,27.667h-6.156v-8.75h23.25v8.75h-6.157v24.546h-11.018V27.667H260.374z M266.531,48.243V24.103h7.129v-1.215h-15.554
		v1.215h7.129v24.141H266.531z M285.488,18.917h8.021l12.637,33.295h-10.45l-1.134-2.998h-10.126l-1.134,2.998H272.85
		L285.488,18.917z M280.303,48.243l0.972-2.512h16.445l0.972,2.512h1.378l-9.641-25.356h-1.863l-9.64,25.356H280.303L280.303,48.243
		z M289.457,24.103l7.777,20.414H281.68L289.457,24.103L289.457,24.103z M291.726,41.924l-2.269-5.832l-2.269,5.832H291.726z
		 M306.955,18.917h13.042c1.701,0,3.16,0.162,4.537,0.567c1.377,0.405,2.592,0.972,3.564,1.701c0.972,0.729,1.782,1.701,2.269,2.835
		c0.566,1.134,0.81,2.43,0.81,3.888c0,1.053-0.162,1.944-0.405,2.754c-0.243,0.729-0.566,1.377-0.81,1.863
		c-0.405,0.567-0.811,1.134-1.216,1.458c0.729,0.486,1.377,1.053,2.025,1.782c0.486,0.648,0.973,1.458,1.377,2.431
		c0.405,0.972,0.648,2.187,0.648,3.564c0,1.62-0.243,3.078-0.81,4.374c-0.567,1.296-1.378,2.431-2.431,3.322
		c-1.053,0.891-2.35,1.619-3.808,2.105c-1.539,0.486-3.24,0.729-5.104,0.729h-13.609V18.917H306.955z M319.188,48.243
		c2.916,0,5.104-0.648,6.48-1.863c1.377-1.296,2.106-2.916,2.106-5.022c0-1.377-0.324-2.431-0.891-3.24
		c-0.567-0.811-1.216-1.458-1.864-1.944c-0.81-0.567-1.782-0.891-2.754-1.134c0.811-0.243,1.539-0.567,2.188-1.134
		c0.566-0.405,1.053-1.053,1.539-1.782s0.648-1.701,0.648-2.835c0-2.106-0.648-3.645-2.025-4.779
		c-1.297-1.053-3.159-1.62-5.428-1.62h-7.21v25.356H319.188L319.188,48.243z M313.274,34.391V24.103h5.914
		c2.188,0,3.727,0.486,4.698,1.458c0.973,0.972,1.458,2.187,1.458,3.726c0,1.54-0.485,2.754-1.458,3.727
		c-0.972,0.972-2.511,1.458-4.698,1.458h-5.914V34.391L313.274,34.391z M313.274,47.027V35.605h5.833
		c1.054,0,2.025,0.081,2.835,0.324c0.892,0.243,1.621,0.567,2.35,0.973c0.648,0.485,1.215,1.053,1.539,1.781
		c0.405,0.729,0.567,1.621,0.567,2.593c0,2.025-0.648,3.483-2.025,4.375c-1.377,0.891-3.159,1.376-5.347,1.376H313.274
		L313.274,47.027z M320.97,29.044c0-1.539-0.81-2.269-2.511-2.269h-1.216v4.618h1.216C320.16,31.393,320.97,30.583,320.97,29.044
		L320.97,29.044L320.97,29.044z M318.459,44.354c2.511,0,3.807-0.972,3.807-2.916s-1.296-2.917-3.807-2.917h-1.216v5.833H318.459z
		 M335.632,18.917h11.099v24.546h9.154v8.749h-20.253V18.917z M353.131,48.243v-1.216h-11.18v-24.14h-1.297v25.356H353.131z
		 M357.505,18.917h19.604v8.75h-8.992v3.726h8.83v8.263h-8.83v3.808h9.397v8.749h-20.01V18.917z M373.788,48.243v-1.216h-9.964
		V36.092h9.478v-1.215h-9.478V24.103h9.964v-1.215h-11.261v25.356H373.788L373.788,48.243z"/>
</g>
</svg>
