<?xml version="1.0" encoding="utf-8"?>
<!-- Generator: Adobe Illustrator 16.0.3, SVG Export Plug-In . SVG Version: 6.00 Build 0)  -->
<!DOCTYPE svg PUBLIC "-//W3C//DTD SVG 1.1//EN" "http://www.w3.org/Graphics/SVG/1.1/DTD/svg11.dtd">
<svg version="1.1" id="Ebene_1" xmlns="http://www.w3.org/2000/svg" xmlns:xlink="http://www.w3.org/1999/xlink" x="0px" y="0px"
	 width="256px" height="278px" viewBox="0 0 256 278" enable-background="new 0 0 256 278" xml:space="preserve">
<g>
	<path fill="#3177BC" d="M81.893,99.182C61.917,111.617,50.5,129.287,50.5,129.287s2.958-37.052,31.393-58.732
		c11.309-8.623,26.77-15.847,47.565-15.847c7.813,0,24.194,1.359,38.951,10.457c14.756,9.098,20.718,16.718,27.365,27.875
		c2.869,4.814,5.205,11,6.663,16.965c2.73,11.178,3.063,24.546,3.063,24.546v17.61H100.041c0,0-2.576,35.433,45.924,35.433
		c16.867,0,22.774-2.65,28.322-4.293c8.685-2.572,17.07-8.305,17.07-8.305l0.017,35.4c0,0-19.849,12.227-49.836,12.227
		c-8.444,0-17.344-0.708-25.927-3.493c-7.5-2.434-23.206-8.996-33.718-24.379c-3.719-5.44-7.748-12.681-9.744-19.755
		c-2.158-7.647-2.131-15.077-2.131-19.17c0-15.31,5.23-29.925,14.306-40.492c11.756-13.687,26.615-19.712,26.615-19.712
		s-4.84,5.643-7.817,12.668c-2.977,7.025-3.792,14.093-3.792,14.093h59.548c0,0,3.482-35.583-33.695-35.583
		C111.176,86.801,93.971,91.664,81.893,99.182L81.893,99.182z"/>
</g>
</svg>
