<?xml version="1.0" encoding="utf-8"?>
<!-- Generator: Adobe Illustrator 16.0.3, SVG Export Plug-In . SVG Version: 6.00 Build 0)  -->
<!DOCTYPE svg PUBLIC "-//W3C//DTD SVG 1.1//EN" "http://www.w3.org/Graphics/SVG/1.1/DTD/svg11.dtd">
<svg version="1.1" id="Ebene_1" xmlns="http://www.w3.org/2000/svg" xmlns:xlink="http://www.w3.org/1999/xlink" x="0px" y="0px"
	 width="256px" height="256px" viewBox="0 -39 256 256" enable-background="new 0 -39 256 256" xml:space="preserve">
<g transform="translate(-1.000000, 0.000000)">
	<g transform="translate(51.398438, 0.000000)">
		<path fill="#FF4081" d="M92.965,142.514L31.51,36.07h30.729l61.455,106.443H92.965L92.965,142.514z"/>
		<path fill="#FFFFFF" fill-opacity="0.2" d="M92.965,142.514l15.362-26.611l15.367,26.611H92.965L92.965,142.514z"/>
		<path fill="#FFFFFF" fill-opacity="0.1" d="M77.602,115.902l15.363,26.611l15.362-26.611H77.602L77.602,115.902L77.602,115.902z"
			/>
		<path fill-opacity="0.1" d="M62.239,89.292l15.363,26.61l15.363-26.61H62.239L62.239,89.292L62.239,89.292z"/>
		<path fill-opacity="0.2" d="M62.239,89.292l15.363-26.611l15.363,26.611H62.239L62.239,89.292L62.239,89.292z"/>
		<path fill-opacity="0.3" d="M46.876,62.681l15.363,26.611l15.363-26.611H46.876L46.876,62.681L46.876,62.681z"/>
		<path fill-opacity="0.4" d="M46.876,62.681L62.239,36.07l15.363,26.611H46.876L46.876,62.681L46.876,62.681z"/>
		<path fill-opacity="0.5" d="M31.51,36.07l15.367,26.611L62.239,36.07H31.51L31.51,36.07z"/>
	</g>
	<g transform="translate(0.000000, 44.343750)">
		<path fill="#536DFE" d="M82.908,98.17L52.179,44.948l15.367-26.611l46.091,79.833H82.908L82.908,98.17L82.908,98.17z"/>
		<path fill="#FFFFFF" fill-opacity="0.2" d="M82.908,98.17l15.367-26.611l15.363,26.611H82.908L82.908,98.17z"/>
		<path fill="#FFFFFF" fill-opacity="0.1" d="M67.546,71.559L82.908,98.17l15.367-26.611H67.546L67.546,71.559z"/>
		<path fill="none" d="M67.546,71.559l15.362-26.61l15.367,26.61H67.546L67.546,71.559z"/>
		<path fill-opacity="0.1" d="M52.179,44.948l15.367,26.61l15.362-26.61H52.179L52.179,44.948z"/>
		<path fill-opacity="0.2" d="M52.179,44.948l15.367-26.611l15.362,26.611H52.179L52.179,44.948z"/>
	</g>
	<g transform="translate(26.203125, 0.000000)">
		<path fill="#303F9F" d="M56.706,89.292L41.343,62.681L56.706,36.07l15.366,26.611L56.706,89.292L56.706,89.292z"/>
		<path fill-opacity="0.2" d="M72.072,62.681L56.706,36.07L41.343,62.681H72.072L72.072,62.681z"/>
	</g>
	<g transform="translate(179.390625, 88.687500)">
		<path fill="#3F51B5" d="M-4.299,53.826l-15.367-26.611l15.367-26.61l15.362,26.61L-4.299,53.826L-4.299,53.826z"/>
		<path fill-opacity="0.2" d="M11.063,27.215L-4.299,53.826l-15.367-26.611H11.063L11.063,27.215z"/>
	</g>
	<g transform="translate(154.195312, 0.000000)">
		<path fill="#7986CB" d="M36.259,115.902L-9.832,36.07h30.729l30.729,53.222L36.259,115.902L36.259,115.902L36.259,115.902z"/>
		<path fill="#FFFFFF" fill-opacity="0.2" d="M20.896,89.292l15.362,26.61l15.367-26.61H20.896L20.896,89.292z"/>
		<path fill="#FFFFFF" fill-opacity="0.1" d="M20.896,89.292l15.362-26.611l15.367,26.611H20.896L20.896,89.292z"/>
		<path fill-opacity="0.1" d="M5.529,62.681L20.896,36.07l15.362,26.611H5.529L5.529,62.681z"/>
		<path fill-opacity="0.2" d="M-9.832,36.07L5.53,62.681L20.897,36.07H-9.832L-9.832,36.07z"/>
	</g>
</g>
</svg>
