<?xml version="1.0" encoding="utf-8"?>
<!-- Generator: Adobe Illustrator 16.0.3, SVG Export Plug-In . SVG Version: 6.00 Build 0)  -->
<!DOCTYPE svg PUBLIC "-//W3C//DTD SVG 1.1//EN" "http://www.w3.org/Graphics/SVG/1.1/DTD/svg11.dtd">
<svg version="1.1" id="Ebene_1" xmlns="http://www.w3.org/2000/svg" xmlns:xlink="http://www.w3.org/1999/xlink" x="0px" y="0px"
	 width="256px" height="256px" viewBox="0 0 256 256" enable-background="new 0 0 256 256" xml:space="preserve">
<g>
	<path fill="#DD3735" d="M217.431,123.104c-0.06-2.296-0.181-4.652-0.302-6.949c-0.121-2.357-0.181-4.713-0.423-7.07
		c-0.423-3.203-0.847-6.466-1.571-9.608c-0.544-2.599-1.45-5.076-2.355-7.553c-1.148-2.901-2.298-5.862-3.747-8.641
		c-2.357-4.472-5.438-8.46-8.278-12.629c-1.873-2.659-4.291-4.834-6.103-7.553c-1.028-1.571-2.539-2.901-4.05-4.109
		c-2.417-1.933-4.954-3.686-7.492-5.377c-1.934-1.33-3.867-2.598-5.922-3.747c-1.632-0.907-3.385-1.632-5.076-2.417
		c-1.933-0.907-3.807-1.994-5.982-2.417c-0.543-0.121-1.026-0.302-1.57-0.483c-1.39-0.484-2.72-1.027-4.109-1.45
		c-2.114-0.665-4.169-1.451-6.345-1.994c-2.114-0.544-4.289-0.907-6.465-1.209c-2.417-0.362-4.895-0.483-7.312-0.725
		c-1.571-0.181-3.143-0.362-4.653-0.423c-2.296-0.12-4.652-0.12-6.949-0.181c-1.148-0.06-2.356-0.181-3.505-0.121
		c-1.752,0.061-3.504,0.242-5.257,0.484c-1.691,0.181-3.383,0.483-5.015,0.725c-1.994,0.241-3.988,0.362-5.982,0.604
		c-1.873,0.242-3.807,0.604-5.68,0.906c-0.665,0.121-1.33,0.363-1.994,0.483c-1.45,0.302-2.961,0.424-4.412,0.907
		c-2.598,0.785-5.196,1.692-7.734,2.658c-2.356,0.967-4.653,1.994-6.888,3.203c-2.296,1.269-4.472,2.78-6.647,4.23
		c-2.054,1.389-4.108,2.84-6.103,4.411c-1.933,1.51-3.746,3.202-5.499,4.895c-0.967,0.966-1.752,2.115-2.659,3.202
		c-1.51,1.752-3.021,3.445-4.471,5.257c-1.208,1.511-2.296,3.083-3.444,4.654c-2.055,2.779-3.807,5.74-5.438,8.701
		c-0.665,1.208-1.269,2.417-1.873,3.625c-0.907,1.813-1.874,3.565-2.719,5.438c-0.604,1.269-1.088,2.659-1.451,4.048
		c-0.846,2.96-1.692,5.982-2.477,8.943c-0.725,2.659-0.907,5.438-0.967,8.158c-0.061,2.417,0.181,4.773,0.423,7.191
		c0.06,0.604-0.302,1.329,0.423,1.812c0.06,0,0,0.242-0.061,0.302c-0.181,0.363,0,0.725,0.363,0.846c0,0,0.06,0.061,0.06,0.121
		h-0.302c-0.181,0.544,0.423,0.967,0.181,1.571c-0.06,0.121,0.182,0.362,0.302,0.544c0,0.181-0.06,0.423,0,0.604
		c0.061,0.544,0.303,1.088,0.303,1.692c0,0.423,0.362,0.905,0.483,1.329c0.06,0.182,0,0.483-0.121,0.604
		c-0.362,0.423-0.302,0.786,0.242,1.026c0.121,0.062,0.302,0.303,0.302,0.423c0,0.363-0.121,0.726-0.181,1.089
		c0.12,0.121,0.181,0.241,0.12,0.361c0,0.182-0.181,0.363-0.12,0.484c0.483,0.966,0.664,2.055,0.725,3.142
		c0,0.242,0.121,0.483,0.241,0.786c0.061,0,0.242,0,0.363,0.061l-0.363,1.087c0.302-0.182,0.544-0.241,0.846-0.362
		c0.181,0.786,0.363,1.511,0.604,2.175c0.061,0.122,0.182,0.242,0.363,0.363c-0.061,0.121-0.061,0.362-0.181,0.424
		c0.242,1.087,0.362,2.114,0.785,3.142c0.061,0,0.121-0.062,0.181-0.062c-0.181-1.087-0.302-2.235-0.483-3.323v-0.362
		c0,0,0.121-0.06,0.181-0.06c0.061,0.241,0.182,0.543,0.182,0.725c0.483,0,1.208,0.302,1.691,0.302
		c0.061-0.182,0.121-0.423,0.182-0.543c-0.363-0.363-0.665-0.907-1.028-1.27c0.121,0.483,0,0.664,0,0.846
		c-0.241-0.12-0.543-0.241-0.845-0.362c0.241-0.302,0.483-0.604,0.845-0.967c0-0.543-0.302-1.027-1.148-0.967
		c0.363-0.121,0.726-0.302,1.148-0.423c0.061,0.182,0.121,0.362,0.182,0.483c0.483-0.846-0.242-1.511-0.242-2.356
		c0.06-1.027-0.544-2.055-0.725-3.143c-0.302-1.692-0.242-4.229-0.423-5.921c0-0.121-0.181-0.242-0.302-0.363
		c-0.061,0.061-0.363,0.846-0.423,0.907c0.181,1.451,0.362,2.9,0.483,4.35c-0.061,0-0.122,0-0.122,0.061
		c-0.241-1.27-0.483-2.599-0.785-4.048c-0.06,0.423-0.121,0.604-0.121,0.846c-0.181-0.061-0.241-0.121-0.544-0.242
		c0.242,0.544,0.484,0.907,0.665,1.329c-0.423-0.182-0.906-0.12-0.906-0.12v1.691c-0.604-0.604-0.786-1.088-1.087-1.511
		c-0.122-0.482-0.182-0.967-0.302-1.45l0.181-0.061c-0.06-0.241-0.181-0.423-0.181-0.604c-0.06-0.423-0.121-0.906-0.181-1.45
		c0.06-0.06,0.302-0.121,0.423-0.241l-0.484-0.725c0.484,0.06,0.786,0.12,1.088,0.12c0-0.12,0.06-0.181,0-0.241
		c-0.604-0.544-0.181-1.028,0.06-1.511c0.121-0.242,0.543-0.302,0.665-0.544c0.483-0.906,1.269-1.631,1.269-2.779
		c0-0.544,0.181-1.148,0.241-1.692c0.122-1.027,0.242-2.054,0.303-3.082c0.12-1.329,0-2.659,0.302-3.928
		c0.483-2.115,1.087-4.23,1.752-6.344c0.483-1.511,1.027-2.961,1.631-4.472c0.907-2.357,1.752-4.713,2.9-6.95
		c1.632-3.262,3.505-6.405,5.318-9.607c1.148-1.994,2.357-3.867,3.625-5.801c1.209-1.873,2.417-3.806,3.807-5.559
		c1.933-2.478,4.048-4.773,6.405-6.829c2.417-2.175,4.713-4.411,7.312-6.405c3.384-2.598,6.949-4.895,10.756-6.889
		c3.082-1.631,6.284-2.9,9.487-4.109c2.054-0.785,4.29-1.147,6.404-1.813c2.417-0.786,4.834-1.148,7.372-1.208
		c1.632-0.061,3.203-0.242,4.834-0.422c1.45-0.122,2.9-0.242,4.471-0.423c-0.181,0.241-0.242,0.362-0.302,0.483
		c-0.665,0.967-1.39,1.933-2.054,2.9c-0.544,0.786-1.148,1.631-1.692,2.417c-0.967,1.269-1.994,2.538-2.9,3.867
		c-1.39,1.994-2.659,4.048-4.109,6.042c-1.45,1.934-3.021,3.747-4.531,5.62c-1.994,2.598-3.867,5.257-5.862,7.855
		c-1.813,2.478-3.746,4.834-5.499,7.312c-1.571,2.175-2.961,4.472-4.472,6.708c-2.236,3.324-4.471,6.586-6.708,9.91
		c-1.752,2.538-3.504,5.015-5.317,7.553c-0.121,0.182-0.302,0.242-0.483,0.362c-0.122,0.121-0.363,0.242-0.363,0.363
		c-0.12,0.423-0.12,0.846-0.302,1.208c-0.483,0.907-0.966,1.813-1.511,2.659c-0.302,0.484-0.725,0.907-1.087,1.39
		c-0.122-0.06-0.182-0.12-0.302-0.12c0.242-0.605,1.269-0.967,0.786-1.874c-0.302,0.483-0.605,0.906-0.907,1.39l-0.725,1.45
		c0.242,0.182,0.665,0.302,0.242,0.665c-0.181,0.302-0.363,0.664-0.544,0.967c0.061,0,0.061,0.06,0.121,0.06
		c0.181-0.242,0.363-0.423,0.544-0.665c0.06,0,0.121,0.061,0.181,0.061c-0.181,0.604-0.544,1.148-0.846,1.692
		c-0.242,0.483-0.846,0.845-1.269,1.208c0.061,0.06,0.484,0.242,0.544,0.302c0.181-0.242,0.242-0.121,0.423-0.362
		c0.122,0.181,0.302-0.121,0.363,0.06c0.181-0.242,0.362-0.423,0.423-0.604c0.241-0.604,0.604-1.088,1.208-1.33
		c0.242-0.121,0.423-0.303,0.604-0.483c1.813-1.874,3.687-3.686,5.317-5.68c2.538-3.083,4.834-6.285,7.251-9.427
		c1.028-1.329,2.236-2.658,3.324-3.927c0.121,0.061,0.242,0.061,0.303,0.121c-0.121,1.269-0.242,2.598-0.303,3.867
		c-0.182,2.235-0.302,4.472-0.483,6.768c-0.06,0.906,0,1.813-0.06,2.719c0,0.241-0.182,0.422-0.182,0.665
		c0,0.604,0.182,1.269,0.182,1.873c-0.182,2.236-0.423,4.411-0.605,6.647c-0.06,0.484,0.182,0.967,0.303,1.39
		c-0.061-0.06-0.121-0.121-0.303-0.242c0,3.505,0.665,6.95,0.121,10.394c0.242-0.061,0.363-0.12,0.363-0.242
		c0.06-0.423,0.181-0.846,0.181-1.269c0.061-0.362,0-0.725,0-1.148v-0.604c0.061-1.088,0.302-2.236,0.181-3.323
		c-0.12-1.209-0.12-2.357,0.121-3.505c0.122-0.483-0.06-1.087,0.242-1.691v0.906c-0.061,3.444,0.06,6.889-0.423,10.333
		c-0.06,0.302,0.181,0.847-0.483,0.785c-0.061,0-0.121,0.302-0.242,0.483c-0.302,0.604,0.362,1.39-0.242,1.994
		c-0.121,0.121,0.121,0.665,0.181,1.028c0,0.12,0.061,0.24,0,0.302c-0.241,0.423-0.241,0.423,0.121,0.483
		c0.061,1.329,0.182,2.538,0.242,3.807h0.181c0.786-2.297,0.302-4.653,0.725-7.01c0.061,0.967,0.121,1.934,0.061,2.961
		c0,1.571-0.061,3.082-0.121,4.653c0,0.302-0.061,0.604-0.121,0.905c-0.182,0.847-0.242,1.692-0.544,2.478
		c-0.241,0.605-0.121,1.512-0.121,2.237v2.295c0,0.061,0.182,0.242,0.182,0.484c0.06,0.543-0.242,1.088-0.061,1.691
		c0.061,0.121-0.06,0.302-0.121,0.424c-0.061,0.18-0.121,0.361-0.061,0.543l0.181,0.906c0,0.061,0.061,0.121,0.121,0.241
		c0.061-0.241,0.061-0.423,0.061-0.482c1.027,0.12,0.483,1.026,0.966,1.511c-0.241,0.12-0.423,0.181-0.423,0.241
		c0.061,0.242,0.182,0.423,0.182,0.665c0,0.543-0.061,1.027-0.121,1.571c0,1.389-0.061,2.779-0.061,4.108
		c0,0.181,0.061,0.362,0.061,0.544c0,0.12-0.061,0.242-0.061,0.423v1.27h0.242c-0.121,0.181-0.242,0.362-0.423,0.543
		c-0.061,0-0.242,0-0.242-0.061v-7.613h-0.906c-0.121,3.625,0.181,6.889-0.483,10.271c-0.725,0.062-0.967,0.182-1.752,0.182
		c-1.873,0-3.747,0-5.62,0.061c-2.236,0-4.411,0.062-6.647,0.062c-1.087,0-2.235,0.12-3.323,0.12c-1.45,0-2.96-0.182-4.411-0.182
		c-2.236,0-4.411,0.182-6.646,0.242c-1.632,0.061-3.263,0.061-4.895,0.121c-1.088,0.06-2.176,0.121-3.263,0.241
		c-0.483,0.061-0.906,0.242-1.511,0.423c-0.181,0-0.604-0.06-0.966,0c-0.604,0.121-1.148,0.484-1.752,0.604
		c-0.907,0.182-1.148,0.423-1.028,1.33v0.604c-0.121-0.121-0.302-0.241-0.423-0.302c-0.06,0-0.12,0.061-0.12,0.061
		c0.06,0.181,0.181,0.302,0.241,0.483c0.242-0.121,0.544-0.423,0.786-0.423h0.846c-0.121,0-0.182,0.362-0.363,0.664
		c0.483-0.182,0.786-0.302,1.088-0.423c0.06,0.182,0.06,0.423,0.06,0.483c0.846-0.061,1.631-0.302,2.356-0.12
		c2.357,0.604,4.774,0.845,7.191,1.087c1.571,0.121,3.082,0.182,4.653,0.241c2.235,0.122,4.471,0.242,6.707,0.242
		c1.873,0,3.686-0.181,5.559-0.181c2.599,0,5.197,0.12,7.795,0.181c0.544,0,1.148-0.061,1.752-0.061h4.411
		c3.928-0.12,7.855-0.182,11.783-0.302c2.236-0.061,4.532-0.182,6.768-0.241l6.888-0.182c2.659-0.061,5.317-0.061,7.916-0.122
		c1.994,0,3.928-0.06,5.922-0.12c2.235-0.061,4.532-0.241,6.768-0.362c1.209-0.061,2.417-0.181,3.627-0.303
		c1.45-0.12,2.96-0.302,4.41-0.362c2.175-0.12,4.411-0.181,6.586-0.303c2.72-0.18,5.439-0.423,8.219-0.482
		c2.537-0.121,5.136-0.061,7.673-0.121c2.237-0.06,4.472-0.182,6.769-0.241l3.808-0.182c0,0,2.537-0.061,3.806-0.182
		c2.176-0.12,4.352-0.362,6.526-0.422c1.39-0.061,2.779,0,4.17-0.061c2.235-0.062,4.532-0.182,6.767-0.182
		c0.847,0,1.754,0.12,2.841,0.182c-0.483,0.423-0.785,0.664-1.148,0.966c0.242,0.062,0.483,0.182,0.725,0.302
		c0,0.062-0.06,0.121-0.06,0.243c-0.302,0-0.604,0.06-0.907,0.06c-0.12,0.303-0.241,0.423-0.361,1.027h1.087
		c-0.422,0-0.785,0.543-1.209,0.906c0.062,0.061,0.122,0.061,0.182,0.121c-0.664-0.242-1.087-0.121-1.328,0.544
		c0.18,0.061,0.302,0.061,0.482,0.061c-0.061,0.181-0.12,0.362-0.181,0.604c-0.061,0.122-0.122,0.242-0.122,0.424l-0.18-0.182
		c0-0.12,0-0.242-0.061-0.362c-0.363,0.362-0.907,0.604-0.605,1.39c-0.241,0.121-0.543,0.242-0.845,0.423
		c0.06,0.121,0.18,0.242,0.241,0.423c-0.544,0.061-1.088,0.182-0.967,0.847c0.241,0.06,0.483,0.181,0.664,0.24
		c-0.302,0.122-0.604,0.303-0.905,0.424c-0.062,0.121-0.122,0.423-0.243,0.483c-0.846,0.182-0.362,0.483-0.12,0.785
		c-0.182,0.122-0.362,0.242-0.544,0.303c0.182,0.061,0.302,0.121,0.424,0.241c-0.182,0.121-0.304,0.182-0.424,0.243
		c0.12,0.06,0.302,0.18,0.362,0.18c-0.242,0.182-0.544,0.424-0.905,0.726c0,0.121,0,0.182,0.06,0.302
		c-0.241,0.242-0.483,0.483-0.725,0.847c-0.242,0.361-0.362,0.846-0.665,1.208c-1.27,1.39-2.176,3.021-3.808,4.109
		c-0.604,0.423-1.147,0.966-1.691,1.511c-1.087,1.027-2.055,2.175-3.203,3.142c-1.51,1.27-3.081,2.417-4.713,3.565
		c-1.993,1.39-3.988,2.779-5.981,4.109c-1.088,0.725-2.296,1.269-3.444,1.934c-1.148,0.664-2.236,1.269-3.385,1.934
		c-0.725,0.483-1.39,1.147-2.175,1.511c-1.994,0.846-4.109,1.571-6.164,2.356c-0.182,0.06-0.302,0.12-0.483,0.181
		c-1.51,0.665-2.96,1.391-4.471,1.934c-1.391,0.483-2.84,0.847-4.291,1.148c-0.483,0.121-1.027,0-1.57,0.061
		c-1.027,0.182-2.056,0.423-3.082,0.544c-2.658,0.362-5.317,0.604-7.976,0.967c-1.571,0.181-3.083,0.482-4.653,0.664
		c-1.088,0.062-2.235-0.06-3.324-0.06c-0.785,0-1.631,0.181-2.417,0.06c-1.268-0.182-2.537-0.483-3.806-0.725
		c-0.302-0.061-0.725-0.182-0.967-0.061c-0.483,0.241-0.906-0.121-1.389,0c-0.302,0.061-0.604-0.182-0.907-0.182
		c-0.242-0.06-0.543,0.061-0.846,0c-0.665-0.182-1.269-0.422-1.994-0.362c-0.725,0.061-1.45-0.302-2.236-0.482
		c-1.087-0.242-2.114-0.484-3.202-0.726c-0.423-0.121-0.785-0.302-1.208-0.544c-0.121,0.06-0.302,0.181-0.544,0.181
		c-1.027-0.181-2.054-0.241-3.021-0.604c-0.846-0.303-1.631-0.725-2.539-0.604c-0.241,0.061-0.423-0.061-0.664-0.061
		c-0.182-0.241-0.363-0.726-0.544-0.726c-1.209,0.062-1.934-0.967-2.961-1.269c-0.543-0.182-0.966-0.785-1.51-0.967
		c-1.329-0.543-2.417-1.691-3.927-1.873c-0.484-0.061-0.967-0.302-1.511-0.483c0.181,0.241,0.302,0.423,0.483,0.604l-0.121,0.12
		c-1.631-0.966-3.263-1.934-4.894-2.839c-0.242-0.062-0.423-0.303-0.604-0.424l-1.631-1.088c-0.181-0.12-0.544-0.302-0.544-0.242
		c-0.362,0.424-0.725,0.062-0.966-0.06c-1.632-1.148-3.505-1.873-5.077-3.143c-0.664-0.543-1.45-0.905-1.933-1.57
		c-0.846-1.027-1.873-1.753-3.021-2.357c-0.906-0.482-1.752-1.027-2.598-1.57c-0.423-0.302-0.846-0.665-0.846-1.33
		c0-0.422-0.181-0.846-0.725-0.604c-0.242-0.363-0.483-0.786-0.785-0.907c-0.725-0.302-1.209-0.846-1.753-1.329
		c-0.543-0.483-0.966-1.148-1.631-1.39c-1.208-0.483-1.933-1.511-2.658-2.356c-1.692-1.995-3.203-4.17-4.774-6.284
		c-0.121-0.182-0.362-0.303-0.544-0.483l-0.061,0.061c0.302,0.604,0.604,1.147,0.907,1.752c-0.061,0.061-0.182,0.121-0.242,0.181
		c-0.363-0.423-0.786-0.846-1.148-1.269c-0.061,0.061-0.121,0.121-0.181,0.121l4.35,6.889c0.362,0.544,0.665,1.088,1.027,1.631
		c-0.06,0.062-0.121,0.122-0.242,0.182c-0.665-0.12-1.269-0.604-1.571-1.148c-0.543-0.966-1.148-1.57-2.356-1.45
		c-0.121-0.423-0.242-0.906-0.302-1.329c-0.242,0-0.423,0-0.846-0.06c0.846,1.328,1.571,2.478,2.356,3.806
		c-0.302-0.181-0.483-0.302-0.604-0.361c1.088,1.147,1.873,2.598,3.264,3.323c0.302,1.39,1.873,2.055,2.235,3.383
		c-0.302-0.06-0.543-0.12-0.845-0.181c-0.484-0.604-1.028-1.208-1.571-1.873c0.12,0.423,0.302,0.785,0.543,1.088
		c0.726,0.906,1.39,1.813,2.236,2.598c0.302,0.303,0.725,0.424,0.725,0.967c0.121-0.121,0.242-0.181,0.483-0.302
		c-0.121,0.241-0.181,0.362-0.241,0.544c0.241,0,0.423,0.061,0.604,0.061c0.121,0.362-0.061,0.906,0.665,0.785
		c0.061,0,0.121,0.06,0.182,0.121c0.302,0.785,0.785,0.785,1.45,0.483c0.121-0.061,0.423,0,0.483,0.12
		c0.302,0.665,0.725,0.726,1.269,0.242c0,0.303,0.06,0.604,0.06,0.846h0.242c0-0.121-0.06-0.303-0.06-0.604
		c0.302,0.242,0.483,0.363,0.604,0.483c0.604,0.846,1.148,1.633,1.994,2.296c1.148,0.967,2.175,1.995,3.263,2.901
		c2.115,1.752,4.472,3.202,6.829,4.532c2.9,1.631,5.68,3.384,8.641,4.954c3.564,1.874,7.372,3.143,11.299,4.05
		c1.45,0.302,2.84,0.604,4.291,0.966c1.269,0.362,2.538,0.907,3.806,1.209c1.934,0.423,3.928,0.785,5.862,1.147
		c0.423,0.061,0.846,0.122,1.329,0.182v0.121c0.544,0,1.209-0.242,1.33-0.061c0.302,0.483,0.543,0.241,0.906,0.182
		c0.423-0.121,0.906-0.121,1.389-0.121c1.692,0.06,3.323,0.423,5.016,0.303c0.363,0,0.907-0.303,1.208,0.302
		c0.122-0.062,0.182-0.122,0.302-0.182c0.242-0.061,0.544-0.061,0.786-0.12v0.12c-0.121,0.06-0.242,0.06-0.483,0.121
		c0.302,0.061,0.483,0.12,0.665,0.181c-0.121,0.121-0.182,0.121-0.303,0.182c-0.121,0.06-0.302,0.121-0.543,0.302
		c2.175,0.423,4.229,0.484,6.043,0v-0.362h0.24c0,0.12,0.062,0.242,0.121,0.362c2.779,0.242,5.498-0.12,8.097-1.027
		c0.242,0.302,0.424,0.726,0.786,0.122c0.121-0.182,0.423-0.243,0.665-0.303c0.543-0.121,1.208-0.362,1.691-0.181
		c0.544,0.181,0.726-0.304,1.148-0.304c0.725,0,1.39-0.06,2.055-0.181c0.362-0.061,0.725-0.242,1.147-0.362
		c0-0.061,0-0.12-0.061-0.182c-0.422-0.061-0.905-0.12-1.269-0.12c0.725-0.363,1.39-0.666,2.055-0.968
		c0,0.061,0.061,0.061,0.061,0.122c-0.182,0.06-0.302,0.302-0.544,0.302h0.846c-0.182,0-0.423,0.544-0.726,0.906
		c2.176-0.544,4.17-1.028,6.104-1.511v-0.121c-0.241,0.061-0.424,0.061-0.604,0.121c-0.062-1.27,1.328-0.846,1.812-1.571
		c-0.604,0.182-1.208,0.362-1.812,0.483v-0.121c2.054-0.905,4.169-1.813,6.223-2.719c0,0.061,0.062,0.061,0.062,0.121
		c-0.363,0.242-0.726,0.423-1.27,0.725c0.362,0.061,0.604,0.061,0.785,0.121c0,0.182,0,0.302-0.061,0.363
		c1.027-0.062,0.785-0.967,1.088-1.512c0.182,0.061,0.423,0.182,0.604,0.121c0.544-0.121,1.027-0.302,1.57-0.483
		c0.605-0.182,1.21-0.362,1.813-0.604c0.967-0.423,1.873-0.966,2.84-1.45c0.182-0.061,0.483,0,0.726,0
		c0.181,0,0.303-0.121,0.423-0.241c0.241-0.182,0.483-0.544,0.665-0.484c0.845,0.121,1.449-0.181,1.691-0.966
		c0.061,0,0.061-0.061,0.121-0.061c0.302-0.241,0.604-0.483,0.906-0.665c1.329-0.726,2.599-1.45,3.928-2.175
		c0.061-0.061,0.182,0,0.303,0c0.181,0,0.423,0,0.543-0.061c0.786-0.363,1.512-0.785,2.236-1.208c-0.182-0.062,0-0.122-0.604-0.182
		v-0.122c0.604-0.12,0.785-0.181,1.148-0.302l-0.122-0.12c1.572-1.571,3.566-2.719,5.076-4.049c0.302,0.061,0.424,0.12,0.604,0.12
		c0.061-0.181,0.061-0.362,0.061-0.482c0.241-0.303,0.484-0.665,0.786-0.906c1.328-1.209,2.779-2.236,3.987-3.506
		c1.752-1.752,3.445-3.564,5.016-5.437c1.451-1.692,2.901-3.385,4.109-5.258c1.691-2.599,3.142-5.257,4.651-7.977
		c1.089-1.934,2.056-3.867,3.143-5.802c0.122-0.181,0.363-0.422,0.544-0.422c1.632-0.182,3.264-0.303,4.835-0.483
		c0.362-0.061,0.785-0.302,1.147-0.483c-0.182-0.303-0.302-0.666-0.483-0.968c-0.241-0.362-0.604-0.665-0.847-1.026
		c-0.24-0.302-0.422-0.665-0.604-1.027c-0.182-0.302-0.361-0.544-0.543-0.847c-0.363-0.664-0.726-1.329-1.028-2.054
		c-0.06-0.182-0.181-0.483-0.12-0.665c1.087-2.355,1.51-4.895,2.537-7.25c1.028-2.418,1.33-5.138,1.813-7.735
		c0.423-2.478,0.664-4.955,0.967-7.433c0.182-1.753,0.423-3.445,0.483-5.197C217.612,128.3,217.492,125.702,217.431,123.104
		L217.431,123.104L217.431,123.104z M65.52,190.539c-0.422-0.483-0.785-1.027-1.208-1.511l0.181-0.182
		c0.665,0.726,1.33,1.45,1.994,2.236C66.125,190.902,65.702,190.78,65.52,190.539L65.52,190.539L65.52,190.539z M66.486,191.083
		c0.182-0.061,0.363-0.061,0.544-0.121c0.181,0.302,0.302,0.665,0.483,1.027C66.668,191.929,66.245,191.565,66.486,191.083
		L66.486,191.083L66.486,191.083z M129.329,216.038v-0.18c1.148-0.122,2.236-0.243,3.385-0.363v0.182
		C131.565,215.858,130.478,215.979,129.329,216.038L129.329,216.038L129.329,216.038z M144.558,214.468
		c-0.847,0.182-1.753,0.302-2.6,0.423c-0.302,0.061-0.663,0.362-0.784-0.181c-0.121,0.06-0.242,0.06-0.362,0.12
		c0.302,0.906,1.026,0.182,1.63,0.545c-1.328,0.181-2.598,0.302-3.865,0.483v-0.122c0.361-0.06,0.785-0.121,1.147-0.181v-0.181
		c-0.605-0.062-1.209-0.122-1.813-0.122c-0.182,0-0.423,0.242-0.604,0.303c-0.243,0.06-0.484,0.121-0.786,0.121
		c-1.027,0.06-2.054,0.06-3.021,0.121c-0.061,0-0.182-0.062-0.242-0.062v-0.181c4.049-0.544,8.037-1.088,12.085-1.632
		c0.061,0.121,0.061,0.242,0.121,0.362C145.101,214.286,144.859,214.408,144.558,214.468L144.558,214.468L144.558,214.468z
		 M145.464,213.863c1.389-0.181,2.659-0.303,3.988-0.482C146.673,214.166,145.766,214.286,145.464,213.863L145.464,213.863
		L145.464,213.863z M92.833,91.863c1.934-2.659,3.928-5.317,5.861-8.037c0.604-0.785,1.087-1.631,1.692-2.417
		c0.181-0.242,0.422-0.363,0.725-0.604l-0.061-0.121c0.242-0.302,0.483-0.544,0.604-0.786c0.302-0.483,0.484-1.027,0.725-1.571
		c0.061-0.121,0.242-0.241,0.242-0.241c0.846,0.422,0.846-0.484,1.148-0.786c0.544-0.604,1.088-1.269,1.571-1.873
		c0.362-0.483,0.725-0.906,1.027-1.45c0.06-0.181-0.121-0.483-0.181-0.725h-0.181c0.181-0.121,0.362-0.302,0.543-0.423
		c0.061,0,0.061,0,0.121-0.06c0.363-0.544,0.726-1.088,1.088-1.571c0.725-0.967,1.51-1.934,2.356-2.78
		c-0.121,0.302-0.242,0.605-0.362,0.846c0.06,0,0.06,0.061,0.12,0.061c0.725-0.967,1.511-1.874,2.236-2.84
		c-0.061-0.061-0.121-0.121-0.181-0.121c-0.302,0.302-0.544,0.604-0.846,0.906c-0.061-0.06-0.121-0.12-0.182-0.12
		c0.605-0.786,1.209-1.571,1.813-2.478c0.121,0.182,0.242,0.423,0.483,0.907c0.242-0.605,0.484-1.028,0.665-1.45
		c-0.181,0.181-0.423,0.362-0.604,0.543l-0.182-0.181l1.087-1.631c1.148-1.632,2.296-3.323,3.445-4.955
		c0.423-0.604,0.967-1.087,1.329-1.692c1.148-2.296,2.961-4.109,4.351-6.224c0.303-0.422,0.725-0.786,1.088-1.148
		c0.302-0.362,0.544-0.241,0.786,0.061c1.631,2.054,3.263,4.169,4.894,6.224c1.209,1.511,2.417,2.961,3.565,4.532
		c1.39,1.934,2.72,3.867,4.108,5.801c1.572,2.236,3.143,4.472,4.653,6.768c2.296,3.383,4.471,6.768,6.769,10.151
		c1.691,2.478,3.384,4.895,5.015,7.373h-3.082c-2.84-0.061-5.74-0.303-8.58-0.182c-3.867,0.182-7.795,0.604-11.662,0.906
		c-4.895,0.423-9.85,0.483-14.744,0.483c-1.752,0-3.505,0.242-5.257,0.362c-2.115,0.122-4.169,0.242-6.284,0.303
		c-2.478,0.12-4.895,0.181-7.372,0.241C95.793,91.924,94.343,91.863,92.833,91.863L92.833,91.863L92.833,91.863z M162.142,119.659
		v0.544c-0.061,0-0.122,0.06-0.242,0.06c-0.241-0.846-0.483-1.752-0.785-2.598c-0.604-1.752-1.27-3.504-2.356-5.076
		c-1.209-1.692-2.296-3.444-3.505-5.197c-0.303-0.423-0.726-0.786-1.088-1.148c-1.269-1.39-2.538-2.84-4.17-3.868
		c-2.417-1.51-4.895-2.779-7.554-3.867c-0.725-0.302-1.389-0.664-2.113-1.087h1.45l10.332-0.181
		c2.236-0.061,4.411-0.061,6.647-0.182c0.544,0,0.847,0.182,1.148,0.665c0.543,0.906,1.087,1.813,1.691,2.719
		c0.061,0.12,0.182,0.302,0.182,0.483c0,1.329,0,2.719,0.06,4.048c0.061,1.39,0.181,2.719,0.242,4.109
		c0,1.389-0.121,2.839-0.062,4.29C162.081,115.43,162.142,117.544,162.142,119.659L162.142,119.659L162.142,119.659z M97.123,99.417
		c2.84-0.121,5.559-0.303,8.339-0.423c2.175-0.121,4.411-0.182,6.586-0.302c0.907-0.061,1.753-0.121,2.659,0
		c-0.967,0.483-1.934,0.966-2.779,1.571c-1.088,0.725-2.115,1.692-3.203,2.478c-1.087,0.785-2.055,1.752-2.96,2.779
		c-1.148,1.39-2.417,2.599-3.625,3.928c-0.846,0.967-1.813,1.873-2.538,2.9c-1.027,1.33-1.934,2.78-2.901,4.291
		C97.002,110.897,97.365,105.218,97.123,99.417L97.123,99.417L97.123,99.417z M136.581,157.547
		c-1.935,0.482-3.927,1.026-5.922,1.269c-1.691,0.242-3.444,0.181-5.196,0.181c-1.571,0-3.082-0.061-4.653-0.181
		c-1.752-0.182-3.504-0.363-5.196-1.148c-1.451-0.665-2.96-1.269-4.411-1.993c-1.45-0.726-2.901-1.572-3.988-2.901
		c-0.786-0.967-1.873-1.752-2.84-2.598c0.182,0.725,0.604,1.329,1.269,1.752c-0.302,0.362-0.725,0.181-1.329-0.785
		c-0.181,0.12-0.363,0.181-0.483,0.241c0.182-0.423,0.363-0.846,0.543-1.208c-0.241-0.483-0.543-1.028-0.785-1.511
		c-0.484-0.786-0.967-1.632-1.39-2.417c-0.121-0.182-0.121-0.362-0.242-0.544c-0.302-0.363-0.604-0.726-0.845-1.088
		c-0.484-0.726-0.907-1.511-1.511-2.235c0,0.181,0.06,0.362,0.06,0.604c-0.06,0-0.121,0.061-0.121,0.061l-1.269-3.081
		c-0.061,0-0.061,0-0.121,0.06l1.088,3.988c-0.061,0-0.121,0.062-0.182,0.062c-0.181-0.242-0.362-0.484-0.483-0.787
		c-0.121-0.482-0.483-0.482-0.786-0.302c-0.181,0.121-0.302,0.544-0.241,0.726c0.423,1.026,0.906,2.054,1.39,3.082
		c0.121,0.362,0.242,0.664,0.423,1.027c0.061,0.121,0.242,0.241,0.242,0.423c0.242,0.483,0.423,0.966,0.725,1.389
		c0.544,0.726,1.148,1.451,1.692,2.176c0.544,0.726,1.027,1.511,1.51,2.235c0.061,0.122,0.242,0.122,0.302,0.182
		c0.303,0.906,1.33,1.571,2.055,1.209c0.181,1.39,1.691,1.874,2.296,3.202c-0.725-0.302-1.269-0.543-1.753-0.785
		c-0.06,0.061-0.06,0.12-0.121,0.242c0.726,0.361,1.451,0.725,2.115,1.147c0.604,0.362,1.209,0.726,1.752,1.148
		c0.726,0.664,1.571,1.026,2.599,1.269c-0.061-0.182-0.121-0.242-0.121-0.242c1.691,0.787,3.444,1.632,4.773,2.297
		c-6.285,0.12-12.992,0.242-19.941,0.362c0-1.148-0.06-2.235-0.06-3.384c0-0.483,0.121-0.906,0.06-1.39
		c-0.181-2.78-0.181-5.56-0.543-8.278c-0.363-2.9-0.363-5.74-0.302-8.641c0.06-1.571-0.061-3.202-0.121-4.774
		c0-2.114,0-4.169,0.061-6.284c0-0.302,0.121-0.544,0.242-0.846h0.181c0.06,0.121,0,0.302,0.121,0.362
		c0.181,0.182,0.483,0.483,0.604,0.423c0.363-0.241,0.906-0.483,1.027-0.846c0.302-0.725,0.423-1.511,0.423-2.236
		c0-0.543,0.242-0.906,0.483-1.269c0.121-0.181,0.182-0.362,0.303-0.604c-0.242-0.181-0.484-0.302-0.786-0.543
		c0.242-0.665,0.181-1.451,1.088-1.813c0.121-0.061,0.121-0.363,0.181-0.543c0.06-0.483,0.121-1.027,0.181-1.511
		c0.121,0.181,0.181,0.242,0.302,0.362c0.061-0.121,0.121-0.181,0.121-0.181c0-0.242-0.06-0.725,0-0.725
		c0.725-0.121,0.423-0.906,0.786-1.269c0.06-0.06-0.061-0.242-0.061-0.362s0-0.303,0.061-0.303c0.845-0.181,0.725-1.087,1.268-1.51
		c0.182-0.122,0.242-0.302,0.484-0.604c0.483,0.846-0.363,1.269-0.423,1.874c1.027-0.604,1.33-2.055,0.725-2.478
		c0.242-0.182,0.483-0.423,0.665-0.665c0.665-0.725,1.39-1.39,1.994-2.115c0.423-0.543,0.665-1.208,1.088-1.752
		c0.242-0.302,0.725-0.544,1.087-0.725c1.088-0.604,2.115-1.269,2.78-2.296c0.121-0.121,0.302-0.242,0.483-0.362
		c0.181-0.121,0.543-0.121,0.604-0.302c0.061-0.121-0.121-0.423-0.242-0.604c0.242-0.121,0.483-0.362,0.967-0.604
		c-0.181,0.363-0.241,0.604-0.362,0.847l0.302,0.302c0.544-0.423,1.39-0.906,1.933-1.269c0-0.06-0.302-0.302-0.302-0.302
		c-0.362,0.182-0.906,0.483-1.451,0.725c0.121-0.181,0.121-0.302,0.182-0.362c0.846-0.544,1.692-1.087,2.598-1.511
		c2.115-0.967,4.23-1.933,6.345-2.84c0.363-0.181,0.846-0.06,1.269-0.06c0.181,0,0.302,0,0.484-0.06
		c0.966-0.302,1.933-0.604,2.9-0.846c0.423-0.121,0.906-0.181,1.33-0.181c1.813,0.06,3.624,0.06,5.438,0.181
		c0.785,0.061,1.51,0.242,2.235,0.483c0.906,0.302,1.873,0.725,2.719,1.148c1.027,0.544,1.994,1.148,2.961,1.813
		c1.753,1.148,3.384,2.417,5.136,3.444c1.692,1.027,3.021,2.417,4.109,3.988c1.329,1.873,2.841,3.565,3.444,5.861l0.907,3.988
		c0.18,0.725,0.604,1.451,0.423,2.296c-0.303,1.511-0.545,3.082-0.786,4.592c-0.12,0.604-0.242,1.208-0.182,1.813
		c0.121,1.873-0.604,3.505-1.329,5.196c-0.241,0.545-0.604,1.088-0.906,1.692c0.061,0.061,0.423,0.242,0.483,0.242l0.544-1.088
		c0.06,0,0.06,0,0.121,0.061c-0.302,0.846-0.544,1.753-0.846,2.598c-0.726,1.874-1.45,3.808-2.357,5.62
		c-0.483,1.027-1.33,1.874-1.934,2.84c-0.604,0.846-1.087,1.752-1.692,2.538c-0.543,0.665-1.087,1.329-1.812,1.813
		c-1.632,1.208-3.324,2.417-5.076,3.384C139.059,156.882,137.789,157.244,136.581,157.547L136.581,157.547L136.581,157.547z
		 M104.374,154.344l-0.06,0.061c-0.121-0.061-0.302-0.121-0.423-0.241l-1.45-2.176c-0.121-0.182-0.181-0.363-0.121-0.604
		C102.984,152.409,103.648,153.377,104.374,154.344L104.374,154.344L104.374,154.344z M141.958,162.622
		c2.72-1.148,4.956-2.779,7.011-4.653c0.302-0.302,0.604-0.604,0.967-0.845c2.537-1.572,4.411-3.747,6.103-6.164
		c1.935-2.78,3.203-5.923,4.774-8.883c0.12-0.242,0.241-0.483,0.362-0.665c-0.121,6.89,0.664,13.657,1.57,20.484
		C155.918,162.139,148.969,162.381,141.958,162.622L141.958,162.622L141.958,162.622z M203.231,160.81
		c-0.062,0.121-0.182,0.241-0.241,0.362c-0.062-0.121-0.062-0.302-0.122-0.544c-0.362,0.967-1.147,0.483-1.692,0.483
		c-3.262,0.061-6.586,0.061-9.849,0.061c-3.143,0-6.345,0-9.487,0.062c-1.027,0-2.115,0.24-3.143,0.302
		c-2.478,0.12-4.954,0.181-7.432,0.24c-0.182,0-0.362-0.302-0.664-0.542c-0.061,0.12-0.182,0.302-0.363,0.542
		c-0.06-0.12-0.182-0.24-0.303-0.422c-0.06,0.182-0.12,0.362-0.181,0.483h-0.182c-0.12-0.847-0.362-1.632-0.362-2.478
		c0-1.813,0.181-3.626,0.242-5.438c0.061-0.847,0-1.632,0-2.417c0.242,0.182,0.423,0.302,0.664,0.483
		c0.121-0.241,0.241-0.423,0.363-0.604c0,0-0.122-0.061-0.242-0.182c0.12-0.06,0.242-0.181,0.242-0.24
		c0.061-0.182,0.181-0.363,0.181-0.484c0-0.423-0.12-0.785-0.181-1.148c0.061,0,0.121,0,0.181-0.06l0.362,1.813h0.182
		c-0.241-0.424,0.544-0.786-0.121-1.27c-0.061-0.06,0.062-0.423,0.062-0.604c-0.182-0.362-0.303-0.725-0.484-1.208
		c0.061-0.06,0.242-0.121,0.423-0.181c-0.241-0.121-0.423-0.242-0.604-0.304c0.604-0.543,0.604-0.845,0.061-1.449
		c0.12-0.061,0.241-0.061,0.241-0.121c0-0.544,0-1.087-0.121-1.632c-0.12-0.604,0.182-1.329-0.726-1.69
		c0.062,0.181,0.121,0.302,0.243,0.482c0,0-0.182,0.061-0.363,0.181c-0.785-0.725-0.302-1.691-0.483-2.779
		c0.423,0.121,0.725,0.242,1.026,0.362c-0.12-0.422-0.423-0.905-0.604-1.45h-0.241v-3.987c0,0.061,0.422,0.061,0.665,0.12
		c0-0.06,0.06-0.12,0.06-0.181c-0.182-0.242-0.423-0.483-0.665-0.785l0.122-0.122c-0.484-0.604-0.242-1.449-0.242-1.63v-4.231
		c0.604,0.604-0.303,1.391,0.604,1.753v-0.604h-0.06c-0.062-0.906-0.062-1.812-0.121-2.719h-0.121
		c-0.06,0.121-0.06,0.182-0.121,0.302h-0.12c0.12-4.773,0.241-9.547,0.362-14.442c0.604,0.786,1.27,1.511,1.692,2.296
		c1.39,2.538,3.202,4.714,4.895,7.01c1.45,1.994,2.779,4.169,4.108,6.224c1.631,2.478,3.202,4.955,4.834,7.433
		c1.209,1.874,2.478,3.747,3.746,5.559c1.148,1.632,2.357,3.203,3.566,4.774c1.026,1.39,2.113,2.78,3.142,4.169
		c1.209,1.692,2.416,3.384,3.625,5.016c0.604,0.846,1.27,1.692,1.934,2.538c0.362,0.483,0.907,0.847,1.27,1.148
		c-0.061,0-0.121,0-0.242-0.062c0.182,0.242,0.302,0.423,0.423,0.545C203.533,159.902,203.594,160.266,203.231,160.81
		L203.231,160.81L203.231,160.81z M206.313,145.703v-0.423C206.313,145.4,206.373,145.582,206.313,145.703L206.313,145.703
		L206.313,145.703z M208.367,119.055c-0.061,0-0.423-0.363-0.482-0.423c-0.062,0.181,0,0.362-0.122,0.604
		c-0.06-0.182-0.482-0.121-0.482-0.302c-0.061,0.846,0.361,1.692,0.302,2.538c0.181-0.121,0.906-0.182,1.088-0.363
		c0.06,0.061,0.18,0.121,0.241,0.121c-1.208,0.906-0.906,1.813-0.363,2.84c0.122,0.241,0.484,0.725,0.122,1.208
		c-0.122,0.121,0.06,0.484,0.12,0.786h0.182v0.12l-0.544,0.182c-0.121-0.182-0.846-0.544-0.846-0.846v3.081
		c0.604,0.182,0.604,1.027,0.846,1.45c0.12-0.181,0.182-0.302,0.242-0.483l0.06,0.061c-0.06,0.363-0.12,0.726-0.241,1.088
		c-0.121,0.544-0.242,1.027-0.302,1.571c0,0.061,0.12,0.182,0.12,0.241c-0.665,1.512-0.302,3.203-0.544,4.774
		c-0.181,1.148,0,2.356-0.121,3.564c-0.12,1.028-0.361,2.115-0.604,3.143c-0.061,0.182-0.181,0.241-0.483,0.363
		c0.12-0.726,0.061-1.209-0.061-1.874c-0.061,0-0.846-0.423-0.907-0.423c0,0.847,0.483,1.995,0.665,2.96
		c-0.182-0.06-0.906-0.482-0.967-0.482c-0.12,0.726-0.12,1.692-0.181,2.478c-0.061,0.604-0.604,1.147-0.664,1.813
		c0,0.362,0.423,0.604,0.361,1.209h0.483c0-1.209,0.545-2.296,0.545-3.565h0.181c0.06,0.121,0.241,0.241,0.182,0.303
		c-0.122,0.664-0.362,1.389-0.303,2.054c0,0.362,0.303,0.726,0.181,1.148c-0.12,0.362-0.181,0.726-0.24,1.269
		c-0.062-0.302-0.121-0.423-0.121-0.604c-0.061,0-0.604-0.06-0.665-0.06c-0.061,0.362,0.423,0.725,0.363,1.026
		c-0.062,0.062-0.122,0.062-0.242,0.122l-1.995-2.901c-1.57-2.295-3.142-4.593-4.713-6.948c-0.423-0.604-0.785-1.209-1.087-1.813
		c-1.874-3.202-3.928-6.284-6.224-9.245c-1.753-2.236-3.143-4.653-4.774-7.009c-1.51-2.235-3.021-4.412-4.532-6.647
		c-0.544-0.725-1.208-1.39-1.692-2.175c-1.57-2.478-2.96-5.016-4.531-7.493c-1.328-2.055-2.78-4.048-4.169-6.042
		c-0.483-0.665-0.967-1.39-1.45-2.115c-0.062-0.121-0.121-0.242-0.121-0.423c-0.121-1.33-0.242-2.659-0.303-3.928
		c0-1.208,0.122-2.417,0.122-3.687v-1.087c0-0.302,0.06-0.544,0.06-0.846c0.061-0.061,0.121-0.181,0.181-0.242
		c-1.752,0-3.564-0.06-5.316,0c-1.148,0.061-1.752-0.423-2.538-1.269c-2.297-2.599-3.988-5.56-5.982-8.339
		c-1.874-2.659-3.807-5.257-5.74-7.856c-1.571-2.115-3.143-4.169-4.714-6.284c-1.752-2.417-3.443-4.834-5.257-7.251
		c-2.175-2.9-4.411-5.801-6.646-8.701c-1.027-1.33-2.176-2.599-3.324-3.988c0.785,0.121,1.511,0.242,2.237,0.302l2.899,0.181
		c2.175,0.182,4.351,0.302,6.526,0.604c1.813,0.242,3.626,0.604,5.498,0.907c3.989,0.665,7.917,1.752,11.724,3.021
		c2.234,0.726,4.41,1.692,6.586,2.599c4.895,1.994,9.548,4.411,14.14,6.949c1.45,0.786,2.296,2.055,3.385,3.202
		c1.57,1.632,3.142,3.264,4.651,4.956c1.753,1.994,3.385,4.048,5.076,6.103c1.512,1.813,3.082,3.625,4.593,5.438
		c0.483,0.544,0.846,1.208,1.269,1.812c0.968,1.451,2.055,2.84,2.9,4.412c0.604,1.148,0.967,2.477,1.391,3.747
		c0.604,1.873,1.208,3.686,1.813,5.559c0.423,1.39,0.785,2.84,1.088,4.29c0.241,0.967,0.181,1.994,0.482,2.961
		c0.363,1.27,0,2.659,0.363,3.928c0.06,0.121,0.121,0.302,0.182,0.423c0.241,0.242,0.422,0.483,0.061,0.846
		c-0.061,0.06-0.061,0.302,0,0.483c0.12-0.121,0.181-0.242,0.302-0.423c0,0.121,0.06,0.182,0.06,0.242c0,0.242-0.06,0.484,0,0.726
		c0,0.121,0.121,0.302,0.182,0.423c0.121-0.121,0.241-0.181,0.483-0.362c0.543,2.054,0.604,4.108,0.604,6.224
		c0,1.994,0.362,3.987-0.483,5.921C208.609,120.263,208.187,119.659,208.367,119.055L208.367,119.055L208.367,119.055z"/>
	<path fill="#DD3735" d="M169.954,142.752c0.06,0,0.12,0.061,0.12,0.061l-0.061-0.061
		C170.014,142.691,170.014,142.691,169.954,142.752L169.954,142.752L169.954,142.752z M179.5,202.453
		c-0.663,0.483-1.328,0.905-2.175,1.087c-0.06-0.061-0.06-0.121-0.12-0.182c0.665-0.422,1.39-0.846,2.055-1.269
		C179.32,202.211,179.44,202.332,179.5,202.453L179.5,202.453L179.5,202.453z M66.203,120.575c0.664-0.846,1.329-1.692,2.054-2.537
		c0.06,0.06,0.544,0.181,0.604,0.241c-0.664,0.847-1.571,1.994-2.235,2.901C66.504,121.059,66.323,120.636,66.203,120.575
		L66.203,120.575L66.203,120.575z M49.042,150.185c-0.484-1.028-0.967-2.116-1.45-3.143c0.06-0.061,0.483-0.243,0.543-0.243
		c0.665,0.968,0.967,2.116,1.451,3.143C49.585,149.941,49.102,150.185,49.042,150.185L49.042,150.185L49.042,150.185z
		 M64.45,121.179c-0.363,0.544-0.725,1.148-1.088,1.692c-0.06-0.06-0.725,0.242-0.785,0.181c0.362-0.543,1.268-1.51,1.631-2.054
		C64.269,121.059,64.329,121.119,64.45,121.179L64.45,121.179L64.45,121.179z M173.035,204.93c0.061,0,0.061-0.061,0.121-0.061
		c0.423,0.061,0.907,0.121,1.39,0.121C173.761,205.533,173.277,205.474,173.035,204.93L173.035,204.93L173.035,204.93z
		 M64.57,123.717c0.061-0.181,0.182-0.363,0.302-0.544c0.121,0,0.303-0.06,0.303-0.06c0.241-0.423,0.241-0.725,0.483-1.087
		c-0.06-0.061-0.121-0.061-0.181-0.122c-0.363,0.242-0.726,0.544-1.088,0.786c0.121,0.121,0.121,0.181,0.121,0.302
		c-0.483-0.06-0.665,0.181-0.906,0.846c-0.061,0.182-0.363,0.242-0.665,0.483c-0.061,0.121-0.122,0.423-0.242,0.725l0.061,0.061
		c-0.121,0.121-0.302,0.182-0.302,0.182c-0.363,0.362-0.786,0.665-1.148,1.027c-0.061,0.181-0.122,0.363-0.122,0.544
		c0.423-0.423,1.148-1.208,1.692-1.692l0.061,0.061c0.242-0.362,0.423-0.725,0.665-1.087c0.06,0.06,0.06,0.121,0.121,0.181
		c-0.182,0.483-0.363,1.027-0.544,1.511c-0.121,0.06-0.302,0.181-0.302,0.121c-0.242,0.181-0.423,0.422-0.665,0.604l-1.087,0.725
		c-0.604,0.544-1.209,1.027-1.873,1.571c-0.423,0.665-0.846,1.269-1.331,2.055c0.725-0.182,0.907,0.12,0.846,0.725
		c0.846,0.121,0.906-0.544,1.148-1.026c0.061-0.121,0.122-0.363,0.242-0.423c0.544-0.483,1.148-0.907,1.752-1.391
		c0.121-0.121,0.121-0.362,0.121-0.544c0-0.06-0.302-0.06-0.483-0.12c0.543-0.605,1.329-1.632,1.873-2.296
		c0.302-0.182,0.604-0.423,0.604-0.605c-0.061-0.664,0.362-0.846,0.846-1.087C64.631,123.959,64.57,123.777,64.57,123.717
		L64.57,123.717L64.57,123.717z"/>
	<path fill="#DD3735" d="M65.779,123.052c-0.242,0.423-0.483,0.786-0.725,1.209l-0.363-0.182c-0.241,1.39-1.087,2.599-1.934,2.84
		c0.242,0.121,0.483,0.242,0.665,0.181c0.181-0.06,0.302-0.362,0.422-0.543l1.632-2.357l0.543-0.906L65.779,123.052L65.779,123.052z
		 M45.657,149.579c0.302,0,0.604,0.061,0.967,0.061c0-0.241,0.302-0.181,0.302-0.423h0.181c0,0.302,0.061,0.545,0.061,0.847h-1.269
		C45.838,150.002,45.597,149.64,45.657,149.579L45.657,149.579L45.657,149.579z M45.174,146.799
		c-0.181-0.18-0.483-0.361-0.483-0.543c-0.06-0.241,0.121-0.544,0.303-0.846c0.12,0.422,0.181,0.785,0.302,1.209
		C45.234,146.679,45.174,146.739,45.174,146.799L45.174,146.799L45.174,146.799z M46.685,142.933
		c0.242,0.604,0.484,1.27,0.725,1.873c-0.061,0-0.423,0.182-0.483,0.241c-0.242-0.604-0.544-1.269-0.785-1.873
		C46.201,143.114,46.563,142.933,46.685,142.933L46.685,142.933L46.685,142.933z M181.193,200.7
		c0.302-0.121,0.664-0.182,1.147-0.303c-0.543,0.423-0.967,0.726-1.328,1.088c-0.062-0.061-0.122-0.121-0.182-0.121
		C180.951,201.123,181.072,200.941,181.193,200.7L181.193,200.7L181.193,200.7z M106.93,73.02c0.362-0.242,0.664-0.423,1.027-0.665
		l0.121,0.121c-0.363,0.484-0.665,0.967-1.087,1.571c-0.061-0.423-0.061-0.665-0.122-0.967
		C106.809,73.08,106.869,73.08,106.93,73.02L106.93,73.02L106.93,73.02z M124.634,103.595c0.544-0.241,1.088-0.483,1.753-0.785
		c-0.061,0.362-0.061,0.604-0.061,0.846c-0.181-0.061-0.423-0.122-0.604-0.122c-0.362,0.061-1.027,0.544-1.33,0.604
		C124.332,104.139,124.634,103.656,124.634,103.595L124.634,103.595L124.634,103.595z M169.954,154.836
		c0.12,0.605,1.27,0.907,0.12,1.511c0.182,0.121,0.362,0.182,0.545,0.303c0,0.061-0.062,0.182-0.121,0.241
		c-0.121,0.061-0.363,0.183-0.484,0.121c-0.06,0-0.181-0.242-0.181-0.362C169.833,156.105,169.894,155.562,169.954,154.836
		L169.954,154.836L169.954,154.836z"/>
</g>
</svg>
