<?xml version="1.0" encoding="utf-8"?>
<!-- Generator: Adobe Illustrator 16.0.3, SVG Export Plug-In . SVG Version: 6.00 Build 0)  -->
<!DOCTYPE svg PUBLIC "-//W3C//DTD SVG 1.1//EN" "http://www.w3.org/Graphics/SVG/1.1/DTD/svg11.dtd">
<svg version="1.1" id="Ebene_1" xmlns="http://www.w3.org/2000/svg" xmlns:xlink="http://www.w3.org/1999/xlink" x="0px" y="0px"
	 width="256px" height="256px" viewBox="0 -14 256 256" enable-background="new 0 -14 256 256" xml:space="preserve">
<g>
	<path fill="#00D8FF" d="M206.939,75.545c-2.541-0.875-5.175-1.702-7.888-2.485c0.446-1.819,0.855-3.614,1.219-5.379
		c5.971-28.98,2.067-52.326-11.262-60.013c-12.781-7.371-33.685,0.314-54.795,18.686c-2.03,1.767-4.066,3.637-6.1,5.598
		c-1.356-1.297-2.709-2.551-4.06-3.749C101.929,8.558,79.753,0.279,66.437,7.988c-12.769,7.392-16.55,29.34-11.176,56.804
		c0.519,2.653,1.125,5.362,1.812,8.116c-3.138,0.891-6.168,1.841-9.067,2.852C22.065,84.803,5.5,98.976,5.5,113.677
		c0,15.183,17.783,30.413,44.8,39.648c2.132,0.729,4.344,1.417,6.624,2.07c-0.74,2.979-1.383,5.899-1.924,8.746
		c-5.124,26.988-1.123,48.417,11.613,55.763c13.153,7.585,35.229-0.212,56.727-19.003c1.698-1.483,3.404-3.06,5.112-4.71
		c2.213,2.131,4.425,4.149,6.624,6.042c20.821,17.917,41.388,25.153,54.109,17.787c13.142-7.606,17.411-30.628,11.867-58.636
		c-0.423-2.139-0.915-4.323-1.469-6.548c1.55-0.458,3.072-0.932,4.556-1.423c28.087-9.307,46.361-24.351,46.361-39.737
		C250.5,98.923,233.4,84.654,206.939,75.545L206.939,75.545z M200.848,143.479c-1.34,0.444-2.715,0.872-4.115,1.288
		c-3.101-9.816-7.286-20.254-12.406-31.039c4.887-10.527,8.909-20.832,11.924-30.584c2.506,0.725,4.938,1.49,7.282,2.297
		c22.672,7.805,36.502,19.345,36.502,28.236C240.034,123.148,225.098,135.443,200.848,143.479L200.848,143.479z M190.784,163.419
		c2.453,12.384,2.803,23.581,1.178,32.335c-1.458,7.864-4.393,13.108-8.021,15.21c-7.721,4.468-24.232-1.341-42.039-16.664
		c-2.041-1.757-4.098-3.633-6.161-5.618c6.904-7.55,13.804-16.327,20.537-26.075c11.844-1.052,23.034-2.77,33.182-5.115
		C189.958,159.508,190.402,161.484,190.784,163.419L190.784,163.419z M89.026,210.19c-7.544,2.665-13.552,2.74-17.184,0.646
		c-7.729-4.457-10.941-21.663-6.559-44.743c0.502-2.644,1.1-5.357,1.788-8.133c10.037,2.219,21.145,3.815,33.017,4.778
		c6.779,9.538,13.878,18.306,21.032,25.982c-1.563,1.51-3.12,2.946-4.668,4.3C106.947,201.331,97.421,207.226,89.026,210.19
		L89.026,210.19z M53.685,143.421c-11.946-4.083-21.812-9.39-28.575-15.181c-6.076-5.204-9.145-10.37-9.145-14.563
		c0-8.921,13.301-20.3,35.483-28.034c2.691-0.939,5.509-1.823,8.433-2.654c3.066,9.973,7.088,20.399,11.941,30.943
		c-4.916,10.701-8.995,21.293-12.091,31.382C57.648,144.715,55.628,144.084,53.685,143.421L53.685,143.421z M65.532,62.782
		c-4.604-23.531-1.546-41.282,6.149-45.736c8.196-4.745,26.32,2.021,45.423,18.983c1.221,1.084,2.447,2.219,3.676,3.393
		c-7.119,7.644-14.152,16.345-20.871,25.828c-11.522,1.068-22.552,2.784-32.693,5.081C66.579,67.766,66.014,65.246,65.532,62.782
		L65.532,62.782z M171.214,88.877c-2.424-4.187-4.914-8.276-7.45-12.252c7.816,0.988,15.307,2.3,22.34,3.906
		c-2.111,6.767-4.743,13.843-7.842,21.096C176.039,97.408,173.688,93.154,171.214,88.877L171.214,88.877z M128.117,46.901
		c4.828,5.23,9.663,11.069,14.418,17.405c-4.793-0.227-9.644-0.345-14.535-0.345c-4.845,0-9.661,0.116-14.423,0.338
		C118.337,58.023,123.214,52.192,128.117,46.901L128.117,46.901z M84.744,88.95c-2.421,4.199-4.729,8.43-6.916,12.669
		c-3.047-7.229-5.655-14.336-7.785-21.2c6.99-1.564,14.445-2.843,22.212-3.813C89.681,80.621,87.172,84.739,84.744,88.95
		L84.744,88.95L84.744,88.95z M92.478,151.495c-8.025-0.896-15.591-2.109-22.58-3.63c2.164-6.986,4.829-14.245,7.941-21.631
		c2.194,4.236,4.51,8.47,6.946,12.677h0C87.268,143.199,89.839,147.399,92.478,151.495L92.478,151.495z M128.407,181.191
		c-4.961-5.352-9.909-11.272-14.741-17.641c4.691,0.184,9.474,0.277,14.334,0.277c4.993,0,9.93-0.112,14.789-0.329
		C138.019,169.983,133.202,175.912,128.407,181.191L128.407,181.191z M178.362,125.858c3.274,7.464,6.035,14.686,8.226,21.553
		c-7.103,1.62-14.771,2.926-22.854,3.895c2.543-4.029,5.055-8.188,7.521-12.465C173.752,134.513,176.121,130.178,178.362,125.858
		L178.362,125.858z M162.189,133.611c-3.83,6.641-7.762,12.979-11.754,18.963c-7.269,0.521-14.78,0.788-22.436,0.788
		c-7.625,0-15.041-0.237-22.182-0.701c-4.153-6.062-8.17-12.419-11.975-18.993h0.001c-3.795-6.555-7.289-13.166-10.454-19.739
		c3.164-6.589,6.648-13.208,10.422-19.751l-0.001,0.001c3.784-6.562,7.766-12.888,11.879-18.913
		c7.286-0.551,14.758-0.838,22.309-0.838h0c7.585,0,15.065,0.289,22.35,0.845c4.052,5.98,8.007,12.287,11.806,18.849
		c3.842,6.636,7.371,13.21,10.562,19.658C169.535,120.338,166.014,126.979,162.189,133.611L162.189,133.611z M183.78,16.735
		c8.204,4.731,11.396,23.812,6.24,48.833c-0.329,1.597-0.699,3.223-1.102,4.871c-10.164-2.346-21.202-4.091-32.758-5.175
		c-6.732-9.587-13.708-18.302-20.711-25.848c1.883-1.811,3.763-3.538,5.634-5.167C159.173,18.508,176.078,12.293,183.78,16.735
		L183.78,16.735z M128,91.8c12.082,0,21.877,9.794,21.877,21.877c0,12.083-9.795,21.877-21.877,21.877
		c-12.083,0-21.877-9.795-21.877-21.877C106.123,101.594,115.917,91.8,128,91.8L128,91.8z"/>
</g>
</svg>
