<?xml version="1.0" encoding="utf-8"?>
<!-- Generator: Adobe Illustrator 16.0.3, SVG Export Plug-In . SVG Version: 6.00 Build 0)  -->
<!DOCTYPE svg PUBLIC "-//W3C//DTD SVG 1.1//EN" "http://www.w3.org/Graphics/SVG/1.1/DTD/svg11.dtd">
<svg version="1.1" id="Ebene_1" xmlns="http://www.w3.org/2000/svg" xmlns:xlink="http://www.w3.org/1999/xlink" x="0px" y="0px"
	 width="256px" height="256px" viewBox="0 8 256 256" enable-background="new 0 8 256 256" xml:space="preserve">
<g>
	<path fill="#E23237" d="M58.6,86.998l68.085-24.258l69.918,23.827l-11.32,90.08L126.685,209.1l-57.681-32.021L58.6,86.998z"/>
	<path fill="#B52E31" d="M196.604,86.566l-69.917-23.827v146.358l58.598-32.397L196.604,86.566L196.604,86.566z"/>
	<path fill="#FFFFFF" d="M126.793,79.828L126.793,79.828l-42.426,94.393l15.849-0.27l8.518-21.294h18.113h0.054h19.891l9.327,21.563
		l15.148,0.27L126.793,79.828L126.793,79.828z M126.901,110.07l14.339,29.973h-13.747h-0.701h-12.507L126.901,110.07L126.901,110.07
		z"/>
</g>
</svg>
