<?xml version="1.0" encoding="utf-8"?>
<!-- Generator: Adobe Illustrator 16.0.3, SVG Export Plug-In . SVG Version: 6.00 Build 0)  -->
<!DOCTYPE svg PUBLIC "-//W3C//DTD SVG 1.1//EN" "http://www.w3.org/Graphics/SVG/1.1/DTD/svg11.dtd">
<svg version="1.1" id="Ebene_1" xmlns="http://www.w3.org/2000/svg" xmlns:xlink="http://www.w3.org/1999/xlink" x="0px" y="0px"
	 width="256px" height="256px" viewBox="0 -78 256 256" enable-background="new 0 -78 256 256" xml:space="preserve">
<g>
	<g>
		<g>
			<path fill="#FF9900" d="M65.079,79.739l-9.958-3.572V61.57l9.958,3.394V79.739"/>
			<path fill="#FF9900" d="M66.905,79.739l9.958-3.572V61.57l-9.958,3.394V79.739"/>
			<path fill="#FF9900" d="M56.144,60.479l10.079-2.837l9.345,3.014l-9.345,3.173L56.144,60.479"/>
			<path fill="#FF9900" d="M53.223,59.349l-9.958-3.572V41.18l9.958,3.393V59.349"/>
			<path fill="#FF9900" d="M55.049,59.349l9.959-3.572V41.18l-9.959,3.393V59.349"/>
			<path fill="#FF9900" d="M44.288,40.087l10.079-2.836l9.345,3.013l-9.345,3.173L44.288,40.087"/>
			<path fill="#FF9900" d="M76.459,59.349L66.5,55.776V41.18l9.959,3.393V59.349"/>
			<path fill="#FF9900" d="M78.285,59.349l9.959-3.572V41.18l-9.959,3.393V59.349"/>
			<path fill="#FF9900" d="M67.525,40.087l10.078-2.836l9.345,3.013l-9.345,3.173L67.525,40.087"/>
			<path fill="#FF9900" d="M88.315,38.957l-9.958-3.572V20.789l9.958,3.392V38.957"/>
			<path fill="#FF9900" d="M90.141,38.957l9.958-3.572V20.789l-9.958,3.392V38.957"/>
			<path fill="#FF9900" d="M79.38,19.697l10.079-2.837l9.345,3.013l-9.345,3.173L79.38,19.697"/>
			<path fill="#FF9900" d="M111.551,38.957l-9.958-3.572V20.789l9.958,3.392V38.957"/>
			<path fill="#FF9900" d="M113.377,38.957l9.958-3.572V20.789l-9.958,3.392V38.957"/>
			<path fill="#FF9900" d="M102.616,19.697l10.079-2.837l9.345,3.013l-9.345,3.173L102.616,19.697"/>
			<path d="M106.485,70.23l-3.345,11.621h-1.454l-2.604-8.631l-2.388,8.631h-1.482L91.735,70.23h1.797l2.532,8.66l2.411-8.66h1.326
				l2.62,8.688l2.603-8.688H106.485L106.485,70.23z"/>
			<path stroke="#000000" d="M106.485,70.23l-3.345,11.621h-1.454l-2.604-8.631l-2.388,8.631h-1.482L91.735,70.23h1.797l2.532,8.66
				l2.411-8.66h1.326l2.62,8.688l2.603-8.688H106.485L106.485,70.23z"/>
			<path d="M115.739,78.386l1.684,0.345c-0.307,0.994-0.904,1.817-1.791,2.468c-0.889,0.651-1.934,0.977-3.136,0.977
				c-1.585,0-2.868-0.558-3.848-1.676c-0.98-1.117-1.47-2.582-1.47-4.394c0-1.852,0.509-3.346,1.527-4.486
				c1.019-1.141,2.297-1.711,3.837-1.711c1.517,0,2.736,0.524,3.658,1.575c0.923,1.051,1.396,2.621,1.419,4.713h-8.435
				c0,1.758,0.367,2.941,1.102,3.557c0.734,0.613,1.511,0.92,2.33,0.92C114.094,80.673,115.134,79.91,115.739,78.386L115.739,78.386
				z M115.641,74.849c-0.016-0.651-0.122-1.23-0.322-1.736c-0.199-0.506-0.536-0.938-1.01-1.294s-1.045-0.534-1.71-0.534
				c-0.896,0-1.655,0.322-2.279,0.966c-0.624,0.645-0.974,1.51-1.05,2.599H115.641L115.641,74.849z"/>
			<path stroke="#000000" d="M115.739,78.386l1.684,0.345c-0.307,0.994-0.904,1.817-1.791,2.468
				c-0.889,0.651-1.934,0.977-3.136,0.977c-1.585,0-2.868-0.558-3.848-1.676c-0.98-1.117-1.47-2.582-1.47-4.394
				c0-1.852,0.509-3.346,1.527-4.486c1.019-1.141,2.297-1.711,3.837-1.711c1.517,0,2.736,0.524,3.658,1.575
				c0.923,1.051,1.396,2.621,1.419,4.713h-8.435c0,1.758,0.367,2.941,1.102,3.557c0.734,0.613,1.511,0.92,2.33,0.92
				C114.094,80.673,115.134,79.91,115.739,78.386L115.739,78.386z M115.641,74.849c-0.016-0.651-0.122-1.23-0.322-1.736
				c-0.199-0.506-0.536-0.938-1.01-1.294s-1.045-0.534-1.71-0.534c-0.896,0-1.655,0.322-2.279,0.966
				c-0.624,0.645-0.974,1.51-1.05,2.599H115.641L115.641,74.849z"/>
			<path d="M120.868,81.852h-0.87v-15.69h1.811v6.007c0.826-1.507,1.965-2.26,3.419-2.26c1.331,0,2.446,0.526,3.345,1.578
				c0.898,1.053,1.349,2.58,1.349,4.584c0,1.728-0.442,3.177-1.326,4.348c-0.885,1.171-2.036,1.757-3.452,1.757
				c-1.578,0-2.787-0.749-3.629-2.246L120.868,81.852L120.868,81.852z M121.809,77.296c0.084,1.193,0.45,2.059,1.097,2.598
				c0.647,0.538,1.332,0.808,2.051,0.808c0.92,0,1.661-0.399,2.224-1.197c0.563-0.799,0.844-1.893,0.844-3.281
				c0-1.496-0.271-2.672-0.815-3.529c-0.544-0.854-1.299-1.283-2.264-1.283c-0.759,0-1.443,0.305-2.052,0.914
				c-0.609,0.609-0.971,1.396-1.085,2.361V77.296L121.809,77.296z"/>
			<path stroke="#000000" d="M120.868,81.852h-0.87v-15.69h1.811v6.007c0.826-1.507,1.965-2.26,3.419-2.26
				c1.331,0,2.446,0.526,3.345,1.578c0.898,1.053,1.349,2.58,1.349,4.584c0,1.728-0.442,3.177-1.326,4.348
				c-0.885,1.171-2.036,1.757-3.452,1.757c-1.578,0-2.787-0.749-3.629-2.246L120.868,81.852L120.868,81.852z M121.809,77.296
				c0.084,1.193,0.45,2.059,1.097,2.598c0.647,0.538,1.332,0.808,2.051,0.808c0.92,0,1.661-0.399,2.224-1.197
				c0.563-0.799,0.844-1.893,0.844-3.281c0-1.496-0.271-2.672-0.815-3.529c-0.544-0.854-1.299-1.283-2.264-1.283
				c-0.759,0-1.443,0.305-2.052,0.914c-0.609,0.609-0.971,1.396-1.085,2.361V77.296L121.809,77.296z"/>
			<path d="M134.534,78.84l1.727-0.356c0.383,1.46,1.596,2.189,3.637,2.189c0.751,0,1.389-0.168,1.91-0.504
				c0.521-0.337,0.782-0.812,0.782-1.424c0-0.909-0.664-1.487-1.992-1.732l-2.447-0.466c-0.959-0.184-1.721-0.544-2.289-1.081
				c-0.566-0.537-0.851-1.246-0.851-2.129c0-0.974,0.387-1.789,1.162-2.444c0.773-0.656,1.815-0.984,3.126-0.984
				c2.521,0,4.076,0.985,4.667,2.955l-1.656,0.357c-0.476-1.207-1.451-1.811-2.929-1.811c-0.736,0-1.34,0.15-1.811,0.452
				c-0.472,0.302-0.706,0.723-0.706,1.265c0,0.854,0.603,1.393,1.805,1.614l2.263,0.416c2.369,0.43,3.553,1.578,3.553,3.445
				c0,1.067-0.44,1.93-1.323,2.587c-0.881,0.657-2.055,0.985-3.52,0.985C136.889,82.175,135.186,81.063,134.534,78.84L134.534,78.84
				z"/>
			<path stroke="#000000" d="M134.534,78.84l1.727-0.356c0.383,1.46,1.596,2.189,3.637,2.189c0.751,0,1.389-0.168,1.91-0.504
				c0.521-0.337,0.782-0.812,0.782-1.424c0-0.909-0.664-1.487-1.992-1.732l-2.447-0.466c-0.959-0.184-1.721-0.544-2.289-1.081
				c-0.566-0.537-0.851-1.246-0.851-2.129c0-0.974,0.387-1.789,1.162-2.444c0.773-0.656,1.815-0.984,3.126-0.984
				c2.521,0,4.076,0.985,4.667,2.955l-1.656,0.357c-0.476-1.207-1.451-1.811-2.929-1.811c-0.736,0-1.34,0.15-1.811,0.452
				c-0.472,0.302-0.706,0.723-0.706,1.265c0,0.854,0.603,1.393,1.805,1.614l2.263,0.416c2.369,0.43,3.553,1.578,3.553,3.445
				c0,1.067-0.44,1.93-1.323,2.587c-0.881,0.657-2.055,0.985-3.52,0.985C136.889,82.175,135.186,81.063,134.534,78.84L134.534,78.84
				z"/>
			<path d="M154.112,78.386l1.685,0.345c-0.306,0.994-0.903,1.817-1.793,2.468c-0.887,0.651-1.932,0.977-3.135,0.977
				c-1.585,0-2.868-0.558-3.847-1.676c-0.981-1.117-1.471-2.582-1.471-4.394c0-1.852,0.509-3.346,1.528-4.486
				c1.018-1.141,2.297-1.711,3.837-1.711c1.515,0,2.735,0.524,3.657,1.575c0.924,1.051,1.396,2.621,1.418,4.713h-8.435
				c0,1.758,0.369,2.941,1.103,3.557c0.735,0.613,1.512,0.92,2.331,0.92C152.468,80.673,153.509,79.91,154.112,78.386
				L154.112,78.386z M154.015,74.849c-0.016-0.651-0.123-1.23-0.322-1.736s-0.535-0.938-1.009-1.294
				c-0.475-0.356-1.047-0.534-1.711-0.534c-0.896,0-1.656,0.322-2.279,0.966c-0.624,0.645-0.975,1.51-1.051,2.599H154.015
				L154.015,74.849z"/>
			<path stroke="#000000" d="M154.112,78.386l1.685,0.345c-0.306,0.994-0.903,1.817-1.793,2.468
				c-0.887,0.651-1.932,0.977-3.135,0.977c-1.585,0-2.868-0.558-3.847-1.676c-0.981-1.117-1.471-2.582-1.471-4.394
				c0-1.852,0.509-3.346,1.528-4.486c1.018-1.141,2.297-1.711,3.837-1.711c1.515,0,2.735,0.524,3.657,1.575
				c0.924,1.051,1.396,2.621,1.418,4.713h-8.435c0,1.758,0.369,2.941,1.103,3.557c0.735,0.613,1.512,0.92,2.331,0.92
				C152.468,80.673,153.509,79.91,154.112,78.386L154.112,78.386z M154.015,74.849c-0.016-0.651-0.123-1.23-0.322-1.736
				s-0.535-0.938-1.009-1.294c-0.475-0.356-1.047-0.534-1.711-0.534c-0.896,0-1.656,0.322-2.279,0.966
				c-0.624,0.645-0.975,1.51-1.051,2.599H154.015L154.015,74.849z"/>
			<path d="M159.75,81.852h-1.81V70.23h1.586v2.71c0.56-1.27,1.121-2.092,1.684-2.467c0.563-0.377,1.14-0.565,1.729-0.565
				c0.185,0,0.422,0.015,0.713,0.043v1.726h-0.367c-0.994,0-1.821,0.37-2.479,1.109c-0.657,0.738-1.009,1.71-1.056,2.913V81.852
				L159.75,81.852z"/>
			<path stroke="#000000" d="M159.75,81.852h-1.81V70.23h1.586v2.71c0.56-1.27,1.121-2.092,1.684-2.467
				c0.563-0.377,1.14-0.565,1.729-0.565c0.185,0,0.422,0.015,0.713,0.043v1.726h-0.367c-0.994,0-1.821,0.37-2.479,1.109
				c-0.657,0.738-1.009,1.71-1.056,2.913V81.852L159.75,81.852z"/>
			<path d="M174.896,70.23l-4.012,11.621h-1.877l-4.146-11.621h2.004l3.226,9.446l3.2-9.446H174.896L174.896,70.23z"/>
			<path stroke="#000000" d="M174.896,70.23l-4.012,11.621h-1.877l-4.146-11.621h2.004l3.226,9.446l3.2-9.446H174.896L174.896,70.23
				z"/>
			<path d="M176.344,66.161h1.938v2.007h-1.938V66.161z M176.428,70.23h1.811v11.621h-1.811V70.23z"/>
			<path stroke="#000000" d="M176.344,66.161h1.938v2.007h-1.938V66.161z M176.428,70.23h1.811v11.621h-1.811V70.23z"/>
			<path d="M187.696,77.782l1.628,0.287c-0.229,1.283-0.74,2.289-1.529,3.016s-1.773,1.09-2.953,1.09
				c-1.602,0-2.823-0.592-3.662-1.773c-0.839-1.183-1.259-2.626-1.259-4.331c0-1.766,0.443-3.234,1.328-4.405
				s2.09-1.757,3.614-1.757c1.266,0,2.279,0.378,3.041,1.136c0.763,0.756,1.236,1.734,1.42,2.933l-1.628,0.311
				c-0.306-1.918-1.232-2.877-2.779-2.877c-0.996,0-1.762,0.423-2.297,1.27c-0.536,0.848-0.804,1.944-0.804,3.293
				c0,1.486,0.266,2.641,0.798,3.465s1.28,1.235,2.245,1.235C186.353,80.673,187.298,79.71,187.696,77.782L187.696,77.782z"/>
			<path stroke="#000000" d="M187.696,77.782l1.628,0.287c-0.229,1.283-0.74,2.289-1.529,3.016s-1.773,1.09-2.953,1.09
				c-1.602,0-2.823-0.592-3.662-1.773c-0.839-1.183-1.259-2.626-1.259-4.331c0-1.766,0.443-3.234,1.328-4.405
				s2.09-1.757,3.614-1.757c1.266,0,2.279,0.378,3.041,1.136c0.763,0.756,1.236,1.734,1.42,2.933l-1.628,0.311
				c-0.306-1.918-1.232-2.877-2.779-2.877c-0.996,0-1.762,0.423-2.297,1.27c-0.536,0.848-0.804,1.944-0.804,3.293
				c0,1.486,0.266,2.641,0.798,3.465s1.28,1.235,2.245,1.235C186.353,80.673,187.298,79.71,187.696,77.782L187.696,77.782z"/>
			<path d="M199.534,78.386l1.684,0.345c-0.306,0.994-0.903,1.817-1.792,2.468c-0.888,0.651-1.934,0.977-3.135,0.977
				c-1.586,0-2.868-0.558-3.849-1.676c-0.979-1.117-1.47-2.582-1.47-4.394c0-1.852,0.509-3.346,1.528-4.486
				c1.018-1.141,2.297-1.711,3.837-1.711c1.516,0,2.735,0.524,3.658,1.575s1.396,2.621,1.418,4.713h-8.434
				c0,1.758,0.367,2.941,1.102,3.557c0.734,0.613,1.511,0.92,2.33,0.92C197.889,80.673,198.93,79.91,199.534,78.386L199.534,78.386z
				 M199.436,74.849c-0.016-0.651-0.122-1.23-0.321-1.736s-0.535-0.938-1.011-1.294c-0.474-0.356-1.045-0.534-1.71-0.534
				c-0.896,0-1.655,0.322-2.279,0.966c-0.624,0.645-0.975,1.51-1.05,2.599H199.436L199.436,74.849z"/>
			<path stroke="#000000" d="M199.534,78.386l1.684,0.345c-0.306,0.994-0.903,1.817-1.792,2.468
				c-0.888,0.651-1.934,0.977-3.135,0.977c-1.586,0-2.868-0.558-3.849-1.676c-0.979-1.117-1.47-2.582-1.47-4.394
				c0-1.852,0.509-3.346,1.528-4.486c1.018-1.141,2.297-1.711,3.837-1.711c1.516,0,2.735,0.524,3.658,1.575s1.396,2.621,1.418,4.713
				h-8.434c0,1.758,0.367,2.941,1.102,3.557c0.734,0.613,1.511,0.92,2.33,0.92C197.889,80.673,198.93,79.91,199.534,78.386
				L199.534,78.386z M199.436,74.849c-0.016-0.651-0.122-1.23-0.321-1.736s-0.535-0.938-1.011-1.294
				c-0.474-0.356-1.045-0.534-1.71-0.534c-0.896,0-1.655,0.322-2.279,0.966c-0.624,0.645-0.975,1.51-1.05,2.599H199.436
				L199.436,74.849z"/>
			<path d="M202.438,78.84l1.726-0.356c0.385,1.46,1.597,2.189,3.637,2.189c0.752,0,1.389-0.168,1.91-0.504
				c0.521-0.337,0.782-0.812,0.782-1.424c0-0.909-0.663-1.487-1.992-1.732l-2.447-0.466c-0.958-0.184-1.721-0.544-2.288-1.081
				s-0.851-1.246-0.851-2.129c0-0.974,0.386-1.789,1.161-2.444c0.773-0.656,1.815-0.984,3.126-0.984
				c2.521,0,4.076,0.985,4.667,2.955l-1.656,0.357c-0.475-1.207-1.451-1.811-2.929-1.811c-0.736,0-1.339,0.15-1.81,0.452
				s-0.707,0.723-0.707,1.265c0,0.854,0.603,1.393,1.806,1.614l2.263,0.416c2.368,0.43,3.553,1.578,3.553,3.445
				c0,1.067-0.44,1.93-1.322,2.587s-2.057,0.985-3.521,0.985C204.791,82.175,203.089,81.063,202.438,78.84L202.438,78.84z"/>
			<path stroke="#000000" d="M202.438,78.84l1.726-0.356c0.385,1.46,1.597,2.189,3.637,2.189c0.752,0,1.389-0.168,1.91-0.504
				c0.521-0.337,0.782-0.812,0.782-1.424c0-0.909-0.663-1.487-1.992-1.732l-2.447-0.466c-0.958-0.184-1.721-0.544-2.288-1.081
				s-0.851-1.246-0.851-2.129c0-0.974,0.386-1.789,1.161-2.444c0.773-0.656,1.815-0.984,3.126-0.984
				c2.521,0,4.076,0.985,4.667,2.955l-1.656,0.357c-0.475-1.207-1.451-1.811-2.929-1.811c-0.736,0-1.339,0.15-1.81,0.452
				s-0.707,0.723-0.707,1.265c0,0.854,0.603,1.393,1.806,1.614l2.263,0.416c2.368,0.43,3.553,1.578,3.553,3.445
				c0,1.067-0.44,1.93-1.322,2.587s-2.057,0.985-3.521,0.985C204.791,82.175,203.089,81.063,202.438,78.84L202.438,78.84z"/>
			<path d="M161.63,45.395v-2.791c0.002-0.425,0.322-0.708,0.708-0.708l12.511-0.001c0.4,0,0.721,0.291,0.722,0.705l-0.001,2.394
				c-0.003,0.401-0.341,0.925-0.941,1.757l-6.48,9.253c2.405-0.057,4.95,0.304,7.136,1.532c0.493,0.277,0.625,0.688,0.663,1.09
				v2.978c0,0.41-0.449,0.886-0.92,0.639c-3.853-2.017-8.962-2.238-13.22,0.024c-0.435,0.231-0.891-0.236-0.891-0.647v-2.831
				c0-0.452,0.009-1.228,0.466-1.919l7.508-10.771l-6.536-0.001C161.953,46.098,161.633,45.813,161.63,45.395"/>
			<path d="M116.857,62.829h-3.806c-0.362-0.023-0.651-0.296-0.681-0.644l0.002-19.535c0-0.391,0.329-0.704,0.735-0.704l3.544,0
				c0.371,0.019,0.669,0.299,0.692,0.656v2.551h0.071c0.923-2.467,2.665-3.618,5.009-3.618c2.381,0,3.873,1.151,4.939,3.618
				c0.923-2.467,3.02-3.618,5.258-3.618c1.6,0,3.34,0.658,4.406,2.138c1.207,1.644,0.959,4.028,0.959,6.125l-0.004,12.328
				c0,0.391-0.328,0.703-0.732,0.703h-3.803c-0.382-0.024-0.683-0.327-0.683-0.701l-0.002-10.356c0-0.822,0.071-2.877-0.106-3.659
				c-0.284-1.315-1.137-1.686-2.237-1.686c-0.924,0-1.884,0.617-2.275,1.604c-0.391,0.986-0.354,2.63-0.354,3.741v10.354
				c0,0.391-0.329,0.703-0.734,0.703h-3.802c-0.382-0.024-0.683-0.327-0.683-0.701l-0.004-10.356c0-2.179,0.355-5.385-2.345-5.385
				c-2.736,0-2.629,3.124-2.629,5.385l-0.002,10.354C117.591,62.517,117.262,62.829,116.857,62.829"/>
			<path d="M184.761,41.536c5.604,0,8.636,4.851,8.636,11.017c0,5.96-3.349,10.688-8.636,10.688c-5.499,0-8.494-4.851-8.494-10.894
				C176.267,46.263,179.298,41.536,184.761,41.536L184.761,41.536z M184.796,46.026c-2.785,0-2.961,3.823-2.961,6.207
				s-0.035,6.979,2.926,6.979c2.926,0,3.067-3.607,3.067-6.115c0-1.645-0.07-3.618-0.564-5.18
				C186.84,46.56,185.994,46.026,184.796,46.026L184.796,46.026z"/>
			<path d="M201.507,62.829h-3.792c-0.381-0.024-0.683-0.327-0.683-0.701l-0.006-19.542c0.031-0.357,0.348-0.638,0.73-0.638l3.531,0
				c0.332,0.017,0.606,0.244,0.677,0.547v2.988h0.071c1.065-2.672,2.557-3.946,5.187-3.946c1.705,0,3.376,0.617,4.441,2.302
				c0.994,1.562,0.994,4.193,0.994,6.084v12.291c-0.042,0.348-0.353,0.616-0.729,0.616h-3.816c-0.352-0.022-0.636-0.281-0.677-0.616
				V51.607c0-2.138,0.248-5.262-2.381-5.262c-0.925,0-1.776,0.617-2.203,1.562c-0.532,1.192-0.604,2.384-0.604,3.7v10.519
				C202.241,62.517,201.913,62.829,201.507,62.829"/>
			<path d="M152.089,53.5c0,1.483,0.035,2.72-0.713,4.038c-0.604,1.07-1.566,1.729-2.635,1.729c-1.46,0-2.314-1.112-2.314-2.76
				c0-3.241,2.908-3.831,5.662-3.831V53.5L152.089,53.5z M155.926,62.78c-0.253,0.226-0.616,0.241-0.899,0.089
				c-1.264-1.051-1.49-1.537-2.182-2.537c-2.09,2.129-3.569,2.767-6.275,2.767c-3.204,0-5.697-1.978-5.697-5.932
				c0-3.09,1.674-5.191,4.06-6.222c2.064-0.906,4.949-1.071,7.157-1.318v-0.494c0-0.906,0.07-1.978-0.464-2.76
				c-0.462-0.701-1.353-0.989-2.136-0.989c-1.452,0-2.742,0.744-3.059,2.286c-0.066,0.343-0.317,0.682-0.662,0.699l-3.688-0.399
				c-0.313-0.07-0.658-0.32-0.568-0.795c0.848-4.476,4.889-5.828,8.512-5.828c1.852,0,4.272,0.494,5.731,1.896
				c1.853,1.73,1.674,4.037,1.674,6.55v5.93c0,1.783,0.741,2.565,1.438,3.527c0.242,0.346,0.298,0.758-0.014,1.011
				c-0.777,0.651-2.158,1.852-2.918,2.528L155.926,62.78L155.926,62.78z"/>
			<path d="M102.624,53.5c0,1.483,0.036,2.72-0.712,4.038c-0.605,1.07-1.566,1.729-2.635,1.729c-1.459,0-2.314-1.112-2.314-2.76
				c0-3.241,2.908-3.831,5.661-3.831V53.5L102.624,53.5z M106.462,62.78c-0.252,0.226-0.616,0.241-0.899,0.089
				c-1.265-1.051-1.491-1.537-2.182-2.537c-2.089,2.129-3.569,2.767-6.275,2.767c-3.205,0-5.697-1.978-5.697-5.932
				c0-3.09,1.673-5.191,4.06-6.222c2.064-0.906,4.949-1.071,7.156-1.318v-0.494c0-0.906,0.071-1.978-0.462-2.76
				c-0.463-0.701-1.354-0.989-2.137-0.989c-1.452,0-2.742,0.744-3.059,2.286c-0.066,0.343-0.316,0.682-0.662,0.699l-3.689-0.399
				c-0.311-0.07-0.658-0.32-0.567-0.795c0.847-4.476,4.889-5.828,8.511-5.828c1.852,0,4.272,0.494,5.732,1.896
				c1.852,1.73,1.674,4.037,1.674,6.55v5.93c0,1.783,0.741,2.565,1.436,3.527c0.243,0.346,0.298,0.758-0.012,1.011
				c-0.778,0.651-2.159,1.852-2.919,2.528L106.462,62.78L106.462,62.78z"/>
		</g>
	</g>
	<path fill="#FFFFFF" d="M152.089,53.5L152.089,53.5c0,1.483,0.035,2.72-0.713,4.038c-0.604,1.07-1.566,1.729-2.635,1.729
		c-1.46,0-2.314-1.112-2.314-2.76c0-3.241,2.908-3.831,5.662-3.831V53.5"/>
	<path fill="#FFFFFF" d="M102.624,53.5L102.624,53.5c0,1.483,0.036,2.72-0.712,4.038c-0.605,1.07-1.566,1.729-2.635,1.729
		c-1.459,0-2.314-1.112-2.314-2.76c0-3.241,2.908-3.831,5.661-3.831V53.5"/>
</g>
</svg>
