<?xml version="1.0" encoding="utf-8"?>
<!-- Generator: Adobe Illustrator 16.0.3, SVG Export Plug-In . SVG Version: 6.00 Build 0)  -->
<!DOCTYPE svg PUBLIC "-//W3C//DTD SVG 1.1//EN" "http://www.w3.org/Graphics/SVG/1.1/DTD/svg11.dtd">
<svg version="1.1" id="Ebene_1" xmlns="http://www.w3.org/2000/svg" xmlns:xlink="http://www.w3.org/1999/xlink" x="0px" y="0px"
	 width="256px" height="256px" viewBox="128 -28 256 256" enable-background="new 128 -28 256 256" xml:space="preserve">
<g>
	<path d="M300.772,61.108l-0.054-0.516l-0.836,0.071l0.053,0.516L300.772,61.108L300.772,61.108z M306.395,74.632l0.019,0.285
		L307,74.864c-0.018-0.178,0.053-0.463,0.178-0.818l-0.054-0.517C306.875,73.547,306.626,73.92,306.395,74.632L306.395,74.632z
		 M284.453,91.662c-0.035-0.48-1.53-2.349-4.484-5.641c-0.053-0.604,0.961-1.512,3.043-2.704l5.943-5.179
		c1.335-1.69,2.118-4.431,2.35-8.239l-0.071-0.872c-0.231-2.633-2.135-4.751-5.748-6.37c-2.135-1.441-5.979-2.242-11.531-2.385
		c-4.591,0.392-10.587,2.028-17.972,4.929c-2.029,1.459-4.342,2.918-6.939,4.377l0.035,0.445c0.161-0.018,0.41-0.107,0.694-0.303
		c0.303-0.036,0.481,0.107,0.499,0.392l0.445-0.232l0.213-0.018l0.018,0.196c0.018,0.231-1.584,1.495-4.823,3.754l0.25,0.463
		l-0.213,0.018l-0.534-0.195c0.018,0.16-0.213,0.267-0.659,0.302l0.018,0.196l0.516,0.641c-0.16,0.018-0.41-0.053-0.747-0.178
		c-0.748,0.071-1.477,0.462-2.207,1.21l0.302-1.317c1.085-4.68,1.833-8.827,2.225-12.421l-0.054-0.231
		c-0.747-0.48-1.478-1.157-2.153-2.011c0.018-0.551,0.018-0.872,0-0.943l-0.053-0.196l-0.214,0.053
		c-2.348,3.523-6.869,9.538-13.577,18.044c-5.107,6.05-7.741,9.414-7.901,10.09c-2.082,2.153-3.079,3.452-2.972,3.897
		c-0.552,0.356-0.783,0.711-0.694,1.103c-0.16,0.036-0.267-0.017-0.302-0.178c-0.89,1.441-2.207,2.367-3.968,2.776l-1.851,0.428
		c-0.249,0.053-0.374,0.231-0.355,0.533l0.053,0.232l0.694-0.161l0.054,0.196l-1.566,0.605l-2.776,0.641l-1.459,0.089
		c-0.214,0.213,1.157-0.017,0.623,0.107l-1.815,0.427c-1.104,0.249-1.708,0.16-1.815-0.285l-0.214,0.053
		c0.036,0.196,0.053,0.338,0.018,0.462l-0.107-0.445l-1.459,0.338c-0.106-0.675-2.082-3.132-5.908-7.367
		c-0.071-0.818,1.281-2.011,4.04-3.559l7.794-6.852c1.744-2.242,2.775-5.836,3.114-10.784l-0.106-1.157
		c-0.303-3.487-2.83-6.299-7.581-8.47c-2.812-1.904-7.865-2.918-15.161-3.079c-6.05,0.517-13.952,2.669-23.667,6.424
		c-2.669,1.939-5.712,3.861-9.128,5.765l0.053,0.605c0.232-0.018,0.534-0.142,0.908-0.355c0.392-0.036,0.605,0.142,0.641,0.499
		l0.605-0.339l0.303-0.018l0.018,0.285c0.018,0.285-2.1,1.94-6.388,4.965l0.337,0.534l-0.302,0.018l-0.659-0.231
		c0.018,0.178-0.285,0.303-0.907,0.356l0.035,0.32l0.712,0.783c-0.231,0.018-0.552-0.054-0.961-0.196
		c-1.388,0.125-2.74,1.121-4.075,3.007l0.338,0.534c1.157-1.068,1.833-1.602,2.029-1.619l0.071,0.872
		c-0.196,0.018-0.498,0.143-0.907,0.356l0.729,1.104c1.406-1.513,2.954-2.812,4.645-3.897c0.836,0.213,1.281,0.48,1.298,0.765
		l0.641-0.054c4.591-3.399,9.129-5.854,13.631-7.367l0.053,0.604c-0.836,1.246-1.406,1.887-1.708,1.922
		c0.036,0.427,0.178,0.801,0.445,1.122c0.071,0.765-1.975,5.926-6.122,15.463c-9.413,22.173-17.314,38.579-23.738,49.186
		c0.017,0.213,0.142,0.497,0.374,0.854c1.583-0.373,2.58-0.765,3.007-1.139l0.338-0.036l0.054,0.605l0.587-0.054l0.605-0.338
		c0.018,0.178,0.214,0.268,0.623,0.231l0.053,0.605c0.054,0.587-0.284,1.477-0.997,2.704c-0.64,0.729-1.334,2.26-2.064,4.592
		l0.018,0.284l0.587-0.054c2.563-2.864,4.502-5.677,5.837-8.417c7.474-2.188,13.168-4.342,17.119-6.459
		c3.968-0.338,6.993-1.389,9.058-3.114l-0.036-0.32l-1.495,0.445l-0.339,0.035l-0.035-0.32c2.918-0.445,4.929-1.086,6.05-1.976
		c5.677-4.377,9.965-7.474,12.866-9.307c5.961-4.377,9.84-8.648,11.602-12.794c0.32-0.071,0.641-0.143,0.997-0.231
		c0.836-0.035,1.299-0.054,1.423-0.089c-0.036-0.16,0.036-0.249,0.196-0.285c1.334-0.142,0.694,0.089,1.548-0.106l2.242-0.517
		c-0.143,0.036-0.196,0.107-0.16,0.249l0.338-0.213c-0.071,0-0.125-0.018-0.178-0.036l0.374-0.088l-0.178,0.106
		c0.249,0.035,0.516,0.018,0.818-0.054l0.16,0.658l-10.196,16.212l-2.26,2.829l-1.103,3.701l0.214-0.053l1.103-0.463l-0.355,1.441
		l0.107,0.427l0.302,0.373c-0.142,0.036-0.195,0.125-0.16,0.284l0.054,0.232l0.462-0.107c0.676-0.587,0.961-1.12,0.854-1.601
		c0.729,0.124,1.209,0.178,1.459,0.106l0.053,0.23c-0.445,0.107-0.676,0.463-0.712,1.068l0.054,0.231l0.25-0.054
		c3.702-4.039,12.777-17.866,20.055-27.244c-0.231-1.014,3.559-2.42,11.389-4.235l0.249-0.053c0.285,1.228-0.32,4.199-1.815,8.915
		c-0.961,2.848-1.424,4.414-1.353,4.663c-1.246,3.789-1.833,5.836-1.762,6.157l-2.776,9.092c-1.797,4.663-3.167,9.557-4.127,14.717
		c0.16-0.035,0.409-0.018,0.765,0.071l0.391-0.339c0.036,0.161,0.142,0.214,0.302,0.179l-0.16-0.658l1.21-0.036
		c0.356-0.089,0.658-0.534,0.908-1.352c-0.054-1.229,0.196-1.887,0.748-2.029c0.747-2.918,1.21-4.377,1.37-4.431
		c0.693-2.9,1.21-4.556,1.548-4.965c1.05-3.772,1.815-5.712,2.313-5.837l0.106,0.463l-0.765,1.976
		c-1.334,5.925-2.687,10.604-4.057,14.04l0.391,1.708l0.25-0.054c3.31-7.118,8.079-21.211,14.289-42.28
		c0.178-1.851,1.067-3.292,2.651-4.306l-0.356-0.374l-0.053-0.196c0.712-0.16,1.21-0.444,1.494-0.836
		c-0.035-0.161-0.658-0.392-1.868-0.712l3.097-13.275c0.676-0.605,1.067-0.925,1.192-0.925l0.054,0.676
		c-0.161,0.018-0.41,0.106-0.694,0.302l0.587,0.836c1.068-1.157,2.225-2.153,3.488-2.99c0.641,0.178,0.961,0.392,0.997,0.605
		l0.462-0.036c3.523-2.581,6.976-4.431,10.375-5.552l0.035,0.445c-0.622,0.943-1.049,1.424-1.281,1.441
		c0.036,0.32,0.125,0.605,0.285,0.854c0.054,0.587-1.477,4.502-4.609,11.763c-7.153,16.815-13.15,29.254-18.026,37.334
		c0.018,0.159,0.125,0.373,0.32,0.658c1.192-0.285,1.957-0.587,2.26-0.872l0.214-0.019l0.035,0.445l0.499-0.035l0.445-0.231
		c0.017,0.125,0.178,0.178,0.48,0.16l0.036,0.48c0.036,0.427-0.213,1.103-0.765,2.028c-0.516,0.552-1.05,1.708-1.62,3.47
		l0.018,0.231l0.462-0.035c1.94-2.171,3.417-4.307,4.431-6.406c5.676-1.673,10-3.292,12.99-4.894
		c3.042-0.268,5.338-1.05,6.905-2.367l-0.019-0.23l-1.156,0.338l-0.249,0.018l-0.018-0.231c2.206-0.32,3.755-0.818,4.591-1.477
		c4.307-3.311,7.563-5.677,9.77-7.064C281.642,101.075,284.845,96.271,284.453,91.662L284.453,91.662z M283.28,91.964l0.16,1.797
		c-0.214,0.445-0.445,0.676-0.658,0.694l-0.267-3.061C283.012,91.573,283.262,91.751,283.28,91.964L283.28,91.964z M148.537,77.479
		l-0.302,0.018l-0.053-0.551l1.228-0.107l0.018,0.285C149.232,77.142,148.929,77.248,148.537,77.479L148.537,77.479z
		 M142.541,137.466c-0.712-0.32-1.353-0.445-1.904-0.392l-0.071-0.872c-0.035-0.338,0.161-0.569,0.587-0.658
		c0.391-0.035,0.623,0.249,0.658,0.818c1.033-1.264,1.602-1.903,1.708-1.922l0.659,0.268
		C143.964,136.487,143.413,137.395,142.541,137.466L142.541,137.466z M206.62,70.433c-0.303,0.036-0.908-0.907-1.78-2.776
		l-0.053-0.552c0.569-0.053,1.157,0.872,1.779,2.776L206.62,70.433L206.62,70.433z M205.765,63.795l-0.249,0.587l-8.702-3.63
		C202.615,60.948,205.605,61.962,205.765,63.795L205.765,63.795z M169.019,95.346l-1.228,0.106l-0.054-0.552l1.228-0.106
		L169.019,95.346L169.019,95.346z M168.023,76.394l0.302-0.018l0.071,0.872c-0.285,0.018-0.659,0.445-1.121,1.264l-0.054-0.605
		C167.774,77.248,168.058,76.75,168.023,76.394L168.023,76.394z M165.442,82.479l0.107,1.157l-0.303,0.018l-0.106-1.157
		L165.442,82.479L165.442,82.479z M164.09,84.651l0.587-0.054c-0.053,0.961-0.32,1.478-0.8,1.513l-0.303,0.018
		C163.948,85.487,164.126,84.989,164.09,84.651L164.09,84.651z M163.076,87.676l0.338-0.036l0.018,0.285l-0.552,0.926l-0.587,0.053
		l-0.018-0.285C162.862,88.566,163.129,88.263,163.076,87.676L163.076,87.676z M162.079,90.399l-0.178,1.458l-0.303,0.018
		l-0.124-1.441L162.079,90.399L162.079,90.399z M152.096,118.781c-0.391,1.993-0.819,3.008-1.264,3.043l-0.018-0.284
		C150.708,120.561,151.135,119.635,152.096,118.781L152.096,118.781z M150.263,122.749l0.018,0.285
		c0.035,0.392-0.143,0.623-0.534,0.641l-0.018-0.285C149.694,123.052,149.872,122.838,150.263,122.749L150.263,122.749z
		 M149.73,130.988l0.925-0.089l0.035,0.32c-0.231,0.018-0.533,0.143-0.907,0.355l-0.587,0.054
		C149.16,131.327,149.356,131.096,149.73,130.988L149.73,130.988L149.73,130.988z M176.066,122.856
		c-5.196,2.562-8.257,4.307-9.164,5.214c-5.623,1.957-8.417,3.167-8.364,3.647c-5,1.976-8.292,3.435-9.875,4.342
		c-0.374,0.036-0.908-0.106-1.62-0.427c-0.089-1.014,0.374-1.833,1.352-2.491c0.872-0.071,1.708,0.054,2.509,0.392
		c0.926-0.48,2.545-1.015,4.84-1.584l-0.054-0.604l-1.85,0.16c0.231-0.321,2.01-1.157,5.356-2.51l0.925-0.089l0.018,0.285
		c-1.584,0.142-2.456,0.605-2.652,1.441c0.036,0.374,0.249,0.533,0.641,0.498c1.192-0.747,1.78-1.192,1.762-1.317
		c2.26-0.427,8.506-3.701,18.738-9.804l0.054,0.551C178.699,120.827,177.828,121.574,176.066,122.856L176.066,122.856z
		 M160.371,128.017c1.495-0.125,2.776-0.729,3.844-1.779c0.427-0.036,0.658,0.124,0.676,0.498c-0.73,0.071-2.136,0.676-4.182,1.851
		l-0.303,0.018L160.371,128.017L160.371,128.017z M185.693,108.566l-7.847,6.211c-5.837,3.826-8.969,5.748-9.413,5.783
		c-9.289,5.107-15.072,7.759-17.314,7.954l-0.338,0.035c0.285-1.049,4.413-9.502,12.42-25.41c3.523-0.303,9.076-1.939,16.639-4.929
		l1.85-0.16c3.826-0.338,6.69,0.409,8.577,2.189l0.106,1.156C188.949,105.488,187.384,107.873,185.693,108.566L185.693,108.566z
		 M170.354,99.937l1.263-0.107l0.018,0.285l-1.263,0.107L170.354,99.937L170.354,99.937z M188.095,96.929l0.925-0.089
		c0.854,0.409,1.299,0.765,1.334,1.085l0.018,0.285C189.554,98.282,188.789,97.855,188.095,96.929L188.095,96.929z M190.605,82.64
		c-0.819,0.979-3.062,2.651-6.727,5c-1.21,0.107-5.712,1.851-13.506,5.267c-0.392-0.178-0.801-0.249-1.246-0.213l-0.054-0.552
		c-0.089-1.121,0.409-2.526,1.513-4.235c0.605-3.203,1.263-5.036,1.993-5.48l6.495-14.61c-0.071-0.908,1.317-1.602,4.165-2.082
		l0.925-0.089l0.072,0.837c2.793-0.427,4.537-0.676,5.214-0.73c5.16-0.444,7.847,0.605,8.061,3.115l0.587-0.054l-0.125-1.477
		l0.641-0.054c1.512,0.837,2.331,1.851,2.438,3.043c0.071,0.819-0.374,1.833-1.317,3.043c-0.391,0.035-0.623-0.25-0.658-0.819
		l-0.641,0.054l-0.142,1.779c-2.617,3.915-4.521,5.926-5.695,6.032C191.53,81.893,190.871,82.622,190.605,82.64L190.605,82.64z
		 M194.59,92.872c-0.533-0.356-0.961-0.516-1.281-0.499l-0.072-0.872l0.587-0.053l1.299,0.765
		C195.177,92.623,195,92.836,194.59,92.872L194.59,92.872z M198.719,97.765c0.569,0.232,0.908,0.481,0.979,0.712l-0.285,0.071
		l0.018,0.018c-0.054,0-0.125,0.018-0.178,0.036l-0.427,0.338L198.719,97.765L198.719,97.765z M199.11,100.222l-0.053-0.232
		l0.747-0.178l0.053,0.231L199.11,100.222L199.11,100.222z M200.907,102.232c0.765-0.125,1.139-0.178,2.563-0.499l0.053,0.231
		l-2.705,0.623C200.854,102.463,200.889,102.339,200.907,102.232L200.907,102.232z M203.541,103.353
		c-1.139,0.107-0.89-0.035-2.705,0.374l-0.053-0.231l2.26-0.729l1.085-0.249l0.107,0.428
		C203.754,103.051,204.111,103.051,203.541,103.353L203.541,103.353z M205.944,102.783c-0.268,0.071-0.48-0.053-0.605-0.355
		l0.694-0.16c0.302-0.071,0.498,0.054,0.569,0.356L205.944,102.783L205.944,102.783z M212.456,95.772l-0.054-0.231l1.121-0.267
		l0.107,0.427L212.456,95.772L212.456,95.772z M219.414,138.444c0.071-0.32,0.089-0.552,0.053-0.712l0.249-0.053
		c0.302-0.071,0.48,0.035,0.552,0.32l0.053,0.23L219.414,138.444L219.414,138.444z M224.29,97.605l-0.499-0.089
		c-0.801,0.32-1.477,0.551-2.029,0.676l-0.463,0.107c-0.267,0.071-0.48-0.036-0.587-0.32l3.256-0.748l1.068-0.498l0.356,0.409
		C224.877,97.25,224.503,97.41,224.29,97.605L224.29,97.605z M226.799,96.804l-0.053-0.231c0.16-0.036,0.374-0.16,0.605-0.392
		l2.313-0.534l0.053,0.231C228.49,96.182,227.511,96.484,226.799,96.804L226.799,96.804z M227.155,92.125
		c-0.161,0.036-0.374,0.178-0.641,0.392c-0.035-0.16-0.355-0.16-0.961-0.018c-0.106-0.445,1.602-1.068,5.143-1.887l0.498-0.107
		l0.106,0.428C228.809,91.662,227.422,92.071,227.155,92.125L227.155,92.125z M233.383,85.398c-0.249,2.829-1.246,4.431-3.007,4.84
		l-0.053-0.231l-1.566,0.604l-0.694,0.161c-0.355,0.089-0.676,0.071-0.961-0.018l-0.142-0.623c-0.054-0.231,2.207-3.363,6.797-9.378
		l0.534,0.089C234.487,81.661,234.184,83.174,233.383,85.398L233.383,85.398z M244.398,75.967l-0.213,0.018l-0.036-0.445
		l0.926-0.089l0.017,0.231C244.932,75.718,244.7,75.807,244.398,75.967L244.398,75.967z M239.861,121.54
		c-0.535-0.25-1.015-0.356-1.424-0.321l-0.054-0.676c-0.018-0.231,0.125-0.392,0.427-0.48c0.303-0.036,0.481,0.178,0.516,0.641
		c0.765-0.979,1.193-1.477,1.282-1.477l0.48,0.195C240.91,120.774,240.501,121.486,239.861,121.54L239.861,121.54z M288.511,70.646
		c-0.231,0.018-0.676-0.694-1.37-2.135l-0.035-0.445c0.444-0.036,0.907,0.658,1.37,2.082L288.511,70.646L288.511,70.646z
		 M287.87,65.557l-0.214,0.463l-6.584-2.758C285.468,63.404,287.746,64.169,287.87,65.557L287.87,65.557z M259.95,89.527
		l-0.926,0.089l-0.035-0.445l0.925-0.071L259.95,89.527L259.95,89.527z M259.186,75.13l0.249-0.018l0.053,0.676
		c-0.23,0.018-0.516,0.338-0.854,0.961l-0.035-0.445C259.008,75.789,259.203,75.397,259.186,75.13L259.186,75.13z M257.245,79.757
		l0.071,0.872l-0.249,0.018l-0.071-0.872L257.245,79.757L257.245,79.757z M256.196,81.412l0.462-0.036
		c-0.053,0.748-0.249,1.139-0.587,1.175l-0.249,0.017C256.089,82.071,256.214,81.679,256.196,81.412L256.196,81.412z M255.449,83.69
		l0.213-0.018l0.017,0.231l-0.409,0.712l-0.463,0.036l-0.018-0.231C255.271,84.384,255.484,84.135,255.449,83.69L255.449,83.69z
		 M254.701,85.754l-0.161,1.139l-0.214,0.018l-0.088-1.121L254.701,85.754L254.701,85.754z M247.103,107.339
		c-0.302,1.495-0.623,2.261-0.961,2.295l-0.018-0.195C246.071,108.691,246.391,107.979,247.103,107.339L247.103,107.339z
		 M245.697,110.347l0.018,0.195c0.036,0.32-0.106,0.498-0.427,0.516l-0.018-0.23C245.252,110.596,245.395,110.436,245.697,110.347
		L245.697,110.347z M245.305,116.61l0.712-0.054l0.018,0.231c-0.161,0.019-0.41,0.106-0.695,0.268l-0.462,0.035
		C244.861,116.842,245.003,116.682,245.305,116.61L245.305,116.61z M265.289,110.436c-3.915,1.939-6.246,3.257-6.976,3.933
		c-4.271,1.494-6.388,2.421-6.353,2.794c-3.791,1.513-6.282,2.598-7.457,3.292c-0.284,0.018-0.694-0.089-1.227-0.338
		c-0.071-0.766,0.284-1.388,1.032-1.852c0.676-0.053,1.317,0.036,1.904,0.285c0.712-0.355,1.939-0.747,3.683-1.192l-0.035-0.444
		l-1.459,0.106c0.178-0.249,1.548-0.89,4.093-1.922l0.711-0.054l0.018,0.196c-1.21,0.106-1.886,0.463-2.028,1.103
		c0.018,0.285,0.196,0.428,0.498,0.392c0.89-0.587,1.317-0.925,1.317-1.031c1.708-0.303,6.442-2.794,14.218-7.456l0.035,0.444
		C267.281,108.887,266.624,109.457,265.289,110.436L265.289,110.436z M253.366,114.351c1.156-0.107,2.135-0.552,2.954-1.335
		c0.302-0.036,0.48,0.106,0.498,0.392c-0.534,0.054-1.583,0.498-3.167,1.353l-0.249,0.018L253.366,114.351L253.366,114.351z
		 M272.62,99.563l-5.926,4.769c-4.431,2.9-6.833,4.359-7.207,4.396c-7.046,3.879-11.424,5.89-13.15,6.032l-0.249,0.018
		c0.213-0.801,3.363-7.225,9.449-19.29c2.651-0.231,6.852-1.495,12.617-3.772l1.44-0.125c2.9-0.249,5.072,0.32,6.495,1.69
		l0.071,0.872C275.076,97.214,273.902,99.011,272.62,99.563L272.62,99.563z M260.983,93.014l0.925-0.089l0.019,0.231L261,93.246
		L260.983,93.014L260.983,93.014z M274.453,90.719l0.712-0.053c0.658,0.32,0.996,0.605,1.015,0.836l0.018,0.196
		C275.574,91.751,274.987,91.431,274.453,90.719L274.453,90.719z M276.322,79.882c-0.623,0.748-2.313,2.028-5.071,3.808
		c-0.926,0.089-4.342,1.406-10.25,3.968c-0.284-0.107-0.604-0.142-0.943-0.125l-0.035-0.445c-0.071-0.854,0.303-1.922,1.121-3.221
		c0.463-2.456,0.979-3.826,1.513-4.146l4.964-11.104c-0.053-0.659,0.997-1.192,3.133-1.602l0.711-0.053l0.054,0.676
		c2.101-0.338,3.417-0.534,3.951-0.587c3.914-0.338,5.961,0.445,6.121,2.367l0.462-0.036l-0.089-1.068l0.463-0.035
		c1.139,0.623,1.744,1.37,1.815,2.26c0.053,0.641-0.268,1.423-0.943,2.331c-0.303,0.036-0.48-0.178-0.516-0.64l-0.463,0.035
		l-0.143,1.334c-1.975,3.007-3.417,4.556-4.324,4.627C277.051,79.313,276.553,79.864,276.322,79.882L276.322,79.882z
		 M278.404,87.284l-0.054-0.676l0.463-0.035l0.997,0.604c0.018,0.285-0.125,0.445-0.428,0.481
		C278.955,87.391,278.635,87.267,278.404,87.284L278.404,87.284z M195.569,130.508l-0.463,0.107l-0.392,0.338
		c0.071,0.284,0.25,0.392,0.552,0.32c0.303-0.071,0.427-0.249,0.356-0.534L195.569,130.508L195.569,130.508z M193.808,127.003
		l0.053,0.23c0.302-0.07,0.426-0.249,0.355-0.533l-0.053-0.231C193.879,126.54,193.754,126.718,193.808,127.003L193.808,127.003z
		 M206.335,97.196l0.534-0.124l-0.107-0.463l-0.534,0.125L206.335,97.196L206.335,97.196z M367.805,110.756
		c-5.41,1.21-6.086,0.996-7.225,1.085l0.035,0.445l0.498-0.035l0.268-0.019l-0.071-0.053l0.587-0.232
		c5.355-0.587,5.979-0.373,5.926-0.979L367.805,110.756L367.805,110.756z M338.674,114.617l0.036,0.445h0.071l-0.035-0.445H338.674
		L338.674,114.617z M335.329,102.891l-0.48-0.16c-0.392,1.05-0.588,1.673-0.569,1.851l0.018,0.195
		C334.671,104.759,335.009,104.118,335.329,102.891L335.329,102.891z M368.908,110.667l0.035,0.444l0.783,0.143l-0.036-0.445
		L368.908,110.667L368.908,110.667z M332.09,115.169l-1.21-0.143l-0.214,0.463l0.019,0.231l7.207-0.605l-0.036-0.444L332.09,115.169
		L332.09,115.169z M328.816,99.385l-0.017-0.232l-0.25,0.018l-0.444,0.285l0.249,0.427
		C328.692,99.848,328.852,99.687,328.816,99.385L328.816,99.385z M372.324,107.393l0.338-0.036c0.196-0.018,0.285-0.177,0.268-0.462
		l-0.196-0.428c-1.228,0.106-1.797,0.16-2.794,0.713l-0.018-0.232l-1.477,0.143c-0.036-0.444-0.16-0.676-0.356-0.658l-0.765,0.071
		c-0.89,0.07-1.317,0.036-1.762,0.373c-0.019-0.159-0.071-0.23-0.16-0.23l-0.854,0.071l-0.498,0.284
		c-0.018-0.16-0.071-0.231-0.16-0.231l-0.303,0.268l-0.018-0.231l-1.192-0.089l-0.285,0.018l0.036,0.445l0.605,0.159l0.569-0.035
		c0.195,0.125,0.409,0.16,0.658,0.143l0.498-0.25l0.018,0.196c-2.794,0.694-2.776,0.569-4.698,0.89
		c-0.213-0.143-0.373-0.213-0.479-0.195l-0.036,0.035c-0.214-0.019-0.338-0.16-0.355-0.392l0.996-0.124
		c0.071,0,0.125,0.071,0.677,0.178c0.801-0.392,0.836-0.552,1.263-0.588l-0.035-0.444c-2.74,0.534-1.638,0.179-5.071,0.48
		l-0.16,0.018l-0.036-0.444c4.413-0.534,2.937-0.232,4.449-0.658c0.018,0.159,0.071,0.23,0.16,0.23
		c0.178-0.178,0.373-0.267,0.604-0.302l0.303-0.019c1.548-0.124,2.064,0.178,5.125-0.676l0.018,0.195l0.498-0.249l0.463-0.035
		c-0.035-0.445,0.641-0.517,0.872-0.534l-0.036-0.48c-5.374,1.086-6.779,0.783-8.274,1.21l-0.018-0.195
		c-1.405,0.249-1.459,0.142-1.814,0.16c-0.107,0.018-0.268,0.106-0.445,0.284c-0.018-0.16-0.071-0.231-0.178-0.231
		c-0.054,0-0.071,0.019-0.089,0.019l-4.556,0.747c-0.019-0.124-0.071-0.195-0.178-0.178c-2.367,0.498-1.727,0.587-4.894,0.871
		c-0.143,0.019-0.338,0.09-0.588,0.25c-0.018-0.125-0.089-0.196-0.249-0.179l-1.939,0.16l-1.299,0.32
		c-0.018-0.124-0.089-0.195-0.249-0.178c-0.729,0.196-1.37,0.32-1.887,0.356h-0.035c-0.32,0.035,0.16-0.089-0.09-0.196l-0.391,0.231
		c-0.57,0.054-0.268-0.035-2.225-0.019c-3.434,0.428-3.061,0.481-3.434,0.499l-1.281-0.089c0.017,0.125-0.054,0.214-0.196,0.214
		c-1.46-0.196-2.207-0.428-2.225-0.694c0.195-1.388,0.534-2.1,1.015-2.136l0.249-0.018l-0.214,0.463l0.249-0.018
		c0.463-0.249,0.677-0.48,0.659-0.694l-0.036-0.48l-0.462,0.035l-0.036-0.444c-0.035-0.338,0.018-0.641,0.143-0.89l1.05-1.69
		l0.035,0.444l0.498-0.035l-0.035-0.445l-0.285-0.409c0.374-0.319,0.659-0.498,0.89-0.516l-0.017-0.231l-0.677,0.054l-0.054-0.676
		c1.353-2.812,1.993-4.449,1.958-4.912l0.48,0.196c0.303-0.018,0.444-0.196,0.427-0.516l-0.463,0.036l-0.018-0.196
		c-0.035-0.338,0.035-0.658,0.178-0.943c0.73-0.765,1.067-1.53,0.996-2.332c0.143-0.018,0.214,0.054,0.232,0.214
		c0.622-0.356,1.103-1.299,1.458-2.865c1.104-1.993,2.67-5.979,4.716-11.94c3.915-10.535,3.755-11.656,4.307-14.147l-0.463,0.035
		c0.036,0.321-0.035,0.623-0.178,0.908c-0.32-0.125-0.569-0.195-0.747-0.178l-0.018-0.196c-0.072-0.908,0.302-1.993,1.156-3.274
		l0.214-0.018l0.392,1.53l0.462-0.036c-0.018-0.106,0.107-0.712,0.356-1.833c-0.018-0.231-0.196-0.374-0.552-0.391l-0.445,0.285
		c-0.035-0.32-0.018-1.157,0.036-2.492l-0.231,0.018c-0.392-0.392-0.587-0.712-0.605-0.979l-2.544,0.25
		c-0.019-0.178-0.107-0.445-0.285-0.783c-0.018-0.232,0.552-0.463,1.727-0.694l0.516,0.196l0.48-0.285
		c0.018,0.16,0.106,0.231,0.284,0.214l0.48-0.285c0.018,0.16,0.107,0.231,0.285,0.213l0.231-0.017l-0.036-0.517
		c-0.355,0.036-1.299,0.036-2.793-0.018l-0.48,0.321l-0.018-0.285c-11.94,0.979-18.721,1.53-20.34,1.69
		c-0.214,0.018-1.05,0-2.527-0.035c0.019,0.195-0.159,0.302-0.516,0.338l-0.517-0.231l-1.743,0.445
		c-0.41,0.035-1.104,0.018-2.064-0.089c-0.267,0.213-0.587,0.338-0.979,0.374c-0.214,0.018,2.544-0.143,5.106-0.321
		c-0.267,0.214-0.676,0.338-1.245,0.392c-0.392,0.036-0.729-0.018-1.015-0.178c-0.392,0.178-1.654,0.462-3.771,0.89l-0.517-0.195
		l-8.328,1.281c-0.32-0.16-0.694-0.213-1.121-0.178c-0.445,0.036-1.192,0.196-2.225,0.48l-4.021,1.672l0.303,0.499
		c0.195-0.018,0.48-0.125,0.818-0.32l1.424,0.125l-0.178,1.334c-1.317,0.587-2.082,1.459-2.296,2.563
		c-1.976,0.872-2.954,1.495-2.954,1.869l0.018,0.231l0.303-0.018l0.534-0.285l0.623,0.748l0.089,1.032
		c0.035,0.321-3.293,7.314-9.947,20.98c-5.766,13.168-8.791,20.375-9.075,21.674c-1.976,0.551-3.114,1.353-3.452,2.42
		c0.035,0.338,0.622,0.569,1.761,0.659l0.054,0.516l-0.516,0.854l0.089,1.033c0.053,0.533,1.495,0.942,4.324,1.227
		c-0.019-0.177,0.071-0.284,0.267-0.302c0.054,0.641-0.125,1.886-0.534,3.737l0.303-0.019c1.175-1.602,1.727-2.705,1.673-3.31
		l0.249-0.018c0.285-0.019,0.588,0.302,0.943,0.996c-0.355,0.143-1.602,2.972-3.737,8.507l0.303,0.497l0.303-0.018
		c2.615-6.619,4.253-10.285,4.929-10.979c3.435-0.304,9.378-0.908,17.813-1.815l0.534-0.32c0.018,0.178,0.125,0.267,0.32,0.249
		l0.552-0.053l0.534-0.321c0.018,0.178,0.124,0.267,0.319,0.249l6.389-0.552c1.69-0.142,2.491-0.658,2.421-1.53
		c-0.019-0.23,0.978-0.498,2.989-0.782c0.195-0.019,0.48,0.035,0.872,0.16c-0.018-0.16,0.996-0.32,3.024-0.499
		c0.054-1.067,0.392-1.637,0.997-1.69l-0.054-0.516c-0.569,0.053-1.21,0.195-1.957,0.444c-1.335-0.071-2.189-0.178-2.545-0.303
		c-0.356,0.196-0.623,0.303-0.818,0.321l-4.449,0.143l-0.534,0.284c-0.017-0.16-0.124-0.231-0.32-0.214l-0.249,0.018l-0.569,0.285
		c-0.018-0.16-0.48-0.285-1.405-0.409l-0.569,0.338l-1.104,0.089l-0.019-0.285c5.73-0.622,8.561-1.405,8.488-2.33
		c0.374-0.036,0.57,0.142,0.605,0.516l1.673-0.427l-0.054-0.517l-13.72,0.373c0.018,0.179-0.071,0.285-0.267,0.304l-1.673-0.143
		c-0.428,0.035-0.783,0.16-1.067,0.374l-0.623-0.231c-1.726,0.142-3.007,0.355-3.861,0.623c-1.175-0.09-2.474-0.072-3.915,0.053
		l-3.079,0.267l-1.423-0.16c-0.071-0.907,1.69-5.374,5.32-13.381c1.051-2.705,2.011-4.395,2.937-5.036
		c0.196-0.018,0.48,0.053,0.872,0.213l2.188-0.748l1.121,0.178c1.886-0.16,4.075-0.693,6.584-1.619
		c0.623-0.053,1.086-0.018,1.424,0.125l1.673-0.392l4.982-0.426c2.117-0.178,4.413-0.641,6.904-1.406l-0.054-0.516
		c-0.925,0.089-1.405-0.071-1.441-0.445c-0.053-0.694-0.729-0.979-2.028-0.872l-0.053-0.516l1.369-0.392l3.595-0.303l-0.054-0.516
		c-0.142,0.017-0.871,0-2.224-0.054l-0.054-0.552l1.389-0.125c0.373-0.036,0.533-0.214,0.498-0.569
		c-1.869,0.054-2.812-0.036-2.83-0.285c-13.025,0.64-19.556,0.765-19.592,0.355c-0.195,0.018-0.463,0.143-0.818,0.356l-0.338-0.534
		c3.452-7.332,5.48-11.032,6.067-11.086c0.018,0.285-0.124,0.747-0.445,1.37l0.019,0.231l0.552-0.054
		c1.37-3.274,2.526-4.964,3.487-5.036c4.093-0.356-0.569-0.623,8.186-1.993c0.356,0.16,0.605,0.231,0.783,0.213
		c3.435-0.694,8.222-1.423,14.36-2.17l-0.035-0.517l-3.274,0.303l-0.036-0.516c0.392-0.036,0.712-0.16,0.979-0.374l0.018,0.285
		c0.178-0.018,0.427-0.142,0.747-0.356c0.569-0.053,0.997,0,1.3,0.16c1.139-0.302,2.063-0.48,2.739-0.552l2.047-0.196
		c0.498-0.32,0.729-0.605,0.712-0.872l-0.018-0.231c-0.517,0.053-1.104,0.018-1.797-0.107c-0.018-0.285,0.124-0.48,0.462-0.569
		l3.809-0.356l1.743-0.445c0.018,0.196,0.107,0.267,0.25,0.267c0.178-0.018,0.427-0.143,0.747-0.356
		c0.089,0.018,0.195,0.018,0.284,0.036c-0.23,0.48-0.498,1.174-0.765,2.082l-0.499,0.036c-0.035-0.338-0.124-0.641-0.284-0.908
		l-0.249,0.018c-4.627,12.883-6.69,18.88-10.961,28.774c-0.783,2.527-1.442,3.933-2.012,4.235c0.019,0.285,0.196,0.427,0.499,0.392
		c0.106,1.245-0.179,2.473-0.872,3.683c-1.976,5.694-3.293,8.809-3.969,9.378l0.445,2.687c0.018,0.285-0.125,0.445-0.428,0.48
		l-0.462,0.036c-0.071-0.748-0.339-1.104-0.819-1.05l-0.249,0.018c-0.604,0.943-1.067,2.028-1.37,3.292l0.462-0.035
		c0.624-0.409,0.908-0.89,0.854-1.442l0.926-0.088l0.533,0.195c-0.426,0.676-0.622,1.211-0.587,1.619l0.25,0.428l-0.605,1.423
		l0.018,0.231c0.534-0.053,1.121,0.124,1.744,0.498c0.427-0.035,0.89-0.23,1.406-0.569c0.533-0.053,2.526-0.071,5.961-0.071
		l1.726-0.587c2.101-0.019,2.438,0.036,4.253-0.124l0.748-0.072l0.392-0.267l0.018,0.232c1.904-0.161,2.028-0.036,3.523,0.142
		l0.018,0.231l-1.05,0.089l0.035,0.445c0.32-0.036,0.605-0.125,0.837-0.32c0.267-0.019,0.427,0.124,0.444,0.444
		c-0.427,0.036-0.907,0.142-1.441,0.32l-0.462-0.16c-0.729,0.195-0.57,0.249-1.068,0.284l-0.729-0.142
		c0.018,0.124-0.054,0.214-0.178,0.214c0.018,0.284,0.178,0.427,0.444,0.408l0.748-0.07l3.896-0.338l1.478-0.32
		c0.018,0.124,0.071,0.195,0.195,0.178l0.712-0.267l1.335-0.107c1.032-0.089,1.014-0.16,3.256-0.516
		c-0.018-0.143,0.036-0.196,0.143-0.214l0.019,0.195c3.647-0.622,3.879-0.658,4.466-0.854l0.053,0.107
		c0.908-0.213,0.392-0.16,0.642-0.338c0.018,0.16,0.071,0.23,0.16,0.23l0.641-0.053l-0.036-0.48l-1.299-0.018l-0.018-0.035
		c-0.054,0.017-0.09,0.017-0.143,0.035h-0.178v0.035c-0.872,0.179-0.89,0.054-1.46,0.107l-3.256,0.178l-0.018-0.231l1.814-0.249
		l0.658-0.054l0.374-0.268l0.018,0.232c2.563-0.214,3.471,0.427,15.322-2.1c0.64-0.055,0.587-0.587,0.996-1.691
		c-0.214,0.019-0.427-0.035-0.623-0.142c-0.979,0.373-1.495,0.195-3.381,0.498c-0.16,0.018-0.284-0.125-0.338-0.409l-0.019-0.196
		l1.815,0.054c0.339-0.035,0.996-0.09,1.976-0.641C372.467,107.321,372.111,107.41,372.324,107.393L372.324,107.393z
		 M284.703,108.798l-0.837,0.071c-0.035-0.338,0.409-1.619,1.335-3.808l0.552-0.053
		C285.771,105.524,285.433,106.788,284.703,108.798L284.703,108.798z M285.717,104.741l-0.018-0.231
		c-0.019-0.284,0.16-0.48,0.552-0.569l0.018,0.231C286.286,104.51,286.109,104.705,285.717,104.741L285.717,104.741z
		 M296.839,113.337l0.018,0.23l-1.388,0.125l-0.019-0.231L296.839,113.337L296.839,113.337z M295.166,113.193
		c0.018,0.284-0.409,0.605-1.335,0.925l-1.708-0.124l-0.552,0.054l-0.053-0.516L295.166,113.193L295.166,113.193z M306.413,61.429
		l-0.837,0.071l-0.018-0.285c-0.019-0.285,0.142-0.48,0.497-0.57l0.304-0.018l0.569,0.231
		C306.947,61.197,306.786,61.393,306.413,61.429L306.413,61.429z M319.136,58.938l0.267-0.018l0.036,0.516l-0.766,0.071
		C318.656,59.222,318.798,59.026,319.136,58.938L319.136,58.938z M315.933,60.059l-1.264-0.143l-0.018-0.231
		c1.654-0.142,2.206-0.32,3.221-0.605c0.019,0.196,0.196,0.267,0.516,0.231l0.036,0.516l-0.498,0.053
		c-0.392,0.036-0.729-0.018-1.015-0.178C316.61,59.898,316.288,60.023,315.933,60.059L315.933,60.059z M317.517,64.667l-0.018-0.231
		l2.046-0.196l0.018,0.231L317.517,64.667L317.517,64.667z M319.705,62.888l-0.018-0.285l0.996-0.089l0.018,0.285L319.705,62.888
		L319.705,62.888z M319.937,59.4l-0.267,0.018l0.23-0.552l2.278-0.213l0.018,0.285C321.61,58.991,320.845,59.151,319.937,59.4
		L319.937,59.4z M321.093,64.311l-0.036-0.516l0.997-0.089c0.339-0.036,0.517,0.124,0.534,0.48L321.093,64.311L321.093,64.311z
		 M327.126,56.09l-1.281,0.356l-0.231,0.018c-0.605,0.053-1.389,0.036-2.313-0.054C324.954,56.304,326.538,56.179,327.126,56.09
		L327.126,56.09z M325.755,61.785l0.019,0.231l-1.762,0.161l-0.019-0.231L325.755,61.785L325.755,61.785z M328.638,63.154
		c-0.018-0.213-0.355-0.355-1.05-0.427l-1.761,0.499l-1.353,0.053c-0.303-0.214-0.463-0.356-0.481-0.462l1.566,0.089l3.523-0.569
		l1.797,0.071l0.019,0.285C330.009,62.781,329.261,62.941,328.638,63.154L328.638,63.154z M346.772,58.475
		c0.213,0.018,0.355,0.018,0.409,0.018c0.622-0.604,1.316-1.085,2.117-1.423c-0.641,2.812-1.638,4.894-3.007,6.246l-0.997-0.605
		C346.13,60.592,346.629,59.187,346.772,58.475L346.772,58.475z M343.711,63.724l0.248-0.018c-0.338,0.641-0.64,0.978-0.89,0.996
		l-0.053-0.676C343.177,64.026,343.408,63.919,343.711,63.724L343.711,63.724z M341.736,68.439c0.479-1.922,0.942-3.007,1.37-3.292
		l0.018,0.231c-0.249,1.78-0.641,2.723-1.156,2.794l0.089,1.121c-0.428,0.605-0.623,1.068-0.605,1.424l-0.249,0.018l-0.143-1.548
		C341.344,69.152,341.575,68.902,341.736,68.439L341.736,68.439z M340.97,71.002c0.018,0.268-0.16,0.89-0.516,1.851l-0.249,0.018
		l-0.054-0.676C340.49,71.411,340.775,71.02,340.97,71.002L340.97,71.002z M326.611,112.678l-0.019-0.195l0.463-0.036l0.053,0.676
		C326.859,113.141,326.681,112.998,326.611,112.678L326.611,112.678z M347.127,113.212c-0.018-0.16-0.089-0.232-0.249-0.214
		l-1.157,0.106l-0.018-0.231h0.107l2.74-0.231l0.018,0.231C347.768,112.909,347.287,113.033,347.127,113.212L347.127,113.212z
		 M345.757,112.642c0.106,0.054,0.054,0.107,0,0.143C345.703,112.767,345.633,112.713,345.757,112.642L345.757,112.642z
		 M345.9,109.438l-1.53,0.125l-0.019-0.231l1.388-0.124l1.211-0.303c0.018,0.142,0.089,0.196,0.249,0.178
		c1.441-0.249,1.299-0.32,1.992-0.373c0.232-0.019,0.374,0.124,0.392,0.408L345.9,109.438L345.9,109.438z M351.256,108.977
		c-0.854-0.09-0.908-0.16-1.513-0.107l-0.019-0.195l1.37-0.125l0.018,0.196C350.971,108.763,351.487,108.798,351.256,108.977
		L351.256,108.977z M351.363,108.728l-0.018-0.196l0.747-0.07l0.018,0.195L351.363,108.728L351.363,108.728z M353.017,108.585
		l-0.018-0.196c0.125-0.018,0.303-0.106,0.534-0.285c0.374-0.034,0.569,0.215,0.605,0.499L353.017,108.585L353.017,108.585z
		 M355.135,108.318l-0.019-0.231l0.908-0.071l0.018,0.231L355.135,108.318L355.135,108.318z M356.399,108.211
		c-0.019-0.267,0.088-0.427,0.32-0.463l0.302,0.392c-0.018-0.124,0.036-0.195,0.143-0.213l0.231,0.427L356.399,108.211
		L356.399,108.211z M342.963,114.013l-0.035-0.445l-0.143,0.018l0.035,0.444L342.963,114.013L342.963,114.013z M374.229,105.915
		c0.142-0.089,0.213-0.178-0.125-0.23c-0.16,0.178,0.179,0.23-0.178,0.249l0.018,0.16c0.035-0.036,0.125-0.089,0.196-0.143
		l-0.196,0.16v0.018l-0.373,0.48l0.747-0.267h0.089l-0.036-0.445L374.229,105.915L374.229,105.915z M375.528,106.931l-0.143,0.017
		l0.036,0.445l1.05-0.089C376.453,107.019,375.759,106.931,375.528,106.931L375.528,106.931z M373.908,106.147l0.018-0.019v-0.018
		C373.926,106.111,373.908,106.129,373.908,106.147L373.908,106.147z"/>
	<path fill="#F9DC3E" d="M305.594,73.208l0.018,0.285l0.588-0.053c-0.019-0.178,0.053-0.462,0.178-0.818l-0.054-0.516
		C306.074,72.124,305.825,72.497,305.594,73.208L305.594,73.208z M299.971,59.685l-0.054-0.516l-0.836,0.071l0.053,0.516
		L299.971,59.685L299.971,59.685z M283.654,90.238c-0.036-0.48-1.53-2.349-4.484-5.641c-0.054-0.604,0.961-1.512,3.042-2.704
		l5.944-5.179c1.334-1.69,2.117-4.431,2.349-8.239l-0.071-0.872c-0.231-2.634-2.136-4.751-5.748-6.371
		c-2.135-1.441-5.979-2.242-11.53-2.385c-4.592,0.392-10.588,2.029-17.973,4.93c-2.029,1.459-4.342,2.918-6.94,4.377l0.036,0.445
		c0.16-0.018,0.409-0.107,0.694-0.303c0.302-0.036,0.48,0.107,0.498,0.392l0.445-0.231l0.213-0.018l0.018,0.196
		c0.018,0.232-1.583,1.495-4.822,3.755l0.249,0.462l-0.214,0.018l-0.534-0.196c0.018,0.16-0.213,0.267-0.658,0.303l0.018,0.196
		l0.516,0.64c-0.16,0.018-0.408-0.053-0.747-0.178c-0.747,0.071-1.477,0.463-2.207,1.21l0.303-1.317
		c1.086-4.68,1.833-8.826,2.225-12.42l-0.054-0.231c-0.747-0.48-1.477-1.157-2.153-2.011c0.018-0.552,0.018-0.872,0-0.943
		l-0.054-0.196l-0.212,0.054c-2.35,3.523-6.87,9.538-13.578,18.044c-5.107,6.05-7.741,9.413-7.901,10.089
		c-2.082,2.153-3.079,3.452-2.972,3.897c-0.552,0.356-0.783,0.711-0.694,1.103c-0.161,0.036-0.267-0.018-0.302-0.178
		c-0.89,1.441-2.207,2.366-3.969,2.776l-1.851,0.427c-0.25,0.054-0.374,0.231-0.356,0.534l0.054,0.231l0.693-0.16l0.054,0.196
		l-1.566,0.605l-2.776,0.64l-1.458,0.089c-0.214,0.213,1.156-0.018,0.623,0.106l-1.815,0.427c-1.103,0.249-1.708,0.16-1.815-0.284
		l-0.213,0.053c0.036,0.196,0.054,0.338,0.018,0.463l-0.106-0.445l-1.459,0.338c-0.107-0.676-2.083-3.132-5.908-7.367
		c-0.071-0.818,1.282-2.011,4.04-3.559l7.794-6.851c1.744-2.242,2.776-5.837,3.114-10.784l-0.107-1.157
		c-0.302-3.488-2.829-6.299-7.581-8.47c-2.812-1.904-7.865-2.918-15.161-3.079c-6.05,0.516-13.951,2.669-23.667,6.424
		c-2.669,1.939-5.712,3.861-9.128,5.766l0.053,0.605c0.231-0.018,0.534-0.142,0.908-0.355c0.392-0.036,0.605,0.142,0.64,0.498
		l0.605-0.338l0.303-0.018l0.017,0.285c0.018,0.285-2.1,1.94-6.388,4.965l0.338,0.534l-0.303,0.018l-0.658-0.231
		c0.018,0.178-0.285,0.302-0.908,0.355l0.036,0.32l0.711,0.783c-0.231,0.018-0.551-0.053-0.96-0.196
		c-1.388,0.125-2.741,1.121-4.075,3.007l0.338,0.534c1.157-1.068,1.833-1.602,2.028-1.62l0.071,0.872
		c-0.196,0.018-0.498,0.142-0.908,0.356l0.73,1.103c1.406-1.512,2.954-2.812,4.644-3.897c0.836,0.213,1.282,0.48,1.299,0.765
		l0.641-0.053c4.591-3.399,9.128-5.854,13.63-7.367l0.054,0.604c-0.837,1.246-1.406,1.887-1.708,1.922
		c0.036,0.427,0.178,0.801,0.445,1.122c0.071,0.765-1.976,5.925-6.122,15.463c-9.414,22.172-17.314,38.579-23.738,49.184
		c0.018,0.214,0.143,0.499,0.374,0.854c1.584-0.374,2.58-0.765,3.007-1.139l0.338-0.036l0.054,0.605l0.587-0.053l0.605-0.338
		c0.018,0.177,0.213,0.267,0.623,0.23l0.053,0.605c0.053,0.587-0.285,1.477-0.996,2.704c-0.641,0.729-1.335,2.26-2.064,4.592
		l0.018,0.284l0.587-0.054c2.563-2.864,4.502-5.676,5.837-8.416c7.474-2.189,13.168-4.343,17.119-6.459
		c3.968-0.339,6.993-1.39,9.058-3.115l-0.036-0.32l-1.494,0.445l-0.338,0.036l-0.036-0.321c2.918-0.444,4.929-1.085,6.05-1.975
		c5.676-4.378,9.965-7.474,12.865-9.307c5.961-4.378,9.841-8.648,11.603-12.795c0.32-0.071,0.641-0.143,0.997-0.231
		c0.836-0.035,1.299-0.053,1.423-0.089c-0.035-0.16,0.036-0.249,0.196-0.284c1.335-0.143,0.694,0.088,1.548-0.107l2.242-0.516
		l0.374-0.09l-0.178,0.107c0.249,0.035,0.516,0.018,0.818-0.054l0.16,0.659l-10.196,16.21l-2.26,2.83l-1.104,3.701l0.213-0.053
		l1.103-0.463l-0.355,1.441l0.107,0.427l0.302,0.374c-0.143,0.035-0.196,0.124-0.16,0.284l0.054,0.231l0.462-0.106
		c0.676-0.588,0.961-1.121,0.854-1.602c0.729,0.124,1.21,0.178,1.459,0.106l0.054,0.231c-0.445,0.107-0.677,0.463-0.711,1.067
		l0.053,0.231l0.25-0.053c3.701-4.04,12.777-17.866,20.055-27.244c-0.231-1.014,3.559-2.42,11.389-4.235l0.249-0.053
		c0.285,1.228-0.32,4.199-1.814,8.916c-0.961,2.847-1.424,4.412-1.353,4.662c-1.246,3.79-1.833,5.836-1.762,6.156l-2.776,9.094
		c-1.797,4.662-3.167,9.556-4.128,14.716c0.16-0.035,0.41-0.018,0.765,0.071l0.392-0.338c0.035,0.16,0.142,0.213,0.302,0.178
		l-0.16-0.658l1.21-0.035c0.355-0.089,0.658-0.534,0.907-1.353c-0.053-1.229,0.196-1.887,0.747-2.029
		c0.747-2.918,1.21-4.377,1.371-4.431c0.694-2.9,1.21-4.555,1.548-4.965c1.05-3.772,1.815-5.712,2.313-5.837l0.107,0.463
		l-0.765,1.976c-1.335,5.926-2.688,10.605-4.058,14.04l0.392,1.708l0.249-0.053c3.31-7.119,8.079-21.212,14.29-42.281
		c0.178-1.851,1.067-3.292,2.651-4.306l-0.356-0.374l-0.054-0.196c0.712-0.16,1.21-0.445,1.496-0.836
		c-0.036-0.161-0.659-0.392-1.869-0.712l3.097-13.275c0.676-0.605,1.068-0.925,1.192-0.925l0.054,0.676
		c-0.16,0.018-0.409,0.107-0.694,0.303l0.587,0.836c1.068-1.157,2.225-2.153,3.487-2.99c0.641,0.178,0.961,0.392,0.997,0.605
		l0.463-0.036c3.523-2.58,6.975-4.431,10.374-5.552l0.035,0.444c-0.622,0.943-1.05,1.424-1.28,1.442
		c0.035,0.32,0.124,0.605,0.284,0.854c0.053,0.587-1.477,4.502-4.608,11.762c-7.154,16.816-13.151,29.255-18.027,37.334
		c0.018,0.16,0.125,0.373,0.321,0.658c1.192-0.285,1.957-0.587,2.26-0.872l0.213-0.018l0.036,0.444l0.498-0.035l0.445-0.231
		c0.018,0.125,0.178,0.178,0.48,0.16l0.036,0.48c0.036,0.427-0.214,1.104-0.765,2.028c-0.516,0.553-1.05,1.709-1.62,3.471
		l0.018,0.231l0.463-0.036c1.939-2.171,3.416-4.307,4.431-6.406c5.676-1.673,10.001-3.292,12.99-4.894
		c3.043-0.267,5.338-1.05,6.905-2.366l-0.018-0.231l-1.157,0.338l-0.249,0.018l-0.018-0.231c2.206-0.32,3.755-0.818,4.591-1.477
		c4.307-3.31,7.563-5.677,9.77-7.065C280.841,99.652,284.045,94.847,283.654,90.238L283.654,90.238z M282.479,90.541l0.16,1.797
		c-0.214,0.445-0.445,0.676-0.659,0.694l-0.267-3.061C282.211,90.149,282.461,90.327,282.479,90.541L282.479,90.541z
		 M147.737,76.056l-0.302,0.018l-0.054-0.552l1.228-0.107l0.018,0.285C148.431,75.718,148.128,75.825,147.737,76.056L147.737,76.056
		z M141.74,136.042c-0.711-0.32-1.353-0.444-1.904-0.392l-0.071-0.872c-0.036-0.338,0.16-0.569,0.587-0.658
		c0.391-0.035,0.622,0.249,0.658,0.819c1.032-1.264,1.602-1.904,1.708-1.922l0.659,0.267
		C143.163,135.063,142.612,135.971,141.74,136.042L141.74,136.042z M205.819,69.009c-0.303,0.036-0.908-0.907-1.779-2.776
		l-0.054-0.551c0.569-0.053,1.157,0.872,1.779,2.776L205.819,69.009L205.819,69.009z M204.965,62.372l-0.25,0.587l-8.702-3.63
		C201.815,59.524,204.805,60.539,204.965,62.372L204.965,62.372z M168.219,93.922l-1.228,0.107l-0.053-0.552l1.228-0.107
		L168.219,93.922L168.219,93.922z M167.221,74.97l0.303-0.018l0.072,0.872c-0.285,0.018-0.658,0.445-1.122,1.263l-0.053-0.605
		C166.972,75.825,167.258,75.326,167.221,74.97L167.221,74.97z M164.641,81.056l0.107,1.157l-0.302,0.018l-0.107-1.157
		L164.641,81.056L164.641,81.056z M163.29,83.228l0.587-0.054c-0.054,0.961-0.32,1.477-0.801,1.512l-0.303,0.018
		C163.147,84.063,163.324,83.565,163.29,83.228L163.29,83.228z M162.275,86.252l0.338-0.036l0.018,0.285l-0.551,0.925l-0.587,0.053
		l-0.018-0.285C162.062,87.142,162.329,86.84,162.275,86.252L162.275,86.252z M161.279,88.975l-0.178,1.459l-0.303,0.018
		l-0.125-1.441L161.279,88.975L161.279,88.975z M151.296,117.357c-0.392,1.993-0.818,3.008-1.264,3.043l-0.018-0.284
		C149.908,119.137,150.335,118.212,151.296,117.357L151.296,117.357z M149.463,121.326l0.018,0.284
		c0.036,0.392-0.142,0.623-0.533,0.641l-0.018-0.285C148.893,121.628,149.071,121.415,149.463,121.326L149.463,121.326z
		 M148.929,129.564l0.925-0.088l0.036,0.32c-0.231,0.017-0.534,0.142-0.908,0.355l-0.587,0.053
		C148.36,129.902,148.555,129.672,148.929,129.564L148.929,129.564z M175.265,121.433c-5.196,2.563-8.256,4.307-9.164,5.214
		c-5.623,1.957-8.417,3.167-8.364,3.647c-5,1.976-8.292,3.435-9.875,4.342c-0.374,0.036-0.908-0.106-1.62-0.427
		c-0.089-1.014,0.374-1.833,1.353-2.491c0.872-0.071,1.708,0.054,2.509,0.392c0.925-0.48,2.544-1.014,4.84-1.584l-0.053-0.604
		l-1.851,0.16c0.231-0.32,2.01-1.156,5.356-2.509l0.925-0.089l0.018,0.284c-1.583,0.143-2.455,0.604-2.651,1.441
		c0.035,0.374,0.249,0.534,0.64,0.498c1.192-0.747,1.779-1.192,1.762-1.316c2.26-0.428,8.506-3.701,18.738-9.805l0.053,0.551
		C177.899,119.404,177.027,120.151,175.265,121.433L175.265,121.433z M159.571,126.593c1.495-0.124,2.776-0.729,3.843-1.779
		c0.427-0.035,0.659,0.125,0.676,0.498c-0.729,0.072-2.135,0.677-4.181,1.852l-0.303,0.018L159.571,126.593L159.571,126.593z
		 M184.892,107.144l-7.848,6.228c-5.837,3.826-8.968,5.748-9.432,5.784c-9.289,5.106-15.072,7.759-17.314,7.954l-0.338,0.035
		c0.284-1.05,4.413-9.502,12.42-25.411c3.523-0.303,9.075-1.939,16.638-4.929l1.851-0.16c3.826-0.338,6.691,0.409,8.578,2.188
		l0.106,1.157C188.149,104.065,186.582,106.449,184.892,107.144L184.892,107.144z M169.553,98.513l1.263-0.107l0.018,0.285
		l-1.263,0.107L169.553,98.513L169.553,98.513z M187.295,95.505l0.925-0.089c0.854,0.41,1.299,0.765,1.334,1.086l0.018,0.285
		C188.753,96.858,187.988,96.431,187.295,95.505L187.295,95.505z M189.803,81.216c-0.818,0.979-3.061,2.652-6.726,5
		c-1.21,0.107-5.713,1.851-13.506,5.268c-0.392-0.178-0.801-0.249-1.246-0.213l-0.053-0.552c-0.089-1.121,0.409-2.526,1.512-4.235
		c0.605-3.203,1.264-5.036,1.993-5.481l6.496-14.609c-0.071-0.908,1.316-1.602,4.164-2.083l0.926-0.089l0.071,0.837
		c2.794-0.427,4.538-0.676,5.214-0.73c5.161-0.445,7.848,0.605,8.061,3.114l0.587-0.054l-0.125-1.477l0.641-0.054
		c1.512,0.836,2.331,1.851,2.438,3.043c0.071,0.819-0.374,1.833-1.316,3.043c-0.392,0.035-0.623-0.25-0.658-0.819l-0.641,0.054
		l-0.142,1.779c-2.616,3.915-4.52,5.926-5.694,6.033C190.729,80.469,190.071,81.199,189.803,81.216L189.803,81.216z M193.79,91.449
		c-0.534-0.356-0.961-0.516-1.281-0.499l-0.071-0.872l0.587-0.054l1.299,0.766C194.377,91.199,194.198,91.413,193.79,91.449
		L193.79,91.449z M197.918,96.342c0.569,0.231,0.907,0.48,0.978,0.712l-0.284,0.071l0.018,0.018c-0.053,0-0.125,0.018-0.178,0.036
		l-0.427,0.338L197.918,96.342L197.918,96.342z M198.309,98.798l-0.053-0.231l0.747-0.178l0.054,0.232L198.309,98.798
		L198.309,98.798z M200.107,100.809c0.765-0.125,1.139-0.178,2.563-0.499l0.053,0.231l-2.704,0.624
		C200.053,101.04,200.089,100.915,200.107,100.809L200.107,100.809z M202.74,101.93c-1.139,0.106-0.89-0.036-2.705,0.374
		l-0.053-0.232l2.278-0.729l1.085-0.248l0.107,0.427C202.954,101.627,203.31,101.627,202.74,101.93L202.74,101.93z M205.143,101.36
		c-0.267,0.07-0.48-0.054-0.605-0.355l0.694-0.161c0.303-0.07,0.498,0.054,0.569,0.356L205.143,101.36L205.143,101.36z
		 M211.656,94.349l-0.054-0.231l1.122-0.267l0.107,0.427L211.656,94.349L211.656,94.349z M218.613,137.021
		c0.071-0.32,0.089-0.551,0.054-0.712l0.249-0.053c0.303-0.071,0.48,0.035,0.552,0.32l0.053,0.23L218.613,137.021L218.613,137.021z
		 M223.489,96.182l-0.499-0.089c-0.8,0.32-1.477,0.552-2.028,0.676l-0.463,0.107c-0.267,0.071-0.48-0.036-0.587-0.32l3.256-0.748
		l1.068-0.499l0.356,0.41C224.076,95.826,223.703,95.986,223.489,96.182L223.489,96.182z M225.998,95.381l-0.054-0.231
		c0.161-0.036,0.374-0.16,0.605-0.392l2.313-0.534l0.053,0.231C227.689,94.758,226.71,95.061,225.998,95.381L225.998,95.381z
		 M226.354,90.701c-0.16,0.036-0.374,0.178-0.641,0.392c-0.036-0.16-0.356-0.16-0.961-0.018c-0.107-0.445,1.602-1.067,5.142-1.886
		l0.499-0.107l0.106,0.427C228.009,90.238,226.62,90.647,226.354,90.701L226.354,90.701z M232.582,83.975
		c-0.249,2.829-1.245,4.431-3.007,4.84l-0.053-0.231l-1.566,0.605l-0.694,0.16c-0.356,0.089-0.676,0.071-0.961-0.018l-0.142-0.623
		c-0.053-0.231,2.206-3.363,6.797-9.378l0.534,0.089C233.685,80.238,233.383,81.75,232.582,83.975L232.582,83.975z M243.597,74.543
		l-0.214,0.018l-0.036-0.445l0.926-0.089l0.018,0.231C244.131,74.294,243.9,74.383,243.597,74.543L243.597,74.543z M239.059,120.116
		c-0.533-0.249-1.014-0.356-1.423-0.32l-0.054-0.677c-0.017-0.231,0.125-0.391,0.427-0.48c0.303-0.035,0.48,0.178,0.517,0.641
		c0.765-0.979,1.191-1.477,1.281-1.477l0.48,0.195C240.109,119.351,239.7,120.063,239.059,120.116L239.059,120.116z M287.71,69.223
		c-0.231,0.018-0.677-0.694-1.37-2.136l-0.035-0.444c0.444-0.036,0.907,0.658,1.37,2.082L287.71,69.223L287.71,69.223z
		 M287.07,64.133l-0.214,0.462l-6.584-2.758C284.667,61.98,286.946,62.746,287.07,64.133L287.07,64.133z M259.15,88.103
		l-0.925,0.089l-0.036-0.445l0.926-0.089L259.15,88.103L259.15,88.103z M258.384,73.707l0.249-0.018l0.055,0.676
		c-0.232,0.018-0.517,0.338-0.854,0.961l-0.036-0.445C258.206,74.365,258.403,73.974,258.384,73.707L258.384,73.707z
		 M256.445,78.333l0.071,0.872l-0.249,0.018l-0.071-0.872L256.445,78.333L256.445,78.333z M255.395,79.988l0.462-0.035
		c-0.053,0.747-0.249,1.139-0.586,1.174l-0.25,0.018C255.288,80.647,255.413,80.255,255.395,79.988L255.395,79.988z M254.648,82.267
		l0.214-0.018l0.018,0.231l-0.409,0.712l-0.463,0.036l-0.018-0.231C254.47,82.96,254.684,82.711,254.648,82.267L254.648,82.267z
		 M253.901,84.331l-0.161,1.139l-0.213,0.018l-0.089-1.121L253.901,84.331L253.901,84.331z M246.302,105.915
		c-0.302,1.495-0.623,2.261-0.961,2.296l-0.017-0.195C245.27,107.268,245.59,106.556,246.302,105.915L246.302,105.915z
		 M244.896,108.923l0.018,0.195c0.036,0.32-0.106,0.499-0.427,0.516l-0.018-0.23C244.451,109.172,244.594,109.012,244.896,108.923
		L244.896,108.923z M244.504,115.187l0.712-0.053l0.018,0.23c-0.16,0.019-0.409,0.106-0.694,0.268l-0.462,0.035
		C244.06,115.418,244.202,115.259,244.504,115.187L244.504,115.187z M264.489,109.012c-3.915,1.94-6.246,3.257-6.976,3.934
		c-4.271,1.494-6.389,2.419-6.353,2.793c-3.791,1.513-6.282,2.599-7.456,3.292c-0.285,0.018-0.694-0.089-1.229-0.338
		c-0.071-0.765,0.285-1.388,1.033-1.851c0.676-0.053,1.316,0.035,1.904,0.284c0.711-0.355,1.939-0.747,3.684-1.192l-0.036-0.444
		l-1.441,0.125c0.178-0.25,1.548-0.891,4.093-1.922l0.711-0.054l0.018,0.195c-1.21,0.106-1.886,0.463-2.029,1.104
		c0.018,0.285,0.196,0.427,0.498,0.392c0.891-0.587,1.317-0.926,1.317-1.032c1.708-0.303,6.442-2.794,14.218-7.456l0.035,0.445
		C266.481,107.464,265.823,108.033,264.489,109.012L264.489,109.012z M252.566,112.927c1.157-0.106,2.135-0.552,2.954-1.335
		c0.303-0.018,0.48,0.107,0.499,0.392c-0.535,0.054-1.584,0.499-3.168,1.354l-0.249,0.017L252.566,112.927L252.566,112.927z
		 M271.821,98.14l-5.927,4.769c-4.431,2.9-6.833,4.359-7.206,4.396c-7.047,3.879-11.425,5.89-13.151,6.033l-0.249,0.017
		c0.214-0.8,3.364-7.225,9.449-19.29c2.651-0.231,6.852-1.495,12.616-3.772l1.441-0.125c2.901-0.249,5.072,0.32,6.495,1.69
		l0.071,0.872C274.276,95.79,273.101,97.587,271.821,98.14L271.821,98.14z M260.182,91.591l0.926-0.089l0.018,0.231l-0.926,0.089
		L260.182,91.591L260.182,91.591z M273.653,89.295l0.712-0.053c0.658,0.32,0.996,0.604,1.014,0.836l0.019,0.196
		C274.774,90.327,274.187,90.007,273.653,89.295L273.653,89.295z M275.521,78.458c-0.622,0.748-2.313,2.029-5.071,3.809
		c-0.926,0.089-4.342,1.406-10.25,3.968c-0.285-0.107-0.605-0.142-0.942-0.125l-0.036-0.445c-0.071-0.854,0.303-1.922,1.121-3.221
		c0.463-2.456,0.979-3.826,1.513-4.146l4.965-11.104c-0.054-0.658,0.996-1.192,3.132-1.601l0.712-0.053l0.053,0.676
		c2.1-0.338,3.417-0.534,3.951-0.587c3.914-0.338,5.961,0.445,6.121,2.367l0.462-0.036l-0.088-1.068l0.462-0.035
		c1.139,0.623,1.744,1.37,1.815,2.26c0.053,0.641-0.268,1.424-0.943,2.332c-0.303,0.035-0.48-0.178-0.517-0.641l-0.462,0.036
		l-0.143,1.335c-1.976,3.007-3.417,4.555-4.324,4.626C276.25,77.889,275.752,78.44,275.521,78.458L275.521,78.458z M277.603,85.861
		l-0.053-0.676l0.462-0.035l0.996,0.604c0.019,0.285-0.124,0.445-0.427,0.48C278.155,85.968,277.834,85.843,277.603,85.861
		L277.603,85.861z M194.768,129.085l-0.463,0.106l-0.392,0.338c0.072,0.284,0.25,0.392,0.552,0.32
		c0.302-0.071,0.427-0.249,0.356-0.533L194.768,129.085L194.768,129.085z M193.007,125.579l0.053,0.23
		c0.303-0.07,0.428-0.248,0.356-0.533l-0.054-0.231C193.078,125.116,192.953,125.294,193.007,125.579L193.007,125.579z
		 M205.605,101.912l0.338-0.214c-0.072,0-0.125-0.018-0.178-0.035C205.641,101.698,205.588,101.787,205.605,101.912L205.605,101.912
		z M205.534,95.772l0.533-0.125l-0.106-0.463l-0.534,0.125L205.534,95.772L205.534,95.772z M331.29,113.745l-1.21-0.143
		l-0.214,0.463l0.018,0.231l7.207-0.604l-0.036-0.445L331.29,113.745L331.29,113.745z M337.874,113.193l0.035,0.445h0.07
		l-0.034-0.445H337.874L337.874,113.193z M368.107,109.243l0.036,0.445l0.783,0.142l-0.036-0.444L368.107,109.243L368.107,109.243z
		 M367.004,109.332c-5.409,1.21-6.086,0.997-7.225,1.085l0.035,0.445l0.498-0.035l0.268-0.019l-0.071-0.053l0.587-0.231
		c5.356-0.587,5.979-0.374,5.926-0.979L367.004,109.332L367.004,109.332z M334.529,101.467l-0.48-0.16
		c-0.392,1.05-0.587,1.673-0.569,1.851l0.018,0.195C333.87,103.336,334.208,102.695,334.529,101.467L334.529,101.467z
		 M328.016,97.961l-0.019-0.231l-0.248,0.018l-0.445,0.285l0.249,0.427C327.891,98.424,328.051,98.264,328.016,97.961
		L328.016,97.961z M342.162,112.588l-0.035-0.444l-0.143,0.019l0.035,0.444L342.162,112.588L342.162,112.588z M371.524,105.969
		l0.338-0.035c0.195-0.019,0.285-0.178,0.267-0.463l-0.195-0.428c-1.228,0.107-1.798,0.161-2.793,0.713l-0.019-0.231l-1.478,0.142
		c-0.034-0.444-0.159-0.676-0.355-0.657l-0.765,0.07c-0.89,0.071-1.317,0.036-1.763,0.374c-0.017-0.16-0.07-0.231-0.159-0.231
		l-0.854,0.071l-0.498,0.284c-0.019-0.16-0.071-0.231-0.16-0.231l-0.303,0.268l-0.018-0.231l-1.192-0.089l-0.285,0.018l0.036,0.445
		l0.604,0.159l0.57-0.035c0.195,0.125,0.409,0.16,0.658,0.143l0.498-0.249l0.018,0.195c-2.793,0.694-2.775,0.57-4.697,0.89
		c-0.214-0.142-0.374-0.213-0.48-0.195l-0.036,0.035c-0.213-0.018-0.338-0.159-0.355-0.392l0.997-0.125
		c0.07,0,0.124,0.072,0.675,0.179c0.802-0.392,0.837-0.552,1.264-0.587l-0.035-0.445c-2.74,0.534-1.638,0.178-5.071,0.48
		l-0.16,0.018l-0.036-0.444c4.413-0.534,2.937-0.231,4.449-0.658c0.018,0.16,0.071,0.23,0.16,0.23
		c0.178-0.178,0.373-0.267,0.604-0.303l0.303-0.018c1.549-0.124,2.064,0.179,5.125-0.676l0.018,0.196l0.498-0.25l0.463-0.035
		c-0.035-0.445,0.642-0.517,0.872-0.533l-0.035-0.481c-5.374,1.086-6.78,0.783-8.275,1.211l-0.018-0.196
		c-1.405,0.249-1.459,0.143-1.815,0.16c-0.106,0.018-0.267,0.106-0.444,0.284c-0.018-0.159-0.071-0.23-0.178-0.23
		c-0.054,0-0.071,0.018-0.089,0.018l-4.556,0.747c-0.018-0.124-0.071-0.196-0.179-0.178c-2.366,0.498-1.726,0.588-4.893,0.872
		c-0.143,0.018-0.338,0.089-0.587,0.248c-0.019-0.124-0.09-0.194-0.25-0.177l-1.939,0.16l-1.299,0.32
		c-0.018-0.125-0.089-0.196-0.249-0.179c-0.729,0.196-1.37,0.32-1.887,0.356h-0.035c-0.32,0.035,0.16-0.09-0.089-0.195l-0.392,0.23
		c-0.569,0.054-0.267-0.035-2.225-0.018c-3.435,0.428-3.061,0.48-3.435,0.499l-1.281-0.09c0.019,0.125-0.053,0.214-0.195,0.214
		c-1.459-0.195-2.206-0.427-2.225-0.694c0.196-1.388,0.534-2.1,1.015-2.135l0.249-0.018l-0.214,0.462l0.25-0.018
		c0.462-0.25,0.676-0.48,0.657-0.694l-0.035-0.479l-0.463,0.035l-0.035-0.445c-0.036-0.338,0.018-0.641,0.142-0.89l1.051-1.69
		l0.035,0.444l0.499-0.035l-0.036-0.445l-0.284-0.409c0.373-0.32,0.657-0.498,0.89-0.516l-0.019-0.231l-0.676,0.054l-0.054-0.677
		c1.353-2.811,1.993-4.448,1.958-4.911l0.479,0.196c0.304-0.018,0.445-0.196,0.428-0.517l-0.463,0.036l-0.018-0.195
		c-0.035-0.338,0.035-0.659,0.178-0.943c0.729-0.765,1.068-1.53,0.996-2.331c0.144-0.018,0.214,0.054,0.231,0.213
		c0.624-0.355,1.104-1.299,1.46-2.865c1.103-1.993,2.669-5.979,4.715-11.94c3.916-10.534,3.755-11.655,4.307-14.147l-0.463,0.036
		c0.036,0.32-0.035,0.623-0.178,0.908c-0.32-0.125-0.569-0.196-0.747-0.178l-0.018-0.195c-0.071-0.908,0.302-1.993,1.156-3.274
		l0.214-0.018l0.392,1.53l0.462-0.035c-0.018-0.107,0.107-0.712,0.356-1.833c-0.018-0.231-0.196-0.374-0.552-0.392l-0.444,0.285
		c-0.036-0.32-0.019-1.157,0.035-2.491l-0.231,0.018c-0.392-0.392-0.587-0.712-0.605-0.979l-2.545,0.249
		c-0.018-0.178-0.105-0.445-0.284-0.783c-0.018-0.231,0.552-0.463,1.727-0.694l0.516,0.196l0.48-0.285
		c0.018,0.16,0.106,0.231,0.285,0.213l0.48-0.285c0.018,0.161,0.106,0.231,0.284,0.214l0.231-0.018l-0.035-0.516
		c-0.356,0.035-1.299,0.035-2.794-0.018l-0.48,0.321l-0.019-0.285c-11.94,0.978-18.72,1.53-20.339,1.69
		c-0.214,0.018-1.05,0-2.526-0.036c0.018,0.196-0.161,0.303-0.517,0.338l-0.517-0.231l-1.743,0.445
		c-0.409,0.035-1.104,0.017-2.064-0.089c-0.267,0.213-0.587,0.338-0.979,0.374c-0.214,0.017,2.545-0.143,5.107-0.321
		c-0.268,0.214-0.677,0.338-1.246,0.392c-0.392,0.036-0.729-0.018-1.015-0.178c-0.392,0.178-1.654,0.462-3.772,0.889l-0.516-0.195
		l-8.328,1.281c-0.32-0.16-0.693-0.214-1.121-0.178c-0.444,0.036-1.192,0.196-2.225,0.48l-4.021,1.673l0.303,0.498
		c0.195-0.018,0.48-0.125,0.818-0.32l1.424,0.125l-0.178,1.335c-1.316,0.587-2.082,1.459-2.296,2.562
		c-1.975,0.872-2.954,1.495-2.954,1.869l0.019,0.23l0.302-0.017l0.534-0.285l0.623,0.747l0.089,1.032
		c0.035,0.32-3.292,7.313-9.947,20.98c-5.766,13.168-8.791,20.375-9.076,21.674c-1.975,0.552-3.113,1.353-3.452,2.421
		c0.036,0.337,0.624,0.569,1.763,0.658l0.053,0.516l-0.516,0.854l0.089,1.033c0.053,0.533,1.494,0.943,4.324,1.228
		c-0.019-0.178,0.071-0.284,0.267-0.303c0.054,0.641-0.125,1.887-0.534,3.737l0.303-0.019c1.175-1.602,1.727-2.704,1.673-3.309
		l0.249-0.019c0.285-0.018,0.587,0.303,0.943,0.996c-0.356,0.143-1.602,2.972-3.737,8.506l0.303,0.499l0.303-0.019
		c2.616-6.619,4.253-10.285,4.929-10.979c3.435-0.304,9.378-0.907,17.813-1.815l0.534-0.32c0.018,0.178,0.125,0.267,0.32,0.249
		l0.552-0.054l0.534-0.32c0.018,0.179,0.125,0.268,0.32,0.249l6.388-0.551c1.69-0.143,2.491-0.658,2.42-1.53
		c-0.018-0.232,0.979-0.499,2.99-0.783c0.195-0.019,0.48,0.035,0.872,0.159c-0.019-0.159,0.996-0.319,3.025-0.497
		c0.053-1.067,0.391-1.638,0.996-1.691l-0.054-0.516c-0.569,0.054-1.21,0.195-1.957,0.445c-1.335-0.071-2.188-0.179-2.545-0.304
		c-0.356,0.196-0.623,0.304-0.818,0.321l-4.449,0.142l-0.533,0.285c-0.019-0.16-0.125-0.231-0.32-0.213l-0.249,0.017l-0.57,0.285
		c-0.018-0.16-0.48-0.285-1.405-0.409l-0.569,0.338l-1.103,0.089l-0.019-0.284c5.729-0.623,8.559-1.406,8.487-2.331
		c0.375-0.036,0.57,0.143,0.605,0.516l1.673-0.427l-0.053-0.517l-13.721,0.374c0.019,0.178-0.07,0.284-0.267,0.303l-1.673-0.143
		c-0.427,0.036-0.783,0.16-1.067,0.374l-0.623-0.231c-1.727,0.143-3.008,0.355-3.861,0.623c-1.175-0.089-2.474-0.071-3.915,0.053
		l-3.078,0.268l-1.424-0.16c-0.071-0.908,1.69-5.374,5.32-13.382c1.051-2.705,2.012-4.396,2.937-5.036
		c0.195-0.018,0.48,0.053,0.872,0.213l2.188-0.747l1.121,0.178c1.887-0.16,4.075-0.694,6.584-1.62
		c0.623-0.053,1.085-0.017,1.424,0.125l1.673-0.392l4.982-0.427c2.117-0.178,4.413-0.641,6.904-1.406l-0.054-0.516
		c-0.925,0.089-1.405-0.072-1.44-0.445c-0.054-0.693-0.73-0.979-2.029-0.872l-0.054-0.516l1.371-0.392l3.594-0.302l-0.053-0.516
		c-0.143,0.018-0.872,0-2.225-0.053l-0.054-0.552l1.388-0.125c0.374-0.036,0.534-0.214,0.499-0.569
		c-1.868,0.053-2.812-0.036-2.829-0.285c-13.026,0.641-19.557,0.766-19.592,0.356c-0.196,0.018-0.464,0.143-0.819,0.356
		l-0.338-0.534c3.452-7.332,5.48-11.033,6.067-11.086c0.019,0.285-0.124,0.748-0.427,1.371l0.018,0.231l0.553-0.053
		c1.369-3.274,2.525-4.965,3.486-5.036c4.093-0.356-0.569-0.623,8.187-1.994c0.355,0.161,0.604,0.232,0.782,0.214
		c3.435-0.694,8.222-1.423,14.36-2.171l-0.035-0.516l-3.274,0.303l-0.035-0.517c0.392-0.035,0.712-0.16,0.979-0.374l0.018,0.285
		c0.178-0.018,0.427-0.142,0.747-0.355c0.57-0.054,0.997,0,1.3,0.16c1.139-0.302,2.064-0.48,2.74-0.551l2.046-0.196
		c0.499-0.32,0.73-0.605,0.712-0.872l-0.018-0.231c-0.516,0.054-1.103,0.018-1.797-0.106c-0.018-0.285,0.124-0.48,0.462-0.57
		l3.809-0.355l1.744-0.445c0.018,0.196,0.106,0.267,0.249,0.267c0.178-0.018,0.427-0.142,0.747-0.356
		c0.09,0.018,0.195,0.018,0.285,0.036c-0.231,0.48-0.499,1.175-0.766,2.082l-0.498,0.036c-0.036-0.338-0.125-0.641-0.284-0.908
		l-0.25,0.018c-4.626,12.883-6.69,18.88-10.961,28.774c-0.783,2.527-1.442,3.933-2.012,4.235c0.019,0.285,0.196,0.427,0.499,0.392
		c0.106,1.246-0.178,2.474-0.872,3.683c-1.976,5.695-3.293,8.809-3.969,9.378l0.445,2.688c0.018,0.284-0.125,0.444-0.427,0.48
		l-0.463,0.035c-0.071-0.747-0.339-1.103-0.818-1.05l-0.25,0.018c-0.604,0.943-1.067,2.028-1.369,3.292l0.463-0.035
		c0.622-0.409,0.906-0.89,0.854-1.441l0.925-0.089l0.534,0.195c-0.427,0.677-0.623,1.211-0.587,1.619l0.249,0.428l-0.605,1.424
		l0.018,0.231c0.535-0.054,1.121,0.124,1.744,0.497c0.427-0.034,0.891-0.23,1.406-0.569c0.534-0.053,2.526-0.071,5.961-0.071
		l1.727-0.587c2.1-0.018,2.438,0.036,4.253-0.125l0.747-0.071l0.392-0.266l0.018,0.231c1.904-0.161,2.028-0.036,3.523,0.142
		l0.018,0.231l-1.05,0.089l0.036,0.445c0.319-0.036,0.604-0.125,0.836-0.321c0.267-0.017,0.427,0.125,0.444,0.446
		c-0.427,0.034-0.907,0.142-1.44,0.319l-0.463-0.16c-0.729,0.196-0.569,0.249-1.068,0.285l-0.729-0.143
		c0.019,0.124-0.053,0.214-0.178,0.214c0.018,0.284,0.178,0.427,0.445,0.408l0.747-0.07l3.897-0.338l1.477-0.32
		c0.018,0.124,0.071,0.196,0.195,0.178l0.712-0.267l1.335-0.106c1.032-0.09,1.014-0.161,3.257-0.517
		c-0.018-0.143,0.035-0.196,0.142-0.214l0.019,0.195c3.647-0.622,3.879-0.658,4.466-0.854l0.054,0.106
		c0.907-0.214,0.392-0.16,0.641-0.338c0.018,0.16,0.071,0.231,0.16,0.231l0.641-0.054l-0.036-0.479l-1.298-0.019l-0.019-0.036
		c-0.054,0.019-0.089,0.019-0.143,0.036h-0.178v0.036c-0.872,0.178-0.89,0.053-1.459,0.106l-3.257,0.178l-0.018-0.231l1.815-0.249
		l0.658-0.054l0.373-0.267l0.019,0.231c2.563-0.214,3.47,0.427,15.321-2.1c0.641-0.054,0.587-0.587,0.996-1.691
		c-0.213,0.019-0.427-0.034-0.622-0.142c-0.979,0.374-1.496,0.195-3.382,0.499c-0.16,0.017-0.284-0.125-0.338-0.41l-0.019-0.195
		l1.815,0.053c0.339-0.035,0.997-0.089,1.976-0.641C371.684,105.897,371.31,105.986,371.524,105.969L371.524,105.969z
		 M283.902,107.375l-0.836,0.071c-0.035-0.339,0.41-1.62,1.335-3.809l0.552-0.053C284.97,104.101,284.632,105.364,283.902,107.375
		L283.902,107.375z M284.916,103.317l-0.018-0.23c-0.018-0.285,0.16-0.481,0.552-0.57l0.018,0.231
		C285.486,103.087,285.308,103.282,284.916,103.317L284.916,103.317z M296.038,111.912l0.018,0.231l-1.388,0.125l-0.018-0.231
		L296.038,111.912L296.038,111.912z M294.365,111.771c0.018,0.284-0.409,0.604-1.334,0.925l-1.709-0.124l-0.552,0.053l-0.053-0.517
		L294.365,111.771L294.365,111.771z M305.612,60.005l-0.836,0.071l-0.018-0.285c-0.019-0.285,0.142-0.48,0.498-0.569l0.303-0.018
		l0.569,0.231C306.146,59.773,305.986,59.969,305.612,60.005L305.612,60.005z M318.335,57.514l0.267-0.018l0.036,0.516l-0.766,0.071
		C317.855,57.798,317.996,57.603,318.335,57.514L318.335,57.514z M315.132,58.635l-1.264-0.143l-0.018-0.231
		c1.655-0.143,2.206-0.32,3.221-0.605c0.018,0.195,0.195,0.267,0.516,0.231l0.036,0.516l-0.498,0.054
		c-0.392,0.035-0.729-0.018-1.015-0.178C315.808,58.475,315.488,58.599,315.132,58.635L315.132,58.635z M316.716,63.244
		l-0.019-0.231l2.047-0.195l0.018,0.231L316.716,63.244L316.716,63.244z M318.905,61.464l-0.018-0.285l0.997-0.089l0.017,0.285
		L318.905,61.464L318.905,61.464z M319.136,57.977l-0.268,0.018l0.232-0.552l2.277-0.213l0.018,0.285
		C320.809,57.567,320.043,57.727,319.136,57.977L319.136,57.977z M320.292,62.888l-0.035-0.516l0.996-0.089
		c0.339-0.036,0.517,0.125,0.534,0.48L320.292,62.888L320.292,62.888z M326.324,54.667l-1.28,0.356l-0.231,0.017
		c-0.605,0.054-1.389,0.036-2.313-0.053C324.154,54.88,325.738,54.755,326.324,54.667L326.324,54.667z M324.954,60.361l0.019,0.231
		l-1.762,0.16l-0.019-0.231L324.954,60.361L324.954,60.361z M327.838,61.731c-0.019-0.213-0.356-0.355-1.05-0.427l-1.763,0.498
		l-1.353,0.054c-0.303-0.214-0.462-0.356-0.48-0.463l1.566,0.089l3.523-0.569l1.798,0.071l0.017,0.285
		C329.207,61.357,328.46,61.518,327.838,61.731L327.838,61.731z M345.971,57.051c0.213,0.018,0.355,0.018,0.409,0.018
		c0.622-0.605,1.316-1.085,2.117-1.424c-0.641,2.812-1.637,4.894-3.008,6.246l-0.996-0.605
		C345.33,59.168,345.828,57.763,345.971,57.051L345.971,57.051z M342.909,62.3l0.249-0.018c-0.338,0.641-0.641,0.979-0.89,0.997
		l-0.054-0.676C342.376,62.603,342.607,62.496,342.909,62.3L342.909,62.3z M340.935,67.016c0.48-1.922,0.942-3.007,1.37-3.292
		l0.018,0.231c-0.249,1.779-0.641,2.723-1.156,2.794l0.088,1.121c-0.426,0.605-0.622,1.068-0.604,1.423l-0.249,0.018l-0.142-1.548
		C340.543,67.728,340.775,67.479,340.935,67.016L340.935,67.016z M340.169,69.579c0.018,0.267-0.16,0.89-0.516,1.851l-0.249,0.018
		l-0.054-0.676C339.69,69.988,339.974,69.596,340.169,69.579L340.169,69.579z M325.809,111.254l-0.018-0.196l0.462-0.034
		l0.054,0.676C326.058,111.717,325.88,111.574,325.809,111.254L325.809,111.254z M346.326,111.788
		c-0.019-0.161-0.089-0.232-0.249-0.214l-1.157,0.106l-0.018-0.231h0.107l2.74-0.23l0.018,0.23
		C346.967,111.485,346.487,111.61,346.326,111.788L346.326,111.788z M344.956,111.219c0.107,0.053,0.054,0.106,0,0.142
		C344.903,111.343,344.831,111.29,344.956,111.219L344.956,111.219z M345.099,108.016l-1.531,0.124l-0.018-0.231l1.389-0.124
		l1.21-0.303c0.018,0.143,0.089,0.196,0.249,0.178c1.441-0.249,1.299-0.32,1.993-0.373c0.23-0.019,0.373,0.124,0.392,0.409
		L345.099,108.016L345.099,108.016z M350.455,107.553c-0.854-0.089-0.908-0.16-1.513-0.106l-0.019-0.196l1.371-0.124l0.018,0.195
		C350.17,107.339,350.686,107.375,350.455,107.553L350.455,107.553z M350.562,107.304l-0.019-0.196l0.748-0.071l0.018,0.196
		L350.562,107.304L350.562,107.304z M352.217,107.161l-0.019-0.196c0.125-0.018,0.303-0.106,0.534-0.284
		c0.373-0.035,0.569,0.214,0.605,0.499L352.217,107.161L352.217,107.161z M354.334,106.895l-0.018-0.231l0.907-0.071l0.018,0.231
		L354.334,106.895L354.334,106.895z M355.597,106.788c-0.017-0.268,0.089-0.428,0.32-0.463l0.304,0.392
		c-0.019-0.125,0.035-0.196,0.142-0.214l0.231,0.428L355.597,106.788L355.597,106.788z M373.108,104.724l0.018-0.019v-0.018
		C373.125,104.688,373.108,104.705,373.108,104.724L373.108,104.724z M373.428,104.492c0.143-0.089,0.214-0.179-0.125-0.231
		c-0.16,0.178,0.178,0.231-0.178,0.249l0.018,0.16c0.036-0.036,0.125-0.089,0.196-0.143l-0.196,0.16v0.018l-0.373,0.48l0.747-0.267
		h0.089l-0.035-0.444L373.428,104.492L373.428,104.492z M374.727,105.507l-0.143,0.018l0.035,0.444l1.051-0.089
		C375.653,105.596,374.958,105.507,374.727,105.507L374.727,105.507z"/>
</g>
</svg>
