<?xml version="1.0" encoding="utf-8"?>
<!-- Generator: Adobe Illustrator 16.0.3, SVG Export Plug-In . SVG Version: 6.00 Build 0)  -->
<!DOCTYPE svg PUBLIC "-//W3C//DTD SVG 1.1//EN" "http://www.w3.org/Graphics/SVG/1.1/DTD/svg11.dtd">
<svg version="1.1" id="Ebene_1" xmlns="http://www.w3.org/2000/svg" xmlns:xlink="http://www.w3.org/1999/xlink" x="0px" y="0px"
	 width="256px" height="256px" viewBox="0 0 256 256" enable-background="new 0 0 256 256" xml:space="preserve">
<g>
	<path fill="#563D7C" d="M47.5,187.74c0,11.467,9.294,20.76,20.759,20.76H187.74c11.467,0,20.76-9.294,20.76-20.76V68.259
		c0-11.466-9.294-20.759-20.76-20.759H68.259C56.793,47.5,47.5,56.794,47.5,68.259V187.74z"/>
	<path fill="#FFFFFF" d="M114.263,118.716v-22.8h20.07c1.911,0,3.754,0.159,5.529,0.478c1.774,0.319,3.345,0.888,4.71,1.707
		s2.457,1.957,3.276,3.413c0.819,1.456,1.229,3.322,1.229,5.598c0,4.096-1.229,7.054-3.686,8.875c-2.458,1.82-5.598,2.73-9.421,2.73
		H114.263L114.263,118.716z M92.828,79.26v97.48h47.239c4.368,0,8.623-0.546,12.765-1.639c4.142-1.092,7.827-2.776,11.059-5.051
		c3.231-2.276,5.803-5.211,7.714-8.806c1.911-3.596,2.867-7.852,2.867-12.767c0-6.098-1.479-11.309-4.437-15.632
		c-2.959-4.323-7.441-7.35-13.448-9.079c4.368-2.093,7.668-4.778,9.898-8.055c2.229-3.277,3.345-7.373,3.345-12.287
		c0-4.551-0.751-8.374-2.253-11.469c-1.502-3.094-3.618-5.575-6.349-7.44s-6.008-3.208-9.83-4.028
		c-3.822-0.819-8.056-1.229-12.697-1.229H92.828L92.828,79.26z M114.263,160.084v-26.759h23.346c4.642,0,8.373,1.069,11.195,3.208
		c2.821,2.139,4.232,5.711,4.232,10.717c0,2.549-0.433,4.643-1.297,6.281c-0.865,1.638-2.025,2.935-3.481,3.891
		c-1.457,0.955-3.141,1.638-5.052,2.048c-1.911,0.409-3.914,0.614-6.008,0.614H114.263L114.263,160.084z"/>
</g>
</svg>
