<?xml version="1.0" encoding="utf-8"?>
<!-- Generator: Adobe Illustrator 16.0.3, SVG Export Plug-In . SVG Version: 6.00 Build 0)  -->
<!DOCTYPE svg PUBLIC "-//W3C//DTD SVG 1.1//EN" "http://www.w3.org/Graphics/SVG/1.1/DTD/svg11.dtd">
<svg version="1.1" id="Ebene_1" xmlns="http://www.w3.org/2000/svg" xmlns:xlink="http://www.w3.org/1999/xlink" x="0px" y="0px"
	 width="256px" height="256px" viewBox="0 62 256 256" enable-background="new 0 62 256 256" xml:space="preserve">
<g>
	<path fill="#1A4658" d="M192.122,277.383c0,4.303-28.729,7.792-64.171,7.792c-35.441,0-64.172-3.489-64.172-7.792
		c0-4.305,33.703-7.792,64.172-7.792C164.221,269.591,192.122,273.078,192.122,277.383"/>
	<path fill="#EDF7FA" d="M188.149,221.156c-1.985,0-4.125-0.917-5.653-7.945s-3.819-14.209-3.819-14.209
		c2.445,0,3.819-1.07,3.819-1.07c-1.681-0.765-5.348-3.361-7.792-6.57c-2.444-3.208-8.709-8.403-8.709-8.403v-10.389
		c0-7.029,4.507-12.529,4.507-12.529c-3.056,0-4.507,2.75-4.507,2.75v-14.82c0-14.668,7.41-21.237,7.41-21.237
		c-2.292-0.153-3.819,0.917-3.819,0.917c1.068-10.848,4.393-14.056,4.393-14.056c-12.223-3.209-19.042,3.972-19.042,3.972
		c-1.375-6.569,4.002-10.391,4.002-10.391c-6.264-1.375-11.445,0.458-11.445,0.458c0-9.625,3.827-12.836,3.827-12.836
		c-19.1,0-29.943,14.36-29.943,14.36c-0.764-6.112,0.918-11.465,0.918-11.465c-18.487,7.792-23.375,25.049-23.375,25.049
		c-1.222-2.902-1.375-9.493-1.375-9.493s-7.64,12.796-9.015,21.658c-1.375,8.862,1.222,34.302,1.222,34.302
		s-1.222-1.527-3.819-1.833c0,0,2.75,3.056,2.75,9.932c0,0-1.07-0.917-2.903-0.458c0,0,2.903,2.597,3.209,7.028
		c0,0-3.362,2.292-5.196,4.584c0,0-2.903,0.153-4.431,0.611c0,0,2.445,1.375,2.903,2.597c0,0-7.181,7.335-10.848,13.293
		c0,0,3.209-1.986,5.5-1.375c0,0-5.042,6.111-6.723,16.196c0,0,2.444-1.222,3.514-0.611c0,0-3.056,6.417-3.208,13.14l-3.361,1.986
		l2.597,1.834c0,0-1.986,8.25-2.444,12.987c0,0,1.527-1.527,2.75-1.986c0,0,1.681,3.972,3.973,7.028
		c2.292,3.056,7.487,5.653,10.542,5.653l5.744-0.225c-0.712,3.073-2.118,5.681-5.08,5.816l-0.329,0.528
		c-0.062-0.005-0.123-0.008-0.182-0.009c-0.059,0.897-1.87,1.06-2.369,1.681c-1.514,1.89-2.669,4.484-3.438,6.8
		c-0.563,1.695-0.297,1.695-0.688,3.438c-0.127,0.569-0.719,1.179-0.916,1.756c1.649-0.554,6.221-0.924,8.63-1.101l0.041,2.131
		c0,0,0.397,0.37,1.055,0.638c0.023-0.004,0.045-0.011,0.072-0.009c0.224,0.019,0.439,0.052,0.65,0.104
		c3.614-0.323,6.13,0.286,10.319-0.062c0.815-0.096,1.58-0.211,2.293-0.617c0.203-0.606,0.229-0.644,0.326-1.426
		c0.021-0.14,0.021-0.283,0.054-0.453c0.065-0.012,0.129-0.021,0.193-0.03c0.024-0.009,0.063-0.018,0.15-0.021
		c0.018-0.005,0.033-0.014,0.053-0.016c0.066-0.006,0.133-0.012,0.199-0.017c0.046-0.018,0.089-0.021,0.129-0.013
		c0.758-0.067,1.975-0.13,2.733-0.172c2.464-0.004,5.706,0.279,5.706,0.279c0.201-2.762,0.401-7.047,4.87-19.538l1.108-0.687
		c0,0,13.727,4.837,26.463-0.196c1.008,2.481,4.27,10.819,4.782,16.076c0.438,0.616,0.389,1.397,0.404,2.227
		c0.012,0.7,0.07,1.401,0.09,2.101c0.459-0.063,2.112-0.266,4.2-0.262c0.757,0.042,1.975,0.104,2.733,0.172
		c0.039-0.009,0.082-0.005,0.128,0.013c0.066,0.005,0.132,0.011,0.199,0.017c0.021,0.002,0.035,0.011,0.053,0.016
		c0.087,0.003,0.125,0.012,0.149,0.021c0.064,0.01,0.128,0.019,0.193,0.03c0.034,0.17,0.034,0.313,0.055,0.453
		c0.096,0.782,0.123,0.819,0.325,1.426c0.065,0.037,0.132,0.069,0.198,0.103c2.28-0.29,4.592-0.343,6.887-0.233
		c1.805,0.085,3.579,0.424,5.355,0.747c0,0.017,0.001,0.033,0.001,0.051c0.179,0.019,0.355,0.032,0.529,0.043
		c0.953,0.171,1.909,0.329,2.871,0.434c0.019-1.204,0.012-2.256-0.014-3.18c1.913,0.092,4.684,0.473,5.846,0.643
		c0.46,0.109,0.835,0.178,1.229,0.263c0.052,0.016,0.109,0.031,0.157,0.047c-0.002-0.004-0.004-0.009-0.006-0.013
		c0.395,0.088,0.82,0.2,1.381,0.396c-0.085-1.033-0.077-1.012-0.215-2.309c-0.105-1.002-0.824-4.047-2.168-5.303
		c0,0,1.465,0.633,1.912,0.886c-1.444-1.956-2.146-4.754-6.683-6.684c0,0,0.827-0.391,1.585-0.488
		c-0.792-0.488-1.396-0.681-2.197-0.622c0.271-0.773,1.47-2.725,2.476-2.975c0,0-0.617-0.429-1.626-0.098
		c-0.375,0.196-0.738,0.407-1.094,0.657c-0.133,0.095-0.328-0.003-0.368-0.149c-0.317-1.174-0.523-2.365-0.711-3.563
		c9.144-0.331,10.427-5.021,10.427-5.021c0.763,0.611,0.763,1.985,0.763,1.985c3.973-5.194,3.515-10.39,3.515-10.39
		c0.917,0.152,1.681,0.764,1.681,0.764c0.458-7.944-1.986-21.543-1.986-21.543c1.224,0.611,1.986-0.152,1.986-0.152
		c-1.375-0.612-1.528-2.14-1.528-2.14C187.844,222.99,188.149,221.156,188.149,221.156"/>
	<path fill="#CDE9EE" d="M100.739,278.803c0,0,0.358-3.864-0.902-6.653c0,0,2.387,0.162,2.788,6.465
		C102.625,278.614,100.954,278.809,100.739,278.803"/>
	<path fill="#CDE9EE" d="M88.759,265.771l0.015-0.119C88.783,265.711,88.782,265.757,88.759,265.771"/>
	<path fill="#CDE9EE" d="M90.994,278.503c-0.014-0.004-0.021-0.006-0.021-0.006s0.01-0.026,0.027-0.072L90.994,278.503"/>
	<path fill="#CDE9EE" d="M121.377,109.156c-0.763-6.112,0.918-11.465,0.918-11.465c-18.487,7.792-23.376,25.049-23.376,25.049
		c-1.222-2.902-1.375-9.493-1.375-9.493s-7.64,12.796-9.015,21.658c-1.375,8.862,1.222,34.302,1.222,34.302
		s-1.222-1.527-3.819-1.833c0,0,2.75,3.056,2.75,9.932c0,0-1.07-0.917-2.903-0.458c0,0,2.903,2.597,3.209,7.028
		c0,0-3.362,2.292-5.196,4.584c0,0-2.903,0.153-4.431,0.611c0,0,2.445,1.375,2.903,2.597c0,0-7.181,7.335-10.848,13.293
		c0,0,3.209-1.986,5.5-1.375c0,0-5.042,6.111-6.723,16.196c0,0,2.444-1.222,3.514-0.611c0,0-3.056,6.417-3.208,13.14l-3.361,1.986
		l2.597,1.834c0,0-1.986,8.25-2.444,12.987c0,0,1.527-1.527,2.75-1.986c0,0,1.681,3.972,3.973,7.028
		c2.292,3.056,7.487,5.653,10.542,5.653l0.387-0.054c-0.17,1.054-0.362,2.104-0.642,3.138c-0.04,0.146-0.234,0.244-0.368,0.149
		c-0.354-0.25-0.718-0.461-1.093-0.657c-1.009-0.331-1.626,0.098-1.626,0.098c1.005,0.25,2.204,2.201,2.476,2.975
		c-0.802-0.059-1.406,0.134-2.198,0.622c0.758,0.098,1.586,0.488,1.586,0.488c-4.537,1.93-5.24,4.728-6.684,6.684
		c0.447-0.253,1.912-0.886,1.912-0.886c-1.345,1.256-2.063,4.301-2.168,5.303c-0.137,1.297-0.129,1.275-0.214,2.309
		c1.203-0.418,1.787-0.46,2.761-0.692c1.505-0.22,5.709-0.796,7.253-0.636l-0.243,2.97c0,0,0.031,0,0.076-0.001
		c0.792-0.228,1.439-0.196,2.146-0.272c0.01-0.819,0.053-1.637,0.12-2.453c-0.047-1.393,0.126-2.662,0.411-4.077
		c0.009-0.048,0.021-0.098,0.031-0.146c0.561-1.932,1.537-3.031,2.17-3.707c0.21-0.225,0.393-0.491,0.549-0.764
		c0.379-0.503,0.772-1.159,1.075-1.987c0.628-1.713,0.359-5.479-0.903-9.154c1.331,1.914,2.543,3.596,3.118,4.169l-0.038-4.678
		c0,0,2.444,2.442,4.632,4.288c1.053,0.92,2.353,2.116,3.275,2.594c0.067,0.041,0.127-0.403,0.2,0.268h0
		c0.009,0,0.019-0.133,0.028-0.128c1.239,0.695,2.514,1.247,3.708,2.02c0.127,0.083,0.258,0.122,0.383,0.209
		c0.552,0.381,1.525,0.804,2.398,1.265l0.827,9.758c0.745-10.257,6.589-20.077,6.589-20.077l-0.214-0.065
		c-1.808-0.559-15.04-5.138-22.857-21.481c-0.515-1.076,2.903,1.222,2.903,1.222c-3.209-7.793-4.432-20.322-4.432-20.322
		c1.069,0.917,2.139,1.07,2.139,1.07c-2.292-6.418-3.208-14.362-3.208-21.544c-0.611-38.656,13.675-47.518,13.675-47.518
		c-2.444-0.917-5.042-0.84-5.042-0.84c2.827-6.8,12.223-16.272,12.223-16.272c-2.521,0.153-12.375,2.826-12.375,2.826
		c8.174-21.314,16.425-26.967,16.425-26.967c-0.61,5.118,1.375,10.543,1.375,10.543c17.724-21.926,31.964-20.903,31.964-20.903
		c1.056-2.2,2.256-3.699,2.256-3.699C132.223,94.796,121.377,109.156,121.377,109.156"/>
	<path fill="#CDE9EE" d="M171.476,278.681c0,0-0.171-5.538-1.432-8.326c0,0,3.284,2.024,3.267,8.422
		C173.311,278.776,171.69,278.688,171.476,278.681"/>
	<path fill="#ABD8D7" d="M86.006,250.194c2.164-21.193,2.753-62.653,2.753-62.653c-4.698,9.282-8.479,26.127-8.479,26.127
		l0.917,3.667l-2.063-0.917c-3.315,11.506-1.072,26.908-0.33,31.246C80.914,249.334,83.425,249.896,86.006,250.194"/>
	<path fill="#ABD8D7" d="M81.575,249.735c0.672,3.394,1.369,6.659,2.143,10.028c0.573,0.086,1.218,0.043,1.218,0.043
		c0.525-2.049,0.613-5.221,1.021-9.122C84.451,250.509,82.972,250.241,81.575,249.735"/>
	<path fill="#CDE9EE" d="M153.38,267.999c-0.122,0.035-0.216-0.021-0.267-0.104c-0.237,0.047-0.42,0.09-0.542,0.122
		c0-0.001,0.001-0.001,0.001-0.001c3.151-2.294,3.441-4.721,3.441-4.721c-2.092,0.943-4.311,1.296-5.392,1.42
		c7.286-6.315,8.497-18.043,8.497-18.043c-2.984,3.664-7.22,6.76-10.492,8.838l0.007-0.015c0,0-2.193,1.227-4.219,2.181
		c-0.089-0.013-0.178,0.011-0.244,0.114c-1.041,0.482-2.013,0.876-2.584,0.971c0,0,1.687,3.117,2.392,4.796l-0.138,0.113
		c0,0,2.441,5.77,3.33,11.359c0.094,0.944,0.165,1.772,0.217,2.404c0.042,0.817,0.101,1.381,0.101,1.381
		c3.228-0.478,7.787-0.012,7.787-0.012c-0.021,0.525,0.268,1.788,0.32,2.018c1.533-0.208,3.08-0.298,4.626-0.312
		C160.201,275.092,159.963,266.089,153.38,267.999"/>
	<path fill="#83BAC0" d="M85.837,251.829c-5.062-0.856-9.655-6.674-9.655-6.674c3.69,3.925,8.285,4.45,8.285,4.45
		c0.606-4.482-3.098-14.74-3.098-14.74c2.744,3.416,4.244,7.369,5.065,10.604L85.837,251.829"/>
	<path fill="#ABD8D7" d="M97.325,243.894c0,0,3.982,7.019,7.478,10.056c3.772,3.276,7.276,7.906,8.766,10.714
		c0,0,1.891-4.393,2.922-5.921C116.491,258.742,105.318,255.466,97.325,243.894"/>
	<path fill="#ABD8D7" d="M149.302,257.582c0.554-0.779,1.188-1.503,1.792-2.243c0.99-1.213,2.123-2.391,2.954-3.711
		c-1.435,1.074-3.034,2.006-4.669,2.989c-4.743,3.215-8.05,4.125-8.05,4.125c1.031,1.528,2.922,5.921,2.922,5.921
		c0.901-1.699,2.544-4.066,4.534-6.396C148.953,258.034,149.139,257.812,149.302,257.582"/>
	<path fill="#545352" d="M95.815,139.371c-0.435,0.032-1.825,0.067-1.825,0.067c-12.598,0.879-21.857-8.883-21.857-8.883
		s-0.828,7.62,4.645,14.297c5.474,6.677,16.566,7.82,16.566,7.82c0.36,1.562-0.42,5.043-0.42,5.043s3.243-3.588,4.067-10.385
		C97.568,142.566,96.083,139.351,95.815,139.371"/>
	<path fill="#6E7979" d="M95.815,139.371c-0.418,0.024-1.825,0.067-1.825,0.067c-12.598,0.879-21.857-8.883-21.857-8.883
		s5.755,16.655,24.975,15.339C97.108,145.894,97.64,142.813,95.815,139.371"/>
	<path fill="#545352" d="M158.711,139.371c0.434,0.032,1.824,0.067,1.824,0.067c12.598,0.879,21.857-8.883,21.857-8.883
		s0.827,7.62-4.645,14.297c-5.475,6.677-16.565,7.82-16.565,7.82c-0.361,1.562,0.42,5.043,0.42,5.043s-3.244-3.588-4.067-10.385
		C156.956,142.566,158.441,139.351,158.711,139.371"/>
	<path fill="#6E7979" d="M158.711,139.371c0.417,0.024,1.824,0.067,1.824,0.067c12.598,0.879,21.857-8.883,21.857-8.883
		s-5.755,16.655-24.975,15.339C157.418,145.894,156.886,142.813,158.711,139.371"/>
	<path fill="#CDE9EE" d="M89.239,195.792c0,0-9.055,32.545,0,53.401V195.792"/>
	<path fill="#CDE9EE" d="M179.403,247.272c-4.47,3.41-9.12,3.626-9.12,3.626c-0.207-4.456,4.663-14.196,4.663-14.196
		c-1.108,0.654-1.999,1.446-2.731,2.314l-0.031-3.27l3.514-2.902l-2.826-2.292l3.59-14.438l-3.438,2.291
		c0,0-1.069-20.549-0.306-29.411c0,0-4.354-4.355-6.494-6.112c0,0,0.405,6.327,0.866,16.437c1.951,8.109,4.982,24.892,1.211,39.651
		c0.044,2.993,0.076,6.032,0.094,9.099c0,0,1.879,6.528,2.489,11.111c0,0,0.611,0.172,1.529,0.02l-0.07-7.02
		C177.064,250.755,179.403,247.272,179.403,247.272"/>
	<path fill="#CDE9EE" d="M137.041,184.255c0,3.472,2.223,6.285,4.966,6.285c2.742,0,4.966-2.813,4.966-6.285
		s-2.224-6.286-4.966-6.286C139.264,177.969,137.041,180.783,137.041,184.255"/>
	<path fill="#FFFFFF" d="M137.194,182.576c0,3.417,2.188,6.188,4.889,6.188c2.701,0,4.89-2.771,4.89-6.188
		c0-3.418-2.188-6.188-4.89-6.188C139.383,176.388,137.194,179.158,137.194,182.576"/>
	<path fill="#474746" d="M140.785,179.386c-0.039,0.151-0.066,0.31-0.066,0.478c0,0.872,0.568,1.577,1.269,1.577
		c0.623,0,1.139-0.558,1.245-1.293c0.399,0.523,0.646,1.229,0.646,2.008c0,1.615-1.052,2.922-2.349,2.922
		c-1.296,0-2.349-1.308-2.349-2.922C139.181,180.866,139.853,179.773,140.785,179.386"/>
	<path fill="#CDE9EE" d="M113.205,184.255c0,3.472,2.223,6.285,4.966,6.285c2.743,0,4.966-2.813,4.966-6.285
		s-2.223-6.286-4.966-6.286C115.428,177.969,113.205,180.783,113.205,184.255"/>
	<path fill="#FFFFFF" d="M113.358,182.576c0,3.417,2.189,6.188,4.89,6.188s4.889-2.771,4.889-6.188c0-3.418-2.188-6.188-4.889-6.188
		S113.358,179.158,113.358,182.576"/>
	<path fill="#474746" d="M117.867,179.386c-0.039,0.151-0.066,0.31-0.066,0.478c0,0.872,0.568,1.577,1.269,1.577
		c0.622,0,1.138-0.558,1.245-1.293c0.399,0.523,0.646,1.229,0.646,2.008c0,1.615-1.052,2.922-2.35,2.922s-2.349-1.308-2.349-2.922
		C116.262,180.866,116.935,179.773,117.867,179.386"/>
	<path fill="#545352" d="M154.934,189.187c-0.312,0.938-1.37,1.187-4.385,1.77l-0.206,0.041c-2.953,0.565-8.233,0.492-11.126,0.069
		c-0.124-0.019-0.245-0.036-0.36-0.056c-2.68-0.453-2.985-0.8-3.848-2.19c-0.891-1.438-1.438-5.66-1.539-6.493l-0.005-0.042
		c-0.106-0.88-0.16-1.32,0.971-1.827c1.521-0.682,8.271-1.634,11.035-1.758c2.184-0.097,6.812,0.208,8.928,0.517
		c0.332,0.049,0.578,0.093,0.729,0.134c0.243,0.065,1.141,0.501,1.095,1.454C156.164,182.062,155.354,187.918,154.934,189.187
		L154.934,189.187z M125.498,182.286l-0.005,0.042c-0.101,0.833-0.648,5.055-1.539,6.493c-0.862,1.39-1.167,1.737-3.848,2.19
		c-0.114,0.02-0.235,0.037-0.36,0.056c-2.892,0.423-8.173,0.496-11.127-0.069l-0.205-0.041c-3.014-0.583-4.072-0.832-4.384-1.77
		c-0.421-1.268-1.229-7.125-1.289-8.382c-0.045-0.953,0.851-1.389,1.094-1.454c0.152-0.041,0.398-0.085,0.729-0.134
		c2.116-0.309,6.744-0.613,8.928-0.517c2.766,0.124,9.514,1.077,11.035,1.758C125.658,180.965,125.605,181.406,125.498,182.286
		L125.498,182.286z M158.805,176.708c-2.215-0.323-6.079-0.69-10.719-0.453c-6.037,0.31-11.21,1.148-14.3,1.649
		c-0.923,0.149-1.647,0.268-2.2,0.34l-0.603,0.082c-0.679,0.094-1.123,0.153-1.502,0.171c-0.378-0.019-0.823-0.078-1.5-0.171
		l-0.604-0.082c-0.553-0.073-1.277-0.191-2.2-0.34c-3.089-0.501-8.262-1.339-14.299-1.649c-4.639-0.237-8.504,0.13-10.719,0.453
		c0,0-2.363,0.301-4.384,1.156l0.385,2.568c0,0,2.135-0.508,4.221-0.787c0.388,3.622,1.142,8.277,1.142,8.277l0.012,0.144
		c0.057,0.235,0.111,0.462,0.168,0.711c0.43,1.83,0.856,2.905,2.572,3.552c1.686,0.636,5.674,1.225,9.697,1.433
		c1.495,0.078,3.193-0.015,4.91-0.265c2.547-0.372,4.85-1.058,5.73-1.708c1.281-0.946,1.965-3.328,2.419-4.903l0.136-0.465
		c0.16-0.538,0.299-1.101,0.434-1.648c0.194-0.786,0.393-1.598,0.564-1.877c0.031-0.049,0.174-0.219,0.735-0.301
		c0.172-0.025,0.367-0.038,0.581-0.041c0.214,0.003,0.409,0.016,0.582,0.041c0.56,0.082,0.703,0.251,0.734,0.301
		c0.17,0.28,0.37,1.092,0.563,1.877c0.135,0.547,0.274,1.111,0.435,1.648l0.136,0.465c0.452,1.575,1.138,3.957,2.419,4.903
		c0.88,0.65,3.183,1.336,5.729,1.708c1.718,0.25,3.415,0.343,4.911,0.265c4.022-0.208,8.011-0.797,9.697-1.433
		c1.716-0.646,2.143-1.722,2.572-3.552c0.058-0.249,0.111-0.476,0.168-0.711l0.013-0.144c0,0,0.754-4.655,1.142-8.277
		c2.086,0.279,4.221,0.787,4.221,0.787l0.386-2.568C161.167,177.009,158.805,176.708,158.805,176.708L158.805,176.708z"/>
	<path fill="#A0D1DE" d="M119.704,170.204c0,0-5.523-2.634-8.684,2.256c0,0-0.327-4.863,4.134-5.407
		C119.615,166.509,119.704,170.204,119.704,170.204"/>
	<path fill="#A0D1DE" d="M117.633,163.056c0,0-5.12-2.416-7.453,2.228c0,0-0.762-4.057,2.892-5.037
		C116.726,159.268,117.633,163.056,117.633,163.056"/>
	<path fill="#A0D1DE" d="M139.489,173.186c0,0,4.289-2.046,6.745,1.753c0,0,0.254-3.777-3.211-4.2
		C139.559,170.316,139.489,173.186,139.489,173.186"/>
	<path fill="#A0D1DE" d="M142.539,166.42c0,0,4.341-0.703,5.084,3.265c0,0,1.44-2.864-1.075-4.38
		C144.031,163.787,142.539,166.42,142.539,166.42"/>
	<path fill="#B2DCE5" d="M119.32,208.735c0,0,3.031-2.037,4.82-2.317c0,0,0.39,3.844,2.167,5.737c0,0,3.837-3.458,7.63-3.704
		c0,0,0.979,2.107,2.569,2.89l-0.01,0.024c0.574,0.358,1.277,0.721,1.958,0.871c0,0,2.178-1.317,2.808-3.724
		c0,0,0.21,5.08-2.979,7.85c0,0-2.432-1.187-4.184-3.087c-0.525-0.512-1.074-1.108-1.339-1.593c0,0-5.626,3.979-5.832,6.25
		c0,0-4.061-3.96-5.446-7.011c0,0-2.71,0.855-3.462,1.406c0,0-2.178-3.563-2.621-6.777
		C115.399,205.551,118.02,208.053,119.32,208.735"/>
	<path fill="#545352" d="M129.547,198.75c-0.224-0.048,5.707,0.41,11.53,0.203c0,0,0.312-1.11,0.759-1.721
		c0,0-0.098,1.87,0.426,2.253c0,0-2.915,1.147-5.854,1.138c0,0,3.202-0.534,4.277-1.086
		C140.686,199.537,134.841,199.862,129.547,198.75"/>
</g>
</svg>
