<?xml version="1.0" encoding="utf-8"?>
<!-- Generator: Adobe Illustrator 16.0.3, SVG Export Plug-In . SVG Version: 6.00 Build 0)  -->
<!DOCTYPE svg PUBLIC "-//W3C//DTD SVG 1.1//EN" "http://www.w3.org/Graphics/SVG/1.1/DTD/svg11.dtd">
<svg version="1.1" id="Ebene_1" xmlns="http://www.w3.org/2000/svg" xmlns:xlink="http://www.w3.org/1999/xlink" x="0px" y="0px"
	 width="256px" height="256px" viewBox="0 2 256 256" enable-background="new 0 2 256 256" xml:space="preserve">
<g>
	<path fill="#9EDCF2" d="M184.1,193.986c0,10.696-24.779,19.315-55.33,19.315s-55.329-8.695-55.329-19.315
		c0-10.696,24.778-19.315,55.329-19.315S184.1,183.29,184.1,193.986L184.1,193.986z"/>
	<g>
		<g>
			<defs>
				<path id="SVGID_1_" d="M104.991,228.615c1.231,5.771,4.232,9.157,7.233,11.158h31.627c3.848-2.616,7.773-7.542,7.773-16.776
					v-23.855c0,0,0.461-5.925,5.926-7.849c0,0,3.154-2.231-0.232-3.463c0,0-15.006-1.231-15.006,11.081v18.161
					c0,0,0.617,6.694-2.924,9.466v-22.471c0,0,0.23-7.156,3.926-9.85c0,0,2.461-4.387-2.926-3.232c0,0-10.311,1.462-10.773,13.543
					l-0.23,23.086h-2.462l-0.231-23.086c-0.461-12.004-10.773-13.543-10.773-13.543c-5.387-1.231-2.924,3.232-2.924,3.232
					c3.693,2.693,3.925,9.85,3.925,9.85v22.701c-3.54-2.539-2.925-9.696-2.925-9.696v-18.161c0-12.313-15.006-11.081-15.006-11.081
					c-3.463,1.231-0.23,3.463-0.23,3.463c5.387,2.001,5.926,7.849,5.926,7.849v16.699L104.991,228.615z"/>
			</defs>
			<clipPath id="SVGID_2_">
				<use xlink:href="#SVGID_1_"  overflow="visible"/>
			</clipPath>
			<path clip-path="url(#SVGID_2_)" fill="#7DBCE7" d="M184.1,193.986c0,10.696-24.779,19.315-55.33,19.315
				s-55.329-8.695-55.329-19.315c0-10.696,24.778-19.315,55.329-19.315S184.1,183.29,184.1,193.986L184.1,193.986z"/>
		</g>
	</g>
	<path fill="#9EDCF2" d="M65.591,137.118l-1.616,5.541c0,0-0.385,2,1.463,2.385c2-0.076,1.847-1.924,1.692-2.463L65.591,137.118
		L65.591,137.118z"/>
	<path fill="#010101" d="M226.346,113.801l0.154-0.693c-16.236-3.232-32.859-3.309-42.939-2.847
		c1.615-5.925,2.154-12.851,2.154-20.469c0-11.004-4.156-19.777-10.773-26.395c1.154-3.771,2.693-12.159-1.539-22.855
		c0,0-7.541-2.386-24.701,9.08c-6.695-1.693-13.852-2.539-21.009-2.539c-7.85,0-15.775,1-23.24,3.001
		C86.753,38.002,78.98,40.465,78.98,40.465c-5.078,12.697-1.924,22.163-1,24.471c-6.002,6.464-9.619,14.698-9.619,24.779
		c0,7.618,0.847,14.467,3.001,20.393c-10.157-0.385-26.164-0.231-41.862,2.924l0.154,0.692c15.698-3.155,31.858-3.232,41.939-2.847
		c0.461,1.231,1,2.462,1.539,3.617c-10.004,0.308-27.011,1.616-43.325,6.233l0.231,0.693c16.468-4.618,33.628-5.849,43.555-6.157
		c6.003,11.082,17.699,18.315,38.631,20.546c-3.001,2.001-6.002,5.387-7.233,11.158c-4.079,1.924-16.853,6.695-24.548-6.541
		c0,0-4.31-7.849-12.544-8.465c0,0-8.003-0.153-0.538,5.002c0,0,5.31,2.54,9.003,12.005c0,0,4.849,16.16,28.011,10.927v16.545
		c0,0-0.461,5.926-5.925,7.85c0,0-3.232,2.232,0.23,3.463c0,0,15.006,1.231,15.006-11.081v-18.161c0,0-0.615-7.233,2.925-9.695
		v29.857c0,0-0.231,7.156-3.925,9.85c0,0-2.463,4.387,2.924,3.232c0,0,10.312-1.463,10.773-13.544l0.231-30.243h2.463l0.23,30.243
		c0.461,12.005,10.773,13.544,10.773,13.544c5.387,1.23,2.924-3.232,2.924-3.232c-3.693-2.693-3.924-9.85-3.924-9.85v-29.627
		c3.539,2.77,2.924,9.465,2.924,9.465v18.161c0,12.313,15.006,11.081,15.006,11.081c3.463-1.23,0.23-3.463,0.23-3.463
		c-5.387-2-5.926-7.85-5.926-7.85v-23.855c0-9.311-3.924-14.235-7.771-16.775c22.316-2.231,33.012-9.388,37.938-20.623
		c9.773,0.23,27.395,1.462,44.172,6.233l0.23-0.693c-16.699-4.694-34.168-5.925-44.094-6.233c0.461-1.154,0.846-2.309,1.23-3.54
		C193.334,110.569,210.031,110.569,226.346,113.801L226.346,113.801z"/>
	<path fill="#F5CCB3" d="M163.859,89.253c4.771,4.387,7.619,9.619,7.619,15.237c0,26.472-19.699,27.165-44.018,27.165
		c-24.316,0-44.017-3.693-44.017-27.165c0-5.618,2.771-10.85,7.541-15.16c7.927-7.233,21.316-3.386,36.476-3.386
		C142.621,85.944,155.934,82.02,163.859,89.253L163.859,89.253z"/>
	<path fill="#FFFFFF" d="M112.84,105.875c0,7.311-4.078,13.159-9.157,13.159s-9.157-5.926-9.157-13.159
		c0-7.311,4.078-13.159,9.157-13.159C108.762,92.639,112.84,98.564,112.84,105.875L112.84,105.875z"/>
	<path fill="#AF5C51" d="M109.916,106.029c0,4.848-2.771,8.773-6.079,8.773c-3.386,0-6.079-3.925-6.079-8.773
		s2.77-8.772,6.079-8.772C107.146,97.256,109.916,101.181,109.916,106.029L109.916,106.029z"/>
	<path fill="#FFFFFF" d="M162.014,105.875c0,7.311-4.078,13.159-9.158,13.159c-5.078,0-9.156-5.926-9.156-13.159
		c0-7.311,4.078-13.159,9.156-13.159C157.857,92.639,162.014,98.564,162.014,105.875L162.014,105.875z"/>
	<path fill="#AF5C51" d="M159.012,106.029c0,4.848-2.77,8.773-6.078,8.773c-3.387,0-6.08-3.925-6.08-8.773s2.77-8.772,6.08-8.772
		C156.318,97.256,159.012,101.181,159.012,106.029L159.012,106.029z"/>
	<path fill="#AF5C51" d="M129.924,117.572c0,1.231-1,2.309-2.309,2.309c-1.231,0-2.309-1-2.309-2.309s1-2.309,2.309-2.309
		C128.846,115.263,129.924,116.264,129.924,117.572L129.924,117.572z"/>
	<path fill="#AF5C51" d="M122.306,123.344c-0.154-0.385,0.077-0.77,0.462-0.924s0.77,0.077,0.923,0.462
		c0.616,1.692,2.155,2.771,3.925,2.771s3.309-1.154,3.924-2.771c0.154-0.385,0.539-0.616,0.924-0.462s0.615,0.539,0.463,0.924
		c-0.77,2.231-2.926,3.771-5.311,3.771C125.229,127.114,123.075,125.575,122.306,123.344L122.306,123.344z"/>
	<path fill="#C4E5D9" d="M71.439,133.809c0,0.616-0.692,1.078-1.616,1.078c-0.847,0-1.616-0.462-1.616-1.078
		c0-0.615,0.693-1.077,1.616-1.077C70.747,132.731,71.439,133.193,71.439,133.809L71.439,133.809z"/>
	<path fill="#C4E5D9" d="M75.902,136.271c0,0.615-0.692,1.077-1.615,1.077c-0.847,0-1.616-0.462-1.616-1.077
		s0.692-1.077,1.616-1.077C75.21,135.194,75.902,135.656,75.902,136.271L75.902,136.271z"/>
	<path fill="#C4E5D9" d="M78.596,139.504c0,0.615-0.692,1.077-1.615,1.077c-0.847,0-1.616-0.462-1.616-1.077
		c0-0.616,0.692-1.078,1.616-1.078C77.903,138.35,78.596,138.888,78.596,139.504L78.596,139.504z"/>
	<path fill="#C4E5D9" d="M81.059,143.197c0,0.616-0.692,1.077-1.616,1.077c-0.847,0-1.616-0.461-1.616-1.077
		s0.693-1.077,1.616-1.077C80.366,142.043,81.059,142.581,81.059,143.197L81.059,143.197z"/>
	<path fill="#C4E5D9" d="M83.752,146.583c0,0.615-0.692,1.078-1.616,1.078c-0.847,0-1.616-0.463-1.616-1.078
		s0.693-1.077,1.616-1.077C83.06,145.506,83.752,145.968,83.752,146.583L83.752,146.583z"/>
	<path fill="#C4E5D9" d="M87.445,149.585c0,0.615-0.692,1.076-1.615,1.076c-0.847,0-1.616-0.461-1.616-1.076
		c0-0.616,0.692-1.078,1.616-1.078C86.753,148.431,87.445,148.969,87.445,149.585L87.445,149.585z"/>
	<path fill="#C4E5D9" d="M92.602,151.509c0,0.615-0.692,1.076-1.616,1.076c-0.847,0-1.616-0.461-1.616-1.076
		c0-0.616,0.693-1.078,1.616-1.078C91.909,150.431,92.602,150.893,92.602,151.509L92.602,151.509z"/>
	<path fill="#C4E5D9" d="M97.758,151.509c0,0.615-0.693,1.076-1.616,1.076c-0.847,0-1.616-0.461-1.616-1.076
		c0-0.616,0.692-1.078,1.616-1.078C97.064,150.431,97.758,150.893,97.758,151.509L97.758,151.509z"/>
	<path fill="#C4E5D9" d="M102.99,150.661c0,0.616-0.692,1.078-1.616,1.078c-0.847,0-1.616-0.462-1.616-1.078
		c0-0.615,0.693-1.076,1.616-1.076C102.221,149.585,102.99,150.046,102.99,150.661L102.99,150.661z"/>
</g>
</svg>
