<?xml version="1.0" encoding="utf-8"?>
<!-- Generator: Adobe Illustrator 16.0.3, SVG Export Plug-In . SVG Version: 6.00 Build 0)  -->
<!DOCTYPE svg PUBLIC "-//W3C//DTD SVG 1.1//EN" "http://www.w3.org/Graphics/SVG/1.1/DTD/svg11.dtd">
<svg version="1.1" id="Ebene_1" xmlns="http://www.w3.org/2000/svg" xmlns:xlink="http://www.w3.org/1999/xlink" x="0px" y="0px"
	 width="256px" height="256px" viewBox="0 44 256 256" enable-background="new 0 44 256 256" xml:space="preserve">
<g>
	<path fill="#FBA919" d="M58.861,117.441c0,0,3.67,14.158,4.194,18.877c0.526,4.719-9.438,15.206-9.438,20.45
		s2.095,14.682,13.632,19.403c11.538,4.719,13.109,16.778,13.109,24.121c0,7.342-4.194,21.497-4.194,21.497
		s-2.621,35.132,11.536,41.424s11.011,6.292,14.156,6.292c3.146,0,26.218,9.44,39.851,5.77c13.634-3.67,17.301-7.864,17.301-7.864
		s13.636,1.048,17.83-11.015c4.197-12.059,6.817-37.227,5.243-48.763c-1.572-11.539-3.67-26.742,5.768-31.986
		c9.44-5.245,19.402-11.535,17.829-16.78c-1.573-5.244-9.962-12.585-9.962-12.585s-2.097-13.107-0.525-16.254
		c1.572-3.146,11.012-11.013,5.767-16.78c-5.239-5.768-14.681-5.768-14.681-5.768l-12.06,1.047c0,0-20.449-18.352-47.192-17.303
		c-26.741,1.048-43.522,17.303-43.522,17.303s-8.913-3.146-16.779,0C58.857,111.674,57.288,108.526,58.861,117.441L58.861,117.441
		L58.861,117.441z"/>
	<path fill="#E78724" d="M106.773,195.513c0,0-10.384,15.877-18,27.144c-1.179,1.744,7.617,1.865,7.617,1.865L106.773,195.513
		L106.773,195.513z"/>
	<path fill="#E78724" d="M111.717,162.594c0,0-3.13,7.809-4.845,11.949c-1.861,4.501-8.958,6.739-8.958,6.739
		s3.679-3.857,3.679-13.632c0-4.101,5.294-5.731,5.294-5.731L111.717,162.594L111.717,162.594z"/>
	<path fill="#E78724" d="M108.555,167.009c0,0-6.413,7.634-18.32,3.358c-11.911-4.274-13.131-19.543-13.131-23.819
		s22.597,4.275,25.651,6.107C105.811,154.489,111.608,161.817,108.555,167.009L108.555,167.009L108.555,167.009z"/>
	<path fill="#E78724" d="M63.576,85.437c0,0,10.993-2.139,18.32,3.664c7.331,5.801,9.465,10.383,9.465,10.383l-12.352,9.791
		c0,0-5.968-2.767-7.801-10.708C69.377,90.628,70.598,86.964,63.576,85.437L63.576,85.437L63.576,85.437z"/>
	<path fill="#E78724" d="M105.349,144.959c-4.733-6.718-12.533-9.649-18.76-10.134c-10.618-0.831-15.66,2.923-15.66,2.923
		s17.39,0.736,22.403,7.319c9.332,12.253,22.945,13.249,25.122,10.558c-2.518,0.125-5.286-1.122-8.25-3.924
		C108.352,149.948,106.851,147.091,105.349,144.959L105.349,144.959L105.349,144.959z"/>
	<path fill="#E78724" d="M75.992,168.714c0,0-19.295-6.633-15.628-13.35c3.664-6.719,0.748-10.379,0.748-10.379
		s-10.774,8.042-8.029,16.592c1.687,5.248,4.518,9.047,20.061,16.333c7.456,13.847,1.54,38.773,1.894,38.891
		c0.591,0.195,10.468-4.883,9.793-28.203C84.625,181.437,84.053,171.66,75.992,168.714L75.992,168.714L75.992,168.714z"/>
	<path fill="#E78724" d="M101.276,97.385c-8.09,4.11-19.174,9.834-19.174,9.834l4.363,2.183c-0.417,0.674-0.618,1.076-0.618,1.076
		l4.478,2.037c0,0,10.93,7.917,17.627,13.008c-2.233-6.876-8.787-17.677-8.787-17.677S97.307,102.883,101.276,97.385L101.276,97.385
		L101.276,97.385z"/>
	<path fill="#E78724" d="M128.154,264.932c-24.868,0-33.291-12.624-33.291-12.624l3.886,9.463
		c1.469,4.095,17.14,16.835,29.367,16.835"/>
	<path fill="#E78724" d="M97.588,243.778c0,0,2.288,13.982,11.449,13.982c7.785,0,10.079-11.813,10.079-14.253L97.588,243.778
		L97.588,243.778z"/>
	<path fill="#E78724" d="M82.342,222.689c0.814-2.241,3.664-11.3,4.58-19.545c1.098-9.873,0.698-24.314,0.698-24.314
		s-2.444,9.467-4.582,10.995c-2.136,1.527-6.107,11.908-6.107,11.908s-2.127,15.455-3.139,20.649
		C76.592,222.944,78.951,221.294,82.342,222.689L82.342,222.689L82.342,222.689z"/>
	<path fill="#E78724" d="M60.22,161.425c0,0,5.189-1.833,6.718-13.13c1.526-11.3-1.834-21.071-1.834-21.071
		s0.305,15.574-1.526,18.628c-1.833,3.052-3.358,3.968-5.497,7.939C55.942,157.762,58.997,160.203,60.22,161.425L60.22,161.425
		L60.22,161.425z"/>
	<path fill="#FDC168" d="M66.417,88.109l-1.06-0.671C62.232,87.543,66.417,88.109,66.417,88.109L66.417,88.109L66.417,88.109z"/>
	<path fill="#FBA919" d="M105.5,94.041c0,0-4.885-0.814-7.329-4.478c-2.444-3.665-9.365-10.995-20.397-11.077
		c-11.032-0.083-21.947,2.932-21.947,2.932l9.527,6.02c1.008-0.032,2.77-0.019,5.684,0.078
		c11.958,0.397,13.798,12.224,13.798,12.224l42.14-5.802"/>
	<path fill="#FFFFFF" d="M109.573,159.365c0,0-5.7,5.701-14.456,3.867c-8.755-1.831-14.048-5.7-14.456-12.419
		c-0.407-6.718,1.834-9.364,1.834-9.364s9.771,3.056,14.456,7.128C101.634,152.647,105.094,159.162,109.573,159.365L109.573,159.365
		L109.573,159.365z"/>
	<path fill="#C9C9C9" d="M102.674,157.328c0,0-4.944,2.259-10.47,0.419c-7.235-2.413-7.716-9.936-7.716-9.936
		s-4.438,13.023,8.004,15.53c9.979,2.01,15.881-3.772,15.881-3.772L102.674,157.328L102.674,157.328z"/>
	<path fill="#463014" d="M106.188,91.277c-0.532-11.169,8.624-20.064,11.796-20.443c0.175,1.893-0.177,9.276,2.995,11.545
		c0.923-6.029,4.045-12.677,16.375-17.032c-2.641,7.003-0.353,12.87,0.736,15.589c8.42-7.643,14.092-6.379,14.092-6.379
		s-5.849,10.095-3.562,16.719C131.72,89.95,106.27,93.071,106.188,91.277L106.188,91.277L106.188,91.277z"/>
	<path fill="#463014" d="M70.355,108.29c-4.032-3.345-1.026-6.45-1.346-10.251c-0.173-2.022-0.333-3.931-1-4.983
		c-3.711-5.86-12.466-7.639-12.554-7.657l-4.109-0.805l2.72-3.182c0.352-0.412,11.522-11.07,28.808-5.489
		c12.092,3.9,21.043,17.124,21.377,17.659l-6.063,2.851c-0.071-0.113-7.148-12.542-17.521-15.887
		c-8.386-2.707-16.114-0.132-19.425,1.555c3.52,1.405,8.12,3.963,10.893,8.341c1.308,2.067,1.529,4.67,1.741,7.19
		c0.281,3.337,0.544,6.486,3,8.526L70.355,108.29L70.355,108.29z"/>
	<path fill="#463014" d="M59.584,157.13c0,0,5.081-6.3,6.585-18.56c0.592-4.829-0.459-14.354-2.139-18.018
		c0.305,9.008-1.985,18.018-1.985,18.018S60.502,155.298,59.584,157.13L59.584,157.13L59.584,157.13z"/>
	<path fill="#463014" d="M86.376,101.927c-0.002-0.013-1.63-7.126-6.143-10.717c-6.365-5.063-14.138-2.37-14.213-2.346l-1.129-3.486
		c0.376-0.123,9.261-2.922,17.448,2.833c8.236,5.788,9.225,11.034,9.311,11.614L86.376,101.927L86.376,101.927z"/>
	<path fill="#463014" d="M75.542,152.612c0,0-2.666-3.816-2.186-8.012c0.238-2.073,1.199-4.2,2.914-4.956
		c3.187-1.4,4.598,2.212,4.598,2.212S76.384,142.963,75.542,152.612L75.542,152.612L75.542,152.612z"/>
	<path fill="#463014" d="M104.81,158.428c0.112,0.208,0.168,0.324,0.168,0.324s-8.314,6.239-16.834-0.092
		c-4.561-3.392-4.13-11.784-2.732-15.343c3.633,0.824,6.715,2.309,9.291,4.042c-3.255-2.905-6.105-5.044-6.098-5.094l-3.7-1.048
		l-7.192-2.465c-0.092,0.548-2.715,12.844,4.856,21.222c3.356,3.715,19.089,12.033,26.56-2.191L104.81,158.428L104.81,158.428z"/>
	<path fill="#463014" d="M104.032,159.342c4.681,7.125,16.492,3.053,16.288-4.479c0,0-7.892,4.355-14.864-3.664
		c-4.071-4.682-17.114-17.59-34.803-13.3C82.869,140.585,99.041,151.746,104.032,159.342L104.032,159.342L104.032,159.342z"/>
	<path fill="#463014" d="M69,179.449c1.126,0.65,5.098,4.764,5.1,10.916c0,3.084-0.307,18.58-1.833,28.048
		c2.296,1.491,3.896,1.809,6.182,3.329c1.145-10.964,1.966-26.854,1.583-33.271c-0.438-7.313-4.353-12.219-7.984-14.312
		c-1.137-0.655-2.325-1.298-3.522-1.945c-6.219-3.36-12.649-6.836-12.649-12.772c0-4.643,1.805-6.095,3.716-7.635l0.206-0.167
		c1.268-1.024,2.703-2.186,3.554-4.094c2.319-5.216,2.699-18.504,0-21.878c-1.346-1.681-4.951-7.333-3.915-11.131
		c0.395-1.45,1.308-2.524,2.794-3.286c1.573-0.806,3.697-1.214,6.313-1.214c5.138,0,10.836,1.564,13.776,2.495
		c10.506,3.33,23.182,12.929,26.816,15.793c0.104,0.08,0.165,0.126,0.176,0.134l2.325,1.617l-1.454-2.433
		c-0.09-0.152-9.3-15.295-25.767-20.848c-3.204-1.081-9.498-2.893-15.684-2.893c-3.683,0-6.807,0.643-9.282,1.91
		c-3.016,1.542-5.058,4.004-5.906,7.116c-2.08,7.627,4.693,16.12,4.924,16.391c0.79,1.409,1.125,11.649-0.699,15.747
		c-0.251,0.566-0.939,1.122-1.81,1.825c-0.273,0.221-0.579,0.45-0.901,0.694c-2.574,1.943-6.465,4.877-6.465,11.643
		c0,9.256,9.381,14.274,16.921,18.311C66.752,178.205,67.933,178.835,69,179.449L69,179.449L69,179.449z"/>
	<path fill="#463014" d="M70.355,108.29c-4.032-3.345-1.026-6.45-1.346-10.251c-0.173-2.022-0.333-3.931-1-4.983
		c-3.711-5.86-12.466-7.639-12.554-7.657l-4.109-0.805l2.72-3.182c0.352-0.412,11.522-11.07,28.808-5.489
		c12.092,3.9,21.043,17.124,21.377,17.659l-6.063,2.851c-0.071-0.113-7.148-12.542-17.521-15.887
		c-8.386-2.707-16.114-0.132-19.425,1.555c3.52,1.405,8.12,3.963,10.893,8.341c1.308,2.067,1.529,4.67,1.741,7.19
		c0.281,3.337,0.544,6.486,3,8.526L70.355,108.29L70.355,108.29z"/>
	<path fill="#463014" d="M70.224,108.976l-0.26-0.216c-2.991-2.482-2.46-4.927-1.946-7.292c0.233-1.091,0.479-2.22,0.38-3.377
		c-0.164-1.947-0.32-3.783-0.906-4.71c-3.534-5.58-12.073-7.367-12.158-7.385l-5.132-1.006l3.402-3.978
		c0.062-0.074,7.234-7.314,19.381-7.314c3.311,0,6.704,0.551,10.079,1.641c12.62,4.069,21.623,17.78,21.708,17.916l0.364,0.582
		l-7.171,3.374l-0.288-0.457c-0.771-1.316-7.572-12.53-17.191-15.633c-2.363-0.763-4.852-1.147-7.396-1.147
		c-4.609,0-8.346,1.256-10.335,2.099c3.324,1.497,7.354,4.016,9.904,8.038c1.386,2.19,1.611,4.868,1.831,7.456
		c0.271,3.217,0.525,6.242,2.782,8.115l0.852,0.707L70.224,108.976L70.224,108.976z"/>
	<path fill="#463014" d="M86.376,101.927c-0.002-0.013-1.63-7.126-6.143-10.717c-6.365-5.063-14.138-2.37-14.213-2.346l-1.129-3.486
		c0.376-0.123,9.261-2.922,17.448,2.833c8.236,5.788,9.225,11.034,9.311,11.614L86.376,101.927L86.376,101.927z"/>
	<path fill="#463014" d="M85.938,102.759l-0.159-0.7c-0.017-0.068-1.613-6.938-5.929-10.37c-2.459-1.958-5.426-2.953-8.812-2.953
		c-2.642,0-4.606,0.63-4.82,0.705l-0.583,0.194l-1.514-4.651l0.581-0.188c0.26-0.082,2.618-0.817,5.954-0.817
		c4.4,0,8.56,1.292,12.036,3.731c8.442,5.934,9.473,11.42,9.562,12.025l0.074,0.479L85.938,102.759L85.938,102.759z M71.04,87.517
		c3.617,0,6.93,1.112,9.573,3.215c3.832,3.052,5.634,8.44,6.179,10.371l4.154-1.655c-0.376-1.466-2.032-5.867-8.958-10.736
		c-3.313-2.329-7.125-3.509-11.332-3.509c-2.309,0-4.102,0.367-4.988,0.592l0.75,2.315C67.287,87.876,68.958,87.517,71.04,87.517
		L71.04,87.517L71.04,87.517z"/>
	<path fill="#463014" d="M108.654,254.405L108.654,254.405c-1.804,0-3.646-0.655-4.922-1.76c-0.977-0.842-4.281-3.877-5.738-7.595
		c-0.543-1.391-0.421-2.502,0.367-3.303c0.544-0.549,1.673-1.204,3.964-1.204l1.63-0.002c1.943-0.002,5.214-0.002,8.009-0.002h2.68
		c1.743,0,2.993,0.376,3.711,1.111c0.923,0.947,0.627,2.154,0.37,2.788c-0.449,1.112-2.309,4.731-5.455,8.096
		C112.144,253.741,110.503,254.405,108.654,254.405L108.654,254.405L108.654,254.405z"/>
	<path fill="#463014" d="M110.546,159.761l-6.515-0.419c0,0,1.666,2.936,2.744,6.732c1.218,4.294-1.114,10.571-1.114,10.571
		S114.347,166.811,110.546,159.761L110.546,159.761L110.546,159.761z"/>
	<path fill="#463014" d="M102.414,271.607c-23.187-1.782-31.345-23.691-31.345-28.256l6.055,0.003l-3.028-0.003h3.028
		c0.03,1.973,6.192,20.716,25.754,22.22L102.414,271.607L102.414,271.607z"/>
	<path fill="#FFFFFF" d="M95.898,232.354c-0.363-2.095-0.4-4.081,0.042-6.032c-1.762-1.324-4.925-1.815-7.297-2.586
		c-1.939-1.229-11.868,1.259-19.07-7.458c-9.024-10.915-7.125-17.431-7.125-17.431c-2.313,2.57-4.556,1.591-8.083,13.578
		c-3.531,11.988,1.658,20.347,11.331,28.737c4.569,3.964,11.029,5.597,16.585,6.222c-1.861-1.868,3.18-2.056,6.654-3.356
		c-0.277-2.805,0.187-5.527,2.278-7.72c1.261-1.323,2.884-2.112,4.567-2.742c0.094-0.218,0.173-0.418,0.263-0.627
		C95.987,232.748,95.933,232.555,95.898,232.354L95.898,232.354L95.898,232.354z"/>
	<path fill="#C9C9C9" d="M88.887,243.955c-0.201-0.589-0.353-1.189-0.501-1.793c-0.161-0.659-0.96-2.528,0.025-0.396
		c-0.253-0.546-0.419-1.109-0.541-1.677c-15.665-0.02-29.292-10.773-26.659-33.386c-2.051-2.723-4.922,5.49-4.922,5.49
		S48.447,234.966,68.7,243.79c6.749,2.943,12.712,5.052,14.119,4.201c2.931,0.596,5.577-1.448,6.569-2.792
		C89.202,244.787,89.033,244.373,88.887,243.955L88.887,243.955L88.887,243.955z"/>
	<path fill="#463014" d="M95.615,229.074c0.024-1.908,0.414-3.757,1.336-5.599c0.064-0.127,0.14-0.248,0.209-0.372
		c-6.028-0.052-12.97-0.629-18.882-2.995c-6.498-2.599-14.625-11.49-16.022-21.938c0,0-12.237,9.442-8.641,29.653
		c3.375,18.979,19.256,25.166,37.369,26.213c0.009-0.123-2.038-4.351-1.391-6.939c-10.284,0.747-21.785-3.227-27.337-12.361
		c-5.083-8.361-3.657-22.637-1.568-24.729C65.784,226.087,84.119,229.355,95.615,229.074L95.615,229.074L95.615,229.074z"/>
	<path fill="#463014" d="M97.513,217.563c-3.26,9.565-9.917,17.306-9.917,17.306s9.158-0.417,9.664-2.037
		c0.374-1.194,8.269-19.676,11.299-41.326C105.708,196.188,97.792,216.745,97.513,217.563L97.513,217.563L97.513,217.563z"/>
	<path fill="#E78724" d="M149.397,195.513c0,0,10.381,15.877,18,27.144c1.18,1.744-7.619,1.865-7.619,1.865L149.397,195.513
		L149.397,195.513z"/>
	<path fill="#E78724" d="M144.452,162.594c0,0,3.132,7.809,4.843,11.949c1.861,4.501,8.957,6.739,8.957,6.739
		s-3.677-3.857-3.677-13.632c0-4.101-5.294-5.731-5.294-5.731L144.452,162.594L144.452,162.594z"/>
	<path fill="#E78724" d="M147.614,167.009c0,0,6.412,7.634,18.322,3.358c11.911-4.275,13.132-19.543,13.132-23.819
		s-22.598,4.275-25.652,6.107C150.362,154.489,144.561,161.817,147.614,167.009L147.614,167.009L147.614,167.009z"/>
	<path fill="#E78724" d="M192.595,85.437c0,0-10.992-2.139-18.322,3.664c-7.328,5.801-9.468,10.383-9.468,10.383l12.354,9.791
		c0,0,5.97-2.767,7.802-10.708C186.793,90.628,185.571,86.964,192.595,85.437L192.595,85.437L192.595,85.437z"/>
	<path fill="#E78724" d="M150.821,144.959c4.732-6.718,12.529-9.649,18.759-10.134c10.621-0.831,15.659,2.923,15.659,2.923
		s-17.391,0.736-22.403,7.319c-9.333,12.253-22.941,13.249-25.118,10.558c2.516,0.125,5.287-1.122,8.248-3.924
		C147.818,149.948,149.32,147.091,150.821,144.959L150.821,144.959L150.821,144.959z"/>
	<path fill="#E78724" d="M180.179,168.714c0,0,19.292-6.633,15.628-13.35c-3.664-6.719-0.749-10.379-0.749-10.379
		s10.775,8.042,8.028,16.592c-1.687,5.248-4.519,9.047-20.062,16.333c-7.455,13.847-1.539,38.773-1.892,38.891
		c-0.592,0.195-10.468-4.883-9.792-28.203C171.544,181.437,172.118,171.66,180.179,168.714L180.179,168.714L180.179,168.714z"/>
	<path fill="#E78724" d="M154.895,97.385c8.088,4.11,19.174,9.834,19.174,9.834l-4.361,2.183c0.415,0.674,0.617,1.076,0.617,1.076
		l-4.478,2.037c0,0-10.931,7.917-17.627,13.008c2.229-6.876,8.784-17.677,8.784-17.677S158.865,102.883,154.895,97.385
		L154.895,97.385L154.895,97.385z"/>
	<path fill="#E78724" d="M128.018,264.932c24.864,0,33.287-12.624,33.287-12.624l-3.883,9.463
		c-1.471,4.095-17.142,16.835-29.367,16.835"/>
	<path fill="#E78724" d="M158.583,243.778c0,0-2.29,13.982-11.45,13.982c-7.783,0-10.077-11.813-10.077-14.253L158.583,243.778
		L158.583,243.778z"/>
	<path fill="#E78724" d="M173.827,222.689c-0.813-2.241-3.663-11.3-4.582-19.545c-1.097-9.873-0.694-24.314-0.694-24.314
		s2.443,9.467,4.579,10.995c2.139,1.527,6.108,11.908,6.108,11.908s2.126,15.455,3.139,20.649
		C179.576,222.944,177.22,221.294,173.827,222.689L173.827,222.689L173.827,222.689z"/>
	<path fill="#E78724" d="M195.952,161.425c0,0-5.192-1.833-6.719-13.13c-1.524-11.3,1.834-21.071,1.834-21.071
		s-0.308,15.574,1.526,18.628c1.832,3.054,3.358,3.968,5.497,7.939C200.227,157.762,197.174,160.203,195.952,161.425
		L195.952,161.425L195.952,161.425z"/>
	<path fill="#FDC168" d="M189.753,88.109l1.062-0.671C193.939,87.543,189.753,88.109,189.753,88.109L189.753,88.109L189.753,88.109z
		"/>
	<path fill="#FBA919" d="M150.667,94.041c0,0,4.888-0.814,7.329-4.478c2.444-3.665,9.367-10.995,20.4-11.077
		c11.032-0.083,21.946,2.932,21.946,2.932l-9.528,6.02c-1.008-0.032-2.77-0.019-5.687,0.078
		c-11.955,0.397-13.796,12.224-13.796,12.224l-42.139-5.802"/>
	<path fill="#FFFFFF" d="M146.597,159.365c0,0,5.701,5.701,14.454,3.867c8.756-1.831,14.049-5.7,14.457-12.419
		c0.405-6.718-1.833-9.364-1.833-9.364s-9.772,3.056-14.454,7.128C154.537,152.648,151.078,159.162,146.597,159.365L146.597,159.365
		L146.597,159.365z"/>
	<path fill="#C9C9C9" d="M153.494,157.328c0,0,4.945,2.259,10.471,0.419c7.235-2.413,7.718-9.936,7.718-9.936
		s4.435,13.023-8.008,15.53c-9.977,2.01-15.88-3.772-15.88-3.772L153.494,157.328L153.494,157.328z"/>
	<path fill="#463014" d="M185.814,108.29c4.033-3.345,1.029-6.45,1.348-10.251c0.171-2.022,0.33-3.931,0.998-4.983
		c3.711-5.86,12.467-7.639,12.556-7.657l4.109-0.805l-2.72-3.182c-0.354-0.412-11.522-11.07-28.811-5.489
		c-12.091,3.9-21.041,17.124-21.374,17.659l6.06,2.851c0.074-0.113,7.151-12.542,17.525-15.887
		c8.385-2.707,16.112-0.132,19.421,1.555c-3.518,1.405-8.12,3.963-10.892,8.341c-1.308,2.067-1.527,4.67-1.739,7.19
		c-0.28,3.337-0.547,6.486-3.003,8.526L185.814,108.29L185.814,108.29z"/>
	<path fill="#463014" d="M196.584,157.13c0,0-5.079-6.3-6.584-18.56c-0.592-4.829,0.457-14.354,2.137-18.018
		c-0.307,9.008,1.986,18.018,1.986,18.018S195.668,155.298,196.584,157.13L196.584,157.13L196.584,157.13z"/>
	<path fill="#463014" d="M169.795,101.927c0.002-0.013,1.63-7.126,6.143-10.717c6.365-5.063,14.139-2.37,14.211-2.346l1.132-3.486
		c-0.378-0.123-9.26-2.922-17.449,2.833c-8.237,5.788-9.224,11.034-9.312,11.614L169.795,101.927L169.795,101.927z"/>
	<path fill="#463014" d="M180.628,152.612c0,0,2.666-3.816,2.185-8.012c-0.237-2.073-1.198-4.2-2.911-4.956
		c-3.188-1.4-4.601,2.212-4.601,2.212S179.786,142.963,180.628,152.612L180.628,152.612L180.628,152.612z"/>
	<path fill="#463014" d="M151.36,158.428c-0.11,0.208-0.168,0.324-0.168,0.324s8.311,6.239,16.831-0.092
		c4.564-3.392,4.134-11.784,2.733-15.343c-3.632,0.824-6.714,2.309-9.29,4.042c3.255-2.905,6.105-5.044,6.095-5.094l3.703-1.048
		l7.19-2.464c0.093,0.548,2.716,12.844-4.859,21.222c-3.354,3.715-19.089,12.034-26.556-2.191L151.36,158.428L151.36,158.428z"/>
	<path fill="#463014" d="M152.137,159.342c-4.682,7.125-16.489,3.053-16.285-4.479c0,0,7.89,4.355,14.862-3.664
		c4.071-4.682,17.117-17.59,34.806-13.3C173.304,140.585,157.131,151.746,152.137,159.342L152.137,159.342L152.137,159.342z"/>
	<path fill="#463014" d="M187.172,179.449c-1.127,0.65-5.101,4.764-5.101,10.916c-0.002,3.084,0.306,18.58,1.835,28.048
		c-2.298,1.491-3.896,1.809-6.185,3.329c-1.145-10.964-1.968-26.854-1.582-33.271c0.437-7.313,4.351-12.219,7.98-14.312
		c1.138-0.655,2.326-1.298,3.526-1.945c6.219-3.36,12.649-6.836,12.649-12.772c0-4.643-1.807-6.095-3.719-7.635l-0.202-0.167
		c-1.269-1.024-2.707-2.186-3.554-4.094c-2.321-5.216-2.702-18.504-0.003-21.878c1.345-1.681,4.953-7.333,3.917-11.131
		c-0.397-1.45-1.312-2.524-2.797-3.286c-1.573-0.806-3.695-1.214-6.313-1.214c-5.136,0-10.837,1.564-13.774,2.495
		c-10.505,3.33-23.182,12.929-26.818,15.793c-0.104,0.08-0.164,0.126-0.175,0.134l-2.327,1.617l1.454-2.433
		c0.093-0.152,9.301-15.295,25.768-20.848c3.203-1.081,9.497-2.893,15.684-2.893c3.683,0,6.805,0.643,9.281,1.91
		c3.017,1.542,5.058,4.004,5.906,7.116c2.079,7.627-4.693,16.12-4.924,16.391c-0.79,1.409-1.124,11.649,0.697,15.747
		c0.251,0.566,0.938,1.122,1.812,1.825c0.273,0.221,0.575,0.45,0.901,0.694c2.574,1.943,6.464,4.877,6.464,11.643
		c0,9.256-9.382,14.274-16.919,18.311C189.418,178.205,188.236,178.835,187.172,179.449L187.172,179.449L187.172,179.449z"/>
	<path fill="#463014" d="M175.98,107.201c-1.492-2.527-5.307-7.407-14.104-11.695c-9.814-4.784-21.174-7.212-33.768-7.218v-0.002
		h-0.024h-0.024v0.001c-12.596,0.007-23.957,2.435-33.77,7.218c-8.795,4.289-12.61,9.168-14.104,11.695l-0.64,0.848l7.532,1.676
		l0.239-0.301l0.126-0.276c0.117-0.498,1.126-3.185,9.523-7.28c8.977-4.378,19.447-6.598,31.117-6.601
		c11.671,0.003,22.137,2.223,31.113,6.601c8.398,4.096,9.411,6.782,9.525,7.28l0.126,0.276l0.236,0.301l7.534-1.676L175.98,107.201
		L175.98,107.201z"/>
	<path fill="#463014" d="M185.814,108.29c4.033-3.345,1.029-6.45,1.348-10.251c0.171-2.022,0.33-3.931,0.998-4.983
		c3.711-5.86,12.467-7.639,12.556-7.657l4.109-0.805l-2.72-3.182c-0.354-0.412-11.522-11.07-28.811-5.489
		c-12.091,3.9-21.041,17.124-21.374,17.659l6.06,2.851c0.074-0.113,7.151-12.542,17.525-15.887
		c8.385-2.707,16.112-0.132,19.421,1.555c-3.518,1.405-8.12,3.963-10.892,8.341c-1.308,2.067-1.527,4.67-1.739,7.19
		c-0.28,3.337-0.547,6.486-3.003,8.526L185.814,108.29L185.814,108.29z"/>
	<path fill="#463014" d="M178.053,106.39l0.849-0.707c2.259-1.874,2.512-4.899,2.785-8.116c0.218-2.588,0.443-5.266,1.83-7.456
		c2.548-4.021,6.582-6.541,9.904-8.038c-1.989-0.843-5.727-2.099-10.336-2.099c-2.546,0-5.031,0.385-7.396,1.148
		c-9.622,3.103-16.421,14.317-17.19,15.632l-0.289,0.456l-7.171-3.372l0.364-0.583c0.084-0.135,9.084-13.846,21.705-17.916
		c3.375-1.09,6.767-1.641,10.081-1.641c12.146,0,19.319,7.241,19.381,7.314l3.401,3.977l-5.133,1.007
		c-0.085,0.017-8.625,1.804-12.16,7.384c-0.586,0.927-0.739,2.762-0.906,4.71c-0.097,1.158,0.146,2.287,0.383,3.377
		c0.513,2.366,1.044,4.812-1.949,7.292l-0.26,0.216L178.053,106.39L178.053,106.39z"/>
	<path fill="#463014" d="M169.795,101.927c0.002-0.013,1.63-7.126,6.143-10.717c6.365-5.063,14.139-2.37,14.211-2.346l1.132-3.486
		c-0.378-0.123-9.26-2.922-17.449,2.833c-8.237,5.788-9.224,11.034-9.312,11.614L169.795,101.927L169.795,101.927z"/>
	<path fill="#463014" d="M163.847,100.214l0.07-0.479c0.09-0.605,1.121-6.091,9.563-12.025c3.473-2.44,7.633-3.731,12.034-3.731
		c3.337,0,5.695,0.734,5.956,0.817l0.58,0.188l-1.514,4.651l-0.584-0.194c-0.219-0.073-2.181-0.705-4.823-0.705
		c-3.384,0-6.349,0.993-8.808,2.953c-4.316,3.433-5.915,10.302-5.93,10.37l-0.158,0.699L163.847,100.214L163.847,100.214z
		 M189.753,88.109l0.752-2.315c-0.887-0.226-2.682-0.592-4.99-0.592c-4.207,0-8.02,1.181-11.331,3.509
		c-6.929,4.87-8.585,9.27-8.96,10.736l4.157,1.655c0.544-1.933,2.345-7.321,6.179-10.371c2.646-2.103,5.955-3.215,9.57-3.215
		C187.21,87.517,188.885,87.876,189.753,88.109L189.753,88.109L189.753,88.109z"/>
	<path fill="#463014" d="M142.902,252.535c-3.146-3.364-5.007-6.983-5.457-8.096c-0.257-0.633-0.55-1.841,0.373-2.788
		c0.718-0.735,1.965-1.111,3.708-1.111h2.682c2.796,0,6.065,0,8.009,0.002l1.631,0.002c2.289,0,3.417,0.654,3.96,1.204
		c0.79,0.8,0.914,1.911,0.37,3.303c-1.457,3.719-4.763,6.754-5.738,7.595c-1.28,1.104-3.116,1.76-4.922,1.76l0,0
		C145.668,254.405,144.03,253.741,142.902,252.535L142.902,252.535L142.902,252.535z"/>
	<path fill="#463014" d="M145.626,159.761l6.511-0.419c0,0-1.662,2.936-2.742,6.732c-1.218,4.294,1.114,10.571,1.114,10.571
		S141.821,166.811,145.626,159.761L145.626,159.761L145.626,159.761z"/>
	<path fill="#E78724" d="M128.086,136.503c-4.152,0-9.565-0.114-13.627-3.033c0,0,5.318,9.323,13.62,9.323l0.007-1.18l0.007,1.18
		c8.302,0,13.62-9.323,13.62-9.323C137.652,136.389,132.233,136.503,128.086,136.503L128.086,136.503L128.086,136.503z"/>
	<path fill="#463014" d="M139.518,136.458c-4.164,2.52-7.883,3.393-11.432,3.471c-3.548-0.078-7.266-0.951-11.432-3.471
		c0,0,6.064,7.4,11.401,7.458v0.005c0.01,0,0.02-0.003,0.03-0.003c0.01,0,0.019,0.003,0.03,0.003v-0.005
		C133.45,143.859,139.518,136.458,139.518,136.458L139.518,136.458L139.518,136.458z"/>
	<path fill="#463014" d="M153.758,271.607l-0.465-6.037c19.557-1.504,25.719-20.246,25.751-22.219h6.056
		C185.102,247.914,176.94,269.825,153.758,271.607L153.758,271.607L153.758,271.607z"/>
	<path fill="#FFFFFF" d="M160.272,232.354c0.364-2.095,0.399-4.081-0.042-6.032c1.765-1.324,4.924-1.815,7.296-2.586
		c1.939-1.229,11.869,1.259,19.073-7.458c9.024-10.915,7.122-17.431,7.122-17.431c2.315,2.57,4.556,1.591,8.086,13.578
		c3.532,11.988-1.66,20.347-11.332,28.737c-4.57,3.964-11.03,5.597-16.587,6.222c1.861-1.868-3.18-2.056-6.65-3.356
		c0.276-2.805-0.189-5.527-2.28-7.72c-1.258-1.323-2.884-2.112-4.565-2.742c-0.095-0.218-0.177-0.418-0.264-0.627
		C160.185,232.748,160.237,232.555,160.272,232.354L160.272,232.354L160.272,232.354z"/>
	<path fill="#C9C9C9" d="M167.281,243.955c0.202-0.589,0.352-1.189,0.501-1.793c0.162-0.659,0.963-2.528-0.025-0.396
		c0.255-0.546,0.42-1.109,0.542-1.677c15.665-0.02,29.293-10.773,26.657-33.386c2.051-2.723,4.923,5.49,4.923,5.49
		s7.844,22.771-12.41,31.596c-6.748,2.943-12.711,5.052-14.119,4.201c-2.934,0.596-5.579-1.448-6.568-2.792
		C166.966,244.787,167.139,244.373,167.281,243.955L167.281,243.955L167.281,243.955z"/>
	<path fill="#463014" d="M160.553,229.074c-0.022-1.908-0.414-3.757-1.335-5.599c-0.065-0.127-0.14-0.248-0.208-0.372
		c6.027-0.052,12.971-0.629,18.883-2.995c6.495-2.599,14.623-11.49,16.021-21.938c0,0,12.237,9.442,8.642,29.653
		c-3.379,18.979-19.258,25.166-37.37,26.213c-0.009-0.123,2.039-4.351,1.392-6.939c10.281,0.747,21.783-3.227,27.338-12.361
		c5.08-8.361,3.655-22.637,1.566-24.729C190.386,226.087,172.049,229.355,160.553,229.074L160.553,229.074L160.553,229.074z"/>
	<path fill="#463014" d="M167.866,233.836c-2.164-2.34-6.143-5.129-15.315-5.129c0,0-17.392-0.01-24.434-0.015l0,0h-0.03h-0.03
		c-7.041,0.005-24.438,0.015-24.438,0.015c-9.17,0-13.149,2.789-15.314,5.129c-3.154,3.403-3.648,8.139-1.467,14.059
		c5.797,15.757,13.944,31.765,41.217,31.788v0.002c0.01,0,0.02-0.002,0.03-0.002c0.01,0,0.019,0.002,0.03,0.002v-0.002
		c27.269-0.024,35.417-16.031,41.216-31.788C171.514,241.975,171.019,237.239,167.866,233.836L167.866,233.836L167.866,233.836z
		 M163.621,246.789c-2.763,7.913-10.187,27.064-35.536,27.098c-25.354-0.033-32.774-19.185-35.536-27.098
		c-1.529-4.389-1.412-7.637,0.357-9.655c1.208-1.379,3.986-3.025,10.314-3.025l6.612-0.004c4.877-0.004,11.001-0.009,18.253-0.012
		c7.25,0.003,13.376,0.008,18.253,0.012l6.608,0.004c6.33,0,9.107,1.645,10.316,3.025
		C165.031,239.154,165.149,242.4,163.621,246.789L163.621,246.789L163.621,246.789z"/>
	<path fill="#463014" d="M158.656,217.563c3.259,9.565,9.916,17.306,9.916,17.306s-9.157-0.417-9.663-2.037
		c-0.372-1.194-8.268-19.676-11.298-41.326C150.46,196.188,158.376,216.745,158.656,217.563L158.656,217.563L158.656,217.563z"/>
</g>
</svg>
