<?xml version="1.0" encoding="utf-8"?>
<!-- Generator: Adobe Illustrator 16.0.3, SVG Export Plug-In . SVG Version: 6.00 Build 0)  -->
<!DOCTYPE svg PUBLIC "-//W3C//DTD SVG 1.1//EN" "http://www.w3.org/Graphics/SVG/1.1/DTD/svg11.dtd">
<svg version="1.1" id="Ebene_1" xmlns="http://www.w3.org/2000/svg" xmlns:xlink="http://www.w3.org/1999/xlink" x="0px" y="0px"
	 width="256px" height="256px" viewBox="0 155 256 256" enable-background="new 0 155 256 256" xml:space="preserve">
<g>
	<path fill="#D34A47" d="M155.194,387.018l2.125-35.4l5.866-10.013c0,0-13.352,5.461-35.703,5.461
		c-22.352,0-35.501-5.36-35.501-5.36l6.574,10.924l2.326,34.389c0,3.687,12.158,6.675,27.157,6.675
		C143.036,393.692,155.194,390.704,155.194,387.018"/>
	<path fill="#D34A47" d="M148.494,221.706l4.459-17.625l24.693-25.983l-6.509-5.543l-26.144,27.679l-5.177,21.058
		c-3.751-0.127-7.666-0.195-11.694-0.195c-27.533,0-49.854,3.138-49.854,7.008c0,3.871,22.321,7.008,49.854,7.008
		s49.854-3.138,49.854-7.008C177.977,225.254,165.871,222.801,148.494,221.706"/>
	<path fill="#FFFFFF" d="M145.899,231.577c0,0-0.965,0.216-3.807,0.229c-2.841,0.012-4.858-0.018-5.662-0.75
		c-0.217-0.196-0.335-0.587-0.333-0.851c0.002-0.503,0.359-0.8,0.813-0.985l0.431,0.675c-0.188,0.064-0.294,0.141-0.295,0.222
		c-0.001,0.382,2.906,0.644,5.13,0.615c2.224-0.027,4.91-0.21,4.913-0.587c0-0.114-0.204-0.221-0.557-0.306l0.428-0.67
		c0.576,0.179,1.079,0.524,1.078,1.123C148.034,231.308,146.739,231.463,145.899,231.577"/>
	<path fill="#D34A47" d="M177.598,178.148c0.621-0.717-0.321-2.552-2.104-4.097c-1.783-1.544-3.733-2.215-4.355-1.498
		c-0.621,0.717,0.321,2.552,2.105,4.096C175.026,178.194,176.977,178.866,177.598,178.148"/>
	<path fill="#D34A47" d="M154.008,300.55c-0.586-5.631,12.315-13.785,9.005-14.046c-7.128,0.407-10.675,8.353-14.262,16.674
		c-1.313,3.05-5.811,16.055-8.76,14.454c-2.948-1.601,3.822-12.295,5.721-18.646c-2.19,1.606-10.221,7.846-12.291,2.002
		c-3.327,2.826-10.437,4.357-9.635-3.066c-1.771,3.136-5.743,7.514-10.512,5.694c-6.263-2.389,3.629-22.338,6.088-21.331
		c2.46,1.006-0.496,5.551-1.271,7.314c-1.703,3.885-3.67,8.767-2.356,9.766c2.251,1.713,8.377-6.478,8.514-6.657
		c1.146-1.514,4.41-11.417,7.041-10.28c2.631,1.138-6.563,14.213-3.125,16.809c0.693,0.523,3.529-0.323,5.255-2.19
		c1.117-1.207,0.733-3.882,4.454-12.757c3.722-8.875,7.039-19.928,9.591-19.086c2.553,0.842,0.448,6.515-0.467,8.629
		c-4.297,9.925-11.727,26.322-8.223,25.081c3.504-1.24,5.329-1.313,8.76-5.329c3.432-4.016,3.273-10.629,5.56-10.488
		c2.288,0.141,1.904,2.262,1.349,3.877c2.251-2.576,10.67-8.001,12.703-2.629c2.407,6.361-12.045,15.549-8.441,15.081
		c3.513-0.457,9.205-4.063,11.635-7.34l6.689-60.138c0,0-6.731,5.57-49.554,5.57c-42.824,0-48.858-5.455-48.858-5.455l5.695,54.892
		c3.023-8.591,10.201-25.969,21.516-25.385c5.147,0.265,12.018,10.176,6.132,10.512c-2.491,0.142-2.744-4.947-5.694-5.694
		c-2.129-0.54-5.092,1.191-7.008,3.066c-3.82,3.738-12.036,18.489-10.95,25.842c1.383,9.375,12.937-3.258,14.892-7.009
		c1.377-2.642,2.307-10.47,5.318-9.648c3.012,0.821-0.263,8.899-2.445,16.042c-2.452,8.02-3.741,16.479-6.814,15.507
		c-3.074-0.973,1.933-11.326,1.751-13.141c-2.889,2.666-8.211,9.414-15.02,6.074l3.537,34.087c0,0,9.4,7.428,37.717,7.428
		s38.065-7.312,38.065-7.312l4.392-39.481C166.107,301.341,154.735,307.554,154.008,300.55"/>
</g>
</svg>
