<?xml version="1.0" encoding="utf-8"?>
<!-- Generator: Adobe Illustrator 16.0.3, SVG Export Plug-In . SVG Version: 6.00 Build 0)  -->
<!DOCTYPE svg PUBLIC "-//W3C//DTD SVG 1.1//EN" "http://www.w3.org/Graphics/SVG/1.1/DTD/svg11.dtd">
<svg version="1.1" id="Ebene_1" xmlns="http://www.w3.org/2000/svg" xmlns:xlink="http://www.w3.org/1999/xlink" x="0px" y="0px"
	 width="256px" height="256px" viewBox="128 -66 256 256" enable-background="new 128 -66 256 256" xml:space="preserve">
<g>
	<path fill="#423426" d="M225.383,33.909c8.065-0.035,16.336,2.278,22.605,7.493c3.212,2.6,5.807,5.862,8.01,9.335
		c3.965-6.409,9.757-11.854,16.899-14.479c8.702-3.267,18.539-3.042,27.227,0.161c7.589,2.771,14.224,7.599,20.241,12.908
		c4.707,4.156,9.063,8.703,13.912,12.703c2.554,2.073,5.3,4.015,8.441,5.09c4.176,1.425,9.114,0.08,12.101-3.138
		c2.766-3.011,2.595-8.215-0.452-10.966c-1.937-1.671-5.249-1.335-6.619,0.894c-1.2,1.767-0.527,3.97,0.411,5.681
		c-2.494-1.822-4.994-4.361-4.984-7.674c-0.517-3.829,2.324-7.207,5.727-8.547c6.641-2.655,14.967-0.366,19.157,5.48
		c4.03,5.456,4.352,12.627,3.649,19.127c-0.849,6.173-4.302,11.934-9.421,15.508c-7.187,5.129-16.296,6.72-24.964,6.609
		c-8.331-0.226-16.577-2.108-24.296-5.219c-12.908-5.19-24.988-12.362-38.318-16.508c-4.422-1.717-9.124-2.645-13.853-2.931
		c-3.764-0.025-7.332-0.201-10.885,0.04c-4.336,0.416-8.647,1.305-12.708,2.896c-13.556,4.215-25.816,11.567-38.971,16.767
		c-11.107,4.322-23.413,6.329-35.202,3.931c-6.595-1.335-13.159-4.252-17.611-9.445c-3.81-4.417-5.636-10.329-5.456-16.121
		c-0.211-5.465,0.989-11.272,4.603-15.528c3.362-4.035,8.778-6.083,13.977-5.631c3.348,0.155,6.74,1.616,8.808,4.311
		c1.626,2.133,1.727,5.054,1.014,7.548c-0.869,2.244-2.66,3.995-4.607,5.34c0.994-1.676,1.596-3.89,0.421-5.641
		c-1.445-2.334-5.004-2.57-6.886-0.653c-2.319,2.384-2.806,6.279-1.25,9.2c1.687,3.062,5.175,4.809,8.552,5.164
		c5.109,0.442,9.541-2.725,13.29-5.796c7.76-6.68,14.746-14.324,23.353-19.975C208.394,37.086,216.756,33.869,225.383,33.909
		L225.383,33.909L225.383,33.909z"/>
</g>
</svg>
