<?xml version="1.0" encoding="utf-8"?>
<!-- Generator: Adobe Illustrator 16.0.3, SVG Export Plug-In . SVG Version: 6.00 Build 0)  -->
<!DOCTYPE svg PUBLIC "-//W3C//DTD SVG 1.1//EN" "http://www.w3.org/Graphics/SVG/1.1/DTD/svg11.dtd">
<svg version="1.1" id="Ebene_1" xmlns="http://www.w3.org/2000/svg" xmlns:xlink="http://www.w3.org/1999/xlink" x="0px" y="0px"
	 width="256px" height="256px" viewBox="0 52.5 256 256" enable-background="new 0 52.5 256 256" xml:space="preserve">
<g>
	<path fill="#E44D26" d="M203.947,114.979l-13.838,155.021l-62.203,17.245l-62.031-17.221L52.053,114.979H203.947L203.947,114.979z"
		/>
	<path fill="#F16529" d="M128,274.063l50.262-13.935l11.826-132.472H128V274.063L128,274.063z"/>
	<path fill="#EBEBEB" d="M101.1,165.688H128v-19.016H80.318l0.455,5.102l4.674,52.401H128V185.16h-25.163L101.1,165.688
		L101.1,165.688z"/>
	<path fill="#EBEBEB" d="M105.385,213.684H86.296l2.664,29.856l38.953,10.813L128,254.33v-19.784l-0.083,0.021l-21.178-5.718
		L105.385,213.684L105.385,213.684z"/>
	<path d="M66.185,72.844h9.664v9.547h8.84v-9.547h9.664v28.912h-9.663v-9.682h-8.84v9.682h-9.664L66.185,72.844L66.185,72.844
		L66.185,72.844z"/>
	<path d="M107.06,82.432h-8.507v-9.587h26.683v9.587h-8.511v19.325h-9.664L107.06,82.432L107.06,82.432L107.06,82.432z"/>
	<path d="M129.47,72.844h10.077l6.197,10.159l6.193-10.159h10.08v28.912h-9.624V87.426l-6.649,10.28h-0.166l-6.652-10.28v14.331
		h-9.456V72.844L129.47,72.844z"/>
	<path d="M166.826,72.844h9.667V92.2h13.59v9.557h-23.257V72.844L166.826,72.844z"/>
	<path fill="#FFFFFF" d="M127.935,204.175h23.415l-2.206,24.662l-21.209,5.726v19.782l38.983-10.805l0.285-3.212l4.469-50.063
		l0.464-5.105h-44.201V204.175L127.935,204.175z"/>
	<path fill="#FFFFFF" d="M127.935,165.641v0.047h45.932l0.382-4.274l0.866-9.64l0.455-5.102h-47.635V165.641L127.935,165.641z"/>
</g>
</svg>
