<?xml version="1.0" encoding="utf-8"?>
<!-- Generator: Adobe Illustrator 16.0.3, SVG Export Plug-In . SVG Version: 6.00 Build 0)  -->
<!DOCTYPE svg PUBLIC "-//W3C//DTD SVG 1.1//EN" "http://www.w3.org/Graphics/SVG/1.1/DTD/svg11.dtd">
<svg version="1.1" id="Ebene_1" xmlns="http://www.w3.org/2000/svg" xmlns:xlink="http://www.w3.org/1999/xlink" x="0px" y="0px"
	 width="256px" height="252px" viewBox="0 0 256 252" enable-background="new 0 0 256 252" xml:space="preserve">
<g>
	<path fill="#1EBBEE" d="M197.5,128.901c0-10.989-2.841-21.313-7.823-30.283c21.235-48.06-22.754-41.021-25.203-40.542
		c-9.319,1.824-17.941,4.751-25.895,8.463c-1.173-0.065-2.354-0.102-3.542-0.102c-29.681,0-54.526,20.702-60.885,48.455
		c15.644-17.55,26.592-24.632,33.149-27.466c-1.047,0.936-2.071,1.881-3.079,2.833c-0.335,0.317-0.658,0.638-0.989,0.957
		c-0.665,0.639-1.327,1.278-1.976,1.924c-0.385,0.384-0.76,0.771-1.14,1.158c-0.574,0.584-1.147,1.169-1.708,1.757
		c-0.398,0.417-0.787,0.837-1.178,1.255c-0.524,0.561-1.044,1.122-1.556,1.686c-0.397,0.438-0.787,0.875-1.177,1.314
		c-0.484,0.545-0.964,1.091-1.438,1.637c-0.393,0.454-0.782,0.907-1.166,1.361c-0.449,0.529-0.892,1.059-1.331,1.589
		c-0.388,0.469-0.774,0.937-1.154,1.405c-0.41,0.507-0.812,1.013-1.213,1.518c-0.388,0.49-0.777,0.979-1.156,1.468
		c-0.361,0.465-0.712,0.929-1.066,1.394c-0.399,0.524-0.801,1.049-1.189,1.571c-0.278,0.374-0.545,0.743-0.818,1.116
		c-2.468,3.367-4.723,6.67-6.759,9.842c-0.005,0.008-0.01,0.016-0.015,0.024c-0.536,0.835-1.053,1.658-1.561,2.474
		c-0.027,0.044-0.056,0.089-0.083,0.134c-0.508,0.819-0.998,1.624-1.476,2.42c-0.017,0.028-0.034,0.057-0.051,0.084
		c-1.285,2.145-2.477,4.212-3.55,6.157c-5.625,10.194-8.364,17.316-8.483,17.739c-17.765,63.512,37.68,36.691,45.417,32.688
		c8.331,4.115,17.709,6.432,27.63,6.432c27.16,0,50.268-17.337,58.87-41.547h-32.82c-4.856,8.204-14.206,13.762-24.946,13.762
		c-15.738,0-28.495-11.924-28.495-26.633h89.341C197.325,134.312,197.5,131.627,197.5,128.901L197.5,128.901z M185.831,67.434
		c5.379,3.63,9.694,9.332,2.284,28.532c-7.105-11.428-17.797-20.393-30.504-25.32C163.392,67.854,177.707,61.949,185.831,67.434
		L185.831,67.434z M71.52,184.806c-4.381-4.494-5.155-15.438,4.512-35.378c4.879,14.027,14.615,25.782,27.199,33.241
		C96.972,186.113,80.358,193.869,71.52,184.806L71.52,184.806z M107.508,119.865c0.5-14.296,12.941-25.742,28.228-25.742
		c15.286,0,27.729,11.446,28.228,25.742H107.508L107.508,119.865z"/>
</g>
</svg>
