<?xml version="1.0" encoding="utf-8"?>
<!-- Generator: Adobe Illustrator 16.0.3, SVG Export Plug-In . SVG Version: 6.00 Build 0)  -->
<!DOCTYPE svg PUBLIC "-//W3C//DTD SVG 1.1//EN" "http://www.w3.org/Graphics/SVG/1.1/DTD/svg11.dtd">
<svg version="1.1" id="Ebene_1" xmlns="http://www.w3.org/2000/svg" xmlns:xlink="http://www.w3.org/1999/xlink" x="0px" y="0px"
	 width="256px" height="256px" viewBox="128 -28 256 256" enable-background="new 128 -28 256 256" xml:space="preserve">
<g>
	<g transform="translate(157.363029, 47.893096)">
		<path fill="#264970" d="M180.616,33.499c-0.182-0.577-0.718-0.969-1.322-0.969h-12.938c-0.604,0-1.14,0.392-1.321,0.969
			l-16.322,51.769c-0.133,0.421-0.058,0.881,0.203,1.237s0.678,0.566,1.119,0.566h8.906c0.614,0,1.155-0.404,1.329-0.994
			l11.24-38.074c0,0,0.294-0.951,1.312-0.951c1.035,0,1.287,0.988,1.287,0.989l5.215,18.055h-7.165c-0.62,0-1.166,0.413-1.333,1.011
			l-2.012,7.147c-0.117,0.418-0.032,0.867,0.23,1.212c0.262,0.347,0.67,0.55,1.105,0.55h12.09l3.142,10.08
			c0.18,0.579,0.716,0.975,1.323,0.975h8.911c0.441,0,0.855-0.21,1.117-0.566c0.261-0.356,0.337-0.816,0.204-1.237L180.616,33.499"
			/>
		<path fill="#264970" d="M119.778,42.609h10.781c5.575,0,6.694,2.193,6.694,5.734v5.288c0,4.406-1.688,5.893-6.694,5.893h-10.781
			V42.609L119.778,42.609z M152.696,84.783l-11.847-17.09c5.102-2.116,7.687-6.55,7.687-13.182v-6.969
			c0-10.383-5.422-15.013-17.577-15.013h-21.075c-0.766,0-1.386,0.621-1.386,1.386v51.769c0,0.766,0.62,1.387,1.386,1.387h8.508
			c0.766,0,1.387-0.621,1.387-1.387V69.449h8.708l11.842,17.026c0.26,0.372,0.686,0.596,1.139,0.596h10.167h0.009
			c0.767,0,1.387-0.621,1.387-1.387C153.029,85.339,152.904,85.024,152.696,84.783L152.696,84.783z"/>
		<path fill="#264970" d="M98.159,32.529H89.65c-0.765,0-1.386,0.621-1.386,1.386v51.769c0,0.766,0.621,1.387,1.386,1.387h8.509
			c0.766,0,1.387-0.621,1.387-1.387V33.915C99.546,33.15,98.925,32.529,98.159,32.529"/>
		<path fill="#264970" d="M78.233,32.529h-8.612c-0.729,0-1.324,0.592-1.324,1.32v40.508c0,5.091-3.879,6.765-6.504,6.898
			c-0.354,0.017-0.766,0.239-0.992,0.571c-0.228,0.331-0.291,0.747-0.173,1.131l2.094,6.812c0.171,0.558,0.771,0.916,1.749,0.916
			c8.24,0,15.082-6.47,15.082-15.142V33.85c0-0.351-0.139-0.687-0.387-0.935C78.919,32.668,78.584,32.529,78.233,32.529"/>
	</g>
	<g>
		<path fill="#264970" d="M168.906,66.3c-2.646,0-4.789,2.14-4.789,4.792c0,2.646,2.143,4.793,4.789,4.793
			c2.647,0,4.788-2.147,4.788-4.793C173.694,68.439,171.553,66.3,168.906,66.3"/>
		<path fill="#264970" d="M200.365,66.3c-2.647,0-4.787,2.14-4.787,4.792c0,2.646,2.14,4.793,4.787,4.793
			c2.64,0,4.788-2.147,4.788-4.793C205.152,68.439,203.004,66.303,200.365,66.3"/>
		<path fill="#264970" d="M184.635,61.927c-2.646,0-4.788,2.139-4.788,4.793c0,2.646,2.143,4.793,4.788,4.793
			c2.648,0,4.788-2.148,4.788-4.793C189.423,64.066,187.282,61.927,184.635,61.927"/>
		<path fill="#264970" d="M211.685,79.654c-0.267-0.203-0.586-0.308-0.912-0.308c-0.181,0-0.363,0.033-0.535,0.1
			c-3.242,1.24-6.535,2.181-9.54,2.881c-0.613,0.144-1.108,0.599-1.313,1.145c-2.189,5.998-7.78,11.708-13.646,17.69
			c-0.236,0.224-0.565,0.518-1.102,0.518c-0.536,0-0.862-0.285-1.103-0.518c-5.865-5.982-11.455-11.673-13.646-17.67
			c-0.206-0.547-0.701-1.001-1.313-1.145c-3.007-0.7-6.308-1.671-9.546-2.911c-0.174-0.066-0.356-0.099-0.537-0.099
			c-0.325,0-0.639,0.102-0.905,0.305c-0.415,0.317-0.631,0.831-0.582,1.325c0.497,4.987,2.467,9.863,6.023,14.972
			c3.343,4.804,7.704,9.25,11.92,13.549c7.768,7.923,15.105,15.406,15.75,24.084c0.058,0.782,0.711,1.389,1.497,1.389h9.126
			c0.411,0,0.804-0.168,1.088-0.466c0.283-0.298,0.432-0.697,0.411-1.108c-0.287-5.802-2.471-11.612-6.675-17.76
			c-0.881-1.29-1.825-2.543-2.811-3.771c-0.401-0.501-0.233-1.121,0.073-1.435c0.303-0.311,0.608-0.62,0.915-0.934
			c4.216-4.301,8.576-8.745,11.919-13.549c3.556-5.109,5.526-9.957,6.023-14.943C212.316,80.495,212.089,79.963,211.685,79.654"/>
		<path fill="#264970" d="M174.844,116.238c-0.215-0.226-0.533-0.456-1.065-0.456c-0.682,0-1.085,0.471-1.238,0.703
			c-3.838,5.842-5.821,11.355-6.095,16.896c-0.02,0.408,0.131,0.813,0.413,1.112c0.285,0.296,0.682,0.467,1.092,0.467h9.111
			c0.784,0,1.444-0.613,1.502-1.395c0.198-2.67,1.029-5.347,2.543-8.159c0.525-0.974,0.117-1.887-0.185-2.278
			C179.419,121.177,177.579,119.093,174.844,116.238"/>
		<path fill="#264970" d="M184.645,84.125c2.86,0,4.519-0.171,5.102-0.171c0.706,0,1.38,0.578,1.38,1.388
			c0,0.236-0.056,0.405-0.111,0.554c-0.379,1.014-2.108,4.663-5.327,7.792c-0.361,0.351-0.77,0.417-1.051,0.417h-0.004
			c-0.281,0-0.69-0.066-1.051-0.417c-3.218-3.13-4.948-6.778-5.327-7.792c-0.056-0.149-0.111-0.318-0.111-0.554
			c0-0.81,0.675-1.388,1.381-1.388c0.583,0,2.241,0.171,5.1,0.171H184.645"/>
	</g>
</g>
</svg>
