<?xml version="1.0" encoding="utf-8"?>
<!-- Generator: Adobe Illustrator 16.0.3, SVG Export Plug-In . SVG Version: 6.00 Build 0)  -->
<!DOCTYPE svg PUBLIC "-//W3C//DTD SVG 1.1//EN" "http://www.w3.org/Graphics/SVG/1.1/DTD/svg11.dtd">
<svg version="1.1" id="Ebene_1" xmlns="http://www.w3.org/2000/svg" xmlns:xlink="http://www.w3.org/1999/xlink" x="0px" y="0px"
	 width="256px" height="256px" viewBox="128 -55 256 256" enable-background="new 128 -55 256 256" xml:space="preserve">
<g>
	<g>
		<path fill="#8E714E" d="M360.627,67.08c-0.219,0.043-0.438,0.525-0.438,0.789c-0.044,1.752-0.088,6.396-0.088,9.551
			c0,0.087,0.131,0.263,0.263,0.263c0.657,0.043,2.234,0.087,3.593,0.087c1.883,0,2.979-0.263,3.592-0.524
			c1.577-0.789,2.322-2.498,2.322-4.382c0-4.25-2.979-5.871-7.404-5.871C362.16,66.948,361.284,66.948,360.627,67.08L360.627,67.08
			L360.627,67.08z M371.931,86.662c0-4.337-3.199-6.747-8.981-6.747c-0.263,0-2.104-0.044-2.541,0.045
			c-0.132,0.043-0.307,0.131-0.307,0.263c0,3.11-0.044,8.061,0.088,9.988c0.087,0.833,0.701,2.016,1.445,2.366
			c0.788,0.438,2.585,0.525,3.812,0.525C368.907,93.103,371.931,91.175,371.931,86.662L371.931,86.662L371.931,86.662z
			 M351.69,64.67c0.438,0,1.753,0.131,5.126,0.131c3.198,0,5.739-0.087,8.85-0.087c3.812,0,9.068,1.358,9.068,7.053
			c0,2.805-1.971,5.038-4.556,6.134c-0.132,0.044-0.132,0.132,0,0.175c3.68,0.921,6.922,3.198,6.922,7.492
			c0,4.206-2.628,6.878-6.44,8.543c-2.322,1.008-5.213,1.358-8.148,1.358c-2.234,0-8.235-0.264-11.565-0.176
			c-0.351-0.132,0.307-1.709,0.613-1.971c0.789-0.045,1.401-0.089,2.234-0.351c1.183-0.308,1.314-0.657,1.489-2.454
			c0.088-1.533,0.088-6.966,0.088-10.821c0-5.301,0.044-8.893,0-10.646c-0.044-1.358-0.526-1.796-1.489-2.059
			c-0.745-0.131-1.972-0.307-2.979-0.438C350.682,66.334,351.427,64.845,351.69,64.67L351.69,64.67L351.69,64.67z M326.411,91.92
			c1.052,0.832,3.111,1.183,4.951,1.183c2.365,0,4.731-0.438,7.009-2.497c2.322-2.104,3.943-5.345,3.943-10.515
			c0-4.95-1.884-8.981-5.739-11.347c-2.19-1.358-4.994-1.928-8.236-1.928c-0.963,0-1.884,0.044-2.453,0.307
			c-0.132,0.088-0.438,0.482-0.438,0.701c-0.088,0.876-0.088,7.622-0.088,11.566c0,4.074,0,9.769,0.088,10.426
			C325.448,90.475,325.754,91.481,326.411,91.92L326.411,91.92L326.411,91.92z M316.467,64.67c0.832,0,4.03,0.131,5.563,0.131
			c2.76,0,4.731-0.131,9.945-0.131c4.381,0,8.061,1.183,10.689,3.417c3.198,2.76,4.863,6.571,4.863,11.215
			c0,6.616-3.023,10.428-6.046,12.618c-3.022,2.234-6.967,3.549-12.573,3.549c-2.979,0-8.105-0.089-12.354-0.132h-0.045
			c-0.219-0.395,0.351-1.928,0.701-1.972c1.14-0.132,1.446-0.175,2.016-0.394c0.92-0.351,1.096-0.833,1.228-2.454
			c0.131-3.022,0.087-6.659,0.087-10.777c0-2.936,0.044-8.674-0.044-10.514c-0.132-1.533-0.788-1.927-2.103-2.191
			c-0.657-0.131-1.534-0.306-2.76-0.438C315.459,66.291,316.248,64.933,316.467,64.67L316.467,64.67L316.467,64.67z"/>
		<path fill="#442D22" d="M263.457,93.628c-1.095-0.131-1.884-0.306-2.848-0.745c-0.132-0.087-0.351-0.524-0.351-0.7
			c-0.088-1.533-0.088-5.914-0.088-8.85c0-2.366-0.395-4.425-1.402-5.87c-1.183-1.666-2.891-2.629-5.082-2.629
			c-1.927,0-4.513,1.314-6.659,3.154c-0.043,0.044-0.394,0.351-0.351-0.132c0-0.482,0.088-1.445,0.132-2.103
			c0.044-0.613-0.307-0.92-0.307-0.92c-1.402,0.701-5.345,1.621-6.791,1.752c-1.051,0.219-1.314,1.228-0.219,1.577h0.044
			c1.183,0.351,1.972,0.745,2.584,1.139c0.438,0.351,0.395,0.833,0.395,1.228c0.043,3.286,0.043,8.323-0.087,11.084
			c-0.044,1.095-0.351,1.489-1.139,1.664l0.087-0.044c-0.613,0.132-1.095,0.264-1.84,0.351c-0.263,0.263-0.263,1.666,0,1.972
			c0.482,0,3.023-0.131,5.126-0.131c2.892,0,4.381,0.131,5.125,0.131c0.307-0.351,0.395-1.664,0.219-1.972
			c-0.833-0.043-1.445-0.131-2.015-0.307c-0.789-0.175-1.008-0.569-1.052-1.489c-0.087-2.322-0.087-7.229-0.087-10.559
			c0-0.92,0.263-1.358,0.525-1.62c1.007-0.877,2.628-1.49,4.074-1.49c1.402,0,2.322,0.438,3.023,1.008
			c0.963,0.788,1.27,1.928,1.402,2.761c0.219,1.883,0.131,5.607,0.131,8.849c0,1.753-0.131,2.191-0.789,2.41
			c-0.306,0.131-1.095,0.307-2.015,0.395c-0.307,0.306-0.219,1.664,0,1.971c1.271,0,2.76-0.132,4.951-0.132
			c2.716,0,4.468,0.132,5.169,0.132C263.544,95.25,263.632,93.979,263.457,93.628L263.457,93.628L263.457,93.628z M275.592,76.894
			c-2.321,0-3.767,1.796-3.767,4.6c0,2.847,1.27,6.133,4.862,6.133c0.613,0,1.752-0.263,2.278-0.876
			c0.832-0.788,1.401-2.365,1.401-4.03C280.367,79.083,278.572,76.894,275.592,76.894L275.592,76.894L275.592,76.894z
			 M275.285,96.257c-0.876,0-1.489,0.263-1.883,0.481c-1.841,1.183-2.673,2.322-2.673,3.681c0,1.271,0.481,2.277,1.533,3.154
			c1.271,1.095,3.022,1.621,5.257,1.621c4.469,0,6.44-2.41,6.44-4.775c0-1.665-0.833-2.761-2.541-3.373
			C280.193,96.52,277.958,96.257,275.285,96.257L275.285,96.257L275.285,96.257z M275.592,107.647c-2.672,0-4.6-0.57-6.265-1.84
			c-1.621-1.228-2.321-3.067-2.321-4.337c0-0.351,0.087-1.315,0.876-2.191c0.481-0.525,1.533-1.533,4.03-3.241
			c0.088-0.044,0.132-0.088,0.132-0.176s-0.088-0.175-0.176-0.219c-2.06-0.788-2.672-2.06-2.848-2.761v-0.087
			c-0.043-0.263-0.132-0.525,0.263-0.789c0.307-0.219,0.745-0.481,1.227-0.788c0.745-0.438,1.534-0.92,2.016-1.314
			c0.088-0.088,0.088-0.175,0.088-0.263s-0.088-0.176-0.176-0.219c-3.066-1.008-4.6-3.286-4.6-6.703c0-2.234,1.008-4.25,2.804-5.521
			c1.227-0.964,4.293-2.146,6.309-2.146h0.132c2.059,0.044,3.197,0.482,4.818,1.052c0.876,0.307,1.709,0.438,2.848,0.438
			c1.709,0,2.453-0.525,3.066-1.139c0.045,0.088,0.132,0.307,0.176,0.876c0.044,0.57-0.131,1.402-0.569,2.016
			c-0.351,0.481-1.14,0.832-1.928,0.832h-0.22c-0.788-0.087-1.139-0.176-1.139-0.176l-0.175,0.089c-0.044,0.087,0,0.175,0.044,0.306
			l0.044,0.088c0.087,0.395,0.263,1.577,0.263,1.885c0,3.592-1.446,5.169-2.979,6.352c-1.489,1.096-3.198,1.796-5.126,1.972
			c-0.044,0-0.219,0-0.613,0.044c-0.219,0-0.525,0.044-0.569,0.044h-0.044c-0.351,0.087-1.226,0.525-1.226,1.271
			c0,0.656,0.394,1.445,2.277,1.577c0.394,0.044,0.788,0.044,1.227,0.087c2.497,0.176,5.607,0.395,7.054,0.877
			c2.015,0.744,3.285,2.54,3.285,4.688c0,3.242-2.322,6.265-6.177,8.148C279.535,107.209,277.652,107.647,275.592,107.647
			L275.592,107.647L275.592,107.647z M300.564,77.112c-0.92,0-1.752,0.219-2.365,0.656c-1.709,1.052-2.585,3.155-2.585,6.222
			c0,5.739,2.891,9.77,7.01,9.77c1.227,0,2.19-0.351,3.022-1.052c1.271-1.052,1.928-3.154,1.928-6.09
			C307.573,80.924,304.726,77.112,300.564,77.112L300.564,77.112L300.564,77.112z M301.353,95.862
			c-7.447,0-10.12-5.476-10.12-10.602c0-3.593,1.445-6.353,4.337-8.324c2.06-1.271,4.513-1.971,6.703-1.971
			c5.694,0,9.682,4.074,9.682,9.944c0,3.986-1.577,7.141-4.6,9.068C305.908,94.942,303.411,95.862,301.353,95.862L301.353,95.862
			L301.353,95.862z M223.283,77.112c-0.92,0-1.752,0.219-2.366,0.656c-1.708,1.052-2.584,3.155-2.584,6.222
			c0,5.739,2.892,9.77,7.01,9.77c1.227,0,2.19-0.351,3.023-1.052c1.27-1.052,1.928-3.154,1.928-6.09
			C230.293,80.924,227.489,77.112,223.283,77.112L223.283,77.112L223.283,77.112z M224.072,95.862
			c-7.448,0-10.12-5.476-10.12-10.602c0-3.593,1.446-6.353,4.337-8.324c2.059-1.271,4.513-1.971,6.703-1.971
			c5.696,0,9.682,4.074,9.682,9.944c0,3.986-1.577,7.141-4.601,9.068C228.672,94.942,226.175,95.862,224.072,95.862L224.072,95.862
			L224.072,95.862z M173.997,95.425c-0.088-0.132-0.175-0.525-0.132-1.008c0-0.351,0.088-0.57,0.132-0.657
			c0.92-0.132,1.402-0.263,1.927-0.395c0.876-0.219,1.227-0.701,1.271-1.796c0.132-2.629,0.132-7.623,0.088-11.084v-0.088
			c0-0.395,0-0.877-0.482-1.227c-0.701-0.438-1.534-0.832-2.628-1.139c-0.395-0.132-0.658-0.351-0.613-0.613
			c0-0.264,0.263-0.569,0.833-0.657c1.445-0.132,5.213-1.052,6.702-1.709c0.088,0.088,0.22,0.351,0.22,0.701l-0.044,0.481
			c-0.043,0.482-0.087,1.052-0.087,1.621c0,0.176,0.176,0.307,0.351,0.307c0.087,0,0.175-0.044,0.263-0.088
			c2.804-2.189,5.345-2.979,6.659-2.979c2.147,0,3.812,1.008,5.083,3.11c0.087,0.132,0.175,0.176,0.306,0.176
			c0.088,0,0.219-0.044,0.263-0.132c2.584-1.972,5.169-3.154,6.877-3.154c4.075,0,6.484,3.022,6.484,8.148
			c0,1.445,0,3.329-0.044,5.038c0,1.533-0.044,2.936-0.044,3.943c0,0.219,0.307,0.92,0.789,1.051
			c0.614,0.307,1.446,0.438,2.541,0.614h0.044c0.087,0.306-0.088,1.445-0.263,1.664c-0.263,0-0.657,0-1.095-0.044
			c-0.833-0.043-2.016-0.087-3.33-0.087c-2.716,0-4.118,0.044-5.477,0.131c-0.087-0.351-0.131-1.401,0-1.664
			c0.789-0.132,1.183-0.264,1.665-0.395c0.876-0.264,1.095-0.657,1.139-1.797c0-0.832,0.175-7.93-0.088-9.638
			c-0.263-1.753-1.577-3.812-4.469-3.812c-1.095,0-2.803,0.438-4.469,1.709c-0.087,0.087-0.175,0.306-0.175,0.438v0.044
			c0.175,0.92,0.175,1.972,0.175,3.593v2.847c0,1.972-0.043,3.813,0,5.214c0,0.964,0.57,1.183,1.052,1.358
			c0.263,0.044,0.438,0.088,0.657,0.131c0.395,0.088,0.789,0.176,1.402,0.308c0.088,0.175,0.088,0.744-0.044,1.227
			c-0.043,0.262-0.131,0.394-0.175,0.438c-1.49-0.044-3.023-0.087-5.257-0.087c-0.657,0-1.796,0.043-2.76,0.043
			c-0.789,0-1.533,0.044-1.971,0.044c-0.044-0.087-0.131-0.395-0.131-0.876c0-0.395,0.087-0.701,0.175-0.788
			c0.219-0.045,0.394-0.088,0.613-0.088c0.525-0.088,0.963-0.176,1.402-0.263c0.745-0.219,1.007-0.613,1.051-1.577
			c0.132-2.19,0.263-8.456-0.043-10.033c-0.525-2.54-1.971-3.812-4.293-3.812c-1.358,0-3.067,0.657-4.468,1.709
			c-0.219,0.175-0.395,0.613-0.395,1.008v2.585c0,3.153,0,7.097,0.044,8.806c0.043,0.525,0.219,1.139,1.227,1.357
			c0.219,0.044,0.569,0.132,1.008,0.176l0.789,0.132c0.087,0.263,0.044,1.313-0.132,1.664c-0.438,0-0.963-0.044-1.577-0.044
			c-0.92-0.043-2.103-0.087-3.417-0.087c-1.533,0-2.628,0.044-3.505,0.087C175.005,95.425,174.523,95.425,173.997,95.425
			L173.997,95.425L173.997,95.425z"/>
		<g>
			<path fill="#FFFFFF" d="M150.953,105.938l-1.796-0.613c0,0,0.22-9.156-3.066-9.813c-2.191-2.54,0.35-107.772,8.236-0.351
				c0,0-2.716,1.358-3.198,3.681C150.603,101.12,150.953,105.938,150.953,105.938L150.953,105.938L150.953,105.938z"/>
			<path fill="#A6A385" d="M150.953,105.938l-1.796-0.613c0,0,0.22-9.156-3.066-9.813c-2.191-2.54,0.35-107.772,8.236-0.351
				c0,0-2.716,1.358-3.198,3.681C150.603,101.12,150.953,105.938,150.953,105.938L150.953,105.938L150.953,105.938z"/>
			<path fill="#FFFFFF" d="M151.917,97.089c0,0,15.728-10.339,12.047-31.85c-3.548-15.64-11.917-20.766-12.836-22.737
				c-1.008-1.402-1.972-3.855-1.972-3.855l0.658,43.502C149.814,82.193,148.456,95.469,151.917,97.089"/>
			<path fill="#499D4A" d="M151.917,97.089c0,0,15.728-10.339,12.047-31.85c-3.548-15.64-11.917-20.766-12.836-22.737
				c-1.008-1.402-1.972-3.855-1.972-3.855l0.658,43.502C149.814,82.193,148.456,95.469,151.917,97.089"/>
			<path fill="#FFFFFF" d="M148.237,97.658c0,0-14.764-10.076-13.888-27.819c0.832-17.743,11.259-26.461,13.274-28.038
				c1.314-1.402,1.358-1.928,1.446-3.33c0.92,1.972,0.745,29.484,0.876,32.726C150.34,83.684,149.244,95.293,148.237,97.658
				L148.237,97.658L148.237,97.658z"/>
			<path fill="#58AA50" d="M148.237,97.658c0,0-14.764-10.076-13.888-27.819c0.832-17.743,11.259-26.461,13.274-28.038
				c1.314-1.402,1.358-1.928,1.446-3.33c0.92,1.972,0.745,29.484,0.876,32.726C150.34,83.684,149.244,95.293,148.237,97.658
				L148.237,97.658L148.237,97.658z"/>
		</g>
	</g>
</g>
</svg>
