<?xml version="1.0" encoding="utf-8"?>
<!-- Generator: Adobe Illustrator 16.0.3, SVG Export Plug-In . SVG Version: 6.00 Build 0)  -->
<!DOCTYPE svg PUBLIC "-//W3C//DTD SVG 1.1//EN" "http://www.w3.org/Graphics/SVG/1.1/DTD/svg11.dtd">
<svg version="1.1" id="Ebene_1" xmlns="http://www.w3.org/2000/svg" xmlns:xlink="http://www.w3.org/1999/xlink" x="0px" y="0px"
	 width="256px" height="252px" viewBox="0 0 256 252" enable-background="new 0 0 256 252" xml:space="preserve">
<g>
	<path fill="#00546B" d="M203.224,173.544c-9.729-0.241-17.269,0.731-23.594,3.406c-1.823,0.729-4.743,0.73-4.986,3.041
		c0.974,0.973,1.096,2.554,1.946,3.891c1.46,2.432,4.014,5.716,6.324,7.419c2.553,1.945,5.107,3.892,7.783,5.595
		c4.743,2.918,10.093,4.62,14.715,7.539c2.676,1.701,5.35,3.892,8.026,5.716c1.338,0.972,2.188,2.554,3.892,3.161v-0.364
		c-0.852-1.095-1.096-2.676-1.945-3.891c-1.216-1.217-2.434-2.313-3.649-3.528c-3.526-4.742-7.904-8.877-12.647-12.282
		c-3.891-2.675-12.404-6.323-13.985-10.823c0,0-0.121-0.122-0.243-0.242c2.677-0.244,5.838-1.217,8.392-1.947
		c4.134-1.095,7.905-0.852,12.161-1.945c1.944-0.486,3.892-1.095,5.837-1.702v-1.095c-2.188-2.188-3.77-5.107-6.08-7.175
		c-6.203-5.353-13.013-10.58-20.066-14.959c-3.771-2.432-8.635-4.013-12.646-6.08c-1.46-0.73-3.893-1.095-4.743-2.311
		c-2.189-2.675-3.406-6.201-4.987-9.364c-3.525-6.689-6.932-14.106-9.972-21.16c-2.188-4.743-3.526-9.486-6.202-13.864
		c-12.525-20.674-26.146-33.2-47.063-45.483c-4.5-2.553-9.85-3.648-15.566-4.986c-3.04-0.122-6.081-0.365-9.121-0.487
		c-1.946-0.852-3.892-3.161-5.595-4.256c-6.93-4.378-24.808-13.863-29.916-1.337c-3.284,7.904,4.864,15.687,7.661,19.701
		c2.068,2.796,4.744,5.958,6.203,9.12c0.852,2.066,1.095,4.256,1.946,6.445c1.946,5.35,3.77,11.31,6.324,16.296
		c1.338,2.553,2.797,5.229,4.5,7.539c0.973,1.337,2.675,1.946,3.041,4.135c-1.702,2.432-1.824,6.081-2.797,9.121
		c-4.378,13.743-2.675,30.768,3.527,40.861c1.945,3.039,6.567,9.729,12.77,7.176c5.472-2.189,4.256-9.122,5.837-15.202
		c0.365-1.459,0.122-2.432,0.851-3.404c0.001,0.121,0,0.243,0,0.243c1.703,3.405,3.405,6.689,4.986,10.094
		c3.771,5.957,10.336,12.161,15.81,16.296c2.919,2.188,5.229,5.959,8.878,7.297v-0.366h-0.244c-0.73-1.095-1.824-1.581-2.796-2.432
		c-2.189-2.188-4.622-4.864-6.324-7.297c-5.107-6.811-9.607-14.351-13.621-22.133c-1.945-3.77-3.648-7.905-5.229-11.674
		c-0.73-1.461-0.73-3.648-1.946-4.379c-1.824,2.676-4.499,4.985-5.837,8.27c-2.31,5.229-2.554,11.675-3.405,18.363
		c-0.486,0.121-0.243,0-0.487,0.243c-3.891-0.973-5.229-4.986-6.689-8.392c-3.648-8.634-4.256-22.498-1.094-32.469
		c0.852-2.554,4.5-10.58,3.041-13.013c-0.729-2.311-3.163-3.648-4.5-5.472c-1.581-2.311-3.284-5.229-4.378-7.783
		c-2.919-6.81-4.378-14.35-7.54-21.161c-1.46-3.162-4.013-6.445-6.081-9.363c-2.31-3.284-4.865-5.595-6.689-9.486
		c-0.607-1.337-1.459-3.526-0.487-4.986c0.244-0.973,0.729-1.337,1.703-1.581c1.581-1.338,6.081,0.365,7.661,1.095
		c4.5,1.823,8.27,3.527,12.04,6.08c1.702,1.216,3.527,3.527,5.715,4.135h2.555c3.891,0.851,8.269,0.243,11.917,1.337
		c6.446,2.067,12.282,5.108,17.512,8.392c15.932,10.093,29.064,24.444,37.942,41.591c1.459,2.796,2.066,5.351,3.405,8.269
		c2.554,5.959,5.715,12.04,8.27,17.877c2.553,5.715,4.985,11.553,8.634,16.296c1.825,2.554,9.121,3.891,12.404,5.229
		c2.432,1.095,6.203,2.067,8.392,3.405c4.134,2.553,8.27,5.473,12.16,8.27C196.778,168.072,202.857,171.113,203.224,173.544
		L203.224,173.544L203.224,173.544z"/>
	<path fill="#00546B" d="M79.179,67.865c-2.067,0-3.526,0.244-4.986,0.609c0-0.001,0,0.122,0,0.243h0.243
		c0.974,1.946,2.675,3.283,3.891,4.985c0.974,1.946,1.824,3.892,2.797,5.838c0.122-0.122,0.243-0.244,0.243-0.244
		c1.704-1.216,2.554-3.162,2.554-6.081c-0.729-0.851-0.851-1.703-1.459-2.554C81.733,69.445,80.152,68.838,79.179,67.865
		L79.179,67.865L79.179,67.865z"/>
</g>
</svg>
