<?xml version="1.0" encoding="utf-8"?>
<!-- Generator: Adobe Illustrator 16.0.3, SVG Export Plug-In . SVG Version: 6.00 Build 0)  -->
<!DOCTYPE svg PUBLIC "-//W3C//DTD SVG 1.1//EN" "http://www.w3.org/Graphics/SVG/1.1/DTD/svg11.dtd">
<svg version="1.1" id="Ebene_1" xmlns="http://www.w3.org/2000/svg" xmlns:xlink="http://www.w3.org/1999/xlink" x="0px" y="0px"
	 width="256px" height="256px" viewBox="128 -74 256 256" enable-background="new 128 -74 256 256" xml:space="preserve">
<g>
	<path fill="#009900" d="M185.299,77.393c-1.279,0-2.539-0.498-3.479-1.44l-29.118-29.12v25.641c0,2.718-2.203,4.92-4.92,4.92
		c-2.716,0-4.92-2.202-4.92-4.92v-37.52c0-1.992,1.2-3.785,3.038-4.546c1.837-0.764,3.955-0.342,5.362,1.067l29.118,29.12v-25.64
		c0-2.718,2.202-4.92,4.92-4.92c2.718,0,4.92,2.203,4.92,4.92v37.52c0,1.989-1.201,3.784-3.039,4.547
		C186.573,77.271,185.935,77.393,185.299,77.393"/>
	<path fill="#009900" d="M208.084,30.08l-1.352,2.523l-10.456,19.004l-1.352,2.399l1.352,2.397l10.456,18.39l1.413,2.521h27.371
		l1.352-2.767l7.811-15.745l3.505-7.134h-7.933l-19.988,0.061c-2.6-0.035-4.991,2.321-4.991,4.921c0,2.6,2.392,4.957,4.991,4.92
		l12.055-0.062l-2.952,5.966h-15.499l-7.689-13.531l7.75-14.022h16.486l3.844,7.888h9.903l-6.243-14.959l-1.354-2.77H208.084"/>
	<path fill="#009900" d="M257.93,30.019c-2.578,0.032-4.893,2.405-4.859,4.981v12.822h9.841V35
		C262.943,32.382,260.545,29.985,257.93,30.019"/>
	<path fill="#009900" d="M273.702,77.487c-0.634,0-1.273-0.122-1.882-0.374c-1.838-0.762-3.036-2.557-3.036-4.547v-37.52
		c0-2.718,2.202-4.92,4.92-4.92s4.92,2.202,4.92,4.92v25.641l29.118-29.12c1.403-1.405,3.517-1.83,5.361-1.066
		c1.838,0.762,3.036,2.557,3.036,4.546v37.52c0,2.719-2.202,4.921-4.92,4.921s-4.92-2.202-4.92-4.921v-25.64l-29.118,29.119
		C276.243,76.987,274.984,77.487,273.702,77.487"/>
	<path fill="#009900" d="M352.587,53.77l15.307-15.25c1.925-1.917,1.93-5.033,0.012-6.959c-1.917-1.925-5.031-1.929-6.958-0.012
		l-15.329,15.276l-15.33-15.276c-1.926-1.919-5.04-1.913-6.957,0.012c-1.919,1.927-1.913,5.042,0.01,6.959l15.307,15.25
		l-15.261,15.208c-1.927,1.919-1.931,5.032-0.012,6.957c0.96,0.966,2.222,1.448,3.485,1.448c1.256,0,2.511-0.479,3.472-1.437
		l15.286-15.231l15.284,15.231c0.962,0.958,2.216,1.437,3.474,1.437c1.264,0,2.523-0.482,3.485-1.448
		c1.917-1.925,1.913-5.038-0.012-6.957L352.587,53.77"/>
	<path fill="#009900" d="M257.93,77.348c-2.578-0.032-4.893-2.405-4.859-4.981V51.77h9.841v20.596
		C262.943,74.981,260.545,77.379,257.93,77.348"/>
</g>
</svg>
