<?xml version="1.0" encoding="utf-8"?>
<!-- Generator: Adobe Illustrator 16.0.3, SVG Export Plug-In . SVG Version: 6.00 Build 0)  -->
<svg version="1.2" baseProfile="tiny" id="Ebene_1" xmlns="http://www.w3.org/2000/svg" xmlns:xlink="http://www.w3.org/1999/xlink"
	 x="0px" y="0px" width="400px" height="400px" viewBox="0 0 400 400" xml:space="preserve">
<g>
	<path fill="#689F63" d="M198.133,312.43c-1.214,0-2.428-0.326-3.456-0.934l-11.114-6.585c-1.634-0.933-0.841-1.261-0.28-1.447
		c2.195-0.747,2.662-0.935,4.997-2.242c0.28-0.187,0.561-0.093,0.841,0.048l8.499,5.043c0.327,0.141,0.747,0.141,1.027,0
		l33.156-19.146c0.326-0.187,0.514-0.514,0.514-0.887v-38.292c0-0.374-0.188-0.701-0.514-0.887l-33.156-19.146
		c-0.28-0.188-0.7-0.188-1.027,0l-33.109,19.146c-0.327,0.14-0.561,0.513-0.561,0.887v38.292c0,0.327,0.234,0.7,0.514,0.887
		l9.105,5.23c4.903,2.475,7.939-0.467,7.939-3.362v-37.778c0-0.561,0.42-0.934,0.981-0.934h4.156c0.56,0,0.98,0.373,0.98,0.934
		v37.778c0,6.585-3.596,10.367-9.806,10.367c-1.915,0-3.456,0-7.659-2.102l-8.686-4.996c-2.148-1.262-3.502-3.55-3.502-6.024
		v-38.292c0-2.476,1.354-4.811,3.502-6.024l33.155-19.192c2.102-1.168,4.904-1.168,7.005,0l33.155,19.192
		c2.147,1.214,3.456,3.549,3.456,6.024v38.292c0,2.475-1.309,4.763-3.456,6.024l-33.155,19.146
		c-1.074,0.606-2.288,0.934-3.502,0.934"/>
	<path fill="#689F63" d="M208.36,286.045c-14.477,0-17.512-6.678-17.512-12.234c0-0.56,0.42-0.98,0.934-0.98h4.296
		c0.466,0,0.84,0.327,0.934,0.795c0.654,4.389,2.568,6.583,11.348,6.583c7.005,0,9.946-1.587,9.946-5.276
		c0-2.147-0.84-3.736-11.674-4.81c-9.106-0.888-14.71-2.896-14.71-10.134c0-6.678,5.65-10.693,15.083-10.693
		c10.647,0,15.924,3.689,16.577,11.628c0,0.279-0.093,0.514-0.279,0.746c-0.188,0.188-0.42,0.281-0.701,0.281h-4.296
		c-0.467,0-0.84-0.327-0.934-0.748c-1.027-4.576-3.549-6.07-10.367-6.07c-7.611,0-8.499,2.662-8.499,4.67
		c0,2.429,1.028,3.129,11.348,4.483c10.18,1.354,15.037,3.269,15.037,10.413c0,7.238-6.07,11.395-16.578,11.395 M248.707,245.466
		h1.121c0.934,0,1.12-0.607,1.12-0.98c0-0.981-0.7-0.981-1.074-0.981h-1.12L248.707,245.466z M247.353,242.336h2.476
		c0.841,0,2.521,0,2.521,1.916c0,1.307-0.841,1.587-1.354,1.728c0.98,0.094,1.074,0.747,1.168,1.634
		c0.093,0.607,0.187,1.588,0.373,1.915h-1.494c-0.047-0.327-0.28-2.148-0.28-2.242c-0.093-0.42-0.233-0.606-0.747-0.606h-1.261
		v2.849h-1.401V242.336z M244.411,245.933c0,2.941,2.381,5.37,5.37,5.37c2.941,0,5.37-2.476,5.37-5.37
		c0-2.989-2.475-5.37-5.417-5.37C246.84,240.563,244.411,242.897,244.411,245.933 M256.179,245.933c0,3.503-2.896,6.396-6.397,6.396
		c-3.503,0-6.397-2.848-6.397-6.396c0-3.597,2.941-6.397,6.397-6.397c3.408,0,6.351,2.801,6.351,6.397"/>
	<path fill-rule="evenodd" fill="#343434" d="M95.445,162.671c0-1.541-0.794-2.942-2.148-3.689l-35.163-20.22
		c-0.56-0.374-1.261-0.561-1.915-0.561h-0.374c-0.654,0-1.354,0.187-1.915,0.561l-35.164,20.22
		c-1.354,0.747-2.148,2.148-2.148,3.689l0.093,54.495c0,0.748,0.374,1.448,1.027,1.821c0.654,0.421,1.494,0.421,2.102,0
		l20.92-11.954c1.307-0.793,2.148-2.194,2.148-3.689v-25.45c0-1.541,0.794-2.942,2.102-3.689l8.919-5.137
		c0.653-0.374,1.354-0.561,2.102-0.561c0.747,0,1.494,0.187,2.101,0.561l8.919,5.137c1.308,0.747,2.102,2.148,2.102,3.689v25.45
		c0,1.495,0.841,2.896,2.148,3.689l20.874,11.954c0.654,0.374,1.494,0.374,2.148,0c0.654-0.373,1.028-1.073,1.028-1.821
		L95.445,162.671z M261.361,191.016c0,0.374-0.186,0.747-0.513,0.934l-12.095,6.958c-0.327,0.187-0.747,0.187-1.074,0l-12.048-6.958
		c-0.374-0.187-0.561-0.561-0.561-0.934v-13.916c0-0.374,0.187-0.748,0.514-0.934l12.095-6.958c0.327-0.187,0.747-0.187,1.074,0
		l12.048,6.958c0.374,0.187,0.56,0.56,0.56,0.934V191.016z M264.631,87.768c-0.654-0.374-1.447-0.374-2.102,0
		s-1.074,1.074-1.074,1.868v53.936c0,0.514-0.279,1.027-0.747,1.308c-0.467,0.233-1.026,0.233-1.494,0l-8.779-5.09
		c-1.308-0.747-2.941-0.747-4.25,0l-35.163,20.313c-1.307,0.747-2.147,2.148-2.147,3.643v40.627c0,1.541,0.841,2.895,2.147,3.689
		l35.163,20.313c1.309,0.747,2.942,0.747,4.25,0l35.164-20.313c1.307-0.795,2.147-2.195,2.147-3.689V103.131
		c0-1.541-0.841-2.942-2.195-3.689L264.631,87.768z M381.748,176.727c1.308-0.747,2.102-2.148,2.102-3.689v-9.807
		c0-1.541-0.794-2.942-2.102-3.689l-34.93-20.313c-1.354-0.747-2.941-0.747-4.296,0l-35.163,20.313
		c-1.308,0.747-2.102,2.148-2.102,3.689v40.58c0,1.542,0.794,2.942,2.147,3.689l34.93,19.94c1.309,0.747,2.849,0.747,4.157,0
		l21.153-11.721c0.654-0.374,1.074-1.075,1.074-1.868c0-0.747-0.42-1.447-1.074-1.821l-35.35-20.313
		c-0.701-0.374-1.074-1.074-1.074-1.868v-12.702c0-0.794,0.373-1.495,1.027-1.868l11.021-6.351c0.653-0.374,1.447-0.374,2.102,0
		l11.021,6.351c0.653,0.374,1.074,1.074,1.074,1.868v9.993c0,0.747,0.42,1.448,1.074,1.821c0.653,0.374,1.447,0.374,2.102,0
		L381.748,176.727z M381.748,176.727"/>
	<path fill-rule="evenodd" fill="#689F63" d="M344.157,174.812c0.233-0.14,0.56-0.14,0.793,0l6.771,3.923
		c0.233,0.14,0.421,0.374,0.421,0.7v7.799c0,0.28-0.188,0.56-0.421,0.7l-6.771,3.876c-0.233,0.14-0.56,0.14-0.793,0l-6.725-3.876
		c-0.28-0.14-0.421-0.42-0.421-0.7v-7.799c0-0.327,0.141-0.561,0.374-0.7L344.157,174.812z M344.157,174.812"/>
	<path fill="#4D9A41" d="M191.362,203.718v-40.44c0-1.495-0.794-2.895-2.102-3.642l-34.976-20.174
		c-0.654-0.374-1.401-0.56-2.148-0.56c-0.701,0-1.448,0.187-2.102,0.56l-34.977,20.174c-1.308,0.747-2.102,2.147-2.102,3.642v40.44
		c0,1.495,0.794,2.896,2.102,3.643l34.977,20.173c1.308,0.794,2.941,0.794,4.25,0l34.976-20.173
		C190.568,206.613,191.362,205.213,191.362,203.718z"/>
	<path fill="#5A9A51" d="M150.082,227.533c0.748,0.467,1.588,0.654,2.429,0.562c0.28,0,0.56-0.047,0.84-0.141l36.891-67.525
		c-0.28-0.327-0.607-0.561-0.981-0.793l-22.928-13.216l-12.095-6.958c-0.327-0.233-0.701-0.374-1.074-0.467l-39.319,67.245
		c0.327,0.467,0.747,0.841,1.214,1.12l30.026,17.324L150.082,227.533z"/>
	<g>
		<path fill="none" d="M191.316,204.465l-0.047-0.08v0.232C191.281,204.564,191.306,204.518,191.316,204.465z"/>
		<path fill="#54A242" d="M189.261,207.36c1.027-0.625,1.742-1.598,2.008-2.743v-0.232l-38.292-65.39
			c-0.28-0.093-0.56-0.093-0.887-0.093c-0.094,0-0.234,0-0.327,0c-0.607,0.046-1.167,0.233-1.728,0.56l-34.883,20.127l37.638,68.506
			c0.514-0.095,1.027-0.281,1.495-0.562L189.261,207.36z"/>
	</g>
</g>
</svg>
