<?xml version="1.0" encoding="utf-8"?>
<!-- Generator: Adobe Illustrator 16.0.3, SVG Export Plug-In . SVG Version: 6.00 Build 0)  -->
<!DOCTYPE svg PUBLIC "-//W3C//DTD SVG 1.1//EN" "http://www.w3.org/Graphics/SVG/1.1/DTD/svg11.dtd">
<svg version="1.1" id="Ebene_1" xmlns="http://www.w3.org/2000/svg" xmlns:xlink="http://www.w3.org/1999/xlink" x="0px" y="0px"
	 width="256px" height="256px" viewBox="0 -78 256 256" enable-background="new 0 -78 256 256" xml:space="preserve">
<g>
	<path fill="#CB3837" d="M13.838,5.396v76.255H77.31v12.782H128V81.651h114.162V5.396H13.838L13.838,5.396z"/>
	<path fill="#FFFFFF" d="M51.745,18.179H26.621v12.783v37.907h25.125V30.961h12.783v37.907H77.31V30.961V18.179H51.745
		L51.745,18.179z"/>
	<path fill="#FFFFFF" d="M90.093,18.179v48.046v2.644v12.783h25.565V68.868h25.124V18.179H90.093L90.093,18.179z M128,56.086
		h-12.342V30.961H128V56.086L128,56.086z"/>
	<path fill="#FFFFFF" d="M178.689,18.179h-25.124v12.783v37.907h25.124V30.961h12.783v37.907h12.782V30.961h12.782v37.907h12.783
		V30.961V19.061v-0.882H178.689L178.689,18.179z"/>
</g>
</svg>
