<?xml version="1.0" encoding="utf-8"?>
<!-- Generator: Adobe Illustrator 16.0.3, SVG Export Plug-In . SVG Version: 6.00 Build 0)  -->
<!DOCTYPE svg PUBLIC "-//W3C//DTD SVG 1.1//EN" "http://www.w3.org/Graphics/SVG/1.1/DTD/svg11.dtd">
<svg version="1.1" id="Ebene_1" xmlns="http://www.w3.org/2000/svg" xmlns:xlink="http://www.w3.org/1999/xlink" x="0px" y="0px"
	 width="256px" height="256px" viewBox="0 -60.5 256 256" enable-background="new 0 -60.5 256 256" xml:space="preserve">
<g>
	
		<radialGradient id="SVGID_1_" cx="330.5518" cy="-398.9604" r="244.786" gradientTransform="matrix(0.463 0 0 -0.463 -59.5312 -146.8379)" gradientUnits="userSpaceOnUse">
		<stop  offset="0" style="stop-color:#FFFFFF"/>
		<stop  offset="0.5" style="stop-color:#4C6B97"/>
		<stop  offset="1" style="stop-color:#231F20"/>
	</radialGradient>
	<ellipse fill="url(#SVGID_1_)" cx="128" cy="67.3" rx="86.303" ry="45.376"/>
	<ellipse fill="#6181B6" cx="128" cy="67.3" rx="82.932" ry="42.005"/>
	<g>
		<path fill="#FFFFFF" d="M144.789,80.92l4.112-21.171c0.944-4.787,0.135-8.36-2.293-10.586c-2.359-2.157-6.405-3.236-12.338-3.236
			h-7.147l2.023-10.519c0.067-0.404,0-0.809-0.271-1.146c-0.269-0.337-0.606-0.472-1.011-0.472h-9.844
			c-0.674,0-1.214,0.472-1.349,1.079l-4.382,22.452c-0.405-2.562-1.349-4.72-2.967-6.473c-2.899-3.304-7.417-4.99-13.552-4.99
			H76.825c-0.674,0-1.214,0.472-1.349,1.079l-8.833,45.579c-0.067,0.404,0,0.81,0.27,1.146c0.27,0.337,0.607,0.472,1.012,0.472
			h9.911c0.674,0,1.213-0.472,1.349-1.079l2.157-10.989h7.35c3.843,0,7.146-0.405,9.642-1.214c2.629-0.877,4.989-2.293,7.08-4.248
			c1.686-1.551,3.102-3.304,4.18-5.191l-1.753,9.103c-0.067,0.404,0,0.809,0.27,1.146s0.607,0.472,1.011,0.472h9.844
			c0.674,0,1.213-0.472,1.348-1.078l4.854-24.947h6.742c2.899,0,3.709,0.54,3.979,0.809c0.202,0.203,0.606,1.011,0.135,3.506
			l-3.911,20.159c-0.066,0.404,0,0.81,0.271,1.146c0.27,0.338,0.606,0.473,1.011,0.473h10.114
			C144.114,81.998,144.654,81.526,144.789,80.92z M99.21,63.389c-0.607,3.169-1.753,5.461-3.438,6.743s-4.45,1.955-8.091,1.955
			h-4.383l3.169-16.316h5.664c4.18,0,5.866,0.876,6.54,1.618C99.547,58.467,99.75,60.558,99.21,63.389z"/>
		<path fill="#FFFFFF" d="M186.861,50.849c-2.899-3.304-7.417-4.99-13.552-4.99h-19.081c-0.675,0-1.215,0.472-1.349,1.079
			l-8.833,45.511c-0.067,0.404,0,0.809,0.27,1.146c0.27,0.338,0.606,0.473,1.012,0.473h9.911c0.675,0,1.214-0.473,1.349-1.079
			l2.157-10.99h7.35c3.843,0,7.146-0.404,9.642-1.214c2.63-0.876,4.989-2.292,7.079-4.247c1.754-1.618,3.236-3.438,4.315-5.394
			c1.079-1.956,1.888-4.113,2.36-6.473C190.638,58.805,189.76,54.22,186.861,50.849z M176.545,63.389
			c-0.606,3.169-1.752,5.461-3.438,6.743c-1.687,1.281-4.451,1.955-8.092,1.955h-4.382l3.168-16.316h5.664
			c4.181,0,5.866,0.876,6.54,1.618C176.949,58.467,177.152,60.558,176.545,63.389z"/>
	</g>
	<g>
		<path fill="#000004" d="M92.13,54.422c3.776,0,6.271,0.674,7.551,2.09c1.281,1.416,1.551,3.776,0.876,7.147
			c-0.674,3.506-2.022,6.068-3.978,7.551c-1.955,1.483-4.921,2.226-8.899,2.226H81.68l3.708-19.014H92.13z M67.993,92.719h9.911
			l2.36-12.069h8.496c3.775,0,6.81-0.404,9.237-1.213c2.428-0.81,4.585-2.09,6.607-3.978c1.686-1.552,3.034-3.237,4.045-5.058
			c1.012-1.82,1.753-3.843,2.158-6.068c1.079-5.394,0.27-9.574-2.359-12.608c-2.63-3.034-6.81-4.518-12.541-4.518H76.825
			L67.993,92.719z"/>
		<path fill="#000004" d="M118.088,35.139h9.844l-2.36,12.069h8.765c5.528,0,9.305,0.944,11.395,2.899
			c2.091,1.956,2.697,5.057,1.888,9.373l-4.112,21.17h-9.979l3.91-20.159c0.472-2.292,0.27-3.843-0.473-4.652
			c-0.741-0.809-2.427-1.281-4.921-1.281h-7.889L119.1,80.649h-9.844L118.088,35.139z"/>
		<path fill="#000004" d="M169.466,54.422c3.775,0,6.271,0.674,7.552,2.09c1.28,1.416,1.551,3.776,0.876,7.147
			c-0.674,3.506-2.022,6.068-3.978,7.551c-1.955,1.483-4.922,2.226-8.9,2.226h-6.001l3.709-19.014H169.466z M145.328,92.719h9.911
			l2.36-12.069h8.495c3.775,0,6.81-0.404,9.237-1.213c2.427-0.81,4.585-2.09,6.607-3.978c1.686-1.552,3.034-3.237,4.045-5.058
			c1.012-1.82,1.753-3.843,2.158-6.068c1.078-5.394,0.27-9.574-2.36-12.608s-6.81-4.518-12.541-4.518H154.16L145.328,92.719z"/>
	</g>
</g>
</svg>
