<?xml version="1.0" encoding="utf-8"?>
<!-- Generator: Adobe Illustrator 16.0.3, SVG Export Plug-In . SVG Version: 6.00 Build 0)  -->
<!DOCTYPE svg PUBLIC "-//W3C//DTD SVG 1.1//EN" "http://www.w3.org/Graphics/SVG/1.1/DTD/svg11.dtd">
<svg version="1.1" id="Ebene_1" xmlns="http://www.w3.org/2000/svg" xmlns:xlink="http://www.w3.org/1999/xlink" x="0px" y="0px"
	 width="256px" height="256px" viewBox="128 -84 256 256" enable-background="new 128 -84 256 256" xml:space="preserve">
<g>
	<path fill="#1FD3EF" d="M258.417,24.271h8.827c7.444,10.731,15.142,22.06,22.908,33.255c7.743-11.168,15.181-22.393,22.714-33.259
		h8.831v39.967h-5.82V30.005l-23.529,34.229l-4.495-0.008L264.34,30.005l-0.057,34.229h-5.866V24.271"/>
	<path fill="#5D5D5D" d="M336.047,38.827c0,0-3.617,0.041-5.04,0.041c-0.854-10.082,1.983-13.621,10.288-14.308
		c9.062-0.327,15.646-0.184,23.852-0.001c6.087,0.474,8.827,2.854,9.616,8.921c0.249,1.919,0.273,3.898,0.139,5.832
		c-0.396,5.662-2.986,8.421-8.662,8.969c-6.789,0.654-13.603,1.058-20.403,1.608c-1.857,0.15-3.729,0.322-5.552,0.693
		c-3.392,0.689-4.652,1.478-4.806,4.871c-0.055,1.21,0.068,2.899,0.068,4.392h39.362l0.041,4.39h-44.113
		c0.048-3.367-0.267-7.134,0.228-10.503c0.676-4.613,3.746-6.859,8.03-7.62c7.052-1.251,14.229-1.203,21.34-1.87
		c1.695-0.159,3.39-0.36,5.072-0.621c1.05-0.163,1.705-0.028,2.776-1.175c1.991-1.138,1.713-6.626,1.22-10.203
		c-0.616-2.628-3.156-3.731-5.644-3.825c-7.309-0.275-14.625-0.289-21.933,0.013c-3.617,0.149-5.492,2.26-5.802,6.234
		C336.021,36.016,336.047,38.827,336.047,38.827"/>
	<path fill="#1FD3EF" d="M207.754,28.928l0.02-4.777c0,0,23.459-0.008,33.944,0c6.979,0.006,10.105,3.084,10.232,10.082
		c0.041,2.19-0.026,4.371-0.306,6.558c-0.574,4.499-2.919,6.947-7.457,7.675c-2.993,0.479-5.999,0.277-8.999,0.291
		c-7.222,0.033-14.445,0.011-21.984,0.011v15.465h-5.418V43.989c0,0,20.57,0.125,29.509,0.012c6.833-0.087,9.597-0.612,8.576-9.963
		c-0.399-3.646-1.74-4.907-5.585-4.988C233.868,28.913,207.754,28.928,207.754,28.928"/>
	<path fill="#1FD3EF" d="M167.282,64.442c-8.441,0.001-16.883,0.021-25.325-0.01c-2.968-0.011-4.536-1.741-4.08-4.391
		c0.417-2.416,2.084-2.999,4.28-2.996c15.341,0.027,30.683,0.015,46.023,0.015c1.624,0,3.248-0.037,4.87,0.009
		c2.481,0.071,3.911,1.43,3.938,3.664c0.027,2.227-1.387,3.676-3.895,3.69C184.49,64.472,175.886,64.442,167.282,64.442"/>
	<path fill="#5D5D5D" d="M167.282,48.711c-8.441,0.001-16.883,0.021-25.325-0.01c-2.968-0.012-4.536-1.741-4.08-4.391
		c0.417-2.416,2.084-3,4.28-2.996c15.341,0.028,30.683,0.014,46.023,0.014c1.624,0,3.248-0.037,4.87,0.009
		c2.481,0.071,3.911,1.43,3.938,3.664c0.027,2.227-1.387,3.675-3.895,3.689C184.49,48.74,175.886,48.71,167.282,48.711"/>
	<path fill="#1FD3EF" d="M167.282,32.125c-8.441,0-16.883,0.021-25.325-0.01c-2.968-0.011-4.536-1.741-4.08-4.391
		c0.417-2.416,2.084-3,4.28-2.996c15.341,0.027,30.683,0.014,46.023,0.014c1.624,0,3.248-0.037,4.87,0.009
		c2.481,0.071,3.911,1.43,3.938,3.664c0.027,2.227-1.387,3.676-3.895,3.69C184.49,32.154,175.886,32.125,167.282,32.125"/>
</g>
</svg>
