<?xml version="1.0" encoding="utf-8"?>
<!-- Generator: Adobe Illustrator 16.0.3, SVG Export Plug-In . SVG Version: 6.00 Build 0)  -->
<!DOCTYPE svg PUBLIC "-//W3C//DTD SVG 1.1//EN" "http://www.w3.org/Graphics/SVG/1.1/DTD/svg11.dtd">
<svg version="1.1" id="Ebene_1" xmlns="http://www.w3.org/2000/svg" xmlns:xlink="http://www.w3.org/1999/xlink" x="0px" y="0px"
	 width="256px" height="256px" viewBox="0 0 256 256" enable-background="new 0 0 256 256" xml:space="preserve">
<g>
	<circle fill="#F2F2F2" cx="128" cy="128" r="77.145"/>
	<path fill="#ED1C24" d="M151.199,173.613c-15.232,5.61-31.952,5.61-47.184,0c-1.402-0.505-2.525-2.159-2.525-3.591v-3.675
		c0-1.431,1.123-2.132,2.525-1.627c15.232,5.61,31.952,5.61,47.184,0c1.402-0.505,2.524,0.196,2.524,1.627v3.675
		C153.696,171.454,152.574,173.108,151.199,173.613L151.199,173.613z"/>
	<path fill="#C1272D" d="M151.199,169.125c-15.232,7.799-31.952,7.799-47.184,0c-1.402-0.701-2.525-3.001-2.525-4.993v-5.078
		c0-1.991,1.123-2.974,2.525-2.243c15.232,7.798,31.952,7.798,47.184,0c1.402-0.702,2.524,0.252,2.524,2.243v5.078
		C153.696,166.124,152.574,168.424,151.199,169.125L151.199,169.125z"/>
	<g transform="translate(117.760000, 202.938182)">
		<ellipse fill="#C1272D" cx="9.847" cy="-27.418" rx="2.16" ry="2.16"/>
		<ellipse fill="#FF931E" cx="9.847" cy="-27.726" rx="1.852" ry="1.852"/>
		<ellipse fill="#FFB81E" cx="10.381" cy="-27.081" rx="0.645" ry="0.645"/>
		<ellipse fill="#FF931E" cx="9.847" cy="-20.404" rx="5.778" ry="5.778"/>
		<circle fill="#FFB81E" cx="9.847" cy="-20.348" r="5.19"/>
		<path fill="#FF931E" d="M11.362-22.004c0.309,0.281,0.478,0.674,0.478,1.234c0,0.562-0.169,0.954-0.478,1.235
			c-0.337,0.252-0.813,0.393-1.487,0.393H9.286v1.262h-1.01v-4.517h1.599C10.549-22.396,11.053-22.284,11.362-22.004L11.362-22.004z
			 M10.633-20.236c0.112-0.14,0.168-0.337,0.168-0.589c0-0.253-0.085-0.449-0.225-0.561c-0.168-0.113-0.393-0.169-0.73-0.169H9.286
			v1.515H9.96C10.296-20.04,10.52-20.095,10.633-20.236L10.633-20.236z"/>
	</g>
	<path fill="#F7BD89" d="M174.427,135.519c1.402,19.215-19.385,36.468-46.539,36.439c-27.127,0.028-47.941-17.225-46.539-36.439
		c1.403-19.272,22.302-35.178,46.595-35.207C152.266,100.34,172.996,116.246,174.427,135.519L174.427,135.519z"/>
	<path fill="#FBD5A0" d="M127.804,97.619c-25.528,0-49.232,17.981-44.744,45.361c0.897,2.524,2.384,9.088,9.481,14.896
		c2.132,1.739,5.807,3.198,7.546,2.02c4.46-3.029-3.45-11.726,5.582-19.749h-0.196c4.91-3.73,11.866-6.705,22.274-6.705
		s17.365,2.975,22.274,6.705h-0.196c9.032,8.023,1.15,16.72,5.582,19.749c1.739,1.179,5.442-0.28,7.547-2.02
		c7.097-5.808,8.611-12.371,9.509-14.896C176.951,115.573,153.332,97.619,127.804,97.619L127.804,97.619z"/>
	<path d="M149.769,143.092c-4.292-5.273-12.427-10.379-21.881-10.379h-0.084h-0.028c-9.481,0-17.617,5.105-21.881,10.379
		c-4.432,5.387-2.833,7.687-2.833,12.849c0,18.683,6.536,13.24,10.94,15.485c4.488,2.188,9.033,1.402,13.802,1.402l0,0h0.084
		c4.769,0,9.313,0.785,13.803-1.431c4.375-2.244,10.939,3.254,10.939-15.429C152.602,150.835,154.201,148.479,149.769,143.092
		L149.769,143.092z"/>
	<g transform="translate(62.370909, 123.810909)">
		<circle fill="#F7BD89" cx="33.93" cy="10.978" r="7.827"/>
		<circle cx="34.631" cy="9.659" r="7.827"/>
		<circle fill="#FFFFFF" cx="36.623" cy="6.153" r="2.02"/>
	</g>
	<g transform="translate(165.701818, 123.810909)">
		<circle fill="#F7BD89" cx="-6.563" cy="10.978" r="7.827"/>
		<circle cx="-7.012" cy="9.659" r="7.827"/>
		<circle fill="#FFFFFF" cx="-5.02" cy="6.153" r="2.02"/>
	</g>
	<path fill="#F7BD89" d="M111.337,104.632c0,0-26.51,4.572-27.576,36.244c-0.028,0.478-0.533,0.786-0.954,0.532l-0.842-0.504
		l-0.645-8.304l1.206-16.944l11.053-8.163l9.931-4.011L111.337,104.632L111.337,104.632z"/>
	<path fill="#F7BD89" d="M144.242,104.632c0,0,26.51,4.572,27.576,36.244c0.027,0.478,0.532,0.786,0.954,0.532l0.841-0.504
		l0.646-8.304l-1.207-16.944L162,107.494l-9.932-4.011L144.242,104.632L144.242,104.632z"/>
	<path fill="#4D4D4D" d="M127.249,161.033v-15.978h1.167v15.939c1.72,0.202,3.953,1.201,6.094,1.846
		c2.216,0.786,4.348,1.095,3.506,1.206c-2.918,0.112-6.115-0.981-10.042-0.925c-3.956-0.057-7.153,1.037-10.043,0.925
		c-0.841-0.14,1.291-0.448,3.506-1.206C123.464,162.23,125.556,161.3,127.249,161.033z M135.153,139.67
		c0.926,2.048-2.271,5.386-7.35,5.386c-5.078,0-8.275-3.338-7.35-5.386c0.897-2.104,4.124-2.777,7.35-2.805
		C131.03,136.893,134.255,137.566,135.153,139.67z"/>
	<path d="M111.337,104.632c0,0-31.223,4.32-28.529,35.318c0.14,1.571-6.228-6.704-11.165-9.229
		c-4.937-2.524-4.769-10.688-4.769-10.688s-0.084-14.223,19.861-18.431C106.652,97.423,111.337,104.632,111.337,104.632z
		 M144.242,104.632c0,0,31.223,4.32,28.53,35.318c-0.141,1.571,6.227-6.704,11.164-9.229c4.938-2.524,4.77-10.688,4.77-10.688
		s0.083-14.223-19.862-18.431C148.927,97.423,144.242,104.632,144.242,104.632z"/>
	<path fill="#F7BD89" d="M127.832,126.962c-9.706,0-19.524,9.538-17.477,8.472c3.787-1.992,5.975-5.498,17.477-5.498
		s13.662,3.506,17.477,5.498C147.356,136.5,137.538,126.962,127.832,126.962L127.832,126.962z"/>
	<path fill="#F7BD89" d="M127.832,122.782c-7.377,0-14.812,7.237-13.269,6.425c2.889-1.516,6.592-4.181,13.269-4.181
		c6.677,0,10.379,2.665,13.269,4.181C142.644,130.02,135.21,122.782,127.832,122.782L127.832,122.782z"/>
	<path fill="#F7BD89" d="M127.775,99.302c-8.135,0-16.382,4.657-14.671,4.124c3.198-0.981,7.294-2.693,14.671-2.693
		c7.378,0,11.474,1.711,14.672,2.693C144.158,103.959,135.938,99.302,127.775,99.302L127.775,99.302z"/>
	<path fill="#808080" d="M129.655,138.548c0.225,0.505-0.562,1.318-1.824,1.318s-2.048-0.813-1.823-1.318s1.01-0.674,1.823-0.701
		C128.617,137.847,129.431,138.015,129.655,138.548L129.655,138.548z"/>
</g>
</svg>
