<?xml version="1.0" encoding="utf-8"?>
<!-- Generator: Adobe Illustrator 16.0.3, SVG Export Plug-In . SVG Version: 6.00 Build 0)  -->
<!DOCTYPE svg PUBLIC "-//W3C//DTD SVG 1.1//EN" "http://www.w3.org/Graphics/SVG/1.1/DTD/svg11.dtd">
<svg version="1.1" id="Ebene_1" xmlns="http://www.w3.org/2000/svg" xmlns:xlink="http://www.w3.org/1999/xlink" x="0px" y="0px"
	 width="256px" height="256px" viewBox="0 -58 256 256" enable-background="new 0 -58 256 256" xml:space="preserve">
<g>
	<path d="M89.964,87.139c9.764,0,17.679-7.915,17.679-17.679s-7.915-17.679-17.679-17.679S72.286,59.696,72.286,69.46
		S80.201,87.139,89.964,87.139z M48.179,122.496c9.764,0,17.678-7.916,17.678-17.679c0-9.765-7.915-17.679-17.678-17.679
		S30.5,95.053,30.5,104.817C30.5,114.58,38.415,122.496,48.179,122.496z M207.821,122.496c9.764,0,17.679-7.916,17.679-17.679
		c0-9.765-7.915-17.679-17.679-17.679s-17.679,7.914-17.679,17.679C190.143,114.58,198.058,122.496,207.821,122.496z"/>
	<path fill="#D0021B" d="M149.759,70.205c-0.565-5.906-0.854-10.822-5.377-14.277c-5.731-4.375-12.222-1.536-20.218-4.422
		c-7.856-1.901-13.684-8.876-13.684-17.19c0-9.776,8.058-17.702,17.997-17.702c7.361,0,13.69,4.348,16.479,10.575
		c4.267,8.104,1.493,16.352,6.854,20.506c6.349,4.919,14.905,1.317,24.455,5.978c3.068,1.41,5.665,3.646,7.495,6.418
		c1.83,2.771,2.893,6.078,2.893,9.629c0,8.314-5.827,15.29-13.685,17.19c-7.995,2.886-14.485,0.047-20.217,4.423
		c-6.443,4.921-2.993,13.152-8.244,21.848c-2.981,5.726-9.04,9.646-16.029,9.646c-9.939,0-17.997-7.926-17.997-17.702
		c0-7.103,4.252-13.228,10.388-16.047c9.549-4.661,18.106-1.059,24.455-5.978C148.984,80.26,149.759,75.882,149.759,70.205z"/>
</g>
</svg>
