<?xml version="1.0" encoding="utf-8"?>
<!-- Generator: Adobe Illustrator 16.0.3, SVG Export Plug-In . SVG Version: 6.00 Build 0)  -->
<!DOCTYPE svg PUBLIC "-//W3C//DTD SVG 1.1//EN" "http://www.w3.org/Graphics/SVG/1.1/DTD/svg11.dtd">
<svg version="1.1" id="Ebene_1" xmlns="http://www.w3.org/2000/svg" xmlns:xlink="http://www.w3.org/1999/xlink" x="0px" y="0px"
	 width="256px" height="256px" viewBox="0 0 256 256" enable-background="new 0 0 256 256" xml:space="preserve">
<filter  height="200%" width="200%" x="-50%" y="-50%" filterUnits="objectBoundingBox" id="filter-5">
	<feOffset  dy="1" result="shadowOffsetOuter1" dx="0" in="SourceAlpha"></feOffset>
	<feGaussianBlur  result="shadowBlurOuter1" stdDeviation="2" in="shadowOffsetOuter1"></feGaussianBlur>
	
		<feColorMatrix  type="matrix" result="shadowMatrixOuter1" in="shadowBlurOuter1" values="0 0 0 0 0   0 0 0 0 0   0 0 0 0 0  0 0 0 13 0">
		</feColorMatrix>
	<feMerge>
		<feMergeNode  in="shadowMatrixOuter1"></feMergeNode>
		<feMergeNode  in="SourceGraphic"></feMergeNode>
	</feMerge>
</filter>
<filter  height="200%" width="200%" x="-50%" y="-50%" filterUnits="objectBoundingBox" id="filter-2">
	<feOffset  dy="2" result="shadowOffsetOuter1" dx="0" in="SourceAlpha"></feOffset>
	<feGaussianBlur  result="shadowBlurOuter1" stdDeviation="2" in="shadowOffsetOuter1"></feGaussianBlur>
	
		<feColorMatrix  type="matrix" result="shadowMatrixOuter1" in="shadowBlurOuter1" values="0 0 0 0 0   0 0 0 0 0   0 0 0 0 0  0 0 0 0.266007133 0">
		</feColorMatrix>
	<feMerge>
		<feMergeNode  in="shadowMatrixOuter1"></feMergeNode>
		<feMergeNode  in="SourceGraphic"></feMergeNode>
	</feMerge>
</filter>
<g>
	<g transform="translate(4.000000, 2.000000)">
		<g filter="url(#filter-2)">
			
				<linearGradient id="SVGID_1_" gradientUnits="userSpaceOnUse" x1="-74.3184" y1="324.4902" x2="-74.3184" y2="325.1504" gradientTransform="matrix(248 0 0 -248 18554.875 80679.625)">
				<stop  offset="0.25" style="stop-color:#DBDBDA"/>
				<stop  offset="1" style="stop-color:#FFFFFF"/>
			</linearGradient>
			<circle fill="url(#SVGID_1_)" cx="124" cy="124" r="81.906"/>
		</g>
		
			<radialGradient id="SVGID_2_" cx="-74.2163" cy="324.7979" r="0.4031" gradientTransform="matrix(229.4 0 0 -229.4 17159.9492 74616.1016)" gradientUnits="userSpaceOnUse">
			<stop  offset="0" style="stop-color:#2ABCE1"/>
			<stop  offset="0.1136" style="stop-color:#2ABBE1"/>
			<stop  offset="1" style="stop-color:#3375F8"/>
		</radialGradient>
		<circle fill="url(#SVGID_2_)" cx="124" cy="124" r="75.763"/>
		<g transform="translate(9.687500, 8.718750)">
			<path fill="#F3F3F3" d="M114.44,57.947c-0.512,0-0.96-0.384-0.96-0.896V43.677c0-0.512,0.448-0.896,0.96-0.896
				s0.96,0.384,0.96,0.896v13.374C115.336,57.563,114.952,57.947,114.44,57.947L114.44,57.947z"/>
			<path fill="#FFFFFF" d="M114.44,58.011c-0.576,0-1.024-0.448-1.024-0.96V43.677c0-0.512,0.448-0.96,1.024-0.96
				c0.576,0,1.024,0.448,1.024,0.96v13.374C115.465,57.563,114.952,58.011,114.44,58.011L114.44,58.011z M114.44,42.845
				c-0.448,0-0.896,0.384-0.896,0.832v13.374c0,0.448,0.384,0.832,0.896,0.832c0.448,0,0.896-0.384,0.896-0.832V43.677
				C115.272,43.229,114.889,42.845,114.44,42.845L114.44,42.845z"/>
			<path fill="#F3F3F3" d="M120.839,50.78c-0.512-0.064-0.896-0.448-0.896-0.96l0.448-5.951c0.063-0.512,0.512-0.896,1.023-0.832
				c0.513,0.064,0.896,0.448,0.896,0.96l-0.448,5.951C121.799,50.46,121.352,50.844,120.839,50.78L120.839,50.78z"/>
			<path fill="#FFFFFF" d="M120.839,50.844c-0.575-0.063-0.96-0.512-0.96-1.023l0.448-5.951c0.064-0.512,0.512-0.959,1.088-0.896
				c0.576,0.063,0.96,0.512,0.96,1.023l-0.447,5.951C121.863,50.524,121.415,50.908,120.839,50.844L120.839,50.844z M121.415,43.102
				c-0.447,0-0.896,0.32-0.896,0.768l-0.448,5.951c0,0.448,0.32,0.832,0.832,0.896c0.448,0,0.896-0.32,0.896-0.768l0.448-5.951
				C122.247,43.549,121.863,43.165,121.415,43.102L121.415,43.102z"/>
			<path fill="#F3F3F3" d="M125.639,59.099c-0.512-0.128-0.832-0.576-0.768-1.088l2.623-13.118c0.128-0.512,0.576-0.832,1.088-0.704
				c0.512,0.127,0.832,0.576,0.768,1.087l-2.623,13.118C126.663,58.843,126.15,59.163,125.639,59.099L125.639,59.099z"/>
			<path fill="#FFFFFF" d="M125.639,59.163c-0.576-0.128-0.896-0.64-0.832-1.152l2.624-13.118c0.127-0.512,0.64-0.896,1.216-0.768
				s0.896,0.64,0.831,1.152l-2.623,13.118C126.727,58.907,126.215,59.227,125.639,59.163L125.639,59.163z M128.646,44.253
				c-0.448-0.063-0.896,0.192-1.024,0.64l-2.624,13.118c-0.063,0.448,0.192,0.896,0.705,1.024c0.447,0.064,0.896-0.192,1.023-0.64
				l2.623-13.118C129.414,44.765,129.094,44.381,128.646,44.253L128.646,44.253z"/>
			<path fill="#F3F3F3" d="M133.317,53.34c-0.512-0.128-0.832-0.64-0.704-1.152l1.6-5.759c0.129-0.512,0.64-0.768,1.152-0.64
				c0.512,0.128,0.831,0.64,0.703,1.152l-1.6,5.759C134.342,53.212,133.829,53.468,133.317,53.34L133.317,53.34z"/>
			<path fill="#FFFFFF" d="M133.317,53.403c-0.512-0.128-0.896-0.704-0.704-1.215l1.6-5.759c0.129-0.512,0.704-0.832,1.216-0.704
				c0.513,0.128,0.896,0.704,0.704,1.216l-1.6,5.759C134.405,53.212,133.894,53.532,133.317,53.403L133.317,53.403z M135.429,45.917
				c-0.447-0.128-0.96,0.128-1.087,0.576l-1.601,5.759c-0.128,0.448,0.128,0.896,0.641,1.023c0.447,0.128,0.96-0.127,1.087-0.576
				l1.6-5.759C136.133,46.493,135.877,46.045,135.429,45.917L135.429,45.917z"/>
			<path fill="#F3F3F3" d="M136.453,62.362c-0.512-0.192-0.704-0.768-0.512-1.216l5.119-12.35c0.191-0.448,0.768-0.704,1.215-0.448
				c0.513,0.192,0.704,0.768,0.513,1.216l-5.119,12.35C137.477,62.362,136.901,62.618,136.453,62.362L136.453,62.362z"/>
			<path fill="#FFFFFF" d="M136.453,62.426c-0.512-0.192-0.769-0.768-0.576-1.28l5.119-12.35c0.191-0.512,0.768-0.704,1.344-0.512
				c0.512,0.192,0.768,0.768,0.575,1.28l-5.119,12.35C137.541,62.426,136.965,62.682,136.453,62.426L136.453,62.426z
				 M142.275,48.413c-0.447-0.192-0.96,0-1.151,0.448l-5.119,12.35c-0.192,0.448,0.063,0.896,0.512,1.088s0.96,0,1.152-0.448
				l5.119-12.35C142.915,49.116,142.724,48.604,142.275,48.413L142.275,48.413z"/>
			<path fill="#F3F3F3" d="M145.091,58.267c-0.447-0.256-0.64-0.768-0.447-1.216l2.688-5.311c0.256-0.448,0.768-0.64,1.279-0.384
				c0.448,0.256,0.641,0.768,0.448,1.216l-2.688,5.311C146.115,58.331,145.604,58.522,145.091,58.267L145.091,58.267z"/>
			<path fill="#FFFFFF" d="M145.091,58.331c-0.511-0.256-0.703-0.832-0.447-1.344l2.688-5.312c0.256-0.512,0.832-0.704,1.344-0.448
				s0.704,0.832,0.448,1.344l-2.688,5.311C146.18,58.395,145.604,58.587,145.091,58.331L145.091,58.331z M148.61,51.356
				c-0.447-0.192-0.96-0.064-1.151,0.384l-2.688,5.311c-0.191,0.384,0,0.896,0.384,1.152c0.448,0.192,0.96,0.064,1.151-0.384
				l2.688-5.311C149.187,52.124,148.994,51.612,148.61,51.356L148.61,51.356z"/>
			<path fill="#F3F3F3" d="M146.371,67.737c-0.448-0.32-0.576-0.896-0.256-1.28l7.423-11.07c0.256-0.448,0.832-0.512,1.28-0.256
				c0.447,0.32,0.575,0.896,0.255,1.28l-7.423,11.07C147.395,67.929,146.819,68.057,146.371,67.737L146.371,67.737z"/>
			<path fill="#FFFFFF" d="M146.371,67.801c-0.448-0.32-0.576-0.96-0.32-1.408l7.423-11.07c0.32-0.448,0.896-0.576,1.408-0.256
				c0.447,0.32,0.576,0.96,0.32,1.408l-7.423,11.07C147.459,67.993,146.819,68.121,146.371,67.801L146.371,67.801z M154.818,55.195
				c-0.385-0.256-0.96-0.192-1.217,0.192l-7.422,11.07c-0.257,0.384-0.129,0.896,0.255,1.152c0.385,0.256,0.96,0.192,1.216-0.192
				l7.423-11.006C155.329,56.027,155.202,55.451,154.818,55.195L154.818,55.195z"/>
			<path fill="#F3F3F3" d="M155.713,65.37c-0.384-0.32-0.511-0.896-0.191-1.28l3.711-4.671c0.32-0.384,0.896-0.448,1.28-0.128
				s0.512,0.896,0.192,1.28l-3.712,4.671C156.673,65.625,156.098,65.689,155.713,65.37L155.713,65.37z"/>
			<path fill="#FFFFFF" d="M155.649,65.434c-0.447-0.32-0.512-0.96-0.191-1.408l3.711-4.671c0.32-0.448,0.96-0.512,1.408-0.128
				c0.447,0.32,0.512,0.96,0.191,1.408l-3.711,4.671C156.737,65.753,156.098,65.817,155.649,65.434L155.649,65.434z M160.448,59.354
				c-0.384-0.32-0.896-0.256-1.216,0.128l-3.711,4.671c-0.256,0.384-0.192,0.896,0.191,1.216c0.385,0.32,0.896,0.256,1.217-0.128
				l3.711-4.671C160.896,60.187,160.832,59.61,160.448,59.354L160.448,59.354z"/>
			<path fill="#F3F3F3" d="M155.073,74.968c-0.384-0.384-0.384-0.959,0-1.279l9.471-9.407c0.384-0.384,0.96-0.32,1.28,0
				c0.319,0.32,0.384,0.96,0,1.28l-9.406,9.406C156.033,75.352,155.458,75.352,155.073,74.968L155.073,74.968z"/>
			<path fill="#FFFFFF" d="M155.01,75.032c-0.384-0.384-0.384-1.023,0-1.407l9.471-9.407c0.384-0.384,1.023-0.384,1.407,0
				s0.384,1.024,0,1.408l-9.47,9.406C156.033,75.416,155.394,75.416,155.01,75.032L155.01,75.032z M165.824,64.282
				c-0.32-0.32-0.896-0.32-1.216,0l-9.471,9.407c-0.319,0.32-0.319,0.896,0,1.216c0.32,0.32,0.896,0.32,1.216,0l9.471-9.407
				C166.144,65.178,166.144,64.666,165.824,64.282L165.824,64.282z"/>
			<path fill="#F3F3F3" d="M164.672,74.456c-0.32-0.384-0.32-0.96,0.064-1.28l4.543-3.839c0.384-0.32,0.96-0.256,1.28,0.128
				c0.319,0.384,0.319,0.96-0.064,1.28l-4.544,3.839C165.567,74.904,164.992,74.84,164.672,74.456L164.672,74.456z"/>
			<path fill="#FFFFFF" d="M164.608,74.52c-0.384-0.448-0.32-1.088,0.063-1.408l4.544-3.839c0.384-0.384,1.023-0.32,1.407,0.128
				s0.32,1.088-0.063,1.408l-4.544,3.839C165.632,75.032,164.992,74.968,164.608,74.52L164.608,74.52z M170.495,69.465
				c-0.319-0.384-0.832-0.384-1.216-0.128l-4.543,3.839c-0.32,0.32-0.385,0.832-0.064,1.216c0.32,0.384,0.832,0.384,1.216,0.128
				l4.543-3.839C170.815,70.361,170.815,69.849,170.495,69.465L170.495,69.465z"/>
			<path fill="#F3F3F3" d="M162.112,83.67c-0.32-0.448-0.191-1.024,0.256-1.28l11.135-7.423c0.447-0.256,1.023-0.128,1.279,0.256
				c0.32,0.448,0.192,1.024-0.256,1.28l-11.135,7.423C163.008,84.183,162.433,84.055,162.112,83.67L162.112,83.67z"/>
			<path fill="#FFFFFF" d="M162.049,83.67c-0.32-0.448-0.192-1.087,0.256-1.408l11.134-7.423c0.448-0.32,1.088-0.192,1.407,0.32
				c0.32,0.448,0.192,1.088-0.256,1.408l-11.134,7.422C163.008,84.311,162.368,84.183,162.049,83.67L162.049,83.67z M174.719,75.288
				c-0.256-0.384-0.769-0.512-1.152-0.256l-11.134,7.423c-0.384,0.255-0.512,0.768-0.192,1.215c0.257,0.384,0.768,0.512,1.151,0.256
				l11.135-7.423C174.91,76.184,174.975,75.672,174.719,75.288L174.719,75.288z"/>
			<path fill="#F3F3F3" d="M171.646,85.015c-0.256-0.448-0.127-1.024,0.32-1.28l5.183-2.943c0.448-0.256,1.024-0.064,1.28,0.384
				c0.256,0.448,0.128,1.024-0.32,1.28l-5.183,2.943C172.479,85.654,171.902,85.462,171.646,85.015L171.646,85.015z"/>
			<path fill="#FFFFFF" d="M171.583,85.078c-0.256-0.512-0.128-1.088,0.319-1.344l5.184-2.943c0.448-0.256,1.088-0.064,1.344,0.384
				c0.256,0.512,0.128,1.088-0.32,1.344l-5.183,2.944C172.479,85.718,171.839,85.526,171.583,85.078L171.583,85.078z
				 M178.365,81.239c-0.256-0.448-0.768-0.576-1.151-0.32l-5.184,2.944c-0.384,0.256-0.511,0.768-0.319,1.152
				c0.256,0.448,0.768,0.576,1.151,0.32l5.184-2.944C178.43,82.199,178.558,81.687,178.365,81.239L178.365,81.239z"/>
			<path fill="#F3F3F3" d="M167.359,93.525c-0.191-0.512,0-1.024,0.512-1.216l12.351-5.119c0.447-0.192,1.023,0.064,1.216,0.512
				c0.191,0.512,0,1.023-0.513,1.215l-12.35,5.119C168.127,94.229,167.552,94.037,167.359,93.525L167.359,93.525z"/>
			<path fill="#FFFFFF" d="M167.296,93.589c-0.192-0.512,0-1.088,0.512-1.344l12.35-5.119c0.512-0.192,1.088,0.064,1.28,0.576
				c0.191,0.512,0,1.087-0.513,1.344l-12.35,5.119C168.063,94.357,167.487,94.101,167.296,93.589L167.296,93.589z M181.309,87.766
				c-0.191-0.448-0.703-0.64-1.087-0.512l-12.351,5.119c-0.447,0.192-0.64,0.704-0.447,1.152s0.703,0.64,1.087,0.512l12.351-5.119
				C181.309,88.726,181.501,88.214,181.309,87.766L181.309,87.766z"/>
			<path fill="#F3F3F3" d="M176.382,96.725c-0.192-0.512,0.064-1.024,0.576-1.216l5.631-1.855c0.448-0.192,1.024,0.128,1.152,0.576
				c0.191,0.512-0.064,1.024-0.576,1.216l-5.631,1.856C177.086,97.492,176.574,97.236,176.382,96.725L176.382,96.725z"/>
			<path fill="#FFFFFF" d="M176.318,96.788c-0.192-0.512,0.063-1.087,0.64-1.28l5.631-1.855c0.512-0.192,1.088,0.128,1.279,0.64
				c0.192,0.512-0.063,1.088-0.64,1.28l-5.631,1.855C177.086,97.556,176.51,97.3,176.318,96.788L176.318,96.788z M183.741,94.357
				c-0.128-0.448-0.641-0.704-1.088-0.576l-5.632,1.856c-0.447,0.128-0.64,0.64-0.512,1.088c0.129,0.448,0.64,0.704,1.088,0.576
				l5.631-1.856C183.677,95.253,183.868,94.805,183.741,94.357L183.741,94.357z"/>
			<path fill="#F3F3F3" d="M170.623,104.339c-0.128-0.512,0.192-1.024,0.704-1.088l13.117-2.56c0.513-0.128,0.96,0.256,1.089,0.768
				c0.127,0.512-0.192,1.024-0.705,1.088l-13.117,2.56C171.199,105.171,170.687,104.851,170.623,104.339L170.623,104.339z"/>
			<path fill="#FFFFFF" d="M170.495,104.339c-0.128-0.576,0.256-1.088,0.768-1.216l13.118-2.56c0.512-0.128,1.023,0.256,1.152,0.832
				c0.127,0.576-0.257,1.088-0.769,1.216l-13.118,2.56C171.135,105.299,170.623,104.915,170.495,104.339L170.495,104.339z
				 M185.404,101.459c-0.063-0.448-0.512-0.768-0.96-0.704l-13.117,2.56c-0.448,0.064-0.768,0.576-0.641,1.024
				c0.064,0.448,0.513,0.768,0.96,0.704l13.118-2.56C185.213,102.355,185.533,101.907,185.404,101.459L185.404,101.459z"/>
			<path fill="#F3F3F3" d="M178.813,109.266c-0.064-0.512,0.256-0.96,0.769-1.024l5.887-0.704c0.512-0.064,0.959,0.32,1.023,0.832
				c0.064,0.512-0.256,0.959-0.768,1.023l-5.887,0.704C179.39,110.162,178.878,109.778,178.813,109.266L178.813,109.266z"/>
			<path fill="#FFFFFF" d="M178.749,109.266c-0.063-0.576,0.32-1.087,0.833-1.152l5.887-0.704c0.512-0.064,1.023,0.32,1.088,0.896
				c0.063,0.576-0.32,1.088-0.832,1.152l-5.887,0.704C179.325,110.226,178.813,109.842,178.749,109.266L178.749,109.266z
				 M186.492,108.371c-0.064-0.448-0.512-0.832-0.959-0.768l-5.888,0.704c-0.448,0.064-0.768,0.512-0.704,0.96
				c0.064,0.448,0.513,0.832,0.96,0.768l5.887-0.704C186.236,109.266,186.557,108.818,186.492,108.371L186.492,108.371z"/>
			<path fill="#F3F3F3" d="M171.646,115.473c0-0.512,0.384-0.96,0.896-0.96h13.374c0.511,0,0.896,0.448,0.896,0.96
				s-0.385,0.96-0.896,0.96h-13.374C172.03,116.433,171.646,115.985,171.646,115.473L171.646,115.473z"/>
			<path fill="#FFFFFF" d="M171.583,115.473c0-0.576,0.447-1.024,0.96-1.024h13.374c0.511,0,0.96,0.448,0.96,1.024
				c0,0.576-0.449,1.024-0.96,1.024h-13.374C172.03,116.497,171.583,116.049,171.583,115.473L171.583,115.473z M186.748,115.537
				c0-0.448-0.384-0.896-0.831-0.896h-13.374c-0.448,0-0.832,0.384-0.832,0.896c0,0.448,0.384,0.896,0.832,0.896h13.374
				C186.364,116.369,186.748,115.985,186.748,115.537L186.748,115.537z"/>
			<path fill="#F3F3F3" d="M178.749,121.937c0.064-0.513,0.448-0.896,0.96-0.896l5.951,0.448c0.513,0.064,0.896,0.512,0.832,1.024
				c-0.064,0.511-0.448,0.895-0.959,0.895l-5.951-0.447C179.134,122.896,178.749,122.448,178.749,121.937L178.749,121.937z"/>
			<path fill="#FFFFFF" d="M178.686,121.937c0.063-0.576,0.512-0.96,1.023-0.96l5.951,0.447c0.513,0.064,0.96,0.513,0.896,1.089
				c-0.064,0.575-0.513,0.959-1.023,0.959l-5.951-0.448C179.069,122.96,178.686,122.448,178.686,121.937L178.686,121.937z
				 M186.492,122.513c0.064-0.448-0.319-0.896-0.768-0.896l-5.951-0.448c-0.448,0-0.832,0.32-0.896,0.832
				c-0.064,0.448,0.319,0.896,0.768,0.896l5.951,0.447C186.044,123.344,186.428,122.96,186.492,122.513L186.492,122.513z"/>
			<path fill="#F3F3F3" d="M170.495,126.607c0.128-0.512,0.575-0.832,1.088-0.768l13.118,2.623c0.512,0.128,0.832,0.576,0.703,1.088
				c-0.128,0.512-0.576,0.832-1.088,0.768l-13.117-2.623C170.751,127.632,170.431,127.119,170.495,126.607L170.495,126.607z"/>
			<path fill="#FFFFFF" d="M170.431,126.607c0.129-0.576,0.64-0.896,1.152-0.832l13.118,2.624c0.512,0.127,0.896,0.64,0.768,1.216
				s-0.641,0.896-1.152,0.831l-13.117-2.623C170.687,127.695,170.367,127.184,170.431,126.607L170.431,126.607z M185.341,129.615
				c0.063-0.448-0.192-0.896-0.64-1.024l-13.118-2.624c-0.448-0.063-0.896,0.192-1.023,0.705c-0.064,0.447,0.191,0.896,0.64,1.023
				l13.117,2.623C184.828,130.383,185.213,130.063,185.341,129.615L185.341,129.615z"/>
			<path fill="#F3F3F3" d="M176.254,134.286c0.128-0.512,0.641-0.832,1.152-0.704l5.759,1.6c0.512,0.129,0.768,0.64,0.64,1.152
				c-0.128,0.512-0.64,0.831-1.151,0.703l-5.759-1.6C176.382,135.311,176.126,134.798,176.254,134.286L176.254,134.286z"/>
			<path fill="#FFFFFF" d="M176.189,134.286c0.129-0.512,0.705-0.896,1.217-0.704l5.759,1.6c0.512,0.129,0.832,0.704,0.703,1.216
				c-0.127,0.513-0.703,0.896-1.215,0.704l-5.759-1.6C176.382,135.374,176.063,134.862,176.189,134.286L176.189,134.286z
				 M183.677,136.397c0.128-0.447-0.128-0.96-0.576-1.087l-5.759-1.601c-0.447-0.128-0.896,0.128-1.023,0.641
				c-0.129,0.447,0.128,0.96,0.576,1.087l5.759,1.6C183.101,137.102,183.549,136.846,183.677,136.397L183.677,136.397z"/>
			<path fill="#F3F3F3" d="M167.231,137.357c0.192-0.512,0.769-0.704,1.216-0.512l12.351,5.119c0.447,0.191,0.703,0.768,0.511,1.216
				c-0.191,0.512-0.768,0.703-1.215,0.512l-12.351-5.119C167.231,138.381,167.04,137.806,167.231,137.357L167.231,137.357z"/>
			<path fill="#FFFFFF" d="M167.168,137.294c0.191-0.513,0.768-0.769,1.279-0.576l12.351,5.119c0.511,0.192,0.703,0.768,0.511,1.344
				c-0.191,0.512-0.768,0.768-1.279,0.576l-12.35-5.119C167.168,138.381,166.976,137.806,167.168,137.294L167.168,137.294z
				 M181.182,143.116c0.191-0.447,0-0.96-0.448-1.151l-12.35-5.119c-0.448-0.192-0.896,0.064-1.088,0.512
				c-0.192,0.448,0,0.96,0.447,1.152l12.351,5.119C180.541,143.757,181.054,143.564,181.182,143.116L181.182,143.116z"/>
			<path fill="#F3F3F3" d="M171.391,145.996c0.256-0.447,0.769-0.64,1.216-0.447l5.312,2.687c0.447,0.192,0.64,0.768,0.384,1.28
				c-0.256,0.447-0.768,0.64-1.216,0.447l-5.311-2.688C171.327,147.02,171.135,146.443,171.391,145.996L171.391,145.996z"/>
			<path fill="#FFFFFF" d="M171.327,145.933c0.256-0.513,0.832-0.704,1.344-0.448l5.311,2.688c0.513,0.256,0.704,0.831,0.448,1.344
				c-0.256,0.512-0.832,0.704-1.344,0.447l-5.311-2.688C171.263,147.084,171.07,146.443,171.327,145.933L171.327,145.933z
				 M178.238,149.451c0.191-0.448,0.063-0.959-0.384-1.151l-5.312-2.688c-0.384-0.192-0.896,0-1.152,0.384
				c-0.191,0.447-0.063,0.96,0.385,1.152l5.311,2.688C177.534,150.027,178.046,149.899,178.238,149.451L178.238,149.451z"/>
			<path fill="#F3F3F3" d="M161.984,147.212c0.32-0.448,0.832-0.576,1.28-0.256l11.134,7.423c0.447,0.256,0.512,0.832,0.256,1.279
				c-0.319,0.448-0.832,0.576-1.279,0.256l-11.135-7.422C161.792,148.172,161.664,147.596,161.984,147.212L161.984,147.212z"/>
			<path fill="#FFFFFF" d="M161.921,147.148c0.319-0.448,0.96-0.576,1.407-0.32l11.135,7.423c0.447,0.319,0.575,0.896,0.256,1.407
				c-0.32,0.448-0.96,0.576-1.408,0.32l-11.134-7.423C161.664,148.235,161.601,147.596,161.921,147.148L161.921,147.148z
				 M174.526,155.595c0.256-0.384,0.192-0.96-0.191-1.216l-11.135-7.423c-0.384-0.256-0.896-0.128-1.151,0.256
				c-0.257,0.384-0.192,0.96,0.191,1.216l11.135,7.423C173.759,156.106,174.271,155.979,174.526,155.595L174.526,155.595z"/>
			<path fill="#F3F3F3" d="M164.352,156.49c0.32-0.384,0.896-0.512,1.28-0.192l4.671,3.648c0.384,0.319,0.448,0.896,0.128,1.279
				c-0.319,0.384-0.896,0.512-1.279,0.191l-4.671-3.646C164.097,157.45,164.032,156.874,164.352,156.49L164.352,156.49z"/>
			<path fill="#FFFFFF" d="M164.288,156.427c0.32-0.448,0.96-0.513,1.408-0.192l4.671,3.647c0.448,0.319,0.512,0.96,0.192,1.408
				c-0.32,0.447-0.96,0.511-1.408,0.191l-4.671-3.647C164.032,157.514,163.968,156.874,164.288,156.427L164.288,156.427z
				 M170.431,161.226c0.32-0.384,0.256-0.896-0.128-1.216l-4.671-3.647c-0.384-0.256-0.896-0.191-1.216,0.192
				c-0.319,0.384-0.256,0.896,0.128,1.216l4.672,3.646C169.6,161.674,170.111,161.609,170.431,161.226L170.431,161.226z"/>
			<path fill="#F3F3F3" d="M154.818,155.851c0.384-0.384,0.959-0.384,1.279,0l9.47,9.406c0.384,0.384,0.32,0.96,0,1.279
				c-0.384,0.384-0.959,0.384-1.279,0l-9.47-9.406C154.498,156.811,154.498,156.171,154.818,155.851L154.818,155.851z"/>
			<path fill="#FFFFFF" d="M154.818,155.787c0.384-0.385,1.023-0.385,1.407,0l9.471,9.406c0.384,0.384,0.384,1.023,0,1.407
				c-0.385,0.384-1.024,0.384-1.408,0l-9.47-9.406C154.37,156.811,154.37,156.171,154.818,155.787L154.818,155.787z
				 M165.567,166.473c0.32-0.32,0.32-0.896,0-1.216l-9.47-9.406c-0.32-0.32-0.896-0.32-1.216,0s-0.32,0.896,0,1.216l9.47,9.406
				C164.672,166.856,165.184,166.856,165.567,166.473L165.567,166.473z"/>
			<path fill="#F3F3F3" d="M155.394,165.385c0.384-0.319,0.96-0.319,1.279,0.064l3.904,4.479c0.319,0.385,0.255,0.96-0.129,1.28
				s-0.959,0.32-1.279-0.063l-3.903-4.479C154.945,166.345,155.01,165.769,155.394,165.385L155.394,165.385z"/>
			<path fill="#FFFFFF" d="M155.329,165.385c0.448-0.384,1.024-0.319,1.408,0.064l3.903,4.479c0.384,0.385,0.32,1.024-0.128,1.408
				s-1.023,0.319-1.407-0.064l-3.903-4.479C154.882,166.345,154.882,165.705,155.329,165.385L155.329,165.385z M160.448,171.208
				c0.384-0.32,0.384-0.832,0.129-1.216l-3.904-4.479c-0.319-0.319-0.831-0.384-1.215-0.063c-0.385,0.319-0.385,0.831-0.129,1.216
				l3.903,4.479C159.553,171.528,160.064,171.528,160.448,171.208L160.448,171.208z"/>
			<path fill="#F3F3F3" d="M146.18,162.953c0.447-0.32,1.023-0.192,1.279,0.256l7.423,11.07c0.256,0.448,0.128,1.024-0.256,1.279
				c-0.448,0.32-1.024,0.192-1.28-0.255l-7.423-11.07C145.667,163.785,145.795,163.209,146.18,162.953L146.18,162.953z"/>
			<path fill="#FFFFFF" d="M146.18,162.89c0.447-0.32,1.087-0.192,1.407,0.256l7.423,11.069c0.319,0.448,0.192,1.089-0.32,1.408
				c-0.447,0.32-1.088,0.192-1.407-0.256l-7.423-11.07C145.539,163.785,145.667,163.209,146.18,162.89L146.18,162.89z
				 M154.626,175.495c0.384-0.256,0.512-0.768,0.256-1.151l-7.423-11.07c-0.256-0.384-0.768-0.448-1.216-0.192
				c-0.384,0.256-0.512,0.769-0.256,1.152l7.423,11.07C153.666,175.623,154.242,175.751,154.626,175.495L154.626,175.495z"/>
			<path fill="#F3F3F3" d="M144.835,172.424c0.448-0.256,1.024-0.128,1.28,0.32l2.943,5.183c0.256,0.448,0.064,1.023-0.384,1.28
				c-0.448,0.256-1.024,0.127-1.28-0.32l-2.943-5.183C144.26,173.256,144.388,172.68,144.835,172.424L144.835,172.424z"/>
			<path fill="#FFFFFF" d="M144.835,172.359c0.513-0.256,1.088-0.128,1.345,0.32l2.943,5.184c0.256,0.447,0.128,1.087-0.384,1.344
				c-0.513,0.256-1.089,0.127-1.345-0.32l-2.943-5.183C144.195,173.256,144.323,172.68,144.835,172.359L144.835,172.359z
				 M148.675,179.143c0.384-0.256,0.576-0.768,0.319-1.152l-2.943-5.183c-0.256-0.384-0.768-0.512-1.151-0.32
				c-0.384,0.257-0.576,0.769-0.319,1.152l2.943,5.184C147.715,179.207,148.291,179.398,148.675,179.143L148.675,179.143z"/>
			<path fill="#F3F3F3" d="M136.325,168.2c0.512-0.191,1.023,0,1.216,0.448l5.183,12.35c0.191,0.448-0.063,1.024-0.512,1.216
				c-0.448,0.192-1.024,0-1.216-0.447l-5.184-12.351C135.621,168.969,135.877,168.393,136.325,168.2L136.325,168.2z"/>
			<path fill="#FFFFFF" d="M136.325,168.137c0.512-0.192,1.087,0,1.344,0.512l5.183,12.35c0.192,0.512-0.063,1.088-0.576,1.279
				c-0.512,0.192-1.088,0-1.344-0.511l-5.183-12.351C135.557,168.969,135.813,168.393,136.325,168.137L136.325,168.137z
				 M142.147,182.15c0.448-0.192,0.641-0.704,0.448-1.088l-5.184-12.351c-0.191-0.447-0.703-0.64-1.151-0.447
				c-0.448,0.191-0.64,0.704-0.448,1.088l5.184,12.35C141.252,182.15,141.7,182.342,142.147,182.15L142.147,182.15z"/>
			<path fill="#F3F3F3" d="M133.189,177.287c0.512-0.192,1.023,0.063,1.216,0.576l1.855,5.631c0.192,0.448-0.128,1.023-0.576,1.151
				c-0.512,0.191-1.023-0.063-1.216-0.576l-1.855-5.631C132.422,177.99,132.677,177.479,133.189,177.287L133.189,177.287z"/>
			<path fill="#FFFFFF" d="M133.125,177.223c0.512-0.191,1.088,0.064,1.28,0.576l1.855,5.631c0.192,0.513-0.128,1.088-0.64,1.28
				c-0.512,0.191-1.088-0.064-1.279-0.576l-1.856-5.631C132.357,177.99,132.613,177.415,133.125,177.223L133.125,177.223z
				 M135.621,184.582c0.447-0.129,0.704-0.64,0.575-1.088l-1.854-5.631c-0.129-0.448-0.641-0.641-1.089-0.513
				c-0.447,0.128-0.703,0.64-0.576,1.088l1.856,5.631C134.661,184.518,135.173,184.773,135.621,184.582L135.621,184.582z"/>
			<path fill="#F3F3F3" d="M125.639,171.464c0.512-0.128,1.024,0.191,1.088,0.704l2.688,13.117c0.128,0.512-0.256,0.96-0.768,1.088
				c-0.513,0.129-1.024-0.191-1.089-0.703l-2.687-13.118C124.807,172.104,125.127,171.592,125.639,171.464L125.639,171.464z"/>
			<path fill="#FFFFFF" d="M125.639,171.399c0.576-0.128,1.088,0.256,1.216,0.769l2.688,13.117c0.128,0.512-0.256,1.088-0.768,1.152
				c-0.576,0.128-1.088-0.256-1.217-0.768l-2.687-13.118C124.743,172.039,125.063,171.528,125.639,171.399L125.639,171.399z
				 M128.646,186.31c0.447-0.064,0.768-0.513,0.703-1.024l-2.687-13.117c-0.064-0.448-0.576-0.769-1.024-0.64
				c-0.448,0.063-0.768,0.511-0.704,1.023l2.688,13.118C127.75,186.117,128.198,186.373,128.646,186.31L128.646,186.31z"/>
			<path fill="#F3F3F3" d="M120.775,179.782c0.512-0.064,0.96,0.256,1.088,0.769l0.768,5.887c0.064,0.512-0.319,0.959-0.832,1.023
				c-0.512,0.064-0.96-0.256-1.088-0.768l-0.768-5.887C119.879,180.294,120.264,179.847,120.775,179.782L120.775,179.782z"/>
			<path fill="#FFFFFF" d="M120.775,179.718c0.576-0.063,1.088,0.32,1.152,0.833l0.768,5.887c0.063,0.512-0.32,1.023-0.896,1.088
				c-0.575,0.063-1.088-0.32-1.151-0.832l-0.769-5.887C119.815,180.294,120.199,179.782,120.775,179.718L120.775,179.718z
				 M121.735,187.396c0.448-0.063,0.832-0.511,0.768-0.959l-0.768-5.887c-0.064-0.448-0.512-0.769-0.96-0.704
				c-0.448,0.063-0.832,0.512-0.768,0.96l0.768,5.887C120.839,187.142,121.287,187.461,121.735,187.396L121.735,187.396z"/>
			<path fill="#F3F3F3" d="M114.185,172.615c0.512,0,0.96,0.384,0.96,0.896v13.374c0,0.511-0.448,0.896-0.96,0.896
				s-0.96-0.385-0.96-0.896v-13.374C113.289,172.999,113.673,172.615,114.185,172.615L114.185,172.615z"/>
			<path fill="#FFFFFF" d="M114.185,172.552c0.576,0,1.023,0.447,1.023,0.96v13.374c0,0.511-0.448,0.959-1.023,0.959
				s-1.024-0.448-1.024-0.959v-13.374C113.161,172.999,113.673,172.552,114.185,172.552L114.185,172.552z M114.185,187.717
				c0.448,0,0.896-0.384,0.896-0.831v-13.374c0-0.448-0.384-0.832-0.896-0.832c-0.448,0-0.896,0.384-0.896,0.832v13.374
				C113.353,187.333,113.736,187.717,114.185,187.717L114.185,187.717z"/>
			<path fill="#F3F3F3" d="M107.786,179.782c0.512,0.064,0.896,0.448,0.896,0.96l-0.448,5.951c-0.064,0.512-0.512,0.896-1.023,0.832
				c-0.512-0.064-0.896-0.448-0.896-0.96l0.448-5.951C106.826,180.103,107.273,179.718,107.786,179.782L107.786,179.782z"/>
			<path fill="#FFFFFF" d="M107.786,179.718c0.576,0.064,0.96,0.513,0.96,1.024l-0.448,5.951c-0.064,0.512-0.512,0.96-1.087,0.896
				c-0.576-0.063-0.96-0.512-0.96-1.023l0.448-5.951C106.762,180.038,107.21,179.654,107.786,179.718L107.786,179.718z
				 M107.21,187.461c0.448,0,0.896-0.319,0.896-0.768l0.448-5.951c0-0.448-0.32-0.832-0.832-0.896c-0.448,0-0.896,0.319-0.896,0.768
				l-0.448,5.951C106.378,187.013,106.762,187.396,107.21,187.461L107.21,187.461z"/>
			<path fill="#F3F3F3" d="M102.986,171.464c0.512,0.128,0.832,0.575,0.768,1.088l-2.624,13.118
				c-0.128,0.512-0.576,0.832-1.088,0.703c-0.512-0.128-0.832-0.576-0.768-1.088l2.624-13.117
				C101.963,171.72,102.475,171.399,102.986,171.464L102.986,171.464z"/>
			<path fill="#FFFFFF" d="M102.986,171.399c0.576,0.129,0.896,0.64,0.832,1.152l-2.624,13.118c-0.128,0.512-0.64,0.896-1.216,0.768
				s-0.896-0.641-0.832-1.152l2.624-13.117C101.898,171.655,102.411,171.336,102.986,171.399L102.986,171.399z M99.979,186.31
				c0.448,0.063,0.896-0.192,1.024-0.64l2.624-13.118c0.064-0.448-0.192-0.896-0.704-1.023c-0.448-0.064-0.896,0.191-1.024,0.64
				l-2.624,13.117C99.211,185.797,99.531,186.182,99.979,186.31L99.979,186.31z"/>
			<path fill="#F3F3F3" d="M95.308,177.223c0.512,0.128,0.832,0.641,0.704,1.152l-1.6,5.759c-0.128,0.512-0.64,0.768-1.152,0.64
				c-0.512-0.128-0.832-0.64-0.704-1.151l1.6-5.759C94.284,177.351,94.796,177.095,95.308,177.223L95.308,177.223z"/>
			<path fill="#FFFFFF" d="M95.308,177.158c0.512,0.129,0.896,0.705,0.704,1.217l-1.6,5.759c-0.128,0.512-0.704,0.832-1.216,0.703
				c-0.512-0.127-0.896-0.703-0.704-1.215l1.6-5.759C94.22,177.351,94.732,177.031,95.308,177.158L95.308,177.158z M93.196,184.646
				c0.448,0.128,0.959-0.128,1.088-0.576l1.6-5.759c0.128-0.447-0.128-0.896-0.64-1.023c-0.448-0.129-0.959,0.128-1.088,0.576
				l-1.6,5.759C92.492,184.069,92.748,184.518,93.196,184.646L93.196,184.646z"/>
			<path fill="#F3F3F3" d="M92.172,168.2c0.512,0.192,0.704,0.769,0.512,1.216l-5.119,12.351c-0.192,0.447-0.768,0.703-1.216,0.447
				s-0.704-0.768-0.512-1.216l5.119-12.35C91.148,168.2,91.725,167.944,92.172,168.2L92.172,168.2z"/>
			<path fill="#FFFFFF" d="M92.172,168.137c0.512,0.191,0.768,0.768,0.576,1.279l-5.119,12.351
				c-0.192,0.511-0.768,0.703-1.344,0.511c-0.512-0.191-0.768-0.768-0.576-1.279l5.119-12.35
				C91.084,168.137,91.66,167.88,92.172,168.137L92.172,168.137z M86.349,182.15c0.448,0.191,0.96,0,1.152-0.448l5.119-12.35
				c0.192-0.448-0.064-0.896-0.512-1.088c-0.448-0.192-0.96,0-1.152,0.447l-5.119,12.351
				C85.709,181.446,85.901,181.958,86.349,182.15L86.349,182.15z"/>
			<path fill="#F3F3F3" d="M83.534,172.296c0.448,0.256,0.64,0.768,0.448,1.216l-2.688,5.312c-0.256,0.447-0.768,0.64-1.28,0.384
				c-0.448-0.257-0.64-0.769-0.448-1.217l2.688-5.311C82.51,172.231,83.021,172.039,83.534,172.296L83.534,172.296z"/>
			<path fill="#FFFFFF" d="M83.534,172.231c0.512,0.256,0.704,0.832,0.448,1.344l-2.688,5.312c-0.256,0.512-0.832,0.704-1.344,0.447
				c-0.512-0.256-0.704-0.831-0.448-1.344l2.688-5.311C82.446,172.168,83.021,171.976,83.534,172.231L83.534,172.231z
				 M80.014,179.207c0.448,0.191,0.96,0.063,1.152-0.384l2.688-5.312c0.192-0.384,0-0.896-0.384-1.152
				c-0.448-0.191-0.96-0.063-1.152,0.385l-2.688,5.311C79.438,178.438,79.63,178.95,80.014,179.207L80.014,179.207z"/>
			<path fill="#F3F3F3" d="M82.254,162.825c0.448,0.32,0.576,0.896,0.256,1.28l-7.423,11.069c-0.256,0.448-0.832,0.513-1.279,0.257
				c-0.448-0.32-0.576-0.896-0.256-1.28l7.423-11.07C81.23,162.633,81.806,162.506,82.254,162.825L82.254,162.825z"/>
			<path fill="#FFFFFF" d="M82.254,162.761c0.448,0.32,0.576,0.96,0.32,1.408l-7.423,11.07c-0.32,0.448-0.896,0.576-1.408,0.256
				c-0.448-0.32-0.576-0.96-0.32-1.407l7.423-11.07C81.166,162.569,81.806,162.441,82.254,162.761L82.254,162.761z M73.808,175.367
				c0.384,0.256,0.959,0.191,1.215-0.192l7.423-11.069c0.256-0.385,0.128-0.896-0.256-1.152s-0.96-0.192-1.216,0.192l-7.423,11.006
				C73.295,174.535,73.423,175.111,73.808,175.367L73.808,175.367z"/>
			<path fill="#F3F3F3" d="M72.912,165.193c0.384,0.319,0.512,0.896,0.192,1.279l-3.711,4.672c-0.32,0.384-0.896,0.447-1.28,0.127
				c-0.384-0.319-0.512-0.896-0.192-1.279l3.711-4.672C71.952,164.937,72.527,164.873,72.912,165.193L72.912,165.193z"/>
			<path fill="#FFFFFF" d="M72.976,165.129c0.448,0.32,0.512,0.96,0.192,1.407l-3.711,4.672c-0.32,0.447-0.96,0.512-1.408,0.128
				c-0.448-0.32-0.512-0.96-0.192-1.408l3.711-4.671C71.888,164.809,72.527,164.745,72.976,165.129L72.976,165.129z M68.176,171.208
				c0.384,0.32,0.896,0.256,1.216-0.128l3.711-4.671c0.256-0.384,0.192-0.896-0.192-1.216c-0.384-0.32-0.896-0.257-1.216,0.127
				l-3.711,4.672C67.729,170.376,67.792,170.952,68.176,171.208L68.176,171.208z"/>
			<path fill="#F3F3F3" d="M73.551,155.595c0.384,0.384,0.384,0.96,0,1.279l-9.47,9.406c-0.384,0.385-0.96,0.32-1.28,0
				c-0.32-0.319-0.384-0.96,0-1.279l9.406-9.406C72.591,155.211,73.167,155.211,73.551,155.595L73.551,155.595z"/>
			<path fill="#FFFFFF" d="M73.615,155.53c0.384,0.384,0.384,1.024,0,1.408l-9.47,9.406c-0.384,0.384-1.024,0.384-1.408,0
				c-0.384-0.384-0.384-1.024,0-1.408l9.47-9.406C72.591,155.146,73.231,155.146,73.615,155.53L73.615,155.53z M62.801,166.28
				c0.32,0.32,0.896,0.32,1.216,0l9.47-9.406c0.32-0.319,0.32-0.896,0-1.216c-0.32-0.319-0.896-0.319-1.216,0l-9.47,9.407
				C62.481,165.385,62.481,165.896,62.801,166.28L62.801,166.28z"/>
			<path fill="#F3F3F3" d="M63.953,156.106c0.32,0.384,0.32,0.96-0.064,1.28l-4.543,3.839c-0.384,0.32-0.96,0.256-1.28-0.128
				s-0.32-0.96,0.064-1.28l4.543-3.839C63.057,155.658,63.633,155.723,63.953,156.106L63.953,156.106z"/>
			<path fill="#FFFFFF" d="M64.017,156.042c0.384,0.448,0.32,1.088-0.064,1.408l-4.543,3.84c-0.384,0.384-1.024,0.319-1.408-0.129
				c-0.384-0.447-0.32-1.087,0.064-1.407l4.543-3.84C62.993,155.53,63.633,155.595,64.017,156.042L64.017,156.042z M58.13,161.098
				c0.32,0.384,0.832,0.384,1.216,0.128l4.543-3.839c0.32-0.32,0.384-0.832,0.064-1.216c-0.32-0.384-0.832-0.384-1.216-0.129
				l-4.543,3.84C57.81,160.201,57.81,160.714,58.13,161.098L58.13,161.098z"/>
			<path fill="#F3F3F3" d="M66.513,146.892c0.32,0.448,0.192,1.024-0.256,1.28l-11.134,7.423c-0.448,0.256-1.024,0.128-1.28-0.256
				c-0.32-0.448-0.192-1.024,0.256-1.28l11.134-7.423C65.617,146.38,66.192,146.508,66.513,146.892L66.513,146.892z"/>
			<path fill="#FFFFFF" d="M66.577,146.892c0.32,0.448,0.192,1.088-0.256,1.408l-11.134,7.423c-0.448,0.319-1.088,0.191-1.408-0.32
				c-0.32-0.447-0.192-1.088,0.256-1.407l11.134-7.423C65.617,146.252,66.257,146.38,66.577,146.892L66.577,146.892z
				 M53.907,155.274c0.256,0.384,0.768,0.513,1.152,0.256l11.134-7.422c0.384-0.257,0.512-0.769,0.192-1.217
				c-0.255-0.384-0.768-0.512-1.151-0.256l-11.134,7.423C53.715,154.379,53.651,154.891,53.907,155.274L53.907,155.274z"/>
			<path fill="#F3F3F3" d="M56.978,145.549c0.256,0.447,0.128,1.023-0.32,1.279l-5.183,2.943c-0.448,0.256-1.024,0.064-1.28-0.384
				s-0.128-1.024,0.32-1.279l5.183-2.944C56.146,144.908,56.722,145.101,56.978,145.549L56.978,145.549z"/>
			<path fill="#FFFFFF" d="M57.042,145.484c0.256,0.512,0.128,1.088-0.32,1.344l-5.183,2.943c-0.448,0.256-1.088,0.064-1.344-0.384
				c-0.256-0.512-0.128-1.088,0.32-1.344l5.183-2.943C56.146,144.844,56.786,145.036,57.042,145.484L57.042,145.484z
				 M50.259,149.323c0.256,0.448,0.768,0.576,1.152,0.32l5.183-2.943c0.384-0.257,0.512-0.768,0.32-1.151
				c-0.256-0.448-0.768-0.576-1.152-0.32l-5.183,2.943C50.195,148.363,50.067,148.876,50.259,149.323L50.259,149.323z"/>
			<path fill="#F3F3F3" d="M61.265,137.037c0.192,0.513,0,1.024-0.512,1.217l-12.35,5.119c-0.448,0.191-1.023-0.064-1.216-0.513
				c-0.192-0.512,0-1.023,0.512-1.216l12.35-5.119C60.498,136.334,61.073,136.525,61.265,137.037L61.265,137.037z"/>
			<path fill="#FFFFFF" d="M61.33,136.974c0.192,0.512,0,1.088-0.512,1.344l-12.35,5.119c-0.512,0.192-1.087-0.063-1.28-0.576
				c-0.192-0.512,0-1.088,0.512-1.344l12.35-5.119C60.562,136.205,61.138,136.462,61.33,136.974L61.33,136.974z M47.316,142.797
				c0.192,0.447,0.704,0.64,1.087,0.512l12.35-5.119c0.448-0.192,0.64-0.704,0.448-1.152c-0.191-0.447-0.704-0.64-1.087-0.512
				l-12.35,5.119C47.316,141.837,47.124,142.349,47.316,142.797L47.316,142.797z"/>
			<path fill="#F3F3F3" d="M52.243,133.838c0.192,0.513-0.064,1.024-0.576,1.216l-5.631,1.856c-0.448,0.191-1.024-0.129-1.152-0.576
				c-0.192-0.513,0.064-1.023,0.576-1.216l5.631-1.856C51.539,133.07,52.051,133.326,52.243,133.838L52.243,133.838z"/>
			<path fill="#FFFFFF" d="M52.307,133.774c0.192,0.512-0.063,1.088-0.64,1.279l-5.631,1.856c-0.512,0.191-1.088-0.129-1.28-0.641
				s0.064-1.088,0.64-1.279l5.631-1.855C51.539,133.006,52.115,133.262,52.307,133.774L52.307,133.774z M44.884,136.205
				c0.128,0.448,0.64,0.705,1.088,0.576l5.631-1.855c0.448-0.128,0.64-0.64,0.512-1.088c-0.128-0.447-0.64-0.703-1.088-0.576
				l-5.631,1.856C44.948,135.311,44.756,135.758,44.884,136.205L44.884,136.205z"/>
			<path fill="#F3F3F3" d="M58.002,126.224c0.128,0.512-0.192,1.023-0.704,1.088l-13.118,2.56c-0.512,0.128-0.959-0.256-1.087-0.769
				c-0.128-0.512,0.191-1.023,0.704-1.087l13.118-2.56C57.426,125.392,57.938,125.712,58.002,126.224L58.002,126.224z"/>
			<path fill="#FFFFFF" d="M58.13,126.224c0.128,0.575-0.256,1.088-0.768,1.216l-13.118,2.56c-0.512,0.128-1.023-0.256-1.151-0.832
				c-0.128-0.576,0.255-1.088,0.768-1.216l13.118-2.56C57.49,125.264,58.002,125.647,58.13,126.224L58.13,126.224z M43.221,129.103
				c0.063,0.448,0.512,0.769,0.959,0.704l13.118-2.56c0.448-0.063,0.768-0.575,0.64-1.023c-0.064-0.448-0.512-0.768-0.96-0.704
				l-13.118,2.56C43.413,128.207,43.093,128.655,43.221,129.103L43.221,129.103z"/>
			<path fill="#F3F3F3" d="M49.812,121.296c0.064,0.512-0.256,0.96-0.768,1.024l-5.887,0.703c-0.512,0.064-0.959-0.319-1.023-0.831
				c-0.064-0.513,0.256-0.96,0.768-1.024l5.887-0.704C49.235,120.4,49.747,120.784,49.812,121.296L49.812,121.296z"/>
			<path fill="#FFFFFF" d="M49.875,121.296c0.064,0.576-0.32,1.088-0.832,1.152l-5.887,0.704c-0.512,0.063-1.023-0.32-1.088-0.896
				c-0.063-0.576,0.32-1.088,0.832-1.151l5.887-0.704C49.299,120.337,49.812,120.721,49.875,121.296L49.875,121.296z
				 M42.133,122.192c0.064,0.447,0.512,0.831,0.96,0.768l5.887-0.704c0.448-0.063,0.768-0.512,0.704-0.96
				c-0.064-0.448-0.512-0.832-0.96-0.768l-5.887,0.704C42.389,121.296,42.068,121.744,42.133,122.192L42.133,122.192z"/>
			<path fill="#F3F3F3" d="M56.978,115.089c0,0.512-0.384,0.96-0.896,0.96H42.708c-0.512,0-0.896-0.448-0.896-0.96
				s0.384-0.96,0.896-0.96h13.374C56.594,114.129,56.978,114.578,56.978,115.089L56.978,115.089z"/>
			<path fill="#FFFFFF" d="M57.042,115.089c0,0.576-0.448,1.024-0.96,1.024H42.708c-0.512,0-0.96-0.448-0.96-1.024
				c0-0.576,0.448-1.024,0.96-1.024h13.374C56.594,114.065,57.042,114.513,57.042,115.089L57.042,115.089z M41.876,115.025
				c0,0.448,0.384,0.896,0.832,0.896h13.374c0.448,0,0.832-0.384,0.832-0.896c0-0.448-0.384-0.896-0.832-0.896H42.708
				C42.261,114.193,41.876,114.578,41.876,115.025L41.876,115.025z"/>
			<path fill="#E2E2E2" d="M49.875,108.626c-0.064,0.512-0.448,0.896-0.96,0.896l-5.951-0.448c-0.512-0.064-0.896-0.512-0.832-1.023
				c0.064-0.512,0.448-0.896,0.96-0.896l5.951,0.448C49.491,107.667,49.875,108.114,49.875,108.626L49.875,108.626z"/>
			<path fill="#FFFFFF" d="M49.939,108.626c-0.064,0.576-0.512,0.959-1.024,0.959l-5.951-0.448
				c-0.512-0.064-0.959-0.512-0.896-1.087c0.064-0.576,0.512-0.96,1.024-0.96l5.951,0.448
				C49.555,107.603,49.939,108.114,49.939,108.626L49.939,108.626z M42.133,108.051c-0.064,0.448,0.32,0.896,0.768,0.896
				l5.951,0.448c0.448,0,0.832-0.32,0.896-0.832c0.064-0.448-0.32-0.896-0.768-0.896l-5.951-0.448
				C42.581,107.219,42.197,107.603,42.133,108.051L42.133,108.051z"/>
			<path fill="#F3F3F3" d="M58.13,103.955c-0.128,0.512-0.576,0.832-1.088,0.768l-13.118-2.688
				c-0.512-0.128-0.832-0.576-0.704-1.088c0.127-0.512,0.576-0.832,1.087-0.768l13.118,2.624
				C57.874,102.932,58.194,103.443,58.13,103.955L58.13,103.955z"/>
			<path fill="#FFFFFF" d="M58.194,103.955c-0.128,0.576-0.64,0.896-1.152,0.832l-13.118-2.624c-0.512-0.128-0.896-0.64-0.768-1.216
				s0.64-0.896,1.152-0.832l13.118,2.624C57.938,102.867,58.258,103.379,58.194,103.955L58.194,103.955z M43.284,100.948
				c-0.063,0.448,0.192,0.896,0.64,1.024l13.118,2.624c0.448,0.064,0.896-0.192,1.024-0.704c0.064-0.448-0.192-0.896-0.64-1.024
				l-13.118-2.624C43.796,100.18,43.413,100.5,43.284,100.948L43.284,100.948z"/>
			<path fill="#F3F3F3" d="M52.371,96.276c-0.128,0.512-0.64,0.832-1.152,0.704l-5.759-1.6c-0.512-0.128-0.768-0.64-0.64-1.152
				c0.128-0.512,0.64-0.832,1.152-0.704l5.759,1.6C52.243,95.253,52.499,95.765,52.371,96.276L52.371,96.276z"/>
			<path fill="#FFFFFF" d="M52.435,96.276c-0.128,0.512-0.704,0.896-1.216,0.704l-5.759-1.6c-0.512-0.128-0.832-0.704-0.704-1.216
				c0.128-0.512,0.704-0.896,1.216-0.704l5.759,1.6C52.243,95.188,52.563,95.701,52.435,96.276L52.435,96.276z M44.948,94.165
				c-0.128,0.448,0.128,0.959,0.576,1.088l5.759,1.6c0.448,0.128,0.896-0.128,1.023-0.64c0.128-0.448-0.127-0.959-0.576-1.088
				l-5.759-1.6C45.524,93.461,45.076,93.717,44.948,94.165L44.948,94.165z"/>
			<path fill="#F3F3F3" d="M61.394,93.205c-0.192,0.512-0.768,0.704-1.216,0.512l-12.35-5.119c-0.448-0.192-0.704-0.768-0.512-1.216
				c0.192-0.512,0.768-0.704,1.216-0.512l12.35,5.119C61.394,92.181,61.585,92.757,61.394,93.205L61.394,93.205z"/>
			<path fill="#FFFFFF" d="M61.458,93.269c-0.192,0.512-0.768,0.768-1.28,0.576l-12.35-5.119c-0.512-0.192-0.704-0.768-0.512-1.344
				c0.192-0.512,0.768-0.768,1.28-0.576l12.35,5.119C61.458,92.181,61.649,92.757,61.458,93.269L61.458,93.269z M47.444,87.446
				c-0.192,0.448,0,0.96,0.448,1.152l12.35,5.119c0.448,0.192,0.896-0.064,1.088-0.512c0.192-0.448,0-0.96-0.448-1.152l-12.35-5.119
				C48.083,86.806,47.572,86.998,47.444,87.446L47.444,87.446z"/>
			<path fill="#F3F3F3" d="M57.234,84.566c-0.256,0.448-0.768,0.64-1.215,0.448l-5.312-2.688c-0.448-0.192-0.64-0.768-0.384-1.28
				c0.256-0.448,0.768-0.64,1.216-0.448l5.311,2.688C57.298,83.542,57.49,84.119,57.234,84.566L57.234,84.566z"/>
			<path fill="#FFFFFF" d="M57.298,84.63c-0.256,0.512-0.832,0.704-1.344,0.448l-5.311-2.688c-0.512-0.256-0.704-0.832-0.448-1.344
				c0.256-0.512,0.832-0.704,1.344-0.448l5.311,2.688C57.362,83.479,57.554,84.119,57.298,84.63L57.298,84.63z M50.387,81.111
				c-0.192,0.448-0.064,0.96,0.384,1.152l5.311,2.688c0.384,0.192,0.896,0,1.152-0.384c0.192-0.448,0.064-0.96-0.384-1.152
				l-5.375-2.688C51.091,80.535,50.579,80.663,50.387,81.111L50.387,81.111z"/>
			<path fill="#F3F3F3" d="M66.641,83.351c-0.32,0.448-0.832,0.576-1.28,0.256l-11.07-7.358c-0.448-0.256-0.512-0.832-0.256-1.28
				c0.256-0.448,0.832-0.576,1.28-0.256l11.134,7.423C66.833,82.391,66.96,82.967,66.641,83.351L66.641,83.351z"/>
			<path fill="#FFFFFF" d="M66.705,83.415c-0.32,0.448-0.96,0.576-1.408,0.32l-11.07-7.423c-0.448-0.32-0.576-0.896-0.256-1.407
				c0.32-0.448,0.96-0.576,1.408-0.32l11.07,7.423C66.96,82.327,67.024,82.967,66.705,83.415L66.705,83.415z M54.099,74.968
				c-0.256,0.384-0.192,0.96,0.192,1.216l11.134,7.422c0.384,0.256,0.896,0.128,1.152-0.256c0.256-0.384,0.192-0.96-0.192-1.216
				L55.25,74.712C54.866,74.456,54.354,74.584,54.099,74.968L54.099,74.968z"/>
			<path fill="#F3F3F3" d="M64.273,74.072c-0.32,0.384-0.896,0.512-1.28,0.192l-4.671-3.647c-0.384-0.32-0.448-0.896-0.128-1.28
				s0.896-0.512,1.28-0.192l4.671,3.647C64.529,73.112,64.593,73.688,64.273,74.072L64.273,74.072z"/>
			<path fill="#FFFFFF" d="M64.337,74.136c-0.32,0.448-0.96,0.512-1.408,0.192l-4.671-3.647c-0.448-0.32-0.512-0.96-0.192-1.408
				s0.96-0.512,1.408-0.192l4.671,3.647C64.593,73.048,64.657,73.688,64.337,74.136L64.337,74.136z M58.194,69.337
				c-0.32,0.384-0.256,0.896,0.128,1.216l4.671,3.647c0.384,0.256,0.896,0.192,1.216-0.192s0.256-0.896-0.128-1.216l-4.671-3.647
				C59.026,68.889,58.514,68.953,58.194,69.337L58.194,69.337z"/>
			<path fill="#F3F3F3" d="M73.808,74.712c-0.384,0.384-0.96,0.384-1.28,0l-9.534-9.406c-0.384-0.384-0.32-0.96,0-1.28
				c0.384-0.384,0.96-0.384,1.28,0l9.47,9.406C74.127,73.752,74.127,74.392,73.808,74.712L73.808,74.712z"/>
			<path fill="#FFFFFF" d="M73.808,74.776c-0.384,0.384-1.024,0.384-1.408,0l-9.47-9.407c-0.384-0.384-0.384-1.024,0-1.408
				c0.384-0.384,1.024-0.384,1.408,0l9.471,9.406C74.255,73.752,74.255,74.392,73.808,74.776L73.808,74.776z M63.057,64.09
				c-0.32,0.32-0.32,0.896,0,1.216l9.47,9.406c0.32,0.32,0.896,0.32,1.216,0s0.32-0.896,0-1.216l-9.47-9.47
				C63.953,63.706,63.441,63.706,63.057,64.09L63.057,64.09z"/>
			<path fill="#F3F3F3" d="M73.231,65.178c-0.384,0.32-0.96,0.32-1.28-0.064l-3.903-4.479c-0.32-0.384-0.256-0.96,0.128-1.28
				s0.96-0.32,1.28,0.064l3.903,4.479C73.679,64.218,73.615,64.793,73.231,65.178L73.231,65.178z"/>
			<path fill="#FFFFFF" d="M73.295,65.178c-0.448,0.384-1.024,0.32-1.408-0.064l-3.903-4.479c-0.384-0.384-0.32-1.024,0.128-1.408
				c0.448-0.384,1.024-0.32,1.408,0.064l3.903,4.479C73.743,64.218,73.743,64.858,73.295,65.178L73.295,65.178z M68.176,59.354
				c-0.384,0.32-0.384,0.832-0.128,1.216l3.903,4.479c0.32,0.32,0.832,0.384,1.216,0.064c0.384-0.32,0.384-0.832,0.128-1.216
				l-3.903-4.479C69.072,59.035,68.56,59.035,68.176,59.354L68.176,59.354z"/>
			<path fill="#F3F3F3" d="M82.446,67.609c-0.448,0.32-1.024,0.192-1.28-0.256l-7.487-11.07c-0.256-0.448-0.128-1.024,0.256-1.28
				c0.448-0.32,1.023-0.192,1.28,0.256l7.422,11.07C82.958,66.777,82.83,67.353,82.446,67.609L82.446,67.609z"/>
			<path fill="#FFFFFF" d="M82.446,67.673c-0.448,0.32-1.088,0.192-1.408-0.256l-7.423-11.07c-0.32-0.448-0.192-1.088,0.32-1.408
				c0.448-0.32,1.087-0.192,1.407,0.256l7.423,11.07C83.086,66.777,82.958,67.353,82.446,67.673L82.446,67.673z M73.999,55.067
				c-0.384,0.256-0.512,0.768-0.256,1.152l7.423,11.07c0.256,0.384,0.768,0.448,1.216,0.192c0.384-0.256,0.512-0.768,0.256-1.152
				l-7.422-11.006C74.959,54.939,74.383,54.812,73.999,55.067L73.999,55.067z"/>
			<path fill="#F3F3F3" d="M83.79,58.139c-0.448,0.256-1.024,0.128-1.28-0.32l-2.943-5.183c-0.256-0.448-0.064-1.024,0.384-1.28
				c0.448-0.256,1.024-0.128,1.28,0.32l2.944,5.184C84.366,57.307,84.237,57.883,83.79,58.139L83.79,58.139z"/>
			<path fill="#FFFFFF" d="M83.79,58.203c-0.512,0.256-1.088,0.128-1.344-0.32L79.502,52.7c-0.256-0.448-0.128-1.088,0.384-1.344
				c0.512-0.256,1.088-0.128,1.344,0.32l2.944,5.184C84.43,57.307,84.301,57.883,83.79,58.203L83.79,58.203z M79.95,51.42
				c-0.384,0.256-0.576,0.768-0.32,1.152l2.943,5.183c0.256,0.384,0.768,0.512,1.152,0.32c0.384-0.256,0.576-0.768,0.32-1.152
				l-2.944-5.183C80.91,51.356,80.334,51.164,79.95,51.42L79.95,51.42z"/>
			<path fill="#F3F3F3" d="M92.3,62.362c-0.512,0.192-1.024,0-1.216-0.448l-5.183-12.35c-0.192-0.448,0.064-1.024,0.512-1.216
				c0.512-0.192,1.024,0,1.216,0.448l5.183,12.35C93.004,61.594,92.748,62.17,92.3,62.362L92.3,62.362z"/>
			<path fill="#FFFFFF" d="M92.3,62.426c-0.512,0.192-1.088,0-1.344-0.512l-5.183-12.35c-0.192-0.512,0.064-1.088,0.576-1.28
				c0.512-0.191,1.088,0,1.344,0.512l5.183,12.35C93.068,61.594,92.812,62.17,92.3,62.426L92.3,62.426z M86.477,48.413
				c-0.448,0.192-0.64,0.704-0.448,1.088l5.183,12.35c0.192,0.448,0.704,0.64,1.152,0.448c0.448-0.192,0.64-0.704,0.448-1.088
				l-5.183-12.35C87.373,48.413,86.925,48.221,86.477,48.413L86.477,48.413z"/>
			<path fill="#F3F3F3" d="M95.436,53.275c-0.512,0.192-1.023-0.063-1.216-0.576l-1.855-5.631c-0.192-0.448,0.128-1.024,0.576-1.152
				c0.448-0.128,1.024,0.064,1.216,0.576l1.856,5.631C96.204,52.572,95.948,53.083,95.436,53.275L95.436,53.275z"/>
			<path fill="#FFFFFF" d="M95.5,53.34c-0.512,0.192-1.087-0.064-1.28-0.576l-1.855-5.631c-0.192-0.512,0.128-1.088,0.64-1.28
				c0.512-0.192,1.088,0.064,1.28,0.576l1.855,5.631C96.268,52.572,96.012,53.148,95.5,53.34L95.5,53.34z M93.004,45.981
				c-0.448,0.128-0.704,0.64-0.576,1.088l1.856,5.631c0.128,0.448,0.64,0.64,1.087,0.512c0.448-0.128,0.704-0.64,0.576-1.088
				l-1.856-5.631C93.964,46.045,93.452,45.789,93.004,45.981L93.004,45.981z"/>
			<path fill="#F3F3F3" d="M102.986,59.099c-0.512,0.128-1.023-0.192-1.088-0.704l-2.688-13.118
				c-0.128-0.512,0.256-0.96,0.768-1.087c0.512-0.128,1.024,0.192,1.088,0.704l2.688,13.118
				C103.818,58.459,103.498,58.971,102.986,59.099L102.986,59.099z"/>
			<path fill="#FFFFFF" d="M102.986,59.163c-0.576,0.128-1.088-0.256-1.216-0.768l-2.688-13.118
				c-0.128-0.512,0.256-1.087,0.768-1.152c0.576-0.128,1.087,0.256,1.216,0.768l2.688,13.118
				C103.882,58.522,103.563,59.035,102.986,59.163L102.986,59.163z M99.979,44.253c-0.448,0.064-0.768,0.512-0.704,1.024
				l2.688,13.118c0.063,0.448,0.576,0.768,1.023,0.64c0.448-0.064,0.768-0.512,0.704-1.024l-2.688-13.118
				C100.875,44.445,100.427,44.189,99.979,44.253L99.979,44.253z"/>
			<path fill="#F3F3F3" d="M107.85,50.78c-0.512,0.063-0.96-0.256-1.088-0.768l-0.768-5.887c-0.064-0.512,0.32-0.96,0.832-1.023
				c0.512-0.064,0.96,0.256,1.088,0.768l0.768,5.887C108.746,50.269,108.361,50.716,107.85,50.78L107.85,50.78z"/>
			<path fill="#FFFFFF" d="M107.85,50.844c-0.576,0.064-1.088-0.32-1.152-0.832l-0.768-5.887c-0.064-0.512,0.32-1.023,0.896-1.088
				c0.576-0.063,1.088,0.32,1.152,0.832l0.768,5.887C108.81,50.269,108.425,50.78,107.85,50.844L107.85,50.844z M106.89,43.165
				c-0.448,0.064-0.832,0.512-0.768,0.96l0.768,5.887c0.064,0.448,0.512,0.768,0.96,0.704c0.448-0.063,0.832-0.512,0.768-0.959
				l-0.768-5.887C107.786,43.421,107.337,43.102,106.89,43.165L106.89,43.165z"/>
			
				<linearGradient id="SVGID_3_" gradientUnits="userSpaceOnUse" x1="-83.9131" y1="316.0762" x2="-84.0674" y2="315.7994" gradientTransform="matrix(229.4 0 0 -229.4 19373.1992 72607.1719)">
				<stop  offset="0" style="stop-color:#000000;stop-opacity:0"/>
				<stop  offset="1" style="stop-color:#000000"/>
			</linearGradient>
			<circle fill="url(#SVGID_3_)" fill-opacity="0.2" cx="114.76" cy="115.217" r="75.763"/>
		</g>
		<g filter="url(#filter-5)">
			<polygon opacity="0.05" points="176.919,75.88 115.81,115.042 115.745,115.042 115.745,115.105 115.682,115.169 77.544,178.071 
				133.599,132.959 133.662,132.895 133.662,132.831 			"/>
		</g>
		<path fill="#CD151E" d="M175.768,72.232l-60.406,42.937l17.917,17.79L175.768,72.232"/>
		<path fill="#FA5153" d="M115.425,115.042l9.022,8.895l51.32-51.704L115.425,115.042z"/>
		<path fill="#ACACAC" d="M115.425,115.042l17.917,17.79l-60.406,42.937L115.425,115.042z"/>
		<path fill="#EEEEEE" d="M72.937,175.768l51.511-51.832l-9.022-8.895L72.937,175.768z"/>
	</g>
</g>
</svg>
