<?xml version="1.0" encoding="utf-8"?>
<!-- Generator: Adobe Illustrator 16.0.3, SVG Export Plug-In . SVG Version: 6.00 Build 0)  -->
<!DOCTYPE svg PUBLIC "-//W3C//DTD SVG 1.1//EN" "http://www.w3.org/Graphics/SVG/1.1/DTD/svg11.dtd">
<svg version="1.1" id="Ebene_1" xmlns="http://www.w3.org/2000/svg" xmlns:xlink="http://www.w3.org/1999/xlink" x="0px" y="0px"
	 width="256px" height="256px" viewBox="0 -32 256 256" enable-background="new 0 -32 256 256" xml:space="preserve">
<g>
	<path fill="#CD6799" d="M202.589,107.763c-7.197,0.038-13.452,1.771-18.69,4.333c-1.921-3.806-3.843-7.196-4.182-9.684
		c-0.378-2.901-0.829-4.673-0.378-8.139c0.453-3.467,2.487-8.403,2.45-8.78c-0.038-0.377-0.452-2.147-4.597-2.186
		c-4.146-0.038-7.725,0.792-8.14,1.884c-0.414,1.093-1.205,3.58-1.733,6.142c-0.715,3.768-8.289,17.22-12.623,24.267
		c-1.394-2.751-2.6-5.163-2.862-7.084c-0.378-2.901-0.83-4.673-0.378-8.14c0.452-3.466,2.487-8.402,2.45-8.779
		c-0.038-0.377-0.453-2.148-4.598-2.186s-7.725,0.792-8.14,1.884c-0.413,1.093-0.866,3.655-1.732,6.141
		c-0.866,2.487-10.928,24.945-13.565,30.748c-1.356,2.977-2.525,5.35-3.354,6.971l0,0c0,0-0.038,0.113-0.151,0.302
		c-0.716,1.394-1.13,2.147-1.13,2.147s0,0,0,0.037c-0.565,1.018-1.168,1.96-1.469,1.96c-0.226,0-0.641-2.713,0.075-6.405
		c1.507-7.801,5.087-19.933,5.049-20.348c0-0.226,0.678-2.336-2.336-3.429c-2.939-1.093-3.994,0.716-4.258,0.716
		s-0.452,0.641-0.452,0.641s3.278-13.641-6.255-13.641c-5.954,0-14.168,6.52-18.237,12.396c-2.563,1.395-8.026,4.371-13.866,7.574
		c-2.223,1.244-4.521,2.487-6.67,3.655c-0.15-0.151-0.301-0.339-0.452-0.49c-11.53-12.321-32.857-21.026-31.953-37.567
		c0.339-6.028,2.412-21.854,40.959-41.071c31.727-15.638,56.972-11.304,61.343-1.696c6.254,13.716-13.527,39.188-46.309,42.88
		c-12.51,1.394-19.066-3.429-20.725-5.237c-1.733-1.884-1.997-1.997-2.637-1.621c-1.055,0.565-0.377,2.261,0,3.241
		c0.979,2.563,5.012,7.084,11.832,9.307c6.029,1.959,20.687,3.052,38.434-3.806c19.857-7.687,35.382-29.052,30.822-46.95
		c-4.56-18.162-34.704-24.153-63.228-14.017C73.948,29.765,55.56,39.26,42.334,51.619c-15.712,14.695-18.2,27.469-17.182,32.819
		c3.655,18.991,29.842,31.35,40.318,40.507c-0.528,0.302-1.017,0.564-1.432,0.791c-5.237,2.6-25.208,13.037-30.182,24.077
		c-5.652,12.51,0.904,21.479,5.237,22.685c13.452,3.729,27.281-2.978,34.704-14.056c7.423-11.078,6.519-25.472,3.09-32.065
		c-0.038-0.076-0.075-0.151-0.151-0.226c1.356-0.792,2.751-1.621,4.107-2.412c2.675-1.583,5.313-3.052,7.574-4.258
		c-1.281,3.504-2.223,7.687-2.676,13.716c-0.565,7.084,2.336,16.277,6.143,19.895c1.695,1.583,3.692,1.621,4.974,1.621
		c4.446,0,6.443-3.693,8.666-8.063c2.713-5.352,5.163-11.568,5.163-11.568s-3.052,16.805,5.237,16.805
		c3.015,0,6.066-3.919,7.423-5.915v0.038c0,0,0.076-0.114,0.226-0.378c0.302-0.489,0.49-0.79,0.49-0.79v-0.076
		c1.206-2.11,3.919-6.896,7.951-14.847c5.2-10.248,10.212-23.06,10.212-23.06s0.451,3.127,1.996,8.327
		c0.904,3.052,2.789,6.406,4.296,9.646c-1.206,1.695-1.96,2.638-1.96,2.638s0,0,0.038,0.037c-0.979,1.281-2.035,2.676-3.203,4.032
		c-4.107,4.898-9.005,10.513-9.684,12.133c-0.791,1.922-0.603,3.316,0.904,4.446c1.093,0.829,3.053,0.942,5.049,0.829
		c3.693-0.264,6.292-1.168,7.574-1.733c1.997-0.716,4.334-1.809,6.519-3.429c4.032-2.977,6.481-7.235,6.255-12.849
		c-0.113-3.091-1.131-6.18-2.374-9.082c0.377-0.526,0.716-1.055,1.093-1.582c6.368-9.308,11.304-19.519,11.304-19.519
		s0.453,3.128,1.998,8.327c0.753,2.639,2.298,5.501,3.654,8.29c-5.991,4.861-9.683,10.513-11.003,14.206
		c-2.373,6.857-0.526,9.947,2.977,10.662c1.583,0.34,3.845-0.413,5.502-1.13c2.11-0.679,4.597-1.847,6.972-3.579
		c4.03-2.977,7.911-7.121,7.686-12.736c-0.112-2.562-0.79-5.087-1.732-7.535c5.087-2.11,11.643-3.279,20.007-2.299
		c17.938,2.109,21.479,13.301,20.8,18.011c-0.678,4.71-4.445,7.272-5.689,8.063c-1.243,0.792-1.658,1.056-1.545,1.62
		c0.151,0.829,0.755,0.791,1.809,0.642c1.47-0.264,9.421-3.807,9.76-12.474C231.791,119.745,221.24,107.65,202.589,107.763
		L202.589,107.763z M64.227,154.411c-5.954,6.48-14.244,8.93-17.823,6.857c-3.843-2.223-2.336-11.794,4.974-18.651
		c4.446-4.183,10.173-8.063,13.979-10.438c0.866-0.527,2.147-1.281,3.692-2.224c0.264-0.149,0.415-0.226,0.415-0.226l0,0
		c0.301-0.188,0.603-0.377,0.904-0.565C73.044,138.962,70.481,147.591,64.227,154.411L64.227,154.411z M107.559,124.945
		c-2.072,5.049-6.406,17.973-9.043,17.257c-2.261-0.603-3.655-10.399-0.453-20.084c1.62-4.859,5.049-10.662,7.046-12.924
		c3.241-3.617,6.82-4.823,7.687-3.354C113.889,107.763,108.84,121.78,107.559,124.945L107.559,124.945z M143.317,142.052
		c-0.866,0.452-1.695,0.754-2.072,0.527c-0.264-0.15,0.377-0.753,0.377-0.753s4.484-4.823,6.255-7.009
		c1.017-1.282,2.223-2.789,3.504-4.484v0.489C151.381,136.588,145.805,140.469,143.317,142.052L143.317,142.052z M170.899,135.76
		c-0.641-0.452-0.527-1.96,1.62-6.67c0.829-1.847,2.789-4.937,6.142-7.913c0.377,1.206,0.641,2.374,0.604,3.467
		C179.228,131.916,174.027,134.629,170.899,135.76L170.899,135.76z"/>
</g>
</svg>
