<?xml version="1.0" encoding="utf-8"?>
<!-- Generator: Adobe Illustrator 16.0.3, SVG Export Plug-In . SVG Version: 6.00 Build 0)  -->
<!DOCTYPE svg PUBLIC "-//W3C//DTD SVG 1.1//EN" "http://www.w3.org/Graphics/SVG/1.1/DTD/svg11.dtd">
<svg version="1.1" id="Ebene_1" xmlns="http://www.w3.org/2000/svg" xmlns:xlink="http://www.w3.org/1999/xlink" x="0px" y="0px"
	 width="256px" height="256px" viewBox="0 81.5 256 256" enable-background="new 0 81.5 256 256" xml:space="preserve">
<g>
	<path fill="#FFFFFF" d="M163,166.298c-3.331-10.332-10.904-24.851-11.983-26.894l-0.939-1.787
		c-0.926-1.843-1.617-3.164-1.877-3.656l-3.413-6.486l-4.889,34.738l-0.17,1.263c-3.654-0.208-7.546-0.328-11.661-0.328
		c-4.139,0-8.053,0.121-11.729,0.331l-0.151-1.268l-1.715-12.176c0.002-0.021-3.18-22.561-3.18-22.561l-3.484,6.486
		c-0.315,0.596-1.267,2.403-2.504,4.883l-0.301,0.56c-1.081,2.045-8.727,16.59-12.079,26.923c-9.67,1.868-14.912,3.866-14.912,3.866
		v84.441L128,290.846l49.99-36.211v-84.441C177.989,170.193,172.73,168.174,163,166.298z"/>
	<polygon fill="#3B3B63" points="149.509,231.857 127.961,231.857 127.961,194.963 106.098,230.779 102.698,267.557 
		127.625,285.763 127.961,286.01 153.452,267.426 	"/>
	<path fill="#DBDBDB" d="M127.592,285.631l-46.387-33.629v-78.419c0,0,17.152-6.543,46.449-6.543
		c29.298,0,46.324,6.543,46.324,6.543v78.419L127.592,285.631z"/>
	<path fill="#C6C6C6" d="M128.264,167.04c-0.021,0-0.042,0.001-0.064,0.001v118.588h0.001L174.588,252v-78.417
		C174.588,173.583,157.562,167.04,128.264,167.04"/>
	<polygon fill="#3B3B63" points="153.325,267.35 149.389,231.857 127.84,231.857 127.84,285.927 	"/>
	<polygon fill="#53537A" points="102.698,267.557 127.961,286.009 127.961,194.963 106.097,230.779 	"/>
	<path fill="#BC9375" d="M138.834,257.072c0,6.086-5.591,9.103-10.72,9.103c-5.128,0-10.832-3.017-10.832-9.103"/>
	<path fill="#073251" d="M135.69,253.624c0,7.137-3.779,9.05-7.633,9.05c-3.853,0-7.633-1.913-7.633-9.05"/>
	<path fill="#FFFFFF" d="M128.058,260.22c-4.118,0-6.12-3.071-6.12-9.385h1.963c0,7.392,2.807,7.392,4.156,7.392
		c1.349,0,4.156,0,4.156-7.392h1.963C134.177,257.148,132.174,260.22,128.058,260.22"/>
	<path fill="#C49A7E" d="M160.74,178.098c0-7.699-12.798-31.923-12.798-31.923l-4.33,30.721l-3.885,6.486l-11.646,0.481
		l-0.046,0.095v-0.095l-11.647-0.481l-3.884-6.486l-4.329-30.721c0,0-12.799,24.224-12.799,31.923l5.407,14.793
		c0,0-2.729,24.849-1.482,28.102c1.242,3.254,9.869,14.136,9.869,14.136s-0.026,9.148,2.336,15.725
		c1.685,4.697,5.398,6.602,8.953,6.602c5.446,0,7.577-5.079,7.577-5.079s2.181,5.079,7.627,5.079c3.554,0,7.263-1.901,8.952-6.602
		c2.359-6.574,2.335-15.725,2.335-15.725s8.626-10.882,9.87-14.136c1.245-3.254-1.484-28.102-1.484-28.102L160.74,178.098z"/>
	<path fill="#D8B7A0" d="M128.058,183.913l-0.022,0.046v-0.095l-11.647-0.481l-3.884-6.486l-4.331-30.721
		c0,0-12.798,24.224-12.798,31.923l5.406,14.793c0,0-2.728,24.848-1.484,28.102c1.245,3.254,9.868,14.136,9.868,14.136
		s-0.022,9.147,2.337,15.725c1.688,4.696,5.401,6.602,8.953,6.602c5.448,0,7.579-5.079,7.579-5.079s0.01,0.018,0.025,0.051
		L128.058,183.913L128.058,183.913z"/>
	<path fill="#3B3B63" d="M155.451,194.347c-0.992-2.11,0.419-7.104,0.419-7.104c-8.082-8.422-10.104-25.984-10.104-25.984
		c-1.509,5.534-4.789,21.85-4.789,21.85s-6.031-2.284-12.893-2.294h-0.024h-0.027c-0.377,0.002-0.748,0.012-1.119,0.023v68.849
		l0.512,0.763v-0.376h0.317v0.376l0.003-0.376h0.626v0.376v-0.376h0.319v0.376l5.587-8.293l1.215-23.289l6.955,8.066l8.961,2.661
		c0,0,3.353-2.43,3.353-2.421c1.424-2.026,1.896-3.752,2.239-4.647C158.246,219.267,155.451,194.347,155.451,194.347"/>
	<path fill="#53537A" d="M128.12,180.813c-0.009,0-0.016,0-0.024,0v0c-6.864,0.012-12.896,2.294-12.896,2.294
		s-3.281-16.315-4.789-21.85c0,0-2.02,17.562-10.103,25.984c0,0,1.411,4.994,0.418,7.104c0,0-2.794,24.921-1.55,28.175
		c0.344,0.896,0.819,2.621,2.241,4.647c0-0.01,3.354,2.421,3.354,2.421l8.959-2.661l6.954-8.065l1.218,23.289l5.583,8.294v-0.378
		h0.32v0.378v-0.378h0.313L128.12,180.813L128.12,180.813z"/>
	<path fill="#333152" d="M144.316,209.935L144.316,209.935h-7.852h-2.616v0.113c0,3.712,3.161,6.72,6.869,6.72
		c3.709,0,6.869-3.008,6.869-6.72v-0.113H144.316z"/>
	<path fill="#FFFFFF" d="M136.465,209.935v0.113c0,2.208,1.751,3.997,3.927,3.997s3.926-1.789,3.926-3.997v-0.113H136.465z"/>
	<path fill="#333152" d="M141.603,209.935h-1.84c-0.018,0-0.033,0.009-0.049,0.012c0.229,0.049,0.354,0.574,0.305,0.924
		c-0.073,0.534-0.521,0.905-1.035,0.915c0.149,0.698,0.711,1.26,1.455,1.366c0.952,0.137,1.831-0.526,1.967-1.491
		C142.502,210.949,142.165,209.935,141.603,209.935"/>
	<path fill="#333152" d="M119.047,209.935L119.047,209.935h-7.85h-2.617v0.113c0,3.712,3.162,6.72,6.869,6.72
		c3.709,0,6.871-3.008,6.871-6.72v-0.113H119.047z"/>
	<path fill="#FFFFFF" d="M111.197,209.935v0.113c0,2.208,1.751,3.997,3.924,3.997c2.177,0,3.926-1.789,3.926-3.997v-0.113H111.197z"
		/>
	<path fill="#333152" d="M116.335,209.935h-1.842c-0.016,0-0.033,0.009-0.048,0.012c0.228,0.049,0.354,0.574,0.306,0.924
		c-0.074,0.534-0.52,0.905-1.037,0.915c0.152,0.698,0.712,1.26,1.456,1.366c0.951,0.137,1.833-0.526,1.966-1.491
		C117.234,210.949,116.897,209.935,116.335,209.935"/>
	<path fill="#C49A7E" d="M143.527,206.766c0.439-0.489,4.171-4.788-0.82-4.788c-4.51,0-7.754,3.695-8.614,4.788H143.527z"/>
	<path fill="#D8B7A0" d="M122,206.766c-0.859-1.093-4.104-4.788-8.615-4.788c-4.988,0-1.256,4.299-0.819,4.788H122z"/>
	<polygon fill="#53537A" points="106.172,209.896 125.263,209.896 125.263,208.073 106.172,208.073 	"/>
	<path fill="#333152" d="M155.797,184.05c-5.551-7.923-7.292-20.804-7.443-21.981l1.014-7.18c4.121,8.516,8.446,18.623,8.742,22.84
		L155.797,184.05z M154.38,220.095c-0.759,1.978-5.993,9.043-9.471,13.43l-0.58,0.735l0.003,0.939c0,0.085-0.003,8.746-2.178,14.807
		c-1.573,4.381-5.066,4.854-6.493,4.854c-3.613,0-5.173-3.363-5.228-3.484l-0.207-3.15h-4.392l-0.198,3.132
		c-0.063,0.143-1.584,3.494-5.179,3.494c-1.43,0-4.922-0.469-6.496-4.849c-2.168-6.04-2.179-14.719-2.179-14.808l0.003-0.938
		l-0.58-0.732c-3.475-4.383-8.71-11.449-9.45-13.379c-0.591-2.087,0.385-15.584,1.626-26.895l0.068-0.627l-0.98-2.679
		c3.367-3.583,5.729-8.515,7.359-13.21l0.159,1.143l5.347,8.921l2.089-0.911c0.053-0.022,5.41-2.337,10.612-2.337
		c5.169,0,10.614,2.316,10.666,2.339l2.086,0.903l5.341-8.917l0.209-1.489c1.612,4.741,3.973,9.761,7.355,13.424l-1.026,2.811
		l0.068,0.627C153.976,204.561,154.951,218.059,154.38,220.095L154.38,220.095z M124.8,259.244c0.699-0.315,1.331-0.692,1.887-1.105
		c0.509,0.151,0.997,0.151,1.371,0.151c0.373,0,0.855,0.004,1.36-0.148c0.558,0.41,1.189,0.787,1.889,1.103
		c-0.876,0.665-1.956,1.039-3.247,1.039C126.762,260.283,125.678,259.912,124.8,259.244L124.8,259.244z M128.114,264.91
		c-2.873,0-6.958-1.301-7.974-4.748c0.104,0.003,0.206,0.013,0.313,0.013c0.555,0,1.075-0.052,1.578-0.125
		c1.458,2.061,3.727,2.692,6.027,2.692c2.303,0,4.577-0.626,6.037-2.689c0.5,0.069,1.015,0.122,1.565,0.122
		c0.107,0,0.212-0.01,0.319-0.013C134.975,263.609,130.944,264.91,128.114,264.91L128.114,264.91z M98.009,177.729
		c0.296-4.218,4.618-14.324,8.741-22.841l1.099,7.788c-0.419,2.911-2.334,14.33-7.472,21.527L98.009,177.729z M163.291,178.162
		c0-8.132-11.735-30.638-13.077-33.178l-3.751-7.131l-5.375,38.193l-2.48,4.148c-2.395-0.816-6.471-1.956-10.575-1.956
		c-4.099,0-8.147,1.136-10.532,1.954l-2.482-4.146l-1.886-13.388c0.002-0.022,0.005-0.052,0.005-0.066l-0.014-0.001l-3.488-24.737
		l-3.831,7.131c-1.343,2.54-13.172,25.046-13.172,33.178v0.477l5.417,14.649c-0.866,7.988-2.52,25.338-1.221,28.729
		c0.809,2.121,3.924,6.498,6.559,10.008l-3.548,33.581l4.886,3.5l2.582-24.428c0.371,2.375,0.918,4.884,1.731,7.15
		c1.12,3.123,3.101,5.487,5.636,6.89c0.151,7.477,6.994,11.509,13.441,11.509c6.395,0,13.181-4.035,13.329-11.515
		c2.529-1.4,4.508-3.765,5.627-6.884c0.846-2.357,1.401-4.982,1.771-7.44l2.598,24.517l4.886-3.624l-3.539-33.357
		c2.613-3.493,5.669-7.808,6.472-9.904c1.298-3.39-0.422-20.743-1.287-28.729l5.32-14.652L163.291,178.162L163.291,178.162z"/>
	<path fill="#333152" d="M134.218,239.1h-12.28c0,0-1.651,2.923-1.651,3.871c0,2.816,7.558,7.3,7.558,7.3s7.983-4.617,7.983-7.3
		C135.828,241.691,134.218,239.1,134.218,239.1"/>
	<path fill="#C49A7E" d="M131.851,247.685c-0.685-1.233-1.568-1.458-1.975-0.507c-0.404,0.951-0.173,2.722,0.513,3.952
		c0.685,1.234,1.568,1.459,1.973,0.508C132.768,250.687,132.537,248.914,131.851,247.685"/>
	<path fill="#D8B7A0" d="M124.264,247.685c-0.687,1.229-0.915,3.002-0.511,3.953c0.404,0.951,1.288,0.727,1.976-0.508
		c0.685-1.229,0.914-3.001,0.508-3.952C125.833,246.227,124.95,246.451,124.264,247.685"/>
</g>
</svg>
