<?xml version="1.0" encoding="utf-8"?>
<!-- Generator: Adobe Illustrator 16.0.3, SVG Export Plug-In . SVG Version: 6.00 Build 0)  -->
<!DOCTYPE svg PUBLIC "-//W3C//DTD SVG 1.1//EN" "http://www.w3.org/Graphics/SVG/1.1/DTD/svg11.dtd">
<svg version="1.1" id="Ebene_1" xmlns="http://www.w3.org/2000/svg" xmlns:xlink="http://www.w3.org/1999/xlink" x="0px" y="0px"
	 width="256px" height="256px" viewBox="0 0 256 256" enable-background="new 0 0 256 256" xml:space="preserve">
<g>
	<path fill="#010101" d="M107.452,49.422c21.023-5.392,44.257-2.25,62.797,9.192c23.35,13.964,38.593,40.378,38.981,67.567
		c0.853,27.461-13.459,54.691-36.461,69.624c-25.6,17.222-61.012,17.881-87.155,1.513c-26.647-15.902-42.201-47.979-38.206-78.777
		C50.628,85.999,75.763,57.296,107.452,49.422L107.452,49.422L107.452,49.422z"/>
	<path fill="#FFFFFF" d="M104.232,62.727c39.719-15.903,88.436,13.459,92.547,56.047c6.4,38.322-25.405,77.264-64.232,78.389
		c-36.925,3.686-72.609-27.616-73.657-64.697C56.136,102.445,75.918,72.656,104.232,62.727L104.232,62.727L104.232,62.727z"/>
	<path fill="#010101" d="M108.228,123.894c17.803-14.545,35.219-29.595,53.411-43.713c-9.543,14.662-19.355,29.129-28.896,43.791
		C124.557,124.011,116.373,124.011,108.228,123.894L108.228,123.894L108.228,123.894z"/>
	<path fill="#010101" d="M123.277,132c8.223,0,16.407,0,24.592,0.117c-17.921,14.468-35.258,29.633-53.488,43.713
		C103.922,161.169,113.736,146.662,123.277,132L123.277,132L123.277,132z"/>
</g>
</svg>
