<?xml version="1.0" encoding="utf-8"?>
<!-- Generator: Adobe Illustrator 16.0.3, SVG Export Plug-In . SVG Version: 6.00 Build 0)  -->
<!DOCTYPE svg PUBLIC "-//W3C//DTD SVG 1.1//EN" "http://www.w3.org/Graphics/SVG/1.1/DTD/svg11.dtd">
<svg version="1.1" id="Ebene_1" xmlns="http://www.w3.org/2000/svg" xmlns:xlink="http://www.w3.org/1999/xlink" x="0px" y="0px"
	 width="256px" height="256px" viewBox="0 0 256 256" enable-background="new 0 0 256 256" xml:space="preserve">
<g>
	<path fill="#006EAF" d="M53.42,79.673l70.312,38.368l2.134-40.547l-21.741-35.078C83.011,48.3,65.071,61.727,53.42,79.673z
		 M154.054,42.972l-23.209,34.522l0.712,43.392l71.802-39.924C192.125,63.003,174.724,49.302,154.054,42.972z"/>
	<path fill="#00A7E1" d="M80.785,203.247l43.659-70.979L53.398,79.695C44.372,93.608,39.082,110.181,39.082,128
		C39.082,159.739,55.762,187.514,80.785,203.247z M203.358,80.962l-71.802,51.305l44.393,70.513
		c24.613-15.813,40.969-43.352,40.969-74.78c0-17.288-5.003-33.385-13.538-47.038C203.378,80.959,203.359,80.966,203.358,80.962
		L203.358,80.962z"/>
	<path fill="#5BC9EC" d="M128.711,216.873l-4.268-69.666l-43.637,56.04c13.689,8.604,29.832,13.671,47.193,13.671
		C128.24,216.918,128.472,216.876,128.711,216.873z M175.949,202.78l-45.104-56.997l-2.134,71.09
		C146.118,216.735,162.292,211.555,175.949,202.78z"/>
	<path fill="#FFFFFF" d="M154.054,42.972l-25.343,30.254l-24.563-30.832c-0.009,0.002-0.014,0.02-0.022,0.022l21.741,35.078
		l-2.134,40.547L53.42,79.673c-0.006,0.008-0.018,0.014-0.022,0.022l71.045,52.572l-43.659,70.979c0.005,0.003,0.017-0.004,0.022,0
		l43.637-56.04l4.268,69.666l2.134-71.09l45.104,56.997l-44.393-70.513l71.802-51.305l-71.802,39.924l-0.712-43.392L154.054,42.972
		L154.054,42.972z"/>
	<path fill="#013A78" d="M128,39.082c-8.277,0-16.249,1.196-23.852,3.313l24.563,30.832l25.343-30.254
		C145.808,40.447,137.072,39.082,128,39.082L128,39.082z"/>
</g>
</svg>
