<?xml version="1.0" encoding="utf-8"?>
<!-- Generator: Adobe Illustrator 16.0.3, SVG Export Plug-In . SVG Version: 6.00 Build 0)  -->
<!DOCTYPE svg PUBLIC "-//W3C//DTD SVG 1.1//EN" "http://www.w3.org/Graphics/SVG/1.1/DTD/svg11.dtd">
<svg version="1.1" id="Ebene_1" xmlns="http://www.w3.org/2000/svg" xmlns:xlink="http://www.w3.org/1999/xlink" x="0px" y="0px"
	 width="256px" height="256px" viewBox="0 28.5 256 256" enable-background="new 0 28.5 256 256" xml:space="preserve">
<g>
	<g>
		<path fill="#3185B8" d="M201.584,76.922c-1.066-0.875-9.449-5.37-9.449-5.37l-8.944,5.197l-0.005-0.003l8.945-5.196l-8.942-5.329
			l-0.003,10.525l-9.328-5.221c0,0-7.632,4.46-11.337,6.599c-4.664,2.691-16.102,9.502-16.102,9.502v10.057l-9.424,24.551v13.331
			l-6.613,3.86l-2.632,6.884L109.205,98.2l0.003-10.551l-36.959-21.44L53.786,76.896l-0.018-0.004v10.872l11.513,27.731l6.997,4.121
			l0.006,12.646l27.736,67.367l27.719,15.863v0.091l27.684-16.02l46.261-112.021L201.584,76.922"/>
		<path fill="#3185B8" d="M127.761,215.503l-27.74-15.874l-27.736-67.367l-0.006-12.646l-6.997-4.121L53.769,87.764V76.892
			l9.11,5.312v10.703l9.416,5.464l0.001-10.765L90.693,98.25l0.887,10.538l26.745,69.421l18.586,10.827v21.232l-9.176-5.398
			L127.761,215.503"/>
		<path fill="#61A5CE" d="M109.205,98.2l18.545,48.109l-0.039,26.5l-9.4,5.346L91.58,108.709l-0.887-10.46l18.515-10.6L109.205,98.2
			"/>
		<path fill="#61A5CE" d="M62.879,82.203v10.703l9.417-5.301L62.879,82.203"/>
		<path fill="#EAE9E6" d="M72.294,98.371l0.001-10.765l-9.417,5.301L72.294,98.371"/>
		<path fill="#3185B8" d="M127.711,172.81l9.271,5.304l10.321-25.915l7.949,4.73V132.09l2.536-5.997l6.769,3.963v-10.5l-9.214-5.353
			l9.265-5.378l-9.11-5.25l-0.024-10.671l-9.055-5.279v10.057l-9.424,24.551v13.331l-6.613,3.86l-2.632,6.884L127.711,172.81"/>
		<path fill="#61A5CE" d="M127.584,183.658l9.327,5.377l-0.047,21.236l18.56-10.708l46.261-112.021l-0.101-10.621l-27.727,15.982
			v21.323l-9.3,5.33v10.5l-6.769-3.963l-2.536,5.997v24.786l-12.88,7.574l-5.391,13.663L127.584,183.658"/>
		<path fill="#EAE9E6" d="M90.634,108.903l9.303-5.405v10.693L90.634,108.903"/>
		<path fill="#3185B8" d="M99.937,114.191l9.226,5.211v-10.5l-9.226-5.405V114.191"/>
		<path fill="#61A5CE" d="M81.473,135.422v10.77l9.314-5.36L81.473,135.422"/>
		<path fill="#EAE9E6" d="M100.084,146.242l-9.347,5.442l-9.265-5.492l9.314-5.36L100.084,146.242"/>
		<path fill="#61A5CE" d="M99.958,178.233v10.861l9.363-5.413L99.958,178.233"/>
		<path fill="#EAE9E6" d="M118.344,199.513l9.431,5.482l0.034-11.031L118.344,199.513"/>
		<path fill="#61A5CE" d="M127.74,215.583l0.034-10.588l9.09,5.276L127.74,215.583"/>
		<path fill="#EAE9E6" d="M127.711,172.81l-9.4,5.346l9.272,5.503l9.398-5.545L127.711,172.81"/>
		<path fill="#3185B8" d="M173.857,114.227V92.904l-9.181-5.226v10.624l-9.179,5.273L173.857,114.227"/>
		<path fill="#EAE9E6" d="M155.344,114.204l9.265-5.378l9.249,5.401l-9.3,5.33L155.344,114.204"/>
		<path fill="#61A5CE" d="M155.498,103.576l9.179-5.273V87.679l-9.203,5.226L155.498,103.576"/>
		<path fill="#3185B8" d="M183.186,76.746l0.003-10.525l8.942,5.329L183.186,76.746"/>
		<path fill="#EAE9E6" d="M201.584,76.922l-27.727,15.982l-9.181-5.226l-9.203,5.226l-9.055-5.279c0,0,11.438-6.811,16.102-9.502
			c3.705-2.138,11.337-6.599,11.337-6.599l9.333,5.225l8.944-5.197C192.135,71.552,200.518,76.047,201.584,76.922
			C199.062,78.396,201.584,76.922,201.584,76.922"/>
		<path fill="#EAE9E6" d="M109.208,87.649l-18.515,10.6L53.786,76.896l18.462-10.687L109.208,87.649"/>
		<path fill="#3185B8" d="M192.275,92.661V82.287l-9.021,5.206L192.275,92.661"/>
		<path fill="#3185B8" d="M164.932,140.889l8.977-5.15v10.329L164.932,140.889"/>
		<path fill="#EAE9E6" d="M146.173,183.587v10.703l9.35-5.409L146.173,183.587"/>
		<path fill="#3185B8" d="M155.581,188.881l-0.115-10.617l-9.293,5.323L155.581,188.881"/>
	</g>
	<path fill="#3285B7" d="M63.854,246.174h4.012l7.609-23.036h-2.871l-6.745,20.442l-6.745-20.442h-2.871L63.854,246.174z
		 M86.958,223.138h-4.012l-7.782,23.036h3.009l1.868-5.534h9.789l1.902,5.534h3.009L86.958,223.138z M89.067,238.046h-8.231
		l4.116-12.763L89.067,238.046z M100.862,229.745c0-3.113,1.142-4.255,4.946-4.255c1.902,0,3.978,0.208,6.191,0.588l0.346-2.559
		c-2.145-0.484-4.427-0.727-6.399-0.727c-5.741,0-8.059,2.145-8.059,6.813v10.134c0,4.255,1.798,6.78,7.678,6.78
		c2.387,0,5.05-0.347,7.298-1.004v-9.927h-2.871v7.816c-1.591,0.312-3.113,0.415-4.323,0.415c-3.943,0-4.808-1.313-4.808-4.254
		V229.745z M132.752,246.174h3.424l-5.983-8.682c2.663-0.761,3.666-2.629,3.666-5.361v-3.32c0-3.527-1.729-5.673-6.675-5.673h-8.785
		v23.036h2.975v-8.336h5.638L132.752,246.174z M130.884,228.846v3.32c0,2.248-0.968,3.044-3.804,3.044h-5.707v-9.408h5.707
		C129.916,225.802,130.884,226.563,130.884,228.846L130.884,228.846z M150.357,223.138h-4.013l-7.782,23.036h3.009l1.868-5.534
		h9.788l1.902,5.534h3.01L150.357,223.138z M152.467,238.046h-8.232l4.117-12.763L152.467,238.046z M174.914,246.174h4.082v-23.036
		h-2.837v19.716l-10.03-19.716h-4.081v23.036h2.836v-19.611L174.914,246.174z M189.51,246.174h2.975v-20.372h6.883v-2.664h-16.74
		v2.664h6.883V246.174z"/>
</g>
</svg>
