<?xml version="1.0" encoding="utf-8"?>
<!-- Generator: Adobe Illustrator 16.0.3, SVG Export Plug-In . SVG Version: 6.00 Build 0)  -->
<!DOCTYPE svg PUBLIC "-//W3C//DTD SVG 1.1//EN" "http://www.w3.org/Graphics/SVG/1.1/DTD/svg11.dtd">
<svg version="1.1" id="Ebene_1" xmlns="http://www.w3.org/2000/svg" xmlns:xlink="http://www.w3.org/1999/xlink" x="0px" y="0px"
	 width="256px" height="256px" viewBox="0 0 256 256" enable-background="new 0 0 256 256" xml:space="preserve">
<g>
	<path fill="#368FB9" d="M128,44.43c-46.141,0-83.57,37.429-83.57,83.57s37.429,83.569,83.57,83.569s83.569-37.429,83.569-83.569
		S174.141,44.43,128,44.43"/>
	<path fill="#FFFFFF" d="M177.174,158.072c-5.162,1.227-7.776,2.355-14.165,6.518c-9.97,6.453-20.876,9.454-20.876,9.454
		s-0.903,1.355-3.517,1.968c-4.519,1.098-21.522,2.034-23.071,2.065c-4.162,0.032-6.711-1.064-7.421-2.774
		c-2.162-5.163,3.098-7.422,3.098-7.422s-1.162-0.709-1.839-1.355c-0.613-0.612-1.258-1.839-1.452-1.388
		c-0.806,1.97-1.226,6.776-3.388,8.938c-2.968,3.001-8.583,2-11.906,0.259c-3.646-1.937,0.258-6.485,0.258-6.485
		s-1.968,1.161-3.549-1.228c-1.42-2.193-2.743-5.937-2.388-10.551c0.387-5.259,6.26-10.357,6.26-10.357s-1.032-7.775,2.355-15.746
		c3.065-7.259,11.326-13.1,11.326-13.1s-6.938-7.68-4.356-14.584c1.678-4.517,2.355-4.485,2.904-4.679
		c1.936-0.742,3.808-1.549,5.195-3.065c6.938-7.485,15.778-6.066,15.778-6.066s4.194-12.745,8.066-10.261
		c1.193,0.774,5.485,10.325,5.485,10.325s4.582-2.678,5.098-1.678c2.775,5.389,3.099,15.682,1.872,21.941
		c-2.064,10.325-7.228,15.875-9.292,19.359c-0.485,0.807,5.549,3.355,9.356,13.906c3.518,9.648,0.388,17.747,0.936,18.651
		c0.097,0.16,0.13,0.226,0.13,0.226s4.033,0.322,12.132-4.679c4.323-2.678,9.454-5.679,15.294-5.743
		C181.143,150.425,181.433,157.039,177.174,158.072L177.174,158.072z M184.854,153.329c-0.581-4.582-4.453-7.744-9.422-7.68
		c-7.422,0.097-13.648,3.937-17.778,6.485c-1.613,1.001-3.001,1.743-4.195,2.291c0.259-3.743,0.032-8.647-1.903-14.035
		c-2.355-6.453-5.518-10.423-7.776-12.713c2.613-3.807,6.195-9.357,7.873-17.94c1.452-7.325,1-18.714-2.323-25.104
		c-0.678-1.291-1.808-2.226-3.227-2.613c-0.581-0.161-1.678-0.484-3.84,0.129c-3.259-6.744-4.388-7.453-5.259-8.034
		c-1.808-1.162-3.937-1.42-5.938-0.678c-2.678,0.968-4.969,3.549-7.131,8.131c-0.323,0.678-0.613,1.323-0.872,1.968
		c-4.098,0.29-10.551,1.774-16.004,7.679c-0.677,0.742-2,1.291-3.388,1.807h0.032c-2.84,1-4.13,3.323-5.711,7.518
		c-2.194,5.873,0.064,11.648,2.291,15.391c-3.033,2.71-7.066,7.034-9.196,12.1c-2.646,6.26-2.936,12.391-2.84,15.714
		c-2.258,2.388-5.743,6.873-6.13,11.906c-0.516,7.033,2.033,11.81,3.162,13.552c0.323,0.517,0.678,0.936,1.065,1.354
		c-0.129,0.872-0.161,1.808,0.032,2.775c0.419,2.259,1.839,4.098,4.001,5.26c4.259,2.259,10.196,3.227,14.778,0.936
		c1.645,1.742,4.646,3.421,10.099,3.421h0.323c1.387,0,19.004-0.937,24.135-2.195c2.291-0.548,3.872-1.516,4.904-2.387
		c3.291-1.033,12.391-4.131,20.973-9.68c6.066-3.937,8.163-4.775,12.682-5.873C182.659,161.751,185.402,157.75,184.854,153.329
		L184.854,153.329z"/>
</g>
</svg>
