<?xml version="1.0" standalone="no"?>
<!DOCTYPE svg PUBLIC "-//W3C//DTD SVG 1.1//EN" "http://www.w3.org/Graphics/SVG/1.1/DTD/svg11.dtd" >
<svg xmlns="http://www.w3.org/2000/svg">
<metadata></metadata>
<defs>
<font id="classic_rounditalic" horiz-adv-x="1324" >
<font-face units-per-em="2048" ascent="1566" descent="-482" />
<missing-glyph horiz-adv-x="543" />
<glyph unicode="&#xfb01;" horiz-adv-x="1191" d="M6 42q0 23 17 41.5t41 23.5l77 15l121 727h-81q-20 0 -33 13t-13 33q0 24 19 42t44 18h82l11 66q14 83 42.5 146.5t71 106.5t92 71t115 43t129.5 21t145 6q44 0 84 -7t79 -23t62 -48t23 -76q0 -60 -39 -98.5t-96 -38.5q-44 0 -70 25t-26 66q0 52 37 96q-22 5 -52 5 q-48 0 -83 -2t-79 -8.5t-76 -18t-66 -33t-57.5 -51t-43 -73t-28.5 -98.5l-13 -77h153q19 0 32.5 -13.5t13.5 -32.5q0 -24 -19.5 -42t-43.5 -18h-154l-122 -728l106 -16q18 -3 28.5 -16.5t10.5 -31.5q0 -23 -17.5 -40t-39.5 -17h-343q-18 0 -29.5 12t-11.5 30zM760 55 l132 787l-77 13q-17 3 -27.5 16t-10.5 30q0 23 17 40.5t40 19.5l172 17q29 3 46 -18.5t12 -51.5l-131 -786l65 -14q17 -4 28 -18t11 -33q0 -23 -17 -39t-41 -18l-161 -16q-29 -3 -46 19t-12 52z" />
<glyph unicode="&#xfb02;" horiz-adv-x="1189" d="M6 42q0 23 17 41.5t42 23.5l76 15l121 727h-82q-19 0 -32 13t-13 33q0 24 19 42t44 18h82l11 66q65 394 499 394q57 0 107 -16l172 16q29 3 46 -18.5t12 -51.5l-205 -1223l66 -14q18 -4 28.5 -18t10.5 -33q0 -23 -17 -39t-41 -18l-160 -16q-29 -3 -46 19t-12 52l203 1215 q-65 46 -164 46q-135 0 -222.5 -68.5t-112.5 -215.5l-13 -77h153q19 0 32 -13t13 -33q0 -25 -18.5 -42.5t-43.5 -17.5h-154l-122 -728l105 -16q18 -3 29 -16.5t11 -31.5q0 -23 -17.5 -40t-39.5 -17h-343q-17 0 -29 12t-12 30z" />
<glyph unicode="&#xfb03;" horiz-adv-x="1811" d="M6 42q0 23 17 41.5t41 23.5l77 15l121 727h-81q-20 0 -33 13t-13 33q0 24 19 42t44 18h82l11 66q17 102 69.5 176.5t129 115.5t160.5 60t180 19q32 0 54.5 -1t55 -6.5t53 -15t36 -29t16.5 -46.5q77 70 189.5 95.5t271.5 25.5q44 0 84 -7t79 -23t62 -48t23 -76 q0 -60 -39 -98.5t-96 -38.5q-44 0 -70 25t-26 66q0 52 37 96q-23 5 -52 5q-48 0 -83 -2t-79 -8.5t-76.5 -18t-66.5 -33t-58 -51t-42.5 -73t-27.5 -98.5l-13 -77h154q19 0 32 -13t13 -33q0 -24 -19.5 -42t-43.5 -18h-153l-123 -728l106 -16q18 -3 28.5 -16.5t10.5 -31.5 q0 -23 -17.5 -40t-39.5 -17h-343q-18 0 -29.5 12t-11.5 30q0 23 17 41.5t41 23.5l77 15l122 727h-82q-20 0 -33 13t-13 33q0 24 19 42t44 18h83l11 66q10 67 33 124q-27 3 -46.5 20.5t-23.5 44.5l-14 82q-10 1 -31 1q-45 0 -86 -5t-91 -21.5t-87.5 -44t-68.5 -76.5t-42 -114 l-13 -77h153q19 0 32 -13t13 -33q0 -24 -19 -42t-43 -18h-154l-122 -728l106 -16q18 -3 28.5 -16.5t10.5 -31.5q0 -23 -17.5 -40t-39.5 -17h-343q-18 0 -29.5 12t-11.5 30zM1380 55l132 787l-77 13q-17 3 -27.5 16t-10.5 30q0 23 17 40.5t40 19.5l172 17q29 3 46 -18.5 t12 -51.5l-131 -786l65 -14q17 -4 28 -18t11 -33q0 -23 -17 -39t-41 -18l-161 -16q-29 -3 -46 19t-12 52z" />
<glyph unicode="&#xfb04;" horiz-adv-x="1809" d="M6 42q0 23 17 41.5t41 23.5l77 15l121 727h-81q-20 0 -33 13t-13 33q0 24 19 42t44 18h83l10 66q16 102 68.5 177t129 116t161 59.5t180.5 18.5q41 0 69 -2.5t65.5 -10.5t58.5 -29.5t22 -54.5q127 120 365 120q53 0 108 -16l171 16q29 3 46 -18.5t12 -51.5l-205 -1223 l66 -14q18 -4 28.5 -18t10.5 -33q0 -23 -17 -39t-41 -18l-160 -16q-29 -3 -46 19t-12 52l203 1215q-66 46 -164 46q-135 0 -223 -68.5t-112 -215.5l-13 -77h154q19 0 32 -13t13 -33q0 -24 -19 -42t-44 -18h-153l-122 -728l105 -16q18 -3 28.5 -16.5t10.5 -31.5 q0 -23 -17.5 -40t-39.5 -17h-343q-18 0 -29.5 12t-11.5 30q0 23 17.5 41.5t41.5 23.5l76 15l122 727h-82q-19 0 -32.5 13.5t-13.5 32.5q0 24 19 42t44 18h83l11 66q9 62 33 124q-27 3 -46.5 20.5t-23.5 44.5l-14 82q-10 1 -31 1q-45 0 -86 -5t-91 -21.5t-87.5 -44 t-68.5 -76.5t-42 -114l-13 -77h153q19 0 32.5 -13.5t13.5 -32.5q0 -24 -19.5 -42t-43.5 -18h-154l-122 -728l106 -16q18 -3 28.5 -16.5t10.5 -31.5q0 -23 -17.5 -40t-39.5 -17h-343q-18 0 -29.5 12t-11.5 30z" />
<glyph horiz-adv-x="2048" />
<glyph horiz-adv-x="2048" />
<glyph unicode="&#xd;" horiz-adv-x="2048" />
<glyph unicode=" "  horiz-adv-x="543" />
<glyph unicode="&#x09;" horiz-adv-x="543" />
<glyph unicode="&#xa0;" horiz-adv-x="543" />
<glyph unicode="!" horiz-adv-x="506" d="M63 84q0 56 38.5 93t95.5 37q43 0 69 -26t26 -68q0 -57 -38.5 -94.5t-94.5 -37.5q-44 0 -70 26.5t-26 69.5zM166 369l84 760q5 42 9 67q17 104 120 104q85 0 85 -82q0 -16 -17 -90l-168 -759q-5 -23 -24 -38.5t-42 -15.5q-22 0 -35.5 16t-11.5 38z" />
<glyph unicode="&#x22;" horiz-adv-x="647" d="M187 939l21 381q2 38 32 66.5t69 28.5q32 0 52.5 -21t20.5 -52q0 -5 -5 -25l-105 -378q-5 -17 -18.5 -28t-29.5 -11t-27 11t-10 28zM485 939l22 381q2 38 32 66.5t69 28.5q32 0 52 -21t20 -52q0 -13 -3 -25l-106 -378q-5 -17 -19 -28t-30 -11t-27 11t-10 28z" />
<glyph unicode="#" horiz-adv-x="1030" d="M48 430q0 29 22.5 50t51.5 21h133l83 271h-122q-24 0 -39 15.5t-15 38.5q0 29 22.5 50.5t52.5 21.5h139l96 311q8 27 31.5 45t51.5 18q21 0 34.5 -14t13.5 -34q0 -9 -3 -15l-96 -311h225l96 311q8 27 32 45t52 18q21 0 33.5 -13.5t12.5 -34.5q0 -11 -2 -15l-96 -311h99 q23 0 38 -15.5t15 -38.5q0 -28 -22.5 -50t-51.5 -22h-116l-83 -271h102q23 0 38.5 -15.5t15.5 -38.5q0 -28 -23 -50t-52 -22h-121l-96 -312q-8 -27 -32.5 -45t-51.5 -18q-21 0 -34 14t-13 34q0 11 2 15l97 312h-225l-96 -312q-8 -27 -32 -45t-52 -18q-21 0 -33.5 13.5 t-12.5 34.5q0 11 2 15l96 312h-114q-23 0 -38 16t-15 39zM383 501h224l84 271h-225z" />
<glyph unicode="$" horiz-adv-x="930" d="M6 139l14 84q4 28 27.5 47.5t51.5 19.5q30 0 51 -18t25 -46l15 -109q58 -27 125 -27q22 0 32 1l83 488q-51 27 -80.5 44.5t-71.5 49t-65 61.5t-40.5 74.5t-18.5 94.5q-3 157 107.5 263.5t288.5 128.5l16 98q3 19 19 32t35 13t29.5 -13t7.5 -32l-15 -93q37 0 71.5 -3 t77 -13.5t71.5 -26.5t46.5 -46t10.5 -69l-14 -84q-4 -27 -28 -47t-51 -20q-30 0 -50.5 17.5t-25.5 46.5l-15 109q-36 17 -113 19l-75 -452q41 -22 59.5 -32t56 -32.5t56 -38.5t45.5 -43t40 -52.5t23 -60t11 -72.5q3 -170 -115.5 -284t-302.5 -138l-16 -99q-3 -19 -19 -32.5 t-35 -13.5t-30 13.5t-8 32.5l16 93q-46 0 -84 3t-88.5 13t-83.5 26.5t-53 49t-13 75.5zM332 962q0 -105 131 -185l66 398q-90 -20 -143.5 -75t-53.5 -138zM442 104q96 23 155 81t59 150q0 62 -38 109t-105 89z" />
<glyph unicode="%" horiz-adv-x="1445" d="M117 799q0 88 18.5 169.5t56.5 154.5t107 117t161 44q105 0 154.5 -72.5t49.5 -193.5q0 -69 -11 -134.5t-36.5 -130t-64 -112.5t-98 -77.5t-133.5 -29.5q-105 0 -154.5 72t-49.5 193zM208 -18q0 19 12 35l947 1295q20 28 53 28q20 0 33.5 -14t13.5 -34q0 -17 -12 -34 l-947 -1296q-22 -28 -53 -28q-20 0 -33.5 13.5t-13.5 34.5zM248 786q0 -165 91 -165q51 0 96.5 63.5t71.5 158.5t26 189q0 165 -95 165q-49 0 -94 -64t-70.5 -159t-25.5 -188zM810 254q0 69 10.5 134.5t36.5 130t64 112.5t97.5 77.5t133.5 29.5q105 0 154.5 -72.5 t49.5 -193.5q0 -69 -11 -134.5t-36.5 -130t-64 -112.5t-98 -77.5t-133.5 -29.5q-105 0 -154 72.5t-49 193.5zM940 241q0 -166 92 -166q51 0 96.5 63.5t71 158t25.5 189.5q0 165 -94 165q-50 0 -95 -64t-70.5 -159t-25.5 -187z" />
<glyph unicode="&#x26;" horiz-adv-x="1300" d="M47 290q0 131 85 232t223 154q-112 141 -112 272q0 149 115 250.5t269 101.5q127 0 203 -62t76 -177q0 -79 -18.5 -136t-62.5 -101t-101.5 -75t-149.5 -65l334 -430q138 135 138 301q0 37 -9 56l-56 15q-17 4 -27 18.5t-10 32.5q0 23 16.5 39t38.5 16h236q17 0 28 -11.5 t11 -28.5q0 -22 -16 -41t-39 -24l-31 -6q-13 -277 -209 -446l40 -53l62 -14q39 -10 39 -51q0 -23 -18 -40t-40 -17h-102q-86 0 -136 68q-173 -91 -383 -91q-167 0 -280.5 82.5t-113.5 230.5zM226 338q0 -111 85 -171.5t216 -60.5q111 0 231 56l-336 435q-196 -105 -196 -259 zM417 986q0 -105 103 -236q115 50 174.5 117t59.5 166q0 66 -38 108t-105 42q-80 0 -137 -57.5t-57 -139.5z" />
<glyph unicode="'" horiz-adv-x="349" d="M189 939l21 381q2 38 32 66.5t69 28.5q32 0 52 -21t20 -52q0 -9 -4 -25l-105 -378q-5 -17 -18.5 -28t-29.5 -11t-27 11t-10 28z" />
<glyph unicode="(" horiz-adv-x="546" d="M77 332q0 145 51 324.5t124.5 326t160.5 247t154 100.5q14 0 22 -8.5t8 -20.5t-10 -25q-184 -238 -272 -475t-88 -510q0 -308 104 -548q3 -9 3 -17q0 -15 -12 -26.5t-30 -11.5q-49 0 -90.5 60.5t-68 155.5t-41.5 207t-15 221z" />
<glyph unicode=")" horiz-adv-x="550" d="M-61 -283q0 9 11 26q181 234 270 471t89 513q0 317 -103 549q-3 6 -3 15q0 16 12 27.5t30 11.5q62 0 112 -103t75.5 -250t25.5 -297q0 -142 -49.5 -319.5t-121.5 -324t-159 -247.5t-157 -101q-15 0 -23.5 8.5t-8.5 20.5z" />
<glyph unicode="*" horiz-adv-x="812" d="M140 996q0 27 21.5 47.5t46.5 17.5l213 -27l-106 181q-7 12 -7 26q0 27 22 47t49 20q40 0 49 -36l56 -200l124 202q21 35 61 35q21 0 36 -14.5t15 -36.5q0 -21 -20 -43l-167 -180l230 27q21 2 35 -13t14 -37q0 -27 -22 -48t-47 -18l-220 26l107 -176q8 -13 8 -27 q0 -27 -22 -47.5t-50 -20.5q-18 0 -32.5 10t-18.5 28l-53 198l-131 -205q-22 -33 -56 -33q-21 0 -35.5 14.5t-14.5 36.5q0 21 20 43l167 177l-223 -24q-21 -2 -35 13t-14 37z" />
<glyph unicode="+" horiz-adv-x="1029" d="M60 524q0 37 28 64t65 27h290l49 289q6 34 33 58t61 24t53.5 -24t14.5 -58l-48 -289h291q29 0 48.5 -20t19.5 -49q0 -36 -28.5 -63t-65.5 -27h-292l-49 -292q-5 -34 -33 -57.5t-62 -23.5t-53 23.5t-14 57.5l49 292h-290q-29 0 -48 19.5t-19 48.5z" />
<glyph unicode="," horiz-adv-x="457" d="M-29 -238q0 21 20 35q65 43 99.5 91t45.5 113q-42 0 -67 24.5t-25 64.5q0 54 36.5 89t90.5 35q52 0 80 -37.5t28 -93.5q0 -53 -22.5 -107.5t-56.5 -97t-72.5 -76.5t-72.5 -52.5t-54 -18.5q-13 0 -21.5 9t-8.5 22z" />
<glyph unicode="-" horiz-adv-x="721" d="M93 473q0 33 27 59t61 26h362q27 0 45 -19t18 -46q0 -33 -26.5 -58.5t-60.5 -25.5h-363q-27 0 -45 18.5t-18 45.5z" />
<glyph unicode="." horiz-adv-x="451" d="M44 84q0 56 38.5 93t95.5 37q44 0 70 -26t26 -68q0 -57 -39 -94.5t-96 -37.5q-44 0 -69.5 26.5t-25.5 69.5z" />
<glyph unicode="/" horiz-adv-x="743" d="M-54 -107q0 15 9 32l711 1368q11 21 31.5 34t41.5 13q25 0 42 -17.5t17 -43.5q0 -14 -9 -32l-712 -1368q-25 -46 -72 -46q-25 0 -42 17.5t-17 42.5z" />
<glyph unicode="0" horiz-adv-x="1142" d="M108 424q0 119 19 236.5t65 234.5t114 205.5t174.5 144t238.5 55.5q90 0 157.5 -34.5t107 -97t59 -143.5t19.5 -180q0 -83 -9.5 -166.5t-32 -170.5t-55.5 -164.5t-83 -146t-111 -118t-144 -78.5t-178 -29q-175 0 -258 123t-83 329zM294 400q0 -308 184 -308 q103 0 196 120t146.5 300.5t53.5 360.5q0 307 -189 307q-100 0 -192.5 -122t-145.5 -302.5t-53 -355.5z" />
<glyph unicode="1" horiz-adv-x="673" d="M39 43q0 23 17 41.5t42 22.5l101 15l165 987q-42 -16 -102 -29t-85 -13q-17 0 -31 11.5t-14 33.5q0 26 19.5 48t47.5 30q105 29 193 76q63 34 117 34q25 0 39.5 -18t10.5 -43l-187 -1117l91 -15q18 -3 29 -17t11 -32q0 -24 -18 -41t-40 -17h-365q-18 0 -29.5 12.5 t-11.5 30.5z" />
<glyph unicode="2" horiz-adv-x="999" d="M-13 63q0 50 22 96.5t69 93.5t89.5 81.5t115.5 90t115 90.5q214 178 294 283t80 194q0 87 -58.5 126t-170.5 39q-153 0 -266 -92q-16 -13 -33 -13q-18 0 -28.5 15t-10.5 34q0 46 65 93t161.5 76.5t186.5 29.5q149 0 246.5 -70.5t100.5 -207.5q2 -91 -38 -171t-124 -163.5 t-240 -205.5q-190 -148 -264 -209.5t-120 -112.5h496l17 41q12 28 37 46t54 18q27 0 43 -19t12 -46l-20 -115q-6 -35 -35 -60t-64 -25h-664q-29 0 -48.5 18t-19.5 45z" />
<glyph unicode="3" horiz-adv-x="1008" d="M6 148q0 27 18 50.5t45 23.5q16 0 29 -11q102 -91 251 -91q159 0 255 73.5t93 215.5q-3 176 -250 193q-21 2 -35 16.5t-14 35.5q0 26 20.5 45.5t48.5 21.5q133 11 211.5 82t76.5 192q-3 162 -228 162q-153 0 -266 -92q-16 -13 -33 -13q-18 0 -28.5 14.5t-10.5 34.5 q0 46 65.5 93t162.5 76.5t185 29.5q148 0 245 -69t99 -201q3 -142 -93.5 -237.5t-246.5 -119.5v-1q127 -15 200.5 -84t74.5 -185q2 -101 -40.5 -184t-115.5 -136t-168 -82t-201 -29q-82 0 -163 23.5t-134 65t-53 87.5z" />
<glyph unicode="4" horiz-adv-x="1020" d="M21 444q0 63 63 133l586 656q61 67 144 67q34 0 54.5 -24.5t14.5 -58.5l-117 -703h109q24 0 39.5 -16t15.5 -40q0 -30 -23.5 -52.5t-53.5 -22.5h-110l-43 -261l78 -14q18 -4 29 -18t11 -32q0 -24 -17.5 -41t-41.5 -17h-323q-18 0 -30 12.5t-12 30.5q0 23 17.5 41.5 t42.5 23.5l84 14l43 261h-502q-25 0 -41.5 17.5t-16.5 43.5zM181 514h422l97 582z" />
<glyph unicode="5" horiz-adv-x="1016" d="M36 149q0 26 17.5 49.5t43.5 23.5q16 0 27 -11q91 -88 215 -88q65 0 122.5 12.5t107.5 40t85.5 69t55 102.5t18.5 136q-1 108 -62 165.5t-166 57.5q-69 0 -142 -31q-91 -38 -140 -38q-30 0 -48 21.5t-13 51.5l81 477q6 35 35 60t64 25h580q28 0 47.5 -19t19.5 -47 q0 -36 -28 -63t-64 -27h-527l-56 -331q113 55 254 55q162 0 257 -87.5t98 -244.5q4 -240 -155.5 -388t-406.5 -148q-75 0 -149.5 24.5t-122.5 66t-48 86.5z" />
<glyph unicode="6" horiz-adv-x="1083" d="M100 385q-2 136 21.5 265t78 247.5t135 207.5t200.5 142t266 53q97 0 172.5 -38t75.5 -87q0 -23 -17.5 -45t-42.5 -22q-14 0 -28 12q-54 45 -137 45q-197 0 -320.5 -125.5t-169.5 -356.5q149 110 327 110q144 0 231.5 -84.5t90.5 -231.5q2 -144 -63.5 -259.5t-184 -180.5 t-267.5 -65q-361 0 -368 413zM281 340q0 -63 20.5 -119t69.5 -95.5t119 -39.5q136 0 219.5 103t80.5 256q-1 106 -59.5 161.5t-160.5 55.5q-127 0 -253 -81q-36 -150 -36 -241z" />
<glyph unicode="7" horiz-adv-x="917" d="M127 1072l19 115q6 35 35.5 60t64.5 25h664q71 0 71 -68q0 -48 -42 -132.5t-82 -144t-110.5 -156.5t-74.5 -102q-127 -181 -200 -319t-110 -284q-11 -39 -44 -66.5t-72 -27.5q-31 0 -52 20.5t-21 51.5q0 110 116.5 307.5t271.5 387.5q206 256 260 378h-529l-19 -46 q-11 -28 -36.5 -46.5t-54.5 -18.5q-27 0 -43.5 19.5t-11.5 46.5z" />
<glyph unicode="8" horiz-adv-x="1061" d="M55 262q-5 286 352 394q-90 36 -137 104.5t-49 158.5q-1 91 37 165.5t102 120.5t142.5 70.5t162.5 24.5q141 0 235 -66.5t96 -193.5q2 -129 -69 -214t-224 -141q115 -50 172.5 -119t58.5 -170q2 -134 -68.5 -232t-185 -145t-255.5 -47q-163 0 -265.5 76t-104.5 214z M235 288q1 -95 63 -146.5t162 -51.5q124 0 210.5 76.5t84.5 206.5q0 29 -7.5 54.5t-17 44t-29.5 36.5t-34.5 29t-44.5 25.5t-46.5 22t-51.5 21.5q-58 -17 -107 -42t-92 -63t-67 -92.5t-23 -120.5zM392 949q1 -77 50.5 -132t138.5 -80q116 29 179 102.5t63 180.5 q0 79 -47.5 123.5t-129.5 44.5q-110 0 -183 -64t-71 -175z" />
<glyph unicode="9" horiz-adv-x="1083" d="M62 97q0 23 17.5 44.5t42.5 21.5q15 0 28 -11q54 -45 136 -45q197 0 321 125.5t170 356.5q-149 -110 -327 -110q-145 0 -232 84t-90 231q-2 144 63.5 260t184 181t267.5 65q361 0 368 -413q2 -136 -21.5 -265t-78 -247.5t-135 -207.5t-200.5 -142t-266 -53 q-97 0 -172.5 38t-75.5 87zM321 826q1 -106 59.5 -161t160.5 -55q127 0 253 81q36 164 36 241q0 63 -20.5 119t-69.5 95.5t-119 39.5q-136 0 -219.5 -103.5t-80.5 -256.5z" />
<glyph unicode=":" horiz-adv-x="537" d="M79 84q0 56 38.5 93t95.5 37q44 0 70 -26t26 -68q0 -57 -38.5 -94.5t-94.5 -37.5q-44 0 -70.5 26.5t-26.5 69.5zM197 789q0 56 39 93.5t95 37.5q44 0 70 -26.5t26 -68.5q0 -56 -38.5 -93.5t-94.5 -37.5q-44 0 -70.5 26.5t-26.5 68.5z" />
<glyph unicode=";" horiz-adv-x="540" d="M5 -238q0 20 21 35q65 43 99.5 91t45.5 113q-42 0 -67 24.5t-25 64.5q0 54 36.5 89t90.5 35q53 0 80.5 -37t27.5 -93q0 -65 -34 -132.5t-80.5 -114.5t-92.5 -76.5t-71 -29.5q-13 0 -22 9t-9 22zM198 790q0 56 39 93.5t96 37.5q44 0 70.5 -26.5t26.5 -69.5 q0 -56 -39 -93.5t-96 -37.5q-44 0 -70.5 27t-26.5 69z" />
<glyph unicode="&#x3c;" horiz-adv-x="1102" d="M59 519q0 37 23.5 69.5t60.5 47.5l816 335q17 6 32 6q28 0 46.5 -19t18.5 -47q0 -26 -16 -48.5t-43 -33.5l-730 -301l631 -288q36 -16 36 -61q0 -34 -28 -60.5t-64 -26.5q-16 0 -29 6l-704 335q-24 11 -37 34.5t-13 51.5z" />
<glyph unicode="=" horiz-adv-x="1152" d="M88 331q0 36 28.5 63t65.5 27h745q29 0 48 -20t19 -49q0 -36 -28.5 -63t-65.5 -27h-745q-29 0 -48 20t-19 49zM152 716q0 36 29 63.5t65 27.5h745q29 0 48 -20t19 -49q0 -36 -28.5 -63t-64.5 -27h-745q-29 0 -48.5 19.5t-19.5 48.5z" />
<glyph unicode="&#x3e;" horiz-adv-x="1102" d="M41 159q0 25 16.5 47.5t43.5 33.5l730 301l-631 288q-36 17 -36 61q0 35 28 61t63 26q17 0 30 -6l703 -335q51 -23 51 -86q0 -37 -23.5 -69.5t-61.5 -47.5l-815 -335q-15 -6 -32 -6q-29 0 -47.5 19.5t-18.5 47.5z" />
<glyph unicode="?" horiz-adv-x="860" d="M143 1057l14 85q26 158 362 158q156 0 249.5 -72t93.5 -201q0 -94 -42.5 -174.5t-141.5 -160.5l-135 -108q-99 -79 -117 -174l-6 -30q-5 -27 -26.5 -46t-48.5 -19t-43.5 18.5t-12.5 45.5l7 43q11 66 42 116t93 108l56 52q95 89 139 156t44 152q0 180 -205 180 q-61 0 -117 -23l-51 -109q-14 -29 -41 -47t-57 -18q-28 0 -44.5 20t-11.5 48zM191 84q0 56 39 93t95 37q44 0 70.5 -26t26.5 -68q0 -57 -39 -94.5t-96 -37.5q-43 0 -69.5 27t-26.5 69z" />
<glyph unicode="@" horiz-adv-x="1483" d="M76 447q0 162 61.5 317t167 273.5t257.5 190.5t323 72q257 0 408 -144t151 -381q0 -96 -31.5 -196.5t-86.5 -185t-140 -138.5t-183 -54q-77 0 -118 38t-41 108q0 9 5 47h-2q-123 -193 -276 -193q-54 0 -90 32.5t-49.5 78.5t-13.5 103q0 86 33 177.5t90 168.5t143 127 t182 50q54 0 85.5 -17t47.5 -58q25 54 73 54q14 0 23 -9.5t9 -23.5q0 -5 -4 -17q-15 -41 -43.5 -118.5t-38 -107t-24.5 -77t-19.5 -79t-4.5 -62.5q0 -121 100 -121q72 0 130.5 81t86.5 181t28 182q0 199 -117 319t-331 120q-113 0 -218 -40.5t-185.5 -111t-141 -162 t-92.5 -197.5t-32 -213q0 -101 29 -188t83.5 -153t140 -104t192.5 -38q59 0 109 5.5t56 5.5q19 0 31 -12t12 -31q0 -71 -229 -71q-173 0 -298 76.5t-186.5 204.5t-61.5 291zM541 441q0 -57 21.5 -95t69.5 -38q56 0 112 51t98 127t72.5 156.5t42.5 147.5q-26 41 -103 41 q-68 0 -128.5 -39t-99.5 -98.5t-62 -126.5t-23 -126z" />
<glyph unicode="A" horiz-adv-x="1218" d="M-86 43q0 23 17.5 42t42.5 24l62 13l551 1082q22 43 63.5 69.5t87.5 26.5t79 -26.5t40 -69.5l172 -1082l61 -13q39 -10 39 -51q0 -24 -18 -41t-41 -17h-307q-18 0 -30 12.5t-12 30.5q0 23 17 42t42 24l67 13l-52 324h-442l-156 -324l55 -13q39 -10 39 -51q0 -24 -18 -41 t-40 -17h-277q-18 0 -30 12.5t-12 30.5zM409 555h368l-83 600z" />
<glyph unicode="B" horiz-adv-x="1143" d="M7 43q0 23 17 41.5t41 22.5l99 15l172 1028l-93 15q-18 3 -29 17t-11 33q0 23 17.5 40t40.5 17h371q58 0 104.5 -3.5t98.5 -12.5t90.5 -27.5t71.5 -46.5t50 -72t17 -100q0 -140 -89 -236t-233 -120v-1q128 -15 197 -84t69 -181q0 -102 -38.5 -177.5t-111 -121 t-169.5 -67.5t-221 -22h-420q-18 0 -29.5 12.5t-11.5 30.5zM333 115h129q56 0 102 5.5t96 23.5t83.5 47t55.5 80.5t22 119.5q0 107 -75 149.5t-232 46.5q-62 1 -62 47q0 29 20.5 46.5t52.5 18.5q171 5 260 69t89 213q0 98 -68 137t-214 39h-84z" />
<glyph unicode="C" horiz-adv-x="1155" d="M95 480v17q1 161 53 305q56 151 156.5 261t248 173.5t320.5 63.5q33 0 61 -1.5t69 -6t71 -15t58 -26.5t40 -43q8 -18 8 -40q0 -11 -2 -22l-15 -95q-4 -28 -27.5 -47.5t-51.5 -19.5q-30 0 -50.5 17.5t-25.5 46.5l-16 106q-44 25 -119 25q-275 1 -433 -183 q-153 -178 -153 -462v-18q2 -100 33 -177.5t82 -122t109.5 -67t122.5 -22.5q138 0 292 83q14 8 30 8q23 0 36.5 -12t13.5 -33q0 -47 -67 -94.5t-165 -77t-186 -29.5q-69 0 -137 19t-131.5 59.5t-112.5 99t-79.5 144t-32.5 186.5z" />
<glyph unicode="D" horiz-adv-x="1346" d="M10 43q0 23 17.5 42t42.5 23l93 14l172 1028l-88 14q-18 3 -29.5 17.5t-11.5 33.5q0 23 18 40t41 17h421q583 0 583 -495q0 -166 -44.5 -299t-120 -221t-180 -147t-219 -84.5t-241.5 -25.5h-411q-19 0 -31 12.5t-12 30.5zM333 115h151q284 0 438 169.5t154 482.5 q0 201 -105 295.5t-318 94.5h-145z" />
<glyph unicode="E" horiz-adv-x="1105" d="M10 43q0 23 17.5 42t41.5 23l93 14l172 1028l-88 14q-18 3 -29 17.5t-11 33.5q0 23 18 40t41 17h776q35 0 56 -25q16 -19 16 -45q0 -7 -1 -15l-18 -108q-5 -23 -24.5 -40t-42.5 -17q-26 0 -43.5 15t-20.5 40l-11 80h-444l-75 -443h379q23 0 38 -15.5t15 -37.5 q0 -28 -22.5 -49.5t-51.5 -21.5h-378l-80 -475h461l40 91q10 24 33 39.5t48 15.5q24 0 38 -17t10 -40l-20 -119q-6 -35 -35 -60t-64 -25h-792q-18 0 -30 12.5t-12 30.5z" />
<glyph unicode="F" horiz-adv-x="1018" d="M7 43q0 23 17 41.5t41 22.5l99 15l172 1028l-93 15q-18 3 -29 17t-11 33q0 23 17.5 40t40.5 17h742q35 0 57 -25q17 -20 16 -45q0 -7 -1 -15l-18 -107q-5 -24 -24.5 -41t-43.5 -17q-25 0 -43 15.5t-21 40.5l-9 79h-407l-75 -443h342q23 0 37.5 -15.5t14.5 -37.5 q0 -28 -22 -49.5t-51 -21.5h-341l-79 -468l106 -16q18 -3 29 -16.5t11 -31.5q0 -24 -17.5 -41t-40.5 -17h-375q-18 0 -29.5 12.5t-11.5 30.5z" />
<glyph unicode="G" horiz-adv-x="1310" d="M96 468v19q0 241 99 423q103 190 290.5 290t433.5 100q40 0 72.5 -1.5t84 -9.5t84.5 -22.5t56 -44.5q17 -22 17 -51q0 -9 -2 -19l-16 -101q-4 -28 -27.5 -47.5t-51.5 -19.5q-30 0 -51.5 18t-25.5 46l-14 109q-49 23 -128 23q-295 0 -464 -182q-164 -177 -164 -486v-18 q8 -399 434 -399q76 0 154 20l55 330l-97 16q-18 3 -29 16.5t-11 32.5q0 24 17.5 41t40.5 17h351q18 0 30 -12.5t12 -29.5q0 -23 -17 -41.5t-42 -23.5l-86 -16l-53 -316q-27 -157 -434 -157q-235 0 -374.5 129.5t-143.5 366.5z" />
<glyph unicode="H" horiz-adv-x="1400" d="M7 43q0 23 17.5 41.5t41.5 22.5l98 15l172 1028l-93 15q-18 3 -29 17t-11 33q0 23 18 40t41 17h356q18 0 30 -12.5t12 -29.5q0 -23 -17.5 -42.5t-41.5 -23.5l-93 -14l-72 -433h585l72 433l-89 14q-18 3 -29 17.5t-11 33.5q0 23 18 40t41 17h357q18 0 29.5 -12t11.5 -30 q0 -23 -17.5 -42t-40.5 -23l-100 -15l-172 -1028l94 -15q18 -3 29 -17t11 -33q0 -23 -17.5 -40t-40.5 -17h-357q-18 0 -30 12.5t-12 30.5q0 23 17.5 42t41.5 23l94 14l79 472h-585l-79 -472l88 -14q17 -3 28 -17.5t11 -32.5q0 -24 -17.5 -41t-40.5 -17h-356q-18 0 -30 12.5 t-12 30.5z" />
<glyph unicode="I" horiz-adv-x="645" d="M7 43q0 23 17 41.5t42 22.5l99 15l171 1028l-93 15q-18 3 -29 17t-11 33q0 23 18 40t40 17h362q18 0 30 -12t12 -30q0 -23 -17 -42t-42 -23l-98 -15l-171 -1028l92 -15q18 -3 29 -17t11 -33q0 -23 -18 -40t-41 -17h-361q-18 0 -30 12.5t-12 30.5z" />
<glyph unicode="J" horiz-adv-x="895" d="M-36 95q0 7 2 21l18 106q4 28 27.5 47.5t51.5 19.5q30 0 51 -17.5t25 -45.5l15 -107q26 -32 85 -32q51 0 92 26t68.5 65.5t50 102t36 120.5t26.5 135l103 614l-98 15q-18 3 -29 17t-11 33q0 23 18 40t41 17h360q18 0 29.5 -12t11.5 -30q0 -23 -17 -42t-42 -24l-87 -14 l-116 -693q-41 -241 -151 -363t-321 -122q-43 0 -82 5.5t-76 18t-59 38t-22 61.5z" />
<glyph unicode="K" horiz-adv-x="1196" d="M7 43q0 23 17 41.5t42 22.5l98 15l172 1028l-93 15q-18 3 -29 17t-11 33q0 23 18 40t40 17h358q18 0 30 -12t12 -30q0 -23 -17.5 -42.5t-41.5 -23.5l-94 -14l-173 -1028l90 -14q18 -3 29 -17.5t11 -33.5q0 -23 -18 -40t-41 -17h-358q-18 0 -29.5 12.5t-11.5 30.5z M462 647q0 45 38 83l428 425l-49 9q-18 4 -29 18t-11 33q0 23 18 40t41 17h322q18 0 29.5 -12t11.5 -30q0 -23 -17 -42.5t-42 -23.5l-92 -14l-483 -462l352 -566l80 -14q17 -3 28 -17t11 -33q0 -24 -17.5 -41t-41.5 -17h-120q-86 0 -126 68l-318 529q-13 22 -13 50z" />
<glyph unicode="L" horiz-adv-x="1013" d="M11 43q0 23 17.5 42t41.5 23l93 14l172 1028l-88 14q-18 3 -29 17.5t-11 33.5q0 23 18 40t41 17h363q18 0 29.5 -12t11.5 -30q0 -23 -17 -42t-41 -23l-105 -15l-173 -1035h416l35 87q11 28 37 45.5t55 17.5q27 0 43 -19q12 -14 12 -34q0 -6 -1 -12l-19 -115 q-6 -35 -35.5 -60t-64.5 -25h-759q-18 0 -30 12.5t-12 30.5z" />
<glyph unicode="M" horiz-adv-x="1710" d="M7 43q0 23 17.5 41.5t41.5 22.5l98 15l172 1028l-91 15q-18 3 -29.5 17t-11.5 33q0 23 18 40t41 17h270q39 0 67 -21t37 -58l185 -757l446 757q21 36 57 57.5t75 21.5h289q18 0 30 -12t12 -30q0 -23 -17.5 -42t-41.5 -23l-98 -15l-171 -1028l89 -14q18 -3 29 -17.5 t11 -33.5q0 -23 -18 -40t-41 -17h-352q-19 0 -31 12.5t-12 30.5q0 23 18 42t42 23l95 14l173 1037h-1l-502 -834q-20 -32 -52.5 -51.5t-67.5 -19.5t-61 19.5t-34 51.5l-214 823h-1l-172 -1026l89 -14q18 -3 29 -17t11 -33q0 -24 -18 -41t-41 -17h-322q-18 0 -30 12.5 t-12 30.5z" />
<glyph unicode="N" horiz-adv-x="1388" d="M7 43q0 23 17 41.5t42 22.5l99 15l172 1028l-94 15q-18 3 -29 17t-11 33q0 23 18 40.5t41 17.5h220q39 0 69.5 -21t44.5 -56l379 -992l159 946l-95 16q-18 3 -29 16.5t-11 32.5q0 23 18 40.5t41 17.5h323q18 0 29.5 -12.5t11.5 -30.5q0 -23 -17 -41.5t-41 -23.5l-93 -15 l-180 -1081q-5 -34 -33.5 -58t-62.5 -24q-82 0 -111 72l-418 1028l-163 -965l93 -15q18 -3 29 -17t11 -32q0 -24 -18 -41t-41 -17h-328q-18 0 -30 12.5t-12 30.5z" />
<glyph unicode="O" horiz-adv-x="1351" d="M101 471q0 166 50 315.5t140.5 264t228.5 182t303 67.5q220 0 338 -133.5t118 -362.5q0 -132 -31.5 -255.5t-94 -228t-148.5 -182.5t-201.5 -122t-247.5 -44q-219 0 -337 135.5t-118 363.5zM294 474q0 -175 70.5 -276t218.5 -101q118 0 215 59.5t158.5 159t95 224 t33.5 258.5q0 175 -71 275.5t-219 100.5q-118 0 -215 -59.5t-158.5 -158.5t-94.5 -223.5t-33 -258.5z" />
<glyph unicode="P" horiz-adv-x="1073" d="M7 43q0 23 17.5 41.5t41.5 22.5l99 15l171 1025l-92 16q-19 3 -30 17t-11 34q0 24 18 41t42 17h398q74 0 131.5 -6.5t112.5 -25.5t91 -50.5t58 -83.5t22 -122q0 -224 -144.5 -342.5t-439.5 -118.5q-21 0 -34.5 14t-13.5 35q0 26 20.5 45t47.5 20q197 5 286 87t89 239 q0 106 -65.5 150.5t-199.5 44.5h-112l-173 -1036l105 -16q18 -3 29 -16.5t11 -31.5q0 -24 -18 -41t-41 -17h-374q-18 0 -30 12.5t-12 30.5z" />
<glyph unicode="Q" horiz-adv-x="1355" d="M103 471q0 166 50 315.5t140.5 264t228.5 182t303 67.5q220 0 338 -133.5t118 -362.5q0 -143 -38 -273t-94.5 -218t-122 -153.5t-120.5 -96.5t-90 -31q-25 0 -45 17t-20 41q0 36 40 59q145 84 220.5 261t75.5 388q0 175 -70.5 275.5t-219.5 100.5q-119 0 -216 -60 t-158 -159.5t-94 -223.5t-33 -258q0 -174 70.5 -275t218.5 -101q117 0 143 -48q61 -112 138 -161.5t152 -49.5q10 0 41 4t49 4q19 0 32 -12t13 -30q0 -6 -2 -16q-5 -20 -23 -34.5t-39 -21.5t-55 -11t-55 -4.5t-54 -0.5q-79 0 -138 17t-101 54t-69.5 78.5t-57.5 106.5h-3 q-217 0 -334 134q-119 136 -119 365z" />
<glyph unicode="R" horiz-adv-x="1174" d="M7 43q0 23 17 41.5t42 22.5l98 15l172 1028l-93 15q-18 3 -29 17t-11 33q0 23 18 40t41 17h444q359 0 359 -254q0 -156 -100.5 -259t-267.5 -127v-1q31 -2 54.5 -10.5t42.5 -28t31.5 -37t26.5 -53.5t22 -61.5t22 -76.5q13 -47 19 -67t17 -53t17.5 -46.5t17.5 -34t21 -28 t24 -17t30.5 -13t37.5 -5.5q18 -2 29.5 -14t11.5 -30q0 -22 -18 -39t-40 -17h-101q-47 0 -84 17.5t-58 42t-37.5 62t-23.5 67t-15.5 67.5t-13.5 54q-19 60 -31.5 95.5t-32.5 74t-41 58.5t-52 33t-70 13q-21 0 -35 14.5t-14 34.5q0 27 20.5 45t53.5 19q170 5 259.5 74 t89.5 214q0 90 -69.5 131t-205.5 41h-93l-173 -1035l95 -15q18 -3 29 -16.5t11 -32.5q0 -24 -18 -41t-41 -17h-363q-18 0 -30 12.5t-12 30.5z" />
<glyph unicode="S" horiz-adv-x="969" d="M25 139l14 84q4 28 27 47.5t51 19.5q30 0 51.5 -18t25.5 -46l15 -109q56 -27 125 -27q66 0 125.5 13.5t109 41.5t78.5 77q28 47 28 110q-1 54 -29 98q-28 42 -71.5 73t-96.5 60t-106 60.5t-97 68t-72.5 91t-29.5 120.5v8q-1 170 131 278q134 111 342 111q30 0 58 -2 t66.5 -7t68.5 -16t57 -27q26 -16 38 -44q8 -18 7 -40q0 -11 -2 -23l-14 -84q-4 -28 -27.5 -47t-51.5 -19q-31 0 -51.5 17.5t-24.5 45.5l-15 110q-39 19 -120 19q-123 1 -204 -59q-80 -59 -80 -160q0 -52 29 -94q28 -42 72 -72t97.5 -58t107 -59.5t98 -68t73 -91t29.5 -121.5 v-7q1 -123 -65 -219q-68 -99 -182 -150.5t-252 -51.5q-31 0 -57.5 1t-64 5t-67 10.5t-60.5 19t-50 29.5t-29 43q-7 18 -7 38q0 10 2 21z" />
<glyph unicode="T" horiz-adv-x="1122" d="M114 1084l17 103q6 35 35.5 60t64.5 25h887q34 0 56 -25q17 -20 17 -45q0 -7 -1 -15l-18 -103q-4 -27 -26.5 -46t-48.5 -19q-29 0 -48 17.5t-22 45.5l-8 77h-277l-174 -1037l100 -15q18 -3 29 -17t11 -33q0 -23 -18 -40t-41 -17h-376q-18 0 -30 12.5t-12 30.5q0 23 17 41 t42 22l107 16l173 1037h-278l-33 -77q-12 -28 -37.5 -45.5t-53.5 -17.5q-27 0 -43 19q-12 14 -12 34q0 6 1 12z" />
<glyph unicode="U" d="M168 313q0 73 15 160l113 677l-82 14q-18 3 -29 17.5t-11 33.5q0 23 18 40t41 17h343q18 0 30 -12.5t12 -29.5q0 -23 -17.5 -42.5t-41.5 -23.5l-93 -14l-106 -638q-18 -106 -18 -175q0 -121 58 -182.5t199 -61.5q81 0 142 21t99.5 55t66.5 92.5t43 116.5t29 143l106 629 l-85 14q-18 3 -29 17.5t-11 33.5q0 23 18 40t41 17h311q18 0 29.5 -12t11.5 -30q0 -23 -17.5 -42.5t-41.5 -23.5l-90 -14l-110 -652q-17 -103 -42.5 -181t-68.5 -145t-102 -109.5t-143.5 -66.5t-193.5 -24q-208 0 -301 84.5t-93 256.5z" />
<glyph unicode="V" horiz-adv-x="1216" d="M117 1215q0 23 18 40t40 17h323q18 0 29.5 -12t11.5 -30q0 -23 -17 -43t-42 -24l-73 -13l139 -1025l495 1025l-58 13q-17 5 -28 18.5t-11 32.5q0 24 18 41t40 17h287q18 0 30 -12t12 -30q0 -23 -17.5 -42.5t-42.5 -24.5l-70 -13l-567 -1093q-20 -39 -56 -62t-75 -23 q-40 0 -67 23.5t-34 62.5l-175 1092l-70 13q-18 4 -29 18.5t-11 33.5z" />
<glyph unicode="W" horiz-adv-x="1840" d="M123 1214q0 24 18 41t40 17h307q18 0 30.5 -12t12.5 -30q0 -23 -17.5 -42.5t-42.5 -24.5l-71 -13l76 -1015l446 1043q17 41 55.5 67.5t81.5 26.5t71.5 -27t31.5 -68l66 -1047l437 1020l-54 13q-39 10 -39 51q0 24 17.5 41t40.5 17h279q19 0 31 -12t12 -30 q0 -23 -17.5 -42.5t-42.5 -24.5l-68 -13l-498 -1086q-20 -41 -56.5 -66.5t-77.5 -25.5t-68 26t-30 67l-80 1007l-436 -1005q-19 -43 -56 -69t-80 -26t-71 26t-33 69l-113 1083l-63 13q-18 4 -28.5 18t-10.5 33z" />
<glyph unicode="X" horiz-adv-x="1238" d="M-66 43q0 23 17.5 41.5t41.5 23.5l77 15l471 529l-262 498l-73 14q-18 4 -29 18t-11 33q0 23 18 40t41 17h341q18 0 30 -12t12 -30q0 -23 -17.5 -42.5t-42.5 -24.5l-66 -14l192 -371l321 372l-56 12q-39 10 -39 52q0 24 18 41t40 17h298q18 0 30 -12t12 -30 q0 -23 -17 -42t-42 -24l-76 -15l-426 -482l287 -545l73 -14q18 -4 28.5 -17.5t10.5 -32.5q0 -24 -17.5 -41t-40.5 -17h-342q-19 0 -31 12.5t-12 30.5q0 23 17.5 42t42.5 24l69 14l-220 420l-353 -421l62 -13q18 -5 29 -18.5t11 -32.5q0 -24 -18 -41t-41 -17h-315 q-19 0 -31 12.5t-12 30.5z" />
<glyph unicode="Y" horiz-adv-x="1175" d="M111 1215q0 23 18 40t41 17h322q18 0 29.5 -12t11.5 -30q0 -23 -17.5 -42.5t-41.5 -24.5l-68 -13l210 -515l382 515l-65 13q-18 4 -28.5 18.5t-10.5 33.5q0 23 18 40t40 17h295q18 0 30 -12t12 -30q0 -23 -17 -42.5t-42 -24.5l-66 -14l-502 -651l-64 -376l107 -16 q18 -3 29 -16.5t11 -32.5q0 -23 -18 -40t-41 -17h-388q-18 0 -30 12.5t-12 30.5q0 23 17.5 41.5t41.5 21.5l113 16l62 373l-270 655l-70 13q-18 4 -28.5 18.5t-10.5 33.5z" />
<glyph unicode="Z" horiz-adv-x="1092" d="M-4 61q0 67 62 137l851 957h-530l-30 -73q-11 -28 -37 -45.5t-55 -17.5q-27 0 -43 19t-11 46l18 103q6 35 35.5 60t64.5 25h725q25 0 42 -17t17 -43q0 -68 -62 -136l-857 -959h574l34 85q11 28 36.5 45.5t54.5 17.5q27 0 43 -19t12 -46l-19 -115q-6 -35 -35.5 -60 t-64.5 -25h-765q-26 0 -43 17.5t-17 43.5z" />
<glyph unicode="[" horiz-adv-x="552" d="M37 -214l242 1445q6 35 35.5 60t64.5 25h208q20 0 33.5 -13.5t13.5 -33.5q0 -25 -19.5 -43.5t-45.5 -18.5h-152l-234 -1397h152q20 0 33.5 -13.5t13.5 -33.5q0 -25 -20 -43.5t-45 -18.5h-208q-35 0 -56.5 25t-15.5 60z" />
<glyph unicode="\" horiz-adv-x="714" d="M170 1262q0 31 26 54.5t56 23.5q21 0 37.5 -13t20.5 -34l253 -1368q1 -4 1 -13q0 -32 -26 -55.5t-56 -23.5q-22 0 -37 12.5t-20 33.5l-254 1368q-1 5 -1 15z" />
<glyph unicode="]" horiz-adv-x="557" d="M-89 -252q0 25 19 43.5t45 18.5h152l234 1397h-152q-20 0 -33 13.5t-13 33.5q0 25 19 43.5t45 18.5h209q35 0 56 -25t15 -60l-242 -1445q-6 -35 -35.5 -60t-64.5 -25h-208q-20 0 -33 13.5t-13 33.5z" />
<glyph unicode="^" horiz-adv-x="797" d="M147 620q0 17 13 39l346 569q18 29 47 46t61 17t56.5 -17t31.5 -46l156 -571q2 -12 2 -19q0 -33 -27 -58.5t-61 -25.5q-22 0 -38.5 12t-21.5 32l-125 485l-301 -483q-27 -45 -76 -45q-26 0 -44.5 18.5t-18.5 46.5z" />
<glyph unicode="_" horiz-adv-x="1097" d="M-92 -165h1038v-103h-1038v103z" />
<glyph unicode="`" horiz-adv-x="368" d="M235 1287q0 10 8 16.5t19 6.5h89q48 0 67 -42l83 -185q3 -7 3 -15q0 -16 -11 -27t-28 -11q-59 0 -92 48l-133 195q-5 7 -5 14z" />
<glyph unicode="a" horiz-adv-x="974" d="M26 212q0 84 24.5 146t67 101t108.5 63t141.5 33.5t173.5 9.5h100l15 92q6 42 6 74q0 72 -36 105.5t-120 33.5q-69 0 -112 -23l-31 -66q-14 -28 -41.5 -46t-56.5 -18q-28 0 -44 20t-11 48l3 17q9 52 46.5 89t93 54.5t109 25t111.5 7.5q144 0 200 -50.5t56 -150.5 q0 -47 -14 -133l-89 -532l64 -11q17 -3 27.5 -16.5t10.5 -31.5q0 -23 -16.5 -40t-40.5 -19l-152 -17h-7q-24 0 -40 19q-18 22 -12 52l8 53h-1q-124 -124 -292 -124q-116 0 -182.5 63.5t-66.5 171.5zM203 248q0 -67 43.5 -101.5t117.5 -34.5q101 0 210 56l50 300l-140 -7 q-281 -14 -281 -213z" />
<glyph unicode="b" horiz-adv-x="1063" d="M77 121l195 1160l-72 10q-17 3 -28 16t-11 31q0 23 17 41t41 20l168 16h7q23 -1 38 -19q17 -22 12 -51l-81 -487q130 120 301 120q149 0 227.5 -101.5t78.5 -266.5q0 -141 -43 -260.5t-116.5 -200.5t-173.5 -126.5t-212 -45.5q-70 0 -129 6t-114 21q-56 15 -84 45 q-23 24 -22 56q0 8 1 16zM241 131q82 -34 153 -34q189 0 293.5 132t104.5 349q0 127 -56.5 196.5t-173.5 69.5q-120 0 -211 -55z" />
<glyph unicode="c" horiz-adv-x="906" d="M68 341v15q0 168 66 308q70 146 198.5 230t288.5 84q37 0 67 -1.5t71.5 -10t68.5 -22.5q28 -12 44 -40q12 -20 12 -46q0 -9 -2 -20l-8 -54q-4 -28 -27.5 -47.5t-50.5 -19.5q-30 0 -50.5 17.5t-25.5 46.5l-12 69q-39 17 -81 17q-177 0 -281 -133q-100 -128 -100 -329v-16 q2 -127 60.5 -193t160.5 -66q92 0 233 62q12 5 21 5q18 0 29 -13t11 -32q0 -34 -51.5 -75t-135 -70.5t-163.5 -29.5q-164 0 -252 97t-91 267z" />
<glyph unicode="d" horiz-adv-x="1106" d="M69 345q0 177 70 322t194.5 228t277.5 83q100 0 204 -69l62 372l-73 10q-17 2 -28 15.5t-11 31.5q0 23 17 41t41 20l168 16h7q24 -1 39 -19q13 -17 13 -38q0 -6 -1 -13l-207 -1233l76 -11q17 -2 28 -15.5t11 -31.5q0 -23 -17 -41t-41 -20l-163 -16h-7q-23 -1 -39 19 q-18 22 -13 53l9 52q-64 -61 -146 -92.5t-166 -31.5q-146 0 -225.5 98.5t-79.5 269.5zM248 379q0 -267 234 -267q96 0 209 55l110 654q-67 37 -160 37q-179 0 -286 -132t-107 -347z" />
<glyph unicode="e" horiz-adv-x="961" d="M71 334v15q-1 120 29 228q32 114 95.5 204.5t167 143.5t235.5 53q80 0 139 -26.5t92 -73t48.5 -100t16.5 -116.5v-10q0 -171 -100 -171h-533q-10 -67 -10 -124q0 -35 4 -67q11 -80 69 -125t164 -45q104 0 217 55q10 5 24 5q17 0 27.5 -12.5t10.5 -31.5q0 -47 -101 -103 t-236 -56q-177 0 -266.5 91.5t-92.5 265.5zM278 576l438 26q8 45 8 82q0 67 -25 112q-39 70 -142 70q-115 0 -181 -76t-98 -214z" />
<glyph unicode="f" horiz-adv-x="632" d="M6 42q0 23 17 41.5t42 23.5l76 15l122 727h-82q-19 0 -32.5 13.5t-13.5 32.5q0 24 19 42t44 18h83l15 92q62 368 433 368q33 0 55.5 -1t55.5 -6.5t53.5 -16t35.5 -30.5t15 -48q0 -13 -1 -20l-10 -57q-5 -28 -28.5 -48t-51.5 -20q-30 0 -51.5 18t-26.5 47l-15 81 q-20 2 -31 2q-104 0 -175.5 -60.5t-92.5 -185.5l-19 -115h154q19 0 32 -13t13 -33q0 -24 -19.5 -42t-43.5 -18h-153l-122 -728l105 -16q18 -3 29 -16.5t11 -31.5q0 -23 -18 -40t-40 -17h-343q-18 0 -29.5 12t-11.5 30z" />
<glyph unicode="g" horiz-adv-x="1023" d="M-100 -216q0 51 25 96q26 47 62.5 75.5t70.5 45t55 16.5t37 -8t12 -27q-1 -8 -13 -20q-58 -55 -70 -122q-3 -16 -3 -30q0 -66 55 -104q67 -47 193 -47q153 0 257 67.5t104 176.5q0 28 -13.5 48.5t-33 31t-52 16.5t-59 7.5t-65.5 1.5q-36 0 -59 0.5t-62.5 2t-66.5 5 t-61 9.5t-56.5 15.5t-43.5 22.5t-31 32t-10 42q0 55 47 106.5t137 89.5q-70 30 -108 94.5t-40 145.5v8q0 112 58 203q60 93 159 143.5t216 50.5q124 0 212 -65q125 49 233 49q33 0 50 -16.5t17 -41.5q0 -33 -24.5 -57t-57.5 -24h-156q36 -66 36 -146q0 -166 -126 -270.5 t-324 -104.5q-20 0 -50 3q-95 -43 -95 -108q0 -43 57 -52.5t221 -9.5q46 0 79.5 -2t73.5 -7.5t67.5 -18t52.5 -31.5t37.5 -49.5t13.5 -70.5v-6q0 -117 -78 -209q-80 -94 -213.5 -143t-295.5 -49q-102 0 -184 25t-134 78q-53 55 -53 132zM279 597q2 -87 43 -141t116 -54 q109 0 180 73q70 71 70 198v7q-2 89 -44 144t-118 55q-110 0 -180 -75q-67 -73 -67 -200v-7z" />
<glyph unicode="h" horiz-adv-x="1114" d="M-17 42q0 23 17 41t41 23l81 16l194 1159l-71 10q-18 3 -29 16t-11 31q0 23 17 41t40 20l167 16h7q24 -1 39 -19q17 -22 12 -51l-81 -483q138 116 315 116q127 0 185.5 -54.5t58.5 -165.5q0 -46 -9 -102l-90 -534l66 -14q18 -4 28.5 -18t10.5 -33q0 -23 -17.5 -39 t-41.5 -18l-160 -16h-7q-24 0 -39 19q-17 22 -12 52l87 520q12 77 12 116q0 82 -40 118t-135 36q-133 0 -236 -126l-100 -597l67 -14q18 -4 28.5 -18t10.5 -33q0 -23 -17.5 -40t-39.5 -17h-307q-18 0 -29.5 12t-11.5 30z" />
<glyph unicode="i" horiz-adv-x="539" d="M108 55l132 787l-77 13q-17 3 -27.5 16t-10.5 30q0 23 17 40.5t40 19.5l172 17q29 3 46 -18.5t12 -51.5l-131 -786l65 -14q17 -4 28 -18t11 -33q0 -23 -17 -39t-41 -18l-160 -16h-7q-24 0 -40 19q-14 17 -13 39q0 6 1 13zM251 1219q0 56 39 93.5t95 37.5q44 0 70.5 -26 t26.5 -69q0 -56 -39 -93.5t-96 -37.5q-43 0 -69.5 26.5t-26.5 68.5z" />
<glyph unicode="j" horiz-adv-x="510" d="M-304 -361q0 7 2 21l11 67q4 28 27 47.5t51 19.5q30 0 51 -17.5t26 -46.5l12 -85q54 0 92 23t70 89t51 180l151 906l-75 12q-17 3 -27.5 16t-10.5 30q0 23 17 41t40 20l172 16q28 3 45.5 -18.5t12.5 -51.5l-165 -981q-15 -93 -43 -160.5t-72.5 -117.5t-111 -75 t-154.5 -25q-35 0 -59.5 2.5t-53 10.5t-44 27.5t-15.5 49.5zM251 1218q0 56 39 93.5t95 37.5q44 0 70 -26t26 -68q0 -57 -38.5 -94.5t-95.5 -37.5q-43 0 -69.5 26.5t-26.5 68.5z" />
<glyph unicode="k" horiz-adv-x="1023" d="M-17 42q0 23 17.5 41t41.5 23l81 16l194 1159l-72 10q-17 3 -28 16t-11 31q0 23 17 41t40 20l167 16h7q24 -1 39 -19q17 -22 12 -51l-205 -1223l65 -14q17 -4 28.5 -18t11.5 -33q0 -23 -18.5 -40t-40.5 -17h-304q-18 0 -30 12t-12 30zM385 499q0 41 36 74l294 270l-27 7 q-16 4 -26.5 18.5t-10.5 31.5q0 23 17 39t39 16h276q18 0 29 -11.5t11 -29.5q0 -22 -16.5 -39.5t-39.5 -22.5l-85 -14l-342 -303l267 -413l66 -14q17 -4 27.5 -18t10.5 -33q0 -23 -18 -40t-40 -17h-106q-77 0 -113 61l-238 395q-11 19 -11 43z" />
<glyph unicode="l" horiz-adv-x="522" d="M84 55l205 1226l-71 10q-18 3 -29 16t-11 31q0 23 17 41t41 20l166 16h7q24 -1 39 -19q13 -17 13 -38q0 -6 -1 -13l-204 -1223l65 -14q18 -4 29 -18t11 -33q0 -23 -17.5 -39t-41.5 -18l-159 -16h-7q-24 0 -40 19q-14 17 -13 39q0 6 1 13z" />
<glyph unicode="m" horiz-adv-x="1663" d="M1 42q0 23 17.5 41.5t41.5 23.5l79 15l122 722l-77 10q-17 2 -28 15.5t-11 31.5q0 23 17 41t41 20l165 16h7q25 0 41 -19q18 -22 12 -52l-8 -47q146 118 308 118q166 0 215 -128q170 128 330 128q125 0 183.5 -55.5t58.5 -167.5q0 -46 -9 -100l-89 -533l64 -14 q17 -4 28 -18t11 -33q0 -23 -17 -39t-41 -18l-160 -16h-7q-24 0 -39 19q-17 22 -12 52l86 518q11 64 11 108q0 86 -38 125t-123 39q-58 0 -118.5 -35t-101.5 -85l-101 -603l61 -14q39 -10 39 -51q0 -23 -18 -40t-40 -17h-293q-18 0 -29.5 12t-11.5 30q0 23 17.5 42t41.5 24 l71 14l75 451q11 64 11 108q0 86 -38 125t-123 39q-59 0 -120.5 -36.5t-100.5 -89.5l-99 -597l65 -14q18 -4 28.5 -18t10.5 -33q0 -23 -18 -40t-40 -17h-305q-18 0 -30 12t-12 30z" />
<glyph unicode="n" horiz-adv-x="1133" d="M2 42q0 23 16.5 41.5t41.5 23.5l79 15l122 722l-76 10q-17 2 -28 15.5t-11 31.5q0 23 17 41t40 20l166 16h7q25 0 40 -18q17 -22 12 -53l-8 -46q141 117 316 117q129 0 189 -54.5t60 -166.5q0 -45 -9 -101l-89 -534l64 -14q18 -4 29 -18t11 -33q0 -23 -17.5 -39 t-41.5 -18l-161 -16h-7q-24 0 -39 19q-17 22 -12 52l87 520q12 77 12 116q0 82 -39.5 118t-134.5 36q-134 0 -237 -126l-99 -597l65 -14q17 -4 28 -18t11 -33q0 -24 -17.5 -40.5t-40.5 -16.5h-304q-19 0 -30.5 12t-11.5 30z" />
<glyph unicode="o" horiz-adv-x="1064" d="M70 356q0 176 69.5 317.5t196.5 223t288 81.5q165 0 255.5 -101t90.5 -277t-68.5 -317.5t-195.5 -223.5t-289 -82q-165 0 -256 102t-91 277zM248 348q0 -255 197 -255q109 0 188 67.5t118 183t39 266.5q0 251 -200 251q-61 0 -112.5 -21.5t-86 -56t-61 -82t-42 -94.5 t-25 -98t-12.5 -89t-3 -72z" />
<glyph unicode="p" horiz-adv-x="1104" d="M-91 -385q0 23 17.5 41t41.5 23l80 14l193 1151l-77 10q-18 2 -28.5 15.5t-10.5 31.5q0 23 17 41t40 20l165 16h7q24 0 40 -19q17 -22 12 -52l-8 -50q141 121 310 121q148 0 225.5 -101.5t77.5 -266.5q0 -141 -43 -260.5t-117 -200.5t-173 -126.5t-211 -45.5 q-107 0 -200 65l-59 -349l88 -14q18 -3 28.5 -17t10.5 -33q0 -24 -17.5 -40.5t-40.5 -16.5h-326q-18 0 -30 12.5t-12 30.5zM283 141q74 -44 154 -44q188 0 292.5 132t104.5 349q0 131 -58 199t-171 68q-46 0 -108.5 -14t-104.5 -41z" />
<glyph unicode="q" horiz-adv-x="1063" d="M69 342q0 176 69 321t195.5 230t284.5 85q69 0 127 -6t112.5 -21t82.5 -45q22 -24 22 -56q0 -8 -1 -16l-190 -1141l72 -14q18 -4 29 -17.5t11 -32.5q0 -23 -18 -40t-41 -17h-312q-18 0 -29.5 12.5t-11.5 30.5q0 23 17.5 41t41.5 23l80 14l65 388q-136 -104 -301 -104 q-146 0 -225.5 97.5t-79.5 267.5zM248 374q0 -263 233 -263q103 0 208 53l110 657q-81 35 -158 35q-179 0 -286 -133.5t-107 -348.5z" />
<glyph unicode="r" horiz-adv-x="817" d="M1 42q0 23 17 41.5t42 23.5l79 15l121 722l-76 10q-18 3 -28.5 16t-10.5 31q0 23 17 41t41 20l165 16h7q24 0 39 -19q17 -22 12 -52l-11 -68q145 139 312 139q103 0 103 -74q0 -5 -2 -23l-14 -85q-5 -26 -26 -44t-46 -18q-62 0 -86 54l-18 40q-76 0 -138.5 -30t-98.5 -75 l-101 -601l102 -17q39 -7 39 -48q0 -23 -18 -40t-40 -17h-340q-19 0 -30.5 12t-11.5 30z" />
<glyph unicode="s" horiz-adv-x="824" d="M29 113l10 58q4 28 27 47.5t51 19.5q29 0 50.5 -17.5t26.5 -45.5l10 -74q29 -14 92 -14q105 0 171 43q65 42 65 124q0 36 -24 66q-23 30 -59.5 51.5t-80.5 43t-88 45.5t-80.5 52t-59.5 69.5t-24 91.5v5q0 134 102 216q104 84 274 84q29 0 50.5 -1t58.5 -4.5t62.5 -12.5 t50.5 -22q26 -14 36 -38q7 -16 7 -36q0 -9 -2 -19l-10 -61q-4 -28 -27 -47.5t-51 -19.5q-29 0 -51 18t-26 46l-10 69q-29 18 -94 18q-86 0 -143 -37t-57 -105q0 -40 42.5 -75t103 -65t121.5 -64t104.5 -88t44.5 -122v-8q0 -140 -107 -232q-110 -96 -285 -95q-30 0 -53.5 1 t-62 4.5t-66.5 13t-54 23.5t-38 38q-8 17 -9 37q0 9 2 19z" />
<glyph unicode="t" horiz-adv-x="707" d="M103 889q0 22 15 41t39 30l109 45l74 145q25 48 76 48q21 0 33.5 -15t8.5 -36l-32 -192h244q19 0 32 -13.5t13 -32.5q0 -24 -19 -42t-44 -18h-244l-86 -517q-15 -88 -15 -119q0 -49 24.5 -73t86.5 -24q69 0 125 46q11 10 28 10q29 0 29 -40q0 -48 -89 -101.5t-185 -53.5 q-106 0 -147.5 42.5t-41.5 127.5q0 44 17 152l92 550h-103q-17 0 -28.5 11.5t-11.5 28.5z" />
<glyph unicode="u" horiz-adv-x="1109" d="M120 902q0 22 17.5 40t40.5 20l162 16h7q24 0 39 -18q17 -21 12 -51l-88 -527q-12 -77 -12 -116q0 -82 40 -117.5t137 -35.5q130 0 233 127l101 602l-76 13q-17 3 -28 16t-11 30q0 23 17 41t41 20l172 16h7q23 0 39 -18q14 -17 14 -39q0 -6 -1 -13l-134 -796l67 -11 q17 -3 27.5 -16.5t10.5 -31.5q0 -22 -17 -39.5t-41 -19.5l-157 -17h-7q-24 0 -40 19q-18 22 -12 52l9 55q-142 -126 -318 -126q-127 0 -186.5 54.5t-59.5 165.5q0 39 10 101l91 545l-67 12q-39 7 -39 47z" />
<glyph unicode="v" horiz-adv-x="1021" d="M63 898q0 23 18 40t41 17h292q19 0 30.5 -12t11.5 -30q0 -23 -17 -42t-41 -24l-67 -13l103 -704l353 704l-56 13q-39 10 -39 51q0 23 18 40t40 17h270q18 0 30 -12t12 -30q0 -23 -17.5 -42t-41.5 -24l-66 -13l-418 -778q-19 -37 -52.5 -58t-70.5 -21t-63 21.5t-33 58.5 l-141 777l-57 13q-17 5 -28 18.5t-11 32.5z" />
<glyph unicode="w" horiz-adv-x="1593" d="M65 898q0 23 18.5 40t40.5 17h286q19 0 30.5 -12t11.5 -30q0 -23 -17.5 -42t-41.5 -24l-64 -13l64 -715l341 752q17 37 53.5 60.5t75.5 23.5t64.5 -23t29.5 -61l77 -752l326 715l-46 11q-18 4 -28.5 19t-10.5 34q0 24 17.5 40.5t40.5 16.5h258q19 0 30.5 -12t11.5 -30 q0 -23 -17 -42t-41 -24l-65 -13l-384 -772q-19 -39 -53.5 -62t-73.5 -23t-65.5 23.5t-30.5 62.5l-81 725l-335 -725q-17 -39 -51 -62.5t-73 -23.5t-66 23.5t-32 62.5l-100 771l-61 13q-18 4 -28.5 18t-10.5 33z" />
<glyph unicode="x" horiz-adv-x="1058" d="M-44 42q0 23 17.5 42t41.5 24l67 14l346 363l-202 349l-55 13q-17 5 -28 18.5t-11 32.5q0 24 17.5 40.5t40.5 16.5h273q19 0 30.5 -12t11.5 -30q0 -23 -17 -43t-42 -25l-34 -7l143 -246l221 246l-15 6q-39 15 -39 54q0 24 18 40.5t41 16.5h232q18 0 30 -12t12 -30 q0 -22 -17 -41.5t-42 -24.5l-60 -13l-323 -333l220 -379l59 -14q38 -10 38 -51q0 -23 -17.5 -40t-39.5 -17h-290q-19 0 -30.5 12t-11.5 30q0 23 17 43t42 24l46 8l-154 279l-254 -279l31 -8q18 -4 28 -18.5t10 -32.5q0 -24 -18 -41t-40 -17h-251q-18 0 -30 12t-12 30z" />
<glyph unicode="y" horiz-adv-x="1014" d="M-95 -361q0 17 2 26l11 62q4 28 27 47.5t51 19.5q30 0 50.5 -18t25.5 -47l11 -72q83 0 234 293l26 49l-175 835l-67 14q-17 4 -27.5 17.5t-10.5 32.5q0 24 17.5 40.5t40.5 16.5h296q18 0 29.5 -12t11.5 -30q0 -22 -17 -41.5t-42 -24.5l-63 -13l122 -617l329 617l-50 13 q-39 10 -39 51q0 23 18 40t40 17h256q18 0 30 -12t12 -30q0 -22 -17 -41.5t-42 -24.5l-64 -13l-572 -1047q-57 -103 -140.5 -170.5t-181.5 -67.5q-132 0 -132 90z" />
<glyph unicode="z" horiz-adv-x="921" d="M-3 53q0 61 55 120l621 676h-347l-22 -47q-13 -29 -40.5 -46.5t-57.5 -17.5q-28 0 -44.5 19.5t-11.5 46.5l12 74q5 32 32 54.5t59 22.5h576q22 0 36 -14.5t14 -36.5q0 -59 -53 -116l-632 -680h389l34 69q14 28 40.5 46t56.5 18q28 0 44.5 -19.5t11.5 -46.5l-17 -98 q-5 -32 -31 -54.5t-58 -22.5h-615q-23 0 -37.5 15.5t-14.5 37.5z" />
<glyph unicode="{" horiz-adv-x="583" d="M47 503q0 23 18 40.5t43 24.5q53 16 86.5 62t44.5 109l54 324q15 91 61 149.5t105 81t133 22.5h18q19 0 31 -12t12 -31q0 -24 -18.5 -41t-42.5 -17h-12q-120 0 -147 -160l-53 -316q-18 -104 -72 -160t-115 -69v-1q46 -10 80.5 -51.5t34.5 -117.5q0 -36 -4 -58l-53 -319 q-5 -30 -5 -51q0 -109 98 -109h12q18 0 30.5 -13t12.5 -31q0 -24 -18 -41t-42 -17h-17q-100 0 -159.5 45t-59.5 147q0 29 6 67l54 322q4 30 4 44q0 102 -79 127q-18 5 -29.5 19t-11.5 31z" />
<glyph unicode="|" horiz-adv-x="556" d="M189 -356v1677q0 29 21 50t51 21q29 0 50 -21t21 -50v-1677q0 -30 -21 -51t-50 -21q-30 0 -51 21t-21 51z" />
<glyph unicode="}" horiz-adv-x="589" d="M-77 -255q0 23 18.5 40.5t41.5 17.5h13q62 0 98.5 43.5t48.5 116.5l53 319q18 104 72.5 159.5t114.5 67.5v1q-47 11 -81 52.5t-34 117.5q0 32 5 59l53 316q5 30 5 51q0 109 -99 109h-12q-19 0 -31 12t-12 31q0 24 18 41t42 17h17q100 0 160 -45t60 -145q0 -28 -6 -63 l-54 -324q-4 -30 -4 -44q0 -101 78 -127q42 -13 42 -51q0 -22 -18 -39.5t-43 -24.5q-53 -16 -87 -62t-45 -109l-54 -322q-12 -71 -40.5 -123t-70 -81t-88 -42t-101.5 -13h-17q-19 0 -31 12.5t-12 31.5z" />
<glyph unicode="~" horiz-adv-x="1137" d="M108 482q0 74 50.5 135.5t114 91.5t116.5 30q60 0 109.5 -16.5t81.5 -40.5t59.5 -47.5t57 -40t61.5 -16.5q70 0 113 79q19 33 49 54t63 21q25 0 41.5 -16t16.5 -39q0 -74 -50.5 -135.5t-114.5 -92t-117 -30.5q-60 0 -109.5 16.5t-81 40.5t-59 48t-57.5 40.5t-62 16.5 q-69 0 -112 -79q-19 -33 -49 -54.5t-63 -21.5q-25 0 -41.5 16t-16.5 40z" />
<glyph unicode="&#xa1;" horiz-adv-x="500" d="M22 -242q0 19 16 88l168 760q5 22 24.5 38t41.5 16q23 0 36.5 -16t11.5 -38l-85 -760q-10 -89 -26 -119q-29 -51 -101 -52q-86 0 -86 83zM193 855q0 57 38.5 94t95.5 37q43 0 69.5 -26t26.5 -68q0 -56 -39 -94t-95 -38q-45 0 -70.5 26t-25.5 69z" />
<glyph unicode="&#xa2;" horiz-adv-x="893" d="M73 500q-5 248 131.5 425.5t353.5 205.5l25 146q3 17 16.5 28t29.5 11q17 0 26.5 -11.5t6.5 -27.5l-24 -141q47 0 85 -5t82.5 -18t66.5 -43t15 -75l-8 -53q-4 -28 -27 -47.5t-51 -19.5q-31 0 -51.5 17t-25.5 46l-10 71q-46 19 -94 15l-124 -735q79 6 209 61q12 5 21 5 q18 0 29.5 -13t11.5 -32q0 -47 -92.5 -101.5t-203.5 -69.5l-24 -145q-3 -17 -16.5 -28t-29.5 -11q-17 0 -27 11.5t-7 27.5l24 142q-153 7 -234 103.5t-84 260.5zM251 546q1 -109 45 -174t121 -79l121 720q-137 -37 -213.5 -164t-73.5 -303z" />
<glyph unicode="&#xa3;" horiz-adv-x="1032" d="M-1 42q0 40 54 83q32 24 54.5 56t37 76.5t22 77.5t17.5 93l32 190h-67q-19 0 -32 13.5t-13 32.5q0 24 19.5 42t43.5 18h66l21 120q20 117 51 197t86 141t140.5 89.5t206.5 28.5q32 0 54.5 -1t60.5 -4t64.5 -11t53.5 -20.5t41 -34.5t14 -50q0 -7 -2 -21l-16 -94 q-4 -28 -27.5 -47.5t-50.5 -19.5q-30 0 -51.5 18t-25.5 46l-15 109q-43 16 -101 16q-258 0 -307 -293l-29 -169h214q19 0 32 -13.5t13 -32.5q0 -24 -19.5 -42t-43.5 -18h-214l-30 -181q-34 -211 -132 -304h502l27 69q11 28 37 45.5t55 17.5q27 0 43 -19t11 -46l-19 -115 q-6 -35 -35.5 -60t-64.5 -25h-736q-18 0 -30 12t-12 30z" />
<glyph unicode="&#xa4;" horiz-adv-x="1148" d="M152 252q0 28 22 50l81 80q-71 103 -71 226q0 127 72 231l-83 82q-21 21 -21 50q0 27 20.5 48t49.5 21q28 0 49 -21l82 -82q105 73 230 73q127 0 231 -71l80 80q21 21 50 21q28 0 49 -20t21 -49q0 -30 -20 -50l-82 -80q75 -105 75 -233q0 -124 -75 -228l81 -77 q21 -21 21 -51q0 -28 -20.5 -49t-49.5 -21t-50 21l-80 81q-108 -73 -231 -73q-127 0 -232 73l-80 -81q-21 -21 -49 -21t-49 20.5t-21 49.5zM327 609q0 -103 74.5 -179t181.5 -76q103 0 181 74.5t78 180.5t-75.5 182.5t-183.5 76.5q-105 0 -180.5 -75.5t-75.5 -183.5z" />
<glyph unicode="&#xa5;" horiz-adv-x="1180" d="M139 349q0 24 20 43t45 19h267l14 84l-10 30h-252q-20 0 -33.5 14t-13.5 34q0 25 20 43.5t45 18.5h200l-163 515l-74 13q-18 3 -28.5 18t-10.5 34q0 23 18 40t41 17h323q18 0 30 -12t12 -30q0 -23 -17.5 -42.5t-41.5 -24.5l-78 -13l161 -515l332 515l-77 13 q-18 3 -29 17.5t-11 33.5q0 24 18 41t41 17h296q18 0 30 -12t12 -30q0 -23 -17 -43t-42 -24l-71 -13l-347 -515h204q20 0 33 -14t13 -34q0 -24 -20 -43t-45 -19h-260l-17 -26l-15 -88h273q20 0 33.5 -13.5t13.5 -33.5q0 -25 -20 -44t-45 -19h-273l-30 -179l107 -16 q18 -3 29 -16.5t11 -32.5q0 -23 -18 -40t-40 -17h-388q-19 0 -31 12.5t-12 30.5q0 23 17.5 41t42.5 22l112 16l29 179h-266q-21 0 -34 14t-13 34z" />
<glyph unicode="&#xa6;" horiz-adv-x="489" d="M188 234q0 29 21.5 50t50.5 21q30 0 51 -21t21 -50v-486q0 -30 -21 -51t-51 -21q-29 0 -50.5 21t-21.5 51v486zM188 731v486q0 29 21.5 50t50.5 21q30 0 51 -21t21 -50v-486q0 -30 -21 -51t-51 -21q-29 0 -50.5 21t-21.5 51z" />
<glyph unicode="&#xa7;" horiz-adv-x="931" d="M18 -182q0 7 2 19l10 56q4 28 27 47.5t51 19.5q30 0 51 -17.5t26 -46.5l10 -69q53 -16 113 -16q106 0 165.5 46.5t59.5 123.5q0 28 -14 53.5t-43 49.5t-55.5 41t-68.5 40q-75 41 -118.5 69.5t-87 67.5t-63 83t-19.5 97q0 221 273 321q-106 79 -106 197q0 147 106.5 231.5 t283.5 84.5q258 0 258 -116q0 -4 -2 -18l-9 -59q-4 -28 -27 -47.5t-51 -19.5q-30 0 -51.5 17.5t-25.5 45.5l-10 66q-41 18 -93 18q-93 0 -153.5 -42.5t-60.5 -119.5q0 -55 39 -91t133 -84q77 -39 125 -69.5t88 -68t58 -80.5t18 -96q0 -114 -75 -201t-195 -128 q50 -31 77.5 -87.5t27.5 -121.5q0 -150 -115 -232t-289 -82q-270 0 -270 118zM229 526q0 -79 74 -129q31 -22 101.5 -62t84.5 -49q35 15 58 26.5t53 31.5t48 41t30.5 51.5t12.5 66.5q0 80 -68 126q-29 19 -93.5 56.5t-99.5 59.5q-201 -87 -201 -219z" />
<glyph unicode="&#xa8;" horiz-adv-x="694" d="M273 1145q0 43 34 74t78 31q35 0 55.5 -22t20.5 -56q0 -44 -31 -75.5t-75 -31.5q-35 0 -58.5 23t-23.5 57zM617 1145q0 43 33.5 74t77.5 31q35 0 56.5 -22.5t21.5 -56.5q0 -44 -32.5 -75t-76.5 -31q-35 0 -57.5 23t-22.5 57z" />
<glyph unicode="&#xa9;" horiz-adv-x="1486" d="M93 638q0 181 88.5 333t241 240.5t333.5 88.5t333.5 -88.5t241.5 -241t89 -332.5q0 -181 -89 -334t-242 -242.5t-333 -89.5t-333 89.5t-241.5 242.5t-88.5 334zM202 638q0 -118 43 -223t116.5 -179.5t176.5 -118t218 -43.5t218 43.5t177 118t117 179.5t43 223 q0 117 -43 220.5t-117 178t-177 118t-218 43.5q-154 0 -281 -73.5t-200 -202t-73 -284.5zM418 638q0 105 38.5 194.5t119.5 148t190 58.5q67 0 127.5 -22t98 -54t59.5 -64.5t22 -56.5q0 -19 -14.5 -32t-36.5 -13q-26 0 -44.5 14.5t-33.5 35.5t-34 41.5t-55.5 35t-88.5 14.5 q-95 0 -153 -80t-58 -220t56 -218t155 -78q42 0 74.5 11.5t50.5 29t34 37.5t27.5 37.5t29.5 29t40 11.5t38 -14.5t16 -33.5q0 -25 -21 -60.5t-58 -71t-98.5 -60.5t-132.5 -25q-168 0 -258 113t-90 292z" />
<glyph unicode="&#xaa;" horiz-adv-x="734" d="M125 756q0 68 23.5 115t70.5 72t106 35.5t141 10.5h60l9 57q4 24 4 47q0 46 -22.5 67t-74.5 21q-39 0 -67 -13l-20 -43q-9 -19 -28.5 -31.5t-40.5 -12.5q-20 0 -32.5 14t-9.5 34l2 11q8 46 51 74t89.5 36t100.5 8q96 0 134 -34t38 -100q0 -40 -9 -87l-58 -348l41 -7 q11 -1 18 -10t7 -21q0 -15 -11 -26t-26 -13l-110 -11q-19 -1 -30 13t-8 34l4 25q-77 -72 -185 -72q-78 0 -122.5 41.5t-44.5 113.5zM251 780q0 -42 27 -64t73 -22q62 0 131 35l32 190l-86 -4q-80 -4 -128.5 -36.5t-48.5 -98.5z" />
<glyph unicode="&#xab;" horiz-adv-x="921" d="M66 484q0 35 27 65l219 250q59 67 139 67q18 0 28.5 -10t10.5 -26q0 -17 -13 -34l-244 -312l143 -287q5 -12 5 -21q0 -20 -15 -34t-38 -14q-81 0 -118 67l-134 249q-10 20 -10 40zM437 484q0 35 27 65l218 250q59 67 140 67q18 0 28.5 -10t10.5 -26q0 -17 -13 -33 l-244 -313l143 -287q5 -9 5 -22q0 -19 -15.5 -33t-38.5 -14q-81 0 -117 66l-135 250q-9 15 -9 40z" />
<glyph unicode="&#xac;" horiz-adv-x="1104" d="M93 629q0 36 29 63.5t65 27.5h767q23 0 37.5 -17.5t10.5 -40.5l-69 -406q-6 -35 -35 -60t-64 -25t-56 25t-15 60l51 305h-654q-29 0 -48 19.5t-19 48.5z" />
<glyph unicode="&#xad;" horiz-adv-x="721" d="M93 473q0 33 27 59t61 26h362q27 0 45 -19t18 -46q0 -33 -26.5 -58.5t-60.5 -25.5h-363q-27 0 -45 18.5t-18 45.5z" />
<glyph unicode="&#xae;" horiz-adv-x="924" d="M135 909q0 155 110.5 264t267.5 109t267.5 -109t110.5 -264t-110.5 -265.5t-267.5 -110.5t-267.5 110.5t-110.5 265.5zM222 909q0 -127 84 -213t207 -86t207 86.5t84 212.5t-84 211.5t-207 85.5t-207 -85.5t-84 -211.5zM363 743v351q0 16 11.5 26.5t28.5 10.5h119 q174 0 174 -127q0 -94 -85 -119l68 -137q4 -8 4 -16q0 -14 -11 -24t-27 -10q-46 0 -66 40l-65 134h-55v-129q0 -19 -14.5 -32t-34.5 -13t-33.5 13t-13.5 32zM459 945h51q92 0 92 59q0 30 -22 42.5t-72 12.5h-49v-114z" />
<glyph unicode="&#xaf;" horiz-adv-x="691" d="M278 1145q0 26 19.5 45.5t45.5 19.5h408q21 0 34.5 -14t13.5 -35q0 -26 -20.5 -45t-46.5 -19h-407q-21 0 -34 14t-13 34z" />
<glyph unicode="&#xb0;" horiz-adv-x="704" d="M155 1028q0 110 79 188.5t189 78.5t188.5 -78.5t78.5 -188.5t-78.5 -188.5t-188.5 -78.5t-189 78.5t-79 188.5zM259 1028q0 -69 47.5 -116.5t116.5 -47.5t116.5 47.5t47.5 116.5t-47.5 116.5t-116.5 47.5t-116.5 -47.5t-47.5 -116.5z" />
<glyph unicode="&#xb1;" horiz-adv-x="1081" d="M15 76q0 36 28.5 63t65.5 27h744q29 0 48 -20t19 -49q0 -36 -28.5 -63t-65.5 -27h-744q-29 0 -48 20t-19 49zM112 657q0 36 28.5 63t64.5 27h289l39 231q6 35 35 59.5t63 24.5q35 0 55.5 -25t14.5 -59l-39 -231h289q29 0 48 -20t19 -49q0 -36 -28.5 -62t-64.5 -26h-289 l-39 -236q-6 -34 -35 -59t-64 -25q-34 0 -54.5 24.5t-15.5 59.5l40 236h-289q-29 0 -48 19.5t-19 47.5z" />
<glyph unicode="&#xb2;" horiz-adv-x="637" d="M111 796q0 29 13.5 57t41 56t51 48t63 50.5t57.5 45.5q111 94 152.5 149t41.5 100q0 84 -114 84q-77 0 -136 -48q-10 -10 -27 -10q-16 0 -24.5 11t-8.5 26q0 43 78.5 81.5t160.5 38.5q88 0 146 -41t58 -122q0 -75 -49.5 -141t-170.5 -162q-154 -122 -190 -159h236l6 14 q8 20 25.5 32.5t38.5 12.5q20 0 33 -14t10 -33l-9 -63q-4 -24 -24.5 -41t-45.5 -17h-364q-21 0 -35 13t-14 32z" />
<glyph unicode="&#xb3;" horiz-adv-x="643" d="M123 845q0 19 14 35t35 16q17 0 24 -7q56 -48 130 -48q79 0 126 36t47 108q0 90 -127 99q-17 1 -28 12t-11 26q0 19 15.5 33t35.5 16q65 5 103 40t38 95q0 83 -115 83q-75 0 -134 -48q-13 -10 -28 -10q-16 0 -25 11t-9 26q0 28 38 56.5t94.5 46t107.5 17.5 q87 0 145 -40.5t58 -118.5q0 -70 -40 -120t-107 -73v-2q55 -15 86 -54t31 -96q0 -115 -86 -180t-213 -65q-75 0 -140 32t-65 74z" />
<glyph unicode="&#xb4;" horiz-adv-x="368" d="M214 1059q0 11 10 24l144 185q34 42 82 42h96q21 0 21 -18q0 -9 -10 -19l-199 -195q-48 -48 -112 -48q-14 0 -23 8.5t-9 20.5z" />
<glyph unicode="&#xb5;" horiz-adv-x="1118" d="M-23 -375l213 1278q5 31 31 53t58 22t50 -22t13 -53l-88 -525q-6 -33 -6 -63q0 -88 46.5 -139.5t138.5 -51.5q136 0 229.5 118t125.5 315l57 345q5 31 31.5 53.5t58.5 22.5q31 0 49.5 -22t13.5 -54l-90 -540q-19 -110 -19 -154q0 -55 21 -84q36 -46 36 -82 q0 -26 -18.5 -45.5t-41.5 -19.5q-43 0 -73.5 22.5t-45 60.5t-20.5 73.5t-7 76.5h-1q-61 -112 -147 -172.5t-183 -60.5q-130 0 -206 106l-76 -458q-5 -32 -31 -54t-57 -22t-49 22t-13 54z" />
<glyph unicode="&#xb6;" horiz-adv-x="1204" d="M113 847q0 202 141 314t383 112h526q21 0 35.5 -15t14.5 -36q0 -27 -21 -47t-48 -20h-50l-228 -1365q-4 -29 -29 -49.5t-54 -20.5t-46.5 20.5t-12.5 49.5l229 1365h-231l-229 -1364q-5 -29 -29 -50t-53 -21t-46 21t-12 50l123 737q-163 0 -263 91t-100 228z" />
<glyph unicode="&#xb7;" horiz-adv-x="486" d="M123 504q0 56 39 93.5t95 37.5q44 0 70 -26.5t26 -69.5q0 -56 -39 -93.5t-95 -37.5q-44 0 -70 26.5t-26 69.5z" />
<glyph unicode="&#xb8;" horiz-adv-x="414" d="M-17 -331q0 19 14.5 33.5t34.5 14.5q7 0 15 -2q33 -11 65 -11q38 0 66 15.5t28 49.5q0 30 -29.5 48t-71.5 24q-20 3 -20 21q0 6 7 17l92 121h99l-83 -102q51 -1 89 -30.5t38 -79.5q0 -84 -66 -126t-160 -42q-118 0 -118 49z" />
<glyph unicode="&#xb9;" horiz-adv-x="456" d="M135 785q0 16 14 29.5t32 16.5l43 7l87 516q-59 -18 -88 -18q-14 0 -25.5 8.5t-11.5 25.5q0 18 14.5 34t33.5 21q62 19 103 40q38 20 72 20q19 0 30 -12.5t8 -30.5l-101 -604l39 -7q14 -2 23 -12t9 -24q0 -18 -14.5 -31t-33.5 -13h-199q-15 0 -25 10t-10 24z" />
<glyph unicode="&#xba;" horiz-adv-x="762" d="M140 850q0 176 102.5 292t264.5 116q110 0 170 -67t60 -183q0 -176 -101.5 -291.5t-264.5 -115.5q-110 0 -170.5 67t-60.5 182zM267 844q0 -162 124 -162q100 0 159 94t59 240q0 159 -125 159q-54 0 -96 -29t-64 -69t-36 -90.5t-17.5 -84t-3.5 -58.5z" />
<glyph unicode="&#xbb;" horiz-adv-x="921" d="M35 164q0 16 14 33l243 312l-143 288q-5 12 -5 21q0 19 15.5 33.5t38.5 14.5q81 0 118 -67l134 -250q10 -18 10 -40q0 -33 -27 -65l-219 -250q-58 -66 -139 -66q-18 0 -29 10.5t-11 25.5zM406 164q0 17 13 33l244 312l-143 287q-5 12 -5 22q0 19 15.5 33.5t38.5 14.5 q80 0 117 -67l135 -250q9 -16 9 -40q0 -33 -27 -65l-218 -249q-59 -67 -140 -67q-18 0 -28.5 10t-10.5 26z" />
<glyph unicode="&#xbc;" horiz-adv-x="1253" d="M105 -18q0 19 12 35l947 1295q20 28 54 28q19 0 32.5 -14t13.5 -34q0 -18 -12 -34l-947 -1296q-22 -28 -53 -28q-20 0 -33.5 13.5t-13.5 34.5zM113 580q0 16 13.5 30t32.5 17l44 6l86 516q-56 -17 -88 -17q-13 0 -25 9t-12 25q0 18 14.5 33t33.5 21q57 17 103 41 q37 20 71 20q19 0 30.5 -13t8.5 -31l-101 -604l39 -6q14 -2 23 -12.5t9 -24.5q0 -17 -14 -30t-33 -13h-200q-15 0 -25 9.5t-10 23.5zM618 254q0 38 38 80l321 360q39 42 90 42q25 0 39.5 -17t10.5 -40l-63 -375h47q19 0 30.5 -11.5t11.5 -28.5q0 -21 -17.5 -36.5 t-39.5 -15.5h-48l-20 -125l32 -5q14 -2 22.5 -13t8.5 -25q0 -17 -14 -30t-33 -13h-177q-15 0 -25 9.5t-10 23.5q0 17 13.5 31t32.5 17l34 5l21 125h-261q-19 0 -31.5 12t-12.5 30zM744 304h194l45 269z" />
<glyph unicode="&#xbd;" horiz-adv-x="1356" d="M103 -18q0 18 13 35l946 1295q20 28 54 28q20 0 33.5 -13.5t13.5 -34.5q0 -16 -13 -34l-947 -1296q-22 -28 -53 -28q-20 0 -33.5 13.5t-13.5 34.5zM112 580q0 17 13 30.5t32 16.5l44 6l86 516q-56 -17 -88 -17q-13 0 -24.5 9t-11.5 25q0 18 14.5 33.5t33.5 20.5 q54 16 102 41q37 20 72 20q19 0 30 -13t8 -31l-100 -604l38 -6q15 -2 23.5 -12.5t8.5 -24.5q0 -17 -14 -30t-33 -13h-200q-15 0 -24.5 9.5t-9.5 23.5zM728 46q0 29 13.5 56.5t41 55.5t50.5 48t62.5 50.5t57.5 45.5q111 94 152.5 149.5t41.5 100.5q0 83 -114 83 q-78 0 -135 -47q-10 -10 -27 -10q-16 0 -24.5 11t-8.5 26q0 43 78 81.5t160 38.5q88 0 146.5 -41.5t58.5 -122.5q0 -74 -49.5 -140t-171.5 -162q-149 -118 -189 -159h236l6 14q8 20 25.5 32t38.5 12q20 0 33 -13.5t10 -32.5l-10 -63q-4 -24 -24.5 -41t-45.5 -17h-363 q-21 0 -35 13t-14 32z" />
<glyph unicode="&#xbe;" horiz-adv-x="1365" d="M84 641q0 19 14 35t35 16q16 0 24 -8q56 -48 131 -48q79 0 125.5 36t46.5 108q0 90 -126 99q-17 2 -28.5 12.5t-11.5 25.5q0 19 15.5 33.5t35.5 16.5q66 5 104 40t38 95q0 82 -115 82q-76 0 -135 -48q-13 -10 -27 -10q-16 0 -25.5 11t-9.5 26q0 28 38 56.5t94.5 46.5 t107.5 18q87 0 145.5 -41t58.5 -119q0 -70 -40.5 -120t-107.5 -73v-1q55 -15 86 -54t31 -96q0 -115 -86 -180.5t-213 -65.5q-75 0 -140 32.5t-65 74.5zM213 -18q0 19 12 35l947 1295q21 28 53 28q20 0 34 -13.5t14 -34.5q0 -16 -13 -34l-948 -1296q-20 -28 -52 -28 q-20 0 -33.5 13.5t-13.5 34.5zM730 254q0 40 37 80l322 360q39 42 91 42q25 0 39.5 -17t10.5 -40l-63 -375h47q19 0 30.5 -11.5t11.5 -28.5q0 -21 -17.5 -36.5t-40.5 -15.5h-46l-21 -125l32 -5q13 -2 22.5 -13t9.5 -25q0 -17 -15 -30t-33 -13h-177q-15 0 -25.5 9.5 t-10.5 23.5q0 17 13.5 31t32.5 17l34 5l21 125h-261q-19 0 -31.5 12t-12.5 30zM857 304h193l46 269z" />
<glyph unicode="&#xbf;" horiz-adv-x="855" d="M-10 -52q0 94 43.5 175.5t140.5 159.5l135 108q102 83 117 174l5 30q4 27 27 46t50 19t43 -19t12 -46l-6 -41q-11 -66 -42.5 -116.5t-93.5 -108.5l-55 -52q-95 -87 -139.5 -155t-44.5 -154q0 -179 205 -179q65 0 117 22l51 110q13 28 40.5 46t57.5 18q28 0 44.5 -19.5 t12.5 -47.5l-14 -85q-26 -158 -363 -158q-156 0 -249.5 72t-93.5 201zM431 855q0 57 38.5 94t95.5 37q44 0 70 -26t26 -68q0 -57 -38.5 -94.5t-95.5 -37.5q-45 0 -70.5 26t-25.5 69z" />
<glyph unicode="&#xc0;" horiz-adv-x="1219" d="M-86 43q0 23 17.5 42t42.5 24l62 13l551 1082q22 43 64.5 69.5t88.5 26.5q45 0 77.5 -26.5t39.5 -69.5l172 -1082l61 -13q39 -10 39 -51q0 -24 -18 -41t-41 -17h-307q-18 0 -30 12.5t-12 30.5q0 23 17 42t42 24l67 13l-52 324h-442l-156 -324l55 -13q39 -10 39 -51 q0 -24 -17.5 -41t-40.5 -17h-277q-18 0 -30 12.5t-12 30.5zM409 555h368l-83 600zM541 1606q0 18 30 18h94q52 0 74 -34l97 -149q3 -6 3 -14q0 -12 -11.5 -20.5t-29.5 -8.5q-64 0 -101 39l-150 157q-6 6 -6 12z" />
<glyph unicode="&#xc1;" horiz-adv-x="1220" d="M-85 43q0 23 17 42t42 24l63 13l550 1082q22 43 64.5 69.5t88.5 26.5t78.5 -26.5t39.5 -69.5l172 -1082l61 -13q39 -10 39 -51q0 -24 -18 -41t-40 -17h-308q-19 0 -31 12.5t-12 30.5q0 23 17.5 42t42.5 24l67 13l-52 324h-442l-157 -324l56 -13q39 -10 39 -51 q0 -24 -18 -41t-40 -17h-277q-18 0 -30 12.5t-12 30.5zM410 555h368l-84 600zM681 1418q0 10 9 19l147 149q34 34 85 34h102q23 0 23 -15q0 -8 -10 -15l-203 -158q-50 -38 -118 -38q-16 0 -25.5 6.5t-9.5 17.5z" />
<glyph unicode="&#xc2;" horiz-adv-x="1219" d="M-85 43q0 23 17 42t42 24l63 13l550 1082q22 43 64.5 69.5t88.5 26.5t78.5 -26.5t39.5 -69.5l171 -1082l61 -13q39 -10 39 -51q0 -24 -17.5 -41t-40.5 -17h-307q-19 0 -31 12.5t-12 30.5q0 23 17 42t42 24l67 13l-51 324h-442l-157 -324l56 -13q39 -10 39 -51 q0 -24 -17.5 -41t-41.5 -17h-276q-18 0 -30 12.5t-12 30.5zM409 555h369l-84 600zM530 1418q0 10 10 20l148 142q40 40 106 40q65 0 93 -40l102 -142q5 -7 5 -14q0 -12 -11 -21t-29 -9q-71 0 -101 46l-65 102l-105 -104q-44 -44 -115 -44q-16 0 -27 7t-11 17z" />
<glyph unicode="&#xc3;" horiz-adv-x="1220" d="M-85 43q0 23 17 42t42 24l63 13l551 1082q22 43 64 69.5t88 26.5t78.5 -26.5t39.5 -69.5l172 -1082l61 -13q39 -10 39 -51q0 -24 -17.5 -41t-40.5 -17h-308q-18 0 -30 12.5t-12 30.5q0 23 17 42t42 24l68 13l-53 324h-441l-157 -324l55 -13q39 -10 39 -51 q0 -24 -17.5 -41t-40.5 -17h-276q-19 0 -31 12.5t-12 30.5zM410 555h369l-84 600zM541 1442q0 64 56 108.5t101 44.5q37 0 62.5 -14t36.5 -31t26 -31t33 -14t33 13.5t24 29t25 29t36 13.5q16 0 26 -9.5t10 -24.5q0 -63 -56 -107.5t-101 -44.5q-37 0 -62.5 14t-36.5 31 t-26 31t-33 14q-23 0 -39.5 -21.5t-34 -43t-43.5 -21.5q-16 0 -26.5 10t-10.5 24z" />
<glyph unicode="&#xc4;" horiz-adv-x="1219" d="M-86 43q0 23 17 42t42 24l63 13l550 1082q22 43 64.5 69.5t88.5 26.5t78.5 -26.5t39.5 -69.5l172 -1082l60 -13q18 -5 29 -18.5t11 -32.5q0 -24 -18 -41t-41 -17h-307q-18 0 -30 12.5t-12 30.5q0 23 17 42t42 24l67 13l-52 324h-442l-157 -324l56 -13q39 -10 39 -51 q0 -24 -17.5 -41t-41.5 -17h-276q-18 0 -30 12.5t-12 30.5zM409 555h368l-83 600zM508 1480q0 43 33.5 74t77.5 31q34 0 55.5 -22t21.5 -56q0 -44 -32 -75.5t-76 -31.5q-35 0 -57.5 23t-22.5 57zM850 1480q0 44 33.5 74.5t77.5 30.5q35 0 56.5 -22t21.5 -56 q0 -44 -32.5 -75.5t-76.5 -31.5q-35 0 -57.5 23t-22.5 57z" />
<glyph unicode="&#xc5;" horiz-adv-x="1221" d="M-85 43q0 23 17.5 42t42.5 24l62 13l551 1082q22 43 64.5 69.5t88.5 26.5t78 -26.5t39 -69.5l172 -1082l61 -13q18 -5 29 -18.5t11 -32.5q0 -23 -18.5 -40.5t-40.5 -17.5h-308q-18 0 -30 12.5t-12 30.5q0 23 17.5 42t42.5 24l67 13l-53 324h-441l-157 -324l55 -13 q18 -5 29 -18.5t11 -32.5q0 -24 -18 -41t-40 -17h-277q-19 0 -31 12.5t-12 30.5zM411 555h368l-84 600zM599 1534q0 84 66.5 146.5t151.5 62.5q67 0 111 -45.5t44 -112.5q0 -84 -66 -147t-151 -63q-67 0 -111.5 46t-44.5 113zM678 1545q0 -39 25.5 -65t64.5 -26 q49 0 86.5 36t37.5 84q0 38 -25.5 64.5t-63.5 26.5q-49 0 -87 -36t-38 -84z" />
<glyph unicode="&#xc6;" horiz-adv-x="1777" d="M-99 43q0 22 17 41.5t42 24.5l62 13l904 1084q55 66 141 66h645q35 0 56 -25t15 -60l-18 -108q-5 -23 -24.5 -40t-42.5 -17q-26 0 -44 15t-21 40l-11 80h-443l-75 -443h379q22 0 37 -15.5t15 -37.5q0 -28 -22.5 -49.5t-50.5 -21.5h-378l-80 -475h461l39 91 q10 24 33.5 39.5t48.5 15.5q24 0 38 -17t10 -40l-20 -119q-6 -35 -35 -60t-64 -25h-765q-19 0 -31 12.5t-12 30.5q0 23 17.5 42t41.5 24l67 13l54 324h-443l-263 -324l58 -13q39 -10 39 -51q0 -24 -18 -41t-40 -17h-277q-18 0 -30 12.5t-12 30.5zM536 555h370l100 598z" />
<glyph unicode="&#xc7;" horiz-adv-x="1162" d="M100 480q-4 229 91.5 415.5t275.5 295.5t411 109q33 0 61 -1.5t69 -6t71.5 -15t58 -26.5t39.5 -43t6 -62l-16 -95q-4 -28 -27.5 -47.5t-50.5 -19.5q-30 0 -50.5 17.5t-25.5 46.5l-15 106q-44 25 -119 25q-275 0 -433.5 -183.5t-153.5 -480.5q2 -101 33 -179.5 t81.5 -124.5t109.5 -69.5t122 -23.5q124 0 294 92q16 8 30 8q23 0 36 -12t13 -33q0 -46 -64.5 -93t-159.5 -76.5t-183 -31.5l-52 -64q51 0 89 -29.5t38 -78.5q0 -85 -65.5 -127.5t-160.5 -42.5q-119 0 -119 49q0 19 14.5 33.5t35.5 14.5q7 0 31 -6.5t49 -6.5q39 0 66.5 16 t27.5 50q0 29 -30 47t-71 24q-9 1 -15 7.5t-6 14.5t7 16l69 90q-78 12 -149 49t-130 97t-95 152t-38 203z" />
<glyph unicode="&#xc8;" horiz-adv-x="1106" d="M10 43q0 23 17.5 42t41.5 23l93 14l172 1028l-88 15q-18 3 -29 17t-11 33q0 23 18 40t41 17h775q35 0 56.5 -25t15.5 -60l-18 -108q-4 -23 -23.5 -40t-43.5 -17q-26 0 -44 15t-21 40l-11 80h-444l-74 -443h379q23 0 38 -15.5t15 -37.5q0 -28 -22.5 -49.5t-50.5 -21.5 h-380l-80 -475h461l41 91q10 25 33 40t49 15q23 0 37 -17t10 -40l-20 -119q-6 -35 -35 -60t-64 -25h-792q-18 0 -30 12.5t-12 30.5zM476 1578q0 18 29 18h94q53 0 74 -33l97 -150q4 -8 4 -13q0 -12 -12 -21t-30 -9q-63 0 -100 39l-151 157q-5 5 -5 12z" />
<glyph unicode="&#xc9;" horiz-adv-x="1106" d="M10 43q0 23 17.5 42t41.5 23l93 14l172 1028l-88 14q-18 3 -29 17.5t-11 33.5q0 23 18 40t41 17h775q35 0 56.5 -25t15.5 -60l-18 -108q-4 -23 -23.5 -40t-43.5 -17q-26 0 -44 15t-21 40l-11 80h-444l-74 -443h379q23 0 38 -15.5t15 -37.5q0 -27 -23 -49t-51 -22h-379 l-80 -475h461l40 91q10 25 33 40t49 15q23 0 37.5 -17t10.5 -40l-20 -119q-6 -35 -35.5 -60t-64.5 -25h-791q-18 0 -30 12.5t-12 30.5zM632 1390q0 10 9 19l147 149q34 34 86 34h101q23 0 23 -15q0 -9 -9 -15l-203 -157q-51 -39 -118 -39q-16 0 -26 7t-10 17z" />
<glyph unicode="&#xca;" horiz-adv-x="1105" d="M10 43q0 23 18 42t42 23l93 14l172 1028l-88 15q-19 3 -30 17t-11 33q0 23 18 40.5t41 17.5h776q35 0 56.5 -25.5t15.5 -60.5l-19 -108q-4 -23 -23.5 -40t-43.5 -17q-26 0 -43.5 15t-20.5 40l-11 80h-444l-74 -443h379q23 0 37.5 -15.5t14.5 -37.5q0 -28 -22 -49.5 t-50 -21.5h-380l-80 -475h461l40 91q10 25 33 40t49 15q23 0 37 -17t10 -40l-19 -119q-6 -35 -35.5 -60t-64.5 -25h-791q-19 0 -31 12.5t-12 30.5zM468 1391q0 10 10 20l148 142q40 40 106 40q65 0 93 -40l102 -142q5 -7 5 -15q0 -12 -11 -20.5t-29 -8.5q-72 0 -101 45 l-65 102l-105 -103q-44 -44 -115 -44q-16 0 -27 7t-11 17z" />
<glyph unicode="&#xcb;" horiz-adv-x="1105" d="M10 43q0 23 17.5 42t42.5 23l93 14l172 1028l-88 15q-19 3 -30 17t-11 33q0 23 18 40t41 17h776q35 0 56 -25t15 -60l-18 -108q-5 -24 -24 -40.5t-43 -16.5q-26 0 -43.5 15t-20.5 40l-11 80h-444l-75 -443h380q22 0 37 -15.5t15 -37.5q0 -28 -22 -49.5t-50 -21.5h-380 l-80 -475h461l40 91q10 25 33 40t49 15q23 0 37 -17t10 -40l-19 -119q-6 -35 -35.5 -60t-64.5 -25h-791q-19 0 -31 12.5t-12 30.5zM437 1454q0 43 34.5 74.5t78.5 31.5q34 0 55 -22.5t21 -56.5q0 -44 -31.5 -75t-75.5 -31q-35 0 -58.5 22.5t-23.5 56.5zM781 1454 q0 44 33.5 75t77.5 31q34 0 55.5 -22.5t21.5 -56.5q0 -44 -32 -75t-76 -31q-35 0 -57.5 22.5t-22.5 56.5z" />
<glyph unicode="&#xcc;" horiz-adv-x="644" d="M7 43q0 23 17 41.5t42 22.5l98 15l172 1028l-93 15q-18 3 -29 17t-11 33q0 23 18 40t40 17h362q18 0 30 -12.5t12 -29.5q0 -23 -17.5 -42t-41.5 -23l-98 -15l-173 -1028l93 -15q18 -3 29 -16.5t11 -32.5q0 -24 -17.5 -41t-40.5 -17h-361q-18 0 -30 12.5t-12 30.5z M254 1578q0 18 29 18h94q53 0 74 -33l97 -150q4 -8 4 -13q0 -12 -11.5 -21t-29.5 -9q-64 0 -101 39l-151 157q-5 5 -5 12z" />
<glyph unicode="&#xcd;" horiz-adv-x="645" d="M7 43q0 23 17 41.5t41 22.5l99 15l172 1028l-93 15q-18 3 -29 17t-11 33q0 23 17.5 40t40.5 17h362q18 0 30 -12t12 -30q0 -23 -17.5 -42t-41.5 -23l-98 -15l-172 -1028l92 -15q19 -3 30 -17t11 -33q0 -23 -18 -40t-41 -17h-362q-18 0 -29.5 12.5t-11.5 30.5zM391 1390 q0 10 9 19l147 149q34 34 85 34h102q23 0 23 -15q0 -8 -10 -15l-203 -157q-51 -39 -118 -39q-16 0 -25.5 6.5t-9.5 17.5z" />
<glyph unicode="&#xce;" horiz-adv-x="645" d="M7 43q0 23 17 41.5t41 22.5l99 15l172 1028l-93 15q-18 3 -29 17t-11 33q0 23 18 40.5t41 17.5h361q18 0 29.5 -12.5t11.5 -30.5q0 -23 -17 -42t-41 -23l-98 -15l-173 -1028l93 -15q18 -3 29 -17t11 -32q0 -24 -17.5 -41t-40.5 -17h-361q-18 0 -30 12.5t-12 30.5z M230 1391q0 10 10 20l148 142q40 40 106 40q65 0 93 -40l102 -142q5 -7 5 -15q0 -12 -11 -20.5t-29 -8.5q-71 0 -100 45l-66 102l-105 -103q-44 -44 -115 -44q-16 0 -27 7t-11 17z" />
<glyph unicode="&#xcf;" horiz-adv-x="645" d="M7 43q0 23 17 41.5t42 22.5l99 15l172 1028l-94 15q-18 3 -29 17t-11 33q0 23 18 40t40 17h362q18 0 30 -12t12 -30q0 -23 -17 -42t-42 -23l-98 -15l-171 -1028l92 -15q18 -3 29 -17t11 -33q0 -23 -18 -40t-41 -17h-361q-18 0 -30 12.5t-12 30.5zM209 1454 q0 43 34.5 74.5t77.5 31.5q35 0 55.5 -22.5t20.5 -56.5q0 -44 -31 -75t-75 -31q-35 0 -58.5 22.5t-23.5 56.5zM553 1454q0 44 33.5 75t77.5 31q35 0 56 -22.5t21 -56.5q0 -44 -32 -75t-76 -31q-35 0 -57.5 22.5t-22.5 56.5z" />
<glyph unicode="&#xd1;" horiz-adv-x="1387" d="M7 43q0 23 17 41.5t42 22.5l99 15l172 1028l-94 15q-18 3 -29 17t-11 33q0 23 18 40.5t41 17.5h220q39 0 69.5 -21t44.5 -56l379 -992l159 946l-95 16q-18 3 -29 16.5t-11 32.5q0 23 18 40.5t41 17.5h323q18 0 29.5 -12.5t11.5 -30.5q0 -23 -17 -41.5t-41 -23.5l-93 -15 l-180 -1081q-5 -34 -33.5 -58t-62.5 -24q-82 0 -111 72l-418 1028l-163 -965l93 -15q18 -3 29 -17t11 -32q0 -24 -18 -41t-41 -17h-328q-18 0 -30 12.5t-12 30.5zM620 1414q0 64 56 108.5t101 44.5q37 0 62.5 -14t36.5 -31t26 -31t33 -14t33 13.5t23.5 29t24.5 29t37 13.5 q16 0 26 -9.5t10 -23.5q0 -63 -56 -108t-101 -45q-37 0 -62.5 14t-36 31t-25.5 31t-33 14t-33 -13.5t-24 -29t-25 -29t-36 -13.5q-16 0 -26.5 9.5t-10.5 23.5z" />
<glyph unicode="&#xd2;" horiz-adv-x="1352" d="M101 471q0 166 50 315.5t140.5 264t228 182t302.5 67.5q220 0 338.5 -134t118.5 -362q0 -165 -50.5 -315.5t-142 -265.5t-229.5 -183t-302 -68q-218 0 -336 135.5t-118 363.5zM293 473q0 -174 71 -275t219 -101q117 0 214 59.5t159 158.5t95.5 224t33.5 259 q0 175 -71 276t-219 101q-119 0 -216 -60t-158.5 -159.5t-94.5 -224t-33 -258.5zM621 1587q0 8 8 13.5t21 5.5h94q52 0 74 -34l97 -150q4 -8 4 -13q0 -12 -12 -21t-30 -9q-63 0 -100 39l-151 157q-5 5 -5 12z" />
<glyph unicode="&#xd3;" horiz-adv-x="1353" d="M101 471q0 166 50 315.5t140.5 264t228.5 182t303 67.5q220 0 338 -133.5t118 -362.5q0 -166 -50.5 -316t-141.5 -265t-228.5 -183t-301.5 -68q-219 0 -337.5 135.5t-118.5 363.5zM294 474q0 -175 70.5 -276t218.5 -101q118 0 215 59.5t158.5 159t95 224t33.5 258.5 q0 175 -70.5 275.5t-218.5 100.5q-118 0 -215 -59.5t-158.5 -158.5t-95 -223.5t-33.5 -258.5zM756 1399q0 9 10 19l146 149q34 34 86 34h101q24 0 24 -14q0 -9 -10 -16l-203 -157q-51 -39 -118 -39q-16 0 -26 6.5t-10 17.5z" />
<glyph unicode="&#xd4;" horiz-adv-x="1353" d="M101 471q0 166 50 316t140.5 264t228.5 181.5t303 67.5q220 0 338 -133.5t118 -362.5q0 -166 -50.5 -316t-141.5 -265t-228.5 -183t-301.5 -68q-219 0 -337.5 135.5t-118.5 363.5zM294 474q0 -175 70.5 -276t218.5 -101q118 0 215 59.5t158.5 159t95 224.5t33.5 259 q0 174 -70.5 275t-218.5 101q-119 0 -216 -59.5t-158.5 -159t-94.5 -224t-33 -258.5zM600 1400q0 9 11 20l147 142q40 40 107 40q64 0 92 -40l103 -142q5 -7 5 -15q0 -12 -11 -20.5t-29 -8.5q-72 0 -101 45l-66 102l-105 -103q-44 -44 -115 -44q-16 0 -27 7t-11 17z" />
<glyph unicode="&#xd5;" horiz-adv-x="1352" d="M101 471q0 166 50 316t140.5 264t228.5 181.5t303 67.5q220 0 338 -133.5t118 -362.5q0 -166 -50.5 -316t-141.5 -265t-229 -183t-302 -68q-219 0 -337 135.5t-118 363.5zM294 473q0 -174 70.5 -275t218.5 -101q117 0 214 59.5t159 158.5t95.5 224t33.5 259 q0 175 -70.5 276t-218.5 101q-119 0 -216 -60t-158.5 -159.5t-94.5 -224t-33 -258.5zM611 1421q0 63 57.5 108t102.5 45q37 0 62 -14t36 -30.5t25.5 -30.5t32.5 -14t33 13.5t24 29t25.5 29t36.5 13.5q16 0 26 -9.5t10 -23.5q0 -63 -57.5 -108t-102.5 -45q-37 0 -62.5 14 t-36 30.5t-25.5 30.5t-32 14q-18 0 -33 -13.5t-24 -29t-25.5 -29t-37.5 -13.5q-15 0 -25 9.5t-10 23.5z" />
<glyph unicode="&#xd6;" horiz-adv-x="1352" d="M101 471q0 166 50 316t140.5 264t228.5 181.5t303 67.5q220 0 338 -133.5t118 -362.5q0 -166 -50.5 -316t-141.5 -265t-229 -183t-302 -68q-219 0 -337 135.5t-118 363.5zM294 473q0 -174 70.5 -275t218.5 -101q117 0 214 59.5t159 158.5t95.5 224t33.5 260 q0 174 -70.5 275t-218.5 101q-119 0 -216.5 -60t-158.5 -160t-94 -224t-33 -258zM579 1461q0 43 35 74.5t80 31.5q34 0 54 -21.5t20 -55.5q0 -44 -32 -76t-76 -32q-35 0 -58 22.5t-23 56.5zM923 1460q0 44 34 75.5t78 31.5q34 0 55.5 -22.5t21.5 -55.5q0 -44 -33 -75.5 t-78 -31.5q-34 0 -56 22.5t-22 55.5z" />
<glyph unicode="&#xd7;" horiz-adv-x="936" d="M43 231q0 38 34 68l276 236l-196 235q-16 19 -16 46q0 36 29.5 64t66.5 28q33 0 54 -24l195 -235l275 236q28 23 60 23q29 0 48 -20t19 -50q0 -37 -34 -67l-273 -235l195 -235q16 -21 16 -47q0 -35 -29.5 -63.5t-66.5 -28.5q-33 0 -53 23l-196 237l-275 -238 q-25 -22 -61 -22q-29 0 -48.5 20t-19.5 49z" />
<glyph unicode="&#xd8;" horiz-adv-x="1351" d="M73 -7q0 20 17 40l94 106q-83 118 -83 332q0 166 50 315.5t140.5 264t228 182t302.5 67.5q190 0 305 -93l86 96q21 23 48 23q19 0 32 -13t13 -33q0 -21 -17 -40l-94 -106q84 -118 84 -330q0 -165 -50.5 -315.5t-142 -265.5t-229.5 -183t-302 -68q-186 0 -302 94l-86 -97 q-21 -23 -50 -23q-19 0 -31.5 13.5t-12.5 33.5zM294 473q0 -128 19 -188l704 797q-73 92 -221 92q-119 0 -216.5 -60t-158.5 -159.5t-94 -223.5t-33 -258zM361 189q73 -92 222 -92q118 0 215 59.5t158.5 158.5t95 223.5t33.5 259.5q0 125 -20 188z" />
<glyph unicode="&#xd9;" d="M168 313q0 79 14 160l114 677l-82 14q-18 3 -29 17.5t-11 33.5q0 23 18 40t40 17h344q18 0 30 -12t12 -30q0 -23 -17 -41.5t-42 -23.5l-93 -15l-107 -638q-17 -100 -17 -175q0 -121 57.5 -182.5t198.5 -61.5q68 0 121.5 13.5t92 42t65.5 62.5t46.5 86.5t31.5 103 t24 120.5l105 629l-84 14q-18 3 -29.5 17.5t-11.5 33.5q0 23 18 40t41 17h311q18 0 30 -12t12 -30q0 -23 -17.5 -42t-41.5 -24l-90 -14l-110 -652q-22 -130 -58 -222t-99 -163t-160.5 -106t-233.5 -35q-207 0 -300 84.5t-93 256.5zM573 1578q0 18 29 18h94q53 0 74 -33 l97 -150q4 -8 4 -13q0 -12 -11.5 -21t-29.5 -9q-64 0 -101 39l-151 157q-5 5 -5 12z" />
<glyph unicode="&#xda;" d="M168 313q0 79 14 160l114 677l-82 14q-18 3 -29 17.5t-11 33.5q0 23 18 40t40 17h344q18 0 30 -12t12 -30q0 -23 -17.5 -42.5t-41.5 -23.5l-93 -14l-107 -638q-17 -100 -17 -175q0 -121 57.5 -182.5t198.5 -61.5q68 0 121.5 13.5t92 42t65.5 62.5t46.5 86.5t31.5 103 t24 120.5l105 629l-84 14q-18 3 -29.5 17.5t-11.5 33.5q0 23 18 40t41 17h311q18 0 30 -12t12 -30q0 -23 -17.5 -42t-41.5 -24l-90 -14l-110 -652q-22 -130 -58 -222t-99 -163t-160.5 -106t-233.5 -35q-207 0 -300 84.5t-93 256.5zM741 1390q0 10 9 19l147 149q34 34 86 34 h101q23 0 23 -15q0 -8 -10 -15l-202 -157q-51 -39 -118 -39q-16 0 -26 7t-10 17z" />
<glyph unicode="&#xdb;" d="M168 313q0 79 14 160l114 677l-82 14q-18 3 -29 17.5t-11 33.5q0 23 17.5 40.5t40.5 17.5h344q18 0 30 -12.5t12 -30.5q0 -23 -17 -41.5t-42 -23.5l-93 -15l-107 -638q-17 -100 -17 -175q0 -121 57.5 -182.5t198.5 -61.5q68 0 121.5 13.5t92 42t65.5 62.5t46.5 86.5 t31.5 103t24 120.5l105 629l-85 15q-18 3 -29 17t-11 33q0 24 18 41t41 17h311q18 0 30 -12.5t12 -30.5q0 -23 -17.5 -41.5t-41.5 -23.5l-91 -15l-109 -652q-22 -130 -58 -222t-99 -163t-160.5 -106t-233.5 -35q-208 0 -300.5 84.5t-92.5 256.5zM581 1391q0 10 10 20 l148 142q40 40 106 40q65 0 93 -40l102 -142q5 -7 5 -15q0 -12 -11 -20.5t-29 -8.5q-72 0 -101 45l-65 102l-105 -103q-44 -44 -115 -44q-16 0 -27 7t-11 17z" />
<glyph unicode="&#xdc;" d="M168 313q0 79 14 160l114 677l-82 14q-18 3 -29 17.5t-11 33.5q0 23 18 40t40 17h344q18 0 30 -12t12 -30q0 -23 -17.5 -41.5t-41.5 -23.5l-93 -15l-107 -638q-17 -100 -17 -175q0 -121 57.5 -182.5t198.5 -61.5q68 0 121.5 13.5t92 42t65.5 62.5t46.5 86.5t31.5 103 t24 120.5l105 629l-84 14q-18 3 -29.5 17.5t-11.5 33.5q0 23 18 40t41 17h311q18 0 30 -12t12 -30q0 -23 -17.5 -42t-42.5 -24l-89 -14l-110 -652q-22 -130 -58 -222t-99 -163t-160.5 -106t-233.5 -35q-207 0 -300 84.5t-93 256.5zM547 1454q0 43 34.5 74.5t78.5 31.5 q34 0 55 -22.5t21 -56.5q0 -44 -31.5 -75t-75.5 -31q-35 0 -58.5 22.5t-23.5 56.5zM891 1454q0 44 33.5 75t77.5 31q35 0 56.5 -22.5t21.5 -56.5q0 -44 -32.5 -75t-76.5 -31q-35 0 -57.5 22.5t-22.5 56.5z" />
<glyph unicode="&#xdd;" horiz-adv-x="1173" d="M109 1215q0 23 18 40t41 17h322q18 0 30 -12.5t12 -29.5q0 -23 -17.5 -42.5t-41.5 -24.5l-69 -13l210 -515l383 515l-65 13q-18 4 -28.5 18.5t-10.5 33.5q0 23 18 40t40 17h295q18 0 29.5 -12t11.5 -30q0 -23 -17 -42.5t-42 -24.5l-65 -14l-502 -651l-64 -376l107 -16 q18 -3 29 -16.5t11 -32.5q0 -23 -18 -40t-41 -17h-388q-18 0 -30 12.5t-12 30.5q0 23 17.5 41.5t41.5 21.5l112 16l63 373l-270 655l-70 13q-18 4 -29 18.5t-11 33.5zM664 1384q0 10 9 19l147 149q34 34 86 34h101q23 0 23 -15q0 -9 -9 -15l-203 -157q-51 -39 -118 -39 q-16 0 -26 7t-10 17z" />
<glyph unicode="&#xdf;" horiz-adv-x="1185" d="M-21 42q0 23 17.5 41t41.5 23l84 16l133 793q46 270 170.5 385t351.5 115q140 0 225.5 -60t85.5 -180q0 -57 -20.5 -104t-53 -78.5t-72.5 -58t-79.5 -49t-72 -44.5t-53 -50.5t-20.5 -62.5q0 -36 27.5 -67.5t69 -53.5t89.5 -50t89.5 -57t69 -76t27.5 -104 q0 -102 -54 -181.5t-143 -120.5t-195 -41q-253 0 -253 115q0 4 2 18l10 61q5 27 28 47t50 20q30 0 51 -17.5t26 -45.5l10 -70q33 -20 86 -20q46 0 93 17.5t84.5 61t37.5 102.5q0 49 -39 87.5t-94 67.5t-110.5 61.5t-94.5 84t-39 119.5q0 52 20.5 96t53 75t72 58.5t79.5 53.5 t72.5 53t53 63t20.5 78q0 73 -46 110t-122 37q-139 0 -218 -91.5t-110 -277.5l-145 -864q-5 -32 -31.5 -54.5t-58.5 -22.5h-164q-19 0 -30.5 12t-11.5 30z" />
<glyph unicode="&#xe0;" horiz-adv-x="975" d="M26 212q0 84 24.5 146t67 101t108.5 63t141.5 33.5t173.5 9.5h99l16 92q7 39 7 75q0 71 -37 104.5t-120 33.5q-69 0 -112 -23l-31 -66q-14 -28 -41.5 -46t-56.5 -18q-28 0 -44 20t-11 48l2 17q7 52 44.5 89t94 55t110 25t112.5 7q143 0 199.5 -51t56.5 -151 q0 -48 -14 -132l-89 -532l64 -11q17 -3 27.5 -16.5t10.5 -31.5q0 -23 -16.5 -40t-40.5 -19l-152 -17q-29 -3 -46.5 19t-12.5 52l8 53h-1q-124 -124 -292 -124q-116 0 -182.5 63.5t-66.5 171.5zM202 248q0 -67 44 -101.5t118 -34.5q99 0 210 56l50 300l-140 -7 q-282 -14 -282 -213zM388 1322q0 10 8.5 16.5t19.5 6.5h89q48 0 67 -42l82 -185q4 -10 4 -15q0 -15 -11 -26.5t-29 -11.5q-58 0 -91 48l-134 195q-5 7 -5 14z" />
<glyph unicode="&#xe1;" horiz-adv-x="975" d="M26 212q0 84 24.5 146t67 101t108.5 63t141.5 33.5t173.5 9.5h99l16 92q7 39 7 75q0 71 -37 104.5t-120 33.5q-69 0 -112 -23l-31 -66q-14 -28 -41.5 -46t-56.5 -18q-28 0 -44 20t-11 48l2 17q7 52 44.5 89t94 55t110 25t112.5 7q143 0 199.5 -51t56.5 -151 q0 -48 -14 -132l-89 -532l64 -11q17 -3 27.5 -16.5t10.5 -31.5q0 -23 -16.5 -40t-40.5 -19l-152 -17q-29 -3 -46.5 19t-12.5 52l8 53h-1q-124 -124 -292 -124q-116 0 -182.5 63.5t-66.5 171.5zM203 248q0 -67 43.5 -101.5t117.5 -34.5q99 0 210 56l50 300l-140 -7 q-281 -14 -281 -213zM538 1094q0 11 10 24l144 185q34 42 82 42h96q21 0 21 -18q0 -9 -10 -19l-198 -195q-48 -48 -112 -48q-14 0 -23.5 8.5t-9.5 20.5z" />
<glyph unicode="&#xe2;" horiz-adv-x="973" d="M25 212q0 84 24.5 146t67 101t108.5 63t141.5 33.5t173.5 9.5h100l14 92q7 49 7 74q0 72 -36.5 105.5t-120.5 33.5q-68 0 -111 -23l-32 -66q-14 -28 -41 -46t-56 -18q-28 0 -44.5 20t-11.5 48l3 17q9 52 46.5 89t93 54.5t109 25t111.5 7.5q144 0 200.5 -51t56.5 -151 q0 -48 -14 -132l-89 -532l63 -11q17 -3 28 -16.5t11 -31.5q0 -23 -16.5 -40t-40.5 -19l-152 -17q-29 -3 -46.5 19t-12.5 52l8 53h-1q-124 -124 -292 -124q-116 0 -182.5 63.5t-66.5 171.5zM202 248q0 -67 43.5 -101.5t117.5 -34.5q101 0 210 56l50 300l-141 -7 q-280 -14 -280 -213zM374 1094q0 11 11 26l145 175q43 51 101 51q59 0 85 -50l88 -175q5 -12 5 -17q0 -16 -10.5 -27t-28.5 -11q-66 0 -92 56l-57 126l-102 -127q-45 -55 -110 -55q-15 0 -25 8.5t-10 19.5z" />
<glyph unicode="&#xe3;" horiz-adv-x="973" d="M25 212q0 84 24.5 146t67 101t108.5 63t141.5 33.5t173.5 9.5h99l15 92q8 45 8 75q0 71 -37.5 104.5t-120.5 33.5q-68 0 -111 -23l-32 -66q-14 -28 -41 -46t-56 -18q-28 0 -44.5 20t-11.5 48l3 17q7 52 44.5 89t94 55t109.5 25t112 7q144 0 200.5 -51t56.5 -151 q0 -48 -14 -132l-89 -532l63 -11q17 -3 28 -16.5t11 -31.5q0 -23 -16.5 -40t-40.5 -19l-152 -17q-29 -3 -46.5 19t-12.5 52l8 53h-1q-124 -124 -292 -124q-116 0 -182.5 63.5t-66.5 171.5zM201 248q0 -67 44 -101.5t118 -34.5q99 0 210 56l50 300l-141 -7 q-281 -14 -281 -213zM363 1130q0 66 56.5 112.5t101.5 46.5q37 0 62.5 -14.5t36 -32t25.5 -32t33 -14.5t33 14t24 30t25 30t36 14q16 0 26.5 -10t10.5 -24q0 -66 -57 -112.5t-102 -46.5q-37 0 -62.5 14.5t-36 32t-25.5 32t-33 14.5t-33 -14t-24 -30.5t-25 -30.5t-37 -14 q-16 0 -25.5 10t-9.5 25z" />
<glyph unicode="&#xe4;" horiz-adv-x="973" d="M25 212q0 84 24.5 146t67 101t108.5 63t141 33.5t173 9.5h100l15 92q8 45 8 75q0 71 -37.5 104.5t-120.5 33.5q-68 0 -111 -23l-32 -66q-14 -28 -41 -46t-56 -18q-28 0 -44.5 20t-11.5 48l3 17q7 52 44.5 89t94 55t109.5 25t112 7q144 0 200.5 -51t56.5 -151 q0 -48 -14 -132l-89 -532l63 -11q17 -3 28 -16.5t11 -31.5q0 -23 -17 -40t-41 -19l-151 -17q-29 -3 -46.5 19t-12.5 52l8 53h-1q-124 -124 -292 -124q-116 0 -182.5 63.5t-66.5 171.5zM201 248q0 -67 44 -101.5t118 -34.5q99 0 210 56l50 300l-141 -7q-281 -14 -281 -213z M338 1164q0 43 34 74t78 31q34 0 55 -22t21 -56q0 -44 -31.5 -75t-75.5 -31q-35 0 -58 22.5t-23 56.5zM681 1164q0 44 33.5 74.5t77.5 30.5q35 0 56 -22t21 -56q0 -44 -32 -75t-76 -31q-35 0 -57.5 22.5t-22.5 56.5z" />
<glyph unicode="&#xe5;" horiz-adv-x="973" d="M25 212q0 84 24.5 146t67 101t108.5 63t141.5 33.5t173.5 9.5h100l15 92q7 49 7 74q0 72 -37 105.5t-121 33.5q-68 0 -111 -23l-32 -66q-14 -28 -41 -46t-56 -18q-28 0 -44.5 20t-11.5 48l3 17q9 52 46.5 89t93 54.5t109 25t111.5 7.5q144 0 200.5 -50.5t56.5 -150.5 q0 -47 -14 -133l-88 -532l62 -11q17 -3 28 -16.5t11 -31.5q0 -23 -16.5 -40t-40.5 -19l-152 -17q-29 -3 -46.5 19t-12.5 52l8 53h-1q-124 -124 -292 -124q-116 0 -182.5 63.5t-66.5 171.5zM202 248q0 -67 43.5 -101.5t117.5 -34.5q99 0 210 56l50 300l-141 -7 q-280 -14 -280 -213zM430 1215q0 84 66 146.5t151 62.5q68 0 112 -46t44 -113q0 -83 -66 -146t-151 -63q-67 0 -111.5 46t-44.5 113zM509 1226q0 -39 25.5 -65t64.5 -26q49 0 86.5 35.5t37.5 83.5q0 38 -25.5 64.5t-63.5 26.5q-49 0 -87 -35.5t-38 -83.5z" />
<glyph unicode="&#xe6;" horiz-adv-x="1484" d="M23 207q-1 85 22 148t65.5 103t109 64t142.5 33.5t176 9.5h100l16 92q19 112 -15 162.5t-136 50.5q-68 0 -111 -23l-32 -66q-14 -28 -41 -46t-56 -18q-28 0 -44.5 20t-11.5 48l3 16q9 53 46 90t93 55t109 25t112 7q200 0 243 -110q126 110 310 110q80 0 139.5 -26.5 t92.5 -72.5t48.5 -100t15.5 -117q0 -181 -100 -181h-533q-16 -83 -11 -149.5t29 -113.5t77 -72.5t133 -25.5q104 0 216 55q10 5 24 5q18 0 28.5 -12.5t10.5 -31.5q0 -21 -26 -48t-69 -52t-108 -42t-135 -17q-226 0 -310 137q-54 -54 -165 -95.5t-208 -41.5q-114 0 -180.5 62 t-68.5 168zM200 245q0 -65 44 -99t117 -34q99 0 210 56l51 300l-141 -7q-281 -14 -281 -216zM802 576l439 26q22 125 -16.5 194.5t-141.5 69.5q-116 0 -182.5 -76t-98.5 -214z" />
<glyph unicode="&#xe7;" horiz-adv-x="910" d="M69 341q-3 178 67 323.5t198.5 229.5t288.5 84q37 0 67 -1.5t72 -10t69 -22t43.5 -41t10.5 -65.5l-9 -54q-4 -28 -27.5 -47.5t-50.5 -19.5q-30 0 -50.5 18t-25.5 46l-11 69q-39 17 -82 17q-178 0 -281 -133.5t-99 -345.5q2 -127 59.5 -192.5t160.5 -65.5q92 0 233 62 q12 5 21 5q18 0 29.5 -13t11.5 -32q0 -46 -91.5 -100.5t-200.5 -69.5l-60 -74q51 0 89 -29.5t38 -78.5q0 -86 -65.5 -128t-160.5 -42q-117 0 -117 49q0 19 14.5 33.5t34.5 14.5q6 0 31 -6.5t49 -6.5q38 0 65.5 16t27.5 50q0 29 -30 47t-71 24q-18 3 -20 22q0 7 8 16l67 90 q-145 11 -222.5 107t-80.5 255z" />
<glyph unicode="&#xe8;" horiz-adv-x="959" d="M71 334q-2 102 17 195.5t61 175.5t103.5 142.5t150 95.5t194.5 35q81 0 140 -26.5t92 -72.5t48.5 -100t16.5 -117q3 -181 -100 -181h-534q-16 -83 -11 -149.5t29 -113.5t77 -72.5t133 -25.5q105 0 217 55q10 5 24 5q17 0 27.5 -13t10.5 -31q0 -47 -101 -103t-235 -56 q-177 0 -267 91.5t-93 265.5zM278 576l439 26q20 125 -18.5 194.5t-141.5 69.5q-115 0 -181 -76t-98 -214zM418 1322q0 10 8.5 16.5t19.5 6.5h89q49 0 68 -42l85 -185q2 -5 4 -15q0 -16 -11 -27t-28 -11q-59 0 -93 48l-136 195q-6 8 -6 14z" />
<glyph unicode="&#xe9;" horiz-adv-x="960" d="M71 334q-2 102 17 195.5t61 175.5t103.5 142.5t150 95.5t194.5 35q81 0 140 -26.5t92 -72.5t48.5 -100t16.5 -117q3 -181 -100 -181h-534q-16 -83 -11 -149.5t29 -113.5t77 -72.5t133 -25.5q105 0 217 55q10 5 24 5q17 0 27.5 -13t10.5 -31q0 -47 -101 -103t-235 -56 q-177 0 -267 91.5t-93 265.5zM278 576l439 26q20 125 -18.5 194.5t-141.5 69.5q-115 0 -181 -76t-98 -214zM530 1094q0 12 9 24l141 185q32 42 81 42h96q21 0 21 -18q0 -10 -9 -19l-196 -195q-48 -48 -110 -48q-14 0 -23.5 8.5t-9.5 20.5z" />
<glyph unicode="&#xea;" horiz-adv-x="961" d="M72 334q-2 102 17 196t61 176t103.5 142t150 95t194.5 35q81 0 140 -26.5t92 -72.5t48.5 -100t16.5 -117q3 -181 -100 -181h-534q-17 -111 -6 -191.5t69 -125t164 -44.5t218 55q10 5 24 5q17 0 27.5 -13t10.5 -31q0 -47 -101.5 -103t-235.5 -56q-177 0 -266.5 91.5 t-92.5 265.5zM278 576l440 26q20 125 -18 195t-142 70q-116 0 -182 -76t-98 -215zM394 1094q0 13 10 26l142 175q43 51 100 51q59 0 86 -50l91 -175q5 -12 5 -17q0 -16 -10 -27t-28 -11q-66 0 -93 56l-59 126l-100 -127q-44 -55 -108 -55q-15 0 -25.5 8.5t-10.5 19.5z" />
<glyph unicode="&#xeb;" horiz-adv-x="959" d="M71 334q-2 129 29.5 243t95 204.5t167 143.5t235.5 53q80 0 139 -26.5t92 -73t48.5 -100t16.5 -116.5q3 -181 -100 -181h-533q-17 -111 -6 -191.5t69 -125t164 -44.5q104 0 217 55q10 5 24 5q17 0 27.5 -12.5t10.5 -31.5q0 -47 -101 -103t-236 -56q-177 0 -266.5 91.5 t-92.5 265.5zM278 576l438 26q22 124 -17 194t-142 70q-115 0 -181 -76t-98 -214zM354 1163q0 44 34 75t78 31q34 0 55 -21.5t21 -54.5q0 -45 -31 -76.5t-76 -31.5q-35 0 -58 22t-23 56zM697 1163q0 44 33 75t78 31q34 0 55.5 -22t21.5 -55q0 -45 -31.5 -76t-76.5 -31 q-35 0 -57.5 22.5t-22.5 55.5z" />
<glyph unicode="&#xec;" horiz-adv-x="540" d="M109 55l131 787l-76 13q-17 3 -27.5 16t-10.5 30q0 23 16.5 40.5t39.5 19.5l173 17q29 3 46 -18.5t12 -51.5l-132 -786l66 -14q17 -4 28 -18t11 -33q0 -23 -17 -39t-41 -18l-161 -16q-29 -3 -46 19t-12 52zM165 1344q0 10 8.5 17t19.5 7h89q48 0 67 -42l82 -185 q4 -10 4 -15q0 -16 -11.5 -27t-28.5 -11q-58 0 -91 48l-134 194q-5 7 -5 14z" />
<glyph unicode="&#xed;" horiz-adv-x="540" d="M109 55l131 787l-76 13q-17 3 -27.5 16t-10.5 30q0 23 16.5 40.5t39.5 19.5l173 17q29 3 46 -18.5t12 -51.5l-132 -786l66 -14q17 -4 28 -18t11 -33q0 -23 -17 -39t-41 -18l-161 -16q-29 -3 -46 19t-12 52zM283 1116q0 12 10 25l144 185q34 42 82 42h96q21 0 21 -18 q0 -10 -10 -20l-198 -194q-48 -48 -112 -48q-14 0 -23.5 8.5t-9.5 19.5z" />
<glyph unicode="&#xee;" horiz-adv-x="540" d="M109 55l131 787l-76 13q-17 3 -27.5 16t-10.5 30q0 23 16.5 40.5t39.5 19.5l173 17q29 3 46 -18.5t12 -51.5l-132 -786l66 -14q17 -4 28 -18t11 -33q0 -23 -17 -39t-41 -18l-161 -16q-29 -3 -46 19t-12 52zM125 1116q0 11 11 26l145 175q43 51 101 51q59 0 85 -50 l88 -175q5 -13 5 -17q0 -16 -10.5 -27t-28.5 -11q-66 0 -92 56l-57 126l-102 -127q-45 -55 -110 -55q-15 0 -25 8.5t-10 19.5z" />
<glyph unicode="&#xef;" horiz-adv-x="539" d="M89 1185q0 43 34.5 74t78.5 31q35 0 55 -22t20 -56q0 -44 -31 -75.5t-75 -31.5q-35 0 -58.5 23t-23.5 57zM108 55l132 787l-77 13q-17 3 -27.5 16t-10.5 30q0 23 17 40.5t40 19.5l172 17q29 3 46 -18.5t12 -51.5l-131 -786l65 -14q17 -4 28 -18t11 -33q0 -23 -17 -39 t-41 -18l-160 -16q-29 -3 -46.5 19t-12.5 52zM433 1185q0 44 33.5 74.5t77.5 30.5q35 0 56 -22t21 -56q0 -44 -32 -75.5t-76 -31.5q-35 0 -57.5 23t-22.5 57z" />
<glyph unicode="&#xf1;" horiz-adv-x="1133" d="M1 42q0 23 17 41.5t42 23.5l79 15l121 722l-76 10q-17 2 -28 15.5t-11 31.5q0 23 17 41t41 20l165 16q30 3 47.5 -19t12.5 -52l-8 -46q141 117 316 117q129 0 188.5 -54.5t59.5 -166.5q0 -45 -9 -101l-89 -534l65 -14q18 -4 28.5 -18t10.5 -33q0 -23 -17 -39t-41 -18 l-161 -16q-29 -3 -46.5 19t-12.5 52l87 520q12 77 12 116q0 82 -39.5 118t-134.5 36q-133 0 -236 -126l-100 -597l66 -14q17 -4 28 -18t11 -33q0 -23 -18 -40t-41 -17h-304q-19 0 -30.5 12t-11.5 30zM461 1132q0 66 57 112.5t102 46.5q37 0 62.5 -14.5t36 -32t25.5 -32 t33 -14.5t33 14t24 30t25 30t36 14q16 0 26.5 -10t10.5 -24q0 -66 -57 -112.5t-102 -46.5q-37 0 -62.5 14.5t-36 32t-25.5 32t-33 14.5t-33 -14t-24 -30.5t-25 -30.5t-36 -14q-16 0 -26.5 10t-10.5 25z" />
<glyph unicode="&#xf2;" horiz-adv-x="1063" d="M70 356q0 175 69.5 317t196.5 223.5t288 81.5q165 0 255.5 -101.5t90.5 -276.5q0 -176 -68.5 -317.5t-195.5 -223.5t-289 -82q-165 0 -256 102t-91 277zM248 348q0 -255 197 -255q109 0 188 67.5t118 183t39 266.5q0 251 -200 251q-61 0 -112 -21.5t-85.5 -55.5t-61 -81 t-42 -94t-25.5 -98.5t-13 -90t-3 -72.5zM451 1322q0 10 8.5 16.5t19.5 6.5h89q48 0 67 -42l82 -185q4 -10 4 -15q0 -15 -11.5 -26.5t-28.5 -11.5q-59 0 -92 48l-133 195q-5 7 -5 14z" />
<glyph unicode="&#xf3;" horiz-adv-x="1063" d="M70 356q0 175 69.5 317t196.5 223.5t288 81.5q165 0 255.5 -101.5t90.5 -276.5q0 -176 -68.5 -317.5t-195.5 -223.5t-289 -82q-165 0 -256 102t-91 277zM249 348q0 -255 196 -255q163 0 254 143t91 374q0 251 -200 251q-73 0 -131 -29t-93.5 -78t-60 -103.5t-36 -116.5 t-16 -105.5t-4.5 -80.5zM558 1094q0 11 10 24l144 185q34 42 82 42h96q21 0 21 -18q0 -9 -10 -19l-199 -195q-48 -48 -112 -48q-14 0 -23 8.5t-9 20.5z" />
<glyph unicode="&#xf4;" horiz-adv-x="1064" d="M71 356q0 176 69.5 317.5t196.5 223t288 81.5q165 0 255.5 -101.5t90.5 -276.5q0 -177 -69 -318.5t-196 -223t-289 -81.5q-165 0 -255.5 102t-90.5 277zM249 348q0 -255 197 -255q163 0 254 143t91 374q0 251 -201 251q-63 0 -115.5 -22.5t-87 -58t-60.5 -84.5 t-40.5 -96.5t-23.5 -99t-11.5 -87t-2.5 -65.5zM419 1094q0 11 11 26l145 175q43 51 101 51q59 0 85 -50l88 -175q4 -10 4 -17q0 -16 -10 -27t-28 -11q-66 0 -92 56l-57 126l-103 -127q-45 -55 -109 -55q-15 0 -25 8.5t-10 19.5z" />
<glyph unicode="&#xf5;" horiz-adv-x="1064" d="M70 356q0 176 69.5 317.5t196.5 223t288 81.5q165 0 255.5 -101.5t90.5 -276.5q0 -269 -154 -446t-399 -177q-165 0 -256 102t-91 277zM249 348q0 -255 196 -255q163 0 254 143t91 374q0 251 -200 251q-63 0 -115.5 -22.5t-87 -58t-60.5 -84.5t-40.5 -96.5t-23.5 -99 t-11.5 -87t-2.5 -65.5zM416 1129q0 65 58 112.5t104 47.5q36 0 61 -14.5t35.5 -32t25 -32t32.5 -14.5t33.5 14t24.5 30t25.5 30t36.5 14q16 0 26.5 -10t10.5 -24q0 -45 -31 -83.5t-67.5 -57t-63.5 -18.5q-37 0 -62 14.5t-35.5 32t-25.5 32t-32 14.5q-18 0 -33 -14t-24 -30.5 t-25.5 -30.5t-37.5 -14q-16 0 -26 9.5t-10 24.5z" />
<glyph unicode="&#xf6;" horiz-adv-x="1063" d="M70 356q0 175 69.5 317t196.5 223.5t288 81.5q165 0 255.5 -101.5t90.5 -276.5q0 -176 -68.5 -317.5t-195.5 -223.5t-289 -82q-165 0 -256 102t-91 277zM248 348q0 -255 197 -255q109 0 188 67.5t118 183t39 266.5q0 251 -200 251q-61 0 -112 -21.5t-85.5 -55.5t-61 -81 t-42 -94t-25.5 -98.5t-13 -90t-3 -72.5zM383 1163q0 43 35 74.5t80 31.5q34 0 54 -21t20 -55q0 -45 -32 -76.5t-77 -31.5q-35 0 -57.5 22t-22.5 56zM727 1163q0 44 34 75t78 31q34 0 55.5 -22t21.5 -55q0 -44 -33 -75.5t-78 -31.5q-34 0 -56 22.5t-22 55.5z" />
<glyph unicode="&#xf7;" horiz-adv-x="1066" d="M77 524q0 36 28.5 63t65.5 27h744q29 0 48.5 -20t19.5 -49q0 -36 -28.5 -63t-65.5 -27h-745q-29 0 -48 20t-19 49zM348 142q0 54 42 93.5t97 39.5q43 0 71 -28.5t28 -71.5q0 -54 -42.5 -94t-96.5 -40q-43 0 -71 29t-28 72zM474 894q0 54 42 94t97 40q43 0 71 -29t28 -72 q0 -54 -42.5 -94t-96.5 -40q-44 0 -71.5 29t-27.5 72z" />
<glyph unicode="&#xf8;" horiz-adv-x="1092" d="M73 -18q0 18 12 31l70 82q-70 91 -70 261q0 176 69.5 317.5t196.5 223t288 81.5q133 0 218 -61l64 75q16 19 39 19q15 0 26 -10.5t11 -26.5q0 -17 -13 -31l-70 -82q71 -91 71 -261q0 -176 -69 -317.5t-196 -223.5t-289 -82q-133 0 -218 62l-64 -75q-17 -20 -40 -20 q-15 0 -25.5 11t-10.5 27zM263 348q0 -78 9 -116l487 570q-49 59 -154 59q-61 0 -112 -21.5t-85.5 -55.5t-61 -81t-42 -94t-25.5 -98t-13 -90t-3 -73zM310 152q47 -59 150 -59q109 0 188 67.5t118 183t39 266.5q0 76 -9 113z" />
<glyph unicode="&#xf9;" horiz-adv-x="1107" d="M120 902q0 22 17.5 40t40.5 20l162 16q29 3 46 -18t12 -51l-88 -527q-12 -77 -12 -116q0 -82 40 -117.5t137 -35.5q129 0 232 127l102 602l-76 13q-17 3 -28 16t-11 30q0 23 17 41t41 20l172 16q29 3 46.5 -18.5t12.5 -51.5l-134 -796l67 -11q17 -3 27.5 -16.5 t10.5 -31.5q0 -22 -17 -39.5t-41 -19.5l-157 -17q-29 -3 -46.5 19t-12.5 52l9 55q-142 -126 -318 -126q-127 0 -186.5 54.5t-59.5 165.5q0 39 10 101l91 545l-67 12q-17 3 -28 16t-11 31zM431 1344q0 10 8 17t19 7h89q48 0 67 -42l83 -185q3 -7 3 -15q0 -16 -11 -27t-28 -11 q-59 0 -92 48l-133 194q-5 7 -5 14z" />
<glyph unicode="&#xfa;" horiz-adv-x="1107" d="M119 902q0 22 17.5 40t40.5 20l163 16q29 3 46 -18t12 -51l-89 -527q-12 -77 -12 -116q0 -82 40 -117.5t137 -35.5q130 0 233 127l101 602l-76 13q-17 3 -27.5 16t-10.5 30q0 23 17 41t40 20l173 16q29 3 46 -18.5t12 -51.5l-133 -796l66 -11q17 -3 28 -16.5t11 -31.5 q0 -22 -17 -39.5t-41 -19.5l-157 -17q-29 -3 -46.5 19t-12.5 52l9 55q-142 -126 -319 -126q-127 0 -186 54.5t-59 165.5q0 46 9 101l92 545l-67 12q-18 3 -29 16t-11 31zM573 1116q0 12 10 25l145 185q34 42 81 42h96q21 0 21 -18q0 -10 -10 -20l-198 -194q-48 -48 -112 -48 q-14 0 -23.5 8.5t-9.5 19.5z" />
<glyph unicode="&#xfb;" horiz-adv-x="1108" d="M120 902q0 22 17.5 40t40.5 20l162 16q29 3 46 -18t12 -51l-88 -527q-12 -77 -12 -116q0 -82 40 -117.5t137 -35.5q130 0 233 127l101 602l-76 13q-17 3 -28 16t-11 30q0 23 17 41t41 20l172 16q29 3 46.5 -18.5t12.5 -51.5l-134 -796l67 -11q17 -3 27.5 -16.5 t10.5 -31.5q0 -22 -17 -39.5t-41 -19.5l-157 -17q-29 -3 -46.5 19t-12.5 52l9 55q-142 -126 -318 -126q-127 0 -186.5 54.5t-59.5 165.5q0 39 10 101l91 545l-67 12q-39 7 -39 47zM428 1116q0 13 10 26l146 175q43 51 101 51t84 -50l89 -175q4 -10 4 -17q0 -16 -10.5 -27 t-28.5 -11q-66 0 -92 56l-56 126l-103 -127q-45 -55 -109 -55q-15 0 -25 8.5t-10 19.5z" />
<glyph unicode="&#xfc;" horiz-adv-x="1108" d="M120 902q0 22 17.5 40t40.5 20l162 16q29 3 46 -18t12 -51l-88 -527q-12 -77 -12 -116q0 -82 40 -117.5t137 -35.5q129 0 232 127l102 602l-76 13q-17 3 -28 16t-11 30q0 23 17 41t41 20l172 16q29 3 46.5 -18.5t12.5 -51.5l-134 -796l66 -11q18 -3 28.5 -16.5 t10.5 -31.5q0 -22 -17 -39.5t-41 -19.5l-157 -17q-29 -3 -46.5 19t-12.5 52l9 55q-142 -126 -318 -126q-128 0 -187 54.5t-59 165.5q0 39 10 101l91 545l-67 12q-17 3 -28 16t-11 31zM371 1185q0 43 34.5 74t78.5 31q34 0 54.5 -22t20.5 -56q0 -44 -31 -75.5t-75 -31.5 q-35 0 -58.5 23t-23.5 57zM714 1185q0 44 33.5 74.5t77.5 30.5q35 0 56.5 -22t21.5 -56q0 -44 -32.5 -75.5t-76.5 -31.5q-35 0 -57.5 23t-22.5 57z" />
<glyph unicode="&#xfd;" horiz-adv-x="1013" d="M-96 -361q0 13 3 26l10 62q4 28 27 47.5t51 19.5q30 0 50.5 -18t25.5 -47l11 -72q83 0 234 293l26 49l-175 835l-66 14q-17 4 -28 17.5t-11 32.5q0 24 17.5 40.5t40.5 16.5h296q18 0 29.5 -12t11.5 -30q0 -23 -16.5 -42t-41.5 -24l-64 -13l122 -617l329 617l-50 13 q-39 10 -39 51q0 23 18 40t40 17h256q18 0 30 -12t12 -30q0 -22 -17 -41.5t-42 -24.5l-64 -13l-572 -1047q-57 -103 -140 -170.5t-181 -67.5q-133 0 -133 90zM541 1094q0 11 10 24l145 185q34 42 81 42h96q21 0 21 -18q0 -9 -10 -19l-198 -195q-48 -48 -112 -48 q-14 0 -23.5 8.5t-9.5 20.5z" />
<glyph unicode="&#xff;" horiz-adv-x="1013" d="M-96 -361q0 13 3 26l10 62q4 28 27 47.5t51 19.5q30 0 50.5 -18t25.5 -47l11 -72q83 0 234 293l26 49l-175 835l-66 14q-17 4 -28 17.5t-11 32.5q0 24 17.5 40.5t40.5 16.5h296q18 0 29.5 -12t11.5 -30q0 -23 -16.5 -42t-41.5 -24l-64 -13l122 -617l329 617l-50 13 q-39 10 -39 51q0 23 18 40t40 17h256q18 0 30 -12t12 -30q0 -22 -17 -41.5t-42 -24.5l-64 -13l-572 -1047q-57 -103 -140 -170.5t-181 -67.5q-133 0 -133 90zM358 1162q0 43 34 74t78 31q34 0 55 -22t21 -56q0 -44 -31.5 -75.5t-75.5 -31.5q-35 0 -58 23t-23 57zM700 1161 q0 44 33.5 75t77.5 31q35 0 56.5 -22.5t21.5 -56.5q0 -44 -32.5 -75t-76.5 -31q-35 0 -57.5 22.5t-22.5 56.5z" />
<glyph unicode="&#x152;" horiz-adv-x="1810" d="M103 482q0 166 48.5 313.5t137 260t224 178.5t297.5 66q102 0 184 -28h751q35 0 56.5 -25t15.5 -60l-18 -108q-4 -23 -23.5 -40t-43.5 -17q-26 0 -44 15t-21 40l-11 80h-444l-74 -443h379q23 0 37.5 -15.5t14.5 -37.5q0 -28 -22 -49.5t-50 -21.5h-380l-80 -475h461l41 91 q11 25 33.5 40t47.5 15q23 0 37.5 -17t10.5 -40l-20 -119q-6 -35 -35.5 -60t-64.5 -25h-790q-93 -28 -191 -28q-223 0 -343.5 138.5t-120.5 371.5zM296 485q0 -180 72 -284t224 -104q173 0 292 122l140 841q-73 114 -239 114q-115 0 -209 -57t-154.5 -153.5t-93 -219.5 t-32.5 -259z" />
<glyph unicode="&#x153;" horiz-adv-x="1642" d="M71 356q-3 176 63.5 317.5t192.5 223t287 81.5q219 0 307 -161q139 161 360 161q81 0 140.5 -26.5t92 -72.5t48 -100t15.5 -117q0 -181 -99 -181h-534q-16 -83 -11 -149.5t29 -113.5t77 -72.5t133 -25.5q105 0 217 55q10 5 24 5q17 0 27.5 -12.5t10.5 -31.5 q0 -47 -101.5 -103t-235.5 -56q-244 0 -322 158q-147 -158 -367 -158q-165 0 -258 102t-96 277zM249 348q5 -255 203 -255q163 0 251 143t84 374q-3 251 -204 251q-64 0 -116.5 -23t-86.5 -59t-59.5 -86t-39 -97t-21.5 -99t-10 -86t-1 -63zM962 576l438 26 q20 125 -17.5 194.5t-141.5 69.5q-116 0 -182 -76t-97 -214z" />
<glyph unicode="&#x178;" horiz-adv-x="1175" d="M111 1215q0 23 18 40t41 17h322q18 0 29.5 -12t11.5 -30q0 -23 -17.5 -42.5t-41.5 -24.5l-68 -13l210 -515l382 515l-65 13q-18 4 -28.5 18.5t-10.5 33.5q0 23 18 40t40 17h295q18 0 30 -12t12 -30q0 -23 -17 -42.5t-42 -24.5l-66 -14l-502 -651l-64 -376l107 -16 q18 -3 29 -16.5t11 -32.5q0 -23 -18 -40t-41 -17h-388q-18 0 -30 12.5t-12 30.5q0 23 17.5 41.5t41.5 21.5l113 16l62 373l-270 655l-70 13q-18 4 -28.5 18.5t-10.5 33.5zM486 1448q0 43 34 74t78 31q34 0 55 -22t21 -56q0 -44 -31.5 -75.5t-75.5 -31.5q-35 0 -58 23t-23 57 zM830 1448q0 44 33 74.5t77 30.5q35 0 56.5 -22t21.5 -56q0 -44 -32.5 -75.5t-76.5 -31.5q-35 0 -57 23t-22 57z" />
<glyph unicode="&#x2c6;" horiz-adv-x="531" d="M226 1059q0 11 11 26l145 175q42 50 101 50t85 -50l88 -175q5 -13 5 -17q0 -16 -10.5 -27t-28.5 -11q-66 0 -92 56l-57 126l-102 -127q-45 -55 -110 -55q-15 0 -25 8.5t-10 20.5z" />
<glyph unicode="&#x2dc;" horiz-adv-x="602" d="M260 1104q0 66 56.5 112.5t101.5 46.5q37 0 62.5 -14.5t36.5 -32t26 -32t32 -14.5q19 0 33.5 14t23.5 30t25 30t37 14q16 0 26.5 -10t10.5 -24q0 -66 -57 -112.5t-103 -46.5q-37 0 -62 14.5t-36 32t-25.5 32t-32.5 14.5t-33 -14t-23.5 -30.5t-25 -30.5t-37.5 -14 q-16 0 -26 10.5t-10 24.5z" />
<glyph unicode="&#x2000;" horiz-adv-x="871" />
<glyph unicode="&#x2001;" horiz-adv-x="1743" />
<glyph unicode="&#x2002;" horiz-adv-x="871" />
<glyph unicode="&#x2003;" horiz-adv-x="1743" />
<glyph unicode="&#x2004;" horiz-adv-x="581" />
<glyph unicode="&#x2005;" horiz-adv-x="435" />
<glyph unicode="&#x2006;" horiz-adv-x="290" />
<glyph unicode="&#x2007;" horiz-adv-x="290" />
<glyph unicode="&#x2008;" horiz-adv-x="217" />
<glyph unicode="&#x2009;" horiz-adv-x="348" />
<glyph unicode="&#x200a;" horiz-adv-x="96" />
<glyph unicode="&#x2010;" horiz-adv-x="721" d="M93 473q0 33 27 59t61 26h362q27 0 45 -19t18 -46q0 -33 -26.5 -58.5t-60.5 -25.5h-363q-27 0 -45 18.5t-18 45.5z" />
<glyph unicode="&#x2011;" horiz-adv-x="721" d="M93 473q0 33 27 59t61 26h362q27 0 45 -19t18 -46q0 -33 -26.5 -58.5t-60.5 -25.5h-363q-27 0 -45 18.5t-18 45.5z" />
<glyph unicode="&#x2012;" horiz-adv-x="721" d="M93 473q0 33 27 59t61 26h362q27 0 45 -19t18 -46q0 -33 -26.5 -58.5t-60.5 -25.5h-363q-27 0 -45 18.5t-18 45.5z" />
<glyph unicode="&#x2013;" horiz-adv-x="1201" d="M95 474q0 31 24.5 54.5t56.5 23.5h851q25 0 41.5 -17t16.5 -42q0 -31 -24.5 -54.5t-56.5 -23.5h-850q-25 0 -42 17t-17 42z" />
<glyph unicode="&#x2014;" horiz-adv-x="2156" d="M95 474q0 31 24.5 54.5t56.5 23.5h1805q25 0 41.5 -17t16.5 -42q0 -31 -25 -54.5t-56 -23.5h-1805q-25 0 -41.5 17t-16.5 42z" />
<glyph unicode="&#x2018;" horiz-adv-x="404" d="M175 1081q0 61 32.5 125t77 108t88 72.5t67.5 28.5q13 0 21 -8t8 -21q0 -21 -19 -34q-61 -41 -94.5 -86.5t-43.5 -106.5q40 0 63.5 -23.5t23.5 -62.5q0 -51 -35 -84.5t-86 -33.5q-50 0 -76.5 36t-26.5 90z" />
<glyph unicode="&#x2019;" horiz-adv-x="409" d="M159 985q0 20 19 33q61 41 94.5 87t43.5 107q-40 -1 -63.5 22.5t-23.5 62.5q0 51 35 84.5t86 33.5q49 0 75.5 -35.5t26.5 -89.5q0 -62 -32.5 -126t-77 -108t-88 -72.5t-67.5 -28.5q-13 0 -20.5 8.5t-7.5 21.5z" />
<glyph unicode="&#x201a;" horiz-adv-x="446" d="M-26 -226q0 19 20 33q61 41 94 86.5t43 107.5q-39 0 -63 23.5t-24 61.5q0 51 35 85t86 34q49 0 75.5 -36.5t26.5 -89.5q0 -61 -32.5 -125.5t-76.5 -108.5t-87.5 -72.5t-67.5 -28.5q-12 0 -20.5 8.5t-8.5 21.5z" />
<glyph unicode="&#x201c;" horiz-adv-x="722" d="M175 1081q0 61 32.5 125t77 108t88 72.5t67.5 28.5q12 0 20.5 -8t8.5 -21q0 -21 -20 -34q-61 -41 -94.5 -86.5t-43.5 -106.5q39 0 63 -23.5t24 -62.5q0 -51 -34.5 -84.5t-85.5 -33.5q-49 0 -76 36t-27 90zM495 1081q0 61 32.5 125t76.5 108t87.5 72.5t67.5 28.5 q12 0 20.5 -8t8.5 -21q0 -21 -19 -34q-61 -41 -94.5 -86.5t-43.5 -106.5q39 0 63 -23.5t24 -62.5q0 -51 -34.5 -84.5t-85.5 -33.5q-50 0 -76.5 36t-26.5 90z" />
<glyph unicode="&#x201d;" horiz-adv-x="729" d="M159 985q0 20 19 33q61 41 94 86.5t43 107.5q-39 -1 -62.5 22.5t-23.5 62.5q0 51 34.5 84.5t85.5 33.5q50 0 76.5 -35.5t26.5 -89.5q0 -62 -32.5 -126t-77 -108t-88 -72.5t-67.5 -28.5q-13 0 -20.5 8.5t-7.5 21.5zM478 985q0 18 20 33q61 41 94 86.5t43 107.5 q-39 -1 -62.5 22.5t-23.5 62.5q0 51 34.5 84.5t85.5 33.5q49 0 75.5 -35.5t26.5 -89.5q0 -62 -32.5 -126t-76.5 -108t-87.5 -72.5t-67.5 -28.5q-13 0 -21 8.5t-8 21.5z" />
<glyph unicode="&#x201e;" horiz-adv-x="766" d="M-26 -226q0 19 20 33q61 41 94 86.5t43 107.5q-39 0 -63 23.5t-24 61.5q0 51 35 85t86 34q50 0 76.5 -36.5t26.5 -89.5q0 -61 -32.5 -125.5t-77 -108.5t-88 -72.5t-67.5 -28.5q-12 0 -20.5 8.5t-8.5 21.5zM294 -226q0 20 19 33q62 41 95.5 86.5t43.5 107.5 q-40 0 -64 23.5t-24 61.5q0 51 35 85t86 34q49 0 75.5 -36.5t26.5 -89.5q0 -61 -32.5 -125.5t-76.5 -108.5t-87.5 -72.5t-67.5 -28.5q-12 0 -20.5 8.5t-8.5 21.5z" />
<glyph unicode="&#x2022;" horiz-adv-x="706" d="M106 611q0 105 74.5 179.5t179.5 74.5q106 0 180 -74.5t74 -179.5q0 -106 -74 -180.5t-180 -74.5q-105 0 -179.5 74.5t-74.5 180.5z" />
<glyph unicode="&#x2026;" horiz-adv-x="1759" d="M42 84q0 56 38.5 93t95.5 37q44 0 70 -26t26 -68q0 -57 -38.5 -94.5t-94.5 -37.5q-44 0 -70.5 26.5t-26.5 69.5zM698 84q0 56 38 93t95 37q45 0 71 -26t26 -68q0 -57 -38.5 -94.5t-95.5 -37.5q-44 0 -70 26.5t-26 69.5zM1353 84q0 56 38.5 93t95.5 37q44 0 70 -26t26 -68 q0 -57 -38.5 -94.5t-94.5 -37.5q-44 0 -70.5 26.5t-26.5 69.5z" />
<glyph unicode="&#x202f;" horiz-adv-x="348" />
<glyph unicode="&#x2039;" horiz-adv-x="551" d="M66 484q0 35 27 65l219 250q59 67 140 67q18 0 28.5 -10t10.5 -26q0 -17 -14 -33l-244 -313l144 -287q5 -12 5 -21q0 -20 -15.5 -34t-38.5 -14q-82 0 -118 66l-134 250q-10 20 -10 40z" />
<glyph unicode="&#x203a;" horiz-adv-x="551" d="M35 164q0 16 14 33l243 312l-143 288q-5 12 -5 21q0 19 15.5 33.5t38.5 14.5q81 0 118 -67l134 -250q10 -18 10 -40q0 -33 -27 -65l-219 -250q-58 -66 -139 -66q-18 0 -29 10.5t-11 25.5z" />
<glyph unicode="&#x205f;" horiz-adv-x="435" />
<glyph unicode="&#x20ac;" horiz-adv-x="1084" d="M58 506q0 24 23 44t50 20h58q8 65 9 68q4 22 18 83h-86q-13 0 -22.5 9t-9.5 22q0 24 23.5 43.5t50.5 19.5h71q43 123 112 218t152 152t173 86t184 29q43 0 81 -5t79.5 -19t62.5 -44.5t14 -75.5l-15 -92q-4 -28 -27.5 -47.5t-51.5 -19.5q-30 0 -51.5 18t-25.5 46l-14 109 q-35 14 -78 14q-130 0 -236.5 -93t-167.5 -276h419q14 0 23 -9t9 -22q0 -24 -23.5 -43.5t-50.5 -19.5h-403q-11 -52 -17 -87l-10 -64h368q14 0 22.5 -9t8.5 -22q0 -24 -23 -43.5t-50 -19.5h-333q-7 -187 66 -277t208 -90q103 0 209 61q14 8 25 8q18 0 29 -13.5t11 -31.5 q0 -35 -51 -72.5t-132 -63t-161 -25.5q-137 0 -229 66.5t-131 177.5t-35 260h-94q-13 0 -22 8.5t-9 21.5z" />
<glyph unicode="&#x2122;" horiz-adv-x="1525" d="M163 1227q0 19 13 32t32 13h405q19 0 32 -13t13 -32t-13 -32t-32 -13h-148v-485q0 -22 -16.5 -38t-38.5 -16t-38 16t-16 38v485h-148q-19 0 -32 13t-13 32zM745 697v501q0 34 24 58.5t58 24.5q37 0 67.5 -21t43.5 -55l150 -391l148 392q13 33 44 54t66 21q34 0 57.5 -24 t23.5 -58v-502q0 -22 -16 -38t-38 -16t-38 16t-16 38v458h-2l-183 -478q-5 -15 -18.5 -24.5t-29.5 -9.5q-35 0 -49 34l-183 478h-1v-458q0 -22 -16 -38t-38 -16t-38 16t-16 38z" />
<glyph unicode="&#xe000;" horiz-adv-x="955" d="M0 0v955h955v-955h-955z" />
</font>
</defs>
</svg>
