<?xml version="1.0" standalone="no"?>
<!DOCTYPE svg PUBLIC "-//W3C//DTD SVG 1.1//EN" "http://www.w3.org/Graphics/SVG/1.1/DTD/svg11.dtd" >
<svg xmlns="http://www.w3.org/2000/svg">
<metadata></metadata>
<defs>
<font id="classic_roundregular" horiz-adv-x="1104" >
<font-face units-per-em="2048" ascent="1566" descent="-482" />
<missing-glyph horiz-adv-x="543" />
<glyph unicode="&#xfb01;" horiz-adv-x="1186" d="M74 901q0 22 16 38t39 16h81v66q0 83 18 147t53.5 106.5t80.5 71t108.5 43t126.5 20.5t145 6q49 0 93.5 -8t88 -26.5t69 -55.5t25.5 -88q0 -50 -32 -82t-83 -32q-50 0 -82 32t-32 82q0 40 22 72q-24 5 -53 5q-68 0 -115 -4t-101.5 -20.5t-88 -45.5t-56 -83t-22.5 -130 v-76h152q22 0 38 -16t16 -38t-16 -38t-38 -16h-152v-724l107 -16q21 -3 35 -19.5t14 -37.5t-15 -35.5t-35 -14.5h-343q-21 0 -35.5 14.5t-14.5 35.5q0 22 13.5 38t34.5 21l74 14v724h-81q-23 0 -39 16t-16 38zM716 50q0 22 14 38t35 21l76 14v718l-77 12q-20 3 -34 18.5 t-14 36.5t14 36t34 17l171 17q29 3 50 -18.5t21 -52.5v-784l66 -14q21 -5 35 -21t14 -38q0 -21 -14.5 -35.5t-34.5 -14.5h-306q-21 0 -35.5 14.5t-14.5 35.5z" />
<glyph unicode="&#xfb02;" horiz-adv-x="1188" d="M74 901q0 23 16 38.5t38 15.5h82v66q0 394 433 394q57 0 111 -16l170 16q29 3 50 -18.5t21 -52.5v-1221l68 -14q21 -5 35 -21t14 -38q0 -21 -15 -35.5t-35 -14.5h-307q-21 0 -35.5 14.5t-14.5 35.5t14 37t35 21l77 15v1145q-75 46 -172 46q-134 0 -209.5 -68t-75.5 -215 v-76h153q23 0 38.5 -15.5t15.5 -38.5t-15.5 -38.5t-38.5 -15.5h-153v-724l107 -16q21 -3 35 -19.5t14 -37.5t-14.5 -35.5t-34.5 -14.5h-344q-20 0 -35 14.5t-15 35.5q0 22 14 38t35 21l74 14v724h-82q-22 0 -38 15.5t-16 38.5z" />
<glyph unicode="&#xfb03;" horiz-adv-x="1807" d="M74 901q0 23 16 38.5t38 15.5h82v66q0 82 27 147t71.5 106.5t107 68.5t129 38t142.5 11q33 0 55 -1t56 -6.5t55.5 -15t40.5 -29t25 -46.5q65 70 174.5 95.5t269.5 25.5q49 0 93.5 -8t88 -26.5t69 -55.5t25.5 -88q0 -50 -32 -82t-83 -32q-50 0 -82 32t-32 82q0 40 22 72 q-24 5 -53 5q-68 0 -115 -4t-101.5 -20.5t-88 -45.5t-56 -83t-22.5 -130v-76h152q22 0 38.5 -16t16.5 -38t-16.5 -38t-38.5 -16h-152v-724l107 -16q21 -3 35 -19.5t14 -37.5t-15 -35.5t-35 -14.5h-343q-21 0 -35.5 14.5t-14.5 35.5q0 22 14 38t35 21l73 14v724h-81 q-22 0 -38 15.5t-16 38.5t16 38.5t38 15.5h81v66q0 65 13 123q-28 3 -51 20.5t-32 44.5l-27 81q-20 2 -31 2q-45 0 -85 -5t-86.5 -22t-79.5 -44t-55.5 -76t-22.5 -114v-76h153q22 0 38 -16t16 -38t-16 -38t-38 -16h-153v-724l107 -16q21 -3 35 -19.5t14 -37.5t-14.5 -35.5 t-34.5 -14.5h-344q-21 0 -35.5 14.5t-14.5 35.5q0 22 14 38t35 21l74 14v724h-82q-22 0 -38 15.5t-16 38.5zM1338 50q0 22 13.5 38t34.5 21l76 14v718l-77 12q-20 3 -33.5 18.5t-13.5 36.5t14 36t34 17l170 17q29 3 50 -18.5t21 -52.5v-784l66 -14q21 -5 35.5 -21.5 t14.5 -37.5t-15 -35.5t-35 -14.5h-306q-21 0 -35 14.5t-14 35.5z" />
<glyph unicode="&#xfb04;" horiz-adv-x="1811" d="M74 901q0 22 16 38t39 16h81v66q0 82 27 147t72 106.5t107.5 68.5t129 38t142.5 11q41 0 70 -2.5t67.5 -11t63 -29.5t31.5 -54q108 120 345 120q57 0 111 -16l171 16q29 3 49.5 -18.5t20.5 -52.5v-1221l68 -14q21 -5 35 -21t14 -38q0 -21 -14.5 -35.5t-34.5 -14.5h-307 q-21 0 -35.5 14.5t-14.5 35.5q0 22 13.5 37.5t34.5 20.5l78 15v1145q-75 46 -173 46q-133 0 -208.5 -68t-75.5 -215v-76h152q23 0 38.5 -15.5t15.5 -38.5t-15.5 -38.5t-38.5 -15.5h-152v-724l107 -16q21 -3 35 -19.5t14 -37.5t-15 -35.5t-35 -14.5h-344q-20 0 -34.5 14.5 t-14.5 35.5q0 22 14 38t35 21l73 14v724h-81q-23 0 -39 16t-16 38t16 38t39 16h81v66q0 69 12 123q-61 7 -82 65l-28 81q-20 2 -30 2q-45 0 -85 -5t-86.5 -22t-79.5 -44t-55.5 -76t-22.5 -114v-76h152q22 0 38 -16t16 -38t-16 -38t-38 -16h-152v-724l107 -16q21 -3 35 -19.5 t14 -37.5t-15 -35.5t-35 -14.5h-343q-21 0 -35.5 14.5t-14.5 35.5q0 22 13.5 38t34.5 21l74 14v724h-81q-23 0 -39 16t-16 38z" />
<glyph horiz-adv-x="2048" />
<glyph horiz-adv-x="2048" />
<glyph unicode="&#xd;" horiz-adv-x="2048" />
<glyph unicode=" "  horiz-adv-x="543" />
<glyph unicode="&#x09;" horiz-adv-x="543" />
<glyph unicode="&#xa0;" horiz-adv-x="543" />
<glyph unicode="!" horiz-adv-x="503" d="M138 103q0 50 32 82.5t83 32.5q50 0 82 -32.5t32 -82.5q0 -51 -32 -83t-82 -32q-51 0 -83 32t-32 83zM149 1195q0 105 104 105q51 0 76.5 -28t25.5 -77q0 -13 -1.5 -36t-1.5 -31l-41 -756q-2 -23 -18.5 -39t-39.5 -16t-40.5 16t-18.5 39l-42 756q0 9 -1.5 33t-1.5 34z " />
<glyph unicode="&#x22;" horiz-adv-x="648" d="M86 1329q0 35 25 60.5t62 25.5t63.5 -25.5t22.5 -60.5l-42 -391q-1 -17 -14 -28.5t-30 -11.5t-30 11.5t-14 28.5l-42 378q-1 3 -1 13zM386 1329q0 35 25 60.5t62 25.5t64 -25.5t23 -60.5l-43 -391q-1 -17 -14 -28.5t-30 -11.5t-30 11.5t-14 28.5l-42 378q-1 3 -1 13z" />
<glyph unicode="#" horiz-adv-x="1026" d="M66 439q0 26 19 45t45 19h132l37 268h-121q-27 0 -45.5 19t-18.5 45t18.5 45t45.5 19h138l44 309q4 27 25 45.5t49 18.5q24 0 40 -16.5t16 -39.5v-8l-44 -309h223l44 309q4 27 25 45.5t49 18.5q23 0 39.5 -16.5t16.5 -39.5q0 -6 -1 -8l-43 -309h98q26 0 44.5 -19 t18.5 -45t-18.5 -45t-44.5 -19h-115l-39 -268h102q26 0 45 -19t19 -45t-19 -45t-45 -19h-120l-44 -311q-4 -27 -25 -45.5t-49 -18.5q-23 0 -39.5 16.5t-16.5 39.5v8l44 311h-223l-44 -311q-4 -27 -25 -45.5t-49 -18.5q-23 0 -39.5 16.5t-16.5 39.5q0 6 1 8l44 311h-113 q-26 0 -45 19t-19 45zM391 503h223l38 268h-223z" />
<glyph unicode="$" horiz-adv-x="941" d="M77 141v83q0 28 20.5 48t49.5 20q31 0 55 -18t33 -47l33 -108q60 -27 128 -27q22 0 32 1v485l-70 35t-65.5 36t-65 43t-52 48.5t-45.5 60t-26 69.5t-11 85q0 139 91 229.5t244 110.5v98q0 19 13.5 32.5t32.5 13.5q20 0 33 -13.5t13 -32.5v-93q37 0 72.5 -3.5t80 -13.5 t76.5 -26.5t54.5 -46.5t22.5 -70v-83q0 -28 -20.5 -48.5t-48.5 -20.5q-31 0 -55.5 18.5t-33.5 47.5l-33 107q-43 18 -115 20v-449q145 -69 201 -109q147 -114 150 -276q0 -154 -96.5 -251t-254.5 -118v-99q0 -19 -13.5 -32.5t-32.5 -13.5t-32.5 13.5t-13.5 32.5v93 q-351 3 -351 169zM267 991q0 -70 41.5 -119.5t119.5 -92.5v393q-74 -17 -117.5 -64t-43.5 -117zM520 107q80 20 128 69t48 129q0 75 -45.5 126.5t-130.5 99.5v-424z" />
<glyph unicode="%" horiz-adv-x="1443" d="M69 898q0 112 24.5 195.5t86 137t156.5 53.5q131 0 192.5 -100t61.5 -264q0 -112 -24.5 -195.5t-86 -137t-156.5 -53.5q-90 0 -148 49.5t-82 128t-24 186.5zM203 909q0 -65 5 -112.5t18 -89.5t38 -63.5t63 -21.5t64 22t39.5 63.5t19 89.5t5.5 112q0 67 -5 114.5t-18 89 t-38.5 62.5t-64.5 21q-37 0 -63 -22.5t-39 -64t-18.5 -89.5t-5.5 -111zM302 -10q0 14 8 28l729 1294q16 28 49 28q22 0 39 -16.5t17 -39.5q0 -14 -7 -27l-730 -1294q-16 -29 -48 -29q-22 0 -39.5 16.5t-17.5 39.5zM855 352q0 112 24.5 195.5t86 137t156.5 53.5 q131 0 192.5 -99.5t61.5 -263.5q0 -112 -24.5 -195.5t-86 -137.5t-156.5 -54q-68 0 -118 27.5t-79 78t-43 115t-14 143.5zM989 364q0 -65 5 -113t18 -90t38 -63.5t63 -21.5t64 22t39.5 64t19 90t5.5 112q0 66 -5 113.5t-18 89t-38.5 62.5t-64.5 21q-37 0 -63 -22.5t-39 -64 t-18.5 -89.5t-5.5 -110z" />
<glyph unicode="&#x26;" horiz-adv-x="1302" d="M84 341q0 114 66.5 202t178.5 133q-73 78 -116 152.5t-43 160.5q0 136 94.5 223.5t233.5 87.5q145 0 235 -75t90 -212q0 -70 -17 -121t-54 -89t-83 -65t-118 -55l404 -426q88 105 88 254q0 67 -21 100l-58 15q-21 5 -34 21.5t-13 37.5q0 19 14.5 33.5t33.5 14.5h238 q19 0 33 -13.5t14 -33.5q0 -21 -13 -38t-33 -21l-29 -7q7 -63 7 -107q0 -203 -141 -338l48 -51l64 -14q21 -5 35 -21.5t14 -38.5q0 -21 -15 -35.5t-35 -14.5h-103q-88 0 -148 68q-160 -91 -366 -91q-70 0 -136 14.5t-123 44t-100 72t-67.5 102.5t-24.5 131zM257 377 q0 -129 98.5 -199t243.5 -70q112 0 219 55l-408 432q-153 -91 -153 -218zM342 1011q0 -112 142 -260q91 42 139 102t48 149q0 78 -46 129t-122 51q-70 0 -115.5 -49t-45.5 -122z" />
<glyph unicode="'" horiz-adv-x="348" d="M87 1329q0 35 25.5 60.5t61.5 25.5q37 0 64 -25.5t23 -60.5l-43 -391q-2 -17 -14 -28.5t-29 -11.5t-30.5 11.5t-14.5 28.5l-42 378q-1 3 -1 13z" />
<glyph unicode="(" horiz-adv-x="549" d="M98 506q0 163 48.5 355.5t128.5 330.5t159 138q16 0 26.5 -10t10.5 -25q0 -11 -6 -21q-208 -345 -208 -768q0 -416 208 -762q6 -10 6 -22q0 -14 -10.5 -24t-26.5 -10q-82 0 -162 139t-127 329t-47 350z" />
<glyph unicode=")" horiz-adv-x="548" d="M77 -278q0 10 7 22q208 346 208 762q0 423 -208 768q-7 12 -7 21q0 15 10.5 25t26.5 10q79 0 159 -138t129 -330.5t49 -355.5q0 -159 -47 -349.5t-127.5 -329.5t-162.5 -139q-16 0 -26.5 10t-10.5 24z" />
<glyph unicode="*" horiz-adv-x="808" d="M69 1004q0 25 17.5 43t40.5 15l216 -28l-135 180q-11 14 -11 35q0 25 17.5 42t42.5 17q40 0 56 -37l88 -198l90 200q16 36 55 36q24 0 42 -17.5t18 -41.5q0 -21 -12 -36l-137 -178l224 26q23 3 40.5 -15t17.5 -43t-17.5 -43t-41.5 -15l-222 25l136 -173q12 -15 12 -37 q0 -25 -18 -42.5t-44 -17.5q-41 0 -57 38l-86 197l-95 -204q-15 -33 -52 -33q-24 0 -41.5 17.5t-17.5 41.5q0 20 13 36l137 176l-217 -24q-24 -3 -41.5 15t-17.5 43z" />
<glyph unicode="+" horiz-adv-x="1027" d="M63 535q0 33 23.5 57t56.5 24h288v288q0 34 24 58t58 24t58 -24t24 -58v-288h290q33 0 57 -24t24 -57t-24 -56.5t-57 -23.5h-290v-290q0 -34 -24 -58t-58 -24t-58 24t-24 58v290h-288q-33 0 -56.5 23.5t-23.5 56.5z" />
<glyph unicode="," horiz-adv-x="457" d="M92 -235q0 21 15 31q57 44 84.5 92t27.5 113q-49 0 -79 30t-30 78q0 49 30 79t79 30q62 0 97.5 -48t35.5 -116q0 -62 -26.5 -125t-63 -105.5t-73.5 -69t-61 -26.5q-15 0 -25.5 11t-10.5 26z" />
<glyph unicode="-" horiz-adv-x="720" d="M104 484q0 31 22 53t53 22h362q31 0 53 -22t22 -53q0 -32 -22 -54t-53 -22h-362q-31 0 -53 22t-22 54z" />
<glyph unicode="." horiz-adv-x="449" d="M111 103q0 51 31.5 83t82.5 32t83 -32.5t32 -82.5q0 -51 -32 -83t-83 -32t-82.5 32t-31.5 83z" />
<glyph unicode="/" horiz-adv-x="727" d="M47 -97q0 12 4 23l482 1366q7 22 25.5 35t40.5 13q28 0 49 -21t21 -50q0 -12 -4 -23l-482 -1366q-7 -21 -25.5 -34t-40.5 -13q-28 0 -49 20.5t-21 49.5z" />
<glyph unicode="0" horiz-adv-x="1120" d="M110 616q0 117 15 216.5t50 187t87 148.5t131 96.5t178 35.5q94 0 168.5 -32.5t125 -90t83.5 -139.5t48 -176t15 -205q0 -117 -15 -217t-50 -187.5t-88 -148.5t-132 -96.5t-178 -35.5q-94 0 -168.5 32.5t-124.5 90t-83 139.5t-47.5 176.5t-14.5 205.5zM305 637 q0 -98 5.5 -172.5t22 -147t43.5 -119.5t72 -75.5t107 -28.5t108.5 28.5t75 76t45.5 119.5t23.5 148t6.5 171q0 126 -10 215t-36 167.5t-78 118.5t-130 40q-60 0 -105.5 -29t-73.5 -77.5t-45.5 -120t-24 -146.5t-6.5 -168z" />
<glyph unicode="1" horiz-adv-x="674" d="M39 1119q0 25 16 44.5t40 26.5q92 26 178 76q56 34 113 34q26 0 44 -18t18 -44v-1113l92 -16q21 -3 35.5 -19.5t14.5 -38.5q0 -21 -15 -36t-36 -15h-364q-21 0 -35.5 15t-14.5 36q0 22 14 38.5t36 19.5l97 16v981q-40 -16 -97 -28.5t-82 -12.5q-20 0 -37 14t-17 40z" />
<glyph unicode="2" horiz-adv-x="1008" d="M69 74q0 43 15 85.5t37 75.5t59 73t68 67.5t79 70t77 70.5q162 157 229 258t67 172q0 112 -64.5 160.5t-192.5 48.5q-149 0 -249 -93q-12 -12 -32 -12q-22 0 -35 18.5t-13 42.5q0 45 58 89.5t147 72t175 27.5q80 0 150 -20t126.5 -59.5t89 -105.5t32.5 -151 q0 -114 -72 -222.5t-242 -260.5q-117 -105 -163.5 -147.5t-92 -89t-71.5 -82.5h489l10 41q7 28 30.5 46.5t52.5 18.5q28 0 47.5 -19.5t19.5 -47.5v-114q0 -36 -26 -61.5t-62 -25.5h-661q-33 0 -57.5 21.5t-24.5 52.5z" />
<glyph unicode="3" horiz-adv-x="1020" d="M80 160q0 24 14.5 44t38.5 20q16 0 30 -11q117 -90 266 -90q138 0 218.5 60.5t80.5 183.5q0 216 -283 234q-25 2 -42 19t-17 42t17 42t42 19q114 9 179 67.5t65 162.5q0 105 -65 153.5t-192 48.5q-149 0 -249 -93q-12 -12 -32 -12q-22 0 -35 18.5t-13 42.5q0 45 59 89.5 t148 72t174 27.5q80 0 149.5 -19.5t124.5 -58t87 -102t32 -144.5q0 -122 -77.5 -202t-202.5 -101v-1q149 -17 234.5 -101t85.5 -225q0 -118 -62 -204t-164 -128t-230 -42q-87 0 -175 25t-147 69.5t-59 93.5z" />
<glyph unicode="4" horiz-adv-x="1017" d="M37 453q0 67 42 125l475 654q49 68 134 68q35 0 59.5 -25t24.5 -60v-699h109q27 0 46.5 -20t19.5 -47t-19 -46.5t-47 -19.5h-109v-258l80 -14q22 -5 36 -21.5t14 -38.5q0 -21 -15 -36t-36 -15h-323q-21 0 -36 15t-15 36q0 22 14 39t36 21l80 14v258h-500 q-29 0 -49.5 20.5t-20.5 49.5zM189 516h418v576z" />
<glyph unicode="5" horiz-adv-x="1029" d="M110 161q0 24 13.5 44t36.5 20q16 0 30 -11q108 -89 228 -89q149 0 239.5 72t90.5 223q0 139 -71.5 211.5t-194.5 72.5q-68 0 -135 -31q-83 -37 -136 -37q-31 0 -52 21t-21 52v476q0 36 25 61.5t62 25.5h579q33 0 56 -23t23 -56t-23 -56.5t-56 -23.5h-524v-326 q100 54 242 54q189 0 303 -109.5t114 -303.5q0 -211 -131 -333.5t-347 -122.5q-80 0 -161.5 26.5t-135.5 71t-54 91.5z" />
<glyph unicode="6" horiz-adv-x="1082" d="M108 559q0 161 32.5 293t98.5 233.5t175 158t253 56.5q103 0 187 -41t84 -93q0 -23 -14 -41.5t-37 -18.5q-15 0 -31 11q-62 46 -144 46q-194 0 -295.5 -124.5t-109.5 -352.5q129 108 305 108q169 0 275 -105.5t106 -287.5q0 -193 -119 -311t-316 -118q-126 0 -216 43.5 t-140 125t-72 183.5t-22 235zM302 434q0 -155 63.5 -250.5t194.5 -95.5q113 0 177 81t64 215q0 135 -69 206t-189 71q-124 0 -236 -81q-5 -83 -5 -146z" />
<glyph unicode="7" horiz-adv-x="913" d="M46 1071v114q0 36 25.5 61.5t61.5 25.5h663q85 0 85 -90q0 -50 -30.5 -132.5t-57 -135.5t-79.5 -149l-53 -96q-96 -181 -146 -318.5t-63 -282.5q-4 -40 -33.5 -68t-68.5 -28q-36 0 -61.5 25t-25.5 60q0 133 80.5 321.5t191.5 360.5q160 248 195 376h-524l-11 -46 q-7 -29 -30 -47t-52 -18q-28 0 -47.5 19.5t-19.5 47.5z" />
<glyph unicode="8" horiz-adv-x="1066" d="M99 319q0 245 287 337q-114 44 -173 125.5t-59 192.5q0 79 32 142.5t86.5 103t122.5 60t143 20.5q76 0 142.5 -18.5t120.5 -55t85.5 -98t31.5 -140.5q0 -111 -58 -183.5t-177 -119.5q144 -59 212.5 -139.5t68.5 -208.5q0 -174 -124.5 -269.5t-317.5 -95.5 q-184 0 -303.5 91t-119.5 256zM278 334q0 -116 73 -179t186 -63q106 0 177 63t71 173q0 62 -18 106.5t-62.5 76.5t-76.5 47.5t-103 42.5q-2 1 -3.5 1.5l-3 1t-3.5 1.5q-103 -32 -170 -98.5t-67 -172.5zM324 986q0 -91 59.5 -155t165.5 -93q94 25 145 86.5t51 153.5 q0 97 -56 152.5t-151 55.5t-154.5 -52.5t-59.5 -147.5z" />
<glyph unicode="9" horiz-adv-x="1083" d="M90 871q0 193 119 311t316 118q126 0 216 -43.5t140 -125t72 -183.5t22 -235q0 -128 -20 -238t-63.5 -203.5t-108 -159.5t-157.5 -103t-209 -37q-103 0 -187.5 41t-84.5 93q0 23 14 41.5t36 18.5q18 0 32 -11q64 -46 144 -46q194 0 296 124.5t110 352.5 q-132 -109 -306 -109q-169 0 -275 105.5t-106 288.5zM281 888q0 -135 70 -206t189 -71q125 0 237 81q3 75 3 146q0 155 -63 250t-193 95q-114 0 -178.5 -80.5t-64.5 -214.5z" />
<glyph unicode=":" horiz-adv-x="533" d="M153 103q0 50 32 82.5t83 32.5q50 0 82 -32.5t32 -82.5q0 -51 -32 -83t-82 -32q-51 0 -83 32t-32 83zM153 807q0 50 32 82t83 32q50 0 82 -32t32 -82q0 -51 -32 -83t-82 -32q-51 0 -83 32t-32 83z" />
<glyph unicode=";" horiz-adv-x="538" d="M132 -235q0 21 15 31q58 44 85 92t27 113q-48 0 -78 30t-30 78q0 49 30 79t78 30q62 0 98 -48t36 -116q0 -62 -26.5 -125t-63 -105.5t-73.5 -69t-61 -26.5q-15 0 -26 11t-11 26zM153 807q0 51 32 83t83 32t83 -32t32 -83q0 -50 -32 -82.5t-83 -32.5t-83 32.5t-32 82.5z " />
<glyph unicode="&#x3c;" horiz-adv-x="1100" d="M62 535q0 33 17.5 61t48.5 41l759 334q15 6 32 6q32 0 55 -22.5t23 -54.5q0 -51 -48 -73l-677 -292l677 -293q22 -10 35 -29.5t13 -42.5q0 -31 -23 -54.5t-55 -23.5q-17 0 -32 6l-759 335q-31 13 -48.5 41t-17.5 61z" />
<glyph unicode="=" horiz-adv-x="1146" d="M122 341q0 33 23.5 57t56.5 24h743q33 0 56.5 -24t23.5 -57t-23.5 -56.5t-56.5 -23.5h-743q-33 0 -56.5 23.5t-23.5 56.5zM122 727q0 33 23.5 56.5t56.5 23.5h743q33 0 56.5 -23.5t23.5 -56.5t-23.5 -56.5t-56.5 -23.5h-743q-33 0 -56.5 23.5t-23.5 56.5z" />
<glyph unicode="&#x3e;" horiz-adv-x="1100" d="M104 170q0 23 12.5 42.5t34.5 29.5l678 293l-678 292q-22 10 -34.5 30t-12.5 43q0 32 23 54.5t55 22.5q16 0 31 -6l759 -334q31 -13 48.5 -41t17.5 -61t-17.5 -61t-48.5 -41l-759 -335q-15 -6 -31 -6q-32 0 -55 23.5t-23 54.5z" />
<glyph unicode="?" horiz-adv-x="856" d="M61 1057v83q0 160 337 160q174 0 283 -84.5t109 -235.5q0 -166 -131 -287l-116 -108q-88 -81 -88 -171v-31q0 -28 -19.5 -47t-47.5 -19t-47.5 19t-20.5 47v42q-1 66 22 116.5t76 107.5l47 51q66 71 99.5 132t33.5 127q0 224 -235 224q-63 0 -112 -22l-32 -107 q-9 -29 -33.5 -47.5t-55.5 -18.5q-28 0 -48.5 20t-20.5 49zM271 103q0 50 32 82.5t82 32.5q51 0 83 -32.5t32 -82.5q0 -51 -32 -83t-83 -32q-50 0 -82 32t-32 83z" />
<glyph unicode="@" horiz-adv-x="1472" d="M80 575q0 145 46.5 276t129.5 231t209 159t276 59q194 0 345.5 -79.5t235 -224.5t83.5 -331q0 -82 -21.5 -162.5t-62 -149t-108 -111t-151.5 -42.5q-89 0 -139 51t-52 141l-1 1q-89 -193 -240 -193q-69 0 -116 46t-65 108.5t-18 133.5q0 80 23.5 159t67 144.5t113.5 106 t154 40.5q54 0 88.5 -17t57.5 -57q8 28 22.5 40.5t40.5 12.5q16 0 27.5 -11.5t11.5 -27.5q0 -9 -1 -11q-50 -291 -50 -356q0 -40 1.5 -65t8.5 -55.5t19.5 -47.5t36.5 -28.5t58 -11.5q46 0 81 36.5t53 92.5t26.5 110t8.5 101q0 241 -143.5 390.5t-392.5 149.5q-99 0 -186 -33 t-151 -91.5t-110.5 -135.5t-70 -167.5t-23.5 -185.5q0 -121 37.5 -228t105 -187.5t171 -127.5t227.5 -47q59 0 108 5t55 5q21 0 37 -15t16 -36q0 -64 -218 -64q-200 0 -352 94t-230.5 252t-78.5 354zM552 495q0 -76 28.5 -131t90.5 -55q55 0 102 51t74.5 127t43 156 t15.5 146q-34 41 -110 41q-78 0 -135.5 -55t-83 -129t-25.5 -151z" />
<glyph unicode="A" horiz-adv-x="1219" d="M-2 51q0 22 14 39.5t36 21.5l61 13l369 1078q15 43 52.5 70t83.5 27t84 -27t52 -70l352 -1078l62 -13q22 -4 35.5 -21.5t13.5 -39.5q0 -21 -14.5 -36t-35.5 -15h-309q-21 0 -36 15t-15 36q0 22 14 39.5t36 21.5l64 13l-105 319h-441l-102 -319l59 -13q22 -4 35.5 -21.5 t13.5 -39.5q0 -21 -14.5 -36t-35.5 -15h-278q-21 0 -36 15t-15 36zM409 556h366l-184 593z" />
<glyph unicode="B" horiz-adv-x="1141" d="M90 51q0 22 14 38t36 20l95 16v1022l-95 16q-22 3 -36 20t-14 39q0 21 15 35.5t36 14.5h371q54 0 98 -2.5t95.5 -10.5t91 -22t77.5 -38t63 -56.5t40 -80.5t15 -107q0 -119 -71 -199.5t-191 -101.5v-1q148 -17 229 -99t81 -217q0 -337 -480 -337h-419q-21 0 -36 15t-15 36 zM408 117h128q63 0 113 9t98 32t75 70.5t27 116.5t-21.5 115.5t-67 73t-104.5 38.5t-145 14q-71 2 -71 57q0 25 17.5 40.5t46.5 16.5q147 5 223.5 58t76.5 177t-74 172t-238 48h-84v-1038z" />
<glyph unicode="C" horiz-adv-x="1155" d="M92 593q0 323 174 515t474 192q332 0 332 -156v-94q0 -28 -20 -48.5t-49 -20.5q-31 0 -55 18.5t-33 47.5l-33 105q-47 25 -121 25q-229 0 -354.5 -144.5t-125.5 -409.5q0 -104 25.5 -189t67.5 -140t97 -93t111.5 -54.5t114.5 -16.5q139 0 278 82q12 8 30 8 q26 0 42.5 -15.5t16.5 -40.5q0 -46 -60.5 -91t-150.5 -73t-175 -28q-78 0 -158 22.5t-157.5 72t-137 120t-96.5 176t-37 230.5z" />
<glyph unicode="D" horiz-adv-x="1334" d="M92 51q0 22 14.5 38.5t36.5 20.5l89 15v1022l-89 15q-22 4 -36.5 21t-14.5 39q0 21 15 35.5t36 14.5h420q674 0 674 -625q0 -140 -37 -251t-99.5 -184t-151 -121.5t-186 -69.5t-209.5 -21h-411q-21 0 -36 15t-15 36zM406 117h149q238 0 362.5 132.5t124.5 393.5 q0 267 -121.5 389.5t-371.5 122.5h-143v-1038z" />
<glyph unicode="E" d="M93 51q0 22 14.5 38.5t35.5 20.5l89 15v1022l-89 15q-22 4 -36 21t-14 39q0 21 15 35.5t36 14.5h774q36 0 61.5 -25.5t25.5 -61.5v-107q0 -25 -17 -42t-42 -17q-26 0 -46.5 15.5t-28.5 41.5l-24 79h-440v-440h376q26 0 45 -18.5t19 -43.5q0 -26 -19 -45t-45 -19h-376 v-472h456l24 89q7 25 28 41t47 16q25 0 42 -17t17 -41v-118q0 -36 -26 -61.5t-62 -25.5h-789q-21 0 -36 15t-15 36z" />
<glyph unicode="F" horiz-adv-x="1011" d="M90 51q0 22 14 38t36 20l95 16v1022l-95 16q-22 3 -36 20t-14 39q0 21 15 35.5t36 14.5h741q36 0 61.5 -25.5t25.5 -61.5v-106q0 -25 -17.5 -42.5t-42.5 -17.5q-26 0 -46.5 16t-28.5 42l-22 78h-403v-440h339q26 0 45 -18.5t19 -43.5q0 -26 -19 -45t-45 -19h-339v-464 l107 -16q22 -3 36 -19.5t14 -38.5q0 -21 -14.5 -36t-35.5 -15h-375q-21 0 -36 15t-15 36z" />
<glyph unicode="G" horiz-adv-x="1299" d="M93 594q0 338 186 522t506 184q339 0 339 -150v-100q0 -28 -20 -48.5t-49 -20.5q-31 0 -55.5 18.5t-33.5 47.5l-33 108q-53 23 -130 23q-245 0 -381 -142.5t-136 -415.5q0 -523 506 -523q75 0 148 20v328l-98 15q-21 3 -35.5 20t-14.5 39q0 21 14.5 36t35.5 15h351 q21 0 36 -15t15 -36q0 -22 -14 -38.5t-36 -20.5l-82 -15v-314q0 -159 -408 -159q-134 0 -245.5 40.5t-193 117t-127 195.5t-45.5 269z" />
<glyph unicode="H" horiz-adv-x="1398" d="M90 51q0 22 14.5 38.5t35.5 19.5l95 16v1022l-95 16q-21 3 -35.5 20t-14.5 39q0 21 15 35.5t36 14.5h357q21 0 35.5 -14.5t14.5 -35.5q0 -22 -14 -39t-36 -21l-88 -15v-429h580v429l-90 15q-21 4 -35.5 21t-14.5 39q0 21 15 35.5t36 14.5h357q21 0 35.5 -14.5t14.5 -35.5 q0 -22 -14.5 -39t-35.5 -20l-95 -16v-1022l95 -16q21 -4 35.5 -20.5t14.5 -37.5t-14.5 -36t-35.5 -15h-357q-21 0 -36 15t-15 36q0 22 14.5 38.5t35.5 20.5l90 15v467h-580v-467l88 -15q21 -4 35.5 -20.5t14.5 -38.5q0 -21 -14.5 -36t-35.5 -15h-357q-21 0 -36 15t-15 36z " />
<glyph unicode="I" horiz-adv-x="644" d="M90 51q0 22 14 38t36 20l95 16v1022l-95 16q-22 3 -36 20t-14 39q0 21 15 35.5t36 14.5h362q21 0 36 -14.5t15 -35.5q0 -22 -14.5 -38.5t-36.5 -20.5l-93 -16v-1022l93 -16q22 -3 36.5 -19.5t14.5 -38.5q0 -21 -15 -36t-36 -15h-362q-21 0 -36 15t-15 36z" />
<glyph unicode="J" horiz-adv-x="886" d="M34 118v105q0 28 20.5 48.5t49.5 20.5q31 0 55 -18.5t33 -47.5l32 -105q30 -31 89 -31q50 0 87 25.5t57.5 65.5t33 101.5t16 119.5t3.5 135v610l-100 16q-21 3 -35 20t-14 39q0 21 15 35.5t36 14.5h360q21 0 35.5 -14.5t14.5 -35.5q0 -22 -14 -39t-36 -21l-83 -15v-690 q0 -242 -90.5 -363.5t-301.5 -121.5q-47 0 -89 6.5t-83.5 21.5t-66 45.5t-24.5 72.5z" />
<glyph unicode="K" horiz-adv-x="1201" d="M90 51q0 22 14 38t36 20l95 16v1022l-95 16q-22 3 -36 20t-14 39q0 21 15 35.5t36 14.5h357q21 0 36 -14.5t15 -35.5q0 -22 -14 -39t-36 -21l-90 -15v-1022l90 -15q22 -4 36 -20.5t14 -38.5q0 -21 -15 -36t-36 -15h-357q-21 0 -36 15t-15 36zM447 661q0 39 26 70l355 421 l-51 9q-22 4 -36 21.5t-14 39.5q0 21 15 35.5t36 14.5h323q21 0 36 -14.5t15 -35.5q0 -22 -14 -39t-36 -21l-92 -15l-403 -447l450 -575l78 -14q21 -4 35.5 -21t14.5 -39q0 -21 -15 -36t-36 -15h-120q-87 0 -140 69l-405 526q-22 29 -22 66z" />
<glyph unicode="L" horiz-adv-x="1019" d="M93 51q0 22 14.5 38.5t35.5 20.5l89 15v1022l-89 15q-22 4 -36 21t-14 39q0 21 15 35.5t36 14.5h363q21 0 35.5 -14.5t14.5 -35.5q0 -22 -14 -39t-35 -20l-101 -16v-1030h412l20 86q7 28 30.5 46.5t52.5 18.5q28 0 47.5 -19.5t19.5 -47.5v-114q0 -36 -26 -61.5t-62 -25.5 h-757q-21 0 -36 15t-15 36z" />
<glyph unicode="M" horiz-adv-x="1707" d="M90 51q0 22 14 38.5t35 19.5l95 16v1022l-93 16q-22 4 -36 20.5t-14 38.5q0 21 15 35.5t36 14.5h272q40 0 72.5 -22t47.5 -59l311 -750l316 750q15 37 48 59t73 22h285q21 0 35.5 -14.5t14.5 -35.5q0 -22 -14.5 -38.5t-35.5 -20.5l-93 -16v-1022l90 -15q22 -4 36.5 -20.5 t14.5 -38.5q0 -21 -15 -36t-36 -15h-353q-21 0 -36 15t-15 36q0 22 14 38.5t36 20.5l91 15v1024l-1 1l-359 -824q-14 -33 -43.5 -52.5t-65.5 -19.5t-66 19.5t-43 52.5l-348 811h-1v-1012l90 -15q22 -4 36 -20.5t14 -38.5q0 -21 -15 -36t-36 -15h-322q-21 0 -36 15t-15 36z " />
<glyph unicode="N" horiz-adv-x="1384" d="M90 51q0 22 14.5 38t36.5 20l94 16v1022l-94 16q-22 4 -36.5 20.5t-14.5 38.5q0 21 15 36t36 15h221q41 0 75.5 -20.5t53.5 -56.5l539 -985v936l-95 16q-21 3 -35.5 20t-14.5 39q0 21 15 36t36 15h323q21 0 35.5 -15t14.5 -36q0 -22 -13.5 -38.5t-35.5 -20.5l-89 -16 v-1076q0 -35 -24.5 -59.5t-58.5 -24.5q-40 0 -73 19.5t-53 53.5l-585 1020v-955l94 -16q21 -3 35 -19.5t14 -38.5q0 -21 -14.5 -36t-35.5 -15h-329q-21 0 -36 15t-15 36z" />
<glyph unicode="O" horiz-adv-x="1336" d="M100 609q0 202 64.5 356.5t197 244.5t316.5 90q263 0 410.5 -172.5t147.5 -463.5q0 -200 -65 -355t-197.5 -246t-316.5 -91q-261 0 -409 174.5t-148 462.5zM295 636q0 -121 20.5 -216.5t63 -168.5t114 -112t168.5 -39q98 0 172 39t118.5 111.5t66.5 168.5t22 217 t-20.5 216.5t-63 168.5t-114 112t-168.5 39q-193 0 -286 -143.5t-93 -392.5z" />
<glyph unicode="P" horiz-adv-x="1066" d="M91 51q0 22 14.5 38.5t35.5 19.5l94 16v1020l-93 15q-22 4 -36.5 21t-14.5 39q0 21 15.5 36.5t36.5 15.5h398q83 0 147.5 -8t127 -31.5t103 -62.5t65.5 -104.5t25 -153.5q0 -390 -509 -390q-24 0 -41 17t-17 41t17 40.5t42 17.5q165 4 241.5 70.5t76.5 198.5 q0 137 -72.5 193t-224.5 56h-112v-1031l107 -16q22 -3 36 -19.5t14 -38.5q0 -21 -15 -36t-36 -15h-374q-21 0 -36 15t-15 36z" />
<glyph unicode="Q" horiz-adv-x="1339" d="M102 609q0 202 65 356.5t197 244.5t316 90q263 0 410.5 -172.5t147.5 -463.5q0 -120 -25.5 -226t-64 -178t-84 -124.5t-86.5 -77t-70 -24.5q-28 0 -53 19.5t-25 47.5q0 34 30 53q182 121 182 482q0 121 -20.5 216.5t-63.5 168.5t-114.5 112t-168.5 39q-98 0 -171.5 -39 t-118.5 -111t-66.5 -168.5t-21.5 -217.5t20.5 -216.5t63 -168.5t114 -112t168.5 -39q116 0 153 -50q82 -111 166.5 -160t159.5 -49q10 0 41.5 4t49.5 4q21 0 37 -15t16 -36q0 -23 -15.5 -39.5t-35 -24.5t-53.5 -12.5t-55 -5t-55 -0.5q-79 0 -140.5 17t-110.5 54t-84.5 78.5 t-77.5 106.5q-261 0 -409 174.5t-148 462.5z" />
<glyph unicode="R" horiz-adv-x="1169" d="M90 51q0 22 14.5 38t36.5 20l94 16v1022l-94 16q-22 3 -36.5 20t-14.5 39q0 21 15 35.5t36 14.5h445q195 0 300.5 -73t105.5 -238q0 -134 -81.5 -220.5t-222.5 -108.5v-1q26 -2 49 -10.5t40 -18t35.5 -31t30.5 -37.5t29.5 -49.5t27.5 -54.5t30 -65q69 -153 98 -193 q41 -57 106 -68q10 -1 21 -2q21 -2 36 -16t15 -35t-15 -36t-36 -15h-101q-47 0 -87 17.5t-65 42t-48 62t-35.5 66.5t-27 67.5t-22.5 54.5q-27 58 -46 93.5t-44.5 73t-50 57.5t-57 33.5t-71.5 15.5q-24 1 -41 17t-17 40q0 25 17.5 41.5t47.5 17.5q147 5 222.5 63t75.5 187 q0 109 -76.5 157.5t-226.5 48.5h-92v-1030l96 -16q22 -3 35.5 -19.5t13.5 -38.5q0 -21 -14.5 -36t-35.5 -15h-364q-21 0 -36 15t-15 36z" />
<glyph unicode="S" horiz-adv-x="980" d="M98 141v83q0 28 20 48t49 20q31 0 55.5 -18t33.5 -47l33 -108q60 -27 128 -27q59 0 110.5 11.5t95 36t68.5 67t25 98.5q0 62 -33 110.5t-86.5 82.5t-117.5 65t-128 65.5t-117.5 76t-86.5 105.5t-33 145q0 157 113.5 251t297.5 94q38 0 73 -2.5t82.5 -12t82 -26t59 -47.5 t24.5 -73v-82q0 -29 -20 -49t-49 -20q-31 0 -55.5 18.5t-33.5 47.5l-32 107q-45 20 -123 20q-108 0 -176.5 -50.5t-68.5 -139.5q0 -60 33.5 -108t86.5 -80.5t117.5 -62.5t129 -64.5t117.5 -75.5t86.5 -106t33.5 -147q0 -173 -121.5 -274t-310.5 -101q-362 0 -362 169z" />
<glyph unicode="T" horiz-adv-x="1125" d="M33 1083v102q0 36 25 61.5t62 25.5h885q36 0 62 -25.5t26 -61.5v-102q0 -27 -20 -46.5t-47 -19.5q-29 0 -51.5 18t-30.5 46l-20 76h-274v-1032l101 -16q22 -3 36 -19.5t14 -38.5q0 -21 -15 -36t-36 -15h-376q-21 0 -36 15t-15 36q0 22 14 38.5t36 19.5l103 16v1032h-275 l-19 -76q-8 -28 -30.5 -46t-51.5 -18q-28 0 -47.5 19t-19.5 47z" />
<glyph unicode="U" horiz-adv-x="1322" d="M64 1222q0 21 15 35.5t36 14.5h343q21 0 36 -14.5t15 -35.5q0 -22 -14 -39t-36 -21l-88 -15v-635q0 -82 6.5 -141t26 -114t53 -88.5t89 -53.5t132.5 -20q58 0 103.5 11t77.5 29t55 48.5t36.5 63.5t21 80t10 90.5t2.5 103.5v626l-86 15q-22 4 -36 21t-14 39q0 21 15 35.5 t36 14.5h311q21 0 35.5 -14.5t14.5 -35.5q0 -22 -14 -39t-36 -21l-86 -15v-649q0 -130 -21 -222t-72 -163t-143 -106t-228 -35q-250 0 -356.5 123.5t-106.5 378.5v673l-83 15q-22 4 -36 21t-14 39z" />
<glyph unicode="V" horiz-adv-x="1214" d="M5 1222q0 21 14.5 35.5t35.5 14.5h324q21 0 35.5 -14.5t14.5 -35.5q0 -22 -14 -39.5t-36 -21.5l-66 -14l311 -1016l317 1016l-62 13q-22 4 -35.5 21.5t-13.5 40.5q0 21 14.5 35.5t35.5 14.5h287q21 0 36 -14.5t15 -35.5q0 -22 -14 -39.5t-36 -21.5l-67 -14l-383 -1089 q-13 -39 -45.5 -62.5t-72.5 -23.5t-71.5 23.5t-44.5 63.5l-358 1088l-71 14q-22 4 -36 21.5t-14 39.5z" />
<glyph unicode="W" horiz-adv-x="1836" d="M11 1222q0 21 14.5 35.5t35.5 14.5h308q21 0 36 -14.5t15 -35.5q0 -22 -14 -40t-35 -22l-66 -13l247 -1005l265 1035q10 42 44.5 68.5t78.5 26.5q43 0 77 -27t44 -69l242 -1040l261 1011l-59 13q-22 4 -35.5 21.5t-13.5 40.5q0 21 14.5 35.5t35.5 14.5h280q21 0 36 -14.5 t15 -35.5q0 -22 -14 -40t-36 -22l-64 -13l-316 -1082q-13 -42 -45.5 -67.5t-74.5 -25.5q-41 0 -72.5 26t-42.5 68l-247 999l-265 -997q-11 -43 -44.5 -69.5t-76.5 -26.5q-44 0 -77.5 26.5t-44.5 69.5l-293 1079l-64 13q-21 4 -35 22t-14 40z" />
<glyph unicode="X" horiz-adv-x="1236" d="M17 51q0 22 14.5 38.5t35.5 21.5l75 14l380 526l-345 496l-74 14q-22 4 -36 21.5t-14 39.5q0 21 15 35.5t36 14.5h342q21 0 35.5 -14.5t14.5 -35.5q0 -22 -14 -40t-35 -22l-63 -13l253 -368l255 368l-59 12q-22 4 -35.5 22t-13.5 41q0 21 14.5 35.5t35.5 14.5h300 q21 0 36 -14.5t15 -35.5q0 -22 -14 -39.5t-36 -21.5l-75 -14l-343 -480l379 -542l73 -14q22 -4 35.5 -21t13.5 -39q0 -21 -14.5 -36t-35.5 -15h-343q-21 0 -36 15t-15 36q0 22 13.5 39t35.5 21l66 14l-289 416l-278 -416l64 -13q22 -4 36 -21.5t14 -39.5q0 -21 -15 -36 t-36 -15h-317q-21 0 -36 15t-15 36z" />
<glyph unicode="Y" horiz-adv-x="1174" d="M0 1222q0 21 15 35.5t36 14.5h323q21 0 36 -14.5t15 -35.5q0 -22 -14.5 -39.5t-35.5 -22.5l-65 -13l295 -509l293 509l-68 14q-22 4 -36 21.5t-14 39.5q0 21 15 35.5t36 14.5h296q21 0 35.5 -14.5t14.5 -35.5q0 -22 -14 -40t-35 -22l-64 -13l-392 -648v-374l108 -16 q22 -3 36.5 -19.5t14.5 -38.5q0 -21 -15 -36t-36 -15h-389q-21 0 -35.5 15t-14.5 36q0 22 14.5 38.5t35.5 19.5l108 16v370l-379 652l-70 14q-22 4 -36 21.5t-14 39.5z" />
<glyph unicode="Z" horiz-adv-x="1090" d="M74 71q0 71 42 129l688 952h-526l-18 -71q-8 -28 -30.5 -46t-51.5 -18q-28 0 -47.5 19t-19.5 47v102q0 36 25.5 61.5t61.5 25.5h725q29 0 49.5 -21t20.5 -50q0 -71 -41 -128l-694 -953h570l20 83q7 29 30 47t52 18q28 0 47.5 -19.5t19.5 -47.5v-114q0 -36 -25.5 -61.5 t-61.5 -25.5h-764q-29 0 -50.5 21t-21.5 50z" />
<glyph unicode="[" horiz-adv-x="551" d="M162 -212v1442q0 36 25.5 61t61.5 25h208q23 0 39 -16t16 -39t-16 -39t-39 -16h-151v-1394h151q23 0 39 -16t16 -39t-16 -39.5t-39 -16.5h-208q-36 0 -61.5 25.5t-25.5 61.5z" />
<glyph unicode="\" horiz-adv-x="727" d="M58 1269q0 29 21.5 50t49.5 21q22 0 40.5 -13t25.5 -35l482 -1366q4 -16 4 -23q0 -29 -21 -49.5t-49 -20.5q-22 0 -41 13t-26 34l-481 1366q-5 20 -5 23z" />
<glyph unicode="]" horiz-adv-x="551" d="M39 -243q0 23 16 39t39 16h151v1394h-151q-23 0 -39 16t-16 39t16 39t39 16h208q36 0 61.5 -25t25.5 -61v-1442q0 -36 -25.5 -61.5t-61.5 -25.5h-208q-23 0 -39 16.5t-16 39.5z" />
<glyph unicode="^" horiz-adv-x="797" d="M43 630q0 14 7 31l250 566q13 29 39.5 46.5t58.5 17.5t58.5 -17.5t39.5 -46.5l252 -568q6 -15 6 -30q0 -31 -22 -53t-53 -22q-22 0 -41 12t-28 33l-212 487l-211 -485q-9 -21 -28 -33.5t-41 -12.5q-30 0 -52.5 22t-22.5 53z" />
<glyph unicode="_" horiz-adv-x="1082" d="M22 -165h1039v-103h-1039v103z" />
<glyph unicode="`" horiz-adv-x="368" d="M18 1289q0 21 24 21h93q50 0 76 -42l112 -184q6 -10 6 -20q0 -14 -10 -24t-26 -10q-63 0 -103 48l-165 194q-7 8 -7 17z" />
<glyph unicode="a" horiz-adv-x="967" d="M71 261q0 73 22 127t60 88t97.5 54.5t126 28t154.5 7.5h98v90q0 112 -41.5 162t-142.5 50q-65 0 -106 -23l-21 -64q-9 -29 -33 -47t-55 -18q-28 0 -48 20t-20 48v17q0 53 31 90t84 55t105 25t111 7q97 0 159 -23t92 -71.5t39.5 -102.5t9.5 -138v-529l64 -11 q21 -3 34.5 -19t13.5 -37q0 -20 -13.5 -35.5t-34.5 -17.5l-152 -17h-7q-25 0 -43 19q-21 22 -21 52v54q-104 -125 -270 -125q-133 0 -213 76.5t-80 207.5zM246 276q0 -80 50.5 -121t133.5 -41q102 0 199 55v298l-138 -7q-245 -12 -245 -184z" />
<glyph unicode="b" horiz-adv-x="1057" d="M26 1345q0 21 14.5 37t35.5 17l165 16h7q25 -1 43 -19q21 -22 21 -52v-484q109 118 279 118q178 0 276 -130.5t98 -336.5q0 -248 -124 -391t-322 -143q-70 0 -130 6t-117.5 21t-91 45.5t-33.5 73.5v1156l-72 10q-21 3 -35 19t-14 37zM312 133q89 -34 157 -34 q156 0 238.5 101.5t82.5 283.5q0 358 -278 358q-121 0 -200 -54v-655z" />
<glyph unicode="c" horiz-adv-x="907" d="M91 452q0 235 123.5 380.5t330.5 145.5q286 0 286 -142v-52q0 -28 -20 -48t-48 -20q-31 0 -55 18t-33 47l-22 68q-42 16 -83 16q-145 0 -225 -101t-80 -282q0 -173 71.5 -261.5t196.5 -88.5q97 0 223 62q9 4 21 4q21 0 35 -16.5t14 -38.5q0 -33 -46 -71.5t-123 -66.5 t-154 -28q-198 0 -305 127t-107 348z" />
<glyph unicode="d" horiz-adv-x="1100" d="M92 448q0 236 121 383t322 147q104 0 214 -67v368l-74 10q-21 3 -34.5 19t-13.5 37t14 37t35 17l166 16h7q25 -1 43 -19q20 -22 20 -52v-1230l77 -11q21 -3 34.5 -19t13.5 -37t-14 -37t-35 -17l-163 -16h-7q-24 0 -42 19q-20 22 -21 53v51q-54 -60 -129.5 -91.5 t-159.5 -31.5q-174 0 -274 127.5t-100 343.5zM269 474q0 -360 282 -360q96 0 198 54v652q-73 36 -163 36q-150 0 -233.5 -102.5t-83.5 -279.5z" />
<glyph unicode="e" horiz-adv-x="957" d="M93 455q0 156 44.5 271.5t142 183.5t240.5 68q81 0 144.5 -24.5t102.5 -64.5t64.5 -95.5t35.5 -111.5t10 -119q0 -39 -21.5 -61t-56.5 -22h-530q0 -174 66 -266t220 -92q109 0 208 54q11 6 22 6q20 0 34 -16t14 -38q0 -46 -92 -98.5t-221 -52.5q-427 0 -427 478zM270 576 l430 27q0 124 -50 193t-152 69q-114 0 -167 -76t-61 -213z" />
<glyph unicode="f" horiz-adv-x="630" d="M74 901q0 23 16 38.5t38 15.5h82v91q0 369 372 369q29 0 49.5 -1t51 -4.5t51.5 -11.5t41.5 -21t31 -35t10.5 -51v-55q0 -29 -20 -49.5t-49 -20.5q-31 0 -56 18.5t-36 47.5l-27 80q-20 2 -31 2q-103 0 -163.5 -60.5t-60.5 -184.5v-114h153q22 0 38 -16t16 -38t-16 -38 t-38 -16h-153v-724l107 -16q21 -3 35 -19.5t14 -37.5t-14.5 -35.5t-34.5 -14.5h-344q-21 0 -35.5 14.5t-14.5 35.5q0 22 14 38t35 21l74 14v724h-82q-22 0 -38 15.5t-16 38.5z" />
<glyph unicode="g" horiz-adv-x="1037" d="M35 -186q0 45 20.5 85t49.5 64.5t57.5 39t47.5 14.5q20 0 37.5 -8t17.5 -27q0 -13 -8 -21q-48 -59 -48 -121q0 -86 74 -132.5t200 -46.5q139 0 228.5 59.5t89.5 161.5q0 34 -14.5 58t-35.5 36.5t-55.5 20t-63 9t-70.5 1.5q-51 0 -85 1t-88.5 5t-91.5 13.5t-74 25 t-56 41.5t-19 60q0 52 38.5 98.5t112.5 81.5q-92 37 -141.5 116t-49.5 180q0 156 105.5 252.5t264.5 96.5q124 0 222 -64q118 48 225 48q38 0 58.5 -20t20.5 -51q0 -29 -20 -49.5t-49 -20.5h-155q63 -89 63 -195q0 -148 -107.5 -237t-284.5 -89q-10 0 -50 4q-77 -38 -77 -95 q0 -51 57.5 -62t231.5 -11q62 0 105.5 -3t94.5 -16t82.5 -36t53 -65.5t21.5 -102.5q0 -167 -147.5 -265.5t-374.5 -98.5q-83 0 -156.5 16.5t-131 48.5t-91.5 83.5t-34 116.5zM278 655q0 -111 52 -182t142 -71q91 0 148 56.5t57 161.5q0 112 -53 184.5t-144 72.5 q-92 0 -147 -57.5t-55 -164.5z" />
<glyph unicode="h" horiz-adv-x="1115" d="M63 50q0 22 13.5 37.5t34.5 20.5l78 15v1156l-72 10q-21 3 -35 19t-14 37t14 37t35 17l164 16h7q25 -1 43 -19q21 -22 21 -52v-480q120 114 293 114q154 0 222.5 -79.5t68.5 -242.5v-533l67 -14q21 -5 34.5 -21t13.5 -38q0 -21 -14 -35.5t-35 -14.5h-302q-21 0 -35 14.5 t-14 35.5q0 22 13.5 38t34.5 21l72 14v452q0 148 -42.5 208.5t-163.5 60.5q-131 0 -213 -126v-595l68 -14q21 -5 35 -21t14 -38q0 -21 -14.5 -35.5t-34.5 -14.5h-308q-21 0 -35 14.5t-14 35.5z" />
<glyph unicode="i" horiz-adv-x="558" d="M84 50q0 22 14 38t35 21l76 14v718l-78 12q-20 3 -33.5 18.5t-13.5 36.5t14 36t34 17l170 17q29 3 50.5 -19t21.5 -52v-784l66 -14q21 -5 35 -21t14 -38q0 -21 -15 -35.5t-35 -14.5h-305q-21 0 -35.5 14.5t-14.5 35.5zM157 1237q0 51 32 83t82 32q51 0 83 -32t32 -83 q0 -50 -32 -82t-83 -32q-50 0 -82 32t-32 82z" />
<glyph unicode="j" horiz-adv-x="508" d="M-156 -273q0 28 20 48t48 20q31 0 55.5 -18t33.5 -47l26 -83q40 0 68 13t50 44.5t33 89.5t11 143v904l-77 12q-21 3 -34 18.5t-13 36.5t13.5 37t34.5 17l170 16q29 3 50 -18.5t21 -52.5v-980q0 -189 -73.5 -283.5t-246.5 -94.5q-29 0 -51 1.5t-50 8t-46 18t-30.5 33.5 t-12.5 52v65zM135 1237q0 50 32 82t82 32q51 0 83 -32t32 -82q0 -51 -32 -83t-83 -32q-50 0 -82 32t-32 83z" />
<glyph unicode="k" horiz-adv-x="1024" d="M63 50q0 21 14 37t35 21l78 15v1156l-73 10q-21 3 -34.5 19t-13.5 37t13.5 37t34.5 17l165 16h7q25 -1 43 -19q21 -22 21 -52v-1221l67 -14q21 -5 35 -21t14 -38q0 -21 -15 -35.5t-35 -14.5h-306q-20 0 -35 14.5t-15 35.5zM391 511q0 36 25 64l248 267l-29 7 q-20 5 -33 21.5t-13 37.5q0 20 13.5 33.5t33.5 13.5h278q20 0 34.5 -14t14.5 -34q0 -21 -13.5 -37t-33.5 -20l-86 -14l-289 -289l341 -423l64 -14q21 -4 34.5 -21t13.5 -39q0 -21 -14.5 -35.5t-34.5 -14.5h-106q-78 0 -126 62l-303 393q-19 25 -19 56z" />
<glyph unicode="l" horiz-adv-x="554" d="M72 50q0 22 13.5 37.5t34.5 20.5l78 15v1156l-73 10q-21 3 -34.5 19t-13.5 37t14 37t35 17l164 16h7q25 -1 43 -19q21 -22 21 -52v-1221l68 -14q21 -5 35 -21t14 -38q0 -21 -15 -35.5t-35 -14.5h-306q-21 0 -35.5 14.5t-14.5 35.5z" />
<glyph unicode="m" horiz-adv-x="1664" d="M84 50q0 22 14 38t35 21l77 14v719l-77 10q-21 3 -35 19t-14 37t14 37t35 17l164 16h7q26 0 44 -19q22 -22 21 -52v-46q127 117 287 117q168 0 236 -126q145 126 307 126q151 0 220 -81t69 -242v-532l66 -14q21 -5 35 -21t14 -38q0 -21 -15 -35.5t-35 -14.5h-298 q-21 0 -35 14.5t-14 35.5q0 22 13.5 38t34.5 21l69 14v450q0 144 -44 207.5t-150 63.5q-57 0 -111.5 -35.5t-86.5 -84.5v-601l62 -14q21 -5 35 -21t14 -38q0 -21 -15 -35.5t-35 -14.5h-293q-21 0 -35.5 14.5t-14.5 35.5q0 22 14 38t35 21l68 14v450q0 144 -44.5 207.5 t-149.5 63.5q-58 0 -112.5 -36.5t-85.5 -89.5v-595l67 -14q21 -5 34.5 -21t13.5 -38q0 -21 -14.5 -35.5t-34.5 -14.5h-306q-20 0 -35 14.5t-15 35.5z" />
<glyph unicode="n" horiz-adv-x="1133" d="M84 50q0 22 13.5 38t34.5 21l76 14v719l-76 10q-21 3 -34.5 19t-13.5 37t13.5 37t34.5 17l165 16h7q25 0 43 -18q21 -22 21 -53v-45q123 116 294 116q156 0 225.5 -79.5t69.5 -242.5v-533l66 -14q21 -5 35 -21t14 -38q0 -21 -14.5 -35.5t-35.5 -14.5h-301q-21 0 -35 14.5 t-14 35.5q0 22 13.5 38t34.5 21l71 14v452q0 148 -42.5 208.5t-162.5 60.5q-131 0 -213 -126v-595l67 -14q21 -5 34.5 -21t13.5 -38q0 -21 -14 -35.5t-35 -14.5h-306q-21 0 -35 14.5t-14 35.5z" />
<glyph unicode="o" horiz-adv-x="1052" d="M91 463q0 234 120 374.5t327 140.5q197 0 310.5 -130.5t113.5 -354.5q0 -235 -119.5 -375.5t-326.5 -140.5q-197 0 -311 131.5t-114 354.5zM273 474q0 -192 62 -285.5t188 -93.5q128 0 191 94t63 288q0 89 -12 155.5t-39.5 119.5t-78 80.5t-122.5 27.5q-252 0 -252 -386z " />
<glyph unicode="p" horiz-adv-x="1097" d="M63 -378q0 22 14 38.5t35 20.5l77 14v1147l-78 10q-21 3 -34.5 19t-13.5 37t13.5 37t34.5 17l165 16h7q25 0 43 -18q21 -22 21 -53v-49q119 120 287 120q177 0 274.5 -130.5t97.5 -336.5q0 -249 -123.5 -391.5t-321.5 -142.5q-106 0 -209 64v-346l89 -15q22 -4 35.5 -20 t13.5 -38q0 -21 -14.5 -35.5t-35.5 -14.5h-328q-21 0 -35 14.5t-14 35.5zM352 143q83 -44 159 -44q156 0 238 101.5t82 284.5q0 358 -277 358q-45 0 -104.5 -14t-97.5 -41v-645z" />
<glyph unicode="q" horiz-adv-x="1056" d="M92 444q0 237 121.5 385.5t327.5 148.5q368 0 368 -145v-1138l75 -14q21 -5 35 -21t14 -38q0 -21 -14.5 -35.5t-35.5 -14.5h-313q-21 0 -35.5 14.5t-14.5 35.5q0 22 14 38.5t35 20.5l77 14v384q-117 -102 -281 -102q-174 0 -273.5 125.5t-99.5 341.5zM269 470 q0 -358 280 -358q102 0 197 53v655q-86 34 -162 34q-150 0 -232.5 -103t-82.5 -281z" />
<glyph unicode="r" horiz-adv-x="814" d="M84 50q0 22 14 38t35 21l76 14v719l-76 10q-21 3 -35 19t-14 37t14 37t35 17l164 16h7q25 0 43 -18q21 -22 21 -53v-66q121 137 286 137q120 0 120 -99v-83q0 -26 -19 -45t-45 -19q-63 0 -97 55l-24 39q-75 0 -131 -30t-84 -74v-599l102 -16q21 -3 35 -19.5t14 -37.5 t-14.5 -35.5t-34.5 -14.5h-342q-21 0 -35.5 14.5t-14.5 35.5z" />
<glyph unicode="s" horiz-adv-x="831" d="M95 709q0 126 88.5 197.5t239.5 71.5q287 0 287 -134v-60q0 -28 -20.5 -48t-48.5 -20q-31 0 -55.5 18t-33.5 47l-21 68q-33 17 -95 17q-77 0 -126.5 -32.5t-49.5 -95.5q0 -45 50.5 -83t122 -70t143 -69t122 -98.5t50.5 -140.5q0 -136 -92 -218t-247 -82q-305 0 -305 137 v57q0 28 20.5 48.5t48.5 20.5q31 0 55 -18t33 -47l23 -73q34 -14 93 -14q93 0 149.5 37.5t56.5 113.5q0 40 -27 73t-70 56.5t-95 46.5t-104 49t-95 57.5t-70 79.5t-27 108z" />
<glyph unicode="t" horiz-adv-x="707" d="M43 894q0 46 43 66l100 45l50 143q7 22 26.5 36t42.5 14q22 0 37.5 -15t15.5 -37v-191h242q22 0 38 -16t16 -38q0 -23 -16 -38.5t-38 -15.5h-242v-515v-43t1.5 -38t3.5 -35t6.5 -28.5t11 -25.5t16 -18.5t22.5 -14.5t30.5 -7.5t38.5 -3.5q72 0 118 45q11 11 26 11 q18 0 28 -15.5t10 -34.5q0 -47 -79 -97t-171 -50q-62 0 -104.5 16t-66.5 40.5t-37 69.5t-16.5 87t-3.5 109v548h-102q-20 0 -33.5 13.5t-13.5 33.5z" />
<glyph unicode="u" horiz-adv-x="1107" d="M61 909q0 20 13.5 35.5t34.5 17.5l161 16h7q25 0 43 -18q21 -22 21 -52v-526q0 -150 43 -208.5t165 -58.5q127 0 209 125v601l-76 12q-20 3 -34 18.5t-14 36.5t14 37t35 17l170 16h7q25 0 43 -18q21 -22 21 -53v-793l67 -11q21 -3 34.5 -19t13.5 -37q0 -20 -13.5 -35.5 t-34.5 -17.5l-157 -17h-7q-25 0 -43 19q-21 22 -21 52v53q-121 -124 -295 -124q-154 0 -222.5 79t-68.5 242v544l-68 11q-21 3 -34.5 19t-13.5 37z" />
<glyph unicode="v" horiz-adv-x="1023" d="M13 906q0 21 14.5 35t35.5 14h293q21 0 35.5 -14t14.5 -35q0 -22 -13.5 -39.5t-34.5 -21.5l-61 -12l220 -699l232 699l-60 12q-22 4 -35.5 21.5t-13.5 39.5q0 21 14.5 35t35.5 14h271q21 0 35.5 -14t14.5 -35q0 -22 -14 -39t-35 -22l-63 -12l-287 -776 q-13 -37 -43.5 -58.5t-68.5 -21.5q-37 0 -67 22t-43 59l-270 775l-59 12q-21 4 -34.5 21.5t-13.5 39.5z" />
<glyph unicode="w" horiz-adv-x="1593" d="M15 906q0 21 14.5 35t35.5 14h287q21 0 35.5 -14t14.5 -35q0 -22 -14 -39t-35 -22l-57 -12l181 -709l213 745q11 38 42.5 62t71.5 24q39 0 70 -24t42 -62l201 -745l204 709l-50 11q-22 5 -35.5 22.5t-13.5 39.5q0 21 14.5 35t35.5 14h259q21 0 35.5 -14t14.5 -35 q0 -22 -14 -39t-35 -22l-62 -12l-253 -770q-13 -39 -44 -62.5t-71 -23.5t-70 24t-41 64l-201 717l-211 -718q-11 -39 -41.5 -63t-70.5 -24q-39 0 -69.5 23.5t-42.5 63.5l-229 769l-62 12q-22 4 -35.5 21.5t-13.5 39.5z" />
<glyph unicode="x" horiz-adv-x="1056" d="M37 50q0 21 14.5 37.5t35.5 21.5l64 14l285 362l-261 348l-56 12q-21 5 -34.5 22t-13.5 39q0 21 14 35t35 14h275q21 0 35.5 -14t14.5 -35q0 -22 -14 -39.5t-35 -22.5l-29 -7l182 -243l177 243l-19 5q-21 6 -34.5 24t-13.5 40q0 21 14.5 35t35.5 14h234q21 0 35.5 -14 t14.5 -35q0 -22 -14 -39t-35 -22l-57 -12l-267 -332l283 -378l60 -13q21 -5 35 -21.5t14 -38.5q0 -21 -14.5 -35.5t-34.5 -14.5h-292q-21 0 -35.5 14.5t-14.5 35.5q0 22 14 38.5t35 21.5l41 9l-199 275l-204 -275l34 -8q21 -5 34.5 -22t13.5 -39q0 -21 -14.5 -35.5 t-34.5 -14.5h-254q-20 0 -35 14.5t-15 35.5z" />
<glyph unicode="y" horiz-adv-x="1016" d="M12 906q0 21 14.5 35t35.5 14h297q21 0 35.5 -14t14.5 -35q0 -22 -14 -39t-35 -22l-57 -12l223 -612l223 612l-54 12q-21 5 -35 22t-14 39q0 21 14.5 35t35.5 14h258q20 0 34.5 -14t14.5 -35q0 -22 -13.5 -39.5t-35.5 -21.5l-61 -12l-396 -1046q-39 -103 -111.5 -170.5 t-171.5 -67.5q-151 0 -151 117v61q0 28 20 48t48 20q31 0 55.5 -18t33.5 -47l23 -70q43 0 92 81t93 209l17 50l-317 833l-67 13q-21 5 -35 21.5t-14 38.5z" />
<glyph unicode="z" horiz-adv-x="919" d="M77 62q0 64 37 112l506 673h-344l-15 -46q-9 -29 -33 -47t-55 -18q-28 0 -48.5 20t-20.5 48v73q0 33 23 55.5t56 22.5h576q25 0 42.5 -17.5t17.5 -42.5q0 -60 -36 -108l-516 -678h386l22 69q9 29 33 47t55 18q28 0 48 -20t20 -48v-96q0 -33 -22.5 -56t-55.5 -23h-614 q-25 0 -43.5 18t-18.5 44z" />
<glyph unicode="{" horiz-adv-x="583" d="M52 510q0 21 14.5 36.5t36.5 22.5q50 16 76 62t26 108v323q0 134 70.5 194t186.5 60h17q21 0 36.5 -15t15.5 -36q0 -22 -15.5 -37t-36.5 -15h-12q-119 0 -119 -159v-315q0 -104 -45 -160t-103 -69v-1q59 -13 103.5 -68t44.5 -159v-318q0 -73 28.5 -116t90.5 -43h12 q21 0 36.5 -15.5t15.5 -36.5q0 -22 -15.5 -37t-36.5 -15h-17q-116 0 -186.5 61t-70.5 199v321q0 62 -26 108t-76 62q-22 7 -36.5 22.5t-14.5 35.5z" />
<glyph unicode="|" horiz-adv-x="469" d="M162 -355v1675q0 30 21 51t52 21q30 0 51.5 -21t21.5 -51v-1675q0 -31 -21.5 -52t-51.5 -21q-31 0 -52 21t-21 52z" />
<glyph unicode="}" horiz-adv-x="583" d="M52 -247q0 21 15.5 36.5t36.5 15.5h12q62 0 90.5 43t28.5 116v318q0 104 44.5 159t103.5 68v1q-58 13 -103 69t-45 160v315q0 159 -119 159h-12q-21 0 -36.5 15t-15.5 37q0 21 15.5 36t36.5 15h17q116 0 187 -60t71 -194v-323q0 -62 26 -108t76 -62q22 -7 36.5 -22.5 t14.5 -36.5q0 -20 -14.5 -35.5t-36.5 -22.5q-50 -16 -76 -62t-26 -108v-321q0 -138 -71 -199t-187 -61h-17q-21 0 -36.5 15t-15.5 37z" />
<glyph unicode="~" horiz-adv-x="1124" d="M116 490q0 58 24.5 107.5t61.5 79.5t77.5 46.5t75.5 16.5q60 0 112 -16.5t87.5 -40t66.5 -47.5t63.5 -40.5t64.5 -16.5q69 0 100 78q13 33 40 54.5t59 21.5q28 0 48 -18.5t20 -45.5q0 -58 -24.5 -107.5t-61.5 -79.5t-77.5 -47t-75.5 -17q-60 0 -111.5 16.5t-87 40 t-67 47.5t-64 40.5t-64.5 16.5q-68 0 -99 -77q-13 -33 -40 -54.5t-60 -21.5q-29 0 -48.5 18.5t-19.5 45.5z" />
<glyph unicode="&#xa1;" horiz-adv-x="496" d="M133 872q0 51 32 82.5t83 31.5t83 -31.5t32 -82.5t-32.5 -83t-82.5 -32q-51 0 -83 32t-32 83zM146 -220q0 13 1.5 36t1.5 31l40 756q1 23 18.5 39t40.5 16t39.5 -16t18.5 -39l43 -757q2 -52 2 -66q0 -105 -103 -105q-52 0 -77 28t-25 77z" />
<glyph unicode="&#xa2;" horiz-adv-x="892" d="M70 610q0 214 104.5 355.5t282.5 165.5v145q0 16 12 28t29 12q16 0 28 -12t12 -28v-140q272 -3 272 -142v-52q0 -28 -19.5 -48t-47.5 -20q-31 0 -55.5 17.5t-33.5 46.5l-22 69q-44 18 -83 16l-11 -1v-731q86 6 197 60q12 5 21 5q21 0 35.5 -16.5t14.5 -38.5 q0 -44 -82.5 -96t-185.5 -66v-144q0 -17 -12 -28.5t-28 -11.5q-17 0 -29 12t-12 28v141q-187 9 -287 135t-100 339zM245 640q0 -152 56 -239.5t156 -105.5v716q-102 -29 -157 -125.5t-55 -245.5z" />
<glyph unicode="&#xa3;" horiz-adv-x="1030" d="M80 50q0 41 42 78q36 32 54.5 84t21.5 95.5t3 121.5v187h-66q-22 0 -38 16t-16 38t16 38t38 16h66v120q0 117 18 197t63 141t126 89.5t202 28.5q28 0 49 -0.5t55.5 -3.5t60 -8.5t54.5 -16t47.5 -25.5t31 -38t12.5 -52v-93q0 -28 -20 -48.5t-48 -20.5q-31 0 -55.5 18.5 t-33.5 47.5l-33 107q-45 16 -103 16q-40 0 -73 -6t-68 -25t-59 -50t-39.5 -84.5t-15.5 -125.5v-168h212q22 0 38 -16t16 -38t-16 -38t-38 -16h-212v-179q0 -209 -80 -301h496l16 67q7 29 30 47t52 18q28 0 47.5 -19.5t19.5 -47.5v-114q0 -36 -25.5 -61.5t-61.5 -25.5h-736 q-21 0 -35.5 14.5t-14.5 35.5z" />
<glyph unicode="&#xa4;" horiz-adv-x="1071" d="M104 970q0 28 21 49t50 21t50 -21l82 -82q105 73 229 73q127 0 230 -71l79 80q21 21 51 21q28 0 49.5 -20.5t21.5 -49.5t-21 -50l-81 -79q74 -104 74 -233q0 -124 -74 -227l80 -77q22 -22 22 -51t-21.5 -50t-50.5 -21t-50 21l-79 81q-106 -73 -230 -73q-126 0 -231 73 l-80 -81q-21 -21 -50 -21q-28 0 -49 21t-21 50t22 51l80 78q-71 103 -71 226q0 126 72 230l-83 82q-21 21 -21 50zM281 609q0 -103 74 -178.5t181 -75.5q102 0 179.5 74.5t77.5 179.5t-74.5 181t-182.5 76q-104 0 -179.5 -74.5t-75.5 -182.5z" />
<glyph unicode="&#xa5;" horiz-adv-x="1177" d="M59 1222q0 21 15 35.5t36 14.5h323q21 0 36 -14.5t15 -35.5q0 -22 -14.5 -40t-35.5 -22l-75 -13l246 -509l244 509l-78 14q-22 4 -36 21.5t-14 39.5q0 21 15 35.5t36 14.5h296q21 0 35.5 -14.5t14.5 -35.5q0 -22 -14 -40t-35 -22l-68 -13l-258 -509h202q23 0 39.5 -16 t16.5 -39t-16.5 -39.5t-39.5 -16.5h-259l-13 -28v-86h272q23 0 39.5 -16t16.5 -39t-16.5 -39.5t-39.5 -16.5h-272v-177l107 -16q22 -3 36.5 -19.5t14.5 -38.5q0 -21 -15 -36t-36 -15h-388q-21 0 -36 15t-15 36q0 22 14 38.5t36 19.5l108 16v177h-266q-23 0 -39.5 16.5 t-16.5 39.5t16.5 39t39.5 16h266v82l-15 32h-251q-23 0 -39.5 16.5t-16.5 39.5t16.5 39t39.5 16h197l-246 509l-75 14q-22 4 -36 21.5t-14 39.5z" />
<glyph unicode="&#xa6;" horiz-adv-x="449" d="M152 233q0 30 22 51t52 21t51 -21t21 -51v-484q0 -31 -21 -52t-51 -21t-52 21.5t-22 51.5v484zM152 732v483q0 30 22 51.5t52 21.5t51 -21.5t21 -51.5v-483q0 -31 -21 -52t-51 -21t-52 21.5t-22 51.5z" />
<glyph unicode="&#xa7;" horiz-adv-x="928" d="M69 522q0 194 221 281q-141 92 -141 236q0 132 91 204.5t250 72.5q281 0 281 -136v-58q0 -28 -20.5 -48t-48.5 -20q-31 0 -55.5 17.5t-33.5 46.5l-20 65q-43 18 -95 18q-84 0 -135.5 -35.5t-51.5 -101.5t44 -105t158 -93q76 -36 124.5 -62t94.5 -59t71 -66t40 -76.5 t15 -96.5q0 -96 -59.5 -172t-157.5 -111q66 -38 104 -104t38 -143q0 -134 -98.5 -205t-256.5 -71q-33 0 -63 2t-74.5 10t-76.5 21.5t-55 40.5t-23 64v56q0 28 20 48t48 20q31 0 55.5 -18t33.5 -47l22 -68q56 -16 115 -16q94 0 144.5 40t50.5 114q0 31 -16.5 58.5t-51 53 t-64.5 43t-80 43.5q-74 38 -116 61t-92 58t-75.5 67t-43 75.5t-17.5 95.5zM230 551q0 -95 96 -153q34 -21 106 -58.5t98 -51.5q37 17 61 31t51 36.5t40.5 52t13.5 65.5q0 99 -90 155q-31 19 -102.5 56t-109.5 59q-164 -77 -164 -192z" />
<glyph unicode="&#xa8;" horiz-adv-x="694" d="M81 1158q0 39 28 66t68 27t65.5 -26.5t25.5 -66.5t-26 -67t-65 -27q-40 0 -68 27t-28 67zM425 1158q0 40 27.5 66.5t67.5 26.5t66.5 -26.5t26.5 -66.5t-26.5 -67t-66.5 -27t-67.5 27t-27.5 67z" />
<glyph unicode="&#xa9;" horiz-adv-x="1472" d="M73 638q0 181 88.5 333t241 240.5t333.5 88.5t333.5 -88.5t241.5 -241t89 -332.5q0 -181 -89 -334t-242 -242.5t-333 -89.5t-333 89.5t-241.5 242.5t-88.5 334zM183 638q0 -157 73 -286t200 -202.5t280 -73.5q154 0 281 73.5t200 202.5t73 286q0 155 -73 283.5t-200 202 t-281 73.5q-153 0 -280 -73.5t-200 -202t-73 -283.5zM398 638q0 78 22.5 149t65 127.5t109.5 90t150 33.5q128 0 218 -70t90 -126q0 -19 -15 -32.5t-37 -13.5q-26 0 -44.5 14.5t-33.5 35t-34 41t-55.5 35t-88.5 14.5q-94 0 -151.5 -80t-57.5 -218q0 -139 55.5 -217 t153.5 -78q50 0 85.5 16t54.5 39t34.5 46t35 39t46.5 16q22 0 38 -14.5t16 -34.5q0 -25 -21 -60.5t-58 -71t-99 -60.5t-132 -25q-168 0 -257.5 113t-89.5 292z" />
<glyph unicode="&#xaa;" horiz-adv-x="736" d="M92 788q0 115 77 158t227 43h59v56q0 71 -26 103t-89 32q-35 0 -63 -13l-14 -42q-7 -20 -24 -32t-39 -12q-20 0 -35 14t-15 33v11q0 35 21 60t56.5 37t70.5 17t74 5q65 0 106.5 -15t61.5 -47.5t26.5 -68t6.5 -90.5v-347l41 -7q14 -2 23 -12.5t9 -24.5q0 -13 -9 -23 t-23 -12l-109 -11q-19 -1 -33 13t-14 34v25q-67 -72 -170 -72q-90 0 -143 50.5t-53 137.5zM216 798q0 -50 32 -76.5t83 -26.5q64 0 124 34v190l-84 -5q-155 -7 -155 -116z" />
<glyph unicode="&#xab;" horiz-adv-x="919" d="M77 496q0 31 18 55l175 247q47 68 130 68q20 0 33 -12.5t13 -30.5q0 -13 -9 -27l-192 -300l192 -299q9 -13 9 -27q0 -18 -12.5 -30t-33.5 -12q-82 0 -130 67l-175 247q-18 25 -18 54zM449 496q0 32 17 55l175 247q49 68 131 68q20 0 33 -12.5t13 -30.5q0 -15 -8 -27 l-193 -300l193 -299q8 -12 8 -27q0 -18 -12.5 -30t-33.5 -12q-83 0 -131 67l-175 247q-17 24 -17 54z" />
<glyph unicode="&#xac;" d="M82 640q0 33 23.5 56.5t56.5 23.5h765q24 0 41 -17t17 -41v-406q0 -35 -25.5 -60t-60.5 -25t-60.5 25t-25.5 60v304h-651q-33 0 -56.5 23.5t-23.5 56.5z" />
<glyph unicode="&#xad;" horiz-adv-x="720" d="M104 484q0 31 22 53t53 22h362q31 0 53 -22t22 -53q0 -32 -22 -54t-53 -22h-362q-31 0 -53 22t-22 54z" />
<glyph unicode="&#xae;" horiz-adv-x="909" d="M77 909q0 155 110.5 264t267.5 109t267.5 -109t110.5 -264t-110.5 -265.5t-267.5 -110.5t-267.5 110.5t-110.5 265.5zM165 909q0 -126 83.5 -212t206.5 -86t206.5 86t83.5 212q0 125 -84 210.5t-206 85.5t-206 -85.5t-84 -210.5zM305 743v350q0 16 11.5 27t28.5 11h119 q173 0 173 -128q0 -93 -84 -118l68 -137q4 -8 4 -16q0 -14 -11 -24t-27 -10q-47 0 -67 41l-64 133h-55v-129q0 -19 -14 -32t-34 -13t-34 13t-14 32zM401 945h51q91 0 91 58q0 30 -21.5 42.5t-71.5 12.5h-49v-113z" />
<glyph unicode="&#xaf;" horiz-adv-x="691" d="M85 1153q0 23 17 40t40 17h407q23 0 40 -17t17 -40t-17 -39.5t-40 -16.5h-407q-23 0 -40 16.5t-17 39.5z" />
<glyph unicode="&#xb0;" horiz-adv-x="698" d="M82 1028q0 110 78.5 188.5t188.5 78.5t188.5 -78.5t78.5 -188.5t-78.5 -188.5t-188.5 -78.5t-188.5 78.5t-78.5 188.5zM186 1028q0 -68 47.5 -115.5t115.5 -47.5q69 0 116.5 47.5t47.5 115.5t-47.5 115.5t-116.5 47.5q-68 0 -115.5 -47.5t-47.5 -115.5z" />
<glyph unicode="&#xb1;" horiz-adv-x="1076" d="M87 87q0 33 23.5 56.5t56.5 23.5h742q33 0 57 -23.5t24 -56.5t-24 -56.5t-57 -23.5h-742q-33 0 -56.5 23.5t-23.5 56.5zM87 669q0 33 23 56t56 23h287v230q0 35 25 59.5t60 24.5t60 -24.5t25 -59.5v-230h288q33 0 56 -23t23 -56t-23 -56.5t-56 -23.5h-288v-233 q0 -35 -25 -60t-60 -25t-60 25t-25 60v233h-287q-33 0 -56 23.5t-23 56.5z" />
<glyph unicode="&#xb2;" horiz-adv-x="644" d="M72 803q0 29 11 57t34 55.5t42 46.5t52.5 48t47.5 43q158 153 158 228q0 56 -31.5 79.5t-95.5 23.5q-76 0 -127 -47q-10 -10 -27 -10q-18 0 -29 13.5t-11 30.5q0 41 72 77.5t150 36.5q99 0 165.5 -49t66.5 -145q0 -64 -41.5 -126.5t-135.5 -146.5q-134 -120 -164 -157 h233l3 15q5 20 21.5 32t37.5 12t35.5 -13.5t14.5 -33.5v-63q0 -24 -18 -41.5t-43 -17.5h-363q-23 0 -40.5 15t-17.5 37z" />
<glyph unicode="&#xb3;" horiz-adv-x="649" d="M77 852q0 17 12 31.5t31 14.5q17 0 26 -8q63 -48 137 -48q69 0 109.5 30.5t40.5 93.5q0 106 -142 117q-19 1 -32 14.5t-13 30.5q0 18 13 30t32 14q56 5 88.5 34t32.5 81q0 100 -128 100q-76 0 -127 -47q-10 -10 -27 -10q-18 0 -29 13.5t-11 30.5q0 41 73 77.5t150 36.5 q98 0 163.5 -48t65.5 -140q0 -59 -32 -101.5t-87 -62.5v-2q67 -18 104 -63.5t37 -116.5q0 -101 -75 -158t-189 -57q-79 0 -151 34.5t-72 78.5z" />
<glyph unicode="&#xb4;" horiz-adv-x="368" d="M39 1064q0 10 6 20l112 184q26 42 76 42h93q24 0 24 -21q0 -9 -7 -17l-164 -194q-40 -48 -104 -48q-16 0 -26 10t-10 24z" />
<glyph unicode="&#xb5;" horiz-adv-x="1117" d="M129 -374v1275q0 32 22.5 54.5t54.5 22.5t54.5 -23t22.5 -54v-522q0 -114 56.5 -183.5t163.5 -69.5q135 0 207.5 117.5t72.5 313.5v344q0 32 23 54.5t55 22.5t54.5 -22.5t22.5 -54.5v-538q0 -67 1.5 -100.5t11 -74t29.5 -62.5q51 -55 51 -93q0 -23 -14.5 -39.5 t-35.5 -16.5q-43 0 -77.5 22.5t-55.5 60t-33.5 73t-19.5 74.5l-1 1q-43 -112 -118.5 -171.5t-171.5 -59.5q-130 0 -222 105v-456q0 -32 -22.5 -54.5t-53.5 -22.5q-32 0 -54.5 22.5t-22.5 54.5z" />
<glyph unicode="&#xb6;" horiz-adv-x="1194" d="M59 894q0 187 120.5 283t336.5 96h526q25 0 42.5 -17.5t17.5 -42.5t-17.5 -42t-42.5 -17h-48v-1363q0 -29 -21.5 -50t-50.5 -21t-50 21t-21 50v1363h-230v-1362q0 -29 -21 -50.5t-50 -21.5t-50 21.5t-21 50.5v735q-182 0 -301 106.5t-119 260.5z" />
<glyph unicode="&#xb7;" horiz-adv-x="486" d="M128 522q0 50 32 82t83 32q50 0 82.5 -32t32.5 -82q0 -51 -32.5 -83t-82.5 -32q-51 0 -83 32t-32 83z" />
<glyph unicode="&#xb8;" horiz-adv-x="414" d="M38 -325q0 18 12 30t30 12q9 0 13 -1q39 -12 70 -12q34 0 58 14t24 44q0 33 -33 52t-80 26q-24 3 -24 25q0 6 4 14l72 121h100l-65 -102q57 -1 101 -35.5t44 -91.5q0 -78 -56.5 -115t-142.5 -37q-127 0 -127 56z" />
<glyph unicode="&#xb9;" horiz-adv-x="456" d="M53 1376q0 16 11.5 30t28.5 19q60 19 95 40q35 20 69 20q20 0 33.5 -12.5t13.5 -31.5v-602l39 -6q17 -3 28 -15t11 -28t-12 -27.5t-29 -11.5h-200q-17 0 -29 11.5t-12 27.5q0 15 11.5 27.5t27.5 15.5l42 6v513q-53 -17 -85 -17q-16 0 -29.5 10.5t-13.5 30.5z" />
<glyph unicode="&#xba;" horiz-adv-x="755" d="M89 919q0 154 80 246.5t217 92.5q131 0 206 -86t75 -233q0 -155 -79 -247t-217 -92q-131 0 -206.5 86t-75.5 233zM219 926q0 -243 157 -243q160 0 160 246q0 119 -35 182t-123 63q-159 0 -159 -248z" />
<glyph unicode="&#xbb;" horiz-adv-x="919" d="M101 170q0 14 9 27l193 299l-193 300q-9 14 -9 27q0 18 13 30.5t34 12.5q81 0 130 -68l175 -247q18 -26 18 -55q0 -30 -18 -54l-175 -247q-48 -67 -130 -67q-21 0 -34 12t-13 30zM473 170q0 14 9 27l193 299l-193 300q-9 14 -9 27q0 18 13 30.5t34 12.5q83 0 130 -68 l175 -247q17 -23 17 -55q0 -30 -17 -54l-175 -247q-48 -67 -130 -67q-21 0 -34 12t-13 30z" />
<glyph unicode="&#xbc;" horiz-adv-x="1260" d="M64 1171q0 16 11.5 30t28.5 19q56 18 95 41q35 20 69 20q20 0 33.5 -13t13.5 -32v-602l40 -6q17 -3 27.5 -15t10.5 -28t-12 -27t-29 -11h-200q-17 0 -29 11t-12 27t11.5 28.5t27.5 14.5l42 6v514q-53 -17 -84 -17q-16 0 -30 10t-14 30zM204 -10q0 15 7 28l730 1294 q16 28 49 28q22 0 39 -16.5t17 -39.5q0 -14 -7 -27l-730 -1294q-16 -29 -48 -29q-22 0 -39.5 16.5t-17.5 39.5zM672 260q0 41 25 75l261 359q31 42 84 42q25 0 42.5 -17.5t17.5 -40.5v-373h46q21 0 35.5 -13.5t14.5 -33.5t-14.5 -33.5t-35.5 -13.5h-46v-123l32 -5 q16 -3 27.5 -15.5t11.5 -27.5q0 -16 -12 -27.5t-29 -11.5h-178q-17 0 -29 11.5t-12 27.5t11 28t28 15l32 5v123h-260q-22 0 -37 14.5t-15 34.5zM792 305h192v266z" />
<glyph unicode="&#xbd;" horiz-adv-x="1367" d="M63 1171q0 16 11.5 30t28.5 19q56 18 95 41q35 20 69 20q20 0 33.5 -13t13.5 -32v-602l39 -6q17 -3 28 -15t11 -28t-12 -27t-29 -11h-200q-17 0 -29 11t-12 27t11.5 28.5t27.5 14.5l41 6v514q-53 -17 -84 -17q-16 0 -29.5 10t-13.5 30zM203 -10q0 15 7 28l730 1294 q16 28 49 28q22 0 39 -16.5t17 -39.5q0 -14 -7 -27l-730 -1294q-16 -29 -49 -29q-22 0 -39 16.5t-17 39.5zM807 53q0 29 11 57t34 55t42.5 46t52.5 48t48 43q158 153 158 229q0 55 -31.5 79.5t-95.5 24.5q-75 0 -127 -48q-10 -10 -27 -10q-18 0 -29 13.5t-11 30.5 q0 41 72 78t150 37q99 0 165.5 -49.5t66.5 -145.5q0 -64 -41.5 -126.5t-135.5 -146.5q-134 -120 -164 -157h233l4 14q5 20 21 32.5t37 12.5t35.5 -14t14.5 -34v-62q0 -24 -18 -41.5t-43 -17.5h-363q-24 0 -41.5 15.5t-17.5 36.5z" />
<glyph unicode="&#xbe;" horiz-adv-x="1375" d="M71 648q0 17 11.5 31t30.5 14q16 0 25 -8q63 -47 138 -47q70 0 110 30t40 93q0 107 -142 118q-19 2 -32.5 14.5t-13.5 29.5q0 18 13.5 30t32.5 14q56 5 88.5 34t32.5 82q0 100 -127 100q-77 0 -128 -47q-11 -11 -27 -11q-18 0 -29 13.5t-11 30.5q0 41 72.5 78t149.5 37 q99 0 164.5 -48t65.5 -140q0 -59 -32 -102t-87 -63v-1q67 -18 104 -63.5t37 -116.5q0 -101 -75 -158.5t-189 -57.5q-79 0 -150.5 35t-71.5 79zM313 -10q0 14 8 28l730 1294q16 28 48 28q23 0 40 -16t17 -40q0 -13 -8 -27l-730 -1294q-16 -29 -48 -29q-22 0 -39.5 16.5 t-17.5 39.5zM786 260q0 41 25 75l261 359q31 42 84 42q25 0 42.5 -17.5t17.5 -40.5v-373h46q21 0 35.5 -13.5t14.5 -33.5t-14.5 -33.5t-35.5 -13.5h-46v-123l33 -5q16 -3 27 -15.5t11 -27.5q0 -16 -12 -27.5t-29 -11.5h-177q-17 0 -29.5 11.5t-12.5 27.5t10.5 28t27.5 15 l33 5v123h-260q-22 0 -37 14.5t-15 34.5zM906 305h192v266z" />
<glyph unicode="&#xbf;" horiz-adv-x="852" d="M77 -5q0 165 131 287l116 108q88 81 88 172v30q0 27 20 46.5t47 19.5q28 0 48 -19t20 -47v-41q0 -67 -23 -117t-75 -108l-47 -51q-66 -73 -99.5 -133.5t-33.5 -125.5q0 -224 235 -224q64 0 112 21l32 108q9 29 33.5 47t55.5 18q29 0 49 -20t20 -48v-83q0 -160 -337 -160 q-175 0 -283.5 84.5t-108.5 235.5zM367 872q0 51 32 82.5t83 31.5t82.5 -31.5t31.5 -82.5t-31.5 -83t-82.5 -32t-83 32t-32 83z" />
<glyph unicode="&#xc0;" horiz-adv-x="1219" d="M-2 51q0 22 14 39.5t36 21.5l61 13l369 1078q15 43 52.5 70t83.5 27t84 -27t52 -70l352 -1078l62 -13q22 -4 35.5 -21.5t13.5 -39.5q0 -21 -14.5 -36t-35.5 -15h-309q-21 0 -36 15t-15 36q0 22 14 39.5t36 21.5l64 13l-105 319h-441l-102 -319l59 -13q22 -4 35.5 -21.5 t13.5 -39.5q0 -21 -14.5 -36t-35.5 -15h-278q-21 0 -36 15t-15 36zM363 1607q0 18 26 18h98q54 0 81 -35l121 -148q7 -10 7 -17q0 -11 -11 -19t-28 -8q-67 0 -111 39l-176 157q-7 6 -7 13zM409 556h366l-184 594z" />
<glyph unicode="&#xc1;" horiz-adv-x="1219" d="M-1 51q0 22 14 39.5t36 21.5l61 13l369 1078q15 43 52.5 70t83.5 27t83.5 -27t51.5 -70l352 -1078l62 -13q22 -4 36 -21.5t14 -39.5q0 -21 -15 -36t-36 -15h-308q-21 0 -36 15t-15 36q0 22 13.5 39.5t35.5 21.5l64 13l-105 319h-441l-101 -319l58 -13q22 -4 36 -21.5 t14 -39.5q0 -21 -14.5 -36t-35.5 -15h-278q-21 0 -36 15t-15 36zM410 556h365l-183 593zM537 1421q0 7 6 16l121 149q26 34 81 34h99q26 0 26 -17q0 -7 -7 -13l-176 -157q-43 -39 -111 -39q-17 0 -28 8t-11 19z" />
<glyph unicode="&#xc2;" horiz-adv-x="1220" d="M-1 51q0 22 14 39.5t36 21.5l61 13l368 1078q15 44 53 70.5t84 26.5t83.5 -27t51.5 -70l352 -1078l62 -13q22 -4 36 -21.5t14 -39.5q0 -21 -15 -36t-36 -15h-308q-21 0 -36 15t-15 36q0 22 13.5 39.5t35.5 21.5l64 13l-105 319h-441l-101 -319l58 -13q22 -4 36 -21.5 t14 -39.5q0 -21 -15 -36t-36 -15h-277q-21 0 -36 15t-15 36zM383 1421q0 8 8 18l124 141q36 41 100 41t100 -41l127 -141q7 -8 7 -18q0 -12 -10.5 -19.5t-28.5 -7.5q-74 0 -110 46l-82 101l-86 -102q-39 -45 -109 -45q-18 0 -29 8t-11 19zM409 556h366l-183 594z" />
<glyph unicode="&#xc3;" horiz-adv-x="1221" d="M-1 51q0 22 14 39.5t36 21.5l62 13l368 1078q15 43 53 70t84 27t83.5 -27t51.5 -70l352 -1078l62 -13q22 -4 35.5 -21.5t13.5 -39.5q0 -21 -14.5 -36t-35.5 -15h-309q-21 0 -36 15t-15 36q0 22 14 39.5t36 21.5l64 13l-105 319h-441l-102 -319l59 -13q22 -4 36 -21.5 t14 -39.5q0 -21 -15 -36t-36 -15h-278q-21 0 -36 15t-15 36zM391 1447q0 66 46 107.5t87 41.5q37 0 65 -14t41.5 -31t31 -31t35.5 -14t31 13.5t19 29t20 29t34 13.5q18 0 30.5 -11t12.5 -27q0 -66 -46 -107.5t-87 -41.5q-37 0 -65 14t-41.5 31t-31 31t-35.5 14t-30.5 -13.5 t-18.5 -29.5t-20 -29.5t-35 -13.5q-18 0 -30.5 11.5t-12.5 27.5zM410 556h366l-184 594z" />
<glyph unicode="&#xc4;" horiz-adv-x="1219" d="M-2 51q0 22 14 39.5t36 21.5l61 13l368 1078q15 44 53 70.5t84 26.5t84 -27t52 -70l351 -1078l62 -13q22 -4 36 -21.5t14 -39.5q0 -21 -14.5 -36t-35.5 -15h-309q-21 0 -36 15t-15 36q0 22 14 39.5t36 21.5l63 13l-104 319h-441l-102 -319l59 -13q22 -4 35.5 -21.5 t13.5 -39.5q0 -21 -15 -36t-36 -15h-277q-21 0 -36 15t-15 36zM350 1494q0 39 28 66t68 27t65.5 -26.5t25.5 -66.5t-26 -67t-65 -27q-40 0 -68 27t-28 67zM409 556h366l-184 594zM694 1494q0 40 27.5 66.5t67.5 26.5t66.5 -26.5t26.5 -66.5t-26.5 -67t-66.5 -27t-67.5 27 t-27.5 67z" />
<glyph unicode="&#xc5;" horiz-adv-x="1220" d="M-1 51q0 22 14 39.5t36 21.5l62 13l368 1078q15 43 53 70t84 27t83.5 -27t51.5 -70l352 -1078l62 -13q22 -4 35.5 -21.5t13.5 -39.5q0 -21 -14.5 -36t-35.5 -15h-309q-21 0 -36 15t-15 36q0 22 14 39.5t36 21.5l64 13l-105 319h-441l-102 -319l59 -13q22 -4 36 -21.5 t14 -39.5q0 -21 -15 -36t-36 -15h-278q-21 0 -36 15t-15 36zM410 556h366l-184 593zM433 1560q0 76 54 130t130 54q77 0 130.5 -54t53.5 -130t-54 -130.5t-130 -54.5t-130 54.5t-54 130.5zM512 1560q0 -44 31 -74.5t74 -30.5t74 30.5t31 74.5t-31 74.5t-74 30.5t-74 -30.5 t-31 -74.5z" />
<glyph unicode="&#xc6;" horiz-adv-x="1767" d="M-22 51q0 22 13.5 39.5t35.5 21.5l62 13l717 1074q49 73 136 73h640q36 0 61 -25.5t25 -61.5v-107q0 -25 -17 -42t-41 -17q-26 0 -47.5 16t-28.5 41l-24 79h-440v-440h377q26 0 44.5 -18.5t18.5 -43.5q0 -26 -18.5 -45t-44.5 -19h-377v-472h457l24 89q7 25 27.5 41 t46.5 16q25 0 42 -17t17 -41v-118q0 -36 -25.5 -61.5t-61.5 -25.5h-764q-21 0 -36 15t-15 36q0 22 14 39.5t36 21.5l63 13v319h-440l-207 -319l59 -13q22 -4 35.5 -21.5t13.5 -39.5q0 -21 -14.5 -36t-35.5 -15h-278q-21 0 -35.5 15t-14.5 36zM530 556h365v591z" />
<glyph unicode="&#xc7;" horiz-adv-x="1154" d="M92 593q0 323 174 515t474 192q332 0 332 -156v-94q0 -28 -20 -48.5t-48 -20.5q-31 0 -55.5 18.5t-33.5 47.5l-32 105q-49 25 -122 25q-229 0 -354 -144.5t-125 -409.5q0 -104 25.5 -190t67 -143t96.5 -96t112 -56.5t115 -17.5q122 0 278 92q12 8 30 8q26 0 42 -15.5 t16 -40.5q0 -45 -58 -89.5t-145 -72.5t-171 -30l-41 -64q57 -1 101 -35t44 -91q0 -78 -57 -115.5t-142 -37.5q-127 0 -127 56q0 18 12 30.5t30 12.5q6 0 14 -2q39 -12 69 -12q34 0 58 14t24 44q0 33 -33.5 52.5t-79.5 25.5q-11 1 -17.5 9t-6.5 17q0 6 4 13l53 90 q-74 11 -143.5 40t-135.5 81t-115.5 120t-79 164.5t-29.5 208.5z" />
<glyph unicode="&#xc8;" d="M93 51q0 22 14 38.5t36 20.5l89 15v1022l-89 16q-22 4 -36 20.5t-14 38.5q0 21 15 35.5t36 14.5h774q36 0 61.5 -25.5t25.5 -61.5v-107q0 -25 -17 -42t-42 -17q-26 0 -46.5 15.5t-28.5 41.5l-24 79h-440v-440h377q26 0 44.5 -18.5t18.5 -43.5q0 -26 -18.5 -45t-44.5 -19 h-377v-472h456l25 89q7 25 27.5 41t46.5 16q24 0 41.5 -17t17.5 -41v-118q0 -36 -25.5 -61.5t-61.5 -25.5h-790q-21 0 -36 15t-15 36zM300 1580q0 17 26 17h99q53 0 81 -34l120 -149q7 -11 7 -17q0 -11 -11 -19t-28 -8q-66 0 -111 40l-176 156q-7 6 -7 14z" />
<glyph unicode="&#xc9;" d="M93 51q0 22 14.5 38.5t35.5 20.5l89 15v1022l-89 15q-22 4 -36 21t-14 39q0 21 15 35.5t36 14.5h774q36 0 61.5 -25.5t25.5 -61.5v-107q0 -25 -17 -42t-42 -17q-26 0 -46.5 15.5t-28.5 41.5l-24 79h-440v-440h376q26 0 45 -18.5t19 -43.5q0 -26 -19 -45t-45 -19h-376 v-472h456l24 89q7 25 28 41t47 16q25 0 42 -17t17 -41v-118q0 -36 -26 -61.5t-62 -25.5h-789q-21 0 -36 15t-15 36zM492 1393q0 7 7 17l120 148q27 35 81 35h99q11 0 18.5 -5.5t7.5 -12.5t-7 -13l-176 -157q-42 -39 -111 -39q-17 0 -28 8t-11 19z" />
<glyph unicode="&#xca;" d="M93 51q0 22 14 38.5t36 20.5l89 15v1022l-89 16q-22 4 -36 20.5t-14 38.5q0 21 15 36t36 15h774q36 0 61.5 -26t25.5 -62v-107q0 -24 -17 -41t-42 -17q-26 0 -46.5 15.5t-28.5 40.5l-24 79h-440v-440h377q26 0 44.5 -18.5t18.5 -43.5q0 -26 -18.5 -45t-44.5 -19h-377 v-472h456l25 89q7 25 27.5 41t46.5 16q24 0 41.5 -17t17.5 -41v-118q0 -36 -25.5 -61.5t-61.5 -25.5h-790q-21 0 -36 15t-15 36zM324 1394q0 9 8 17l123 142q35 40 100 40q66 0 101 -40l126 -142q8 -8 8 -17q0 -11 -11 -19t-28 -8q-74 0 -110 46l-82 100l-86 -102 q-36 -44 -110 -44q-18 0 -28.5 7.5t-10.5 19.5z" />
<glyph unicode="&#xcb;" d="M92 51q0 22 14.5 38.5t36.5 20.5l89 15v1022l-89 16q-22 4 -36.5 20.5t-14.5 38.5q0 21 15 35.5t36 14.5h774q36 0 62 -25.5t26 -61.5v-107q0 -25 -17 -42t-42 -17q-26 0 -47.5 16t-28.5 41l-24 79h-440v-440h377q26 0 44.5 -18.5t18.5 -43.5q0 -26 -18.5 -45t-44.5 -19 h-377v-472h457l24 89q7 25 28 41t47 16q24 0 41 -17t17 -41v-118q0 -36 -25.5 -61.5t-61.5 -25.5h-790q-21 0 -36 15t-15 36zM282 1468q0 39 28.5 66t68.5 27q39 0 64.5 -26.5t25.5 -66.5t-25.5 -66.5t-64.5 -26.5q-40 0 -68.5 27t-28.5 66zM627 1468q0 40 27 66.5t67 26.5 t66.5 -26.5t26.5 -66.5t-26.5 -66.5t-66.5 -26.5t-67 26.5t-27 66.5z" />
<glyph unicode="&#xcc;" horiz-adv-x="643" d="M80 1580q0 17 26 17h99q53 0 81 -34l121 -149q6 -9 6 -17q0 -11 -11 -19t-28 -8q-64 0 -110 40l-177 156q-7 6 -7 14zM91 51q0 22 14 38t36 20l94 16v1022l-94 16q-22 4 -36 20.5t-14 38.5q0 21 14.5 35.5t35.5 14.5h362q21 0 36 -14.5t15 -35.5q0 -22 -14 -38.5 t-36 -20.5l-94 -16v-1022l94 -16q22 -3 36 -19.5t14 -38.5q0 -21 -15 -36t-36 -15h-362q-21 0 -35.5 15t-14.5 36z" />
<glyph unicode="&#xcd;" horiz-adv-x="643" d="M90 51q0 22 14 38t36 20l95 16v1022l-95 16q-22 3 -36 20t-14 39q0 21 15 35.5t36 14.5h362q21 0 36 -14.5t15 -35.5q0 -22 -14.5 -38.5t-36.5 -20.5l-93 -16v-1022l93 -16q22 -4 36.5 -20t14.5 -38q0 -21 -15 -36t-36 -15h-362q-21 0 -36 15t-15 36zM251 1393q0 7 7 17 l121 148q29 35 81 35h99q11 0 18.5 -5.5t7.5 -12.5t-7 -13l-177 -157q-45 -39 -111 -39q-17 0 -28 8t-11 19z" />
<glyph unicode="&#xce;" horiz-adv-x="643" d="M89 1394q0 9 7 17l125 142q35 40 99 40q65 0 100 -40l127 -142q7 -7 7 -17q0 -11 -10.5 -19t-27.5 -8q-74 0 -110 46l-83 100l-86 -102q-38 -44 -109 -44q-18 0 -28.5 7.5t-10.5 19.5zM90 51q0 22 14.5 38.5t35.5 19.5l95 16v1022l-95 16q-21 4 -35.5 20.5t-14.5 38.5 q0 21 15 36t36 15h362q21 0 35.5 -15t14.5 -36q0 -22 -14 -38.5t-36 -20.5l-94 -16v-1022l94 -16q22 -4 36 -20t14 -38q0 -21 -14.5 -36t-35.5 -15h-362q-21 0 -36 15t-15 36z" />
<glyph unicode="&#xcf;" horiz-adv-x="644" d="M56 1468q0 39 28 66t68 27t65.5 -26.5t25.5 -66.5t-25.5 -66.5t-65.5 -26.5t-68 27t-28 66zM90 51q0 22 14 38t36 20l95 16v1022l-95 16q-22 4 -36 20.5t-14 38.5q0 21 15 35.5t36 14.5h362q21 0 36 -14.5t15 -35.5q0 -22 -14.5 -38.5t-36.5 -20.5l-93 -16v-1022l93 -16 q22 -3 36.5 -19.5t14.5 -38.5q0 -21 -15 -36t-36 -15h-362q-21 0 -36 15t-15 36zM401 1468q0 40 27 66.5t67 26.5t66 -26.5t26 -66.5t-26 -66.5t-66 -26.5t-67 26.5t-27 66.5z" />
<glyph unicode="&#xd1;" horiz-adv-x="1383" d="M90 51q0 22 14.5 38.5t35.5 19.5l95 16v1022l-95 16q-21 3 -35.5 20t-14.5 39q0 21 15 35.5t36 14.5h220q41 0 75 -20.5t54 -55.5l540 -985v936l-95 16q-22 4 -36 20.5t-14 38.5q0 21 14.5 35.5t35.5 14.5h324q21 0 35.5 -14.5t14.5 -35.5q0 -22 -13.5 -39t-35.5 -21 l-89 -15v-1076q0 -35 -24.5 -59.5t-59.5 -24.5q-39 0 -72 19.5t-53 53.5l-585 1019v-954l93 -16q22 -3 36 -19.5t14 -38.5q0 -21 -15 -36t-36 -15h-328q-21 0 -36 15t-15 36zM474 1419q0 66 45 107.5t87 41.5q37 0 65 -14t41.5 -31t31 -31t35.5 -14t31 13.5t19 29t20 29 t35 13.5q17 0 29.5 -11t12.5 -27q0 -66 -46 -107.5t-87 -41.5q-37 0 -64.5 14t-41.5 31t-31 31t-35 14t-30.5 -13.5t-18.5 -29t-20 -29t-35 -13.5q-18 0 -30.5 11t-12.5 27z" />
<glyph unicode="&#xd2;" horiz-adv-x="1336" d="M101 609q0 202 64.5 356.5t196.5 244.5t316 90q263 0 410.5 -172.5t147.5 -463.5q0 -200 -65 -355t-197.5 -246t-316.5 -91q-261 0 -408.5 174.5t-147.5 462.5zM296 636q0 -121 20.5 -216.5t63 -168.5t114 -112t168.5 -39q192 0 285.5 144t93.5 392q0 121 -20.5 216.5 t-63.5 168.5t-114.5 112t-168.5 39q-98 0 -171.5 -39t-118.5 -111t-66.5 -168.5t-21.5 -217.5zM423 1589q0 17 26 17h98q54 0 82 -34l120 -149q6 -9 6 -16q0 -12 -11 -20t-28 -8q-65 0 -110 40l-176 156q-7 6 -7 14z" />
<glyph unicode="&#xd3;" horiz-adv-x="1335" d="M100 609q0 202 64.5 356.5t197 244.5t316.5 90q263 0 410.5 -172.5t147.5 -463.5q0 -200 -65 -355t-197.5 -246t-316.5 -91q-261 0 -409 174.5t-148 462.5zM295 636q0 -121 20.5 -216.5t63 -168.5t114 -112t168.5 -39q98 0 172 39t118.5 111.5t66.5 168.5t22 217 t-20.5 216.5t-63 168.5t-114 112t-168.5 39q-193 0 -286 -143.5t-93 -392.5zM593 1402q0 8 6 17l121 148q27 35 81 35h99q25 0 25 -17q0 -8 -7 -14l-176 -157q-42 -39 -110 -39q-17 0 -28 8t-11 19z" />
<glyph unicode="&#xd4;" horiz-adv-x="1335" d="M100 609q0 203 64.5 357t197 244t316.5 90q263 0 410.5 -172.5t147.5 -463.5q0 -200 -65 -355t-197.5 -246t-316.5 -91q-261 0 -409 174.5t-148 462.5zM295 636q0 -121 20.5 -216.5t63 -168.5t114 -112t168.5 -39q98 0 172 39t118.5 111.5t66.5 168.5t22 217t-20.5 216.5 t-63 168.5t-114 112t-168.5 39q-193 0 -286 -143.5t-93 -392.5zM436 1403q0 10 7 18l124 141q36 41 100 41t100 -41l126 -141q8 -10 8 -18q0 -11 -11 -19t-29 -8q-73 0 -109 46l-82 101l-86 -102q-39 -45 -109 -45q-18 0 -28.5 7.5t-10.5 19.5z" />
<glyph unicode="&#xd5;" horiz-adv-x="1334" d="M100 609q0 203 64.5 357t196.5 244t316 90q263 0 410.5 -172.5t147.5 -463.5q0 -200 -65 -355t-197.5 -246t-316.5 -91q-261 0 -408.5 174.5t-147.5 462.5zM294 636q0 -121 20.5 -216.5t63.5 -168.5t114.5 -112t168.5 -39q192 0 285.5 144t93.5 392q0 121 -20.5 216.5 t-63.5 168.5t-114.5 112t-168.5 39q-193 0 -286 -143.5t-93 -392.5zM441 1427q0 66 45.5 107t87.5 41q37 0 65 -14t41.5 -30.5t31 -30.5t35.5 -14t30.5 13.5t18.5 29t20 29t34 13.5q18 0 30.5 -11.5t12.5 -27.5q0 -66 -45.5 -107t-86.5 -41q-37 0 -65 14t-42 30.5 t-31.5 30.5t-34.5 14q-18 0 -30.5 -13.5t-18.5 -29t-20 -29t-35 -13.5q-17 0 -30 11.5t-13 27.5z" />
<glyph unicode="&#xd6;" horiz-adv-x="1337" d="M101 609q0 203 64.5 357t196.5 244t316 90q263 0 410.5 -172.5t147.5 -463.5q0 -200 -65 -355t-197.5 -246t-316.5 -91q-173 0 -300 81t-191.5 224t-64.5 332zM296 636q0 -121 20.5 -216.5t63 -168.5t114 -112t168.5 -39q192 0 285.5 144t93.5 392q0 121 -20.5 216.5 t-63 168.5t-114 112t-168.5 39q-99 0 -172.5 -39t-118 -111t-66.5 -168.5t-22 -217.5zM403 1475q0 39 28.5 66.5t68.5 27.5q39 0 64.5 -27t25.5 -67t-25.5 -66.5t-64.5 -26.5q-40 0 -68.5 27t-28.5 66zM747 1475q0 40 27.5 67t67.5 27t66 -27t26 -67t-26 -66.5t-66 -26.5 t-67.5 26.5t-27.5 66.5z" />
<glyph unicode="&#xd7;" horiz-adv-x="932" d="M93 243q0 33 24 57l234 235l-234 234q-24 23 -24 57q0 33 24.5 57.5t58.5 24.5q33 0 58 -25l233 -233l234 234q24 24 57 24q32 0 56 -24t24 -58q0 -33 -24 -57l-233 -233l234 -234q24 -24 24 -58q0 -33 -24 -57.5t-57 -24.5q-34 0 -58 24l-234 234l-234 -235 q-22 -23 -57 -23q-33 0 -57.5 24t-24.5 57z" />
<glyph unicode="&#xd8;" horiz-adv-x="1337" d="M101 609q0 202 64.5 356.5t196.5 244.5t316 90q189 0 321 -93l68 97q15 23 45 23q22 0 38.5 -16.5t16.5 -39.5q0 -16 -11 -32l-73 -105q153 -171 153 -470q0 -200 -65 -355t-197.5 -246t-316.5 -91q-186 0 -318 93l-68 -97q-17 -23 -45 -23q-22 0 -39 16.5t-17 39.5 q0 16 11 32l74 106q-154 171 -154 470zM296 636q0 -217 63 -347l552 792q-89 91 -236 91q-99 0 -172.5 -39t-118 -111t-66.5 -168.5t-22 -217.5zM426 190q88 -90 236 -90q192 0 285.5 144t93.5 392q0 217 -63 347z" />
<glyph unicode="&#xd9;" horiz-adv-x="1322" d="M65 1222q0 21 14.5 35.5t35.5 14.5h343q21 0 36 -14.5t15 -35.5q0 -22 -14 -38.5t-36 -20.5l-88 -16v-635q0 -82 6.5 -141t26 -114t53 -88.5t89 -53.5t132.5 -20q58 0 103.5 11t77.5 29t55 48.5t36.5 63.5t21 80t10 90.5t2.5 103.5v626l-86 15q-22 4 -36 21t-14 39 q0 21 15 35.5t36 14.5h311q21 0 36 -14.5t15 -35.5q0 -22 -14.5 -39t-36.5 -21l-86 -15v-649q0 -130 -21 -222t-72 -163t-143 -106t-228 -35q-250 0 -356.5 123.5t-106.5 378.5v673l-83 15q-22 4 -35.5 21t-13.5 39zM400 1580q0 17 26 17h99q53 0 81 -34l121 -149 q7 -11 7 -17q0 -11 -11 -19t-28 -8q-65 0 -111 40l-177 156q-7 6 -7 14z" />
<glyph unicode="&#xda;" horiz-adv-x="1322" d="M65 1222q0 21 14.5 35.5t35.5 14.5h343q21 0 36 -14.5t15 -35.5q0 -22 -14 -39t-36 -21l-88 -15v-635q0 -82 6.5 -141t26 -114t53 -88.5t89 -53.5t132.5 -20q58 0 103.5 11t77.5 29t55 48.5t36.5 63.5t21 80t10 90.5t2.5 103.5v626l-86 15q-22 4 -36 21t-14 39 q0 21 15 35.5t36 14.5h311q21 0 36 -14.5t15 -35.5q0 -22 -14.5 -39t-36.5 -21l-86 -15v-649q0 -130 -21 -222t-72 -163t-143 -106t-228 -35q-250 0 -356.5 123.5t-106.5 378.5v673l-83 15q-22 4 -35.5 21t-13.5 39zM603 1393q0 7 7 17l121 148q29 35 81 35h99 q11 0 18.5 -5.5t7.5 -12.5t-7 -13l-177 -157q-45 -39 -110 -39q-18 0 -29 8t-11 19z" />
<glyph unicode="&#xdb;" horiz-adv-x="1322" d="M64 1222q0 21 15 36t36 15h343q21 0 36 -15t15 -36q0 -22 -14 -38.5t-36 -20.5l-88 -16v-635q0 -82 6.5 -141t26 -114t53 -88.5t89 -53.5t132.5 -20q58 0 103.5 11t77.5 29t55 48.5t36.5 63.5t21 80t10 90.5t2.5 103.5v626l-86 16q-22 4 -36 20.5t-14 38.5q0 21 15 36 t36 15h311q21 0 35.5 -15t14.5 -36q0 -22 -14 -38.5t-36 -20.5l-86 -16v-649q0 -130 -21 -222t-72 -163t-143 -106t-228 -35q-250 0 -356.5 123.5t-106.5 378.5v673l-83 15q-22 5 -36 21.5t-14 38.5zM441 1394q0 7 8 17l124 142q35 40 100 40t100 -40l127 -142q7 -8 7 -17 q0 -12 -10.5 -19.5t-28.5 -7.5q-74 0 -110 46l-82 100l-87 -102q-38 -44 -108 -44q-18 0 -29 8t-11 19z" />
<glyph unicode="&#xdc;" horiz-adv-x="1322" d="M65 1222q0 21 14.5 35.5t35.5 14.5h343q21 0 36 -14.5t15 -35.5q0 -22 -14 -38.5t-36 -20.5l-88 -16v-635q0 -82 6.5 -141t26 -114t53 -88.5t89 -53.5t132.5 -20q58 0 103.5 11t77.5 29t55 48.5t36.5 63.5t21 80t10 90.5t2.5 103.5v626l-86 15q-22 4 -36 21t-14 39 q0 21 15 35.5t36 14.5h311q21 0 36 -14.5t15 -35.5q0 -22 -14.5 -39t-36.5 -21l-86 -15v-649q0 -130 -21 -222t-72 -163t-143 -106t-228 -35q-250 0 -356.5 123.5t-106.5 378.5v673l-83 15q-22 4 -35.5 21t-13.5 39zM397 1468q0 39 28 66t68 27t65.5 -26.5t25.5 -66.5 t-25.5 -66.5t-65.5 -26.5t-68 27t-28 66zM741 1468q0 40 27.5 66.5t67.5 26.5t66 -26.5t26 -66.5t-26 -66.5t-66 -26.5t-67.5 26.5t-27.5 66.5z" />
<glyph unicode="&#xdd;" horiz-adv-x="1174" d="M1 1222q0 21 15 35.5t36 14.5h323q21 0 35.5 -14.5t14.5 -35.5q0 -22 -14 -40t-35 -22l-65 -13l294 -509l293 509l-67 14q-22 4 -36 21.5t-14 39.5q0 21 14.5 35.5t35.5 14.5h297q21 0 35.5 -14.5t14.5 -35.5q0 -22 -14 -40t-36 -22l-63 -13l-392 -648v-374l108 -16 q22 -3 36 -19.5t14 -38.5q0 -21 -15 -36t-36 -15h-388q-21 0 -35.5 15t-14.5 36q0 22 14 38.5t35 19.5l109 16v370l-379 652l-71 14q-22 4 -35.5 21.5t-13.5 39.5zM528 1387q0 5 7 16l121 149q29 35 81 35h99q12 0 19 -5.5t7 -12.5t-7 -13l-177 -157q-45 -39 -111 -39 q-17 0 -28 8t-11 19z" />
<glyph unicode="&#xdf;" horiz-adv-x="1187" d="M63 50q0 22 14 38t35 20l81 15v792q0 270 106 385t333 115q101 0 179.5 -29t128 -94.5t49.5 -161.5q0 -58 -22.5 -103.5t-56 -71.5t-72.5 -50.5t-72.5 -42.5t-56 -46t-22.5 -62q0 -36 24.5 -66.5t64 -54t86.5 -47.5t94.5 -52t87 -60.5t64 -81t24.5 -106.5 q0 -144 -95.5 -226.5t-242.5 -82.5q-275 0 -275 134v60q0 28 20 48.5t48 20.5q31 0 56 -18t34 -47l21 -69q37 -19 88 -19q42 0 82 15.5t71 54t31 92.5q0 42 -25 75.5t-64.5 57.5t-87.5 47t-96 49.5t-87.5 57.5t-64.5 78.5t-25 106.5q0 48 16 87.5t42 65.5t57.5 48.5t63 43 t57.5 42.5t42 53t16 69q0 89 -53.5 133.5t-139.5 44.5q-138 0 -201.5 -91.5t-63.5 -276.5v-861q0 -33 -23 -56t-55 -23h-166q-21 0 -35 14.5t-14 35.5z" />
<glyph unicode="&#xe0;" horiz-adv-x="969" d="M73 261q0 73 22 127t60 88t97.5 54.5t126 28t154.5 7.5h97v90q0 112 -41 162t-142 50q-65 0 -106 -23l-21 -64q-9 -29 -33 -47t-55 -18q-28 0 -48.5 20t-20.5 48v17q0 53 31.5 90t84.5 55t105 25t111 7q97 0 159 -23t92 -71.5t39.5 -102.5t9.5 -138v-529l64 -11 q21 -3 34.5 -19t13.5 -37q0 -20 -14 -35.5t-35 -17.5l-151 -17q-29 -3 -50 19t-21 52v54q-104 -125 -270 -125q-133 0 -213 76.5t-80 207.5zM248 276q0 -80 50 -121t133 -41q100 0 199 55v298l-137 -7q-245 -12 -245 -184zM251 1325q0 21 24 21h93q49 0 76 -43l112 -183 q6 -10 6 -21q0 -14 -10 -23.5t-26 -9.5q-62 0 -104 48l-164 194q-7 8 -7 17z" />
<glyph unicode="&#xe1;" horiz-adv-x="967" d="M71 261q0 73 22 127t60 88t97.5 54.5t126 28t154.5 7.5h98v90q0 112 -41.5 162t-142.5 50q-65 0 -106 -23l-21 -64q-9 -29 -33 -47t-55 -18q-28 0 -48 20t-20 48v17q0 53 31 90t84 55t105 25t111 7q97 0 159 -23t92 -71.5t39.5 -102.5t9.5 -138v-529l64 -11 q21 -3 34.5 -19t13.5 -37q0 -20 -13.5 -35.5t-34.5 -17.5l-152 -17q-29 -3 -50 19t-21 52v54q-104 -125 -270 -125q-133 0 -213 76.5t-80 207.5zM246 276q0 -80 50.5 -121t133.5 -41q102 0 199 55v298l-138 -7q-245 -12 -245 -184zM441 1099q0 11 6 21l113 183q27 43 75 43 h93q25 0 25 -21q0 -7 -8 -17l-164 -194q-42 -48 -104 -48q-16 0 -26 9.5t-10 23.5z" />
<glyph unicode="&#xe2;" horiz-adv-x="968" d="M72 261q0 73 22 127t60 88t97.5 54.5t126 28t154.5 7.5h97v90q0 112 -41.5 162t-142.5 50q-64 0 -105 -23l-21 -64q-9 -29 -33.5 -47t-55.5 -18q-28 0 -48 20t-20 48v17q0 53 31.5 90t84.5 55t105 25t111 7q97 0 159 -23t92 -71.5t39.5 -102.5t9.5 -138v-529l64 -11 q21 -3 34.5 -19t13.5 -37q0 -20 -14 -35.5t-35 -17.5l-152 -17q-29 -3 -49.5 19t-20.5 52v54q-104 -125 -271 -125q-133 0 -212.5 76.5t-79.5 207.5zM247 276q0 -80 50.5 -121t133.5 -41q101 0 198 55v298l-137 -7q-245 -12 -245 -184zM276 1100q0 11 7 21l116 175 q33 50 93 50t94 -49l118 -175q7 -10 7 -22q0 -14 -10 -23.5t-26 -9.5q-69 0 -103 56l-77 124l-80 -125q-36 -55 -102 -55q-16 0 -26.5 9.5t-10.5 23.5z" />
<glyph unicode="&#xe3;" horiz-adv-x="968" d="M72 261q0 73 22 127t60 88t97.5 54.5t126 28t154.5 7.5h97v90q0 112 -41.5 162t-142.5 50q-64 0 -105 -23l-21 -64q-9 -29 -33.5 -47t-55.5 -18q-28 0 -48 20t-20 48v17q0 53 31.5 90t84.5 55t105 25t111 7q97 0 159 -23t92 -71.5t39.5 -102.5t9.5 -138v-529l64 -11 q21 -3 34.5 -19t13.5 -37q0 -20 -14 -35.5t-35 -17.5l-152 -17q-29 -3 -49.5 19t-20.5 52v54q-104 -125 -271 -125q-133 0 -212.5 76.5t-79.5 207.5zM246 276q0 -80 50.5 -121t133.5 -41q100 0 199 55v298l-137 -7q-246 -12 -246 -184zM259 1136q0 68 45.5 111t86.5 43 q37 0 65 -14.5t41.5 -32t31 -32t35.5 -14.5t31 13.5t19 30.5t20 30.5t35 13.5q17 0 29.5 -11.5t12.5 -27.5q0 -68 -46 -111.5t-87 -43.5q-37 0 -64.5 14.5t-41.5 32t-31 32t-35 14.5t-30.5 -14t-19 -30.5t-20.5 -30.5t-35 -14q-17 0 -29.5 12t-12.5 29z" />
<glyph unicode="&#xe4;" horiz-adv-x="967" d="M72 261q0 73 22 127t60 88t97.5 54.5t126 28t154.5 7.5h97v90q0 112 -41.5 162t-142.5 50q-64 0 -105 -23l-21 -64q-9 -29 -33.5 -47t-55.5 -18q-28 0 -48 20t-20 48v17q0 53 31.5 90t84.5 55t105 25t111 7q97 0 159 -23t92 -71.5t39.5 -102.5t9.5 -138v-529l64 -11 q21 -3 34.5 -19t13.5 -37q0 -20 -14 -35.5t-35 -17.5l-152 -17q-29 -3 -49.5 19t-20.5 52v54q-104 -125 -271 -125q-133 0 -212.5 76.5t-79.5 207.5zM227 1178q0 39 28.5 66t68.5 27q39 0 64.5 -26.5t25.5 -66.5t-25.5 -66.5t-64.5 -26.5q-40 0 -68.5 27t-28.5 66zM246 276 q0 -80 50.5 -121t133.5 -41q100 0 199 55v298l-137 -7q-246 -12 -246 -184zM572 1178q0 40 27.5 66.5t67.5 26.5t66 -26.5t26 -66.5t-26 -66.5t-66 -26.5t-67.5 26.5t-27.5 66.5z" />
<glyph unicode="&#xe5;" horiz-adv-x="968" d="M72 261q0 73 22 127t60 88t97.5 54.5t126 28t154.5 7.5h97v90q0 112 -41.5 162t-142.5 50q-64 0 -105 -23l-21 -64q-9 -29 -33.5 -47t-55.5 -18q-28 0 -48 20t-20 48v17q0 53 31.5 90t84.5 55t105 25t111 7q97 0 159 -23t92 -71.5t39.5 -102.5t9.5 -138v-529l64 -11 q21 -3 34.5 -19t13.5 -37q0 -20 -14 -35.5t-35 -17.5l-152 -17q-29 -3 -49.5 19t-20.5 52v54q-104 -125 -271 -125q-133 0 -212.5 76.5t-79.5 207.5zM247 276q0 -80 50.5 -121t133.5 -41q101 0 198 55v298l-137 -7q-245 -12 -245 -184zM311 1240q0 76 54 130t130 54 t130.5 -54t54.5 -130t-54.5 -130t-130.5 -54t-130 54t-54 130zM390 1240q0 -43 30.5 -73.5t74.5 -30.5t74.5 30.5t30.5 73.5q0 44 -31 74.5t-74 30.5t-74 -30.5t-31 -74.5z" />
<glyph unicode="&#xe6;" horiz-adv-x="1482" d="M71 261q0 73 22 127t60 88t97.5 54.5t126 28t154.5 7.5h98v90q0 111 -42 161.5t-143 50.5q-64 0 -105 -23l-21 -64q-9 -29 -33 -47t-55 -18q-28 0 -48 20t-20 48v17q0 53 31 90t84 55t105 25t111 7q199 0 261 -109q109 109 291 109q81 0 144.5 -24.5t102.5 -64.5 t64.5 -95.5t35.5 -111.5t10 -119q0 -39 -21.5 -61t-56.5 -22h-531q0 -174 66 -266t221 -92q110 0 207 54q11 6 23 6q20 0 34 -16t14 -38q0 -46 -92 -98.5t-221 -52.5q-226 0 -333 137q-46 -54 -149 -95.5t-199 -41.5q-133 0 -213 76.5t-80 207.5zM246 276q0 -80 50.5 -121 t133.5 -41q102 0 199 55v298l-138 -7q-245 -12 -245 -184zM794 576l431 27q0 124 -50 193t-152 69q-212 0 -229 -289z" />
<glyph unicode="&#xe7;" horiz-adv-x="910" d="M92 452q0 235 123.5 380.5t330.5 145.5q286 0 286 -142v-52q0 -28 -20 -48t-48 -20q-31 0 -55.5 18t-33.5 47l-22 68q-40 16 -82 16q-145 0 -224.5 -101t-79.5 -282q0 -173 71.5 -261.5t196.5 -88.5q95 0 221 62q9 4 21 4q21 0 35.5 -16.5t14.5 -38.5q0 -44 -81 -95 t-183 -66l-47 -74q57 -1 101.5 -35t44.5 -91q0 -78 -57 -115.5t-142 -37.5q-127 0 -127 56q0 18 12 30.5t30 12.5q5 0 13 -2q39 -12 69 -12q35 0 59 14t24 44q0 33 -33.5 52.5t-79.5 25.5q-10 1 -17 9t-7 17q0 6 4 13l53 90q-179 13 -275 138.5t-96 334.5z" />
<glyph unicode="&#xe8;" horiz-adv-x="957" d="M93 455q0 116 26 210.5t77 165t133.5 109t189.5 38.5q81 0 144.5 -24.5t103 -64.5t64.5 -95.5t35 -111.5t10 -119q0 -40 -21 -61.5t-56 -21.5h-532q0 -174 66 -266t221 -92q110 0 207 54q11 6 24 6q20 0 33.5 -16t13.5 -38q0 -46 -91.5 -98.5t-220.5 -52.5 q-427 0 -427 478zM269 576l430 27q-2 262 -201 262q-115 0 -168 -76t-61 -213zM281 1325q0 21 25 21h93q48 0 75 -43l113 -183q6 -10 6 -21q0 -14 -10 -23.5t-26 -9.5q-64 0 -104 48l-164 194q-8 10 -8 17z" />
<glyph unicode="&#xe9;" horiz-adv-x="958" d="M93 455q0 116 26 210.5t77 165t133.5 109t189.5 38.5q81 0 144.5 -24.5t103 -64.5t65 -95.5t35.5 -111.5t10 -119q0 -39 -21.5 -61t-56.5 -22h-531q0 -174 66 -266t220 -92q110 0 208 54q10 6 23 6q20 0 34 -16t14 -38q0 -46 -92 -98.5t-221 -52.5q-427 0 -427 478z M269 576l431 27q-1 124 -50.5 193t-151.5 69q-115 0 -168 -76t-61 -213zM431 1099q0 11 6 21l113 183q27 43 76 43h92q24 0 24 -21q0 -10 -6 -17l-165 -194q-40 -48 -103 -48q-16 0 -26.5 9.5t-10.5 23.5z" />
<glyph unicode="&#xea;" horiz-adv-x="958" d="M93 455q0 156 44.5 271.5t142 183.5t239.5 68q81 0 144.5 -24.5t103 -64.5t65 -95.5t35.5 -111.5t10 -119q0 -39 -21.5 -61t-56.5 -22h-531q0 -174 66 -266t220 -92q110 0 208 54q10 6 23 6q20 0 34 -16t14 -38q0 -46 -92 -98.5t-221 -52.5q-427 0 -427 478zM269 576 l431 27q-1 124 -50.5 193t-151.5 69q-115 0 -168 -75.5t-61 -213.5zM293 1100q0 9 7 21l116 175q33 50 93 50t94 -49l118 -175q7 -10 7 -22q0 -14 -10 -23.5t-26 -9.5q-69 0 -103 56l-77 124l-81 -125q-35 -55 -101 -55q-17 0 -27 9.5t-10 23.5z" />
<glyph unicode="&#xeb;" horiz-adv-x="957" d="M93 455q0 116 26 210.5t77 165t133.5 109t189.5 38.5q81 0 144.5 -24.5t102.5 -64.5t64.5 -95.5t35.5 -111.5t10 -119q0 -40 -21 -61.5t-56 -21.5h-531q0 -174 66 -266t220 -92q109 0 208 54q10 6 23 6q20 0 34 -16t14 -38q0 -46 -92 -98.5t-221 -52.5q-427 0 -427 478z M243 1178q0 39 28 66t68 27t65.5 -26.5t25.5 -66.5t-25.5 -66.5t-65.5 -26.5t-68 27t-28 66zM269 576l430 27q0 124 -49.5 193t-151.5 69q-212 0 -229 -289zM587 1178q0 40 27 66.5t67 26.5t66.5 -26.5t26.5 -66.5t-26.5 -66.5t-66.5 -26.5t-67 26.5t-27 66.5z" />
<glyph unicode="&#xec;" horiz-adv-x="559" d="M50 1348q0 20 24 20h93q49 0 75 -42l113 -184q6 -10 6 -20q0 -14 -10.5 -23.5t-26.5 -9.5q-63 0 -103 48l-164 193q-7 10 -7 18zM85 50q0 22 13.5 38t34.5 21l77 14v718l-77 12q-21 3 -34.5 18.5t-13.5 36.5t14 37t34 17l171 16q29 3 49.5 -18.5t20.5 -52.5v-784l67 -14 q21 -5 35 -21t14 -38q0 -21 -14.5 -35.5t-35.5 -14.5h-305q-21 0 -35.5 14.5t-14.5 35.5z" />
<glyph unicode="&#xed;" horiz-adv-x="560" d="M85 50q0 22 13.5 38t34.5 21l77 14v718l-77 12q-21 3 -34.5 18.5t-13.5 36.5t14 37t34 17l171 16q29 3 50 -18.5t21 -52.5v-784l66 -14q21 -5 35 -21t14 -38q0 -21 -14.5 -35.5t-34.5 -14.5h-306q-21 0 -35.5 14.5t-14.5 35.5zM210 1122q0 10 6 20l112 184q26 42 76 42 h92q25 0 25 -20q0 -8 -7 -18l-164 -193q-40 -48 -104 -48q-16 0 -26 9.5t-10 23.5z" />
<glyph unicode="&#xee;" horiz-adv-x="558" d="M49 1122q0 12 6 22l116 174q33 50 94 50q59 0 93 -49l118 -175q8 -11 8 -22q0 -14 -10 -23.5t-27 -9.5q-69 0 -103 56l-77 124l-80 -125q-35 -55 -102 -55q-17 0 -26.5 9.5t-9.5 23.5zM84 50q0 22 14 38t35 21l76 14v718l-78 12q-20 3 -33.5 18.5t-13.5 36.5t14 36t34 17 l171 17q29 3 50 -18.5t21 -52.5v-784l67 -14q21 -5 34.5 -21t13.5 -38q0 -21 -14.5 -35.5t-35.5 -14.5h-305q-21 0 -35.5 14.5t-14.5 35.5z" />
<glyph unicode="&#xef;" horiz-adv-x="559" d="M1 1199q0 39 28 66t68 27q39 0 64.5 -26.5t25.5 -66.5t-25.5 -67t-64.5 -27q-40 0 -68 27t-28 67zM84 50q0 22 14 38t35 21l76 14v719l-77 11q-21 3 -34.5 19t-13.5 37q0 20 14 36t34 17l171 16q29 3 50 -18.5t21 -51.5v-785l67 -14q21 -5 35 -21t14 -38q0 -21 -15 -35.5 t-35 -14.5h-306q-21 0 -35.5 14.5t-14.5 35.5zM345 1199q0 40 27.5 66.5t67.5 26.5t66 -26.5t26 -66.5t-26 -67t-66 -27t-67.5 27t-27.5 67z" />
<glyph unicode="&#xf1;" horiz-adv-x="1134" d="M84 50q0 22 14 38t35 21l76 14v719l-76 10q-21 3 -35 19t-14 37t14 37t35 17l164 16q29 3 50.5 -19t21.5 -52v-45q123 116 294 116q156 0 225 -79t69 -243v-533l67 -14q21 -5 34.5 -21t13.5 -38q0 -21 -14.5 -35.5t-35.5 -14.5h-300q-21 0 -35.5 14.5t-14.5 35.5 q0 22 14 38t35 21l71 14v452q0 148 -42.5 208.5t-162.5 60.5q-131 0 -213 -126v-595l67 -14q21 -5 34.5 -21t13.5 -38q0 -21 -14.5 -35.5t-35.5 -14.5h-305q-21 0 -35.5 14.5t-14.5 35.5zM362 1137q0 68 46 111.5t87 43.5q37 0 64.5 -14.5t41.5 -32t31 -32t35 -14.5t31 13.5 t19 30.5t20 30.5t35 13.5q17 0 29.5 -12t12.5 -28q0 -68 -45.5 -111t-87.5 -43q-37 0 -64.5 14.5t-41.5 32t-31 32t-35 14.5t-30.5 -14t-18.5 -30.5t-20 -30.5t-35 -14q-18 0 -30.5 11.5t-12.5 28.5z" />
<glyph unicode="&#xf2;" horiz-adv-x="1053" d="M91 463q0 234 120 374.5t327 140.5q197 0 310.5 -130.5t113.5 -354.5q0 -235 -119.5 -375.5t-326.5 -140.5q-197 0 -311 131.5t-114 354.5zM273 474q0 -192 62 -285.5t188 -93.5q128 0 191 94t63 288q0 89 -12 155.5t-39.5 119.5t-78 80t-122.5 27q-252 0 -252 -385z M301 1325q0 21 25 21h92q48 0 75 -43l113 -183q6 -10 6 -21q0 -14 -10 -23.5t-26 -9.5q-63 0 -103 48l-165 194q-7 10 -7 17z" />
<glyph unicode="&#xf3;" horiz-adv-x="1053" d="M91 463q0 234 120 374.5t327 140.5q197 0 310.5 -130.5t113.5 -354.5q0 -236 -119 -376t-327 -140q-197 0 -311 131.5t-114 354.5zM274 474q0 -193 61.5 -286t187.5 -93q128 0 191 94t63 288q0 89 -12 155.5t-39.5 119.5t-78 80t-122.5 27q-251 0 -251 -385zM449 1099 q0 11 6 21l113 183q27 43 75 43h93q25 0 25 -21q0 -7 -8 -17l-164 -194q-42 -48 -104 -48q-16 0 -26 9.5t-10 23.5z" />
<glyph unicode="&#xf4;" horiz-adv-x="1052" d="M90 463q0 234 120 374.5t327 140.5q197 0 310.5 -130.5t113.5 -354.5q0 -236 -119 -376t-327 -140q-197 0 -311 131.5t-114 354.5zM273 474q0 -193 61.5 -286t187.5 -93q255 0 255 382q0 90 -12 156.5t-39.5 119.5t-78 80t-122.5 27q-252 0 -252 -386zM308 1100q0 9 7 21 l116 175q33 50 93 50t94 -49l118 -175q7 -10 7 -22q0 -14 -10 -23.5t-26 -9.5q-69 0 -103 56l-77 124l-80 -125q-35 -55 -102 -55q-17 0 -27 9.5t-10 23.5z" />
<glyph unicode="&#xf5;" horiz-adv-x="1052" d="M91 463q0 234 120 374.5t327 140.5q197 0 310.5 -130.5t113.5 -354.5q0 -236 -119 -376t-327 -140q-197 0 -311 131.5t-114 354.5zM274 474q0 -193 61.5 -286t187.5 -93q128 0 191 94t63 288q0 89 -12 155.5t-39.5 119.5t-78 80.5t-122.5 27.5q-251 0 -251 -386z M300 1136q0 68 45.5 111t87.5 43q37 0 65 -14.5t41.5 -32t31 -32t35.5 -14.5t31 13.5t19 30.5t20 30.5t34 13.5q18 0 30.5 -11.5t12.5 -27.5q0 -68 -46 -111.5t-87 -43.5q-37 0 -65 14.5t-42 32t-31.5 32t-34.5 14.5q-18 0 -30.5 -14t-18.5 -30.5t-20 -30.5t-35 -14 q-17 0 -30 12t-13 29z" />
<glyph unicode="&#xf6;" horiz-adv-x="1051" d="M90 463q0 234 120 374.5t327 140.5q197 0 310.5 -130.5t113.5 -354.5q0 -235 -119.5 -375.5t-326.5 -140.5q-197 0 -311 131.5t-114 354.5zM260 1178q0 39 28 66t68 27t65.5 -26.5t25.5 -66.5t-25.5 -66.5t-65.5 -26.5t-68 27t-28 66zM273 474q0 -193 61.5 -286 t187.5 -93q128 0 191 94t63 288q0 71 -7 127t-24.5 105t-45.5 81t-72 50.5t-102 18.5q-252 0 -252 -385zM604 1178q0 40 27.5 66.5t67.5 26.5t66 -26.5t26 -66.5t-26 -66.5t-66 -26.5t-67.5 26.5t-27.5 66.5z" />
<glyph unicode="&#xf7;" horiz-adv-x="1064" d="M80 535q0 33 24 56t57 23h742q33 0 57 -23t24 -56t-24 -57t-57 -24h-742q-33 0 -57 24t-24 57zM414 159q0 49 34 83.5t84 34.5q49 0 83.5 -34.5t34.5 -83.5t-34.5 -83.5t-83.5 -34.5t-83.5 34.5t-34.5 83.5zM414 910q0 50 34 84t84 34q49 0 83.5 -34.5t34.5 -83.5 t-34.5 -83.5t-83.5 -34.5t-83.5 34.5t-34.5 83.5z" />
<glyph unicode="&#xf8;" horiz-adv-x="1082" d="M106 463q0 234 120 374.5t327 140.5q130 0 229 -61l50 75q14 20 36 20q18 0 31 -13t13 -31q0 -14 -7 -25l-55 -82q127 -130 127 -368q0 -235 -119.5 -375.5t-326.5 -140.5q-131 0 -229 62l-51 -76q-14 -20 -36 -20q-17 0 -30.5 13.5t-13.5 31.5q0 14 7 25l54 82 q-126 132 -126 368zM289 474q0 -150 37 -239l378 566q-60 58 -163 58q-252 0 -252 -385zM379 154q58 -59 159 -59q128 0 191 94t63 288q0 154 -36 243z" />
<glyph unicode="&#xf9;" horiz-adv-x="1107" d="M61 909q0 20 13.5 35.5t34.5 17.5l161 16q29 3 50 -18.5t21 -51.5v-526q0 -150 43 -208.5t165 -58.5q127 0 209 125v601l-76 12q-20 3 -34 18.5t-14 36.5t14 37t35 17l170 16q29 3 50 -18.5t21 -52.5v-793l67 -11q21 -3 34.5 -19t13.5 -37q0 -20 -13.5 -35.5t-34.5 -17.5 l-157 -17q-29 -3 -50 19t-21 52v53q-121 -124 -295 -124q-154 0 -222.5 79t-68.5 242v544l-68 11q-21 3 -34.5 19t-13.5 37zM296 1348q0 20 25 20h93q49 0 75 -42l113 -184q6 -11 6 -20q0 -14 -10.5 -23.5t-26.5 -9.5q-61 0 -103 48l-164 193q-8 10 -8 18z" />
<glyph unicode="&#xfa;" horiz-adv-x="1108" d="M61 909q0 20 14 35.5t35 17.5l161 16q29 3 50 -18.5t21 -51.5v-526q0 -150 42.5 -208.5t164.5 -58.5q128 0 210 125v601l-76 12q-20 3 -34 18.5t-14 36.5t13.5 37t34.5 17l170 16q29 3 50.5 -19t21.5 -52v-793l67 -11q21 -3 34.5 -19t13.5 -37q0 -20 -14 -35.5t-35 -17.5 l-157 -17q-29 -3 -49.5 19t-20.5 52v53q-121 -124 -296 -124q-154 0 -222 78.5t-68 242.5v544l-69 11q-21 3 -34.5 19t-13.5 37zM482 1122q0 10 6 20l112 184q26 42 76 42h93q24 0 24 -20q0 -10 -7 -18l-164 -193q-42 -48 -104 -48q-16 0 -26 9.5t-10 23.5z" />
<glyph unicode="&#xfb;" horiz-adv-x="1109" d="M61 909q0 20 14 35.5t35 17.5l161 16q29 3 50 -18.5t21 -51.5v-526q0 -150 42.5 -208.5t164.5 -58.5q128 0 210 125v601l-76 12q-20 3 -34 18.5t-14 36.5t13.5 37t34.5 17l170 16q29 3 50.5 -19t21.5 -52v-793l67 -11q21 -3 34.5 -19t13.5 -37q0 -20 -14 -35.5t-35 -17.5 l-157 -17q-29 -3 -49.5 19t-20.5 52v53q-121 -124 -296 -124q-154 0 -222 78.5t-68 242.5v544l-69 11q-21 3 -34.5 19t-13.5 37zM333 1122q0 10 7 22l116 174q33 50 93 50t94 -49l118 -175q7 -10 7 -22q0 -14 -10 -23.5t-27 -9.5q-68 0 -102 56l-77 124l-81 -125 q-35 -55 -101 -55q-17 0 -27 9.5t-10 23.5z" />
<glyph unicode="&#xfc;" horiz-adv-x="1109" d="M61 909q0 20 14 35.5t35 17.5l161 16q29 3 50 -18.5t21 -51.5v-526q0 -150 42.5 -208.5t164.5 -58.5q128 0 210 125v601l-76 12q-20 3 -34 18.5t-14 36.5t13.5 37t34.5 17l170 16q29 3 50.5 -19t21.5 -52v-793l67 -11q21 -3 34.5 -19t13.5 -37q0 -20 -14 -35.5t-35 -17.5 l-157 -17q-29 -3 -49.5 19t-20.5 52v53q-121 -124 -296 -124q-154 0 -222 78.5t-68 242.5v544l-69 11q-21 3 -34.5 19t-13.5 37zM264 1199q0 39 28.5 66t68.5 27q39 0 64.5 -26.5t25.5 -66.5t-25.5 -67t-64.5 -27q-40 0 -68.5 27.5t-28.5 66.5zM608 1199q0 40 27.5 66.5 t67.5 26.5t66.5 -26.5t26.5 -66.5t-26.5 -67t-66.5 -27t-67.5 27t-27.5 67z" />
<glyph unicode="&#xfd;" horiz-adv-x="1013" d="M10 906q0 21 14.5 35t35.5 14h298q20 0 34.5 -14t14.5 -35q0 -22 -13.5 -39.5t-34.5 -21.5l-58 -12l224 -612l223 612l-54 12q-21 5 -35 22t-14 39q0 21 14.5 35t35.5 14h257q21 0 35.5 -14t14.5 -35q0 -22 -14 -39t-35 -22l-61 -12l-397 -1046q-39 -103 -111 -170.5 t-171 -67.5q-152 0 -152 117v61q0 28 20.5 48t48.5 20q31 0 55.5 -18t33.5 -47l22 -70q81 0 185 290l18 50l-317 833l-67 13q-21 5 -35.5 21.5t-14.5 38.5zM460 1099q0 11 6 21l112 183q27 43 76 43h92q25 0 25 -21q0 -7 -7 -17l-165 -194q-40 -48 -104 -48q-16 0 -25.5 9.5 t-9.5 23.5z" />
<glyph unicode="&#xff;" horiz-adv-x="1013" d="M10 906q0 20 15 34.5t35 14.5h298q20 0 34.5 -14.5t14.5 -34.5q0 -22 -13.5 -39.5t-34.5 -21.5l-58 -12l224 -612l223 612l-54 12q-21 5 -35 22t-14 39q0 20 14.5 34.5t35.5 14.5h257q21 0 35.5 -14.5t14.5 -34.5q0 -22 -14 -39t-35 -22l-61 -12l-397 -1046 q-39 -103 -111 -170.5t-171 -67.5q-152 0 -152 117v61q0 28 20.5 48t48.5 20q31 0 55.5 -18t33.5 -47l22 -70q81 0 185 290l18 50l-317 833l-67 13q-21 5 -35.5 21.5t-14.5 38.5zM261 1175q0 40 28 67t68 27q39 0 64.5 -27t25.5 -67t-25.5 -66.5t-64.5 -26.5q-40 0 -68 27 t-28 66zM605 1175q0 40 27 67t67 27t66 -27t26 -67t-26 -66.5t-66 -26.5t-67 26.5t-27 66.5z" />
<glyph unicode="&#x152;" horiz-adv-x="1803" d="M100 609q0 202 64.5 356.5t197 244.5t316.5 90q100 0 189 -28h750q36 0 62 -25.5t26 -61.5v-107q0 -25 -17 -42t-42 -17q-26 0 -47.5 16t-28.5 41l-24 79h-440v-440h377q26 0 44.5 -18.5t18.5 -43.5q0 -26 -18.5 -45t-44.5 -19h-377v-472h457l24 89q7 25 28 41t47 16 q24 0 41 -17t17 -41v-118q0 -36 -25.5 -61.5t-61.5 -25.5h-789q-89 -28 -187 -28q-261 0 -409 174.5t-148 462.5zM295 636q0 -121 20.5 -216.5t63.5 -168.5t114.5 -112t168.5 -39q173 0 270 122v835q-91 115 -258 115q-193 0 -286 -143.5t-93 -392.5z" />
<glyph unicode="&#x153;" horiz-adv-x="1639" d="M90 463q0 234 120 374.5t327 140.5q218 0 333 -160q110 160 332 160q81 0 144.5 -24.5t103 -64.5t65 -95.5t35.5 -111.5t10 -119q0 -39 -21.5 -61t-56.5 -22h-531q0 -174 66 -266t220 -92q111 0 208 54q11 6 23 6q20 0 33.5 -16t13.5 -38q0 -46 -91.5 -98.5t-220.5 -52.5 q-243 0 -348 157q-121 -157 -340 -157q-197 0 -311 131.5t-114 354.5zM273 474q0 -193 61.5 -286t187.5 -93q128 0 191 94t63 288q0 90 -11.5 156t-39 119t-78 80.5t-122.5 27.5q-252 0 -252 -386zM952 576l431 27q-1 124 -50.5 193t-151.5 69q-115 0 -168 -76t-61 -213z " />
<glyph unicode="&#x178;" horiz-adv-x="1174" d="M1 1222q0 21 14.5 35.5t35.5 14.5h324q21 0 35.5 -14.5t14.5 -35.5q0 -22 -14 -39.5t-36 -21.5l-64 -14l294 -509l293 509l-68 14q-22 4 -36 21.5t-14 39.5q0 21 15 35.5t36 14.5h296q21 0 36 -14.5t15 -35.5q0 -22 -14 -39.5t-36 -21.5l-64 -14l-391 -648v-374l108 -16 q21 -3 35.5 -19.5t14.5 -38.5q0 -21 -15 -36t-36 -15h-388q-21 0 -36 15t-15 36q0 22 14 38.5t36 19.5l109 16v370l-379 652l-71 14q-22 4 -35.5 21.5t-13.5 39.5zM335 1462q0 39 28 66t68 27t65.5 -26.5t25.5 -66.5t-26 -67t-65 -27q-40 0 -68 27t-28 67zM680 1462 q0 40 27 66.5t67 26.5t66 -26.5t26 -66.5t-26 -67t-66 -27t-67 27t-27 67z" />
<glyph unicode="&#x2c6;" horiz-adv-x="531" d="M49 1064q0 10 6 21l116 175q33 50 94 50q58 0 93 -50l118 -174q8 -11 8 -22q0 -14 -10 -24t-27 -10q-68 0 -103 57l-77 124l-80 -125q-35 -56 -102 -56q-17 0 -26.5 10t-9.5 24z" />
<glyph unicode="&#x2dc;" horiz-adv-x="602" d="M75 1108q0 68 46 112t87 44q37 0 65 -14.5t41.5 -32t31 -32t34.5 -14.5q18 0 31 13.5t19 30.5t20 30.5t35 13.5q17 0 30 -12t13 -28q0 -68 -46 -111.5t-88 -43.5q-37 0 -64.5 14.5t-41.5 32.5t-31 32.5t-35 14.5t-30.5 -14t-19 -30.5t-20.5 -30.5t-35 -14 q-17 0 -29.5 11.5t-12.5 27.5z" />
<glyph unicode="&#x2000;" horiz-adv-x="872" />
<glyph unicode="&#x2001;" horiz-adv-x="1744" />
<glyph unicode="&#x2002;" horiz-adv-x="872" />
<glyph unicode="&#x2003;" horiz-adv-x="1744" />
<glyph unicode="&#x2004;" horiz-adv-x="581" />
<glyph unicode="&#x2005;" horiz-adv-x="436" />
<glyph unicode="&#x2006;" horiz-adv-x="290" />
<glyph unicode="&#x2007;" horiz-adv-x="290" />
<glyph unicode="&#x2008;" horiz-adv-x="218" />
<glyph unicode="&#x2009;" horiz-adv-x="348" />
<glyph unicode="&#x200a;" horiz-adv-x="96" />
<glyph unicode="&#x2010;" horiz-adv-x="720" d="M104 484q0 31 22 53t53 22h362q31 0 53 -22t22 -53q0 -32 -22 -54t-53 -22h-362q-31 0 -53 22t-22 54z" />
<glyph unicode="&#x2011;" horiz-adv-x="720" d="M104 484q0 31 22 53t53 22h362q31 0 53 -22t22 -53q0 -32 -22 -54t-53 -22h-362q-31 0 -53 22t-22 54z" />
<glyph unicode="&#x2012;" horiz-adv-x="720" d="M104 484q0 31 22 53t53 22h362q31 0 53 -22t22 -53q0 -32 -22 -54t-53 -22h-362q-31 0 -53 22t-22 54z" />
<glyph unicode="&#x2013;" horiz-adv-x="1201" d="M107 484q0 29 20 48.5t49 19.5h849q29 0 49 -19.5t20 -48.5t-20 -49.5t-49 -20.5h-849q-29 0 -49 20.5t-20 49.5z" />
<glyph unicode="&#x2014;" horiz-adv-x="2155" d="M108 484q0 28 20 48t48 20h1804q29 0 49 -20t20 -48q0 -29 -20 -49.5t-49 -20.5h-1804q-28 0 -48 20.5t-20 49.5z" />
<glyph unicode="&#x2018;" horiz-adv-x="404" d="M89 1106q0 59 25 118.5t60 99.5t70.5 65.5t57.5 25.5q14 0 24.5 -10t10.5 -25q0 -18 -14 -29q-55 -42 -81 -87.5t-26 -107.5q46 0 75 -28.5t29 -74.5t-29 -74.5t-75 -28.5q-59 0 -93 46t-34 110z" />
<glyph unicode="&#x2019;" horiz-adv-x="404" d="M92 985q0 19 14 29q55 42 81 88t26 107q-46 0 -75 28.5t-29 74.5t29 74.5t75 28.5q59 0 92.5 -45.5t33.5 -109.5q0 -59 -25 -118.5t-59.5 -100t-70 -66t-57.5 -25.5q-14 0 -24.5 10.5t-10.5 24.5z" />
<glyph unicode="&#x201a;" horiz-adv-x="450" d="M95 -223q0 19 15 29q55 41 80.5 87t25.5 108q-46 0 -75 28.5t-29 74.5t29 74.5t75 28.5q59 0 93 -46t34 -110q0 -59 -25 -118.5t-60 -99.5t-70.5 -65.5t-57.5 -25.5q-14 0 -24.5 10t-10.5 25z" />
<glyph unicode="&#x201c;" horiz-adv-x="726" d="M89 1106q0 59 25 118.5t60 99.5t70.5 65.5t57.5 25.5q14 0 24.5 -10t10.5 -25q0 -17 -15 -29q-55 -42 -80.5 -87.5t-25.5 -107.5q46 0 74.5 -28.5t28.5 -74.5t-28.5 -74.5t-74.5 -28.5q-59 0 -93 46t-34 110zM411 1106q0 59 25 118.5t60 99.5t70.5 65.5t57.5 25.5 q14 0 24.5 -10t10.5 -25q0 -17 -15 -29q-55 -41 -80.5 -87t-25.5 -108q46 0 74.5 -28.5t28.5 -74.5t-28.5 -74.5t-74.5 -28.5q-59 0 -93 46t-34 110z" />
<glyph unicode="&#x201d;" horiz-adv-x="726" d="M92 985q0 19 14 29q55 42 80.5 87.5t25.5 107.5q-46 0 -74.5 28.5t-28.5 74.5t28.5 74.5t74.5 28.5q59 0 93 -45.5t34 -109.5q0 -59 -25 -118.5t-59.5 -100t-70 -66t-57.5 -25.5q-14 0 -24.5 10.5t-10.5 24.5zM414 985q0 18 14 29q55 42 81 88t26 107q-46 0 -75 28.5 t-29 74.5t29 74.5t75 28.5q59 0 92.5 -45.5t33.5 -109.5q0 -59 -25 -118.5t-59.5 -100t-70 -66t-57.5 -25.5q-14 0 -24.5 10.5t-10.5 24.5z" />
<glyph unicode="&#x201e;" horiz-adv-x="772" d="M95 -223q0 19 15 29q55 41 80.5 87t25.5 108q-46 0 -75 28.5t-29 74.5t29 74.5t75 28.5q59 0 93 -46t34 -110q0 -59 -25 -118.5t-60 -99.5t-70.5 -65.5t-57.5 -25.5q-14 0 -24.5 10t-10.5 25zM417 -223q0 17 15 29q55 41 80.5 87t25.5 108q-46 0 -74.5 28.5t-28.5 74.5 t28.5 74.5t74.5 28.5q59 0 93 -46t34 -110q0 -59 -25 -118.5t-60 -99.5t-70.5 -65.5t-57.5 -25.5q-14 0 -24.5 10t-10.5 25z" />
<glyph unicode="&#x2022;" horiz-adv-x="702" d="M97 611q0 105 74.5 179.5t179.5 74.5q106 0 180.5 -74.5t74.5 -179.5q0 -106 -74.5 -180.5t-180.5 -74.5q-105 0 -179.5 74.5t-74.5 180.5z" />
<glyph unicode="&#x2026;" horiz-adv-x="1761" d="M111 103q0 50 32 82.5t83 32.5q50 0 82 -32.5t32 -82.5q0 -51 -32 -83t-82 -32q-51 0 -83 32t-32 83zM766 103q0 50 32 82.5t83 32.5t82.5 -32t31.5 -83t-31.5 -83t-82.5 -32t-83 32t-32 83zM1421 103q0 50 32 82.5t83 32.5q50 0 82 -32.5t32 -82.5q0 -51 -32 -83 t-82 -32q-51 0 -83 32t-32 83z" />
<glyph unicode="&#x202f;" horiz-adv-x="348" />
<glyph unicode="&#x2039;" horiz-adv-x="548" d="M77 496q0 31 18 55l175 247q49 68 131 68q20 0 33 -12.5t13 -30.5q0 -13 -9 -27l-193 -300l193 -299q9 -13 9 -27q0 -18 -12.5 -30t-33.5 -12q-83 0 -131 67l-175 247q-18 25 -18 54z" />
<glyph unicode="&#x203a;" horiz-adv-x="548" d="M102 170q0 14 9 27l193 299l-193 300q-9 14 -9 27q0 18 13 30.5t34 12.5q83 0 130 -68l175 -247q17 -23 17 -55q0 -30 -17 -54l-175 -247q-47 -67 -130 -67q-21 0 -34 12t-13 30z" />
<glyph unicode="&#x205f;" horiz-adv-x="436" />
<glyph unicode="&#x20ac;" horiz-adv-x="1086" d="M64 757q0 23 19.5 40.5t44.5 17.5h70q22 123 75 218t126.5 152t158.5 86t179 29q33 0 64 -2.5t69 -12t65.5 -24.5t46 -42.5t18.5 -64.5v-91q0 -29 -20 -49t-48 -20q-31 0 -56 18.5t-34 47.5l-32 107q-41 15 -79 15q-129 0 -218 -92.5t-120 -274.5h417q16 0 26.5 -11 t10.5 -26q0 -23 -19.5 -40.5t-44.5 -17.5h-401q-3 -42 -3 -87q0 -43 1 -63h367q16 0 26.5 -11t10.5 -26q0 -23 -19.5 -41t-44.5 -18h-331q26 -185 113 -274t221 -89q100 0 197 62q11 7 25 7q21 0 34.5 -16.5t13.5 -38.5q0 -52 -101 -102.5t-217 -50.5q-104 0 -188.5 37.5 t-143 105.5t-95.5 158.5t-53 200.5h-93q-16 0 -26.5 11t-10.5 26q0 23 19.5 41t44.5 18h56q-2 46 -2 68q0 43 3 82h-84q-16 0 -27 11t-11 26z" />
<glyph unicode="&#x2122;" horiz-adv-x="1449" d="M59 1226q0 19 13 32.5t32 13.5h405q19 0 32.5 -13.5t13.5 -32.5t-13.5 -32t-32.5 -13h-148v-484q0 -23 -15.5 -38.5t-38.5 -15.5q-22 0 -38 16t-16 38v484h-149q-19 0 -32 13t-13 32zM641 697v501q0 34 24.5 58.5t58.5 24.5q37 0 67.5 -21.5t43.5 -55.5l149 -389l148 390 q13 34 43.5 55t66.5 21q34 0 58 -24.5t24 -58.5v-501q0 -22 -16 -38t-39 -16t-39 16t-16 38v455h-1l-182 -475q-12 -34 -48 -34t-50 34l-182 475h-1v-455q0 -23 -16 -38.5t-38 -15.5q-23 0 -39 16t-16 38z" />
<glyph unicode="&#xe000;" horiz-adv-x="955" d="M0 0v955h955v-955h-955z" />
</font>
</defs>
</svg>
