<?xml version="1.0" standalone="no"?>
<!DOCTYPE svg PUBLIC "-//W3C//DTD SVG 1.1//EN" "http://www.w3.org/Graphics/SVG/1.1/DTD/svg11.dtd" >
<svg xmlns="http://www.w3.org/2000/svg">
<metadata></metadata>
<defs>
<font id="classic_roundbold" horiz-adv-x="1101" >
<font-face units-per-em="2048" ascent="1566" descent="-482" />
<missing-glyph horiz-adv-x="502" />
<glyph unicode="&#xfb01;" horiz-adv-x="1257" d="M59 874q0 33 23.5 57t56.5 24h50v48q0 78 17 139t45.5 104t74.5 74t95.5 49t119 28.5t133 14t148.5 3.5q153 0 223.5 -48t70.5 -126q0 -69 -43 -112t-112 -43q-60 0 -106 37.5t-46 99.5q0 17 3 35q-30 3 -46 3q-52 0 -93.5 -5t-86.5 -21t-74.5 -42.5t-49 -73.5 t-19.5 -111v-53h117q34 0 57.5 -24t23.5 -57q0 -34 -23.5 -57t-57.5 -23h-117v-626l77 -11q31 -4 51.5 -28t20.5 -56q0 -31 -21.5 -52t-51.5 -21h-375q-30 0 -51.5 21.5t-21.5 51.5q0 31 20.5 55t51.5 30l46 9v627h-50q-34 0 -57 23t-23 57zM738 71q0 31 19.5 55t49.5 29 l49 9v635l-50 7q-29 4 -48.5 27t-19.5 52t19.5 50.5t48.5 24.5l191 18q44 4 76 -29t32 -79v-706l40 -9q31 -7 50.5 -30t19.5 -54q0 -29 -21 -50t-50 -21h-335q-30 0 -50.5 21t-20.5 50z" />
<glyph unicode="&#xfb02;" horiz-adv-x="1247" d="M58 874q0 33 23.5 57t57.5 24h49v48q0 100 25.5 175t67 119.5t103.5 71.5t125.5 36.5t142.5 9.5q62 0 131 -19l199 19q43 4 75 -29t32 -79v-1141l42 -8q31 -6 50.5 -30.5t19.5 -55.5q0 -30 -21 -51t-50 -21h-340q-30 0 -51 21.5t-21 50.5q0 32 19.5 56t50.5 29l50 10 v1044q-81 45 -184 45q-47 0 -82.5 -10.5t-66.5 -36.5t-47 -76.5t-16 -124.5v-53h118q33 0 56.5 -24t23.5 -57q0 -34 -23.5 -57t-56.5 -23h-118v-626l77 -11q31 -5 52 -29t21 -55t-21.5 -52t-51.5 -21h-376q-30 0 -51 21.5t-21 51.5q0 31 20 55t51 30l46 9v627h-49 q-34 0 -57.5 23t-23.5 57z" />
<glyph unicode="&#xfb03;" horiz-adv-x="1928" d="M58 874q0 33 23.5 57t57.5 24h49v48q0 91 30 160.5t79.5 112t119.5 69.5t142 37t156 10q203 0 251 -95q77 70 205 94t322 24q153 0 223.5 -48t70.5 -126q0 -69 -43 -112t-112 -43q-62 0 -107 39t-45 100q0 20 2 33q-30 3 -45 3q-52 0 -94 -5t-87 -21t-74.5 -42.5 t-49 -73.5t-19.5 -111v-53h118q34 0 57.5 -24t23.5 -57q0 -34 -23.5 -57t-57.5 -23h-118v-626l78 -11q31 -5 51.5 -29t20.5 -55t-21.5 -52t-51.5 -21h-375q-31 0 -52 21.5t-21 51.5q0 31 20.5 55t51.5 30l46 9v627h-50q-34 0 -57.5 23t-23.5 57q0 33 23.5 57t57.5 24h50v48 q0 51 6 93q-45 3 -81 31t-51 71l-13 39l-17 1q-31 1 -61 -2.5t-68 -17t-66 -37.5t-47.5 -68.5t-19.5 -104.5v-53h117q34 0 57.5 -24t23.5 -57q0 -34 -23.5 -57t-57.5 -23h-117v-626l77 -11q31 -5 51.5 -29t20.5 -55t-21 -52t-51 -21h-376q-30 0 -51 21.5t-21 51.5 q0 31 20 55t51 30l46 9v627h-49q-34 0 -57.5 23t-23.5 57zM1409 71q0 31 19.5 55t49.5 29l50 9v635l-51 7q-29 4 -48.5 27t-19.5 52t19.5 50.5t48.5 24.5l192 18q43 4 75.5 -29t32.5 -79v-706l39 -9q31 -7 50.5 -30t19.5 -54q0 -29 -21 -50t-50 -21h-335q-29 0 -50 21 t-21 50z" />
<glyph unicode="&#xfb04;" horiz-adv-x="1920" d="M58 874q0 33 23.5 57t57.5 24h49v48q0 91 30 160.5t79.5 112t119.5 69.5t142 37t156 10q195 0 245 -87q110 110 364 110q62 0 131 -19l199 19q43 4 75.5 -29t32.5 -79v-1141l41 -8q31 -6 50.5 -30.5t19.5 -55.5q0 -30 -21 -51t-50 -21h-341q-29 0 -50.5 21.5t-21.5 50.5 q0 32 20 56t51 29l50 10v1044q-83 45 -184 45q-47 0 -82.5 -10.5t-66.5 -36.5t-47 -76.5t-16 -124.5v-53h117q33 0 57 -24t24 -57t-24 -56.5t-57 -23.5h-117v-626l77 -11q31 -5 52 -29t21 -55t-21.5 -52t-52.5 -21h-375q-29 0 -50.5 21.5t-21.5 51.5q0 31 20 55t51 30l46 9 v627h-50q-34 0 -57 23t-23 57q0 33 23.5 57t56.5 24h50v48q0 51 6 93q-46 3 -81.5 30.5t-50.5 71.5l-13 39l-16 1q-31 1 -61 -2.5t-68.5 -17t-66.5 -37.5t-47.5 -68.5t-19.5 -104.5v-53h118q33 0 56.5 -24t23.5 -57q0 -34 -23.5 -57t-56.5 -23h-118v-626l77 -11 q31 -4 52 -28t21 -56q0 -31 -21.5 -52t-51.5 -21h-376q-30 0 -51 21.5t-21 51.5q0 31 20 55t51 30l46 9v627h-49q-34 0 -57.5 23t-23.5 57z" />
<glyph horiz-adv-x="2048" />
<glyph horiz-adv-x="2048" />
<glyph unicode="&#xd;" horiz-adv-x="2048" />
<glyph unicode=" "  horiz-adv-x="502" />
<glyph unicode="&#x09;" horiz-adv-x="502" />
<glyph unicode="&#xa0;" horiz-adv-x="502" />
<glyph unicode="!" horiz-adv-x="523" d="M106 144q0 69 43.5 112.5t112.5 43.5t112.5 -43.5t43.5 -112.5t-43.5 -112.5t-112.5 -43.5t-112.5 43.5t-43.5 112.5zM116 1166q0 134 146 134q73 0 108.5 -35.5t35.5 -98.5q0 -14 -2 -54l-38 -639q-2 -41 -32.5 -69.5t-71.5 -28.5t-71.5 28.5t-32.5 69.5l-39 634 q0 7 -1.5 28.5t-1.5 30.5z" />
<glyph unicode="&#x22;" horiz-adv-x="733" d="M71 1293q0 50 36 86t87 36t87 -36t36 -86q0 -14 -1 -18l-51 -463q-4 -34 -22 -54.5t-49 -20.5t-49.5 20.5t-22.5 54.5l-50 463q-1 4 -1 18zM417 1275v18q0 50 35.5 86t86.5 36q53 0 90.5 -36.5t32.5 -85.5l-51 -481q-4 -34 -22.5 -54.5t-48.5 -20.5q-32 0 -50 20.5 t-22 54.5z" />
<glyph unicode="#" horiz-adv-x="1054" d="M58 446q0 35 25 59.5t60 24.5h114l31 213h-98q-35 0 -60 25t-25 60t25 59.5t60 24.5h122l40 275q5 37 33 61t66 24q31 0 52.5 -22t21.5 -52q0 -7 -1 -11l-40 -275h181l40 275q5 37 33.5 61t65.5 24q31 0 53 -21.5t22 -52.5q0 -3 -2 -11l-39 -275h78q33 0 56.5 -24.5 t23.5 -59.5t-25 -60t-60 -25h-98l-31 -213h83q33 0 56 -24.5t23 -59.5t-24.5 -60t-59.5 -25h-104l-41 -276q-5 -37 -33 -61t-65 -24q-31 0 -52.5 21.5t-21.5 52.5q0 7 1 11l40 276h-182l-39 -276q-5 -37 -33.5 -61t-65.5 -24q-31 0 -53 22t-22 52q0 7 1 11l41 276h-88 q-35 0 -60 25t-25 60zM429 530h181l31 213h-181z" />
<glyph unicode="$" horiz-adv-x="992" d="M61 200v47q0 46 32.5 78t78.5 32q49 0 89 -29.5t54 -76.5l20 -67q44 -14 77 -14q22 0 34 1v368q-141 69 -192 103q-152 102 -168 254q-2 19 -2 39q0 148 93.5 242t268.5 116v102q0 22 16 38t38 16t37.5 -16t15.5 -38v-95q46 0 89 -5.5t92.5 -20t85 -37.5t59.5 -63.5 t24 -92.5v-47q0 -46 -32 -78.5t-78 -32.5q-49 0 -89 29.5t-54 76.5l-20 66q-28 9 -71 9h-6v-335q140 -66 179 -90q150 -89 186 -218q12 -44 12 -95q0 -162 -101 -263t-276 -124v-102q0 -22 -15.5 -37.5t-37.5 -15.5t-38 15.5t-16 37.5v95q-53 0 -99.5 5t-101.5 19.5 t-93.5 38.5t-64.5 66.5t-26 98.5zM350 969q0 -83 96 -144v265q-96 -29 -96 -121zM553 189q109 36 109 137q0 86 -109 156v-293z" />
<glyph unicode="%" horiz-adv-x="1518" d="M60 896q0 83 15 151t47 122.5t87.5 84.5t130.5 30q71 0 124.5 -28t84.5 -79t46 -116t15 -144q0 -174 -68 -281t-214 -107q-95 0 -156.5 50t-86.5 129.5t-25 187.5zM243 906q0 -119 18.5 -184.5t70.5 -65.5q53 0 73.5 66.5t20.5 183.5q0 58 -3.5 99.5t-13 77.5t-28.5 54.5 t-47 18.5q-91 0 -91 -250zM331 9q0 23 9 38l708 1254q22 39 66 39q31 0 53.5 -22t22.5 -54q0 -21 -10 -38l-707 -1254q-22 -39 -66 -39q-31 0 -53.5 22.5t-22.5 53.5zM909 355q0 83 15.5 151.5t47.5 122.5t87.5 84t130.5 30q71 0 124.5 -28t84.5 -78.5t46 -115.5t15 -144 q0 -83 -15.5 -151.5t-47.5 -123t-88 -84.5t-131 -30q-72 0 -125 28t-84 79t-45.5 115.5t-14.5 144.5zM1093 366q0 -120 18.5 -185t70.5 -65q53 0 73.5 66.5t20.5 183.5q0 58 -3.5 99.5t-13 77.5t-28.5 54.5t-47 18.5q-91 0 -91 -250z" />
<glyph unicode="&#x26;" horiz-adv-x="1356" d="M63 354q0 106 61.5 191t167.5 137q-144 155 -144 292q0 143 107.5 234.5t263.5 91.5q163 0 264.5 -79t101.5 -224q0 -128 -60.5 -198.5t-193.5 -125.5l334 -341q49 77 49 185q0 55 -9 72l-45 10q-31 8 -50.5 32t-19.5 55q0 29 21.5 50.5t50.5 21.5h293q29 0 49.5 -20.5 t20.5 -49.5q0 -30 -20 -54t-49 -29l-19 -3q4 -37 4 -83q0 -187 -132 -324l23 -25l59 -12q31 -7 50.5 -31.5t19.5 -55.5q0 -29 -21 -50t-50 -21h-133q-103 0 -150 51q-153 -74 -352 -74q-77 0 -148.5 15t-134 46t-109 75t-73.5 106t-27 135zM325 388q0 -110 84.5 -169.5 t209.5 -59.5q79 0 157 33l-352 361q-99 -68 -99 -165zM408 995q0 -90 108 -207q64 34 96.5 81t32.5 117q0 63 -32.5 103.5t-88.5 40.5q-51 0 -83.5 -38.5t-32.5 -96.5z" />
<glyph unicode="'" horiz-adv-x="387" d="M71 1293q0 50 36 86t87 36t86.5 -36t35.5 -86q0 -14 -1 -18l-50 -463q-4 -34 -22.5 -54.5t-48.5 -20.5q-31 0 -49.5 20.5t-22.5 54.5l-50 463q-1 4 -1 18z" />
<glyph unicode="(" horiz-adv-x="561" d="M70 506q0 84 16 190.5t48.5 218t76.5 204t105.5 152t128.5 59.5q25 0 40.5 -15.5t15.5 -37.5q0 -18 -9 -32q-205 -350 -205 -739q0 -387 205 -734q9 -15 9 -32q0 -22 -15.5 -37t-40.5 -15q-69 0 -131 59.5t-105 152.5t-75.5 204t-48 215.5t-15.5 186.5z" />
<glyph unicode=")" horiz-adv-x="561" d="M61 -260q0 17 9 32q205 349 205 734q0 389 -205 739q-9 17 -9 32q0 22 15.5 37.5t40.5 15.5q67 0 128.5 -59.5t105.5 -152t76.5 -204t48.5 -218t16 -190.5q0 -82 -15.5 -186.5t-48 -215.5t-75.5 -204t-105 -152.5t-131 -59.5q-25 0 -40.5 15t-15.5 37z" />
<glyph unicode="*" horiz-adv-x="772" d="M61 1005q0 31 20.5 51t49.5 20q6 0 10 -1l148 -19l-97 130q-15 21 -15 44q0 30 21.5 51.5t52.5 21.5q48 0 69 -46l64 -143l66 146q20 44 67 44q30 0 52 -21.5t22 -51.5q0 -23 -15 -44l-99 -130l155 19q3 1 9 1q30 0 51 -21t21 -51q0 -31 -21.5 -52t-50.5 -21q-6 0 -9 1 l-154 18l98 -125q16 -22 16 -45q0 -31 -22 -52.5t-53 -21.5q-22 0 -41.5 13t-29.5 34l-63 143l-70 -150q-9 -19 -26.5 -30.5t-37.5 -11.5q-29 0 -51 22t-22 52q0 22 16 44l99 127l-150 -17q-3 -1 -8 -1q-29 0 -50.5 21t-21.5 52z" />
<glyph unicode="+" horiz-adv-x="1015" d="M56 535q0 43 30 73t73 30h243v243q0 43 31 74t74 31t74 -31t31 -74v-243h244q43 0 73 -30t30 -73t-30 -73t-73 -30h-244v-244q0 -44 -31 -74.5t-74 -30.5t-74 30.5t-31 74.5v244h-243q-43 0 -73 30t-30 73z" />
<glyph unicode="," horiz-adv-x="496" d="M60 -281q0 31 26 51q129 101 134 226q-60 5 -97.5 47t-37.5 105q0 67 41.5 109.5t107.5 42.5q84 0 132 -64.5t48 -156.5q0 -80 -33.5 -161t-81 -136t-96.5 -90t-81 -35q-25 0 -43.5 18.5t-18.5 43.5z" />
<glyph unicode="-" horiz-adv-x="697" d="M82 484q0 42 29.5 71.5t71.5 29.5h331q42 0 72 -29.5t30 -71.5t-30 -72t-72 -30h-331q-42 0 -71.5 30t-29.5 72z" />
<glyph unicode="." horiz-adv-x="482" d="M85 144q0 68 43.5 112t112.5 44t112.5 -44t43.5 -112q0 -69 -43.5 -112.5t-112.5 -43.5t-112.5 43.5t-43.5 112.5z" />
<glyph unicode="/" horiz-adv-x="757" d="M44 -69q0 19 5 33l462 1309q10 30 36 48t57 18q40 0 69.5 -28.5t29.5 -69.5q0 -18 -6 -33l-462 -1310q-10 -30 -36 -48t-57 -18q-39 0 -68.5 29t-29.5 70z" />
<glyph unicode="0" horiz-adv-x="1121" d="M88 617q0 116 16 216t52 187t91 148.5t137.5 96.5t186.5 35q122 0 213 -49.5t144.5 -138.5t79 -203t25.5 -253q0 -117 -16 -216.5t-52 -187t-91.5 -148.5t-138 -96.5t-186.5 -35.5q-99 0 -177.5 32.5t-131 90t-87.5 139.5t-50 176.5t-15 206.5zM372 637q0 -106 7.5 -183 t26 -145t56 -103.5t93.5 -35.5q57 0 96 35.5t59.5 103.5t28.5 146t8 182q0 85 -4 149.5t-16.5 126t-32.5 101t-54.5 63.5t-80.5 24q-55 0 -93 -36.5t-58 -104t-28 -145t-8 -178.5z" />
<glyph unicode="1" horiz-adv-x="711" d="M30 1084q0 39 24.5 71t62.5 43q77 24 133 54q93 48 171 48q38 0 65 -27.5t27 -65.5v-1014l48 -7q37 -6 61 -34.5t24 -65.5q0 -35 -25.5 -60.5t-60.5 -25.5h-365q-35 0 -60 25.5t-25 60.5q0 37 23.5 65t60.5 34l53 9v825q-79 -22 -133 -22q-34 0 -59 25t-25 62z" />
<glyph unicode="2" horiz-adv-x="1024" d="M55 114q0 39 13 76.5t30.5 67t51.5 67.5t60 62.5t73 68t75 70.5q162 158 224.5 247.5t62.5 153.5q0 82 -47.5 117.5t-142.5 35.5q-122 0 -217 -83q-24 -21 -55 -21q-37 0 -59 31.5t-22 71.5q0 56 61.5 108t154.5 82.5t185 30.5q85 0 159.5 -21t134.5 -63t94.5 -112 t34.5 -160q0 -116 -71.5 -224t-240.5 -259q-33 -29 -81 -71t-71 -63t-48 -46.5t-39 -44.5h317l6 19q11 33 46.5 56.5t79.5 23.5q45 0 77 -32t32 -77v-93q0 -55 -39 -94t-94 -39h-618q-51 0 -89 33.5t-38 80.5z" />
<glyph unicode="3" horiz-adv-x="1029" d="M66 192q0 41 24.5 74t64.5 33q29 0 53 -18q117 -84 230 -84q106 0 167.5 46t61.5 141q0 165 -222 178q-41 2 -69 30.5t-28 68.5q0 39 28 67t69 31q87 7 136.5 51t49.5 123q0 147 -190 147q-123 0 -218 -83q-24 -21 -55 -21q-37 0 -59 31t-22 71q0 56 62.5 108t156 83 t183.5 31q85 0 159.5 -21t133.5 -62t93 -108.5t34 -154.5q0 -96 -49 -168t-134 -111q105 -36 162.5 -115.5t57.5 -195.5q0 -124 -65 -214t-172 -134t-241 -44q-92 0 -184 28.5t-155 80t-63 111.5z" />
<glyph unicode="4" horiz-adv-x="1040" d="M27 450q0 90 55 166l427 589q69 95 188 95q49 0 83 -34.5t34 -83.5v-616h60q43 0 73.5 -30.5t30.5 -73.5t-30.5 -73.5t-73.5 -30.5h-60v-166l38 -6q37 -7 60.5 -35.5t23.5 -65.5q0 -35 -25.5 -60t-60.5 -25h-326q-35 0 -60.5 25t-25.5 60q0 37 24 65.5t60 35.5l37 6v166 h-440q-38 0 -65 27t-27 65zM277 566h282v393z" />
<glyph unicode="5" horiz-adv-x="1039" d="M94 192q0 41 23.5 75t63.5 34q29 0 52 -18q105 -83 195 -83q116 0 186.5 56.5t70.5 176.5q0 111 -54 167.5t-151 56.5q-30 0 -70 -11q-10 -3 -80.5 -28t-111.5 -25q-43 0 -73 30t-30 73v443q0 55 39 94t94 39h548q49 0 82.5 -34t33.5 -82q0 -49 -33.5 -82.5t-82.5 -33.5 h-448v-198q74 27 177 27q199 0 319.5 -113.5t120.5 -314.5q0 -217 -136 -343t-361 -126q-86 0 -172.5 29.5t-144 81.5t-57.5 109z" />
<glyph unicode="6" horiz-adv-x="1086" d="M87 564q0 160 33.5 291t101 232t179.5 157t260 56q62 0 129 -18.5t118.5 -59t51.5 -92.5q0 -40 -25.5 -71.5t-66.5 -31.5q-27 0 -53 16q-67 44 -127 44q-136 0 -209 -80.5t-95 -235.5q100 55 226 55q181 0 293.5 -109.5t112.5 -300.5q0 -199 -125 -321.5t-332 -122.5 q-107 0 -189 29.5t-135 81t-86.5 127.5t-47.5 162t-14 192zM370 447q0 -126 46.5 -204t143.5 -78q83 0 129.5 64t46.5 171q0 106 -51.5 162t-140.5 56q-84 0 -172 -55q-2 -39 -2 -116z" />
<glyph unicode="7" horiz-adv-x="941" d="M36 1046v93q0 55 39.5 94t94.5 39h615q56 0 94 -36.5t38 -89.5q0 -41 -11.5 -87.5t-41 -109t-46 -96t-61.5 -113.5t-53 -94q-80 -147 -124.5 -272t-60.5 -262q-7 -59 -49.5 -99.5t-100.5 -40.5q-53 0 -90.5 36t-37.5 86q0 132 79 317.5t181 343.5q116 181 156 286h-379 l-6 -20q-10 -34 -46.5 -58.5t-80.5 -24.5q-45 0 -77 31.5t-32 76.5z" />
<glyph unicode="8" horiz-adv-x="1074" d="M80 339q0 218 219 320q-168 100 -168 293q0 84 34.5 151.5t92.5 110t131 64.5t153 22q64 0 123 -12t111 -38.5t90.5 -65t60.5 -94.5t22 -124q0 -188 -174 -283q110 -57 163 -134.5t53 -192.5q0 -123 -62.5 -211t-166 -130.5t-235.5 -42.5q-126 0 -226 40.5t-160.5 125 t-60.5 201.5zM348 353q0 -89 54.5 -136.5t138.5 -47.5q78 0 130 47t52 131q0 38 -11.5 68.5t-27.5 50.5t-46.5 39t-54 29.5t-64.5 26.5q-171 -60 -171 -208zM393 963q0 -136 159 -186q133 40 133 179q0 71 -38.5 111.5t-104.5 40.5t-107.5 -38t-41.5 -107z" />
<glyph unicode="9" horiz-adv-x="1086" d="M70 856q0 199 125 321.5t332 122.5q133 0 227 -44t146.5 -126t76 -185t23.5 -237q0 -160 -33.5 -291t-101 -232t-179.5 -157t-260 -56q-62 0 -129 18.5t-118.5 59.5t-51.5 92q0 40 25 71.5t66 31.5q29 0 54 -16q69 -44 126 -44q136 0 209 80.5t95 235.5 q-101 -56 -225 -56q-181 0 -294 110t-113 301zM350 872q0 -106 52 -162t140 -56q86 0 172 55q2 39 2 116q0 126 -46.5 204t-143.5 78q-82 0 -129 -64.5t-47 -170.5z" />
<glyph unicode=":" horiz-adv-x="537" d="M113 144q0 69 44 112.5t112 43.5q69 0 112.5 -43.5t43.5 -112.5t-43.5 -112.5t-112.5 -43.5q-68 0 -112 43.5t-44 112.5zM113 792q0 69 44 112.5t112 43.5q69 0 112.5 -43.5t43.5 -112.5t-43.5 -112t-112.5 -43t-112.5 43t-43.5 112z" />
<glyph unicode=";" horiz-adv-x="543" d="M86 -281q0 31 26 51q129 101 134 226q-60 5 -98 47t-38 105q0 67 41.5 109.5t107.5 42.5q84 0 132 -64.5t48 -156.5q0 -80 -33.5 -161t-81 -136t-96.5 -90t-81 -35q-25 0 -43 18.5t-18 43.5zM114 792q0 69 43.5 112.5t112.5 43.5t112 -43.5t43 -112.5t-43 -112t-112 -43 t-112.5 43t-43.5 112z" />
<glyph unicode="&#x3c;" horiz-adv-x="1109" d="M55 535q0 39 21.5 71t58.5 47l743 309q19 8 38 8q40 0 70 -29.5t30 -70.5q0 -30 -16.5 -55.5t-45.5 -37.5l-592 -242l592 -243q29 -12 45.5 -37.5t16.5 -55.5q0 -40 -29 -70t-71 -30q-19 0 -38 8l-743 309q-37 15 -58.5 47.5t-21.5 71.5z" />
<glyph unicode="=" d="M99 339q0 43 30.5 73t73.5 30h696q43 0 73 -30t30 -73t-30 -73.5t-73 -30.5h-696q-43 0 -73.5 30.5t-30.5 73.5zM99 730q0 43 30.5 73.5t73.5 30.5h696q43 0 73 -30.5t30 -73.5t-30 -73.5t-73 -30.5h-696q-43 0 -73.5 30.5t-30.5 73.5z" />
<glyph unicode="&#x3e;" horiz-adv-x="1109" d="M93 199q0 30 17 55.5t46 37.5l592 243l-592 242q-29 12 -46 37.5t-17 55.5q0 41 30 70.5t71 29.5q18 0 37 -8l744 -309q36 -15 57.5 -47t21.5 -71t-21.5 -71.5t-57.5 -47.5l-744 -309q-16 -8 -37 -8q-42 0 -71.5 30t-29.5 70z" />
<glyph unicode="?" horiz-adv-x="886" d="M55 1053v40q0 207 360 207q184 0 298.5 -83.5t114.5 -232.5q0 -159 -137 -277l-107 -92q-66 -57 -66 -114v-16q0 -46 -32 -78t-77 -32q-46 0 -80 32.5t-35 77.5v30q-1 63 24.5 113t79.5 104l43 44q55 56 82.5 100t27.5 90q0 146 -168 146q-32 0 -62 -9l-17 -55 q-15 -46 -54.5 -74t-87.5 -28q-44 0 -75.5 31.5t-31.5 75.5zM249 144q0 69 43 112.5t112 43.5t112.5 -43.5t43.5 -112.5t-43.5 -112.5t-112.5 -43.5t-112 43.5t-43 112.5z" />
<glyph unicode="@" horiz-adv-x="1479" d="M68 575q0 145 47 276t132.5 231t214 159t280.5 59q302 0 490 -176.5t188 -460.5q0 -66 -13.5 -132t-42.5 -127.5t-70 -109t-101.5 -76t-131.5 -28.5q-81 0 -133 40t-66 113q-87 -153 -228 -153q-47 0 -84.5 18t-62 48t-40.5 69.5t-23 81t-7 84.5q0 65 15 129.5t46 124 t74.5 105t105 72.5t132.5 27q92 0 134 -56q35 35 78 35q23 0 39 -16t16 -39q0 -11 -1 -15q-51 -292 -51 -345q0 -44 2.5 -70t12 -54.5t31.5 -42t57 -13.5q40 0 70.5 33t46 84t23 99.5t7.5 91.5q0 225 -136.5 364t-373.5 139q-117 0 -215.5 -48t-163 -128t-100.5 -182.5 t-36 -214.5q0 -151 60.5 -275.5t179 -200t275.5 -75.5q52 0 102 5.5t59 5.5q30 0 51 -20.5t21 -50.5q0 -85 -236 -85q-153 0 -281 54.5t-213.5 149t-132.5 222.5t-47 274zM577 498q0 -65 23 -112t74 -47q49 0 90.5 45t66.5 113.5t39 141t15 134.5q-28 28 -87 28 q-70 0 -122.5 -49.5t-75.5 -117t-23 -136.5z" />
<glyph unicode="A" horiz-adv-x="1248" d="M-6 85q0 37 23 66t60 36l31 7l341 979q19 57 69 92t111 35q60 0 109.5 -35.5t68.5 -92.5l327 -978l31 -7q36 -8 59.5 -36.5t23.5 -65.5q0 -35 -25 -60t-60 -25h-330q-35 0 -60 25t-25 60q0 37 24 65t60 35l26 5l-65 195h-371l-63 -195l24 -5q36 -7 59 -35.5t23 -64.5 q0 -35 -25 -60t-60 -25h-301q-35 0 -60 25t-25 60zM485 575h245l-122 418z" />
<glyph unicode="B" horiz-adv-x="1171" d="M76 86q0 37 24 65.5t61 34.5l50 8v884l-50 8q-37 6 -61 34.5t-24 65.5q0 35 25.5 60.5t60.5 25.5h389q66 0 119 -4.5t113.5 -16t105.5 -35.5t83 -60t58 -93t20 -130q0 -93 -44.5 -164t-124.5 -110q104 -36 158.5 -113t54.5 -189q0 -357 -498 -357h-434q-35 0 -60.5 25.5 t-25.5 60.5zM476 195h97q49 0 87 6.5t75.5 23.5t58 52t20.5 87q0 89 -51 130t-155 50q-43 4 -71.5 31.5t-28.5 66.5t28 67t70 35q81 13 123.5 52.5t42.5 118.5q0 90 -54.5 126t-173.5 36h-68v-882z" />
<glyph unicode="C" horiz-adv-x="1143" d="M66 596q0 321 177 512.5t481 191.5q49 0 93 -4t95.5 -18t88 -36t61 -62.5t24.5 -93.5v-60q0 -45 -32.5 -77.5t-77.5 -32.5q-49 0 -88 29t-54 76l-21 67q-27 11 -70 11q-189 0 -293 -123.5t-104 -351.5q0 -109 31.5 -193t82.5 -131.5t108.5 -71t116.5 -23.5q74 0 132 15.5 t120 53.5q21 14 49 14q40 0 64.5 -26t24.5 -66q0 -59 -67.5 -112.5t-161 -82.5t-177.5 -29q-81 0 -163 22.5t-162 72.5t-141 121t-99 177t-38 231z" />
<glyph unicode="D" horiz-adv-x="1324" d="M79 86q0 37 24 65.5t61 34.5l45 8v884l-45 8q-37 6 -61 34.5t-24 65.5q0 35 25.5 60.5t60.5 25.5h406q332 0 505.5 -151.5t173.5 -474.5q0 -139 -37 -250t-100.5 -184t-152 -121.5t-187 -69.5t-211.5 -21h-397q-35 0 -60.5 25.5t-25.5 60.5zM475 195h87q197 0 300 112.5 t103 334.5q0 227 -100.5 331t-307.5 104h-82v-882z" />
<glyph unicode="E" d="M79 86q0 37 24 65.5t61 34.5l45 8v884l-45 8q-37 7 -61 35t-24 65q0 35 25 60.5t61 25.5h735q55 0 94 -39t39 -94v-87q0 -41 -29.5 -71t-71.5 -30q-45 0 -80.5 27t-49.5 70l-9 29h-318v-324h309q42 0 71.5 -30t29.5 -72t-29.5 -71.5t-71.5 -29.5h-309v-355h333l10 38 q12 44 47.5 71t80.5 27q42 0 72 -30t30 -72v-96q0 -55 -39 -94t-94 -39h-750q-35 0 -60.5 25.5t-25.5 60.5z" />
<glyph unicode="F" horiz-adv-x="1025" d="M76 86q0 37 24 65.5t61 34.5l50 8v884l-50 8q-37 6 -61 34.5t-24 65.5q0 35 25.5 60.5t60.5 25.5h704q55 0 94 -39t39 -94v-86q0 -43 -29.5 -72.5t-71.5 -29.5q-44 0 -80 26.5t-49 70.5l-9 29h-283v-324h274q42 0 71.5 -30t29.5 -72t-29.5 -71.5t-71.5 -29.5h-274v-355 l61 -9q37 -5 61.5 -33.5t24.5 -65.5q0 -36 -25.5 -61.5t-61.5 -25.5h-375q-35 0 -60.5 25.5t-25.5 60.5z" />
<glyph unicode="G" horiz-adv-x="1281" d="M68 597q0 337 187.5 520t510.5 183q370 0 370 -207v-66q0 -46 -32 -78.5t-78 -32.5q-49 0 -89 29.5t-54 76.5l-21 68q-33 10 -78 10q-205 0 -319 -122.5t-114 -356.5q0 -446 423 -446q42 0 86 9v238l-53 8q-37 6 -61 34.5t-24 65.5q0 35 25.5 60.5t60.5 25.5h354 q35 0 60 -25.5t25 -60.5q0 -37 -23.5 -65t-60.5 -35l-39 -7v-237q0 -214 -433 -214q-137 0 -250.5 40.5t-197 117.5t-129.5 196.5t-46 270.5z" />
<glyph unicode="H" horiz-adv-x="1391" d="M76 86q0 37 24.5 65t61.5 35l49 8v884l-49 8q-37 6 -61.5 34.5t-24.5 65.5q0 35 25.5 60.5t60.5 25.5h358q35 0 60.5 -25.5t25.5 -60.5q0 -37 -23.5 -65.5t-60.5 -34.5l-45 -8v-323h439v323l-46 8q-37 6 -61 34.5t-24 65.5q0 35 25.5 60.5t60.5 25.5h359q36 0 61 -25.5 t25 -60.5q0 -37 -24 -65.5t-61 -34.5l-51 -8v-884l51 -8q37 -6 61 -34.5t24 -65.5q0 -35 -25 -60.5t-61 -25.5h-359q-35 0 -60.5 25.5t-25.5 60.5q0 37 24 65.5t61 34.5l46 8v359h-439v-359l45 -8q37 -6 60.5 -34.5t23.5 -65.5q0 -35 -25.5 -60.5t-60.5 -25.5h-358 q-35 0 -60.5 25.5t-25.5 60.5z" />
<glyph unicode="I" horiz-adv-x="687" d="M76 86q0 37 24 65t61 35l50 8v884l-50 8q-37 6 -61 34.5t-24 65.5q0 35 25.5 60.5t60.5 25.5h363q35 0 60.5 -25.5t25.5 -60.5q0 -37 -24 -65.5t-61 -34.5l-49 -8v-884l49 -8q36 -5 60.5 -34t24.5 -66q0 -35 -25.5 -60.5t-60.5 -25.5h-363q-35 0 -60.5 25.5t-25.5 60.5z " />
<glyph unicode="J" horiz-adv-x="932" d="M20 175v73q0 45 32 77.5t78 32.5q49 0 89 -29.5t54 -76.5l18 -59q22 -27 56 -27q38 0 65 22.5t42 57t24 87.5t11.5 101.5t2.5 112.5v531l-55 8q-37 5 -61.5 33.5t-24.5 66.5q0 35 25.5 60.5t61.5 25.5h363q35 0 60.5 -25t25.5 -60q0 -37 -24 -66t-61 -36l-40 -7v-606 q0 -246 -101 -373t-322 -127q-58 0 -109 8.5t-101 29t-79.5 63t-29.5 102.5z" />
<glyph unicode="K" horiz-adv-x="1306" d="M77 86q0 37 24 65t61 35l49 8v884l-49 8q-37 6 -61 34.5t-24 65.5q0 35 25.5 60.5t60.5 25.5h359q35 0 60.5 -25.5t25.5 -60.5q0 -37 -24 -65t-61 -35l-46 -8v-884l46 -8q37 -6 61 -34.5t24 -65.5q0 -35 -25.5 -60.5t-60.5 -25.5h-359q-35 0 -60.5 25.5t-25.5 60.5z M513 659q0 59 39 106l273 325l-22 3q-35 5 -58.5 32.5t-23.5 61.5q0 35 25.5 60t60.5 25h372q35 0 60.5 -25.5t25.5 -60.5q0 -37 -24 -65.5t-61 -34.5l-70 -12l-342 -379l389 -498l54 -10q37 -7 61 -35.5t24 -65.5q0 -35 -25.5 -60.5t-60.5 -25.5h-102q-133 0 -213 105 l-348 454q-34 44 -34 100z" />
<glyph unicode="L" horiz-adv-x="1036" d="M79 86q0 37 24 65.5t61 34.5l45 8v884l-46 8q-37 7 -60.5 35t-23.5 65q0 35 25.5 60.5t60.5 25.5h365q35 0 60.5 -25.5t25.5 -60.5q0 -37 -24.5 -66t-61.5 -34l-56 -8v-883h292l8 34q12 47 49.5 76.5t85.5 29.5q45 0 77 -32t32 -77v-93q0 -55 -39 -94t-94 -39h-720 q-36 0 -61 25.5t-25 60.5z" />
<glyph unicode="M" horiz-adv-x="1710" d="M76 86q0 37 24 65t61 35l50 8v884l-49 8q-37 6 -61 34.5t-24 65.5q0 35 25 60.5t61 25.5h244q61 0 111 -33t74 -89l257 -593l261 594q25 56 75.5 88.5t111.5 32.5h251q35 0 60.5 -25.5t25.5 -60.5q0 -37 -24 -65.5t-61 -34.5l-48 -8v-884l46 -8q37 -6 60.5 -34.5 t23.5 -65.5q0 -35 -25.5 -60.5t-60.5 -25.5h-354q-35 0 -60.5 25.5t-25.5 60.5q0 37 24 65.5t61 34.5l46 8v667l-239 -506q-22 -47 -66 -74t-96 -27t-96 27t-66 74l-229 490v-651l46 -8q37 -6 61 -34.5t24 -65.5q0 -35 -26 -60.5t-61 -25.5h-326q-36 0 -61 25.5t-25 60.5z " />
<glyph unicode="N" horiz-adv-x="1368" d="M76 86q0 37 24 65t61 35l50 8v884l-50 8q-37 6 -61 34.5t-24 65.5q0 36 25.5 61t60.5 25h199q62 0 113.5 -31t80.5 -86l399 -754v677l-51 8q-37 6 -61.5 34.5t-24.5 65.5q0 36 25.5 61t60.5 25h328q35 0 60.5 -25t25.5 -60q0 -38 -24 -66.5t-61 -34.5l-45 -8v-972 q0 -50 -35.5 -85t-84.5 -35q-56 0 -103 28t-75 77l-443 785v-682l49 -8q37 -6 61 -34.5t24 -65.5q0 -35 -25.5 -60.5t-60.5 -25.5h-332q-35 0 -60.5 25.5t-25.5 60.5z" />
<glyph unicode="O" horiz-adv-x="1314" d="M74 611q0 202 66.5 356t202 243.5t324.5 89.5q270 0 421.5 -173t151.5 -465q0 -200 -66.5 -354t-202.5 -245t-324 -91q-269 0 -421 175t-152 464zM359 636q0 -213 70.5 -336t221.5 -123q154 0 228.5 123t74.5 336q0 103 -16 185t-50 144.5t-91 96t-134 33.5 q-155 0 -229.5 -123t-74.5 -336z" />
<glyph unicode="P" horiz-adv-x="1102" d="M77 86q0 37 24 65.5t61 34.5l49 8v882l-49 8q-37 6 -61 34.5t-24 66.5q0 36 25 61.5t61 25.5h415q87 0 154 -8.5t132 -33t107.5 -66t68.5 -110t26 -161.5q0 -104 -37 -183.5t-102 -127t-147 -71t-178 -23.5q-38 0 -65.5 28.5t-27.5 67.5t28 67t69 35q180 28 180 203 q0 104 -55.5 146.5t-170.5 42.5h-83v-883l61 -9q37 -5 61.5 -33.5t24.5 -65.5q0 -36 -25.5 -61.5t-61.5 -25.5h-374q-35 0 -60.5 25.5t-25.5 60.5z" />
<glyph unicode="Q" horiz-adv-x="1320" d="M76 611q0 150 38.5 276t112 218t186.5 143.5t255 51.5q270 0 421.5 -173t151.5 -465q0 -119 -27.5 -230t-69.5 -186.5t-92 -121t-95 -45.5q-48 0 -82.5 36t-34.5 85q0 59 28 97q87 118 87 339q0 103 -16 185t-50 144.5t-91 96t-134 33.5q-154 0 -228.5 -122.5 t-74.5 -336.5q0 -213 70.5 -336t221.5 -123q132 0 185 -71q137 -183 268 -183q14 0 50.5 3t51.5 3q35 0 60 -24t25 -59q0 -31 -12.5 -54.5t-38 -37t-49 -22t-60.5 -12t-57 -4t-53 -0.5q-133 0 -225.5 61t-186.5 197q-252 13 -393.5 186t-141.5 451z" />
<glyph unicode="R" horiz-adv-x="1219" d="M76 86q0 37 24 65.5t61 34.5l50 8v884l-50 8q-37 6 -61 34.5t-24 65.5q0 35 25.5 60.5t60.5 25.5h465q206 0 318 -78t112 -255q0 -112 -57.5 -192.5t-161.5 -120.5q33 -17 62 -54t45.5 -69t48.5 -102q61 -135 90.5 -176t82.5 -45q38 -2 64 -27.5t26 -62.5t-26.5 -63.5 t-63.5 -26.5h-104q-52 0 -94.5 16.5t-69.5 38.5t-52.5 60t-38 65.5t-30.5 71.5t-27 62q-41 86 -74.5 134.5t-73.5 73.5q-94 59 -94 118q0 39 28.5 67.5t70.5 33.5q85 12 128.5 56t43.5 131q0 149 -218 149h-85v-883l51 -8q37 -6 61 -34.5t24 -65.5q0 -35 -25.5 -60.5 t-60.5 -25.5h-365q-35 0 -60.5 25.5t-25.5 60.5z" />
<glyph unicode="S" horiz-adv-x="984" d="M73 200v47q0 46 32.5 78t78.5 32q49 0 88.5 -29.5t53.5 -76.5l21 -67q44 -14 76 -14q97 0 162.5 38t65.5 118q0 44 -24 80.5t-64 62.5t-90.5 53.5t-103 51.5t-103 59t-90.5 74t-64 98t-24 130q0 165 121 265t316 100q46 0 89.5 -5t92.5 -19.5t85 -38t60 -64t24 -92.5v-47 q0 -46 -32 -78.5t-78 -32.5q-49 0 -89 29.5t-54 76.5l-20 65q-30 9 -71 9q-78 0 -128.5 -36t-50.5 -99q0 -43 24.5 -79t64 -60.5t90.5 -51t104 -49.5t104 -57.5t90.5 -73.5t64 -98.5t24.5 -132.5q0 -182 -128 -288t-327 -106q-53 0 -100.5 4.5t-103 19t-95 38.5t-66 66.5 t-26.5 99.5z" />
<glyph unicode="T" horiz-adv-x="1133" d="M21 1057v82q0 55 39 94t94 39h826q55 0 94 -39t39 -94v-82q0 -45 -32 -76.5t-77 -31.5q-46 0 -84 28t-50 74l-7 29h-163v-886l56 -8q37 -5 61 -33.5t24 -66.5q0 -35 -25 -60.5t-61 -25.5h-377q-36 0 -61 25.5t-25 61.5q0 37 24 65.5t61 33.5l57 8v886h-163l-7 -29 q-13 -46 -50.5 -74t-83.5 -28q-45 0 -77 31.5t-32 76.5z" />
<glyph unicode="U" horiz-adv-x="1312" d="M46 1187q0 35 25 60t60 25h348q35 0 60.5 -25.5t25.5 -60.5q0 -38 -24 -66.5t-61 -34.5l-45 -7v-559q0 -68 5 -117t20 -95t40.5 -74t68.5 -44.5t102 -16.5q62 0 105.5 18t68.5 46t38.5 77t17.5 96.5t4 118.5v550l-42 8q-37 7 -60.5 35t-23.5 65q0 35 25 60.5t60 25.5h317 q35 0 60.5 -25.5t25.5 -60.5q0 -37 -24 -65t-61 -35l-43 -8v-572q0 -132 -22 -225.5t-75.5 -165.5t-149.5 -107.5t-238 -35.5q-133 0 -226.5 32.5t-150 98.5t-82 159t-25.5 222v594l-40 7q-37 6 -60.5 35t-23.5 67z" />
<glyph unicode="V" horiz-adv-x="1227" d="M1 1187q0 35 25 60t60 25h343q35 0 60 -25t25 -60q0 -37 -23.5 -64t-60.5 -35l-28 -6l228 -794l233 795l-25 5q-36 7 -59 35.5t-23 63.5t25 60t60 25h309q35 0 60.5 -25t25.5 -60q0 -37 -23.5 -66t-60.5 -36l-36 -8l-348 -987q-19 -55 -62.5 -86.5t-99.5 -31.5 q-55 0 -98 32t-61 87l-323 986l-40 8q-36 7 -59.5 36t-23.5 66z" />
<glyph unicode="W" horiz-adv-x="1807" d="M6 1187q0 35 25 60t60 25h329q35 0 60 -25t25 -60q0 -37 -23.5 -65t-59.5 -35l-30 -6l171 -746l196 807q13 57 60 93.5t106 36.5q58 0 103.5 -36.5t58.5 -93.5l179 -808l180 748l-24 5q-37 7 -60 36t-23 64t25 60t60 25h304q35 0 60 -25t25 -60q0 -37 -23.5 -65.5 t-59.5 -36.5l-33 -7l-285 -978q-17 -58 -62 -93t-103 -35q-57 0 -100 35.5t-57 93.5l-181 761l-196 -759q-15 -59 -59.5 -95t-103.5 -36t-104 36t-62 95l-264 975l-32 7q-36 8 -59 36.5t-23 65.5z" />
<glyph unicode="X" horiz-adv-x="1259" d="M17 85q0 38 23.5 66.5t60.5 35.5l51 10l327 454l-295 424l-49 10q-37 7 -61 36t-24 66q0 35 25.5 60t60.5 25h376q34 0 55.5 -24.5t21.5 -59.5q0 -37 -21.5 -64.5t-54.5 -33.5l-25 -4l158 -245l160 245l-24 5q-32 7 -52 34t-20 62q0 36 21.5 60.5t56.5 24.5h335 q35 0 60.5 -25t25.5 -60q0 -38 -23.5 -66.5t-60.5 -35.5l-51 -10l-294 -410l328 -469l49 -9q37 -7 60.5 -35.5t23.5 -66.5q0 -35 -25 -60t-60 -25h-377q-35 0 -60.5 25t-25.5 60q0 36 24.5 63.5t60.5 33.5l25 5l-190 289l-183 -289l25 -5q36 -7 60 -34t24 -63 q0 -35 -24.5 -60t-59.5 -25h-352q-35 0 -60.5 25t-25.5 60z" />
<glyph unicode="Y" horiz-adv-x="1194" d="M-2 1187q0 35 25 60t60 25h358q35 0 60.5 -25t25.5 -60q0 -36 -24.5 -64t-60.5 -34l-30 -4l201 -364l201 363l-34 5q-36 6 -60 33.5t-24 64.5q0 35 25.5 60t60.5 25h332q35 0 60 -25t25 -60q0 -37 -23.5 -65.5t-59.5 -36.5l-39 -8l-349 -578v-304l62 -9q37 -5 61.5 -33.5 t24.5 -65.5q0 -36 -25.5 -61.5t-61.5 -25.5h-387q-36 0 -61 25.5t-25 61.5q0 37 24 65.5t61 33.5l62 9v300l-337 581l-44 9q-37 8 -60.5 36.5t-23.5 65.5z" />
<glyph unicode="Z" horiz-adv-x="1096" d="M59 93q0 93 54 169l587 813h-358l-8 -27q-11 -44 -48.5 -71.5t-83.5 -27.5q-45 0 -77 31.5t-32 76.5v82q0 55 39 94t94 39h700q38 0 65.5 -27.5t27.5 -65.5q0 -91 -55 -168l-592 -814h399l8 32q11 47 48.5 76.5t86.5 29.5q45 0 77 -32t32 -77v-93q0 -55 -39 -94t-94 -39 h-738q-39 0 -66 27t-27 66z" />
<glyph unicode="[" horiz-adv-x="562" d="M129 -167v1350q0 55 39 94t94 39h188q34 0 57.5 -23.5t23.5 -56.5t-23.5 -57t-57.5 -24h-119v-1293h119q34 0 57.5 -23.5t23.5 -56.5q0 -34 -23.5 -57.5t-57.5 -23.5h-188q-55 0 -94 38.5t-39 93.5z" />
<glyph unicode="\" horiz-adv-x="757" d="M54 1241q0 41 29.5 69.5t69.5 28.5q31 0 57 -18t36 -48l462 -1309q5 -14 5 -33q0 -41 -29.5 -70t-68.5 -29q-31 0 -57 18t-36 48l-462 1310q-6 15 -6 33z" />
<glyph unicode="]" horiz-adv-x="562" d="M31 -218q0 33 24 56.5t57 23.5h118v1293h-118q-33 0 -57 24t-24 57t24 56.5t57 23.5h188q55 0 94 -39t39 -94v-1350q0 -55 -39 -93.5t-94 -38.5h-188q-33 0 -57 23.5t-24 57.5z" />
<glyph unicode="^" horiz-adv-x="791" d="M45 650q0 22 8 38l230 529q15 34 45.5 54t67.5 20t67 -20t45 -54l230 -531q8 -16 8 -38q0 -38 -28 -66t-67 -28q-28 0 -52.5 15.5t-35.5 41.5l-167 393l-168 -391q-11 -27 -35 -42.5t-52 -15.5q-38 0 -67 28t-29 67z" />
<glyph unicode="_" horiz-adv-x="1050" d="M6 -165h1039v-103h-1039v103z" />
<glyph unicode="`" horiz-adv-x="428" d="M28 1285q0 14 10.5 23.5t27.5 9.5h106q74 0 113 -66l87 -147q8 -13 8 -30q0 -22 -15.5 -37t-40.5 -15q-95 0 -155 74l-132 162q-9 10 -9 26z" />
<glyph unicode="a" horiz-adv-x="971" d="M48 273q0 76 23 131.5t63 90.5t102 56.5t131.5 29.5t160.5 8h47v57q0 90 -29 131t-99 41q-35 0 -57 -9l-10 -32q-15 -48 -54 -75t-94 -27q-45 0 -72 26t-27 67q0 62 34 105.5t91 65t114 30.5t121 9q86 0 147 -17t96.5 -44t55 -74t25.5 -93.5t6 -115.5v-478l39 -6 q29 -5 48 -27.5t19 -51.5t-20 -51t-48 -24l-216 -19h-4q-23 -1 -42 19q-20 22 -20 50v17q-50 -45 -96.5 -65.5t-111.5 -20.5q-147 0 -235 80t-88 216zM307 287q0 -61 35 -93t92 -32q69 0 141 36v239l-82 -4q-186 -9 -186 -146z" />
<glyph unicode="b" horiz-adv-x="1059" d="M-1 1320q0 29 20 51.5t50 25.5l180 17q4 1 11 1q44 0 75.5 -31.5t31.5 -76.5v-390q91 61 220 61q194 0 300 -130t106 -339q0 -250 -131 -391t-343 -141q-405 0 -405 196v1060l-46 6q-30 4 -49.5 27.5t-19.5 53.5zM367 170q57 -19 103 -19q127 0 193 86.5t66 246.5 q0 307 -218 307q-81 0 -144 -35v-586z" />
<glyph unicode="c" horiz-adv-x="905" d="M64 453q0 234 129 379.5t346 145.5q41 0 79 -3.5t83.5 -15t78.5 -30t55 -52.5t22 -78v-23q0 -40 -31.5 -70.5t-75.5 -30.5q-48 0 -87 28t-53 74l-10 33q-15 5 -37 5q-115 0 -177.5 -88t-62.5 -246q0 -149 55 -225.5t151 -76.5q99 0 215 58q14 7 32 7q31 0 51 -24t20 -57 q0 -44 -55 -88t-136 -71t-156 -27q-210 0 -323 127.5t-113 348.5z" />
<glyph unicode="d" horiz-adv-x="1107" d="M65 449q0 237 129 383t343 146q81 0 157 -34v289l-47 7q-30 5 -49.5 27t-19.5 53q0 29 20 51.5t50 25.5l191 18h9q37 0 66 -29q32 -33 32 -79v-1147l51 -8q30 -4 49 -26.5t19 -52.5q0 -29 -20 -51t-49 -25l-226 -20h-4q-24 1 -45 21q-22 22 -22 51v17q-98 -89 -228 -89 q-189 0 -297.5 126.5t-108.5 345.5zM331 474q0 -153 53.5 -231t167.5 -78q66 0 142 36v582q-54 21 -108 21q-121 0 -188 -87.5t-67 -242.5z" />
<glyph unicode="e" horiz-adv-x="954" d="M67 457q0 116 27.5 210t81.5 164t140.5 108.5t199.5 38.5q103 0 179.5 -34t120 -93t64 -129.5t20.5 -153.5q0 -49 -34.5 -82.5t-83.5 -33.5h-456q3 -135 55 -208.5t168 -73.5q101 0 199 51q15 9 34 9q30 0 51 -24t21 -57q0 -64 -107 -118t-230 -54q-450 0 -450 480z M329 602l309 19q-8 194 -142 194q-145 0 -167 -213z" />
<glyph unicode="f" horiz-adv-x="675" d="M58 874q0 34 24 57.5t57 23.5h49v77q0 383 406 383q269 0 269 -169v-23q0 -41 -32.5 -72t-75.5 -31q-49 0 -87 27.5t-55 73.5l-14 39h-16q-65 0 -103 -54t-38 -152v-99h118q33 0 56.5 -23.5t23.5 -57.5q0 -33 -23.5 -56.5t-56.5 -23.5h-118v-626l77 -11q31 -4 52 -28 t21 -56q0 -31 -21 -52t-52 -21h-376q-30 0 -51 21.5t-21 51.5q0 31 20 55t51 30l46 9v627h-49q-33 0 -57 23.5t-24 56.5z" />
<glyph unicode="g" horiz-adv-x="1055" d="M10 -167q0 71 46.5 121t105.5 50q48 0 80 -22t32 -59q0 -7 -1 -21t-1 -21q0 -84 52.5 -126t162.5 -42q113 0 185.5 49.5t72.5 134.5q0 31 -15.5 51t-46.5 28t-56.5 10.5t-64.5 2.5q-47 0 -74.5 0.5t-80 3.5t-86 9t-76 18.5t-67.5 29.5t-42.5 44.5t-17.5 62.5 q0 98 124 173q-79 45 -121 119.5t-42 164.5q0 163 115 263.5t289 100.5q126 0 219 -54q103 39 216 39q55 0 86.5 -25.5t31.5 -73.5q0 -39 -27.5 -66t-65.5 -27h-104q42 -77 42 -160q0 -155 -116.5 -248t-310.5 -93q-13 0 -31 2q-40 -23 -40 -61q0 -29 45.5 -35.5t183.5 -6.5 q68 0 115 -3.5t103.5 -17.5t91 -38.5t58 -71t23.5 -111.5q0 -116 -73 -202.5t-197 -131t-280 -44.5q-120 0 -218.5 30.5t-161.5 96.5t-63 157zM339 639q0 -94 37 -154t101 -60q66 0 107 47t41 134q0 95 -37.5 156.5t-102.5 61.5q-66 0 -106 -48t-40 -137z" />
<glyph unicode="h" horiz-adv-x="1126" d="M42 72q0 31 20.5 55.5t51.5 29.5l49 10v1066l-46 6q-29 5 -49 28t-20 53q0 29 20 51.5t49 25.5l179 17q4 1 11 1q44 0 76 -31.5t32 -76.5v-391q99 62 232 62q173 0 249.5 -80t76.5 -249v-483l40 -8q31 -7 50.5 -31t19.5 -55q0 -30 -21 -51t-50 -21h-325q-29 0 -50.5 21 t-21.5 51q0 32 19.5 56.5t50.5 30.5l35 7v405q0 125 -30.5 173.5t-118.5 48.5q-89 0 -156 -96v-531l32 -7q31 -7 51 -31.5t20 -55.5q0 -30 -21.5 -51t-50.5 -21h-331q-30 0 -51.5 21.5t-21.5 50.5z" />
<glyph unicode="i" horiz-adv-x="584" d="M65 71q0 31 19.5 55t49.5 29l48 9v635l-50 7q-29 4 -48 27t-19 52t19 50.5t48 24.5l181 18h11q45 0 76.5 -31.5t31.5 -76.5v-707l40 -8q30 -6 49.5 -29.5t19.5 -54.5q0 -29 -20.5 -50t-49.5 -21h-336q-29 0 -49.5 21t-20.5 50zM131 1242q0 69 43.5 112.5t112.5 43.5 t112 -43.5t43 -112.5t-43 -112.5t-112 -43.5t-112.5 43.5t-43.5 112.5z" />
<glyph unicode="j" horiz-adv-x="528" d="M-194 -263q0 43 31.5 74.5t75.5 31.5q48 0 86 -28t53 -74l11 -35q97 0 97 245v844l-49 7q-30 4 -49.5 27t-19.5 53t20 52t49 25l180 19h11q44 0 76 -31.5t32 -76.5v-928q0 -197 -82.5 -295t-280.5 -98q-241 0 -241 162v26zM107 1241q0 69 43.5 112.5t112.5 43.5 t112 -43.5t43 -112.5t-43 -112t-112 -43t-112.5 43t-43.5 112z" />
<glyph unicode="k" horiz-adv-x="1130" d="M42 72q0 31 20.5 55.5t51.5 29.5l49 10v1066l-46 6q-29 5 -49 28t-20 53q0 29 20 51.5t49 25.5l179 17q4 1 11 1q44 0 76 -31.5t32 -76.5v-1141l40 -8q31 -7 51 -31t20 -55q0 -30 -21.5 -51t-50.5 -21h-339q-30 0 -51.5 21.5t-21.5 50.5zM451 508q0 53 39 95l191 201 l-17 3q-29 5 -48 27.5t-19 51.5t20.5 49t49.5 20h343q29 0 49.5 -20.5t20.5 -49.5q0 -31 -19.5 -54.5t-49.5 -28.5l-76 -14l-253 -245l306 -373l53 -11q31 -7 50 -31.5t19 -56.5q0 -29 -21 -50t-50 -21h-110q-121 0 -193 94l-255 328q-30 38 -30 86z" />
<glyph unicode="l" horiz-adv-x="574" d="M44 72q0 31 20 55t51 30l49 10v1066l-46 6q-29 5 -49 28t-20 53q0 29 20 51.5t50 25.5l178 17q4 1 11 1q44 0 76 -31.5t32 -76.5v-1141l42 -8q31 -6 50.5 -30t19.5 -56q0 -30 -21 -51t-50 -21h-341q-30 0 -51 21.5t-21 50.5z" />
<glyph unicode="m" horiz-adv-x="1650" d="M64 71q0 31 19.5 55t49.5 29l48 8v633l-50 7q-29 5 -48 27t-19 51t19 50.5t48 24.5l223 22h6q24 0 43 -20q21 -24 21 -54v-14q106 88 235 88q160 0 236 -93q128 93 288 93q167 0 243 -83t76 -249v-483l38 -8q30 -5 49.5 -29t19.5 -55q0 -29 -20.5 -50t-49.5 -21h-317 q-29 0 -49.5 21t-20.5 50q0 31 19 54.5t50 30.5l32 7v406q0 121 -31.5 174t-105.5 53q-38 0 -81.5 -26.5t-69.5 -61.5v-546l29 -5q31 -7 49.5 -31t18.5 -56q0 -29 -20.5 -49.5t-49.5 -20.5h-306q-29 0 -49.5 21t-20.5 50q0 31 19.5 54.5t49.5 30.5l31 7v406q0 121 -30.5 174 t-104.5 53q-38 0 -82 -27.5t-69 -66.5v-539l29 -6q30 -7 49 -31t19 -55q0 -29 -20.5 -50t-49.5 -21h-322q-29 0 -50 21t-21 50z" />
<glyph unicode="n" horiz-adv-x="1128" d="M65 71q0 31 19.5 54t49.5 29l48 9v633l-51 7q-29 4 -47.5 26.5t-18.5 51.5t19.5 50.5t47.5 24.5l224 22h6q23 0 42 -20q21 -23 21 -52v-14q102 86 231 86q171 0 247 -81t76 -249v-485l39 -8q30 -7 49.5 -30.5t19.5 -54.5q0 -29 -21 -49.5t-50 -20.5h-317q-29 0 -50 21 t-21 50q0 31 19.5 55t49.5 30l33 7v408q0 125 -30 175t-116 50q-90 0 -154 -94v-539l34 -8q30 -7 49.5 -30.5t19.5 -54.5q0 -29 -21 -49.5t-50 -20.5h-327q-29 0 -49.5 21t-20.5 50z" />
<glyph unicode="o" horiz-adv-x="1044" d="M64 464q0 234 126 374t343 140q208 0 327.5 -131t119.5 -355q0 -235 -125 -375t-343 -140q-208 0 -328 131.5t-120 355.5zM330 474q0 -330 189 -330q193 0 193 334q0 105 -15.5 175t-59 113.5t-116.5 43.5q-191 0 -191 -336z" />
<glyph unicode="p" horiz-adv-x="1107" d="M42 -355q0 32 20 56t51 29l50 9v1052l-52 8q-29 5 -49 27.5t-20 52.5t20 51.5t49 24.5l229 23h6q24 0 43 -20q21 -24 21 -54v-14q101 88 228 88q193 0 299 -129t106 -338q0 -251 -131.5 -392.5t-343.5 -141.5q-82 0 -153 32v-270l61 -9q31 -5 51.5 -29t20.5 -56 q0 -30 -21 -51.5t-52 -21.5h-361q-30 0 -51 21.5t-21 51.5zM415 177q59 -26 105 -26q127 0 193.5 87t66.5 247q0 306 -220 306q-81 0 -145 -35v-579z" />
<glyph unicode="q" horiz-adv-x="1059" d="M65 445q0 240 129.5 386.5t349.5 146.5q402 0 402 -196v-1043l47 -8q31 -6 51 -30.5t20 -55.5t-21 -52t-51 -21h-347q-30 0 -51 21t-21 52q0 32 20 56t51 29l50 9v293q-98 -55 -223 -55q-190 0 -298 124.5t-108 343.5zM332 471q0 -154 53 -230.5t167 -76.5q70 0 142 34 v584q-59 20 -108 20q-121 0 -187.5 -87.5t-66.5 -243.5z" />
<glyph unicode="r" horiz-adv-x="830" d="M65 71q0 31 19.5 55t49.5 29l48 8v632l-50 7q-29 4 -48 27t-19 52t19 50.5t48 24.5l224 22h6q22 0 42 -20q22 -23 22 -52v-21q104 93 223 93q73 0 115.5 -39t42.5 -113v-38q0 -41 -29 -69.5t-70 -28.5q-44 0 -82 18t-57 49l-11 18q-41 0 -75 -21.5t-52 -49.5v-539l72 -11 q31 -4 51 -28t20 -55q0 -29 -21 -50t-51 -21h-367q-29 0 -49.5 21t-20.5 50z" />
<glyph unicode="s" horiz-adv-x="836" d="M67 696q0 132 96 207t260 75q318 0 318 -177v-21q0 -43 -31.5 -74t-75.5 -31q-48 0 -87 28t-53 74l-10 33q-25 7 -48 7q-53 0 -86.5 -23.5t-33.5 -69.5q0 -27 25.5 -51t66 -45t90 -43.5t99 -50.5t90 -60.5t66 -80.5t25.5 -105q0 -142 -99.5 -226.5t-268.5 -84.5 q-34 0 -65.5 2t-72 8t-73.5 19t-62 31.5t-45 48.5t-16 69v20q0 43 31.5 74.5t75.5 31.5q48 0 86.5 -28t53.5 -74l11 -36q15 -5 46 -5q66 0 107 29t41 86q0 33 -25.5 61.5t-66 50t-89.5 43t-98.5 47.5t-90 57.5t-66 78.5t-25.5 105z" />
<glyph unicode="t" horiz-adv-x="736" d="M22 866q0 33 17.5 60.5t47.5 40.5l77 35l38 108q14 40 47 64t75 24q39 0 66 -27.5t27 -65.5v-150h204q33 0 56.5 -23t23.5 -56t-23.5 -57t-56.5 -24h-204v-451q0 -91 18.5 -133.5t72.5 -42.5t105 40q17 13 39 13q27 0 43 -23.5t16 -51.5q0 -63 -92 -116t-190 -53 q-72 0 -121.5 16.5t-77 42.5t-42.5 72.5t-19 90.5t-4 113v483h-72q-29 0 -50 21t-21 50z" />
<glyph unicode="u" horiz-adv-x="1096" d="M41 885q0 29 19.5 50.5t47.5 24.5l181 18h9q37 0 66 -29q32 -33 32 -79v-485q0 -125 31 -174t118 -49q86 0 150 94v544l-49 7q-29 5 -48.5 27t-19.5 51t19.5 50.5t48.5 24.5l190 18h9q37 0 67 -29q32 -33 32 -79v-716l41 -7q29 -4 48.5 -27t19.5 -52q0 -28 -20 -49.5 t-49 -23.5l-220 -18h-4q-22 0 -40 19q-20 21 -20 49v17q-98 -85 -231 -85q-169 0 -244.5 81t-75.5 249v494l-42 6q-29 5 -47.5 27t-18.5 51z" />
<glyph unicode="v" horiz-adv-x="1037" d="M2 885q0 29 20.5 49.5t49.5 20.5h324q29 0 49.5 -20.5t20.5 -49.5q0 -31 -19 -54.5t-50 -30.5l-27 -6l155 -544l164 544l-27 6q-30 7 -49.5 30.5t-19.5 54.5q0 29 21 49.5t50 20.5h301q29 0 49.5 -20.5t20.5 -49.5q0 -31 -19 -54.5t-50 -30.5l-43 -9l-260 -703 q-19 -51 -61 -81t-94 -30q-53 0 -94.5 30.5t-59.5 82.5l-245 701l-38 9q-30 7 -49.5 30.5t-19.5 54.5z" />
<glyph unicode="w" horiz-adv-x="1576" d="M5 885q0 29 21 49.5t50 20.5h317q29 0 49.5 -20.5t20.5 -49.5q0 -31 -19.5 -54.5t-49.5 -30.5l-26 -6l122 -526l151 568q14 53 56.5 86t97.5 33q54 0 96.5 -33.5t56.5 -85.5l143 -572l139 531l-22 6q-31 7 -48.5 30.5t-17.5 53.5q0 29 20.5 49.5t49.5 20.5h291 q29 0 50 -20.5t21 -49.5q0 -31 -19.5 -55t-49.5 -30l-42 -9l-229 -695q-18 -55 -61 -87t-98 -32t-96.5 33t-55.5 88l-142 532l-149 -532q-15 -55 -57 -88t-97 -33t-97 32.5t-59 87.5l-207 694l-41 9q-30 7 -49.5 30.5t-19.5 54.5z" />
<glyph unicode="x" horiz-adv-x="1069" d="M26 71q0 31 19.5 54.5t49.5 29.5l52 11l250 319l-228 305l-44 10q-30 7 -49 30.5t-19 54.5q0 29 20.5 49.5t49.5 20.5h318q30 0 48 -20t18 -50q0 -27 -15.5 -50t-35.5 -29l-16 -5l110 -161l108 162l-13 6q-18 7 -31 29t-13 49q0 30 17.5 49.5t46.5 19.5h280 q29 0 49.5 -20.5t20.5 -49.5q0 -31 -19 -54.5t-49 -30.5l-45 -10l-234 -290l249 -335l48 -10q30 -7 49.5 -30t19.5 -54q0 -29 -21 -50t-50 -21h-333q-30 0 -50 20.5t-20 50.5q0 29 17.5 51.5t45.5 29.5l19 4l-126 190l-132 -191l18 -4q25 -6 41.5 -29t16.5 -52 q0 -30 -20 -50t-50 -20h-298q-29 0 -49.5 21t-20.5 50z" />
<glyph unicode="y" horiz-adv-x="1050" d="M2 884q0 30 21 50.5t51 20.5h333q30 0 51 -20.5t21 -50.5q0 -31 -20 -56t-51 -32l-24 -5l159 -465l159 465l-22 7q-32 9 -50.5 32.5t-18.5 53.5q0 29 21.5 50t50.5 21h294q30 0 51 -20.5t21 -50.5q0 -31 -19.5 -55.5t-50.5 -31.5l-43 -9l-376 -992q-40 -105 -122 -176 t-194 -71q-87 0 -140 41t-53 126v25q0 42 29.5 72t71.5 30q41 0 76.5 -21.5t46.5 -50.5l9 -26q18 0 54.5 72.5t65.5 154.5l13 38l-296 778l-48 10q-31 6 -51 30.5t-20 55.5z" />
<glyph unicode="z" horiz-adv-x="923" d="M55 76q0 76 46 138l434 577h-204l-7 -20q-13 -35 -51.5 -59t-83.5 -24t-76.5 31.5t-31.5 76.5v40q0 49 35 84t85 35h573q31 0 52.5 -21.5t21.5 -52.5q0 -74 -45 -134l-444 -582h244l9 26q15 44 53.5 71t85.5 27q45 0 77 -31.5t32 -76.5v-62q0 -49 -35 -84t-85 -35h-609 q-31 0 -53.5 22t-22.5 54z" />
<glyph unicode="{" horiz-adv-x="604" d="M36 510q0 57 75 93q72 34 72 128v313q0 143 77.5 207.5t203.5 64.5h21q31 0 54 -23t23 -54q0 -32 -22.5 -54.5t-54.5 -22.5h-16q-84 0 -84 -126v-305q0 -158 -112 -222q112 -61 112 -220v-307q0 -126 84 -126h16q31 0 54 -23t23 -55t-23 -54.5t-54 -22.5h-21 q-60 0 -109 14t-88.5 45t-61.5 86.5t-22 132.5v310q0 94 -72 128q-75 36 -75 93z" />
<glyph unicode="|" horiz-adv-x="466" d="M130 -325v1615q0 43 30 72.5t73 29.5t73 -29.5t30 -72.5v-1615q0 -43 -30 -73t-73 -30t-73 30t-30 73z" />
<glyph unicode="}" horiz-adv-x="604" d="M42 -222q0 32 23 55t55 23h16q83 0 83 126v307q0 159 112 220q-112 64 -112 222v305q0 126 -83 126h-16q-32 0 -55 22.5t-23 54.5q0 31 23 54t55 23h21q60 0 109 -14t88.5 -45t61.5 -85t22 -128v-313q0 -94 72 -128q75 -36 75 -93t-75 -93q-72 -34 -72 -128v-310 q0 -77 -22 -132.5t-61.5 -86.5t-88.5 -45t-109 -14h-21q-32 0 -55 23t-23 54z" />
<glyph unicode="~" horiz-adv-x="1053" d="M88 487q0 62 25.5 115t63.5 85t79.5 50t76.5 18q58 0 105.5 -15.5t78.5 -37.5t57.5 -43.5t55.5 -37t59 -15.5q45 0 72 51q49 92 124 92q34 0 58.5 -23t24.5 -55q0 -62 -25 -115t-63.5 -85.5t-79.5 -50.5t-76 -18q-58 0 -105.5 15.5t-78 37t-57 43.5t-55 37.5t-59.5 15.5 q-45 0 -72 -51q-21 -40 -53.5 -65.5t-71.5 -25.5q-35 0 -59.5 23t-24.5 55z" />
<glyph unicode="&#xa1;" horiz-adv-x="524" d="M106 831q0 69 43 112t112 43t112.5 -43t43.5 -112t-43.5 -112.5t-112.5 -43.5t-112 43.5t-43 112.5zM117 -191q0 16 2 54l38 638q2 41 32.5 70t71.5 29t72 -29t33 -70l38 -633q0 -8 1.5 -29t1.5 -30q0 -67 -35 -100.5t-111 -33.5q-73 0 -108.5 35.5t-35.5 98.5z" />
<glyph unicode="&#xa2;" horiz-adv-x="922" d="M60 611q0 214 110 356t298 165v131q0 21 14.5 35t35.5 14t35.5 -14t14.5 -35v-127q51 -2 95.5 -10.5t90.5 -27t72.5 -55t26.5 -86.5v-22q0 -40 -31.5 -71t-75.5 -31q-48 0 -87 28t-53 74l-11 33q-18 4 -27 5v-633q77 8 172 55q14 7 32 7q31 0 51 -23.5t20 -56.5 q0 -56 -84.5 -109t-190.5 -71v-132q0 -21 -14.5 -35.5t-35.5 -14.5t-35.5 14.5t-14.5 35.5v126q-197 9 -302.5 135t-105.5 340zM318 640q0 -125 39.5 -199.5t110.5 -95.5v612q-72 -31 -111 -112.5t-39 -204.5z" />
<glyph unicode="&#xa3;" horiz-adv-x="1059" d="M72 649q0 37 26 63t63 26h25v93q0 121 19 203t66.5 144.5t133 92t214.5 29.5q342 0 342 -200v-61q0 -46 -32.5 -78t-78.5 -32q-49 0 -88.5 29.5t-53.5 76.5l-19 65q-26 6 -54 6q-186 0 -186 -230v-138h161q37 0 63 -26t26 -63t-26 -63t-63 -26h-161v-109q0 -153 -45 -239 h339l7 26q11 43 48.5 70t83.5 27q45 0 77.5 -32t32.5 -77v-93q0 -55 -39 -94t-94 -39h-706q-33 0 -56.5 23t-23.5 56q0 58 62 131q23 28 35 69.5t14 73.5t2 91v116h-25q-37 0 -63 26t-26 63z" />
<glyph unicode="&#xa4;" horiz-adv-x="1032" d="M94 281q0 36 28 64l59 58q-59 93 -59 205q0 115 60 210l-62 60q-26 25 -26 63q0 36 26.5 63t63.5 27q35 0 63 -26l62 -62q97 59 208 59t208 -58l60 60q26 26 64 26q36 0 63.5 -26t27.5 -63q0 -36 -28 -64l-59 -57q63 -96 63 -212q0 -111 -63 -206l59 -57q27 -27 27 -64 q0 -36 -26.5 -63t-63.5 -27q-38 0 -65 27l-60 60q-95 -59 -207 -59q-114 0 -210 59l-59 -61q-27 -27 -64 -27q-36 0 -63 27t-27 64zM308 609q0 -86 61 -148.5t148 -62.5q84 0 147 61.5t63 149.5t-61 151t-149 63q-85 0 -147 -62t-62 -152z" />
<glyph unicode="&#xa5;" horiz-adv-x="1195" d="M57 1187q0 35 25.5 60t60.5 25h314q35 0 60 -25t25 -60q0 -37 -23.5 -65t-60.5 -33l-33 -4l188 -364l186 363l-35 5q-37 5 -60.5 33t-23.5 65q0 35 24.5 60t59.5 25h289q35 0 60 -25t25 -60q0 -38 -23.5 -67t-59.5 -36l-39 -7l-178 -356h147q31 0 52.5 -22t21.5 -53 t-21.5 -52.5t-52.5 -21.5h-221l-36 -74v-36h257q31 0 52.5 -22t21.5 -53t-21.5 -53t-52.5 -22h-257v-117l62 -10q37 -5 61 -33t24 -65q0 -36 -25.5 -61.5t-61.5 -25.5h-386q-36 0 -61.5 25.5t-25.5 61.5q0 37 24.5 64.5t61.5 33.5l62 10v117h-252q-31 0 -53 22t-22 53t22 53 t53 22h252v33l-37 77h-215q-31 0 -53 21.5t-22 52.5t22 53t53 22h145l-169 355l-46 9q-37 8 -60.5 36.5t-23.5 65.5z" />
<glyph unicode="&#xa6;" horiz-adv-x="460" d="M127 203q0 43 30 72.5t73 29.5t73 -29.5t30 -72.5v-424q0 -43 -30 -73t-73 -30t-73 30t-30 73v424zM127 762v423q0 43 30 73t73 30t73 -30t30 -73v-423q0 -43 -30 -73t-73 -30t-73 30t-30 73z" />
<glyph unicode="&#xa7;" horiz-adv-x="989" d="M61 521q0 183 196 277q-115 88 -115 221q0 141 101.5 219t277.5 78q42 0 79.5 -3.5t84 -14.5t79 -30t55 -54t22.5 -81v-26q0 -43 -30 -73.5t-73 -30.5q-46 0 -83.5 27t-52.5 71l-12 36q-25 8 -61 8q-66 0 -106.5 -27t-40.5 -75q0 -52 40 -85t138 -77q79 -36 131 -63 t101 -61.5t76 -69.5t43.5 -80.5t16.5 -100.5q0 -89 -51.5 -162t-139.5 -116q55 -43 86 -104t31 -128q0 -143 -110 -219.5t-285 -76.5q-53 0 -101.5 6.5t-105 24t-90.5 57t-34 96.5v25q0 43 30 73t73 30q46 0 84.5 -27t51.5 -71l12 -37q35 -8 82 -8q75 0 115 31t40 88 q0 19 -11 38t-27 34t-43.5 32t-50 29t-57.5 29q-64 32 -102.5 52.5t-86.5 49.5t-75.5 55t-53.5 59.5t-37 71.5t-11 83zM301 549q0 -73 78 -123q26 -16 93.5 -49.5t90.5 -45.5q58 28 91.5 60t33.5 83q0 82 -80 129q-28 16 -94.5 48.5t-90.5 46.5q-122 -60 -122 -149z" />
<glyph unicode="&#xa8;" horiz-adv-x="761" d="M80 1158q0 49 34.5 82.5t84.5 33.5q49 0 81.5 -33t32.5 -83t-32.5 -83.5t-81.5 -33.5q-50 0 -84.5 34t-34.5 83zM448 1158q0 49 33.5 82.5t83.5 33.5q49 0 82 -33t33 -83t-33 -83.5t-82 -33.5t-83 33.5t-34 83.5z" />
<glyph unicode="&#xa9;" horiz-adv-x="1450" d="M61 638q0 180 89 332.5t241.5 241t333.5 88.5t333.5 -88.5t241.5 -241t89 -332.5q0 -181 -89 -334t-242 -242.5t-333 -89.5t-333 89.5t-242 242.5t-89 334zM212 638q0 -146 67.5 -265.5t185 -188t260.5 -68.5t260.5 68t185.5 188t68 266q0 144 -68 263t-186 187t-260 68 t-260 -68t-185.5 -187t-67.5 -263zM393 638q0 75 22 144t63.5 123.5t107.5 87t146 32.5q123 0 211.5 -73.5t88.5 -132.5q0 -23 -18.5 -39.5t-44.5 -16.5q-27 0 -48 13.5t-36.5 32t-33.5 37.5t-48 32.5t-71 13.5q-77 0 -124.5 -68t-47.5 -186t45.5 -184.5t126.5 -66.5 q40 0 69 14.5t46.5 35.5t33.5 42.5t38 36t50 14.5q27 0 46.5 -17t19.5 -42t-21 -61.5t-57 -73.5t-96.5 -63t-128.5 -26q-164 0 -251.5 109t-87.5 282z" />
<glyph unicode="&#xaa;" horiz-adv-x="732" d="M70 787q0 120 82 165.5t241 45.5h29l-1 39q-2 61 -19.5 87.5t-62.5 26.5q-21 0 -36 -6l-6 -21q-9 -32 -36 -50t-66 -18q-29 0 -48.5 17t-19.5 39v12q0 38 23 66t61.5 42t77.5 20t81 6q72 0 118 -15.5t68.5 -49t29.5 -70t7 -94.5v-322l26 -4q19 -3 32 -17.5t13 -34.5 q0 -19 -13 -33.5t-32 -15.5l-151 -13q-17 -1 -30 13.5t-13 32.5v8q-61 -54 -137 -54q-99 0 -158.5 53.5t-59.5 144.5zM248 796q0 -41 22.5 -62t59.5 -21q44 0 92 24v158h-52q-54 -1 -88 -26t-34 -73z" />
<glyph unicode="&#xab;" horiz-adv-x="965" d="M65 496q0 45 26 83l138 196q64 91 175 91q28 0 45.5 -16.5t17.5 -40.5q0 -16 -12 -37l-177 -276l177 -275q12 -18 12 -37q0 -24 -17.5 -40t-45.5 -16q-111 0 -175 90l-138 196q-26 36 -26 82zM474 496q0 43 27 83l139 196q64 91 175 91q27 0 44.5 -16.5t17.5 -40.5 q0 -19 -12 -37l-177 -276l177 -275q12 -18 12 -37q0 -24 -17.5 -40t-44.5 -16q-111 0 -175 90l-139 196q-27 40 -27 82z" />
<glyph unicode="&#xac;" horiz-adv-x="1073" d="M66 627q0 43 30.5 73.5t73.5 30.5h711q37 0 63 -25.5t26 -62.5v-375q0 -45 -32 -77t-77 -32t-77 32t-32 77v256h-582q-43 0 -73.5 30t-30.5 73z" />
<glyph unicode="&#xad;" horiz-adv-x="697" d="M82 484q0 42 29.5 71.5t71.5 29.5h331q42 0 72 -29.5t30 -71.5t-30 -72t-72 -30h-331q-42 0 -71.5 30t-29.5 72z" />
<glyph unicode="&#xae;" horiz-adv-x="893" d="M65 906q0 157 112 266.5t270 109.5t269.5 -109.5t111.5 -266.5q0 -156 -111.5 -267t-269.5 -111t-270 111t-112 267zM173 906q0 -120 79 -201t195 -81t194.5 81t78.5 201q0 119 -78.5 200t-194.5 81t-195 -81t-79 -200zM298 753v320q0 21 15.5 35.5t38.5 14.5h105 q172 0 172 -128q0 -84 -75 -114l60 -124q5 -12 5 -18q0 -15 -12.5 -26t-30.5 -11q-26 0 -47.5 13t-32.5 35l-54 114h-33v-111q0 -21 -16.5 -36t-39.5 -15t-39 15t-16 36zM409 951h36q74 0 74 44q0 23 -17.5 32.5t-57.5 9.5h-35v-86z" />
<glyph unicode="&#xaf;" horiz-adv-x="722" d="M84 1153q0 32 22.5 54.5t53.5 22.5h402q31 0 53.5 -22.5t22.5 -54.5q0 -31 -22 -53t-54 -22h-402q-32 0 -54 22t-22 53z" />
<glyph unicode="&#xb0;" horiz-adv-x="659" d="M63 1028q0 110 78.5 188.5t188.5 78.5t188.5 -78.5t78.5 -188.5t-78.5 -188.5t-188.5 -78.5t-188.5 78.5t-78.5 188.5zM190 1028q0 -58 41 -98.5t99 -40.5t99 40.5t41 98.5t-40.5 98.5t-99.5 40.5q-58 0 -99 -40.5t-41 -98.5z" />
<glyph unicode="&#xb1;" horiz-adv-x="1050" d="M74 103q0 43 30 73t73 30h696q43 0 73.5 -30t30.5 -73t-30.5 -73.5t-73.5 -30.5h-696q-43 0 -73 30.5t-30 73.5zM74 683q0 43 30 72.5t73 29.5h240v176q0 45 31.5 76.5t76.5 31.5t77 -31.5t32 -76.5v-176h240q43 0 73 -29.5t30 -72.5t-30 -73.5t-73 -30.5h-240v-177 q0 -45 -32 -76.5t-77 -31.5t-76.5 31.5t-31.5 76.5v177h-240q-43 0 -73 30.5t-30 73.5z" />
<glyph unicode="&#xb2;" horiz-adv-x="645" d="M57 821q0 13 2 25.5t8.5 26t11.5 23.5t17 25t19 23.5t25 26t26 26t31 29.5t32 30q156 149 156 217q0 41 -23 58.5t-70 17.5q-62 0 -112 -44q-14 -13 -39 -13q-26 0 -41.5 20t-15.5 45q0 50 76 90.5t159 40.5q105 0 176 -52t71 -154q0 -65 -41 -127.5t-136 -147.5 q-14 -13 -44 -38.5t-48.5 -42t-28.5 -29.5h146l4 11q8 17 30 30.5t49 13.5q30 0 51.5 -20.5t21.5 -48.5v-52q0 -34 -25.5 -58t-60.5 -24h-343q-33 0 -58.5 21t-25.5 51z" />
<glyph unicode="&#xb3;" horiz-adv-x="648" d="M64 866q0 26 17 47t45 21q21 0 37 -11q63 -46 120 -46q53 0 84 24t31 72q0 45 -31 67.5t-81 22.5q-27 0 -46 19t-19 45q0 25 19 43t46 20q42 3 67 26.5t25 62.5q0 72 -93 72q-64 0 -113 -43q-16 -14 -39 -14q-26 0 -41.5 20t-15.5 45q0 50 77 91t159 41q105 0 175 -51.5 t70 -149.5q0 -101 -89 -154q110 -51 110 -174q0 -106 -79 -166t-199 -60q-85 0 -160.5 38.5t-75.5 91.5z" />
<glyph unicode="&#xb4;" horiz-adv-x="429" d="M49 1075q0 17 8 30l87 147q39 66 113 66h107q17 0 27.5 -9.5t10.5 -23.5q0 -15 -10 -26l-132 -162q-60 -74 -156 -74q-24 0 -39.5 15t-15.5 37z" />
<glyph unicode="&#xb5;" horiz-adv-x="1131" d="M110 -334v1195q0 49 34 83t83 34t83 -34t34 -83v-470q0 -94 45.5 -152t126.5 -58q218 0 218 381v299q0 49 34.5 83t83.5 34t83.5 -34t34.5 -83v-480q0 -146 25 -191q5 -9 25 -39.5t29.5 -52t9.5 -44.5q0 -31 -21 -54t-50 -23q-42 0 -78.5 17t-61.5 44.5t-41.5 54 t-27.5 54.5q-94 -170 -265 -170q-105 0 -171 68v-379q0 -49 -34 -83t-82 -34q-49 0 -83 34t-34 83z" />
<glyph unicode="&#xb6;" horiz-adv-x="1225" d="M53 883q0 192 127.5 291t354.5 99h532q33 0 56.5 -23.5t23.5 -56.5t-23 -56.5t-56 -23.5h-31v-1301q0 -38 -27 -65t-64 -27q-38 0 -65 27t-27 65v1301h-193v-1301q0 -38 -27.5 -65t-64.5 -27t-64.5 27t-27.5 65v693q-184 0 -304 111t-120 267z" />
<glyph unicode="&#xb7;" horiz-adv-x="500" d="M95 521q0 69 43.5 112.5t112.5 43.5t112 -43.5t43 -112.5t-43 -112t-112 -43t-112.5 43t-43.5 112z" />
<glyph unicode="&#xb8;" horiz-adv-x="447" d="M42 -326q0 22 14 37.5t37 15.5q9 0 19 -3q36 -13 67 -13q64 0 64 44q0 46 -96 64q-16 3 -26 14t-10 26q0 9 6 20l72 121h134l-65 -102q56 -7 96 -42t40 -90q0 -82 -60.5 -121t-151.5 -39q-21 0 -41 2.5t-44.5 8.5t-39.5 21t-15 36z" />
<glyph unicode="&#xb9;" horiz-adv-x="470" d="M42 1360q0 24 16 43.5t41 27.5q35 10 72 29q54 28 101 28q26 0 44.5 -17t18.5 -42v-558l19 -3q23 -4 39 -22t16 -41t-17.5 -39.5t-42.5 -16.5h-203q-25 0 -42.5 16.5t-17.5 39.5q0 22 16 40.5t42 22.5l19 3v441q-40 -9 -62 -9q-24 0 -41.5 16.5t-17.5 40.5z" />
<glyph unicode="&#xba;" horiz-adv-x="752" d="M68 914q0 157 84.5 250.5t230.5 93.5q140 0 221 -88t81 -237q0 -157 -84 -250.5t-231 -93.5q-140 0 -221 88t-81 237zM251 921q0 -221 123 -221q126 0 126 224q0 107 -27.5 164.5t-96.5 57.5q-125 0 -125 -225z" />
<glyph unicode="&#xbb;" horiz-adv-x="965" d="M88 184q0 16 12 37l177 275l-177 276q-12 18 -12 37q0 24 18 40.5t45 16.5q111 0 175 -91l139 -196q26 -36 26 -83q0 -44 -26 -82l-139 -196q-64 -90 -175 -90q-27 0 -45 16t-18 40zM498 184q0 19 12 37l177 275l-177 276q-12 18 -12 37q0 24 17.5 40.5t45.5 16.5 q111 0 175 -91l138 -196q27 -37 27 -83q0 -42 -27 -82l-138 -196q-64 -90 -175 -90q-28 0 -45.5 16t-17.5 40z" />
<glyph unicode="&#xbc;" horiz-adv-x="1335" d="M57 1153q0 24 16 43.5t41 27.5q37 11 72 29q53 28 100 28q26 0 45 -17.5t19 -42.5v-557l18 -3q23 -4 39.5 -22t16.5 -41t-17.5 -39.5t-42.5 -16.5h-203q-25 0 -42.5 16.5t-17.5 39.5q0 22 16 40t42 23l19 3v441q-40 -9 -62 -9q-24 0 -41.5 16.5t-17.5 40.5zM238 9 q0 21 10 38l706 1254q22 39 67 39q31 0 53.5 -22t22.5 -54q0 -23 -9 -38l-708 -1254q-22 -39 -66 -39q-30 0 -53 22.5t-23 53.5zM726 260q0 52 32 97l238 328q40 55 114 55q32 0 55 -21t23 -52v-335h21q29 0 49.5 -19t20.5 -46q0 -28 -20.5 -47.5t-49.5 -19.5h-21v-76l16 -5 q22 -6 36.5 -23.5t14.5 -38.5q0 -23 -17 -39.5t-42 -16.5h-182q-25 0 -42.5 16.5t-17.5 39.5q0 22 14 40.5t37 22.5l16 3v77h-232q-26 0 -44.5 17.5t-18.5 42.5zM885 332h136v190z" />
<glyph unicode="&#xbd;" horiz-adv-x="1434" d="M57 1153q0 24 16 43.5t41 27.5q35 10 71 29q54 28 101 28q26 0 45 -17.5t19 -42.5v-557l18 -3q23 -4 39 -22t16 -41t-17.5 -39.5t-42.5 -16.5h-202q-25 0 -42.5 16.5t-17.5 39.5q0 22 15.5 40t41.5 23l19 3v441q-40 -9 -61 -9q-24 0 -41.5 16.5t-17.5 40.5zM238 9 q0 21 10 38l707 1254q22 39 67 39q31 0 53.5 -22t22.5 -54q0 -21 -10 -38l-708 -1254q-22 -39 -66 -39q-31 0 -53.5 22.5t-22.5 53.5zM853 73q0 13 2 25.5t8.5 26t11.5 23.5t17 25t19 23.5t25 26t26 26t31 29.5t32 30q156 148 156 217q0 41 -23 59t-70 18q-61 0 -112 -45 q-14 -13 -39 -13q-26 0 -41.5 20.5t-15.5 45.5q0 50 75.5 90t159.5 40q105 0 176 -51.5t71 -153.5q0 -66 -41 -128.5t-136 -147.5q-14 -13 -44 -38.5t-48.5 -42t-28.5 -29.5h146l4 11q7 17 29 30.5t50 13.5q30 0 51.5 -20.5t21.5 -48.5v-51q0 -34 -25.5 -58.5t-60.5 -24.5 h-343q-33 0 -58.5 21t-25.5 51z" />
<glyph unicode="&#xbe;" horiz-adv-x="1440" d="M65 659q0 26 17 47.5t45 21.5q20 0 37 -12q64 -46 120 -46q53 0 84 24t31 72q0 46 -31 68.5t-80 22.5q-27 0 -47 19t-20 44t19.5 43t47.5 20q41 4 66 27t25 62q0 73 -93 73q-60 0 -113 -45q-14 -13 -38 -13q-26 0 -42 20t-16 45q0 50 77 91t159 41q105 0 175.5 -51 t70.5 -150t-90 -154q110 -51 110 -174q0 -106 -79 -166t-200 -60q-84 0 -159.5 38.5t-75.5 91.5zM341 9q0 21 10 38l706 1254q22 39 67 39q31 0 54 -22t23 -54q0 -21 -10 -38l-707 -1254q-22 -39 -67 -39q-30 0 -53 22.5t-23 53.5zM832 260q0 50 33 97l237 328q40 55 115 55 q32 0 55 -21t23 -52v-335h20q29 0 49.5 -19t20.5 -46q0 -28 -20.5 -47.5t-49.5 -19.5h-20v-76l16 -5q22 -6 36.5 -23.5t14.5 -38.5q0 -23 -18 -39.5t-43 -16.5h-181q-25 0 -42.5 16.5t-17.5 39.5q0 22 14 40.5t37 22.5l17 3v77h-233q-26 0 -44.5 17.5t-18.5 42.5zM992 332 h136v190z" />
<glyph unicode="&#xbf;" horiz-adv-x="881" d="M65 -9q0 160 137 277l108 92q65 54 65 114v16q0 46 32 78t78 32t80 -32t34 -78v-30q0 -63 -25.5 -113.5t-78.5 -103.5l-43 -44q-55 -56 -82.5 -100t-27.5 -90q0 -147 167 -147q31 0 63 10l18 55q15 46 54 74t87 28q45 0 76 -31.5t31 -76.5v-39q0 -207 -361 -207 q-183 0 -297.5 83t-114.5 233zM333 831q0 69 43 112t112 43t112.5 -43t43.5 -112t-43.5 -112.5t-112.5 -43.5t-112 43.5t-43 112.5z" />
<glyph unicode="&#xc0;" horiz-adv-x="1249" d="M-5 85q0 37 23.5 65.5t59.5 36.5l31 7l341 980q19 57 69 91.5t111 34.5q60 0 110 -35t69 -92l326 -979l31 -7q37 -7 60 -36t23 -66q0 -35 -25 -60t-60 -25h-330q-35 0 -60 25t-25 60q0 37 23.5 65t60.5 35l26 5l-65 195h-371l-63 -195l24 -5q36 -7 59 -35.5t23 -64.5 q0 -35 -24.5 -60t-59.5 -25h-302q-35 0 -60 25t-25 60zM353 1611q0 11 11.5 18.5t29.5 7.5h114q79 0 121 -53l92 -119q10 -13 10 -25q0 -18 -16.5 -29.5t-43.5 -11.5q-101 0 -166 60l-141 130q-11 11 -11 22zM487 575h244l-122 419z" />
<glyph unicode="&#xc1;" horiz-adv-x="1249" d="M-5 85q0 37 23.5 65.5t59.5 36.5l31 7l341 980q19 57 69 91.5t111 34.5q60 0 110 -35t69 -92l326 -979l31 -7q36 -8 59.5 -36.5t23.5 -65.5q0 -35 -25 -60t-60 -25h-330q-35 0 -60 25t-25 60q0 37 24 65t60 35l26 5l-65 195h-371l-64 -195l25 -5q36 -7 59 -35.5t23 -64.5 q0 -35 -24.5 -60t-59.5 -25h-302q-35 0 -60 25t-25 60zM487 575h245l-123 418zM533 1436q0 12 10 25l92 119q42 53 122 53h114q18 0 29 -8t11 -19t-10 -21l-141 -131q-65 -60 -166 -60q-27 0 -44 12t-17 30z" />
<glyph unicode="&#xc2;" horiz-adv-x="1248" d="M-6 85q0 37 23.5 66t60.5 36l31 7l341 979q19 57 69 92t111 35q60 0 110 -35.5t69 -92.5l326 -978l31 -7q37 -7 60 -36t23 -66q0 -35 -25 -60t-60 -25h-330q-35 0 -60 25t-25 60q0 37 24 65t60 35l25 5l-64 195h-371l-64 -195l24 -5q37 -7 60 -35.5t23 -64.5 q0 -35 -25 -60t-60 -25h-301q-35 0 -60.5 25t-25.5 60zM375 1428q0 11 11 24l126 134q44 46 118 46q75 0 118 -45l129 -135q12 -12 12 -25q0 -14 -13.5 -23.5t-36.5 -9.5q-95 0 -149 60l-57 65l-60 -66q-53 -59 -148 -59q-22 0 -36 10t-14 24zM486 575h245l-123 418z" />
<glyph unicode="&#xc3;" horiz-adv-x="1248" d="M-6 85q0 37 23 66t60 36l31 7l341 980q19 57 69.5 91.5t111.5 34.5q60 0 109.5 -35t68.5 -92l326 -979l31 -7q37 -7 60 -36t23 -66q0 -35 -25 -60t-60 -25h-330q-35 0 -60 25t-25 60q0 37 24 65t60 35l26 5l-65 195h-371l-63 -195l24 -5q36 -7 59 -35.5t23 -64.5 q0 -35 -25 -60t-60 -25h-301q-35 0 -60 25t-25 60zM379 1460q0 76 53 125t100 49q40 0 71.5 -15t47 -32.5t32.5 -32.5t32 -15q14 0 25 14t18.5 31t25 31t42.5 14q23 0 40.5 -15t17.5 -36q0 -76 -53.5 -124.5t-100.5 -48.5q-40 0 -72 14.5t-47.5 32.5t-32 32.5t-31.5 14.5 q-14 0 -24.5 -14t-17.5 -31t-24.5 -31t-44.5 -14q-23 0 -40 15t-17 36zM485 575h246l-123 419z" />
<glyph unicode="&#xc4;" horiz-adv-x="1249" d="M-5 85q0 37 23.5 66t60.5 36l30 7l341 980q19 57 69.5 91.5t111.5 34.5q60 0 109.5 -35t68.5 -92l327 -979l30 -7q37 -7 60 -36t23 -66q0 -35 -25 -60t-60 -25h-330q-35 0 -59.5 25t-24.5 60q0 37 23.5 65t59.5 35l26 5l-65 195h-371l-63 -195l24 -5q36 -7 59 -35.5 t23 -64.5q0 -35 -24.5 -60t-59.5 -25h-302q-35 0 -60 25t-25 60zM332 1517q0 49 34 82.5t84 33.5q49 0 82 -33t33 -83t-33 -83.5t-82 -33.5q-50 0 -84 34t-34 83zM487 575h245l-123 419zM700 1517q0 49 33.5 82.5t83.5 33.5q49 0 82.5 -33.5t33.5 -82.5q0 -50 -33.5 -83.5 t-82.5 -33.5t-83 34t-34 83z" />
<glyph unicode="&#xc5;" horiz-adv-x="1249" d="M-5 85q0 37 23.5 66t60.5 36l30 7l341 980q19 57 69.5 91.5t110.5 34.5q61 0 110.5 -35t68.5 -92l327 -979l30 -7q37 -7 60 -36t23 -66q0 -35 -25 -60t-60 -25h-330q-35 0 -59.5 25t-24.5 60q0 37 23.5 65t59.5 35l26 5l-65 195h-371l-63 -195l24 -5q36 -7 59 -35.5 t23 -64.5q0 -35 -24.5 -60t-59.5 -25h-302q-35 0 -60 25t-25 60zM442 1566q0 79 56 134.5t134 55.5q79 0 135 -55.5t56 -134.5q0 -78 -56 -134t-135 -56q-78 0 -134 56t-56 134zM487 575h245l-123 418zM539 1566q0 -39 27.5 -66.5t65.5 -27.5q39 0 66.5 27.5t27.5 66.5 t-27.5 66t-66.5 27q-38 0 -65.5 -27t-27.5 -66z" />
<glyph unicode="&#xc6;" horiz-adv-x="1734" d="M-23 85q0 37 23.5 66.5t59.5 36.5l31 6l660 968q36 52 90.5 81t118.5 29h572q55 0 94 -39t39 -94v-87q0 -41 -30 -71t-71 -30q-45 0 -81 27t-49 70l-8 29h-319v-324h309q41 0 71 -30t30 -72t-30 -71.5t-71 -29.5h-309v-355h333l11 38q13 43 48 70.5t80 27.5 q41 0 70.5 -30t29.5 -71v-97q0 -55 -38.5 -94t-93.5 -39h-730q-35 0 -60.5 25t-25.5 60q0 37 23.5 65t60.5 35l26 5v195h-372l-127 -195l24 -5q36 -7 59 -35.5t23 -64.5q0 -35 -24.5 -60t-59.5 -25h-302q-35 0 -60 25t-25 60zM596 575h245v417z" />
<glyph unicode="&#xc7;" horiz-adv-x="1144" d="M66 596q0 321 177 512.5t481 191.5q41 0 77.5 -3t80 -10.5t78 -23t64 -38t46 -58t16.5 -80.5v-60q0 -46 -32.5 -78t-77.5 -32q-49 0 -88 29t-54 76l-21 67q-30 11 -70 11q-190 0 -293 -124t-103 -352q0 -88 21 -161.5t55.5 -122t79 -82t91 -48.5t92.5 -15q70 0 127.5 19 t123.5 60q23 14 49 14q41 0 65 -26t24 -66q0 -55 -58.5 -105t-141.5 -80t-166 -37l-42 -66q56 -7 96 -42t40 -90q0 -82 -60.5 -121t-151.5 -39q-21 0 -41 2.5t-44.5 8.5t-39.5 21t-15 37t14.5 37.5t37.5 15.5q5 0 19 -4q39 -14 67 -14q26 0 44.5 11t18.5 35q0 45 -95 63 q-16 3 -26.5 14.5t-10.5 25.5q0 10 6 20l53 91q-75 11 -146.5 40.5t-138.5 81.5t-117.5 120.5t-80.5 165t-30 208.5z" />
<glyph unicode="&#xc8;" d="M79 86q0 37 24 65.5t61 34.5l45 8v884l-46 8q-37 6 -60.5 34.5t-23.5 66.5q0 35 25.5 60.5t60.5 25.5h735q55 0 94 -39t39 -94v-87q0 -42 -29.5 -71.5t-71.5 -29.5q-45 0 -80.5 26.5t-49.5 69.5l-9 30h-318v-325h309q42 0 71.5 -30t29.5 -72t-29.5 -71.5t-71.5 -29.5 h-309v-355h333l10 38q12 44 47.5 71t80.5 27q42 0 72 -30t30 -72v-96q0 -55 -39 -94t-94 -39h-750q-36 0 -61 25.5t-25 60.5zM279 1583q0 11 11.5 18.5t29.5 7.5h113q79 0 121 -53l93 -119q9 -12 9 -24q0 -18 -17 -30t-43 -12q-101 0 -166 60l-141 130q-10 10 -10 22z" />
<glyph unicode="&#xc9;" d="M79 86q0 37 24 65.5t61 34.5l45 8v884l-46 8q-37 7 -60.5 35.5t-23.5 65.5q0 35 25.5 60t60.5 25h735q55 0 94 -39t39 -94v-86q0 -42 -29.5 -71.5t-71.5 -29.5q-45 0 -80.5 26.5t-49.5 69.5l-9 29h-318v-324h309q42 0 71.5 -30t29.5 -72t-29.5 -71.5t-71.5 -29.5h-309 v-355h333l10 38q12 44 47.5 71t80.5 27q42 0 72 -30t30 -72v-96q0 -55 -39 -94t-94 -39h-750q-36 0 -61 25.5t-25 60.5zM481 1408q0 13 9 25l93 119q40 53 122 53h113q18 0 29 -7.5t11 -18.5q0 -12 -10 -22l-141 -130q-65 -60 -166 -60q-27 0 -43.5 11.5t-16.5 29.5z" />
<glyph unicode="&#xca;" d="M79 86q0 37 24 65.5t61 34.5l45 8v884l-46 8q-37 7 -60.5 35t-23.5 65q0 35 25.5 60.5t60.5 25.5h735q55 0 94 -39t39 -94v-87q0 -41 -29.5 -71t-71.5 -30q-45 0 -80.5 27t-49.5 70l-9 29h-318v-324h309q42 0 71.5 -30t29.5 -72t-29.5 -71.5t-71.5 -29.5h-309v-355h333 l10 38q11 43 47 70.5t81 27.5q42 0 72 -30t30 -72v-96q0 -55 -39 -94t-94 -39h-750q-36 0 -61 25.5t-25 60.5zM307 1400q0 13 10 24l127 134q44 46 118 46q75 0 118 -45l129 -135q11 -11 11 -24q0 -14 -14 -24t-36 -10q-97 0 -149 60l-57 65l-60 -66q-53 -59 -148 -59 q-22 0 -35.5 10t-13.5 24z" />
<glyph unicode="&#xcb;" d="M79 86q0 37 23.5 65.5t60.5 34.5l45 8v884l-45 8q-37 7 -60.5 35.5t-23.5 65.5q0 35 25 60t61 25h735q55 0 93.5 -39t38.5 -94v-86q0 -42 -29 -71.5t-71 -29.5q-45 0 -80.5 26.5t-49.5 69.5l-9 29h-319v-324h309q42 0 71.5 -30t29.5 -72t-29.5 -71.5t-71.5 -29.5h-309 v-355h333l11 38q12 44 47.5 71t80.5 27q42 0 71.5 -30t29.5 -72v-96q0 -55 -39 -94t-94 -39h-749q-35 0 -60.5 25.5t-25.5 60.5zM254 1491q0 49 34 82.5t84 33.5q49 0 81.5 -33t32.5 -83t-32.5 -83t-81.5 -33q-50 0 -84 33.5t-34 82.5zM621 1491q0 49 34 82.5t84 33.5 q49 0 81.5 -33t32.5 -83t-32.5 -83t-81.5 -33q-50 0 -84 33.5t-34 82.5z" />
<glyph unicode="&#xcc;" horiz-adv-x="687" d="M77 86q0 37 24 65t61 35l49 8v884l-49 8q-37 6 -61 34.5t-24 66.5q0 35 25.5 60.5t60.5 25.5h362q35 0 60.5 -25.5t25.5 -60.5q0 -38 -23.5 -66.5t-60.5 -34.5l-50 -8v-884l50 -8q36 -5 60 -34t24 -66q0 -35 -25.5 -60.5t-60.5 -25.5h-362q-35 0 -60.5 25.5t-25.5 60.5z M79 1583q0 11 11.5 18.5t29.5 7.5h113q80 0 122 -53l92 -119q10 -13 10 -24q0 -18 -17 -30t-43 -12q-101 0 -166 60l-141 130q-11 11 -11 22z" />
<glyph unicode="&#xcd;" horiz-adv-x="686" d="M76 86q0 37 24 65t61 35l50 8v884l-50 8q-37 6 -61 34.5t-24 65.5q0 36 25.5 61t60.5 25h363q35 0 60.5 -25t25.5 -60q0 -38 -24 -66.5t-61 -34.5l-49 -8v-884l49 -8q37 -6 61 -34.5t24 -65.5q0 -35 -25 -60.5t-61 -25.5h-363q-35 0 -60.5 25.5t-25.5 60.5zM251 1408 q0 12 10 25l92 119q42 53 121 53h114q18 0 29.5 -7.5t11.5 -18.5t-11 -22l-141 -130q-65 -60 -166 -60q-27 0 -43.5 11.5t-16.5 29.5z" />
<glyph unicode="&#xce;" horiz-adv-x="687" d="M77 86q0 37 24 65t61 35l49 8v884l-49 8q-37 6 -61 34.5t-24 65.5q0 35 25.5 60.5t60.5 25.5h362q35 0 60.5 -25.5t25.5 -60.5q0 -37 -23.5 -65.5t-60.5 -34.5l-50 -8v-884l50 -8q36 -5 60 -34t24 -66q0 -35 -25.5 -60.5t-60.5 -25.5h-362q-35 0 -60.5 25.5t-25.5 60.5z M87 1400q0 11 11 24l127 134q44 46 117 46q75 0 118 -45l130 -135q11 -13 11 -24q0 -14 -14 -24t-36 -10q-98 0 -149 60l-57 65l-59 -66q-53 -59 -148 -59q-23 0 -37 10t-14 24z" />
<glyph unicode="&#xcf;" horiz-adv-x="686" d="M43 1491q0 49 34 82.5t84 33.5q49 0 81.5 -33t32.5 -83t-32.5 -83t-81.5 -33q-50 0 -84 33.5t-34 82.5zM76 86q0 37 23.5 65t60.5 35l50 8v884l-50 8q-37 6 -60.5 34.5t-23.5 65.5q0 36 25 61t61 25h362q35 0 60.5 -25t25.5 -60q0 -38 -24 -66.5t-61 -34.5l-49 -8v-884 l49 -8q37 -6 61 -34.5t24 -65.5q0 -35 -25.5 -60.5t-60.5 -25.5h-362q-36 0 -61 25.5t-25 60.5zM410 1491q0 49 33.5 82.5t83.5 33.5q49 0 82.5 -33.5t33.5 -82.5t-33.5 -82.5t-82.5 -33.5q-50 0 -83.5 33.5t-33.5 82.5z" />
<glyph unicode="&#xd1;" horiz-adv-x="1368" d="M76 86q0 37 24 65t61 35l50 8v884l-50 8q-37 6 -61 34.5t-24 65.5q0 35 25.5 60.5t60.5 25.5h199q61 0 113 -31.5t81 -86.5l398 -753v677l-51 8q-37 6 -61 34.5t-24 65.5q0 35 25.5 60.5t60.5 25.5h328q35 0 60 -25.5t25 -60.5q0 -37 -24 -65.5t-61 -34.5l-44 -8v-972 q0 -50 -35.5 -85t-84.5 -35q-56 0 -103 28t-75 77l-444 785v-682l50 -8q37 -6 61 -34.5t24 -65.5q0 -35 -25.5 -60.5t-60.5 -25.5h-332q-35 0 -60.5 25.5t-25.5 60.5zM444 1432q0 76 53 125t100 49q40 0 72 -15t47.5 -32.5t32 -32.5t31.5 -15q14 0 25 14t19 31t25.5 31 t42.5 14q23 0 40 -15t17 -36q0 -76 -54 -125t-101 -49q-40 0 -71.5 15t-46.5 32.5t-31.5 32.5t-31.5 15q-14 0 -25 -14t-18 -31t-24.5 -31t-44.5 -14q-23 0 -40 15t-17 36z" />
<glyph unicode="&#xd2;" horiz-adv-x="1313" d="M74 611q0 150 38.5 276t112 218t186.5 143.5t256 51.5q270 0 421.5 -173t151.5 -465q0 -200 -66.5 -354t-202.5 -245t-324 -91q-269 0 -421 175t-152 464zM359 636q0 -213 70.5 -336t221.5 -123q154 0 228.5 123t74.5 336t-70.5 336t-220.5 123q-155 0 -229.5 -122.5 t-74.5 -336.5zM386 1592q0 11 11.5 18.5t29.5 7.5h114q80 0 121 -52l93 -120q9 -12 9 -24q0 -18 -17 -30t-43 -12q-101 0 -166 60l-141 131q-11 11 -11 21z" />
<glyph unicode="&#xd3;" horiz-adv-x="1313" d="M74 611q0 150 38.5 276t112 218t186.5 143.5t255 51.5q270 0 421.5 -173t151.5 -465q0 -200 -66.5 -354t-202.5 -245t-324 -91q-269 0 -420.5 175t-151.5 464zM359 636q0 -213 70.5 -336t221.5 -123q154 0 228.5 123t74.5 336t-70.5 336t-221.5 123q-154 0 -228.5 -122.5 t-74.5 -336.5zM562 1418q0 12 9 24l92 119q42 53 122 53h113q18 0 29.5 -7.5t11.5 -18.5t-11 -22l-141 -130q-65 -60 -166 -60q-26 0 -42.5 12t-16.5 30z" />
<glyph unicode="&#xd4;" horiz-adv-x="1313" d="M74 611q0 150 38.5 276t112 218t186.5 143.5t255 51.5q270 0 421.5 -173t151.5 -465q0 -200 -66.5 -354t-202.5 -245t-324 -91q-269 0 -420.5 175t-151.5 464zM359 636q0 -213 70.5 -336t221.5 -123q154 0 228.5 123t74.5 336q0 139 -28 238.5t-95 160t-169 60.5 q-154 0 -228.5 -123t-74.5 -336zM400 1410q0 11 11 24l126 133q45 47 118 47q74 0 118 -46l130 -134q11 -13 11 -25q0 -14 -14 -24t-37 -10q-97 0 -148 60l-57 66l-60 -67q-53 -59 -148 -59q-22 0 -36 10.5t-14 24.5z" />
<glyph unicode="&#xd5;" horiz-adv-x="1313" d="M74 611q0 150 38.5 276t112 218t186.5 143.5t255 51.5q270 0 421.5 -173t151.5 -465q0 -200 -66.5 -354t-202.5 -245t-324 -91q-269 0 -420.5 175t-151.5 464zM359 636q0 -103 16 -185t50 -144.5t91 -96t134 -33.5q154 0 229 123t75 336t-71 336t-221 123 q-154 0 -228.5 -123t-74.5 -336zM404 1439q0 76 53.5 125t100.5 49q40 0 71.5 -15t46.5 -32.5t32 -32.5t32 -15q14 0 25 14t19 31t25.5 31t42.5 14q23 0 40 -15t17 -36q0 -76 -53.5 -124.5t-100.5 -48.5q-40 0 -71.5 14.5t-47 32.5t-32 32.5t-31.5 14.5q-14 0 -25 -14 t-18 -31t-24.5 -31t-44.5 -14q-23 0 -40 15t-17 36z" />
<glyph unicode="&#xd6;" horiz-adv-x="1313" d="M74 611q0 150 38.5 276t112 218t186.5 143.5t255 51.5q270 0 421.5 -173t151.5 -465q0 -200 -66.5 -354t-202.5 -245t-324 -91q-269 0 -420.5 175t-151.5 464zM357 1499q0 49 34 82.5t84 33.5q49 0 81.5 -33t32.5 -83t-32.5 -83.5t-81.5 -33.5q-50 0 -84 34t-34 83z M359 636q0 -103 16 -185t50 -144.5t91 -96t134 -33.5q154 0 229 123t75 336t-70.5 336t-221.5 123q-154 0 -228.5 -122.5t-74.5 -336.5zM724 1499q0 49 33.5 82.5t83.5 33.5q49 0 82.5 -33.5t33.5 -82.5q0 -50 -33.5 -83.5t-82.5 -33.5t-83 34t-34 83z" />
<glyph unicode="&#xd7;" horiz-adv-x="897" d="M84 270q0 40 30 70l193 195l-193 193q-30 30 -30 71q0 40 30 70t72 30q41 0 71 -30l193 -192l193 194q28 29 70 29q40 0 69.5 -30t29.5 -71t-29 -70l-193 -193l194 -194q30 -30 30 -71q0 -40 -30 -70.5t-71 -30.5t-70 29l-194 194l-195 -194q-28 -29 -70 -29 q-40 0 -70 29.5t-30 70.5z" />
<glyph unicode="&#xd8;" horiz-adv-x="1314" d="M74 611q0 202 66.5 356t202 243.5t324.5 89.5q159 0 283 -65l55 83q25 37 68 37q34 0 59.5 -26.5t25.5 -62.5q0 -28 -14 -49l-58 -88q154 -171 154 -467q0 -200 -66.5 -354t-202.5 -245t-324 -91q-160 0 -282 65l-55 -82q-25 -37 -69 -37q-35 0 -60 26t-25 62q0 26 15 49 l58 89q-155 173 -155 467zM359 636q0 -145 32 -247l432 654q-64 52 -160 52q-154 0 -229 -123t-75 -336zM491 229q66 -52 160 -52q154 0 228.5 123t74.5 336q0 149 -31 246z" />
<glyph unicode="&#xd9;" horiz-adv-x="1311" d="M45 1187q0 35 25.5 60.5t60.5 25.5h347q35 0 60.5 -25.5t25.5 -60.5q0 -38 -24 -66.5t-61 -34.5l-45 -8v-559q0 -68 5 -117t20 -95t40.5 -74t68.5 -44.5t102 -16.5q62 0 105.5 18t68.5 46t38.5 77t17.5 96.5t4 118.5v550l-41 8q-37 7 -61 35.5t-24 65.5q0 35 25 60.5 t61 25.5h316q35 0 60.5 -25.5t25.5 -60.5q0 -37 -23.5 -65.5t-60.5 -35.5l-43 -8v-572q0 -132 -22 -225.5t-75.5 -165.5t-150 -107.5t-238.5 -35.5q-261 0 -372 126t-111 386v594l-40 8q-37 7 -61 35.5t-24 65.5zM369 1583q0 11 11.5 18.5t29.5 7.5h114q79 0 121 -53 l92 -119q10 -13 10 -24q0 -18 -17 -30t-43 -12q-101 0 -166 60l-141 130q-11 11 -11 22z" />
<glyph unicode="&#xda;" horiz-adv-x="1311" d="M46 1187q0 35 25.5 60t60.5 25h347q35 0 60.5 -25t25.5 -61q0 -37 -24 -65t-61 -35l-45 -8v-559q0 -68 5 -117t20 -95t40.5 -74t68.5 -44.5t102 -16.5q62 0 105.5 18t68.5 46t38.5 77t17.5 96.5t4 118.5v550l-42 8q-37 7 -60.5 35.5t-23.5 65.5q0 35 25 60t61 25h316 q35 0 60.5 -25t25.5 -60q0 -37 -24 -65.5t-61 -35.5l-43 -8v-572q0 -105 -13 -184.5t-46 -147.5t-88 -111t-139.5 -67t-198.5 -24q-261 0 -372.5 126t-111.5 386v594l-39 8q-37 7 -61 35.5t-24 65.5zM578 1408q0 13 9 25l93 119q42 53 121 53h113q18 0 29.5 -7.5t11.5 -18.5 t-11 -22l-140 -130q-65 -60 -166 -60q-27 0 -43.5 11.5t-16.5 29.5z" />
<glyph unicode="&#xdb;" horiz-adv-x="1311" d="M46 1187q0 35 25.5 60t60.5 25h347q35 0 60.5 -25.5t25.5 -60.5q0 -38 -24 -66.5t-61 -34.5l-45 -7v-559q0 -68 5 -117t20 -95t40.5 -74t68.5 -44.5t102 -16.5q62 0 105.5 18t68.5 46t38.5 77t17.5 96.5t4 118.5v550l-42 8q-37 7 -60.5 35t-23.5 65q0 35 25 60.5t61 25.5 h316q35 0 60.5 -25.5t25.5 -60.5q0 -37 -24 -65t-61 -35l-43 -8v-572q0 -132 -22 -225.5t-75.5 -165.5t-149.5 -107.5t-238 -35.5q-261 0 -372.5 126t-111.5 386v594l-40 7q-37 6 -60.5 35t-23.5 67zM412 1400q0 11 11 24l126 134q44 46 118 46q75 0 118 -45l129 -135 q11 -11 11 -24q0 -14 -13.5 -24t-35.5 -10q-98 0 -150 60l-56 65l-60 -66q-53 -59 -148 -59q-22 0 -36 10t-14 24z" />
<glyph unicode="&#xdc;" horiz-adv-x="1312" d="M46 1187q0 35 25.5 60t60.5 25h347q35 0 60.5 -25t25.5 -61q0 -37 -24 -65t-61 -35l-44 -8v-559q0 -86 8.5 -144t33 -107t72 -72.5t121.5 -23.5q62 0 105.5 18t68.5 46t39 76.5t18 96.5t4 119v550l-43 8q-37 7 -60.5 35.5t-23.5 65.5q0 35 25.5 60t60.5 25h317 q35 0 60 -25t25 -60q0 -37 -23.5 -65.5t-60.5 -35.5l-43 -8v-572q0 -132 -22 -225.5t-75.5 -165.5t-150 -107.5t-238.5 -35.5q-133 0 -226.5 32.5t-150 98.5t-81.5 159t-25 222v594l-40 8q-37 7 -61 35.5t-24 65.5zM357 1491q0 49 34 82.5t84 33.5q49 0 81.5 -33t32.5 -83 t-32.5 -83t-81.5 -33q-50 0 -84 33.5t-34 82.5zM724 1491q0 49 34 82.5t84 33.5q49 0 82 -33t33 -83t-33 -83t-82 -33q-50 0 -84 33.5t-34 82.5z" />
<glyph unicode="&#xdd;" horiz-adv-x="1195" d="M-2 1187q0 35 25 60t60 25h358q35 0 60.5 -25t25.5 -60q0 -36 -24.5 -64t-60.5 -34l-30 -4l201 -364l200 363l-33 5q-36 7 -60 34.5t-24 63.5q0 35 25 60t60 25h332q35 0 60.5 -25t25.5 -60q0 -37 -23.5 -65.5t-60.5 -36.5l-38 -8l-349 -578v-304l62 -9q37 -5 61 -33.5 t24 -65.5q0 -36 -25.5 -61.5t-60.5 -25.5h-387q-36 0 -61 25.5t-25 61.5q0 37 24 65.5t61 33.5l62 9v300l-337 582l-45 8q-37 7 -60 35.5t-23 66.5zM517 1402q0 12 10 25l92 119q40 53 122 53h113q18 0 29.5 -8t11.5 -19q0 -10 -11 -21l-141 -130q-66 -61 -165 -61 q-27 0 -44 12t-17 30z" />
<glyph unicode="&#xdf;" horiz-adv-x="1231" d="M41 73q0 31 20 55t51 29l55 10v739q0 272 121 390.5t366 118.5q82 0 154 -18t129.5 -54t91 -95.5t33.5 -135.5q0 -57 -21.5 -102.5t-53.5 -72t-70 -51t-70 -41.5t-53.5 -41.5t-21.5 -52.5q0 -30 23.5 -57t61 -48.5t82.5 -44t90 -50.5t82.5 -61t61 -81.5t23.5 -106.5 q0 -152 -103.5 -238.5t-266.5 -86.5q-40 0 -77.5 3.5t-81.5 15t-76 30.5t-53.5 52t-21.5 77v25q0 43 32.5 74.5t76.5 31.5q48 0 87.5 -29t54.5 -75l12 -35q19 -8 41 -8q47 0 87.5 33t40.5 95q0 36 -24 65.5t-62 51.5t-84 44t-92 48t-84 57.5t-62 79.5t-24 107q0 55 21 99.5 t52 70.5t68 52.5t68 47t52 52.5t21 70q0 71 -46 107t-109 36q-110 0 -167 -82.5t-57 -242.5v-811q0 -49 -34.5 -84t-84.5 -35h-186q-30 0 -51.5 21.5t-21.5 51.5z" />
<glyph unicode="&#xe0;" horiz-adv-x="971" d="M49 273q0 76 23 131.5t62.5 90.5t101.5 56.5t132 29.5t161 8h46v57q0 90 -28.5 131t-98.5 41q-36 0 -58 -9l-10 -32q-15 -48 -54 -75t-93 -27q-45 0 -72.5 26t-27.5 67q0 62 34 105.5t91 65t114 30.5t121 9q86 0 147 -17t96.5 -44t55 -74t25.5 -93.5t6 -115.5v-478l39 -6 q29 -5 48 -27.5t19 -51.5t-19.5 -50.5t-48.5 -24.5l-216 -19q-26 -2 -46 19.5t-20 49.5v17q-50 -45 -96.5 -65.5t-111.5 -20.5q-147 0 -234.5 80t-87.5 216zM224 1328q0 14 10.5 23.5t27.5 9.5h107q74 0 113 -66l86 -147q9 -15 9 -30q0 -22 -16 -37t-41 -15q-95 0 -154 74 l-132 162q-10 13 -10 26zM307 287q0 -61 35 -93t92 -32q69 0 141 36v239l-82 -4q-186 -10 -186 -146z" />
<glyph unicode="&#xe1;" horiz-adv-x="970" d="M48 273q0 76 23 131.5t62.5 90.5t101.5 56.5t132 29.5t161 8h46v57q0 90 -28.5 131t-98.5 41q-35 0 -57 -9l-11 -32q-15 -48 -54 -75t-93 -27q-45 0 -72 26t-27 67q0 62 34 105.5t91 65t114 30.5t121 9q86 0 147 -17t96.5 -44t55 -74t25.5 -93.5t6 -115.5v-478l38 -6 q29 -5 48 -27.5t19 -51.5t-19 -50.5t-48 -24.5l-216 -19q-26 -2 -46 19.5t-20 49.5v17q-50 -45 -96.5 -65.5t-111.5 -20.5q-147 0 -235 80t-88 216zM307 287q0 -61 35 -93t92 -32q68 0 140 36v239l-81 -4q-186 -10 -186 -146zM426 1118q0 15 9 30l87 147q39 66 113 66h106 q17 0 27.5 -9.5t10.5 -23.5q0 -13 -10 -26l-131 -162q-59 -74 -156 -74q-25 0 -40.5 15t-15.5 37z" />
<glyph unicode="&#xe2;" horiz-adv-x="969" d="M47 273q0 76 23 131.5t63 90.5t102.5 56.5t132 29.5t160.5 8h46v57q0 90 -28.5 131t-98.5 41q-35 0 -57 -9l-11 -32q-15 -48 -53.5 -75t-93.5 -27q-45 0 -72.5 26t-27.5 67q0 50 23.5 88.5t60 61t86.5 36.5t95.5 19t95.5 5q86 0 147 -17t96.5 -44t55 -74t25.5 -93.5 t6 -115.5v-478l38 -6q29 -5 48 -27.5t19 -51.5t-19.5 -51t-47.5 -24l-217 -19q-26 -2 -45.5 19.5t-19.5 49.5v17q-50 -45 -96.5 -65.5t-112.5 -20.5q-147 0 -235 80t-88 216zM254 1108q0 16 10 30l118 165q40 57 110 57t110 -56l121 -166q11 -16 11 -30q0 -18 -13 -30 t-34 -12q-90 0 -139 74l-53 81l-56 -82q-48 -73 -139 -73q-21 0 -33.5 12t-12.5 30zM307 287q0 -62 34.5 -93.5t91.5 -31.5q69 0 141 36v239l-82 -4q-185 -10 -185 -146z" />
<glyph unicode="&#xe3;" horiz-adv-x="970" d="M48 273q0 76 23 131.5t63 90.5t102 56.5t131.5 29.5t160.5 8h47v57q0 90 -29 131t-99 41q-35 0 -57 -9l-10 -32q-15 -48 -54 -75t-94 -27q-45 0 -72 26t-27 67q0 62 34 105.5t91 65t114 30.5t121 9q86 0 147 -17t96.5 -44t55 -74t25.5 -93.5t6 -115.5v-478l39 -6 q29 -5 48 -27.5t19 -51.5t-20 -51t-48 -24l-216 -19q-26 -2 -46 19.5t-20 49.5v17q-50 -45 -96.5 -65.5t-111.5 -20.5q-147 0 -235 80t-88 216zM233 1149q0 79 53.5 130t100.5 51q40 0 71.5 -15.5t47 -34t32.5 -34t32 -15.5q14 0 25 14.5t18.5 32.5t25 32.5t42.5 14.5 q23 0 40 -15.5t17 -37.5q0 -79 -53.5 -130t-100.5 -51q-40 0 -71.5 15.5t-47 34t-32 34t-31.5 15.5q-14 0 -25 -14.5t-17.5 -32.5t-24.5 -32.5t-44 -14.5q-24 0 -41 15.5t-17 37.5zM307 287q0 -61 35 -93t92 -32q69 0 141 36v239l-82 -4q-186 -10 -186 -146z" />
<glyph unicode="&#xe4;" horiz-adv-x="970" d="M47 273q0 76 23 131.5t63 90.5t102.5 56.5t132 29.5t160.5 8h46v57q0 90 -28.5 131t-98.5 41q-35 0 -57 -9l-11 -32q-15 -48 -53.5 -75t-93.5 -27q-45 0 -72 26t-27 67q0 62 34 105.5t91 65t114 30.5t121 9q86 0 147 -17t96.5 -44t55 -74t25.5 -93.5t6 -115.5v-478l38 -6 q29 -5 48 -27.5t19 -51.5t-19.5 -51t-47.5 -24l-217 -19q-26 -2 -45.5 19.5t-19.5 49.5v17q-50 -45 -96.5 -65.5t-112.5 -20.5q-147 0 -235 80t-88 216zM194 1201q0 49 34.5 82.5t83.5 33.5t81.5 -33t32.5 -83t-32.5 -83t-81.5 -33t-83.5 33.5t-34.5 82.5zM306 287 q0 -61 35 -93t92 -32q68 0 140 36v239l-81 -4q-186 -10 -186 -146zM561 1201q0 49 34 82.5t84 33.5q49 0 81.5 -33t32.5 -83t-32.5 -83t-81.5 -33q-50 0 -84 33.5t-34 82.5z" />
<glyph unicode="&#xe5;" horiz-adv-x="969" d="M47 273q0 76 23 131.5t63 90.5t102 56.5t132 29.5t161 8h45v57q0 90 -28.5 131t-97.5 41q-35 0 -57 -9l-11 -32q-17 -48 -55 -75t-92 -27q-45 0 -72.5 26t-27.5 67q0 62 34 105.5t91 65t114 30.5t121 9q86 0 147.5 -17t97 -44.5t55 -74t25.5 -93t6 -115.5v-478l38 -6 q29 -5 48 -27.5t19 -51.5t-19.5 -50.5t-48.5 -24.5l-216 -19q-26 -2 -46 19.5t-20 49.5v17q-50 -45 -96.5 -65.5t-111.5 -20.5q-147 0 -235 80t-88 216zM305 1246q0 79 55.5 135t134.5 56q78 0 134 -56t56 -135q0 -78 -56 -134t-134 -56q-79 0 -134.5 56t-55.5 134zM306 287 q0 -61 35 -93t92 -32q68 0 140 36v239l-81 -4q-186 -10 -186 -146zM401 1246q0 -38 27.5 -65.5t66.5 -27.5q38 0 66 27.5t28 65.5q0 39 -28 66.5t-66 27.5q-39 0 -66.5 -27.5t-27.5 -66.5z" />
<glyph unicode="&#xe6;" horiz-adv-x="1451" d="M49 273q0 76 23 131.5t63 90.5t102 56.5t131.5 29.5t160.5 8h46v57q0 90 -28.5 131t-98.5 41q-34 0 -57 -9l-11 -32q-16 -48 -54.5 -75t-92.5 -27q-44 0 -72 25.5t-28 61.5v13q0 59 34 101t91.5 63t115 30t120.5 9q182 0 256 -77q105 77 264 77q102 0 178.5 -34t120 -93 t64.5 -130t21 -153q0 -49 -35 -82.5t-84 -33.5h-456q3 -135 55.5 -208.5t168.5 -73.5q103 0 199 51q16 9 33 9q30 0 51.5 -24t21.5 -57q0 -64 -107.5 -118t-230.5 -54q-218 0 -331 116q-50 -47 -141.5 -81.5t-170.5 -34.5q-147 0 -234.5 80t-87.5 216zM307 287q0 -61 35 -93 t92 -32q69 0 141 36v239l-81 -4q-187 -9 -187 -146zM828 602l308 19q-8 194 -142 194q-78 0 -117 -55.5t-49 -157.5z" />
<glyph unicode="&#xe7;" horiz-adv-x="905" d="M64 453q0 234 129.5 379.5t346.5 145.5q41 0 79 -3.5t83 -15t78 -30t55 -52.5t22 -78v-23q0 -40 -31.5 -70.5t-75.5 -30.5q-48 0 -87 28t-53 74l-10 33q-14 5 -37 5q-115 0 -177.5 -88t-62.5 -246q0 -149 55 -225.5t151 -76.5q99 0 215 58q14 7 32 7q31 0 51 -24t20 -57 q0 -54 -78 -105t-178 -71l-50 -79q56 -7 96 -42t40 -90q0 -82 -60.5 -121t-151.5 -39q-21 0 -41.5 2.5t-45 8.5t-39.5 21t-15 37t14.5 37.5t37.5 15.5q6 0 18 -4q39 -14 68 -14q26 0 44.5 11t18.5 35q0 45 -95 63q-16 3 -26.5 14.5t-10.5 25.5q0 10 6 20l53 90 q-188 15 -288 140.5t-100 333.5z" />
<glyph unicode="&#xe8;" horiz-adv-x="953" d="M66 457q0 116 27.5 210t81.5 164t141 108.5t200 38.5q103 0 179.5 -34t120 -93t64 -129.5t20.5 -153.5q0 -49 -35 -82.5t-84 -33.5h-456q3 -135 55.5 -208.5t168.5 -73.5q102 0 198 51q17 9 34 9q31 0 51.5 -24t20.5 -57q0 -64 -107 -118t-230 -54q-450 0 -450 480z M256 1328q0 14 10.5 23.5t27.5 9.5h107q75 0 113 -65l87 -148q9 -15 9 -30q0 -22 -15.5 -37t-40.5 -15q-96 0 -156 74l-131 162q-11 14 -11 26zM329 602l309 19q-8 194 -143 194q-146 0 -166 -213z" />
<glyph unicode="&#xe9;" horiz-adv-x="953" d="M66 457q0 116 27.5 210t81.5 164t141 108.5t200 38.5q103 0 179.5 -34t120 -93t64 -129.5t20.5 -153.5q0 -49 -35 -82.5t-84 -33.5h-456q3 -135 55.5 -208.5t168.5 -73.5q102 0 198 51q17 9 34 9q31 0 51.5 -24t20.5 -57q0 -64 -107 -118t-230 -54q-450 0 -450 480z M329 602l309 19q-8 194 -143 194q-146 0 -166 -213zM415 1118q0 17 8 30l87 148q38 65 114 65h105q18 0 28.5 -9.5t10.5 -23.5q0 -13 -10 -26l-132 -162q-60 -74 -155 -74q-25 0 -40.5 15t-15.5 37z" />
<glyph unicode="&#xea;" horiz-adv-x="954" d="M67 457q0 116 27.5 210t81.5 164t140.5 108.5t199.5 38.5q103 0 179.5 -34t120 -92.5t64 -129.5t20.5 -154q0 -49 -34.5 -82.5t-83.5 -33.5h-456q2 -135 54.5 -208.5t168.5 -73.5q101 0 199 51q15 9 34 9q31 0 51.5 -24t20.5 -57q0 -64 -106.5 -118t-230.5 -54 q-450 0 -450 480zM270 1108q0 14 11 30l118 166q40 56 110 56t110 -55l121 -166q11 -16 11 -31q0 -18 -13 -29.5t-34 -11.5q-91 0 -139 73l-53 81l-56 -82q-49 -72 -138 -72q-21 0 -34.5 11.5t-13.5 29.5zM330 602l308 19q-8 194 -142 194q-78 0 -117 -55.5t-49 -157.5z" />
<glyph unicode="&#xeb;" horiz-adv-x="954" d="M66 457q0 155 47 270t149.5 183t252.5 68q103 0 179.5 -34t120 -93t64.5 -130t21 -153q0 -49 -35 -82.5t-84 -33.5h-456q3 -135 55 -208.5t168 -73.5q101 0 199 51q15 9 34 9q30 0 51 -24t21 -57q0 -64 -107 -118t-230 -54q-450 0 -450 480zM208 1201q0 49 34 82.5 t84 33.5q49 0 82 -33t33 -83t-33 -83t-82 -33q-50 0 -84 33.5t-34 82.5zM329 602l309 19q-4 92 -39.5 143t-103.5 51q-78 0 -117 -55.5t-49 -157.5zM575 1201q0 49 33.5 82.5t83.5 33.5t83 -33.5t33 -82.5t-33 -82.5t-83 -33.5t-83.5 33.5t-33.5 82.5z" />
<glyph unicode="&#xec;" horiz-adv-x="585" d="M45 1351q0 14 10.5 23.5t27.5 9.5h106q76 0 114 -65l86 -148q9 -15 9 -30q0 -22 -15.5 -37t-40.5 -15q-96 0 -156 74l-131 162q-10 13 -10 26zM65 71q0 31 19.5 55t50.5 29l47 9v635l-50 7q-29 4 -48 27t-19 52t19.5 50.5t48.5 24.5l180 18h11q45 0 77 -31.5t32 -76.5 v-707l40 -8q30 -6 49.5 -29.5t19.5 -54.5q0 -29 -21 -50t-50 -21h-335q-29 0 -50 21t-21 50z" />
<glyph unicode="&#xed;" horiz-adv-x="585" d="M65 71q0 31 19.5 55t50.5 29l48 9v635l-51 7q-29 4 -48 27t-19 52t19.5 50.5t48.5 24.5l180 18h11q45 0 77 -31.5t32 -76.5v-707l40 -8q31 -6 50 -29.5t19 -54.5q0 -29 -21 -50t-50 -21h-335q-29 0 -50 21t-21 50zM205 1141q0 17 8 30l87 148q38 65 114 65h105 q17 0 27.5 -9.5t10.5 -23.5q0 -13 -10 -26l-131 -162q-60 -74 -155 -74q-25 0 -40.5 15t-15.5 37z" />
<glyph unicode="&#xee;" horiz-adv-x="586" d="M42 1131q0 13 11 29l118 166q41 57 110 57q71 0 111 -56l120 -166q11 -16 11 -30q0 -18 -13 -30t-34 -12q-90 0 -139 74l-53 80l-56 -82q-47 -72 -138 -72q-21 0 -34.5 12t-13.5 30zM65 71q0 31 19.5 55t50.5 29l48 9v634l-51 8q-29 5 -48 27t-19 51t19.5 50.5t48.5 24.5 l181 19h11q44 0 76 -31.5t32 -76.5v-707l40 -8q31 -6 50 -29.5t19 -54.5q0 -29 -21 -50t-50 -21h-335q-29 0 -50 21t-21 50z" />
<glyph unicode="&#xef;" horiz-adv-x="585" d="M-18 1222q0 49 34 82.5t84 33.5q49 0 82 -33t33 -83t-33 -83.5t-82 -33.5q-50 0 -84 34t-34 83zM65 71q0 31 19.5 55t49.5 29l48 9v635l-50 7q-29 4 -48 27t-19 52t19 50.5t48 24.5l181 18h11q45 0 76.5 -31.5t31.5 -76.5v-707l40 -8q31 -6 50 -29.5t19 -54.5 q0 -29 -20.5 -50t-49.5 -21h-336q-29 0 -49.5 21t-20.5 50zM350 1222q0 49 33.5 82.5t83.5 33.5q49 0 82 -33t33 -83t-33 -83.5t-82 -33.5t-83 33.5t-34 83.5z" />
<glyph unicode="&#xf1;" horiz-adv-x="1128" d="M65 71q0 31 19 54t50 29l47 9v633l-50 7q-29 4 -47.5 26.5t-18.5 51.5t19.5 50.5t47.5 24.5l224 22q27 3 48 -20t21 -52v-14q102 86 231 86q171 0 247 -81t76 -249v-485l39 -8q30 -7 49.5 -30.5t19.5 -54.5q0 -29 -21 -49.5t-50 -20.5h-318q-29 0 -49.5 21t-20.5 50 q0 31 19.5 55t49.5 30l33 7v408q0 125 -30 175t-116 50q-88 0 -154 -94v-539l33 -8q31 -7 50.5 -30.5t19.5 -54.5q0 -29 -21 -49.5t-50 -20.5h-327q-29 0 -49.5 21t-20.5 50zM334 1151q0 79 53 130t100 51q40 0 71.5 -15.5t47 -34t32.5 -34t32 -15.5q14 0 25 14.5t19 32.5 t25.5 32.5t42.5 14.5q23 0 39.5 -15.5t16.5 -37.5q0 -79 -52.5 -130t-100.5 -51q-40 0 -71.5 15.5t-47 33.5t-32.5 33.5t-32 15.5q-14 0 -24.5 -14.5t-17.5 -32.5t-25 -32.5t-45 -14.5q-23 0 -39.5 16t-16.5 38z" />
<glyph unicode="&#xf2;" horiz-adv-x="1045" d="M65 464q0 234 125.5 374t342.5 140q208 0 328 -131t120 -355q0 -235 -125.5 -375t-343.5 -140q-208 0 -327.5 131.5t-119.5 355.5zM273 1328q0 14 10.5 23.5t27.5 9.5h106q76 0 114 -65l86 -148q9 -15 9 -30q0 -22 -15.5 -37t-40.5 -15q-96 0 -156 74l-131 162 q-10 13 -10 26zM331 474q0 -168 46.5 -249t142.5 -81q193 0 193 334q0 78 -9 135.5t-30 103.5t-59 69.5t-93 23.5q-191 0 -191 -336z" />
<glyph unicode="&#xf3;" horiz-adv-x="1044" d="M64 464q0 234 126 374t343 140q208 0 327.5 -131t119.5 -355q0 -235 -125 -375t-343 -140q-208 0 -328 131.5t-120 355.5zM331 474q0 -168 46 -249t142 -81q193 0 193 334q0 78 -9 135.5t-29.5 103.5t-58.5 69.5t-93 23.5q-191 0 -191 -336zM428 1118q0 15 9 30l86 148 q38 65 114 65h106q17 0 27.5 -9.5t10.5 -23.5q0 -13 -10 -26l-131 -162q-60 -74 -156 -74q-25 0 -40.5 15t-15.5 37z" />
<glyph unicode="&#xf4;" horiz-adv-x="1043" d="M64 464q0 234 126 374t343 140q208 0 327.5 -131t119.5 -355q0 -235 -125 -375t-343 -140q-208 0 -328 131.5t-120 355.5zM282 1108q0 16 10 30l118 166q40 56 110 56q71 0 111 -55l120 -166q11 -16 11 -31q0 -18 -13 -29.5t-34 -11.5q-91 0 -139 73l-53 81l-55 -82 q-49 -72 -139 -72q-21 0 -34 11.5t-13 29.5zM330 474q0 -168 46.5 -249t142.5 -81q193 0 193 334q0 78 -9 135.5t-29.5 103.5t-58.5 69.5t-93 23.5q-192 0 -192 -336z" />
<glyph unicode="&#xf5;" horiz-adv-x="1044" d="M64 464q0 234 126 374t343 140q208 0 327.5 -131t119.5 -355q0 -235 -125 -375t-343 -140q-208 0 -328 131.5t-120 355.5zM269 1148q0 79 53.5 130.5t100.5 51.5q40 0 71.5 -15.5t47 -34t32.5 -34t32 -15.5q14 0 25 14.5t18.5 32.5t25 32.5t42.5 14.5q23 0 40 -16t17 -38 q0 -79 -53 -129.5t-100 -50.5q-40 0 -71.5 15.5t-47 34t-32.5 34t-32 15.5q-14 0 -24.5 -14.5t-17.5 -32.5t-25 -32.5t-45 -14.5q-23 0 -40 15t-17 37zM330 474q0 -168 46.5 -249t142.5 -81q193 0 193 334q0 105 -15.5 175t-59 113.5t-116.5 43.5q-191 0 -191 -336z" />
<glyph unicode="&#xf6;" horiz-adv-x="1044" d="M64 464q0 234 126 374t343 140q208 0 327.5 -131t119.5 -355q0 -235 -125 -375t-343 -140q-208 0 -328 131.5t-120 355.5zM222 1201q0 49 34.5 82.5t83.5 33.5t82 -33t33 -83t-33 -83t-82 -33t-83.5 33.5t-34.5 82.5zM330 474q0 -168 46.5 -249t142.5 -81q193 0 193 334 q0 78 -9 135.5t-29.5 103.5t-58.5 69.5t-93 23.5q-192 0 -192 -336zM589 1201q0 49 34 82.5t84 33.5q49 0 82 -33t33 -83t-33 -83t-82 -33q-50 0 -84 33.5t-34 82.5z" />
<glyph unicode="&#xf7;" horiz-adv-x="1021" d="M59 535q0 43 30 73t73 30h696q43 0 73.5 -30t30.5 -73t-30.5 -73.5t-73.5 -30.5h-696q-43 0 -73 30.5t-30 73.5zM372 171q0 58 40.5 98.5t98.5 40.5t98 -40.5t40 -98.5t-40 -98t-98 -40t-98.5 40t-40.5 98zM372 898q0 58 40.5 98.5t98.5 40.5t98 -40.5t40 -98.5 t-40 -98.5t-98 -40.5t-98.5 40.5t-40.5 98.5z" />
<glyph unicode="&#xf8;" horiz-adv-x="1057" d="M71 464q0 234 126 374t343 140q118 0 213 -45l49 76q15 26 48 26q23 0 40 -17t17 -41q0 -17 -9 -31l-50 -78q139 -131 139 -376q0 -235 -125 -375t-343 -140q-120 0 -214 46l-49 -76q-17 -26 -47 -26q-23 0 -40 17.5t-17 41.5q0 16 9 31l50 77q-140 132 -140 376z M337 474q0 -92 16 -164l293 456q-44 44 -117 44q-192 0 -192 -336zM412 188q44 -44 115 -44q193 0 193 334q0 95 -15 167z" />
<glyph unicode="&#xf9;" horiz-adv-x="1096" d="M40 885q0 29 19.5 50.5t48.5 24.5l181 18q43 4 75 -29t32 -79v-485q0 -125 31 -174t118 -49q86 0 150 94v544l-49 7q-29 5 -48.5 27t-19.5 51t19.5 50.5t48.5 24.5l190 18q43 4 75.5 -29t32.5 -79v-716l41 -7q29 -4 48 -27t19 -52q0 -28 -19.5 -49.5t-48.5 -23.5 l-221 -18q-25 -2 -44 19t-19 49v17q-99 -85 -231 -85q-169 0 -244.5 81t-75.5 249v494l-42 6q-29 4 -48 26.5t-19 51.5zM269 1351q0 14 10.5 23.5t27.5 9.5h106q74 0 113 -66l87 -147q8 -13 8 -31q0 -22 -15.5 -36.5t-40.5 -14.5q-96 0 -155 74l-132 162q-9 12 -9 26z" />
<glyph unicode="&#xfa;" horiz-adv-x="1096" d="M41 885q0 29 19.5 50.5t47.5 24.5l181 18q43 4 75.5 -29t32.5 -79v-485q0 -125 30.5 -174t117.5 -49q86 0 150 94v544l-49 7q-29 4 -48 26.5t-19 51.5t19 50.5t48 24.5l190 18q43 4 75.5 -29t32.5 -79v-716l42 -7q29 -5 48 -27.5t19 -51.5q0 -28 -20 -49.5t-48 -23.5 l-221 -18q-25 -2 -44.5 19t-19.5 49v17q-98 -85 -231 -85q-169 0 -244.5 81t-75.5 249v494l-42 6q-29 5 -47.5 27t-18.5 51zM460 1140q0 16 9 31l86 147q39 66 114 66h106q17 0 28 -9.5t11 -23.5q0 -12 -11 -26l-131 -162q-59 -74 -155 -74q-25 0 -41 15t-16 36z" />
<glyph unicode="&#xfb;" horiz-adv-x="1097" d="M41 885q0 29 19.5 50.5t47.5 24.5l182 18q43 4 75.5 -29t32.5 -79v-485q0 -125 30.5 -174t117.5 -49q86 0 150 94v544l-49 7q-29 5 -48.5 27t-19.5 51t19.5 50.5t48.5 24.5l190 18q43 4 75.5 -29t32.5 -79v-716l41 -7q29 -5 48 -27.5t19 -51.5q0 -28 -19.5 -49.5 t-47.5 -23.5l-222 -18q-25 -2 -44.5 19t-19.5 49v17q-98 -85 -231 -85q-169 0 -244 81t-75 249v494l-42 6q-29 5 -48 27t-19 51zM307 1131q0 15 10 29l119 166q41 57 110 57q70 0 110 -56l120 -166q11 -14 11 -30q0 -18 -13 -30t-34 -12q-90 0 -139 74l-53 80l-56 -82 q-50 -72 -138 -72q-21 0 -34 12t-13 30z" />
<glyph unicode="&#xfc;" horiz-adv-x="1096" d="M41 885q0 29 19.5 50.5t47.5 24.5l181 18q43 4 75 -29t32 -79v-485q0 -125 31 -174t118 -49q86 0 150 94v544l-49 7q-29 5 -48.5 27t-19.5 51t19.5 50.5t48.5 24.5l190 18q43 4 75.5 -29t32.5 -79v-716l41 -7q29 -4 48 -27t19 -52q0 -28 -19.5 -49.5t-48.5 -23.5 l-221 -18q-25 -2 -44 19t-19 49v17q-99 -85 -231 -85q-169 0 -244.5 81t-75.5 249v494l-42 6q-29 5 -47.5 27t-18.5 51zM226 1222q0 49 33.5 82.5t83.5 33.5q49 0 82 -33t33 -83t-33 -83.5t-82 -33.5t-83 33.5t-34 83.5zM592 1222q0 49 34 82.5t84 33.5q49 0 82 -33t33 -83 t-33 -83.5t-82 -33.5q-50 0 -84 34t-34 83z" />
<glyph unicode="&#xfd;" horiz-adv-x="1052" d="M2 884q0 29 21.5 50t51.5 21h332q29 0 50.5 -21t21.5 -50q0 -32 -19.5 -56.5t-50.5 -31.5l-24 -5l159 -465l159 465l-23 6q-32 8 -50.5 32t-18.5 55q0 29 21.5 50t50.5 21h295q30 0 51 -21t21 -50q0 -32 -20 -57t-51 -31l-42 -8l-376 -992q-40 -105 -122 -176t-194 -71 q-87 0 -140 41t-53 126v25q0 42 29 72t71 30q41 0 76.5 -21.5t46.5 -50.5l10 -26q18 0 53.5 72t65.5 155l14 38l-296 778l-48 9q-31 6 -51.5 31t-20.5 56zM465 1118q0 15 9 30l86 147q38 65 114 65h106q17 0 27.5 -9.5t10.5 -23.5q0 -13 -10 -26l-131 -161q-59 -74 -156 -74 q-25 0 -40.5 15t-15.5 37z" />
<glyph unicode="&#xff;" horiz-adv-x="1051" d="M2 883q0 30 21 51t51 21h333q30 0 51 -21t21 -50q0 -32 -19.5 -56.5t-50.5 -31.5l-25 -5l160 -465l159 465l-23 6q-32 8 -50.5 32.5t-18.5 54.5q0 29 21.5 50t50.5 21h295q29 0 50.5 -21t21.5 -51q0 -31 -20 -55.5t-51 -31.5l-43 -8l-376 -992q-40 -105 -121.5 -176 t-193.5 -71q-87 0 -140.5 41t-53.5 126v25q0 42 29.5 72t71.5 30q41 0 76.5 -21t46.5 -51l9 -26q19 0 56.5 74t63.5 153l13 38l-296 778l-48 9q-31 6 -51 30.5t-20 55.5zM246 1199q0 49 34.5 82.5t84.5 33.5q49 0 81.5 -33t32.5 -83t-32.5 -83.5t-81.5 -33.5q-50 0 -84.5 34 t-34.5 83zM614 1199q0 49 34 82.5t84 33.5q49 0 82 -33t33 -83t-33 -83.5t-82 -33.5q-50 0 -84 34t-34 83z" />
<glyph unicode="&#x152;" horiz-adv-x="1773" d="M74 611q0 150 38.5 276t112 218t186.5 143.5t255 51.5q104 0 194 -28h713q55 0 94 -39t39 -94v-87q0 -41 -29.5 -71t-70.5 -30q-45 0 -81.5 27t-49.5 70l-8 29h-319v-324h309q42 0 71.5 -30t29.5 -72t-29.5 -71.5t-71.5 -29.5h-309v-355h333l10 38q12 44 47.5 71t80.5 27 q42 0 71.5 -30t29.5 -72v-96q0 -55 -38.5 -94t-93.5 -39h-750q-90 -28 -191 -28q-269 0 -421 175t-152 464zM359 636q0 -213 70.5 -336t221.5 -123q154 0 231 129v667q-74 122 -220 122q-154 0 -228.5 -123t-74.5 -336z" />
<glyph unicode="&#x153;" horiz-adv-x="1598" d="M64 464q0 234 126 374t343 140q196 0 314 -120q115 120 314 120q102 0 178.5 -34t120 -93t64.5 -130t21 -153q0 -49 -35 -82.5t-84 -33.5h-456q3 -135 55.5 -208.5t168.5 -73.5q102 0 198 51q16 9 34 9q30 0 51.5 -24t21.5 -57q0 -64 -107.5 -118t-230.5 -54 q-219 0 -331 118q-121 -118 -318 -118q-208 0 -328 131.5t-120 355.5zM330 474q0 -330 189 -330q193 0 193 334q0 105 -15.5 175t-59 113.5t-116.5 43.5q-191 0 -191 -336zM975 602l308 19q-8 194 -143 194q-78 0 -116.5 -55.5t-48.5 -157.5z" />
<glyph unicode="&#x178;" horiz-adv-x="1194" d="M-2 1187q0 35 25.5 60t60.5 25h358q35 0 60 -25t25 -60q0 -36 -24.5 -64t-60.5 -34l-29 -4l200 -364l201 363l-33 5q-37 7 -61 34.5t-24 63.5q0 35 25.5 60t60.5 25h332q35 0 60 -25t25 -60q0 -38 -23 -66.5t-60 -35.5l-39 -8l-349 -578v-304l62 -9q37 -5 61.5 -33.5 t24.5 -65.5q0 -36 -25.5 -61.5t-60.5 -25.5h-388q-35 0 -60.5 25.5t-25.5 61.5q0 37 24.5 65.5t61.5 33.5l62 9v300l-337 582l-45 8q-37 8 -60.5 36.5t-23.5 65.5zM311 1485q0 49 34 82.5t84 33.5q49 0 81.5 -33t32.5 -83t-32.5 -83.5t-81.5 -33.5q-50 0 -84 34t-34 83z M678 1485q0 49 34 82.5t84 33.5q49 0 82 -33t33 -83t-33 -83.5t-82 -33.5q-50 0 -84 34t-34 83z" />
<glyph unicode="&#x2c6;" horiz-adv-x="581" d="M51 1065q0 16 10 30l118 165q41 57 111 57q71 0 111 -56l120 -166q11 -16 11 -30q0 -18 -13 -30t-34 -12q-90 0 -139 74l-54 80l-55 -81q-48 -73 -139 -73q-21 0 -34 12t-13 30z" />
<glyph unicode="&#x2dc;" horiz-adv-x="651" d="M74 1103q0 79 53 130t100 51q40 0 71.5 -15.5t47 -34t32.5 -34t32 -15.5q14 0 25 14.5t18.5 32.5t25 32.5t42.5 14.5q23 0 40 -16t17 -38q0 -79 -53 -129.5t-100 -50.5q-40 0 -71.5 15.5t-47 34t-32.5 34t-32 15.5q-14 0 -24.5 -14.5t-17.5 -32.5t-25 -32.5t-44 -14.5 q-23 0 -40 15.5t-17 37.5z" />
<glyph unicode="&#x2000;" horiz-adv-x="878" />
<glyph unicode="&#x2001;" horiz-adv-x="1756" />
<glyph unicode="&#x2002;" horiz-adv-x="878" />
<glyph unicode="&#x2003;" horiz-adv-x="1756" />
<glyph unicode="&#x2004;" horiz-adv-x="585" />
<glyph unicode="&#x2005;" horiz-adv-x="439" />
<glyph unicode="&#x2006;" horiz-adv-x="292" />
<glyph unicode="&#x2007;" horiz-adv-x="292" />
<glyph unicode="&#x2008;" horiz-adv-x="219" />
<glyph unicode="&#x2009;" horiz-adv-x="351" />
<glyph unicode="&#x200a;" horiz-adv-x="97" />
<glyph unicode="&#x2010;" horiz-adv-x="697" d="M82 484q0 42 29.5 71.5t71.5 29.5h331q42 0 72 -29.5t30 -71.5t-30 -72t-72 -30h-331q-42 0 -71.5 30t-29.5 72z" />
<glyph unicode="&#x2011;" horiz-adv-x="697" d="M82 484q0 42 29.5 71.5t71.5 29.5h331q42 0 72 -29.5t30 -71.5t-30 -72t-72 -30h-331q-42 0 -71.5 30t-29.5 72z" />
<glyph unicode="&#x2012;" horiz-adv-x="697" d="M82 484q0 42 29.5 71.5t71.5 29.5h331q42 0 72 -29.5t30 -71.5t-30 -72t-72 -30h-331q-42 0 -71.5 30t-29.5 72z" />
<glyph unicode="&#x2013;" horiz-adv-x="1152" d="M82 484q0 39 28 67t68 28h796q40 0 68 -28t28 -67q0 -40 -28 -68t-68 -28h-796q-40 0 -68 28t-28 68z" />
<glyph unicode="&#x2014;" horiz-adv-x="2107" d="M83 484q0 39 27.5 67t67.5 28h1751q40 0 68 -28t28 -67q0 -40 -28 -68t-68 -28h-1751q-40 0 -67.5 28t-27.5 68z" />
<glyph unicode="&#x2018;" horiz-adv-x="448" d="M70 1014q0 76 32 152.5t76.5 129.5t91 86t77.5 33q24 0 41.5 -17t17.5 -41q0 -29 -25 -49q-63 -48 -93.5 -99t-33.5 -116q57 -5 92.5 -44.5t35.5 -99.5q0 -64 -39 -104.5t-102 -40.5q-79 0 -125 61.5t-46 148.5z" />
<glyph unicode="&#x2019;" horiz-adv-x="462" d="M73 862q0 31 25 50q62 49 93 99.5t34 114.5q-57 5 -93 44.5t-36 99.5q0 64 40 104.5t102 40.5q79 0 125 -62t46 -149q0 -76 -32 -152.5t-77 -129t-91.5 -85.5t-77.5 -33q-23 0 -40.5 17t-17.5 41z" />
<glyph unicode="&#x201a;" horiz-adv-x="480" d="M62 -267q0 30 25 49q62 48 93 99.5t34 116.5q-57 5 -93 44t-36 99q0 64 40 104.5t102 40.5q79 0 125 -61.5t46 -148.5q0 -76 -32 -153t-77 -130t-91.5 -86t-77.5 -33q-24 0 -41 17t-17 42z" />
<glyph unicode="&#x201c;" horiz-adv-x="841" d="M70 1014q0 76 32 152.5t76.5 129.5t91 86t77.5 33q24 0 41.5 -17t17.5 -41q0 -30 -24 -49q-63 -49 -94 -100t-34 -115q58 -5 93.5 -44.5t35.5 -99.5q0 -64 -39.5 -104.5t-102.5 -40.5q-79 0 -125 61.5t-46 148.5zM463 1014q0 76 32 152.5t76.5 129.5t91 86t77.5 33 q24 0 41.5 -17t17.5 -41q0 -29 -25 -49q-63 -48 -93.5 -99t-33.5 -116q57 -5 92.5 -44.5t35.5 -99.5q0 -64 -39.5 -104.5t-101.5 -40.5q-80 0 -125.5 61.5t-45.5 148.5z" />
<glyph unicode="&#x201d;" horiz-adv-x="855" d="M74 862q0 32 24 50q123 95 128 214q-57 5 -93 44.5t-36 99.5q0 64 39 104.5t102 40.5q80 0 126 -62t46 -149q0 -76 -32 -152.5t-77 -129t-91.5 -85.5t-77.5 -33q-23 0 -40.5 17t-17.5 41zM467 862q0 31 25 50q62 49 93 99.5t34 114.5q-57 5 -93 44.5t-36 99.5 q0 64 39.5 104.5t102.5 40.5q79 0 124.5 -62t45.5 -149q0 -76 -32 -152.5t-76.5 -129t-91 -85.5t-77.5 -33q-23 0 -40.5 17t-17.5 41z" />
<glyph unicode="&#x201e;" horiz-adv-x="875" d="M63 -267q0 31 24 49q62 48 93 99.5t34 116.5q-57 5 -92.5 44t-35.5 99q0 64 39 104.5t102 40.5q80 0 126 -61.5t46 -148.5q0 -76 -32 -153t-77 -130t-91.5 -86t-77.5 -33q-23 0 -40.5 17t-17.5 42zM456 -267q0 30 25 49q62 48 93 99.5t34 116.5q-57 5 -93 44t-36 99 q0 64 39.5 104.5t102.5 40.5q79 0 124.5 -61.5t45.5 -148.5q0 -76 -32 -153t-76.5 -130t-91 -86t-77.5 -33q-24 0 -41 17t-17 42z" />
<glyph unicode="&#x2022;" horiz-adv-x="661" d="M76 611q0 105 75 179.5t180 74.5q106 0 180 -74.5t74 -179.5q0 -106 -74 -180.5t-180 -74.5q-105 0 -180 74.5t-75 180.5z" />
<glyph unicode="&#x2026;" horiz-adv-x="1792" d="M85 144q0 69 43 112.5t112 43.5t112.5 -44t43.5 -112q0 -69 -43.5 -112.5t-112.5 -43.5t-112 43.5t-43 112.5zM740 144q0 68 43.5 112t112.5 44t112.5 -44t43.5 -112q0 -69 -43.5 -112.5t-112.5 -43.5t-112.5 43.5t-43.5 112.5zM1395 144q0 68 44 112t113 44t112.5 -44 t43.5 -112q0 -69 -43.5 -112.5t-112.5 -43.5t-113 43.5t-44 112.5z" />
<glyph unicode="&#x202f;" horiz-adv-x="351" />
<glyph unicode="&#x2039;" horiz-adv-x="554" d="M65 496q0 46 25 83l139 196q64 91 175 91q27 0 44.5 -16.5t17.5 -40.5q0 -21 -11 -37l-177 -276l177 -275q11 -17 11 -37q0 -24 -17.5 -40t-44.5 -16q-111 0 -175 90l-139 196q-25 35 -25 82z" />
<glyph unicode="&#x203a;" horiz-adv-x="554" d="M87 184q0 16 12 37l178 275l-178 276q-12 18 -12 37q0 24 17.5 40.5t45.5 16.5q111 0 175 -91l139 -196q26 -38 26 -83q0 -44 -26 -82l-139 -196q-64 -90 -175 -90q-28 0 -45.5 16t-17.5 40z" />
<glyph unicode="&#x205f;" horiz-adv-x="439" />
<glyph unicode="&#x20ac;" horiz-adv-x="1104" d="M58 485q0 33 29.5 59t64.5 26h10q-2 46 -2 68q0 15 2 45h-48q-24 0 -40 16t-16 38q0 33 29 59t65 26h25q23 121 78 215t130.5 150t162.5 84.5t183 28.5q53 0 101.5 -9.5t94.5 -31t74 -63t28 -98.5v-59q0 -46 -32.5 -78.5t-78.5 -32.5q-49 0 -89 29.5t-54 76.5l-19 65 q-22 5 -31 5q-96 0 -165 -71.5t-97 -210.5h367q23 0 38.5 -16t15.5 -38q0 -33 -28.5 -59t-64.5 -26h-343q-1 -16 -1 -50q0 -23 2 -63h312q23 0 39 -16t16 -38q0 -33 -28.5 -59t-64.5 -26h-257q56 -244 251 -244q91 0 176 53q20 13 44 13q35 0 58 -28t23 -65q0 -48 -55 -92.5 t-135 -70t-155 -25.5q-202 0 -327 124.5t-167 334.5h-65q-24 0 -40 16t-16 38z" />
<glyph unicode="&#x2122;" horiz-adv-x="1432" d="M55 1212q0 25 17.5 42.5t42.5 17.5h383q25 0 42.5 -17.5t17.5 -42.5t-17.5 -42.5t-42.5 -17.5h-123v-440q0 -28 -20 -48.5t-48 -20.5q-29 0 -49 20.5t-20 48.5v440h-123q-25 0 -42.5 17.5t-17.5 42.5zM642 712v476q0 38 27 65.5t65 27.5q41 0 76 -23.5t50 -62.5l124 -324 l122 325q15 38 49 61.5t75 23.5q38 0 65 -27.5t27 -65.5v-476q0 -28 -20.5 -48.5t-48.5 -20.5q-29 0 -49 20.5t-20 48.5v333h-1l-140 -360q-17 -42 -61 -42q-21 0 -37.5 12t-24.5 31l-140 359h-1v-333q0 -28 -20.5 -48.5t-48.5 -20.5t-48 20.5t-20 48.5z" />
<glyph unicode="&#xe000;" horiz-adv-x="955" d="M0 0v955h955v-955h-955z" />
</font>
</defs>
</svg>
