<?xml version="1.0" encoding="utf-8"?>
<!-- Generator: Adobe Illustrator 16.0.3, SVG Export Plug-In . SVG Version: 6.00 Build 0)  -->
<!DOCTYPE svg PUBLIC "-//W3C//DTD SVG 1.1//EN" "http://www.w3.org/Graphics/SVG/1.1/DTD/svg11.dtd">
<svg version="1.1"
	 id="svg4722" xmlns:inkscape="http://www.inkscape.org/namespaces/inkscape" xmlns:sodipodi="http://sodipodi.sourceforge.net/DTD/sodipodi-0.dtd" xmlns:svg="http://www.w3.org/2000/svg" xmlns:rdf="http://www.w3.org/1999/02/22-rdf-syntax-ns#" xmlns:cc="http://creativecommons.org/ns#" xmlns:dc="http://purl.org/dc/elements/1.1/" inkscape:version="0.48.2 r9819" sodipodi:docname="Neues Dokument 4"
	 xmlns="http://www.w3.org/2000/svg" xmlns:xlink="http://www.w3.org/1999/xlink" x="0px" y="0px" width="400px" height="216px"
	 viewBox="155.437 10.118 400 216" enable-background="new 155.437 10.118 400 216" xml:space="preserve">
<title  id="title5193">DocMorris Logo</title>
<sodipodi:namedview  id="base" showgrid="false" pagecolor="#ffffff" inkscape:cx="-10.227926" inkscape:zoom="1" inkscape:cy="140.7347" bordercolor="#666666" borderopacity="1.0" inkscape:document-units="px" fit-margin-right="5" fit-margin-bottom="5" inkscape:window-maximized="0" inkscape:current-layer="layer1" inkscape:window-y="72" inkscape:window-x="129" inkscape:pageopacity="0.0" inkscape:pageshadow="2" inkscape:window-width="1388" inkscape:window-height="824" fit-margin-top="5" fit-margin-left="5">
	</sodipodi:namedview>
<g id="layer1" transform="translate(-105.22793,-436.86076)" inkscape:label="Ebene 1" inkscape:groupmode="layer">
	<g id="g5157">
		<g id="g3031" transform="matrix(5.037163,0,0,-5.037163,221.25507,619.20677)">
			<path id="path3033" inkscape:connector-curvature="0" d="M24.412,6.549h0.804l0.762-1.8h0.016l0.762,1.8h0.746V2.776h-0.555
				v2.948h-0.011l-0.767-1.847h-0.418l-0.772,1.842h-0.016V2.776h-0.55V6.549z"/>
		</g>
		<g id="g3043" transform="matrix(5.037163,0,0,-5.037163,275.67707,641.46238)">
			<path id="path3045" inkscape:connector-curvature="0" d="M18.863,8.819v0.227c0,0.265-0.121,0.524-0.476,0.524
				c-0.323,0-0.476-0.244-0.476-0.508V8.819H18.863z M17.328,8.141v0.762c0,0.715,0.486,1.101,1.074,1.101
				c0.614,0,1.017-0.376,1.017-1.005V8.412h-1.508V8.146c0-0.391,0.238-0.54,0.603-0.54c0.286,0,0.529,0.111,0.682,0.18l0.154-0.391
				c-0.27-0.201-0.608-0.265-0.937-0.265C17.799,7.13,17.328,7.426,17.328,8.141"/>
		</g>
		<path id="path3047" inkscape:connector-curvature="0" d="M376.415,591.392h2.905v13.834h-2.905V591.392z M376.415,586.217h2.905
			v3.306h-2.905V586.217z"/>
		<g id="g3049" transform="matrix(5.037163,0,0,-5.037163,300.2141,629.84316)">
			<path id="path3051" inkscape:connector-curvature="0" d="M16.361,7.634h0.551V7.2h0.01c0.18,0.354,0.492,0.497,0.837,0.497
				c0.392,0,0.709-0.322,0.709-0.756V4.887h-0.576v1.937c0,0.29-0.122,0.418-0.392,0.418c-0.264,0-0.561-0.259-0.561-0.619V4.887
				h-0.577V7.634z"/>
		</g>
		<g id="g3053" transform="matrix(5.037163,0,0,-5.037163,343.9664,641.46238)">
			<path id="path3055" inkscape:connector-curvature="0" d="M11.9,8.819v0.227c0,0.265-0.122,0.524-0.476,0.524
				c-0.323,0-0.476-0.244-0.476-0.508V8.819H11.9z M10.365,8.141v0.762c0,0.715,0.486,1.101,1.074,1.101
				c0.613,0,1.016-0.376,1.016-1.005V8.412h-1.508V8.146c0-0.391,0.238-0.54,0.603-0.54c0.286,0,0.529,0.111,0.682,0.18l0.154-0.391
				c-0.27-0.201-0.608-0.265-0.937-0.265C10.836,7.13,10.365,7.426,10.365,8.141"/>
		</g>
		<g id="g3057" transform="matrix(5.037163,0,0,-5.037163,365.80199,629.84316)">
			<path id="path3059" inkscape:connector-curvature="0" fill="#94C11C" d="M9.673,7.634h0.55V7.2h0.011
				c0.18,0.354,0.492,0.497,0.836,0.497c0.392,0,0.709-0.322,0.709-0.756V4.887h-0.577v1.937c0,0.29-0.122,0.418-0.392,0.418
				c-0.264,0-0.561-0.259-0.561-0.619V4.887H9.673V7.634z"/>
		</g>
		<g id="g3061" transform="matrix(5.037163,0,0,-5.037163,409.5558,641.46238)">
			<path id="path3063" inkscape:connector-curvature="0" fill="#94C11C" d="M5.212,8.819v0.227c0,0.265-0.122,0.524-0.476,0.524
				c-0.323,0-0.476-0.244-0.476-0.508V8.819H5.212z M3.677,8.141v0.762c0,0.715,0.486,1.101,1.074,1.101
				c0.614,0,1.016-0.376,1.016-1.005V8.412H4.259V8.146c0-0.391,0.238-0.54,0.603-0.54c0.285,0,0.529,0.111,0.682,0.18l0.154-0.391
				C5.429,7.194,5.09,7.13,4.762,7.13C4.148,7.13,3.677,7.426,3.677,8.141"/>
		</g>
		<g id="g3065" transform="matrix(5.037163,0,0,-5.037163,421.13473,651.16194)">
			<path id="path3067" inkscape:connector-curvature="0" fill="#94C11C" d="M4.031,9.808v2.058h0.577V9.961
				c0-0.291,0.09-0.449,0.381-0.449c0.307,0,0.571,0.286,0.571,0.645v1.709h0.577V9.119H5.597L5.581,9.559H5.571
				c-0.116-0.291-0.45-0.503-0.794-0.503C4.385,9.056,4.031,9.315,4.031,9.808"/>
		</g>
		<g id="g3069" transform="matrix(5.037163,0,0,-5.037163,464.9923,641.46238)">
			<path id="path3071" inkscape:connector-curvature="0" fill="#94C11C" d="M-0.441,8.819v0.227c0,0.265-0.122,0.524-0.477,0.524
				c-0.322,0-0.476-0.244-0.476-0.508V8.819H-0.441z M-1.976,8.141v0.762c0,0.715,0.487,1.101,1.074,1.101
				c0.614,0,1.017-0.376,1.017-1.005V8.412h-1.509V8.146c0-0.391,0.238-0.54,0.604-0.54c0.285,0,0.529,0.111,0.682,0.18l0.154-0.391
				C-0.224,7.194-0.563,7.13-0.891,7.13C-1.505,7.13-1.976,7.426-1.976,8.141"/>
		</g>
		<g id="g3073" transform="matrix(5.037163,0,0,-5.037163,504.47156,642.8335)">
			<path id="path3075" inkscape:connector-curvature="0" d="M-4.467,8.958l-0.461,1.672h-0.01l-0.471-1.672H-4.467z M-5.276,11.25
				h0.741l1.111-3.784h-0.624l-0.281,1.011h-1.212l-0.281-1.011h-0.577L-5.276,11.25z"/>
		</g>
		<g id="g3077" transform="matrix(5.037163,0,0,-5.037163,536.6268,649.63064)">
			<path id="path3079" inkscape:connector-curvature="0" d="M-7.746,9.651v1.069c0,0.264-0.105,0.45-0.434,0.45
				c-0.286,0-0.535-0.27-0.535-0.693V9.853c0-0.408,0.291-0.682,0.566-0.682C-7.899,9.171-7.746,9.324-7.746,9.651 M-9.291,11.562
				h0.551v-0.434h0.011c0.179,0.354,0.513,0.503,0.783,0.503c0.529,0,0.778-0.408,0.778-0.868V9.688
				c0-0.529-0.328-0.936-0.847-0.936c-0.254,0-0.572,0.148-0.688,0.418h-0.011V7.868h-0.577V11.562z"/>
		</g>
		<g id="g3081" transform="matrix(5.037163,0,0,-5.037163,564.39315,648.64336)">
			<path id="path3083" inkscape:connector-curvature="0" d="M-10.577,9.551v0.9c0,0.302-0.154,0.529-0.492,0.529
				c-0.344,0-0.482-0.243-0.482-0.551V9.546c0-0.318,0.148-0.534,0.492-0.534C-10.698,9.011-10.577,9.244-10.577,9.551
				 M-12.133,9.561v0.842c0,0.677,0.476,1.026,1.058,1.026c0.592,0,1.08-0.312,1.08-1.011V9.572c0-0.704-0.492-1.016-1.069-1.016
				C-11.657,8.556-12.133,8.863-12.133,9.561"/>
		</g>
		<g id="g3085" transform="matrix(5.037163,0,0,-5.037163,579.36914,652.53054)">
			<path id="path3087" inkscape:connector-curvature="0" d="M-12.104,9.947v1.704h-0.408v0.461h0.408v0.736h0.582v-0.736h0.661
				v-0.461h-0.661v-1.524c0-0.18,0.084-0.276,0.302-0.276c0.105,0,0.206,0.022,0.301,0.048V9.434c-0.18-0.063-0.355-0.09-0.513-0.09
				C-11.76,9.343-12.104,9.466-12.104,9.947"/>
		</g>
		<g id="g3089" transform="matrix(5.037163,0,0,-5.037163,597.46313,619.20668)">
			<path id="path3091" inkscape:connector-curvature="0" d="M-13.949,6.549h0.577V5.12h0.011c0.164,0.317,0.487,0.465,0.81,0.465
				c0.418,0,0.709-0.323,0.709-0.757V2.776h-0.577v1.921c0,0.291-0.101,0.434-0.392,0.434c-0.264,0-0.561-0.259-0.561-0.619V2.776
				h-0.577V6.549z"/>
		</g>
		<g id="g3093" transform="matrix(5.037163,0,0,-5.037163,641.27134,641.46238)">
			<path id="path3095" inkscape:connector-curvature="0" d="M-18.416,8.819v0.227c0,0.265-0.122,0.524-0.476,0.524
				c-0.323,0-0.476-0.244-0.476-0.508V8.819H-18.416z M-19.951,8.141v0.762c0,0.715,0.487,1.101,1.074,1.101
				c0.614,0,1.016-0.376,1.016-1.005V8.412h-1.508V8.146c0-0.391,0.238-0.54,0.603-0.54c0.286,0,0.529,0.111,0.683,0.18l0.154-0.391
				c-0.27-0.201-0.609-0.265-0.937-0.265C-19.48,7.13-19.951,7.426-19.951,8.141"/>
		</g>
		<path id="path3099" inkscape:connector-curvature="0" d="M554.214,586.217h2.905v11.304l4.425-6.13h3.251l-3.545,4.638
			l3.574,9.195h-3.092l-2.614-7.01l-1.999,2.69v4.319h-2.905V586.217L554.214,586.217z"/>
		<g id="g3101" transform="matrix(5.037163,0,0,-5.037163,694.31468,641.46238)">
			<path id="path3103" inkscape:connector-curvature="0" d="M-23.825,8.819v0.227c0,0.265-0.122,0.524-0.476,0.524
				c-0.323,0-0.477-0.244-0.477-0.508V8.819H-23.825z M-25.359,8.141v0.762c0,0.715,0.487,1.101,1.074,1.101
				c0.614,0,1.016-0.376,1.016-1.005V8.412h-1.509V8.146c0-0.391,0.238-0.54,0.604-0.54c0.287,0,0.529,0.111,0.683,0.18l0.153-0.391
				c-0.27-0.201-0.609-0.265-0.937-0.265C-24.888,7.13-25.359,7.426-25.359,8.141"/>
		</g>
	</g>
	<g id="g5136">
		<g id="g3105" transform="matrix(5.037163,0,0,-5.037163,256.58471,566.05252)">
			<path id="path3107" inkscape:connector-curvature="0" fill="#94C11C" d="M20.81,1.129c-1.128,0-1.599,0.355-1.599,1.418
				c0,1.064,0.471,1.419,1.599,1.419s1.599-0.355,1.599-1.419C22.409,1.484,21.938,1.129,20.81,1.129 M20.81,5.386
				c-2.542,0-3.484-0.711-3.484-2.838c0-2.127,0.943-2.839,3.484-2.839c2.542,0,3.484,0.711,3.484,2.839
				C24.294,4.675,23.352,5.386,20.81,5.386"/>
		</g>
		<path id="path3111" inkscape:connector-curvature="0" d="M589.146,565.767v-25.092c0-0.752-0.607-1.362-1.359-1.362h-6.779
			c-0.749,0-1.359,0.61-1.359,1.362v25.092c0,0.752,0.607,1.359,1.357,1.359h6.784C588.538,567.126,589.146,566.519,589.146,565.767
			"/>
		<g id="g3113" transform="matrix(5.037163,0,0,-5.037163,738.93387,482.42)">
			<path id="path3115" inkscape:connector-curvature="0" fill="#94C11C" d="M-28.375-7.399c0-0.149-0.121-0.27-0.27-0.27h-1.043
				c-0.099-0.001-0.178-0.081-0.178-0.18v-1.041c0-0.149-0.121-0.27-0.27-0.27h-1.087c-0.149,0-0.27,0.121-0.27,0.27v1.041
				c0,0.099-0.079,0.179-0.178,0.18h-1.043c-0.149,0-0.27,0.121-0.27,0.27v1.088c0,0.149,0.121,0.27,0.27,0.27h1.042
				c0.098,0.001,0.178,0.081,0.178,0.18v1.041c0,0.149,0.121,0.27,0.27,0.27h1.087c0.149,0,0.27-0.121,0.27-0.27v-1.041
				c0-0.099,0.08-0.179,0.179-0.18h1.042c0.149,0,0.27-0.121,0.27-0.27V-7.399z M-28.048-4.965h-0.655c-0.05,0-0.09,0.04-0.09,0.09
				v0.649c0,0.411-0.333,0.744-0.743,0.744h-2.285c-0.411,0-0.743-0.333-0.743-0.744v-0.649c0-0.05-0.04-0.09-0.09-0.09h-0.655
				c-0.411-0.001-0.742-0.334-0.742-0.744V-8c0-0.411,0.333-0.744,0.744-0.744h0.654c0.05,0,0.09-0.04,0.09-0.09v-0.653
				c0.002-0.409,0.334-0.74,0.743-0.74h2.285c0.409,0,0.741,0.331,0.743,0.74v0.653c0,0.05,0.04,0.09,0.09,0.09h0.654
				c0.41,0,0.743,0.333,0.743,0.744v2.291C-27.307-5.299-27.639-4.966-28.048-4.965"/>
		</g>
		<g id="g3117" transform="matrix(5.037163,0,0,-5.037163,169.39948,561.65307)">
			<path id="path3119" inkscape:connector-curvature="0" fill="#94C11C" d="M29.7,0.681h-3.534v4.226H29.7
				c0.681,0,1.715-0.193,1.707-2.113C31.399,0.873,30.381,0.681,29.7,0.681 M29.855,6.674h-5.599c-0.149,0-0.27-0.121-0.27-0.27
				v-7.22c0-0.149,0.121-0.27,0.27-0.27h5.599c1.388,0,3.644,0.269,3.654,3.88C33.518,6.405,31.243,6.674,29.855,6.674"/>
		</g>
		<g id="g3121" transform="matrix(5.037163,0,0,-5.037163,366.38278,577.15947)">
			<path id="path3123" inkscape:connector-curvature="0" fill="#94C11C" d="M9.614,2.262v0.933c0,0.149-0.121,0.269-0.27,0.269
				H6.805c-0.438,0-1.188,0-1.188,1.288c0,1.347,0.739,1.347,1.188,1.347h2.462c0.149,0,0.27,0.121,0.27,0.27v0.873
				c0,0.149-0.121,0.27-0.27,0.27H6.615c-0.95,0-2.884,0-2.884-2.761c0-2.761,1.934-2.761,2.884-2.761h2.729
				C9.493,1.991,9.614,2.112,9.614,2.262"/>
		</g>
		<g id="g3125" transform="matrix(5.037163,0,0,-5.037163,793.22089,544.2406)">
			<path id="path3127" inkscape:connector-curvature="0" d="M-33.91-1.095h-3.006c-0.177,0-0.417,0-0.417,0.329
				c0,0.33,0.24,0.33,0.417,0.33c0.998,0,3.857,0,3.857,0c0.148,0.002,0.266,0.122,0.266,0.27v0.874c0,0.149-0.121,0.27-0.27,0.27
				h-4.278c-0.957,0-1.726-0.776-1.726-1.734c0-0.958,0.769-1.676,1.726-1.676h3.036c0.125,0,0.427,0,0.427-0.349
				c0-0.349-0.301-0.349-0.427-0.349h-4.414c-0.149,0-0.27-0.12-0.27-0.27v-0.873c0-0.149,0.121-0.27,0.27-0.27h4.81
				c0.958,0,1.727,0.776,1.727,1.733C-32.184-1.852-32.953-1.095-33.91-1.095"/>
		</g>
		<g id="g3129" transform="matrix(5.037163,0,0,-5.037163,600.14593,577.15947)">
			<path id="path3131" inkscape:connector-curvature="0" d="M-14.222,2.262c0-0.149,0.121-0.27,0.27-0.27h1.345
				c0.149,0,0.27,0.121,0.27,0.27c0,0,0,1.79,0,2.413c0,1.064,0.471,1.418,1.599,1.418h0.446c0.149,0,0.27,0.121,0.27,0.27v0.87
				c0,0.149-0.121,0.27-0.27,0.27c-0.001,0-0.282,0.01-0.446,0.01c-2.542,0-3.484-0.711-3.484-2.838V2.262z"/>
		</g>
		<g id="g3133" transform="matrix(5.037163,0,0,-5.037163,650.73667,577.15947)">
			<path id="path3135" inkscape:connector-curvature="0" d="M-19.381,2.262c0-0.149,0.121-0.27,0.27-0.27h1.345
				c0.149,0,0.27,0.121,0.27,0.27v2.413c0.001,1.064,0.472,1.418,1.599,1.418h0.446c0.149,0,0.27,0.121,0.27,0.27v0.87
				c0,0.149-0.121,0.27-0.27,0.27c-0.002,0-0.282,0.01-0.446,0.01c-2.542,0-3.484-0.711-3.484-2.838V2.262z"/>
		</g>
		<g id="g3137" transform="matrix(5.037163,0,0,-5.037163,550.9127,566.05252)">
			<path id="path3139" inkscape:connector-curvature="0" d="M-9.202,1.129c-1.127,0-1.599,0.355-1.599,1.418
				c0,1.064,0.472,1.419,1.599,1.419c1.128,0,1.599-0.355,1.599-1.419C-7.603,1.484-8.074,1.129-9.202,1.129 M-9.202,5.386
				c-2.542,0-3.484-0.711-3.484-2.838c0-2.127,0.943-2.839,3.484-2.839c2.542,0,3.484,0.711,3.484,2.839
				C-5.718,4.675-6.661,5.386-9.202,5.386"/>
		</g>
		<g id="g3141" transform="matrix(5.037163,0,0,-5.037163,448.31778,579.9556)">
			<path id="path3143" inkscape:connector-curvature="0" d="M1.259,2.547c0.102,0,0.19,0.056,0.236,0.139
				c0,0,2.07,4.223,2.779,5.621c0.003,0.005,0.009,0.017,0.014,0.018c0.006,0.001,0.014,0,0.014-0.018v-5.49
				c0-0.149,0.121-0.27,0.27-0.27h1.465c0.149,0,0.269,0.121,0.269,0.27v7.221c0,0.149-0.121,0.27-0.27,0.27H3.392
				c-0.103,0-0.192-0.057-0.238-0.142c0,0-2.445-4.512-2.465-4.549c-0.02,0.038-2.465,4.549-2.465,4.549
				c-0.046,0.085-0.135,0.142-0.238,0.142H-4.66c-0.149,0-0.27-0.121-0.27-0.27V2.817c0-0.149,0.12-0.269,0.269-0.27h1.466
				c0.149,0,0.27,0.121,0.27,0.27v5.49c0,0.018,0.009,0.019,0.014,0.018C-2.906,8.323-2.9,8.312-2.897,8.307
				c0.709-1.398,2.779-5.621,2.779-5.621c0.046-0.083,0.134-0.139,0.236-0.139H1.259z"/>
		</g>
	</g>
</g>
</svg>
