<?xml version="1.0" encoding="utf-8"?>
<!-- Generator: Adobe Illustrator 16.0.3, SVG Export Plug-In . SVG Version: 6.00 Build 0)  -->
<!DOCTYPE svg PUBLIC "-//W3C//DTD SVG 1.1//EN" "http://www.w3.org/Graphics/SVG/1.1/DTD/svg11.dtd">
<svg version="1.1" id="Ebene_1" xmlns="http://www.w3.org/2000/svg" xmlns:xlink="http://www.w3.org/1999/xlink" x="0px" y="0px"
	 width="400px" height="216px" viewBox="0 0 400 216" enable-background="new 0 0 400 216" xml:space="preserve">
<g>
	<path fill-rule="evenodd" clip-rule="evenodd" fill="#4C4D4F" d="M357.238,130.993c0-1.933,0.007-3.865-0.008-5.798
		c-0.001-0.311,0.083-0.395,0.393-0.393c0.706,0.005,1.416,0.067,2.116-0.083c0.699-0.149,0.975-0.509,0.894-1.226
		c-0.183-1.611-0.494-3.202-0.803-4.791c-1.218-6.257-2.438-12.512-3.664-18.766c-0.409-2.08-0.833-4.158-1.27-6.232
		c-0.063-0.299,0.01-0.343,0.284-0.343c2.699,0.008,5.398,0.009,8.097-0.002c0.273-0.001,0.345,0.087,0.369,0.342
		c0.216,2.214,0.446,4.427,0.67,6.641c0.288,2.844,0.573,5.687,0.857,8.532c0.19,1.891,0.374,3.782,0.563,5.673
		c0.021,0.216,0.055,0.43,0.158,0.646c0.091-0.879,0.186-1.757,0.275-2.636c0.317-3.167,0.635-6.333,0.95-9.501
		c0.307-3.079,0.617-6.158,0.907-9.238c0.033-0.36,0.139-0.462,0.498-0.46c2.522,0.017,5.044,0.017,7.565,0
		c0.366-0.002,0.405,0.104,0.344,0.422c-1.024,5.29-2.043,10.58-3.059,15.871c-0.958,4.987-1.91,9.977-2.867,14.965
		c-0.235,1.226-0.695,2.361-1.358,3.424c-1.082,1.732-2.688,2.581-4.652,2.86c-0.094,0.014-0.214-0.037-0.271,0.094
		C361.898,130.993,359.568,130.993,357.238,130.993z"/>
	<path fill-rule="evenodd" clip-rule="evenodd" fill="#231F20" d="M87.746,85.424c0.006,1.739,0.006,3.479,0.026,5.219
		c0.003,0.256-0.115,0.292-0.308,0.3c-0.368,0.017-0.734,0.034-1.095,0.122c-0.739,0.181-1.023,0.498-1.064,1.25
		c-0.02,0.368,0.008,0.738-0.008,1.105c-0.01,0.231,0.066,0.309,0.301,0.304c0.619-0.014,1.239,0.008,1.857-0.01
		c0.257-0.008,0.315,0.078,0.314,0.322c-0.01,1.829-0.011,3.657,0.002,5.486c0.001,0.277-0.074,0.351-0.344,0.339
		c-0.515-0.022-1.032,0.001-1.548-0.01c-0.206-0.005-0.305,0.055-0.285,0.272c0.01,0.117,0.001,0.236,0.001,0.354
		c0,8.098-0.003,16.192,0.01,24.289c0,0.413-0.116,0.499-0.509,0.497c-2.536-0.018-5.073-0.018-7.609,0
		c-0.371,0.002-0.455-0.093-0.454-0.458c0.011-8.141,0.005-16.281,0.018-24.422c0-0.411-0.071-0.584-0.52-0.538
		c-0.423,0.044-0.854,0-1.282,0.014c-0.212,0.007-0.276-0.064-0.276-0.276c0.007-1.858,0.008-3.716-0.001-5.575
		c-0.001-0.238,0.079-0.301,0.304-0.293c0.442,0.015,0.886-0.015,1.327,0.012c0.335,0.02,0.454-0.064,0.449-0.43
		c-0.016-1.193,0.048-2.384,0.168-3.573c0.245-2.409,1.407-3.681,3.793-4.142c0.451-0.086,0.925-0.052,1.353-0.255
		c0.147,0,0.295,0,0.443,0c0.177,0.072,0.354,0.072,0.53,0c0.974,0,1.947,0,2.921,0c0.337,0.101,0.684,0.016,1.024,0.046
		C87.438,85.388,87.601,85.325,87.746,85.424z"/>
	<path fill-rule="evenodd" clip-rule="evenodd" fill="#231F20" d="M23.427,99.665c0.152-0.22,0.346-0.386,0.583-0.517
		c7.438-4.118,14.874-8.238,22.31-12.358c0.816-0.453,1.112-0.371,1.558,0.433c1.647,2.972,3.293,5.945,4.94,8.917
		c0.056,0.102,0.109,0.205,0.188,0.354c-0.808,0.145-1.586,0.292-2.366,0.424c-0.736,0.125-0.737,0.118-1.097-0.529
		c-0.971-1.749-1.942-3.496-2.914-5.244c-0.354-0.635-0.66-0.726-1.29-0.376c-5.737,3.18-11.475,6.36-17.212,9.542
		c-0.692,0.384-0.778,0.672-0.402,1.349c2.154,3.885,4.309,7.77,6.464,11.654c0.369,0.666,0.667,0.752,1.319,0.393
		c0.476-0.263,0.953-0.524,1.431-0.784c0.024-0.013,0.058-0.01,0.103-0.016c0.179,0.983,0.355,1.969,0.538,2.951
		c0.032,0.172-0.023,0.266-0.176,0.35c-1.058,0.578-2.105,1.176-3.167,1.747c-0.501,0.271-0.887,0.115-1.193-0.438
		c-2.796-5.042-5.589-10.085-8.384-15.127c-0.406-0.732-0.82-1.461-1.231-2.192C23.427,100.018,23.427,99.841,23.427,99.665z"/>
	<path fill-rule="evenodd" clip-rule="evenodd" fill="#A4A5A6" d="M337.326,85.328c-0.009,0.035-0.018,0.07-0.025,0.105
		c-0.159,0.139-0.357,0.125-0.546,0.125c-2.474,0.005-4.949,0.003-7.423,0c-0.205,0-0.417,0.013-0.587-0.14
		c-0.001-0.031-0.002-0.061-0.003-0.091C331.604,85.328,334.465,85.328,337.326,85.328z"/>
	<path fill-rule="evenodd" clip-rule="evenodd" fill="#646262" d="M87.746,85.424c-0.494-0.06-1,0.089-1.485-0.096
		c0.501,0,1.002,0,1.504,0C87.758,85.36,87.751,85.392,87.746,85.424z"/>
	<path fill-rule="evenodd" clip-rule="evenodd" fill="#545051" d="M83.339,85.328c-0.177,0.127-0.354,0.146-0.53,0
		C82.986,85.328,83.163,85.328,83.339,85.328z"/>
	<path fill-rule="evenodd" clip-rule="evenodd" fill="#4C4D4F" d="M211.315,97.157c0.377-0.534,0.756-1.067,1.127-1.604
		c0.918-1.324,2.046-2.352,3.697-2.656c1.395-0.258,2.783-0.246,4.166,0.074c1.258,0.292,2.124,1.094,2.777,2.165
		c0.384,0.629,0.673,1.303,0.935,2.072c0.291-0.449,0.549-0.853,0.813-1.253c0.633-0.963,1.263-1.916,2.333-2.48
		c1.315-0.695,2.723-0.792,4.165-0.732c1.34,0.056,2.606,0.353,3.653,1.239c1.295,1.097,1.886,2.562,2.071,4.212
		c0.039,0.351,0.045,0.706,0.045,1.06c0.002,8.494-0.002,16.988,0.012,25.482c0.001,0.43-0.106,0.532-0.53,0.528
		c-2.521-0.021-5.044-0.021-7.566,0c-0.406,0.004-0.473-0.118-0.472-0.491c0.011-7.152,0.009-14.305,0.007-21.456
		c0-0.608-0.067-1.207-0.303-1.774c-0.314-0.759-0.891-1.148-1.712-1.171c-0.822-0.023-1.411,0.333-1.757,1.085
		c-0.326,0.709-0.445,1.461-0.445,2.234c-0.003,7.02-0.005,14.039,0.007,21.059c0,0.386-0.072,0.518-0.494,0.514
		c-2.536-0.022-5.073-0.021-7.609,0c-0.422,0.004-0.497-0.128-0.497-0.516c0.012-7.139,0.007-14.275,0.01-21.414
		c0-0.608-0.053-1.206-0.284-1.776c-0.317-0.776-0.909-1.177-1.743-1.188c-0.838-0.01-1.444,0.346-1.775,1.13
		c-0.272,0.646-0.39,1.32-0.39,2.022c0.005,7.064-0.003,14.128,0.015,21.192c0.001,0.454-0.117,0.552-0.556,0.548
		c-2.522-0.022-5.044-0.018-7.566-0.002c-0.349,0.001-0.47-0.058-0.47-0.446c0.014-10.337,0.012-20.675,0.004-31.012
		c0-0.325,0.053-0.451,0.422-0.448c2.463,0.019,4.926,0.019,7.388,0c0.384-0.003,0.458,0.115,0.449,0.47
		c-0.022,1.099-0.009,2.198-0.009,3.298C211.261,97.135,211.288,97.146,211.315,97.157z"/>
	<path fill-rule="evenodd" clip-rule="evenodd" fill="#4C4D4F" d="M262.149,97.174c0.443-0.667,0.884-1.31,1.304-1.964
		c0.985-1.532,2.438-2.261,4.201-2.433c1.148-0.112,2.299-0.104,3.424,0.193c2.242,0.591,3.41,2.171,3.944,4.325
		c0.19,0.765,0.216,1.545,0.217,2.326c0.005,8.376,0,16.752,0.011,25.128c0,0.39-0.079,0.519-0.498,0.515
		c-2.537-0.021-5.073-0.019-7.61-0.001c-0.368,0.002-0.459-0.091-0.459-0.46c0.012-7.093,0.011-14.187,0.005-21.279
		c0-0.737-0.056-1.471-0.4-2.151c-0.362-0.713-0.962-1.004-1.73-1c-0.746,0.005-1.296,0.336-1.623,1.015
		c-0.347,0.718-0.477,1.479-0.477,2.271c0.001,7.034-0.003,14.068,0.011,21.103c0.001,0.405-0.104,0.505-0.505,0.501
		c-2.506-0.02-5.013-0.021-7.521,0c-0.439,0.004-0.583-0.08-0.582-0.558c0.019-7.139,0.013-14.276,0.015-21.414
		c0-0.564-0.061-1.117-0.262-1.648c-0.324-0.852-0.923-1.27-1.816-1.272c-0.87-0.002-1.451,0.402-1.785,1.251
		c-0.292,0.738-0.371,1.513-0.371,2.297c-0.002,6.947-0.005,13.892,0.009,20.837c0,0.399-0.096,0.51-0.503,0.506
		c-2.536-0.02-5.073-0.018-7.609,0c-0.359,0.001-0.429-0.108-0.429-0.444c0.01-10.337,0.008-20.675,0.001-31.013
		c0-0.325,0.053-0.452,0.422-0.449c2.479,0.018,4.956,0.018,7.434,0c0.347-0.002,0.407,0.106,0.402,0.422
		c-0.019,1.116-0.007,2.232-0.007,3.486c0.438-0.626,0.798-1.152,1.171-1.668c0.749-1.036,1.561-2.005,2.831-2.436
		c1.787-0.607,3.593-0.596,5.39-0.087c1.473,0.417,2.255,1.581,2.888,2.865C261.832,96.329,261.974,96.745,262.149,97.174z"/>
	<path fill-rule="evenodd" clip-rule="evenodd" fill="#4C4D4F" d="M312.145,96.764c0.341-0.459,0.702-0.905,1.018-1.38
		c1.257-1.891,3.067-2.665,5.277-2.664c0.826,0,1.647,0.042,2.448,0.278c2.221,0.655,3.285,2.301,3.774,4.428
		c0.146,0.632,0.188,1.28,0.188,1.931c-0.003,8.45-0.005,16.899,0.007,25.349c0.001,0.419-0.063,0.567-0.534,0.562
		c-2.521-0.029-5.043-0.021-7.564-0.004c-0.381,0.002-0.49-0.081-0.49-0.48c0.015-7.196,0.011-14.392,0.012-21.588
		c0-0.563-0.027-1.121-0.226-1.655c-0.279-0.754-0.845-1.154-1.649-1.168c-0.839-0.015-1.441,0.356-1.755,1.089
		c-0.292,0.682-0.293,1.406-0.293,2.129c-0.001,7.034-0.006,14.068,0.011,21.102c0.001,0.464-0.118,0.577-0.576,0.572
		c-2.521-0.022-5.043-0.016-7.564-0.005c-0.32,0.002-0.451-0.045-0.449-0.419c0.012-10.352,0.009-20.703,0.003-31.055
		c-0.001-0.304,0.037-0.432,0.395-0.429c2.493,0.018,4.984,0.016,7.477,0.001c0.338-0.002,0.419,0.095,0.413,0.42
		c-0.022,0.983-0.008,1.968-0.008,2.952C312.086,96.742,312.115,96.753,312.145,96.764z"/>
	<path fill-rule="evenodd" clip-rule="evenodd" fill="#4C4D4F" d="M291.622,121.747c-0.404,0.537-0.737,0.975-1.063,1.418
		c-0.711,0.968-1.561,1.771-2.708,2.192c-1.746,0.642-3.531,0.739-5.277,0.089c-2.206-0.819-3.262-2.587-3.654-4.819
		c-0.085-0.48-0.092-0.967-0.092-1.453c0.002-8.436,0.005-16.872-0.008-25.308c0-0.389,0.079-0.514,0.496-0.51
		c2.536,0.022,5.072,0.02,7.609,0.001c0.392-0.003,0.483,0.098,0.482,0.486c-0.012,7.241-0.007,14.482-0.012,21.724
		c0,0.602,0.116,1.168,0.389,1.702c0.342,0.671,0.887,1.011,1.642,0.975c0.766-0.037,1.311-0.409,1.603-1.121
		c0.215-0.524,0.281-1.078,0.281-1.644c-0.004-7.197,0.001-14.394-0.013-21.591c-0.001-0.414,0.078-0.538,0.518-0.534
		c2.552,0.024,5.104,0.019,7.654,0.004c0.334-0.002,0.415,0.087,0.415,0.417c-0.01,10.353-0.009,20.706-0.001,31.059
		c0.001,0.315-0.057,0.43-0.404,0.428c-2.493-0.016-4.985-0.015-7.478-0.001c-0.316,0.001-0.393-0.099-0.387-0.399
		C291.633,123.864,291.622,122.867,291.622,121.747z"/>
	<path fill-rule="evenodd" clip-rule="evenodd" fill="#4C4D4F" d="M154.123,109.246c0-2.625-0.004-5.25,0.001-7.875
		c0.007-4.05,1.916-6.766,5.783-7.96c3.414-1.054,6.877-1.05,10.23,0.252c3.142,1.221,4.709,3.684,4.973,7
		c0.11,1.397,0.02,2.801,0.044,4.201c0.004,0.227-0.064,0.306-0.298,0.305c-2.655-0.006-5.31-0.009-7.965,0.002
		c-0.29,0.001-0.291-0.137-0.294-0.351c-0.019-1.532,0.057-3.066-0.063-4.597c-0.079-1.009-0.483-1.507-1.358-1.616
		c-1.232-0.152-2.033,0.243-2.344,1.169c-0.123,0.366-0.161,0.747-0.161,1.133c0.001,5.575,0.001,11.15,0,16.726
		c0,0.401,0.054,0.79,0.212,1.164c0.384,0.9,1.104,1.324,2.077,1.209c0.892-0.104,1.413-0.648,1.584-1.633
		c0.054-0.308,0.054-0.615,0.054-0.925c0.001-1.77,0.007-3.539-0.006-5.31c-0.002-0.319,0.044-0.454,0.419-0.45
		c2.596,0.019,5.192,0.017,7.788,0.001c0.339-0.002,0.409,0.094,0.406,0.416c-0.017,1.593-0.008,3.186-0.008,4.779
		c0,4.449-2.25,7.4-6.58,8.475c-3.221,0.8-6.437,0.759-9.536-0.558c-3.308-1.404-4.932-3.972-4.957-7.548
		C154.108,114.586,154.123,111.916,154.123,109.246z"/>
	<path fill-rule="evenodd" clip-rule="evenodd" fill="#231F20" d="M41.305,118.793c-0.56,0-0.884-0.277-0.976-0.795
		C39.972,116,39.62,114,39.268,112.001c-0.543-3.087-1.086-6.173-1.629-9.259c-0.025-0.145-0.057-0.289-0.076-0.434
		c-0.08-0.635,0.198-1.018,0.829-1.128c3.391-0.596,6.783-1.188,10.173-1.785c4.086-0.718,8.172-1.438,12.258-2.157
		c0.131-0.023,0.261-0.044,0.393-0.064c0.718-0.111,1.083,0.144,1.212,0.862c0.275,1.535,0.542,3.071,0.813,4.607
		c0.638,3.623,1.274,7.247,1.915,10.869c0.125,0.707-0.12,1.097-0.839,1.226c-3.447,0.616-6.896,1.223-10.345,1.831
		c-4.086,0.721-8.172,1.44-12.258,2.159C41.552,118.757,41.392,118.779,41.305,118.793z"/>
	<path fill-rule="evenodd" clip-rule="evenodd" fill="#4C4D4F" d="M342.562,110.446c0-3.376-0.005-6.754,0.008-10.131
		c0.002-0.358-0.075-0.497-0.455-0.468c-0.454,0.035-0.914-0.004-1.37,0.013c-0.245,0.01-0.328-0.06-0.325-0.316
		c0.009-1.844,0.009-3.687,0-5.53c-0.002-0.234,0.069-0.305,0.3-0.298c0.486,0.016,0.974-0.014,1.459,0.012
		c0.316,0.017,0.394-0.092,0.391-0.397c-0.013-2.02,0.009-4.041-0.019-6.061c-0.005-0.445,0.13-0.525,0.542-0.522
		c2.536,0.02,5.073,0.017,7.609,0.002c0.346-0.002,0.441,0.084,0.438,0.436c-0.017,2.035,0,4.07-0.016,6.105
		c-0.004,0.346,0.082,0.462,0.435,0.438c0.47-0.032,0.944,0.004,1.415-0.013c0.233-0.007,0.302,0.068,0.3,0.301
		c-0.008,1.843-0.009,3.687,0.002,5.53c0.002,0.264-0.093,0.321-0.333,0.313c-0.484-0.015-0.973,0.008-1.459-0.01
		c-0.256-0.009-0.358,0.042-0.358,0.333c0.009,5.811,0.006,11.621,0.01,17.432c0,0.19,0.034,0.383,0.068,0.57
		c0.155,0.862,0.484,1.155,1.357,1.215c0.824,0.056,0.824,0.056,0.824,0.886c0,1.741-0.007,3.481,0.006,5.222
		c0.003,0.307-0.082,0.402-0.396,0.398c-1.827-0.023-3.656,0.01-5.483-0.046c-1.403-0.045-2.717-0.396-3.667-1.55
		c-0.935-1.135-1.273-2.475-1.278-3.909C342.554,117.084,342.562,113.765,342.562,110.446z"/>
	<path fill-rule="evenodd" clip-rule="evenodd" fill="#231F20" d="M115.907,110.573c0-3.422-0.005-6.843,0.009-10.265
		c0.002-0.362-0.075-0.491-0.454-0.461c-0.454,0.037-0.914-0.003-1.371,0.013c-0.238,0.008-0.331-0.047-0.329-0.31
		c0.011-1.843,0.011-3.688,0-5.531c-0.002-0.273,0.105-0.311,0.335-0.304c0.442,0.015,0.889-0.029,1.327,0.014
		c0.43,0.043,0.495-0.132,0.491-0.513c-0.018-2.005-0.002-4.011-0.015-6.017c-0.001-0.316,0.039-0.455,0.417-0.452
		c2.565,0.02,5.132,0.018,7.698,0.002c0.356-0.002,0.439,0.102,0.437,0.443c-0.015,2.006,0.008,4.013-0.019,6.018
		c-0.006,0.443,0.126,0.552,0.541,0.518c0.454-0.038,0.915,0.002,1.371-0.013c0.213-0.006,0.274,0.061,0.273,0.273
		c-0.008,1.858-0.008,3.716,0,5.575c0.001,0.231-0.06,0.307-0.294,0.297c-0.427-0.019-0.856-0.005-1.283-0.005
		c-0.596,0-0.596,0-0.596,0.575c0,2.035,0,4.071,0,6.106c0,3.452-0.002,6.902,0.002,10.353c0,0.368,0.015,0.737,0.05,1.104
		c0.094,0.981,0.491,1.356,1.467,1.411c0.739,0.041,0.739,0.041,0.739,0.769c0,1.785-0.004,3.569,0.004,5.354
		c0.001,0.259-0.025,0.389-0.345,0.384c-1.813-0.026-3.626-0.025-5.439-0.037c-0.533-0.004-1.057-0.095-1.57-0.23
		c-2.062-0.547-2.98-2.057-3.354-4.015c-0.083-0.435-0.094-0.877-0.094-1.32C115.909,117.063,115.907,113.817,115.907,110.573z"/>
	<path fill-rule="evenodd" clip-rule="evenodd" fill="#4C4D4F" d="M328.728,109.263c0-5.146,0.005-10.292-0.009-15.439
		c0-0.358,0.073-0.469,0.452-0.466c2.565,0.018,5.133,0.018,7.697,0c0.38-0.003,0.452,0.116,0.452,0.472
		c-0.01,10.323-0.01,20.645,0,30.968c0,0.362-0.087,0.467-0.457,0.465c-2.565-0.017-5.132-0.019-7.697,0.001
		c-0.391,0.004-0.447-0.125-0.446-0.472C328.73,119.614,328.728,114.438,328.728,109.263z"/>
	<path fill-rule="evenodd" clip-rule="evenodd" fill="#4C4D4F" d="M328.745,85.419c2.852,0.005,5.704,0.009,8.556,0.014
		c0.004,1.829,0.004,3.657,0.016,5.485c0.001,0.249-0.07,0.329-0.324,0.329c-2.654-0.008-5.309-0.008-7.964-0.001
		c-0.227,0-0.306-0.064-0.305-0.298C328.737,89.105,328.739,87.262,328.745,85.419z"/>
	<path fill-rule="evenodd" clip-rule="evenodd" fill="#231F20" d="M111.305,109.325c0,2.757,0.043,5.514-0.01,8.27
		c-0.074,3.789-2.03,6.447-5.648,7.552c-3.6,1.099-7.22,1.067-10.712-0.443c-2.885-1.249-4.362-3.569-4.604-6.682
		c-0.104-1.324-0.038-2.652-0.04-3.979c-0.007-4.231-0.013-8.462,0.002-12.693c0.006-2.048,0.544-3.926,1.924-5.499
		c1.251-1.426,2.862-2.243,4.675-2.672c2.986-0.708,5.961-0.665,8.883,0.32c3.556,1.199,5.529,4.051,5.542,7.954
		c0.01,2.625,0.002,5.249,0.002,7.873C111.314,109.325,111.31,109.325,111.305,109.325z M98.825,117.493
		c-0.001,0.369,0.021,0.737,0.101,1.098c0.199,0.896,0.834,1.406,1.765,1.428c1.092,0.025,1.688-0.385,1.956-1.337
		c0.101-0.358,0.116-0.726,0.116-1.095c0-5.513,0.001-11.026-0.001-16.54c0-0.264-0.014-0.53-0.047-0.792
		c-0.127-1.001-0.746-1.601-1.697-1.661c-1.135-0.072-1.831,0.375-2.077,1.352c-0.094,0.373-0.117,0.755-0.116,1.14
		c0.003,2.742,0.001,5.483,0.001,8.227C98.827,112.039,98.829,114.767,98.825,117.493z"/>
	<path fill-rule="evenodd" clip-rule="evenodd" fill="#231F20" d="M129.138,109.294c0-2.579-0.006-5.159,0.002-7.74
		c0.005-1.754,0.343-3.422,1.339-4.909c1.266-1.89,3.093-2.952,5.255-3.457c3.367-0.786,6.703-0.725,9.897,0.729
		c2.582,1.176,4.033,3.248,4.444,6.054c0.081,0.557,0.094,1.114,0.094,1.675c0,5.249,0.013,10.498-0.007,15.747
		c-0.009,2.346-0.693,4.442-2.512,6.043c-1.198,1.053-2.619,1.683-4.168,2.009c-3.148,0.663-6.273,0.632-9.296-0.57
		c-3.184-1.266-4.864-3.699-4.997-7.091c-0.109-2.825-0.022-5.659-0.022-8.49C129.157,109.294,129.148,109.294,129.138,109.294z
		 M141.641,101.153c0-0.337-0.024-0.679-0.082-1.011c-0.173-1-0.82-1.537-1.837-1.554c-1.061-0.019-1.728,0.465-1.934,1.429
		c-0.062,0.286-0.092,0.584-0.092,0.876c-0.005,5.617-0.003,11.233-0.003,16.85c0,0.385,0.052,0.767,0.18,1.128
		c0.286,0.807,0.94,1.181,1.977,1.147c0.824-0.026,1.401-0.461,1.634-1.238c0.128-0.427,0.161-0.866,0.162-1.309
		c0.001-2.728,0-5.455,0-8.183C141.645,106.577,141.647,103.865,141.641,101.153z"/>
	<path fill-rule="evenodd" clip-rule="evenodd" fill="#4C4D4F" d="M199.374,109.366c0,2.668,0.001,5.338,0,8.007
		c-0.003,3.87-1.997,6.667-5.702,7.79c-3.438,1.042-6.905,1.025-10.274-0.288c-3.21-1.252-4.931-3.721-4.999-7.136
		c-0.107-5.408-0.053-10.821-0.049-16.233c0.001-1.864,0.403-3.623,1.542-5.156c1.273-1.714,3.021-2.687,5.056-3.166
		c3.109-0.731,6.201-0.691,9.216,0.439c3.301,1.237,5.202,4.036,5.208,7.558C199.377,103.909,199.374,106.638,199.374,109.366z
		 M186.898,117.487c0,0.278,0.022,0.559,0.06,0.836c0.156,1.15,0.804,1.702,1.973,1.695c1.083-0.007,1.723-0.598,1.854-1.726
		c0.039-0.335,0.061-0.674,0.062-1.012c0.003-5.394,0.005-10.788,0-16.183c0-0.667-0.035-1.343-0.483-1.887
		c-0.558-0.675-1.321-0.722-2.102-0.558c-0.772,0.163-1.146,0.728-1.282,1.463c-0.056,0.302-0.079,0.615-0.08,0.923
		c-0.006,2.741-0.003,5.482-0.003,8.223C186.896,112.005,186.894,114.746,186.898,117.487z"/>
</g>
</svg>
