<?xml version="1.0" encoding="utf-8"?>
<!-- Generator: Adobe Illustrator 16.0.3, SVG Export Plug-In . SVG Version: 6.00 Build 0)  -->
<!DOCTYPE svg PUBLIC "-//W3C//DTD SVG 1.1//EN" "http://www.w3.org/Graphics/SVG/1.1/DTD/svg11.dtd">
<svg version="1.1" id="Ebene_1" xmlns="http://www.w3.org/2000/svg" xmlns:xlink="http://www.w3.org/1999/xlink" x="0px" y="0px"
	 width="400px" height="216px" viewBox="0 0 400 216" enable-background="new 0 0 400 216" xml:space="preserve">
<path fill="#010202" d="M99.421,74.354H84.138c0,12.542-5.757,23.988-15.764,31.527l-6.031,4.524l23.439,31.938h19.259
	L83.453,112.94C93.665,102.797,99.421,89.09,99.421,74.354z"/>
<rect x="44.797" y="74.354" fill="#010202" width="15.626" height="67.989"/>
<rect x="109.565" y="74.354" fill="#010202" width="14.735" height="67.989"/>
<path fill="#010202" d="M253.562,94.024c-5.62,0-10.966,1.714-14.529,6.58v-5.277h-13.981v47.017h14.187V117.67
	c0-7.128,4.799-10.623,10.555-10.623c6.169,0,9.732,3.7,9.732,10.555v24.811h14.05v-29.951
	C273.574,101.495,264.871,94.024,253.562,94.024z"/>
<path fill="#010202" d="M168.85,95.327v3.015c-3.975-2.741-8.773-4.318-13.982-4.318c-13.707,0-24.811,11.103-24.811,24.811
	c0,13.708,11.104,24.811,24.811,24.811c5.209,0,10.007-1.576,13.982-4.317v3.016h14.05V95.327H168.85z M156.033,130.898
	c-7.059,0-12.748-5.416-12.748-12.063s5.688-12.063,12.748-12.063c7.06,0,12.748,5.415,12.748,12.063
	S163.093,130.898,156.033,130.898z"/>
<path fill="#010202" d="M204.694,101.427v-6.1h-14.392v47.017h14.461v-21.933c0-7.402,8.019-11.377,13.569-11.377
	c0.069,0,0.139,0,0.139,0V95.327C212.782,95.327,207.505,97.794,204.694,101.427z"/>
<path fill="#010202" d="M317.302,95.327v3.015c-3.975-2.741-8.772-4.318-13.981-4.318c-13.707,0-24.812,11.103-24.812,24.811
	c0,13.708,11.104,24.811,24.812,24.811c5.209,0,10.007-1.576,13.981-4.317v3.016h14.05V95.327H317.302z M304.485,130.898
	c-7.06,0-12.748-5.416-12.748-12.063s5.688-12.063,12.748-12.063c7.059,0,12.747,5.415,12.747,12.063
	C317.302,125.482,311.544,130.898,304.485,130.898z"/>
<g>
	<path fill="#010202" d="M342.249,96.697c0-0.685-0.479-1.096-1.233-1.096h-1.303v3.564h0.617v-1.302h0.686l0.548,1.302h0.686
		l-0.617-1.439C342.044,97.52,342.249,97.177,342.249,96.697z M341.016,97.246h-0.686v-1.096h0.686c0.411,0,0.616,0.206,0.616,0.548
		C341.632,97.041,341.495,97.246,341.016,97.246z"/>
	<path fill="#010202" d="M340.81,94.093c-1.851,0-3.358,1.508-3.358,3.358c0.068,1.851,1.508,3.358,3.358,3.358
		s3.359-1.507,3.359-3.358S342.66,94.093,340.81,94.093z M340.81,100.193c-1.508,0-2.673-1.234-2.673-2.741
		c0-1.508,1.233-2.742,2.673-2.742c1.509,0,2.673,1.234,2.673,2.742C343.482,98.959,342.249,100.193,340.81,100.193z"/>
</g>
<path fill="#010202" d="M346.362,125.688c-4.867,0-8.843,3.976-8.843,8.841c0,4.867,3.976,8.843,8.843,8.843
	c4.865,0,8.841-3.976,8.841-8.843C355.203,129.596,351.228,125.688,346.362,125.688z"/>
</svg>
