<?xml version="1.0" encoding="utf-8"?>
<!-- Generator: Adobe Illustrator 16.0.3, SVG Export Plug-In . SVG Version: 6.00 Build 0)  -->
<svg version="1.2" baseProfile="tiny" id="Ebene_1" xmlns="http://www.w3.org/2000/svg" xmlns:xlink="http://www.w3.org/1999/xlink"
	 x="0px" y="0px" width="400px" height="216px" viewBox="0 0 400 216" xml:space="preserve">
<g>
	<g>
		<path fill="#55677B" d="M122.605,105.147l-4.587,0.734c-0.367-1.927-1.927-2.661-3.486-2.661s-2.294,0.734-2.294,1.927
			c0,0.734,0.367,1.192,1.56,1.56l3.854,0.734c3.486,0.734,5.046,2.661,5.046,5.413c0,3.854-3.486,6.146-7.706,6.146
			c-4.221,0-7.707-1.927-8.073-5.779l4.587-0.734c0.366,1.926,1.927,2.66,3.853,2.66c1.927,0,2.661-0.734,2.661-1.926
			c0-0.734-0.367-1.193-1.927-1.561l-3.854-0.733c-2.66-0.733-5.046-1.927-5.046-5.413c0-3.853,3.12-5.78,7.34-5.78
			S121.78,102.027,122.605,105.147z"/>
		<path fill="#55677B" d="M139.119,113.221h-10.367c0.367,1.926,1.56,2.66,3.119,2.66c1.193,0,2.294-0.367,3.12-1.56l3.853,0.733
			c-1.192,3.119-3.853,4.588-6.973,4.588c-4.22,0-7.339-3.119-7.339-7.34c0-4.587,3.486-7.339,7.339-7.339
			c3.854,0,6.973,2.661,7.34,7.339L139.119,113.221L139.119,113.221z M128.752,110.468h5.78c-0.367-1.56-1.56-2.293-2.661-2.293
			C130.771,108.174,129.486,109,128.752,110.468z"/>
		<path fill="#55677B" d="M151.871,104.688v4.587h-0.733c-3.119,0-4.587,1.56-4.587,5.412v4.588h-4.588v-14.22h4.588v2.661
			c1.192-1.927,2.66-3.12,4.587-3.12C151.046,104.688,151.413,104.688,151.871,104.688z"/>
		<path fill="#55677B" d="M162.605,119h-4.587l-5.78-14.22h4.588l3.485,8.441l3.486-8.441h4.588L162.605,119z"/>
		<path fill="#55677B" d="M175.357,100.927c0,1.56-1.192,2.661-2.66,2.661c-1.56,0-2.66-1.193-2.66-2.661
			c0-1.193,1.192-2.661,2.66-2.661C174.165,98.174,175.357,99.367,175.357,100.927z M170.312,119v-14.312h4.588v14.22h-4.588V119z"
			/>
		<path fill="#55677B" d="M188.019,113.221l4.22,0.733c-0.733,3.119-3.853,5.413-6.973,5.413c-4.22,0-7.706-3.119-7.706-7.34
			c0-4.587,3.486-7.339,7.706-7.339c3.486,0,6.515,1.927,6.973,5.414l-4.22,1.191c-0.367-1.926-1.56-2.66-3.119-2.66
			c-1.927,0-3.486,1.561-3.486,3.486c0,1.927,1.192,3.486,3.486,3.486C186.459,115.514,187.651,114.779,188.019,113.221z"/>
		<path fill="#55677B" d="M208.019,113.221h-10.367c0.367,1.926,1.56,2.66,3.119,2.66c1.192,0,2.294-0.367,3.119-1.56l3.854,0.733
			c-1.192,3.119-3.854,4.588-6.973,4.588c-3.853,0-7.339-3.119-7.339-7.34c0-4.587,3.486-7.339,7.339-7.339
			c3.854,0,6.973,2.661,7.34,7.339L208.019,113.221L208.019,113.221z M198.019,110.468h5.779c-0.366-1.56-1.56-2.293-2.66-2.293
			C199.578,108.174,198.386,109,198.019,110.468z"/>
		<path fill="#55677B" d="M226.092,100.101c4.22,0,6.973,2.66,6.973,6.514c0,3.853-2.661,6.514-6.973,6.514h-4.587v5.779h-4.587
			v-18.807H226.092z M225.725,109.367c1.927,0,3.119-1.193,3.119-2.661c0-1.56-1.192-2.661-3.119-2.661h-3.854v5.413h3.854V109.367z
			"/>
		<path fill="#55677B" d="M250.403,119h-4.587v-1.193c-1.192,0.734-2.66,1.561-4.587,1.561c-3.854,0-6.973-3.119-6.973-7.34
			c0-4.587,3.119-7.339,6.973-7.339c1.927,0,3.119,0.734,4.587,1.56v-1.192h4.587V119z M245.725,112.027
			c0-1.926-1.56-3.853-3.486-3.853c-1.926,0-3.486,1.56-3.486,3.853c0,1.927,1.561,3.854,3.486,3.854
			C244.257,115.514,245.725,113.954,245.725,112.027z"/>
		<path fill="#55677B" d="M263.798,104.688l-0.366,4.587h-0.734c-3.119,0-4.587,1.56-4.587,5.412v4.588h-4.587v-14.22h4.587v2.661
			c1.192-1.927,2.66-3.12,4.587-3.12C263.064,104.688,263.432,104.688,263.798,104.688z"/>
		<path fill="#55677B" d="M276.184,118.174c-1.192,0.734-2.294,1.193-3.854,1.193c-3.486,0-5.412-1.927-5.412-5.779v-5.414h-2.661
			v-3.486h2.661v-4.22h4.587v4.22h4.22v3.486h-4.22v5.046c0,1.559,0.733,1.926,1.927,1.926c0.733,0,1.56,0,1.926-0.734
			L276.184,118.174z"/>
		<path fill="#55677B" d="M292.33,110.468v8.44h-4.587v-7.707c0-1.559-0.734-2.66-2.294-2.66s-3.119,1.193-3.119,3.853v6.514h-4.22
			v-13.853h4.587v1.192c1.192-1.192,2.66-1.926,4.221-1.926C290.037,104.688,292.33,107.073,292.33,110.468z"/>
		<path fill="#55677B" d="M308.844,113.221h-10.367c0.367,1.926,1.561,2.66,3.12,2.66c1.192,0,2.293-0.367,3.119-1.56l3.853,0.733
			c-1.192,3.119-3.853,4.588-6.972,4.588c-4.221,0-7.34-3.119-7.34-7.34c0-4.587,3.486-7.339,7.34-7.339
			c3.853,0,6.972,2.661,7.339,7.339L308.844,113.221L308.844,113.221z M298.844,110.468h5.78c-0.367-1.56-1.56-2.293-2.661-2.293
			C300.403,108.174,299.211,109,298.844,110.468z"/>
		<path fill="#55677B" d="M321.597,104.688l-0.367,4.587h-0.734c-3.119,0-4.587,1.56-4.587,5.412v4.588h-4.587v-14.22h4.587v2.661
			c1.192-1.927,2.66-3.12,4.587-3.12C320.771,104.688,321.229,104.688,321.597,104.688z"/>
		<path fill="#55677B" d="M349.303,109.734c0,5.412-4.22,9.633-9.633,9.633s-9.633-4.221-9.633-9.633
			c0-5.413,4.22-9.633,9.633-9.633S349.303,104.321,349.303,109.734z M347.743,109.734c0-4.587-3.486-8.441-8.073-8.441
			s-8.073,3.854-8.073,8.441c0,4.587,3.486,8.439,8.073,8.439S347.743,114.321,347.743,109.734z"/>
		<path fill="#55677B" d="M369.303,119h-1.192l-13.027-16.147V119h-1.56v-18.899h1.192l13.119,16.147v-16.147h1.56L369.303,119
			L369.303,119z"/>
		<path fill="#55677B" d="M376.275,109h11.192v1.193h-11.192v7.705h11.927v1.193h-13.486v-18.991h13.486v1.192h-11.927V109z"/>
	</g>
	<g>
		<g>
			<path fill="#48B5DD" d="M13.798,87.899v42.203c0,0.458,0.275,0.825,0.643,1.1l36.514,21.102c0.184,0.092,0.275,0.092,0.459,0.184
				c0.092,0,0.092,0,0.184,0c0.184,0,0.458-0.092,0.642-0.184l36.514-21.102c0.367-0.183,0.643-0.642,0.643-1.1V87.899
				c0-0.092,0-0.092,0-0.183c-0.092-0.367-0.275-0.734-0.643-0.917L52.238,65.697c-0.367-0.184-0.825-0.184-1.284,0L14.44,86.798
				c-0.367,0.183-0.551,0.55-0.643,0.917C13.798,87.716,13.798,87.807,13.798,87.899z M16.275,127.898V90.009L49.027,109
				L16.275,127.898z M52.789,106.798v-37.89l32.752,18.899L52.789,106.798z M50.312,106.798L17.56,87.899l32.752-18.991V106.798z
				 M51.505,149.734L17.56,130.102l34.679-20l0,0l0,0l34.588-20.092v39.266L51.505,149.734z"/>
		</g>
	</g>
</g>
</svg>
