<?xml version="1.0" encoding="utf-8"?>
<!-- Generator: Adobe Illustrator 16.0.3, SVG Export Plug-In . SVG Version: 6.00 Build 0)  -->
<!DOCTYPE svg PUBLIC "-//W3C//DTD SVG 1.1//EN" "http://www.w3.org/Graphics/SVG/1.1/DTD/svg11.dtd">
<svg version="1.1" id="Ebene_1" xmlns="http://www.w3.org/2000/svg" xmlns:xlink="http://www.w3.org/1999/xlink" x="0px" y="0px"
	 width="400px" height="216px" viewBox="0 92 400 216" enable-background="new 0 92 400 216" xml:space="preserve">
<g>
	<path fill="#009DE1" d="M82.625,243.529c-16.313,4.464-30.974,1.014-43.172-10.439c-13.465-12.642-17.795-28.523-12.475-46.229
		c5.359-17.827,17.896-28.535,36.17-31.742c14.195-2.491,26.866,1.611,37.771,11.102c1.292,1.125,1.467,1.777,0.135,3.058
		c-4.422,4.248-8.737,8.608-13.021,12.997c-0.989,1.012-1.571,1.155-2.769,0.188c-14.534-11.749-34.94-3.931-37.702,14.551
		c-1.201,8.033,1.72,14.829,7.723,20.272c1.045,0.945,2.219,1.75,3.333,2.617C66.569,227.832,74.187,236.098,82.625,243.529z"/>
	<path fill="#009DE1" d="M157.711,192.242c1.413,0.449,2.837,0.867,4.236,1.353c8.536,2.958,14.355,8.531,15.962,17.623
		c1.867,10.56-0.781,19.781-9.292,26.783c-5.532,4.554-12.139,6.635-19.148,7.261c-14.823,1.322-28.682-1.08-40.515-10.986
		c-1.801-1.506-2.438-2.409-0.317-4.336c4.207-3.822,8.159-7.934,12.091-12.047c1.263-1.316,2.056-1.301,3.443-0.188
		c5.578,4.477,11.839,7.148,19.164,6.615c1.143-0.084,2.299-0.243,3.405-0.537c4.971-1.32,7.721-4.889,7.309-9.383
		c-0.375-4.092-4.042-7.455-8.879-7.7c-4.701-0.239-9.423-0.195-14.132-0.097c-1.893,0.041-2.712-0.316-2.603-2.446
		c0.202-3.901-0.941-8.244,0.431-11.604c1.369-3.355,5.109-5.757,7.857-8.53c1.935-1.952,3.946-3.828,5.924-5.737
		c0.948-0.377,1.507,0.3,2.043,0.838C149.041,183.486,153.509,187.73,157.711,192.242z"/>
	<path fill="#009DE1" d="M144.396,176.231c-6.475-0.523-12.962-0.107-19.443-0.218c-3.467-0.058-6.938-0.104-10.401,0.029
		c-1.794,0.067-2.234-0.558-2.197-2.273c0.107-5.153,0.094-10.313,0.004-15.467c-0.027-1.578,0.328-2.161,2.041-2.156
		c18.849,0.058,37.697,0.047,56.545,0.017c1.47-0.001,2.271,0.214,2.233,2.014c-0.114,5.42-0.049,10.846-0.033,16.269
		c0.002,0.927-0.055,1.786-0.996,2.283c-1.827,0.551-3.705,0.34-5.563,0.345c-6.133,0.02-12.268,0.03-18.4-0.009
		C146.881,177.058,145.485,177.29,144.396,176.231z"/>
	<path fill="#0089D0" d="M82.625,243.529c-1.167,0.062-1.963-0.564-2.745-1.352c-6.864-6.898-13.761-13.765-20.617-20.673
		c-0.383-0.386-1.43-0.676-0.645-1.601c7.316,3.669,14.71,4.213,22.198,0.527c1.678-0.826,3.297-1.795,4.588-3.141
		c1.037-1.08,1.631-0.747,2.514,0.15c4.416,4.49,8.881,8.932,13.351,13.367c0.764,0.758,1.343,1.327,0.209,2.318
		C95.946,237.975,89.905,241.868,82.625,243.529z"/>
	<path fill="#019EE1" d="M335.964,232.12c0,3.765-0.06,6.784,0.027,9.8c0.039,1.423-0.27,2.199-1.881,2.012
		c-0.875-0.104-1.779-0.082-2.661-0.007c-1.328,0.114-1.679-0.536-1.672-1.735c0.026-6.217,0.031-12.435-0.007-18.651
		c-0.005-1.235,0.417-1.666,1.686-1.761c2.642-0.196,4.696,0.267,6.294,2.769c1.836,2.873,4.165,5.431,6.751,8.724
		c0-3.068,0-5.416,0-7.763c0-3.862,0-3.856,4.158-3.698c0.981,0.037,2.024-0.138,2.02,1.385c-0.021,6.482-0.015,12.969-0.018,19.453
		c0,0.867-0.402,1.237-1.296,1.278c-2.426,0.109-4.554,0.099-6.16-2.434C341.229,238.376,338.702,235.609,335.964,232.12z"/>
	<path fill="#009EE1" d="M263.17,233.047c0,2.813-0.09,5.633,0.033,8.439c0.074,1.777-0.354,2.548-2.331,2.467
		c-4.729-0.193-3.817,0.454-3.864-3.741c-0.062-5.333,0.053-10.67-0.053-16.001c-0.035-1.773,0.353-2.404,2.295-2.48
		c2.461-0.096,4.137,0.541,5.556,2.641c1.916,2.833,4.173,5.436,6.822,7.99c0-2.611,0.104-5.229-0.033-7.834
		c-0.105-1.975,0.318-2.891,2.591-2.767c4.375,0.242,3.565-0.392,3.605,3.755c0.051,5.066,0.054,10.135-0.021,15.2
		c-0.016,1.043,0.712,2.826-0.636,3.015c-1.848,0.258-4.074,1.086-5.664-0.986c-2.537-3.301-5.12-6.563-7.684-9.844
		C263.582,232.949,263.374,232.998,263.17,233.047z"/>
	<path fill="#019EE1" d="M254.554,167.166c0-3.023,0.04-6.047-0.02-9.069c-0.022-1.246,0.386-1.729,1.681-1.714
		c4.801,0.056,9.604,0.107,14.403-0.015c2.314-0.058,1.699,1.461,1.76,2.676c0.067,1.353,0.27,2.7-1.895,2.586
		c-2.66-0.14-5.333,0.001-8-0.046c-1.149-0.02-1.796,0.182-1.796,1.579c0,1.405,0.664,1.596,1.807,1.568
		c2.043-0.05,4.099,0.107,6.133-0.048c1.941-0.147,2.604,0.427,2.627,2.487c0.022,2.188-0.726,2.769-2.763,2.609
		c-2.032-0.161-4.09,0.028-6.131-0.058c-1.292-0.053-1.66,0.42-1.67,1.681c-0.013,1.296,0.421,1.683,1.684,1.648
		c2.843-0.076,5.693,0.065,8.535-0.049c2.242-0.091,1.583,1.503,1.504,2.537c-0.078,1.054,1.033,2.874-1.462,2.843
		c-4.892-0.061-9.781-0.068-14.672,0.015c-1.493,0.026-1.774-0.595-1.749-1.896C254.598,173.391,254.554,170.277,254.554,167.166z"
		/>
	<path fill="#019EE1" d="M306.531,232.754c0-2.934,0.075-5.867-0.028-8.797c-0.059-1.563,0.31-2.225,2.041-2.182
		c4.616,0.109,9.242,0.137,13.86-0.006c2.255-0.066,1.873,1.344,1.8,2.606c-0.07,1.229,0.765,3.015-1.782,2.882
		c-2.658-0.138-5.331-0.014-7.995-0.037c-1.083-0.01-1.877,0.092-1.886,1.53c-0.005,1.379,0.66,1.627,1.813,1.606
		c2.398-0.039,4.801,0.072,7.197-0.032c2.173-0.095,1.593,1.431,1.581,2.534c-0.011,1.09,0.632,2.64-1.569,2.539
		c-2.396-0.11-4.8,0.039-7.196-0.049c-1.397-0.051-1.831,0.438-1.835,1.832c-0.005,1.5,0.813,1.494,1.871,1.483
		c2.757-0.022,5.515,0.095,8.264-0.039c2.166-0.104,1.688,1.362,1.61,2.476c-0.081,1.109,0.843,2.856-1.564,2.827
		c-4.8-0.062-9.599-0.063-14.396,0.011c-1.428,0.021-1.837-0.502-1.805-1.855C306.582,238.977,306.531,235.864,306.531,232.754z"/>
	<path fill="#019EE1" d="M355.79,167.507c0-3.02,0.091-6.044-0.034-9.059c-0.07-1.682,0.544-2.107,2.135-2.076
		c4.616,0.089,9.24,0.117,13.854-0.009c1.916-0.053,2.01,0.958,1.869,2.313c-0.13,1.247,0.706,3.04-1.803,2.944
		c-2.66-0.103-5.331,0.006-7.994-0.034c-1.128-0.017-1.825,0.156-1.825,1.564c-0.002,1.393,0.66,1.604,1.809,1.581
		c2.31-0.046,4.622,0.054,6.93-0.03c2.151-0.077,1.565,1.453,1.581,2.566c0.019,1.142,0.501,2.62-1.642,2.502
		c-2.126-0.118-4.264-0.033-6.395-0.022c-1.109,0.007-2.28-0.331-2.305,1.588c-0.023,1.828,0.962,1.719,2.181,1.704
		c2.665-0.034,5.335,0.077,7.994-0.036c2.172-0.092,1.669,1.425,1.572,2.516c-0.095,1.078,0.956,2.88-1.488,2.859
		c-4.975-0.043-9.949-0.053-14.924,0.013c-1.437,0.018-1.545-0.709-1.529-1.823C355.818,173.548,355.79,170.527,355.79,167.507z"/>
	<path fill="#019EE1" d="M281.233,200.079c0-2.934,0.054-5.868-0.022-8.797c-0.042-1.515,0.293-2.246,2.048-2.2
		c4.619,0.117,9.245,0.149,13.861-0.005c2.418-0.081,1.925,1.438,1.938,2.786c0.013,1.292,0.404,2.713-1.864,2.557
		c-2.741-0.19-5.511,0.029-8.261-0.073c-1.436-0.055-1.527,0.642-1.554,1.77c-0.033,1.219,0.463,1.501,1.571,1.476
		c2.484-0.059,4.979,0.071,7.461-0.043c1.938-0.09,1.646,1.19,1.561,2.285c-0.085,1.06,0.724,2.688-1.488,2.64
		c-2.485-0.054-4.978,0.051-7.463-0.033c-1.336-0.045-1.631,0.504-1.646,1.724c-0.018,1.302,0.466,1.69,1.71,1.661
		c2.755-0.066,5.516,0.096,8.263-0.055c2.282-0.123,1.809,1.381,1.783,2.627c-0.025,1.192,0.606,2.715-1.737,2.646
		c-4.796-0.144-9.599-0.088-14.396-0.015c-1.452,0.022-1.816-0.555-1.786-1.883C281.278,206.124,281.233,203.102,281.233,200.079z"
		/>
	<path fill="#009EE1" d="M217.98,211.534c-5.771-0.035-10.029-3.132-11.458-7.88c-1.476-4.912,0.311-10.197,4.382-12.978
		c4.063-2.771,10.293-2.599,13.991,0.383c2.266,1.827,2.204,2.038,0.046,3.877c-1.549,1.323-2.666,2.069-4.655,0.325
		c-2.058-1.805-4.946-1.075-6.597,1.025c-1.762,2.241-1.6,6.132,0.338,8.117c1.693,1.736,4.723,1.854,6.841,0.35
		c0.65-0.46,1.036-1.75,2.129-1.113c1.297,0.756,2.548,1.642,3.663,2.643c0.625,0.561-0.162,1.104-0.536,1.531
		C223.803,210.461,220.829,211.594,217.98,211.534z"/>
	<path fill="#009EE1" d="M206.218,167.28c0.024-4.916,2.446-8.634,6.812-10.455c4.296-1.792,9.635-0.872,12.688,2.098
		c1.095,1.066,1.393,1.777-0.124,2.814c-1.784,1.222-3.041,2.971-5.495,0.616c-1.774-1.701-4.857-0.783-6.361,1.177
		c-1.741,2.271-1.635,5.818,0.237,7.882c1.771,1.947,4.507,2.196,6.773,0.759c0.744-0.47,1.095-1.953,2.294-1.298
		c1.312,0.715,2.608,1.578,3.654,2.633c0.777,0.783-0.351,1.374-0.815,1.877c-3.085,3.329-8.258,4.338-12.778,2.555
		C208.695,176.201,206.193,172.328,206.218,167.28z"/>
	<path fill="#009EE1" d="M218.449,221.506c2.633-0.068,5.291,0.961,7.56,3.035c1.034,0.943,1.379,1.781-0.112,2.646
		c-0.761,0.442-1.465,1.018-2.104,1.627c-0.812,0.771-1.328,0.625-2.195-0.08c-2.693-2.196-5.381-2.125-7.35-0.016
		c-2.057,2.203-2.086,6.077-0.063,8.295c2.01,2.2,4.763,2.176,7.587-0.031c2.465-1.928,3.283,1.027,4.721,1.802
		c1.666,0.899-0.095,1.798-0.671,2.388c-3.438,3.523-9.641,4.186-14.056,1.605c-4.325-2.524-6.404-7.873-5.028-12.928
		C208.153,224.654,212.441,221.48,218.449,221.506z"/>
	<path fill="#008AD0" d="M144.396,176.231c8.328,0,16.654-0.014,24.981,0.01c0.934,0.001,1.968-0.343,2.771,0.488
		c-4.812,5.17-9.625,10.34-14.437,15.51c-1.225-0.046-1.776-1.069-2.526-1.777c-4.235-4-8.026-8.458-12.538-12.177
		C143.23,177.601,143.813,176.917,144.396,176.231z"/>
	<path fill="#009DE1" d="M353.086,156.403c-2.895,7.195-5.651,13.987-8.341,20.805c-0.405,1.025-1.03,1.413-2.005,1.226
		c-1.549-0.295-3.754,1.035-4.579-0.882c-2.972-6.886-5.653-13.894-8.563-21.148c1.942,0,3.535,0.085,5.112-0.024
		c1.398-0.099,2.009,0.448,2.449,1.772c1.247,3.739,2.67,7.419,4.246,11.733c1.475-4.052,2.855-7.385,3.877-10.826
		c0.646-2.178,1.756-2.981,3.946-2.682C350.355,156.53,351.521,156.403,353.086,156.403z"/>
	<path fill="#029EE1" d="M364.777,221.813c2.573,0,5.149,0.08,7.719-0.021c2.491-0.098,1.747,1.68,1.775,2.93
		c0.03,1.202,0.574,2.653-1.727,2.704c-4.793,0.11-4.791,0.229-4.791,5.158c0,3.106-0.077,6.216,0.03,9.315
		c0.062,1.705-0.643,2.205-2.198,2.028c-0.7-0.079-1.427-0.086-2.124,0.001c-1.568,0.201-1.944-0.505-1.917-1.97
		c0.085-4.17-0.041-8.343,0.064-12.51c0.041-1.603-0.362-2.357-2.049-2.084c-0.347,0.057-0.708,0.009-1.063,0.009
		c-3.216-0.004-4.385-1.674-3.402-4.725c0.316-0.981,1.026-0.823,1.695-0.828C359.453,221.8,362.115,221.811,364.777,221.813z"/>
	<path fill="#019EE1" d="M292.496,221.813c2.572,0,5.15,0.105,7.717-0.03c2.433-0.13,1.881,1.526,1.896,2.847
		c0.018,1.355,0.438,2.805-1.953,2.801c-4.658-0.007-4.658,0.131-4.658,4.74c0,3.196-0.104,6.395,0.04,9.582
		c0.082,1.823-0.597,2.248-2.282,2.191c-4.563-0.151-3.73,0.445-3.79-3.824c-0.048-3.549-0.083-7.1,0.022-10.646
		c0.048-1.598-0.399-2.344-2.067-2.107c-0.438,0.061-0.887,0.01-1.331,0.009c-3.076-0.003-4.184-1.642-3.241-4.649
		c0.348-1.11,1.177-0.894,1.929-0.9C287.349,221.798,289.922,221.813,292.496,221.813z"/>
	<path fill="#009DE1" d="M307.416,156.405c2.666,0,5.33,0.041,7.994-0.013c2.604-0.051,1.464,1.891,1.613,3.049
		c0.154,1.182,0.375,2.396-1.692,2.438c-4.896,0.1-4.896,0.216-4.896,5.024c0,3.108-0.108,6.223,0.043,9.324
		c0.087,1.821-0.587,2.377-2.265,2.149c-0.522-0.071-1.073-0.071-1.597,0c-1.677,0.228-2.323-0.33-2.264-2.149
		c0.137-4.081-0.049-8.172,0.083-12.253c0.061-1.812-0.574-2.412-2.271-2.157c-0.347,0.053-0.708,0.007-1.063,0.007
		c-3.212-0.001-4.196-1.406-3.318-4.525c0.284-1.015,0.959-0.884,1.64-0.888C302.089,156.395,304.753,156.405,307.416,156.405z"/>
	<path fill="#019EE1" d="M320.489,167.228c0-2.926,0.097-5.858-0.036-8.779c-0.075-1.65,0.437-2.131,2.076-2.08
		c5.276,0.162,4.202-0.516,4.266,4.145c0.068,5.231-0.059,10.466,0.059,15.697c0.04,1.793-0.549,2.395-2.263,2.172
		c-0.786-0.103-1.604-0.098-2.392-0.001c-1.486,0.183-1.767-0.529-1.733-1.842C320.541,173.437,320.489,170.332,320.489,167.228z"/>
	<path fill="#09A1E2" d="M331.487,193.021c0,4.94,0.001,9.881-0.002,14.823c0,0.711-0.005,1.422-0.024,2.131
		c-0.016,0.613-0.275,1.016-0.957,0.984c-0.695-0.027-0.86-0.492-0.86-1.078c0-6.57,0-13.14,0.005-19.712
		c0-0.461,0.114-0.883,0.651-1.006c0.972-0.224,1.435,0.452,1.938,1.088c3.194,4.037,6.395,8.07,9.6,12.099
		c1.259,1.586,2.535,3.159,4.339,5.405c0-4.218,0-7.696,0-11.175c0.001-2.042-0.001-4.083,0.009-6.126
		c0.002-0.626-0.016-1.313,0.904-1.292c0.883,0.021,0.923,0.696,0.926,1.323c0.01,6.394,0.012,12.787,0.005,19.181
		c0,0.516,0.055,1.116-0.646,1.271c-0.867,0.192-1.268-0.455-1.707-1.012c-4.024-5.076-8.05-10.154-12.079-15.228
		c-0.489-0.614-1.008-1.206-1.514-1.809C331.877,192.935,331.683,192.977,331.487,193.021z"/>
	<g>
		<g>
			<path fill="#009EE1" d="M248.483,175.002c-0.688-1.032-1.366-2.076-2.116-3.065c-0.586-0.768-0.618-1.18,0.261-1.886
				c3.165-2.549,4.118-5.565,2.892-8.859c-1.253-3.363-4.015-4.603-7.335-4.726c-3.372-0.126-6.75-0.009-10.123-0.081
				c-1.275-0.029-1.689,0.433-1.682,1.697c0.046,6.216,0.051,12.433-0.004,18.649c-0.012,1.301,0.465,1.613,1.701,1.667
				c4.525,0.197,4.522,0.247,4.556-4.115c0.003-0.178-0.027-0.362,0.008-0.533c0.139-0.702-0.419-1.724,0.78-1.96
				c1.023-0.201,1.896,0.014,2.507,1.019c0.876,1.44,1.843,2.822,2.775,4.228c0.494,0.75,0.982,1.404,2.081,1.35
				c1.829-0.087,3.664-0.022,5.884-0.022C249.801,177.03,249.154,176.008,248.483,175.002z M243.638,164.344
				c-0.186,2.96-2.786,2.257-4.726,2.537c-2.661,0.383-2.141-1.375-2.322-2.954c-0.316-2.757,1.541-2.141,3.317-2.19
				C241.509,161.793,243.807,161.633,243.638,164.344z"/>
		</g>
	</g>
	<path fill="#019EE1" d="M256.154,200.003c0.001-3.017-0.004-6.033,0.007-9.051c0.002-0.89-0.086-1.876,1.274-1.821
		c3.625,0.144,7.272-0.381,10.877,0.393c5.567,1.198,8.881,5.265,8.728,10.747c-0.161,5.61-4.002,10-9.646,10.572
		c-3.251,0.33-6.558,0.091-9.837,0.169c-1.284,0.029-1.417-0.691-1.409-1.693C256.17,206.213,256.154,203.105,256.154,200.003z
		 M262.34,204.281c0.007,0.498-0.088,1,0.616,1.271c2.043,0.797,5.911-0.605,7.058-2.633c1.328-2.354,0.698-5.716-1.407-7.198
		c-1.711-1.205-3.821-1.513-5.597-0.846c-1.488,0.559-0.436,2.508-0.669,3.816c-0.076,0.431-0.011,0.885-0.01,1.329
		C262.331,201.441,262.32,202.861,262.34,204.281z"/>
	<path fill="#009DE1" d="M240.722,211.527c-6.714,0.035-11.921-4.92-11.923-11.337c0-6.423,5.155-11.414,11.839-11.459
		c6.774-0.046,11.807,4.764,11.857,11.336C252.547,206.521,247.434,211.498,240.722,211.527z M240.622,194.316
		c-2.981,0.015-5.441,2.583-5.489,5.73c-0.047,3.146,2.611,5.978,5.602,5.965c2.89-0.01,5.449-2.71,5.488-5.783
		C246.268,197.016,243.695,194.301,240.622,194.316z"/>
	<path fill="#009DE1" d="M241.593,221.504c6.805-0.021,11.755,4.771,11.751,11.382c-0.005,6.576-4.955,11.384-11.758,11.416
		c-6.749,0.031-11.811-4.848-11.804-11.381C229.785,226.42,234.847,221.525,241.593,221.504z M241.61,227.021
		c-3.062-0.047-5.554,2.65-5.504,5.949c0.053,3.315,2.531,5.807,5.69,5.719c3.026-0.086,5.3-2.627,5.249-5.865
		C246.996,229.697,244.529,227.063,241.61,227.021z"/>
	<path fill="#009EE1" d="M299.081,178.366c-1.604,0-2.77-0.127-3.896,0.027c-2.072,0.284-3.376-0.34-3.771-2.524
		c-0.205-1.127-0.975-1.555-2.13-1.481c-1.237,0.077-2.493,0.11-3.725-0.006c-2.067-0.192-3.675,0.133-4.075,2.577
		c-0.185,1.138-0.975,1.508-2.133,1.43c-1.499-0.098-3.008-0.023-4.874-0.023c1.394-3.384,2.681-6.547,4-9.697
		c1.298-3.104,2.641-6.191,3.949-9.291c1.292-3.054,3.354-4.032,6.572-3.179c0.721,0.192,0.98,0.648,1.229,1.235
		C293.114,164.271,296.01,171.104,299.081,178.366z M285.011,167.779c-0.682,1.412-0.264,1.843,1.235,1.891
		c1.941,0.063,3.194-0.106,1.845-2.471c-0.554-0.971-0.617-2.201-1.557-3.116C286.017,165.355,285.583,166.6,285.011,167.779z"/>
	<path fill="#029EE1" d="M361.522,211c-5.284,0.002-5.284,0.002-5.284-5.205c0-4.798,0.095-9.597-0.046-14.39
		c-0.058-1.932,0.586-2.473,2.413-2.313c2.643,0.233,5.312-0.224,7.956,0.384c5.667,1.302,9.195,6.048,8.605,11.699
		c-0.588,5.667-4.94,9.664-10.715,9.819C363.477,211.021,362.5,210.999,361.522,211z M357.929,203.136c0,6.636,0,6.636,6.687,6.24
		c4.7-0.278,8.298-3.658,8.702-8.177c0.447-4.979-2.397-8.947-7.145-10.095c-2.202-0.532-4.421-0.274-6.635-0.394
		c-1.341-0.072-1.654,0.556-1.629,1.757c0.062,2.487,0.02,4.979,0.02,7.468C357.929,201.002,357.929,202.068,357.929,203.136z"/>
	<path fill="#039EE1" d="M324.164,210.165c0.229,1.063-0.6,0.854-1.134,0.763c-0.711-0.121-0.938-0.828-1.064-1.406
		c-2.01-4.834-1.653-4.653-7.399-4.49c-2.122,0-1.423,0.014-2.122,0c-5.604-0.119-5.025-0.831-7.399,4.512
		c-0.199,0.889-0.767,1.866-1.834,1.314c-0.914-0.471-0.009-1.266,0.238-1.807c2.819-6.203,5.694-12.384,8.56-18.567
		c0.325-0.701,0.5-1.499,1.604-1.465c0.955,0.03,1.139,0.7,1.425,1.324c2.9,6.265,5.79,12.535,8.684,18.804
		C323.867,209.467,324.003,209.792,324.164,210.165z M319.062,203.266c-1.854-4.059-3.59-7.851-5.558-12.16
		c-1.979,4.333-3.688,8.083-5.547,12.16C311.827,203.266,315.295,203.266,319.062,203.266z"/>
</g>
</svg>
