<?xml version="1.0" encoding="utf-8"?>
<!-- Generator: Adobe Illustrator 16.0.3, SVG Export Plug-In . SVG Version: 6.00 Build 0)  -->
<!DOCTYPE svg PUBLIC "-//W3C//DTD SVG 1.1//EN" "http://www.w3.org/Graphics/SVG/1.1/DTD/svg11.dtd">
<svg version="1.1" id="Ebene_1" xmlns="http://www.w3.org/2000/svg" xmlns:xlink="http://www.w3.org/1999/xlink" x="0px" y="0px"
	 width="400px" height="216px" viewBox="0 92 400 216" enable-background="new 0 92 400 216" xml:space="preserve">
<g>
	<path fill="#005FD8" d="M112.283,199.743c0.001-12.711-0.056-25.423,0.019-38.134c0.055-9.046,4-16.107,11.779-20.649
		c21.281-12.441,42.622-24.781,64.04-36.979c7.805-4.446,16.001-4.434,23.816,0.027c21.408,12.218,42.755,24.547,64.036,36.988
		c7.786,4.551,11.703,11.64,11.722,20.678c0.055,25.569,0.057,51.142,0,76.711c-0.019,9.045-3.99,16.106-11.769,20.654
		c-21.282,12.44-42.625,24.785-64.046,36.987c-7.806,4.445-16.009,4.422-23.817-0.033c-21.414-12.218-42.763-24.546-64.044-36.99
		c-7.779-4.551-11.677-11.643-11.72-20.683C112.236,225.458,112.283,212.602,112.283,199.743z"/>
	<path fill="#F9F9FA" d="M161.483,182.166c-2.583,3.99-6.095,5.073-10.713,4.855c-7.981-0.376-9.535,1.399-9.675,9.236
		c-0.01,0.585-0.014,1.167-0.019,1.753c-0.081,11.252,0.404,11.652,11.534,10.917c3.304-0.217,4.658-1.738,4.692-4.956
		c0.044-4.225-0.334-8.456,0.447-12.667c0.769-4.147,3.061-6.848,7.073-8.061c4.433-1.337,8.902-1.625,13.305,0.049
		c4.84,1.839,7.111,5.173,7.158,10.331c0.051,5.545,0.073,11.095,0.042,16.641c-0.008,1.333,0.552,3.148-1.852,3.128
		c-2.035-0.016-4.227,0.315-5.081-2.283c-0.136-0.404-0.105-0.866-0.178-1.294c-0.454-2.659,1.361-6.33-0.961-7.784
		c-2.009-1.256-5.389-0.44-8.156-0.335c-2.141,0.081-3.177-0.416-3.149-2.872c0.026-2.428,1.334-2.5,3.084-2.457
		c1.898,0.053,3.821-0.181,5.689,0.053c3.15,0.396,3.826-1.1,3.331-3.778c-0.675-3.662-2.785-5.679-6.588-5.691
		c-3.844-0.008-6.422,2.228-6.621,6.055c-0.194,3.787-0.055,7.592-0.092,11.386c-0.058,6.055-1.665,8.048-7.752,9.03
		c-5.648,0.916-11.333,0.901-16.97-0.246c-3.937-0.801-6.162-3.064-6.097-7.271c0.057-3.649,0.022-7.305,0.049-10.955
		c0.055-7.854,3.996-12.081,11.843-12.716c0.728-0.057,1.458-0.064,2.189-0.064C152.483,182.166,156.953,182.166,161.483,182.166z"
		/>
	<path fill="#F7F8F8" d="M234.247,195.864c0.01-3.214-0.024-6.423,0.022-9.631c0.023-1.754-0.708-3.949,2.548-3.755
		c2.727,0.162,4.503,0.864,4.47,4.005c-0.056,4.814,0.002,9.632,0.033,14.451c0.042,6.066,0.979,7.016,7.164,7.062
		c4.087,0.028,8.172-0.032,12.258-0.086c1.671-0.02,3.342-0.202,3.578-2.344c0.23-2.09-0.95-3.298-2.841-3.808
		c-3.511-0.949-7.103-1.645-10.556-2.761c-5.088-1.646-6.935-4.433-6.398-9.005c0.54-4.619,3.349-7.34,8.575-7.647
		c4.652-0.279,9.332-0.073,14.001-0.089c1.988-0.008,3.484,0.635,3.579,2.89c0.113,2.745-2.025,1.948-3.435,1.98
		c-3.794,0.09-7.592-0.084-11.382,0.053c-2.215,0.081-4.621,0.498-4.923,3.311c-0.3,2.773,2.139,3.19,4.032,3.748
		c3.623,1.071,7.385,1.718,10.941,2.963c4.747,1.657,6.729,4.882,5.928,9.387c-0.76,4.279-3.538,6.446-7.885,6.806
		c-7.717,0.643-15.441,1.123-23.118-0.142c-4.794-0.788-6.48-2.986-6.585-7.752C234.186,202.286,234.242,199.073,234.247,195.864z"
		/>
	<path fill="#F9F9FA" d="M187.301,190.799c-0.54-2.19-1.653-3.715-2.969-5.267c6.164-3.946,12.365-3.828,18.564-1.108
		c4.271,1.867,5.456,5.865,5.693,10.121c0.178,3.206,0.035,6.428,0.096,9.641c0.057,2.974,1.57,4.438,4.597,4.704
		c10.403,0.915,11.32,0.113,11.262-10.404c-0.008-1.313,0.011-2.632-0.068-3.945c-0.334-5.504-2.442-7.514-7.951-7.627
		c-4.383-0.088-9.215,1.156-12.02-4.684c7.057,0.259,14.096-1.394,20.829,1.536c4.051,1.758,6.36,4.956,6.262,9.632
		c-0.087,4.09-0.078,8.186,0.017,12.274c0.096,4.18-1.963,6.654-5.901,7.462c-6.066,1.241-12.189,1.254-18.269,0.057
		c-3.967-0.784-6.062-3.187-5.956-7.385c0.078-3.063,0.057-6.14-0.056-9.204c-0.123-3.363,0.026-7.158-3.908-8.508
		C193.842,186.834,190.045,186.814,187.301,190.799z"/>
</g>
</svg>
