<?xml version="1.0" encoding="utf-8"?>
<!-- Generator: Adobe Illustrator 16.0.3, SVG Export Plug-In . SVG Version: 6.00 Build 0)  -->
<!DOCTYPE svg PUBLIC "-//W3C//DTD SVG 1.1//EN" "http://www.w3.org/Graphics/SVG/1.1/DTD/svg11.dtd">
<svg version="1.1" id="Ebene_1" xmlns="http://www.w3.org/2000/svg" xmlns:xlink="http://www.w3.org/1999/xlink" x="0px" y="0px"
	 width="400px" height="216px" viewBox="0 92 400 216" enable-background="new 0 92 400 216" xml:space="preserve">
<path fill="#FF8C1C" d="M381.189,175.822c-2.54,8.9-7.009,13.044-13.368,13.044h-6.054v-13.044h-1.585
	c-2.865,7.639-6.359,12.089-12.72,14.323v1.91h5.729v24.809c0,7.639,2.541,10.503,8.271,10.503c4.145,0,7.313-2.234,9.549-6.36
	l0.324-0.954l-1.278-0.631c-1.586,1.91-2.865,2.865-4.45,2.865c-2.864,0-3.82-1.91-3.82-7.639v-22.611h12.414v24.807
	c0,7.641,2.54,10.504,8.27,10.504c4.773,0,8.27-2.863,10.504-8.269l-1.279-0.631c-1.909,2.54-3.188,3.495-5.099,3.495
	c-2.864,0-3.818-1.91-3.818-7.641v-22.267h8.899v-3.171h-8.899v-13.044L381.189,175.822 M111.072,199.044
	c2.865-3.495,5.73-5.098,8.595-5.098c3.818,0,5.098,2.54,5.098,9.225V217.8c0,5.729-0.955,7.009-4.773,7.64v1.278h18.447v-1.278
	c-3.818,0-4.773-1.586-4.773-6.99V202.54c0-9.855-3.188-14.629-10.18-14.629c-4.144,0-8.594,2.865-12.414,8.27v-8.27h-1.584
	l-12.414,4.45l0.324,1.279c0.631-0.324,1.279-0.324,1.585-0.324c2.54,0,3.188,1.586,3.188,6.684v17.494
	c0,6.054-0.63,7.639-3.819,7.639v1.279h17.493v-1.279c-3.819,0-4.774-1.585-4.774-7.639v-18.45H111.072z M224.971,171.678h-1.91
	l-12.72,4.774l0.324,1.279h0.631c0.631,0,1.279-0.324,1.585-0.324c2.233,0,2.865,1.91,2.865,6.684v34.681
	c0,4.774-1.279,6.359-4.774,6.359v1.279h18.773v-1.279c-3.496,0-4.774-1.908-4.774-6.359V171.678L224.971,171.678z M252.337,188.217
	c-0.63,0.63-1.279,0.954-1.91,0.954c-0.63,0-1.278,0-3.188-0.63c-1.908-0.631-2.539-0.631-3.818-0.631
	c-7.314,0-12.413,4.45-12.413,11.134c0,5.099,1.279,6.685,8.9,11.765c8.593,5.729,8.593,5.729,8.593,8.899
	c0,3.188-2.54,5.099-5.729,5.099c-5.404,0-8.27-3.494-10.18-11.457h-1.278v13.998h1.585c0.631-0.631,1.279-0.631,1.909-0.631
	c0.324,0,0.632,0,1.279,0c4.145,0.954,5.099,1.278,6.99,1.278c7.639,0,13.367-5.099,13.367-11.765c0-5.099-2.54-7.944-11.134-13.043
	c-6.054-3.496-7.944-5.405-7.944-7.945c0-2.541,2.232-4.144,5.404-4.144c4.774,0,7.314,2.54,8.9,9.855h1.585v-12.738h-0.918V188.217
	z M308.962,171.678h-1.91l-12.719,4.774l0.324,1.279c1.277-0.324,1.908-0.324,2.232-0.324c2.232,0,3.188,1.91,3.188,6.684v34.681
	c0,4.774-1.279,6.359-4.773,6.359v1.279h18.448v-1.279c-3.496,0-4.774-1.585-4.774-6.359v-47.093L308.962,171.678L308.962,171.678z
	 M335.372,220.988v1.585c0,3.495,0.324,4.145,4.145,4.145h9.548v-1.278c-3.818,0-4.773-1.586-4.773-7.945v-17.188
	c0-9.548-3.188-12.413-13.043-12.413c-8.899,0-15.584,4.144-15.584,9.549c0,2.54,1.584,4.143,4.144,4.143
	c2.541,0,4.144-1.584,4.144-3.818v-0.955c0-0.63,0-0.955,0-1.279c0-3.189,2.234-5.098,5.729-5.098c4.45,0,6.054,2.54,6.054,8.9
	v2.864c-16.863,6.359-21.313,9.55-21.313,16.232c0,5.729,3.819,9.854,9.225,9.854c3.188,0,6.359-1.585,10.504-5.729l0.954-0.953
	L335.372,220.988L335.372,220.988z M335.372,218.124c-2.541,2.54-4.448,3.495-6.684,3.495c-3.188,0-5.729-2.54-5.729-6.055
	c0-4.449,1.909-6.054,12.412-10.81V218.124z M269.831,171.678h-1.586l-12.721,4.774l0.324,1.279
	c0.631-0.324,1.279-0.324,1.586-0.324c2.54,0,3.495,1.585,3.495,6.684v39.456c6.053,3.188,9.549,4.449,13.999,4.449
	c11.134,0,19.403-9.225,19.403-21.637c0-10.811-5.729-18.449-13.368-18.449c-3.819,0-7.641,2.234-10.18,5.729l-0.954,1.279
	l-0.324,0.631v-23.872L269.831,171.678L269.831,171.678z M269.831,197.766c2.232-2.234,4.143-3.189,6.358-3.189
	c5.729,0,9.549,6.054,9.549,14.954s-3.495,14.953-8.899,14.953c-2.233,0-4.145-0.955-6.99-3.188v-23.529L269.831,197.766
	L269.831,197.766z M209.387,212.721c-2.54,5.098-6.054,7.313-10.504,7.313c-6.99,0-11.458-6.359-12.413-16.862h24.177
	c-0.631-10.18-5.404-15.584-14.322-15.584c-10.179,0-17.188,8.594-17.188,20.683c0,11.459,6.359,19.098,15.908,19.098
	c7.943,0,12.413-4.45,15.584-14.323L209.387,212.721L209.387,212.721z M186.795,200.306c0.324-6.053,3.494-9.548,7.638-9.548
	c4.145,0,6.686,3.189,6.99,9.548H186.795z M174.075,171.678h-1.91l-12.413,4.774l0.324,1.279c0.954-0.324,1.279-0.324,1.909-0.324
	c2.541,0,3.188,1.585,3.188,6.684v6.684c-3.188-2.234-5.098-3.189-8.594-3.189c-9.548,0-16.863,9.224-16.863,20.989
	c0,11.134,6.054,19.097,14.323,19.097c4.144,0,5.729-0.954,11.134-5.404c0,3.819,0.324,4.145,4.144,4.145h9.549v-1.279
	c-4.145,0-4.774-1.279-4.774-8.898V171.68h-0.017V171.678z M164.851,219.402c-2.865,1.91-4.45,2.541-6.054,2.541
	c-5.729,0-9.548-6.685-9.548-16.539c0-9.224,2.864-14.629,7.314-14.629c5.729,0,8.27,4.144,8.27,12.413v16.215H164.851
	L164.851,219.402z M83.724,222.592c0,3.495,0.324,4.145,4.145,4.145h8.594v-1.297c-3.189,0-3.82-1.279-3.82-7.945v-17.188
	c0-9.548-3.188-12.413-13.368-12.413c-8.899,0-15.277,4.144-15.277,9.855c0,2.541,1.586,4.145,4.144,4.145
	c2.54,0,4.145-1.586,4.145-3.821v-1.279c0-0.63,0-0.955,0-1.279c0-3.188,2.233-5.098,5.729-5.098c4.45,0,6.053,2.54,6.053,8.9v2.866
	c-16.539,6.053-21.313,9.547-21.313,16.231c0,5.729,4.143,9.854,9.224,9.854c3.495,0,6.053-1.279,10.503-5.729
	c0.955-0.632,0.955-0.955,1.279-1.279v1.333H83.724L83.724,222.592z M83.724,218.124c-2.864,2.54-4.45,3.495-6.684,3.495
	c-3.188,0-5.729-2.54-5.729-6.055c0-4.449,2.54-6.358,12.413-10.81V218.124z M46.503,200.306V217.8c0,5.729-0.956,7.009-6.36,7.314
	v1.585h22.898v-1.585c-5.729-0.324-6.36-1.279-6.36-8.271v-35.941c0-5.729,1.28-7.314,5.406-7.314h0.954v-1.91H40.125v1.585
	c5.403,0.325,6.359,1.279,6.359,6.684v16.863H23.28v-16.539c0-5.729,1.28-6.99,6.36-6.99v-1.603H7.047v1.585
	c5.098,0,6.36,1.586,6.36,6.991v36.266c0,6.992-0.955,8.271-6.36,8.271v1.585h22.897v-1.585c-5.404,0-6.358-0.955-6.358-7.314
	v-17.188L46.503,200.306L46.503,200.306z"/>
</svg>
