<?xml version="1.0" encoding="utf-8"?>
<!-- Generator: Adobe Illustrator 16.0.3, SVG Export Plug-In . SVG Version: 6.00 Build 0)  -->
<!DOCTYPE svg PUBLIC "-//W3C//DTD SVG 1.1//EN" "http://www.w3.org/Graphics/SVG/1.1/DTD/svg11.dtd">
<svg version="1.1" id="Ebene_1" xmlns="http://www.w3.org/2000/svg" xmlns:xlink="http://www.w3.org/1999/xlink" x="0px" y="0px"
	 width="400px" height="216px" viewBox="0 92 400 216" enable-background="new 0 92 400 216" xml:space="preserve">
<g id="g2418">
	<g id="g2524" transform="translate(27.9331,810.6199)">
		<path id="path2526" fill="#0D4479" d="M52.54-648.884c-4.689,0-8.418,3.73-8.418,8.312c0,4.687,3.729,8.418,8.313,8.418
			c4.688,0,8.418-3.731,8.418-8.418C60.851-645.154,57.121-648.884,52.54-648.884 M46.254-576.003c0,1.599,0.212,1.813,1.811,1.813
			h9.59c1.493,0,1.705-0.214,1.705-1.813v-47.521c0-1.6-0.212-1.813-1.705-1.813H38.367c-1.49,0-1.704,0.213-1.704,1.813v5.967
			c0,1.596,0.215,1.81,1.704,1.81h7.887V-576.003z"/>
	</g>
	<g id="g2528" transform="translate(34.7585,801.2955)">
		<path id="path2530" fill="#0D4479" d="M62.951-616.011c-1.6,0-1.811,0.105-1.811,1.704v6.073c0,1.493,0.212,1.705,1.811,1.705
			h7.033v27.169c0,5.011,0.319,6.929,1.49,9.484c2.024,4.369,6.501,6.818,12.574,6.818c3.941,0,8.525-0.959,12.146-2.449
			c1.066-0.426,1.493-0.854,1.493-1.705c0-0.213,0-0.319-0.107-0.533l-0.107-0.532l-1.705-7.245
			c-0.212-0.746-0.531-1.064-1.065-1.064c-0.212,0-0.533,0-0.851,0.213c-3.837,1.492-4.796,1.705-6.818,1.705
			c-3.196,0-3.836-1.172-3.836-6.605v-25.255h10.229c1.172,0,1.6-0.212,1.813-1.493l1.384-6.071c0-0.214,0.107-0.32,0.107-0.426
			v-0.427c0-0.851-0.321-1.065-1.705-1.065H83.197v-14.597c0-1.281-0.32-1.813-1.064-1.813c-0.109,0-0.217,0.109-0.534,0.109h-0.32
			l-9.59,1.384c-1.493,0.212-1.705,0.426-1.705,1.811v13.107L62.951-616.011L62.951-616.011L62.951-616.011z"/>
	</g>
	<g id="g2532" transform="translate(58.9952,798.2576)">
		<path id="path2534" fill="#C6C7C6" d="M99.922-605.302c5.219,0,7.244,3.197,7.46,11.828H91.183
			C92.144-601.999,94.487-605.302,99.922-605.302 M118.782-583.885c1.918,0,2.342-0.532,2.342-2.666
			c0-18.751-6.818-28.234-20.564-28.234c-13.637,0-22.589,11.081-22.589,27.809c0,17.476,8.1,26.957,23.123,26.957
			c4.581,0,8.632-0.744,12.896-2.343c4.261-1.6,5.753-2.557,5.753-3.836c0-0.319-0.106-0.532-0.321-1.173l-2.663-6.07
			c-0.211-0.645-0.639-0.961-1.172-0.961c-0.318,0-0.745,0.107-1.278,0.426c-4.047,2.127-7.99,3.197-11.935,3.197
			c-7.563,0-11.188-4.261-11.4-13.104L118.782-583.885L118.782-583.885z"/>
	</g>
	<g id="g2536" transform="translate(80.3869,797.7935)">
		<path id="path2538" fill="#C6C7C6" d="M132.553-603.665c3.624,0,4.689,1.918,4.689,8.737v31.752c0,1.6,0.214,1.813,1.811,1.813
			h9.482c1.493,0,1.704-0.216,1.704-1.813v-36.121c3.73-3.409,6.071-4.689,8.949-4.689c3.409,0,4.692,2.132,4.692,8.101v32.711
			c0,1.599,0.211,1.813,1.704,1.813h9.482c1.489,0,1.81-0.215,1.81-1.813v-33.99c0-6.5-0.425-8.95-1.917-11.936
			c-1.6-3.303-5.223-5.219-9.909-5.219c-5.753,0-10.018,1.917-15.878,7.246c-2.345-4.902-5.967-7.246-11.4-7.246
			c-5.647,0-9.696,2.023-15.344,7.246c-0.961-4.476-2.236-7.353-3.304-7.353c-0.214,0-0.638,0-1.066,0.212l-8.416,2.771
			c-0.854,0.321-1.171,0.638-1.171,1.172c0,0.32,0.105,0.745,0.317,1.17c1.599,3.943,1.92,5.862,1.92,11.191v34.734
			c0,1.6,0.212,1.813,1.705,1.813h9.482c1.6,0,1.81-0.215,1.81-1.813v-36.121C127.228-602.388,129.889-603.665,132.553-603.665"/>
	</g>
	<g id="g2540" transform="translate(105.6235,810.6199)">
		<path id="path2542" fill="#C6C7C6" d="M171.049-648.884c4.69,0,8.417,3.73,8.417,8.312c0,4.687-3.727,8.418-8.311,8.418
			c-4.688,0-8.417-3.731-8.417-8.418C162.738-645.154,166.469-648.884,171.049-648.884 M177.335-576.003
			c0,1.599-0.213,1.813-1.811,1.813h-9.589c-1.492,0-1.705-0.214-1.705-1.813v-47.521c0-1.6,0.213-1.813,1.705-1.813h19.288
			c1.485,0,1.703,0.213,1.703,1.813v5.967c0,1.596-0.217,1.81-1.703,1.81h-7.89L177.335-576.003L177.335-576.003z"/>
	</g>
	<g id="g2544" transform="translate(114.0612,782.8572)">
		<path id="path2546" fill="#C6C7C6" d="M183.92-551.01c0,0.533,0.426,0.959,1.171,1.492c5.438,2.981,12.471,4.903,18.649,4.903
			c10.548,0,17.688-6.821,17.688-16.729c0-3.623-1.174-6.928-3.197-9.485c-2.345-2.771-4.476-4.049-13.106-7.353
			c-5.751-2.235-6.923-3.195-6.923-6.071c0-3.304,2.448-5.222,6.712-5.222c2.771,0,6.499,0.959,10.44,2.664
			c0.319,0.105,0.64,0.214,0.853,0.214c0.426,0,0.639-0.214,0.959-0.959l2.663-5.861c0.214-0.534,0.32-0.851,0.32-1.066
			c0-0.533-0.32-0.851-0.854-1.172c-3.621-2.131-10.123-3.727-15.021-3.727c-10.87,0-18.541,7.03-18.541,16.834
			c0,3.623,1.171,6.925,3.303,9.271c2.026,2.449,4.264,3.621,11.722,6.498c6.712,2.561,7.993,3.625,7.993,6.607
			c0,3.197-2.452,5.328-6.073,5.328c-3.941,0-8.526-1.387-14.066-4.369c-0.319-0.215-0.745-0.319-0.957-0.319
			c-0.428,0-0.854,0.319-1.067,0.958l-2.344,6.287C184.027-551.542,183.92-551.329,183.92-551.01"/>
	</g>
</g>
</svg>
