<?xml version="1.0" encoding="utf-8"?>
<!-- Generator: Adobe Illustrator 16.0.3, SVG Export Plug-In . SVG Version: 6.00 Build 0)  -->
<!DOCTYPE svg PUBLIC "-//W3C//DTD SVG 1.1//EN" "http://www.w3.org/Graphics/SVG/1.1/DTD/svg11.dtd">
<svg version="1.1" id="Ebene_1" xmlns="http://www.w3.org/2000/svg" xmlns:xlink="http://www.w3.org/1999/xlink" x="0px" y="0px"
	 width="400px" height="216px" viewBox="0 92 400 216" enable-background="new 0 92 400 216" xml:space="preserve">
<title>barmenia</title>
<g>
	<g>
		<path fill="#BCBCBB" d="M22.1,159.408v17.579h37.302c-15.466,15.271-43.104,42.512-43.104,42.512l12.369,12.775
			c0,0,32.47-32.673,49.874-50.067v49.856h17.198v-72.655H22.1z"/>
		<path fill="#BCBCBB" d="M61.718,208.882c6.406,0,11.6,5.201,11.6,11.607c0,6.391-5.193,11.574-11.6,11.574
			c-6.407,0-11.6-5.185-11.6-11.574C50.118,214.084,55.312,208.882,61.718,208.882z"/>
	</g>
	<g>
		<path fill="#1D1D1B" d="M342.155,189.747c-0.566,0.963-1.928,1.938-3.661,1.938c-2.319,0-3.098-1.355-3.098-2.708
			c0-1.547,1.17-2.512,3.098-2.512c1.929,0,2.706,0.194,3.661,0.769V189.747z M347.57,195.735v-13.528
			c0-4.636-3.292-7.149-8.314-7.149c-3.277,0-5.201,0.771-7.717,2.124l2.124,3.672c1.93-0.965,3.081-1.354,5.593-1.354
			c1.944,0,2.899,1.158,2.899,2.513v0.973c-0.777-0.389-2.123-0.778-3.855-0.778c-4.638,0-8.318,2.318-8.318,6.768
			c0,4.831,3.858,7.344,7.537,7.344c1.947,0,3.682-0.77,4.637-1.744v1.16H347.57z"/>
		<path fill="#1D1D1B" d="M378.305,195.735V174.29l-5.608,2.893v-5.219l6.583-3.478h4.424v27.066h-5.398V195.735z"/>
		<path fill="#1D1D1B" d="M146.955,177.378c0,2.317-1.354,3.476-3.867,3.476h-5.795v-6.954h5.6
			C145.407,173.9,146.955,175.059,146.955,177.378z M152.555,177.182c0-5.793-4.247-8.697-9.271-8.697h-11.21v27.065h5.407v-9.67
			h5.414C148.308,186.074,152.555,183.562,152.555,177.182z"/>
		<path fill="#1D1D1B" d="M166.083,181.633c-0.77-0.779-1.929-1.354-3.089-1.354c-2.124,0-3.476,0.963-3.476,4.44v11.016h-5.415
			v-20.286h5.415v1.353c0.963-0.972,2.318-1.743,4.247-1.743c1.744,0,3.096,0.771,3.673,1.354L166.083,181.633z"/>
		<path fill="#1D1D1B" d="M181.158,185.685c0,2.901-1.158,5.414-3.856,5.414c-2.514,0-3.681-2.318-3.681-5.414
			c0-3.088,1.166-5.405,3.681-5.405C180.001,180.085,181.158,182.596,181.158,185.685z M186.768,185.685
			c0-6.184-3.867-10.626-9.28-10.626c-5.211,0-9.272,4.442-9.272,10.626c0,6.194,3.866,10.635,9.272,10.635
			C182.706,196.125,186.768,191.878,186.768,185.685z"/>
		<path fill="#1D1D1B" d="M198.941,196.125c-4.44,0-8.502-1.93-10.625-4.83l3.866-3.478c1.93,2.124,4.247,3.087,6.953,3.087
			c3.282,0,4.637-0.964,4.637-2.893c0-1.743-0.964-2.513-5.988-3.672c-5.028-1.169-8.504-2.707-8.504-8.123
			c0-4.829,4.257-7.926,9.661-7.926c4.256,0,7.345,1.549,9.857,4.255l-3.867,3.866c-1.733-1.743-3.671-2.707-6.184-2.707
			c-2.892,0-3.857,1.159-3.857,2.514c0,1.743,1.159,2.318,5.407,3.282c4.253,0.974,9.083,2.513,9.083,8.316
			C209.764,192.647,206.481,196.125,198.941,196.125z"/>
		<path fill="#1D1D1B" d="M216.344,173.705c-1.733,0-3.098-1.354-3.098-3.088c0-1.744,1.364-3.096,3.098-3.096
			c1.735,0,3.079,1.353,3.079,3.096C219.423,172.351,217.884,173.705,216.344,173.705z M213.619,195.735v-20.287h5.414v20.286
			L213.619,195.735L213.619,195.735z"/>
		<path fill="#1D1D1B" d="M235.669,183.367h-6.974c0.212-2.125,1.363-3.672,3.292-3.672
			C234.323,179.695,235.473,181.438,235.669,183.367z M240.694,185.685c0-5.795-3.099-10.626-8.494-10.626
			c-5.24,0-9.096,4.442-9.096,10.626c0,6.379,3.682,10.635,9.66,10.635c2.707,0,5.61-1.16,7.347-3.283l-3.876-3.095
			c-0.762,0.964-1.911,1.355-3.471,1.355c-1.93,0-4.068-0.966-4.245-3.866h12.175C240.694,186.852,240.694,186.464,240.694,185.685z
			"/>
		<path fill="#1D1D1B" d="M256.938,185.88c0,3.485-1.168,5.218-3.115,5.218c-1.521,0-2.689-0.574-3.663-1.732v-7.733
			c0.777-0.975,1.538-1.745,3.291-1.745C255.573,180.085,256.938,181.827,256.938,185.88z M262.529,185.88
			c0-7.539-3.469-10.822-7.925-10.822c-1.931,0-3.293,0.771-4.248,1.743v-8.891h-5.415v27.825h5.415v-1.161
			c0.955,0.975,2.514,1.549,4.248,1.549C259.627,196.125,262.529,191.878,262.529,185.88z"/>
		<path fill="#1D1D1B" d="M277.605,183.367h-6.954c0.194-2.125,1.362-3.672,3.272-3.672
			C276.261,179.695,277.41,181.438,277.605,183.367z M282.631,185.685c0-5.795-3.08-10.626-8.495-10.626
			c-5.237,0-9.095,4.442-9.095,10.626c0,6.379,3.68,10.635,9.662,10.635c2.707,0,5.608-1.16,7.36-3.283l-3.875-3.095
			c-0.778,0.964-1.928,1.355-3.485,1.355c-1.93,0-4.053-0.966-4.247-3.866h12.175C282.631,186.852,282.631,186.464,282.631,185.685z
			"/>
		<path fill="#1D1D1B" d="M298.662,195.735V184.72c0-3.671-1.151-4.635-3.469-4.635c-2.125,0-3.469,1.158-3.469,4.635v11.016h-5.415
			v-20.287h5.415v1.353c0.956-0.972,2.689-1.743,4.814-1.743c5.237,0,7.536,3.477,7.536,9.28v11.396L298.662,195.735
			L298.662,195.735z"/>
		<path fill="#1D1D1B" d="M317.029,196.125c-4.441,0-8.493-1.93-10.613-4.83l3.856-3.478c1.946,2.124,4.248,3.087,6.971,3.087
			c3.275,0,4.637-0.964,4.637-2.893c0-1.743-0.976-2.513-6.002-3.672c-5.024-1.168-8.508-2.706-8.508-8.121
			c0-4.83,4.244-7.926,9.659-7.926c4.247,0,7.362,1.548,9.874,4.254l-3.874,3.866c-1.751-1.743-3.664-2.707-6.176-2.707
			c-2.899,0-3.873,1.16-3.873,2.514c0,1.743,1.147,2.318,5.413,3.282c4.246,0.973,9.076,2.513,9.076,8.316
			C327.663,192.647,324.567,196.125,317.029,196.125z"/>
		<path fill="#1D1D1B" d="M364.771,195.55c0,0-3.08,0.77-5.203,0.77c-3.289,0-5.414-2.513-5.414-6.185v-9.661h-3.483v-5.025h3.483
			v-6.77h5.414v6.77h4.814v5.025h-4.814v8.113c0,2.318,0.76,2.513,1.91,2.513c0.976,0,2.516-0.195,3.293-0.39V195.55L364.771,195.55
			z"/>
		<path fill="#1D1D1B" d="M371.53,196.125c-1.912,0-3.468-1.549-3.468-3.477c0-1.938,1.556-3.478,3.468-3.478
			c1.947,0,3.486,1.54,3.486,3.478C375.016,194.576,373.477,196.125,371.53,196.125z"/>
		<g>
			<g>
				<path fill="#E40040" d="M145.602,205.201c1.742,0.586,3.086,1.735,4.255,3.486c0.964,1.362,1.541,2.901,1.735,4.44
					c0.388,1.557,0.388,3.097,0.388,4.636c0,3.68-0.583,6.761-1.938,9.273c-1.734,3.503-4.634,5.237-8.307,5.237h-10.82v-27.639
					h10.82C143.284,204.636,144.442,204.813,145.602,205.201z M135.94,209.271v17.98h4.831c2.513,0,4.245-1.363,5.22-4.072
					c0.575-1.538,0.769-3.288,0.769-5.2c0-2.901-0.389-5.026-1.158-6.389c-0.771-1.539-2.319-2.319-4.832-2.319H135.94z"/>
				<path fill="#E40040" d="M156.042,211.784h4.83v20.28h-4.83V211.784z"/>
				<path fill="#E40040" d="M189.671,203.663c1.494,0,2.706,1.222,2.706,2.705c0,1.486-1.212,2.707-2.706,2.707
					c-1.496,0-2.708-1.221-2.708-2.707C186.962,204.886,188.175,203.663,189.671,203.663z"/>
				<path fill="#E40040" d="M174.974,211.784c1.16,0.567,2.131,1.54,2.903,2.901v-2.901h4.635v19.323c0,2.708-0.38,4.637-1.16,5.981
					c-1.352,2.336-4.05,3.503-7.917,3.503c-0.194,0-0.584,0-0.779,0c0-0.991,0-2.726,0-4.069c0.389,0,0.779,0,1.159,0
					c1.743,0,2.9-0.583,3.486-1.946c0.381-0.759,0.575-2.123,0.575-4.035v-1.361c-0.389,0.974-0.966,1.54-1.549,1.929
					c-0.964,0.779-2.124,1.169-3.672,1.169c-2.318,0-4.247-0.975-5.6-2.727c-1.355-1.908-2.134-4.245-2.134-7.538
					c0-3.078,0.779-5.591,2.134-7.537c1.352-2.123,3.282-3.078,5.794-3.078C173.436,211.2,174.399,211.396,174.974,211.784z
					 M176.717,226.277c0.771-0.975,1.16-2.513,1.16-4.442c0-1.944-0.389-3.484-1.16-4.46c-0.769-0.955-1.743-1.537-2.9-1.537
					c-1.734,0-2.895,0.972-3.477,2.706c-0.389,0.955-0.575,2.123-0.575,3.468c0,1.167,0.187,2.336,0.575,3.114
					c0.583,1.733,1.743,2.514,3.477,2.514C174.974,227.641,175.948,227.251,176.717,226.277z"/>
				<path fill="#E40040" d="M187.539,211.784h4.838v20.28h-4.838V211.784z"/>
				<g>
					<path fill="#E40040" d="M158.164,203.663c1.496,0,2.706,1.222,2.706,2.705c0,1.486-1.21,2.707-2.706,2.707
						c-1.496,0-2.707-1.221-2.707-2.707C155.457,204.886,156.669,203.663,158.164,203.663z"/>
				</g>
				<path fill="#E40040" d="M195.466,215.643v-3.858h2.512v-7.343h4.831v7.343h3.096v3.858h-3.096v10.829
					c0,0.779,0,1.346,0.194,1.557c0.194,0.176,0.77,0.371,1.743,0.371c0.185,0,0.381,0,0.381,0c0.194,0,0.392,0,0.392,0v4.052
					h-2.321c-2.317,0-3.864-0.389-4.635-1.346c-0.584-0.565-0.778-1.557-0.778-2.901v-12.562H195.466z"/>
				<path fill="#E40040" d="M216.523,219.713c0.972-0.214,1.557-0.214,1.945-0.39c0.779-0.391,0.955-0.779,0.955-1.559
					c0-0.777-0.176-1.345-0.777-1.733c-0.566-0.389-1.346-0.389-2.302-0.389c-1.169,0-1.945,0.389-2.515,0.973
					c-0.389,0.372-0.584,1.149-0.778,1.93h-4.635c0.186-1.735,0.574-3.292,1.346-4.441c1.344-1.751,3.483-2.706,6.582-2.706
					c2.124,0,3.857,0.389,5.416,1.344c1.538,0.974,2.301,2.513,2.301,5.024v9.272c0,0.603,0,1.362,0,2.335
					c0,0.779,0.211,1.168,0.211,1.346c0.178,0.195,0.389,0.389,0.761,0.583v0.763h-5.219c-0.177-0.371-0.177-0.763-0.391-1.15
					c-0.176-0.373-0.176-0.762-0.176-1.15c-0.602,0.777-1.363,1.538-2.336,2.123c-0.955,0.566-2.301,0.955-3.469,0.955
					c-1.733,0-3.096-0.565-4.257-1.54c-1.158-0.972-1.743-2.512-1.743-4.441c0-2.512,0.976-4.245,2.708-5.415
					c0.955-0.582,2.318-0.955,4.246-1.344L216.523,219.713z M219.423,222.226c-0.39,0.177-0.567,0.389-0.955,0.564
					c-0.389,0.214-0.778,0.214-1.344,0.389l-1.168,0.196c-0.976,0.196-1.734,0.391-2.125,0.779
					c-0.778,0.584-1.168,1.149-1.168,2.318c0,0.955,0.195,1.557,0.779,1.928c0.389,0.39,0.956,0.585,1.734,0.585
					c0.955,0,1.947-0.39,2.902-0.955c0.954-0.602,1.344-1.946,1.344-3.682V222.226L219.423,222.226z"/>
				<path fill="#E40040" d="M233.72,232.063h-4.813v-27.428h4.813V232.063z"/>
			</g>
		</g>
	</g>
</g>
</svg>
