<?xml version="1.0" encoding="utf-8"?>
<!-- Generator: Adobe Illustrator 16.0.3, SVG Export Plug-In . SVG Version: 6.00 Build 0)  -->
<!DOCTYPE svg PUBLIC "-//W3C//DTD SVG 1.1//EN" "http://www.w3.org/Graphics/SVG/1.1/DTD/svg11.dtd">
<svg version="1.1" id="Ebene_1" xmlns="http://www.w3.org/2000/svg" xmlns:xlink="http://www.w3.org/1999/xlink" x="0px" y="0px"
	 width="400px" height="216px" viewBox="0 92 400 216" enable-background="new 0 92 400 216" xml:space="preserve">
<path fill="#1A171B" d="M354.053,140.695c9.98,0,19.966,0.143,29.941-0.06c5.194-0.106,11.058,4.05,12.218,10.397
	c0.587,3.209,0.052,6.215-1.591,9.066c-10.014,17.386-19.994,34.791-29.996,52.184c-2.884,5.017-8.83,6.536-13.451,3.464
	c-4.149-2.757-5.381-8.118-2.833-12.58c5.013-8.774,10.059-17.528,15.092-26.291c2.706-4.714,5.404-9.432,8.13-14.134
	c0.502-0.865,0.677-1.68,0.109-2.562c-0.446-0.694-1.095-0.842-1.886-0.841c-14.26,0.017-28.52,0.021-42.777,0.001
	c-1.821-0.003-3.654,0.185-5.468-0.183c-4.81-0.973-7.895-5.302-7.38-10.369c0.455-4.473,4.521-8.082,9.179-8.089
	C333.577,140.684,343.815,140.695,354.053,140.695z"/>
<path fill="#1A171B" d="M267.561,206.965c-2.172,1.229-4.282,2.279-6.563,2.938c-3.48,1.01-7.008,1.463-10.606,0.797
	c-3.762-0.698-6.097-2.988-7.051-6.649c-0.756-2.909-0.705-5.864-0.151-8.807c0.767-4.082,3.413-6.196,7.345-6.928
	c1.587-0.295,3.188-0.401,4.8-0.402c3.657-0.001,7.313,0.005,10.97-0.009c0.368-0.001,0.923,0.257,0.915-0.532
	c-0.036-2.924,0.125-5.862-0.1-8.771c-0.296-3.827-2.378-5.628-6.482-6.104c-4.894-0.568-9.701,0.121-14.487,0.988
	c-0.842,0.151-1.143,0.012-1.148-0.822c-0.002-0.322-0.119-0.644-0.174-0.968c-0.388-2.273-0.397-2.331,1.935-2.794
	c5.631-1.119,11.301-1.618,16.968-0.329c5.171,1.177,7.995,4.607,8.354,9.881c0.044,0.656,0.069,1.315,0.069,1.972
	c0.005,9.544-0.009,19.086,0.024,28.63c0.004,0.914-0.242,1.229-1.151,1.133c-1.012-0.104-2.305,0.398-2.976-0.188
	C267.404,209.434,267.704,208.1,267.561,206.965z"/>
<path fill="#1A171B" d="M137.286,190.928c-3.875,0-7.751,0.044-11.627-0.029c-1.056-0.021-1.258,0.324-1.221,1.278
	c0.082,2.081-0.011,4.165,0.154,6.248c0.402,5.035,3.033,7.667,8.059,8.097c5.023,0.431,9.909-0.36,14.744-1.588
	c0.785-0.201,1.117-0.166,1.196,0.729c0.07,0.793,0.306,1.574,0.508,2.352c0.12,0.456,0.096,0.739-0.435,0.903
	c-6.412,1.983-12.94,2.829-19.563,1.454c-5.397-1.12-8.616-5.053-9.322-10.811c-0.457-3.718-0.201-7.45-0.221-11.175
	c-0.015-2.92-0.182-5.847,0.191-8.764c0.828-6.483,4.589-10.424,11.084-11.453c2.938-0.466,5.896-0.479,8.833,0.128
	c5.953,1.228,9.498,5.128,10.186,11.17c0.412,3.61,0.108,7.232,0.229,10.848c0.023,0.729-0.408,0.614-0.839,0.614
	C145.258,190.928,141.271,190.928,137.286,190.928z"/>
<g>
	<path fill="#1A171B" d="M71.064,179.299c-0.728-5.766-4.066-9.618-9.575-10.883c-3.794-0.872-7.625-0.822-11.392,0.191
		c-4.347,1.169-7.251,3.918-8.553,8.267c-0.462,1.543-0.736,3.129-0.745,4.745c-0.021,4.386-0.023,8.771-0.029,13.156
		c-0.003,1.644,0.028,3.283,0.246,4.92c0.789,5.934,4.119,9.579,9.968,10.833c2.195,0.475,4.419,0.494,6.651,0.44
		c4.112-0.1,8.131-0.722,12.053-1.987c0.624-0.201,0.822-0.416,0.609-1.071c-0.235-0.724-0.418-1.486-0.479-2.242
		c-0.071-0.896-0.409-0.935-1.194-0.733c-4.796,1.217-9.644,2.006-14.627,1.599c-5.126-0.419-7.729-2.987-8.175-8.09
		c-0.19-2.191-0.075-4.384-0.157-6.573c-0.029-0.785,0.222-0.964,0.976-0.958c3.91,0.038,7.821,0.018,11.731,0.018
		c4.02,0,8.04,0.003,12.06-0.006c0.388,0,0.901,0.207,0.879-0.563C71.201,186.673,71.53,182.977,71.064,179.299z"/>
</g>
<path fill="#1A171B" d="M162.384,189.392c0-6.469,0.032-12.939-0.03-19.408c-0.01-1.104,0.321-1.419,1.338-1.267
	c0.395,0.059,0.804,0.009,1.205,0.009c1.923,0,1.923,0,2.049,1.982c0.108,1.72,0.103,1.702,1.69,1.039
	c4.15-1.734,8.394-3.156,12.877-3.744c1.419-0.187,2.854-0.229,4.266-0.034c4.148,0.571,6.532,3.226,6.834,7.547
	c0.06,0.838,0.074,1.68,0.074,2.521c0.006,10.307-0.013,20.614,0.029,30.923c0.005,1.031-0.291,1.328-1.274,1.233
	c-0.87-0.082-1.76-0.084-2.629,0.002c-0.916,0.093-1.059-0.288-1.057-1.104c0.026-10.527,0.017-21.055,0.016-31.581
	c0-0.439,0.015-0.879-0.021-1.315c-0.193-2.316-1.491-3.564-3.816-3.696c-2.108-0.12-4.135,0.336-6.157,0.848
	c-3.296,0.835-6.479,1.973-9.556,3.422c-0.65,0.306-0.873,0.664-0.871,1.396c0.029,10.271,0.008,20.542,0.041,30.813
	c0.003,0.922-0.153,1.34-1.176,1.217c-0.829-0.098-1.688-0.088-2.519-0.002c-1.026,0.108-1.352-0.182-1.342-1.283
	C162.415,202.404,162.384,195.899,162.384,189.392z"/>
<path fill="#67A82F" d="M343.128,166.927c4.604,0,9.209-0.003,13.813,0.002c1.753,0.002,2.43,1.147,1.548,2.686
	c-4.605,8.043-9.225,16.08-13.851,24.112c-0.782,1.359-2.228,1.353-3.015-0.012c-4.629-8.03-9.251-16.064-13.862-24.105
	c-0.878-1.532-0.195-2.679,1.557-2.681C333.921,166.924,338.524,166.927,343.128,166.927z"/>
<path fill="#1A171B" d="M17.327,210.996c-4.468-0.016-8.256-0.451-11.908-1.786c-0.617-0.226-0.909-0.412-0.657-1.146
	c0.259-0.752,0.377-1.56,0.495-2.353c0.096-0.647,0.293-0.842,0.997-0.632c3.989,1.197,8.076,1.637,12.234,1.436
	c1.098-0.055,2.184-0.185,3.252-0.438c2.244-0.529,3.316-1.652,3.683-3.923c0.323-2,0.342-4.026,0-6.008
	c-0.324-1.887-1.789-2.903-3.485-3.437c-2.188-0.688-4.43-1.203-6.652-1.78c-1.766-0.459-3.516-0.955-5.188-1.702
	c-2.987-1.336-4.927-3.404-5.151-6.854c-0.128-1.974-0.301-3.951-0.052-5.908c0.58-4.567,3.041-7.228,7.655-8.075
	c5.65-1.036,11.271-0.606,16.843,0.725c0.564,0.135,0.688,0.359,0.591,0.896c-0.154,0.862-0.321,1.735-0.329,2.605
	c-0.007,0.864-0.419,0.829-1.036,0.706c-3.813-0.754-7.662-1.093-11.547-1.027c-1.208,0.02-2.405,0.129-3.587,0.398
	c-2.238,0.509-3.217,1.492-3.583,3.71c-0.325,1.965-0.215,3.926,0.125,5.887c0.248,1.434,1.037,2.35,2.353,2.91
	c2.327,0.99,4.789,1.523,7.205,2.215c1.717,0.491,3.438,0.975,5.119,1.575c3.801,1.358,5.67,3.979,5.789,8.003
	c0.051,1.717,0.167,3.444-0.072,5.147c-0.743,5.273-3.164,7.683-8.458,8.508C20.223,210.926,18.47,210.964,17.327,210.996z"/>
<path fill="#1A171B" d="M95.314,206.557c4.175-12.332,8.306-24.469,12.367-36.627c0.337-1.009,0.777-1.293,1.763-1.223
	c1.19,0.085,2.392,0.02,3.711,0.02c-1.106,3.271-2.169,6.407-3.231,9.542c-3.495,10.313-7.002,20.625-10.466,30.95
	c-0.257,0.769-0.591,0.999-1.371,0.978c-1.898-0.057-3.8-0.041-5.699-0.004c-0.594,0.012-0.907-0.133-1.111-0.736
	c-4.476-13.29-8.965-26.575-13.482-39.851c-0.281-0.827-0.026-0.918,0.686-0.887c0.985,0.042,1.981,0.09,2.957-0.013
	c0.933-0.098,1.232,0.307,1.503,1.121c3.938,11.818,7.91,23.625,11.877,35.432C94.944,205.633,95.1,205.998,95.314,206.557z"/>
<path fill="#1A171B" d="M236.41,168.726c-0.661,1.977-1.277,3.836-1.906,5.691c-3.932,11.595-7.87,23.187-11.779,34.788
	c-0.248,0.736-0.561,1.023-1.362,0.994c-1.898-0.067-3.804-0.055-5.703-0.006c-0.674,0.02-0.926-0.221-1.134-0.842
	c-4.458-13.226-8.931-26.444-13.438-39.653c-0.308-0.899-0.096-1.04,0.744-0.986c0.983,0.063,1.979,0.074,2.959-0.004
	c0.809-0.064,1.125,0.25,1.375,0.996c3.945,11.821,7.924,23.63,11.898,35.44c0.137,0.406,0.178,0.858,0.563,1.261
	c1.58-4.652,3.143-9.25,4.699-13.85c2.578-7.629,5.16-15.258,7.718-22.894c0.228-0.681,0.497-1.007,1.287-0.957
	C233.638,168.787,234.954,168.726,236.41,168.726z"/>
<path fill="#1A171B" d="M290.699,151.089c0,0.454,0,0.848,0,1.244c0,18.861-0.011,37.723,0.026,56.583
	c0.002,1.093-0.292,1.381-1.327,1.279c-0.978-0.094-1.973-0.043-2.959-0.01c-0.53,0.019-0.734-0.18-0.689-0.695
	c0.021-0.254,0.004-0.512,0.004-0.766c0-18.535,0.007-37.066-0.021-55.6c-0.001-0.98,0.093-1.54,1.288-1.552
	C288.215,151.562,289.403,151.271,290.699,151.089z"/>
<path fill="#1A171B" d="M175.747,256.141c0-4.494,0.026-8.99-0.024-13.484c-0.01-0.899,0.272-1.094,1.097-1.059
	c0.724,0.033,1.153,0.014,1.142,1.006c-0.062,5.227-0.042,10.455-0.012,15.682c0.003,0.699-0.184,0.842-0.887,0.926
	c-1.669,0.194-2.565-0.383-3.301-1.96c-1.846-3.961-3.93-7.812-5.92-11.706c-0.156-0.307-0.325-0.605-0.658-0.865
	c0,1.334,0,2.668,0,4.002c0,3.254-0.035,6.506,0.021,9.76c0.017,0.951-0.554,0.748-1.052,0.722
	c-0.496-0.022-1.174,0.327-1.166-0.729c0.042-5.336,0.028-10.672,0.007-16.009c-0.002-0.597,0.145-0.75,0.771-0.833
	c1.741-0.23,2.68,0.362,3.455,2.039c1.965,4.254,4.204,8.381,6.333,12.559C175.616,256.171,175.682,256.154,175.747,256.141z"/>
<path fill="#1A171B" d="M200.559,250.375c0,1.168,0.006,2.339-0.002,3.507c-0.018,3.108-1.52,4.925-4.584,5.42
	c-1.447,0.236-2.917,0.207-4.351-0.174c-2.153-0.573-3.57-2.146-3.685-4.487c-0.136-2.807-0.146-5.631-0.007-8.435
	c0.127-2.579,1.632-4.112,4.182-4.628c1.746-0.352,3.49-0.334,5.188,0.256c1.945,0.676,3.165,2.314,3.235,4.375
	c0.049,1.389,0.01,2.777,0.01,4.166C200.549,250.375,200.555,250.375,200.559,250.375z"/>
<path fill="#1A171B" d="M241.365,250.432c0,1.135,0.004,2.268-0.002,3.397c-0.015,3.142-1.473,4.938-4.533,5.464
	c-1.483,0.253-2.991,0.223-4.457-0.182c-2.206-0.604-3.579-2.293-3.668-4.746c-0.094-2.629-0.097-5.264-0.003-7.893
	c0.098-2.728,1.593-4.373,4.274-4.904c1.669-0.33,3.341-0.318,4.977,0.218c2.071,0.679,3.323,2.313,3.392,4.481
	c0.045,1.387,0.008,2.776,0.008,4.164C241.357,250.432,241.361,250.432,241.365,250.432z"/>
<path fill="#1A171B" d="M154.925,250.436c0,2.598-0.063,5.194,0.031,7.787c0.038,1.053-0.486,0.948-1.178,0.967
	c-0.752,0.021-1.171-0.039-1.127-1.014c0.092-2.043,0.007-4.092,0.041-6.139c0.012-0.605-0.135-0.822-0.778-0.811
	c-2.046,0.041-4.096,0.043-6.142,0c-0.669-0.017-0.872,0.157-0.856,0.844c0.047,2.084-0.043,4.171,0.041,6.25
	c0.048,1.185-0.72,0.796-1.291,0.851c-0.619,0.06-1.071,0.08-1.063-0.848c0.05-5.3,0.052-10.603,0-15.901
	c-0.01-1.008,0.57-0.814,1.115-0.791c0.538,0.021,1.278-0.336,1.235,0.788c-0.074,1.972,0.008,3.947-0.036,5.921
	c-0.017,0.686,0.202,0.869,0.868,0.855c2.01-0.041,4.021-0.053,6.03,0.005c0.78,0.022,0.889-0.289,0.875-0.952
	c-0.034-1.938,0.047-3.877-0.037-5.811c-0.042-0.979,0.523-0.842,1.089-0.812c0.544,0.026,1.238-0.308,1.208,0.806
	C154.874,245.098,154.925,247.77,154.925,250.436z"/>
<path fill="#1A171B" d="M103.357,250.391c0-2.595,0.04-5.189-0.021-7.781c-0.021-0.853,0.241-1.021,1.039-1.008
	c2.813,0.049,5.628,0.063,8.439-0.006c0.897-0.021,0.885,0.393,0.883,1.039c0,0.65,0.012,1.075-0.884,1.043
	c-2.081-0.072-4.166,0.008-6.248-0.039c-0.731-0.018-0.949,0.209-0.917,0.928c0.056,1.242,0.053,2.485,0,3.728
	c-0.026,0.667,0.159,0.878,0.849,0.861c1.936-0.048,3.875,0.034,5.809-0.037c0.959-0.037,0.836,0.514,0.843,1.106
	c0.007,0.586,0.044,1.045-0.822,1.016c-1.972-0.067-3.946-0.004-5.92-0.032c-0.555-0.008-0.772,0.124-0.756,0.726
	c0.042,1.459,0.046,2.924-0.001,4.383c-0.021,0.683,0.206,0.867,0.871,0.854c2.118-0.041,4.241,0.038,6.357-0.039
	c0.949-0.033,0.839,0.48,0.842,1.077c0.002,0.576,0.064,1.011-0.812,0.991c-2.923-0.066-5.848-0.042-8.77-0.012
	c-0.621,0.006-0.8-0.174-0.793-0.795C103.375,255.727,103.357,253.059,103.357,250.391z"/>
<path fill="#1A171B" d="M284.793,250.357c0-2.631,0.021-5.262-0.016-7.894c-0.01-0.668,0.156-0.87,0.846-0.86
	c2.886,0.039,5.772,0.061,8.657-0.008c0.949-0.022,0.812,0.479,0.852,1.07c0.047,0.708-0.08,1.036-0.917,1.009
	c-2.08-0.063-4.164,0.002-6.247-0.034c-0.65-0.011-0.911,0.151-0.884,0.849c0.05,1.276,0.06,2.561-0.003,3.835
	c-0.036,0.725,0.25,0.839,0.882,0.826c1.863-0.035,3.729,0.029,5.59-0.032c0.817-0.026,1.055,0.196,1.057,1.028
	c0.003,0.861-0.228,1.125-1.102,1.093c-1.825-0.069-3.655,0.022-5.48-0.04c-0.794-0.027-0.979,0.238-0.945,0.984
	c0.061,1.312,0.063,2.631,0,3.943c-0.04,0.801,0.163,1.075,1.017,1.049c2.08-0.066,4.167,0.036,6.247-0.049
	c1.012-0.039,0.763,0.568,0.807,1.111c0.053,0.631-0.029,0.973-0.842,0.955c-2.886-0.057-5.773-0.051-8.659-0.002
	c-0.775,0.015-0.878-0.28-0.87-0.943C284.812,255.62,284.793,252.989,284.793,250.357z"/>
<path fill="#1A171B" d="M253.149,250.385c0,1.352-0.026,2.704,0.006,4.057c0.047,1.92,0.673,2.602,2.579,2.877
	c1.246,0.183,2.479-0.036,3.713-0.143c0.563-0.05,0.604-0.388,0.6-0.835c-0.013-1.497,0.043-2.997-0.021-4.493
	c-0.045-1.035,0.649-0.736,1.169-0.757c0.522-0.021,1.093-0.187,1.063,0.749c-0.064,2.044-0.03,4.094-0.014,6.141
	c0.004,0.451-0.064,0.74-0.579,0.858c-2.479,0.572-4.973,0.853-7.486,0.317c-1.834-0.393-3.011-1.586-3.18-3.445
	c-0.32-3.529-0.341-7.082,0.007-10.611c0.212-2.158,1.756-3.371,4.396-3.649c1.935-0.204,3.86-0.035,5.777,0.323
	c1.128,0.213,0.445,0.945,0.506,1.437c0.082,0.656-0.389,0.638-0.869,0.57c-1.81-0.255-3.617-0.546-5.447-0.214
	c-1.433,0.262-2.129,0.978-2.188,2.434c-0.062,1.46-0.013,2.923-0.013,4.387C253.16,250.385,253.154,250.385,253.149,250.385z"/>
<path fill="#1A171B" d="M309.189,259.376c-1.509,0.065-2.966-0.204-4.419-0.61c-1.065-0.299-0.426-0.973-0.416-1.478
	c0.014-0.685,0.46-0.539,0.929-0.413c1.63,0.441,3.296,0.629,4.986,0.518c1.754-0.117,2.374-0.715,2.508-2.397
	c0.173-2.156-0.235-2.83-1.989-3.288c-1.305-0.341-2.616-0.646-3.905-1.036c-1.531-0.462-2.352-1.521-2.405-3.142
	c-0.013-0.366-0.039-0.729-0.054-1.094c-0.127-3.479,1.195-4.918,4.65-5.041c1.684-0.062,3.35,0.047,5.009,0.381
	c1.268,0.257,0.461,1.096,0.5,1.639c0.058,0.77-0.557,0.339-0.864,0.294c-1.811-0.271-3.609-0.494-5.441-0.176
	c-0.994,0.172-1.448,0.774-1.546,1.704c-0.054,0.507-0.009,1.021-0.041,1.531c-0.067,1.069,0.436,1.744,1.432,2.037
	c1.151,0.338,2.323,0.61,3.478,0.944c1.344,0.386,2.844,0.75,3.197,2.31c0.444,1.959,0.64,4.004-0.576,5.815
	c-0.789,1.175-2.105,1.354-3.389,1.491C310.289,259.423,309.737,259.376,309.189,259.376z"/>
<path fill="#1A171B" d="M125.248,250.363c0,1.388-0.03,2.775,0.008,4.162c0.046,1.746,0.663,2.422,2.357,2.729
	c1.647,0.298,3.275,0.027,4.903-0.162c0.344-0.041,0.726-0.165,0.653,0.363c-0.073,0.529,0.701,1.354-0.237,1.557
	c-2.438,0.521-4.924,0.762-7.337-0.14c-1.537-0.574-2.387-1.804-2.533-3.412c-0.29-3.204-0.247-6.424-0.053-9.626
	c0.168-2.777,1.743-4.165,4.64-4.414c1.643-0.141,3.277,0.01,4.912,0.225c1.189,0.155,0.64,0.91,0.651,1.519
	c0.017,0.872-0.509,0.528-0.949,0.491c-1.596-0.139-3.188-0.406-4.797-0.094c-1.449,0.283-2.13,0.955-2.191,2.424
	c-0.06,1.455-0.013,2.92-0.013,4.379C125.257,250.363,125.252,250.363,125.248,250.363z"/>
<path fill="#1B181C" d="M89.667,251.377c0,2.339-0.047,4.68,0.02,7.018c0.032,1.142-0.73,0.731-1.251,0.767
	c-0.545,0.038-1.122,0.21-1.108-0.796c0.059-4.568,0.002-9.139,0.047-13.708c0.008-0.841-0.227-1.069-1.041-1.021
	c-1.165,0.072-2.34-0.021-3.507,0.03c-0.967,0.044-0.672-0.622-0.708-1.108c-0.041-0.531-0.079-0.967,0.741-0.957
	c3.766,0.043,7.53,0.043,11.295,0c0.833-0.01,0.759,0.453,0.729,0.967c-0.028,0.492,0.249,1.146-0.714,1.102
	c-1.204-0.059-2.415,0.034-3.618-0.031c-0.758-0.039-0.913,0.246-0.901,0.939C89.69,246.843,89.667,249.109,89.667,251.377z"/>
<path fill="#1B181C" d="M210.199,250.396c0-2.595,0.064-5.19-0.029-7.781c-0.043-1.118,0.549-0.967,1.256-1.014
	c0.833-0.058,1.114,0.164,1.103,1.06c-0.05,4.495-0.001,8.989-0.042,13.483c-0.008,0.828,0.213,1.056,1.036,1.029
	c1.938-0.064,3.876,0.034,5.81-0.045c0.946-0.037,0.745,0.528,0.752,1.043c0.007,0.528,0.173,1.051-0.767,1.027
	c-2.773-0.073-5.554-0.057-8.33-0.01c-0.755,0.017-0.804-0.303-0.799-0.899C210.215,255.66,210.199,253.029,210.199,250.396z"/>
<path fill="#1A171B" d="M274.481,250.385c0,2.665-0.046,5.333,0.023,7.997c0.03,1.12-0.688,0.749-1.217,0.783
	c-0.563,0.037-1.098,0.166-1.086-0.808c0.053-5.295,0.057-10.592-0.003-15.887c-0.013-1.062,0.581-0.841,1.169-0.851
	c0.611-0.013,1.174-0.155,1.142,0.876C274.426,245.123,274.481,247.755,274.481,250.385z"/>
<path fill="#FEFEFE" d="M259.928,192.386c2.119,0,4.237,0.021,6.356-0.012c0.653-0.01,0.963,0.079,0.945,0.868
	c-0.054,2.776-0.021,5.553-0.019,8.33c0,0.402,0.013,0.75-0.41,1.031c-4.532,3.022-9.434,4.523-14.92,3.74
	c-2.2-0.313-3.447-1.557-3.854-3.722c-0.379-2.034-0.442-4.068,0.016-6.09c0.608-2.693,2.101-3.896,5.201-4.044
	c2.223-0.105,4.454-0.02,6.684-0.02C259.928,192.441,259.928,192.414,259.928,192.386z"/>
<path fill="#FEFEFE" d="M134.934,186.51c-3.176,0-6.353-0.026-9.529,0.019c-0.791,0.012-0.981-0.24-0.961-0.991
	c0.059-2.114-0.049-4.233,0.369-6.328c0.764-3.817,2.849-5.946,6.662-6.747c2.502-0.525,5.01-0.489,7.495,0.073
	c3.487,0.787,5.519,3.244,6.042,7.16c0.273,2.036,0.173,4.081,0.232,6.123c0.021,0.756-0.395,0.697-0.892,0.696
	C141.213,186.506,138.073,186.51,134.934,186.51z"/>
<g>
	<path fill="#FEFEFE" d="M66.263,179.875c-0.467-3.958-2.494-6.502-5.998-7.323c-2.48-0.581-4.984-0.584-7.497-0.111
		c-3.828,0.72-5.989,3.043-6.734,6.809c-0.415,2.098-0.3,4.215-0.369,6.329c-0.026,0.808,0.271,0.956,1.001,0.947
		c3.104-0.037,6.207-0.016,9.311-0.016c3.213,0,6.426-0.019,9.641,0.016c0.674,0.007,0.877-0.174,0.857-0.854
		C66.42,183.739,66.49,181.806,66.263,179.875z"/>
</g>
<path fill="#FEFEFE" d="M190.188,250.361c0-1.314-0.033-2.633,0.007-3.946c0.048-1.495,0.847-2.438,2.285-2.83
	c0.859-0.231,1.733-0.271,2.609-0.172c2.245,0.25,3.214,1.348,3.221,3.623c0.007,2.302,0.017,4.604-0.002,6.907
	c-0.014,2-0.887,3.039-2.854,3.385c-0.866,0.15-1.748,0.152-2.615-0.038c-1.834-0.401-2.622-1.337-2.656-3.201
	c-0.021-1.241-0.004-2.483-0.004-3.728C190.181,250.361,190.184,250.361,190.188,250.361z"/>
<path fill="#FEFEFE" d="M230.993,250.395c0-1.315-0.032-2.634,0.009-3.945c0.046-1.551,0.852-2.486,2.36-2.879
	c0.646-0.166,1.297-0.209,1.954-0.192c2.661,0.065,3.799,1.213,3.803,3.847c0.002,2.229,0.012,4.459-0.003,6.688
	c-0.014,2.021-0.863,3.045-2.826,3.412c-0.832,0.153-1.68,0.153-2.51-0.001c-1.937-0.364-2.766-1.35-2.794-3.311
	c-0.019-1.207-0.004-2.412-0.004-3.619C230.987,250.395,230.99,250.395,230.993,250.395z"/>
</svg>
