<?xml version="1.0" encoding="utf-8"?>
<!-- Generator: Adobe Illustrator 16.0.3, SVG Export Plug-In . SVG Version: 6.00 Build 0)  -->
<!DOCTYPE svg PUBLIC "-//W3C//DTD SVG 1.1//EN" "http://www.w3.org/Graphics/SVG/1.1/DTD/svg11.dtd">
<svg version="1.1"
	 id="svg2" xmlns:inkscape="http://www.inkscape.org/namespaces/inkscape" xmlns:sodipodi="http://sodipodi.sourceforge.net/DTD/sodipodi-0.dtd" xmlns:svg="http://www.w3.org/2000/svg" xmlns:rdf="http://www.w3.org/1999/02/22-rdf-syntax-ns#" xmlns:cc="http://creativecommons.org/ns#" xmlns:dc="http://purl.org/dc/elements/1.1/" inkscape:version="0.46" sodipodi:version="0.32" inkscape:output_extension="org.inkscape.output.svg.inkscape" sodipodi:docname="Adidas-logo.svg"
	 xmlns="http://www.w3.org/2000/svg" xmlns:xlink="http://www.w3.org/1999/xlink" x="0px" y="0px" width="400px" height="216px"
	 viewBox="165 142 400 216" enable-background="new 165 142 400 216" xml:space="preserve">
<defs>
	
	
		<inkscape:perspective  sodipodi:type="inkscape:persp3d" id="perspective10" inkscape:vp_x="0 : 526.18109 : 1" inkscape:vp_z="744.09448 : 526.18109 : 1" inkscape:vp_y="0 : 1000 : 0" inkscape:persp3d-origin="372.04724 : 350.78739 : 1">
		</inkscape:perspective>
	
		<inkscape:perspective  sodipodi:type="inkscape:persp3d" id="perspective2399" inkscape:vp_x="0 : 241.82927 : 1" inkscape:vp_z="717.39929 : 241.82927 : 1" inkscape:vp_y="0 : 1000 : 0" inkscape:persp3d-origin="358.69965 : 161.21951 : 1">
		</inkscape:perspective>
</defs>
<sodipodi:namedview  id="base" showgrid="false" pagecolor="#ffffff" inkscape:cx="350" inkscape:zoom="0.84501992" inkscape:cy="264.28571" bordercolor="#666666" borderopacity="1.0" inkscape:document-units="px" inkscape:current-layer="layer1" inkscape:window-y="-4" inkscape:window-x="-4" inkscape:pageopacity="0.0" inkscape:pageshadow="2" inkscape:window-width="1280" inkscape:window-height="781">
	</sodipodi:namedview>
<g id="layer1" transform="translate(-24.157502,-284.81863)" inkscape:label="Ebene 1" inkscape:groupmode="layer">
	<g id="g2402" transform="translate(-33.947634,-146.48574)" inkscape:label="Ebene 1">
		<g id="g3035">
			<path id="path2405" d="M460.71,706.886l-50.047-86.979l35.955-20.651l62.233,107.63H460.71"/>
			<path id="path2407" d="M327.406,694.7l35.954-20.791l19.024,32.978h-48.001L327.406,694.7"/>
			<path id="path2409" d="M397.965,762.376h10.233v-41.396h-10.233V762.376z"/>
			<path id="path2411" d="M526.199,763.352c-11.441,0-18.325-5.907-18.697-14.232h10.79c0,2.604,1.629,6.418,8.605,6.558
				c4.651,0,6.837-2.744,6.837-4.79c-0.278-3.257-4.372-3.535-8.744-4.233c-4.372-0.697-8.093-1.488-10.791-2.884
				c-3.441-1.768-5.768-5.581-5.768-9.953c0-7.396,6.419-13.256,17.117-13.256c10.372,0,16.931,5.441,17.628,13.535h-10.419
				c-0.093-2.187-0.512-5.628-6.651-5.628c-4.14,0-6.884,0.837-7.116,3.721c0,4.232,8.604,3.953,15.303,5.721
				c6.419,1.628,10.512,5.628,10.512,11.21C544.805,759.399,536.479,763.352,526.199,763.352"/>
			<path id="path2413" d="M538.106,708.514c2.466,0,4.698,2.093,4.698,4.604c0,2.466-2.232,4.559-4.698,4.559
				c-2.465,0-4.512-2.093-4.512-4.559C533.595,710.607,535.641,708.514,538.106,708.514z M538.106,707.817
				c-2.884,0-5.209,2.371-5.209,5.302c0,2.884,2.325,5.256,5.209,5.256c2.931,0,5.396-2.372,5.396-5.256
				C543.502,710.188,541.037,707.817,538.106,707.817z M539.362,713.304c0.512-0.186,0.884-0.744,0.884-1.488
				c0-1.116-0.884-1.628-1.953-1.628h-2v5.814h0.931v-2.372h1.255c0.698,0,0.884,0.559,0.884,1.675c0,0.325,0,0.511,0.187,0.697
				h0.884c-0.187-0.372-0.187-0.884-0.187-1.628C540.246,713.445,539.734,713.304,539.362,713.304z M537.224,711.072h1.255
				c0.512,0,0.884,0.373,0.884,0.931s-0.744,0.744-1.256,0.744h-0.883V711.072"/>
			<path id="path2415" d="M369.546,657.769l35.954-20.745l40.326,69.862h-37.628v10.232h-10.233v-10.279L369.546,657.769"/>
			<path id="path2417" d="M370.476,763.352c-11.907,0-21.582-9.722-21.582-21.488c0-11.907,9.674-21.303,21.582-21.303
				c4.512,0,8.605,1.209,12.187,3.674v-17.349h10.233v55.489h-10.233v-2.744C379.081,761.957,374.988,763.352,370.476,763.352z
				 M358.708,741.864c0,6.419,5.488,11.767,12.047,11.767c6.419,0,11.907-5.348,11.907-11.767s-5.488-11.907-11.907-11.907
				C364.197,729.957,358.708,735.445,358.708,741.864"/>
			<path id="path2419" d="M446.105,706.886h10.093v55.489h-10.093v-2.744c-3.442,2.325-7.675,3.721-12.326,3.721
				c-11.767,0-21.442-9.722-21.442-21.488c0-11.907,9.675-21.303,21.442-21.303c4.651,0,8.745,1.209,12.326,3.674V706.886z
				 M422.291,741.864c0,6.419,5.488,11.767,11.768,11.767c6.559,0,12.047-5.348,12.047-11.767s-5.488-11.907-12.047-11.907
				C427.779,729.957,422.291,735.445,422.291,741.864"/>
			<path id="path2421" d="M481.083,763.352c-11.722,0-21.442-9.722-21.442-21.488c0-11.907,9.721-21.303,21.442-21.303
				c4.512,0,8.744,1.209,12.186,3.674v-3.302h10.233v41.442h-10.233v-2.744C489.827,761.957,485.733,763.352,481.083,763.352z
				 M469.594,741.864c0,6.419,5.489,11.767,11.907,11.767c6.419,0,11.768-5.348,11.768-11.767s-5.349-11.907-11.768-11.907
				C475.083,729.957,469.594,735.445,469.594,741.864"/>
			<path id="path2423" d="M311.266,741.864c0,6.419,5.488,11.767,11.907,11.767c6.558,0,12.047-5.348,12.047-11.767
				s-5.489-11.907-12.047-11.907C316.754,729.957,311.266,735.445,311.266,741.864z M322.894,763.352
				c-11.768,0-21.489-9.722-21.489-21.488c0-11.907,9.721-21.303,21.489-21.303c4.512,0,8.744,1.209,12.326,3.674v-3.302h10.093
				v41.442H335.22v-2.744C331.778,761.957,327.545,763.352,322.894,763.352"/>
		</g>
	</g>
</g>
</svg>
