<?xml version="1.0" encoding="utf-8"?>
<!-- Generator: Adobe Illustrator 16.0.3, SVG Export Plug-In . SVG Version: 6.00 Build 0)  -->
<!DOCTYPE svg PUBLIC "-//W3C//DTD SVG 1.1//EN" "http://www.w3.org/Graphics/SVG/1.1/DTD/svg11.dtd">
<svg version="1.1" id="Ebene_1" xmlns="http://www.w3.org/2000/svg" xmlns:xlink="http://www.w3.org/1999/xlink" x="0px" y="0px"
	 width="400px" height="216px" viewBox="0 -8 400 216" enable-background="new 0 -8 400 216" xml:space="preserve">
<g>
	<path d="M165.401,112.637l6.378,16.344h-1.619l-1.976-5.105h-7.416l-1.971,5.105h-1.625l6.49-16.344H165.401z M167.604,122.604
		l-3.245-8.342l-3.246,8.342H167.604z M174.791,117.158v2.072c0.229-0.684,0.813-1.27,1.508-1.729
		c0.696-0.467,1.508-0.699,2.32-0.699c0.809,0,1.504,0.119,2.083,0.355c0.583,0.223,1.042,0.457,1.392,0.922
		c0.345,0.346,0.578,0.813,0.691,1.385c0.12,0.586,0.236,1.158,0.236,1.857v7.535h-1.391v-7.295c0-0.475,0-0.939-0.117-1.391
		c-0.117-0.467-0.229-0.82-0.467-1.168c-0.229-0.346-0.575-0.578-0.925-0.813c-0.346-0.232-0.93-0.232-1.503-0.232
		c-0.583,0-1.047,0.121-1.51,0.354c-0.466,0.232-0.813,0.459-1.157,0.813c-0.35,0.338-0.583,0.813-0.695,1.27
		c-0.237,0.457-0.237,1.047-0.237,1.625v6.838h-1.387v-11.701h1.158V117.158z M194.842,112.637v16.344h-1.503v-16.344H194.842z
		 M205.627,112.637c0.683,0,1.392,0.113,1.962,0.225c0.58,0.123,1.158,0.348,1.625,0.693c0.467,0.354,0.821,0.707,1.158,1.279
		c0.225,0.465,0.467,1.156,0.467,1.857c0,0.467-0.122,0.813-0.242,1.271c-0.104,0.354-0.338,0.813-0.562,1.043
		c-0.241,0.348-0.589,0.58-0.942,0.813c-0.346,0.234-0.683,0.355-1.158,0.459c1.046,0.121,1.859,0.578,2.56,1.287
		c0.578,0.686,0.925,1.625,0.925,2.664c0,0.232,0,0.576-0.111,0.916c0,0.354-0.121,0.709-0.233,1.045
		c-0.12,0.354-0.354,0.699-0.578,1.047c-0.234,0.354-0.579,0.578-1.046,0.926c-0.468,0.232-0.927,0.465-1.625,0.588
		c-0.578,0.109-1.392,0.232-2.316,0.232h-6.953v-16.346H205.627L205.627,112.637z M205.627,119.818c0.569,0,1.158-0.111,1.616-0.232
		s0.813-0.354,1.167-0.58c0.337-0.23,0.569-0.578,0.683-0.924c0.121-0.354,0.233-0.699,0.233-1.047c0-2.09-1.271-3.008-3.699-3.008
		h-5.336v5.791H205.627L205.627,119.818z M205.627,127.59c0.569,0,1.158,0,1.616-0.111c0.458-0.123,0.926-0.244,1.399-0.59
		c0.337-0.23,0.684-0.578,0.916-1.035c0.234-0.477,0.354-0.934,0.354-1.625c0-1.037-0.354-1.857-1.168-2.324
		c-0.69-0.578-1.729-0.813-3.12-0.813h-5.336v6.498H205.627L205.627,127.59z M216.629,112.637l5.454,14.252l5.564-14.252h2.308
		v16.344h-1.503v-14.146l-5.679,14.146h-1.505l-5.332-14.146v14.146h-1.504v-16.344H216.629z M251.752,115.879
		c-0.345-0.459-0.699-0.934-1.157-1.271c-0.459-0.346-0.925-0.58-1.504-0.813c-0.578-0.121-1.167-0.24-1.745-0.24
		c-1.047,0-1.963,0.24-2.774,0.586c-0.813,0.469-1.392,0.924-1.851,1.625c-0.476,0.691-0.821,1.393-1.055,2.316
		c-0.232,0.811-0.337,1.736-0.337,2.662c0,0.932,0.104,1.734,0.337,2.67c0.232,0.813,0.579,1.625,1.055,2.314
		c0.459,0.693,1.149,1.271,1.851,1.625c0.813,0.348,1.729,0.58,2.774,0.58c0.813,0,1.512-0.121,2.083-0.459
		c0.587-0.242,1.167-0.709,1.624-1.168c0.476-0.457,0.813-1.045,1.046-1.625c0.232-0.578,0.467-1.27,0.467-2.082h1.503
		c-0.111,1.037-0.354,1.971-0.69,2.662c-0.346,0.82-0.813,1.504-1.393,2.09c-0.577,0.58-1.277,1.039-2.082,1.271
		c-0.813,0.354-1.625,0.467-2.661,0.467c-1.288,0-2.446-0.232-3.371-0.699c-0.925-0.459-1.736-1.039-2.438-1.85
		c-0.579-0.814-1.158-1.625-1.382-2.67c-0.347-1.039-0.467-2.084-0.467-3.25c0-1.16,0.12-2.195,0.467-3.244
		c0.337-1.045,0.803-1.959,1.382-2.668c0.7-0.805,1.4-1.393,2.438-1.852c0.925-0.459,2.084-0.691,3.371-0.691
		c0.804,0,1.504,0.113,2.308,0.348c0.699,0.23,1.392,0.578,1.979,1.037c0.57,0.473,1.148,1.053,1.502,1.623
		c0.347,0.699,0.685,1.391,0.806,2.324h-1.504C252.21,116.924,251.986,116.457,251.752,115.879L251.752,115.879z M264.033,117.383
		c0.699,0.346,1.278,0.813,1.737,1.393c0.476,0.578,0.813,1.277,1.054,1.969c0.225,0.701,0.338,1.504,0.338,2.445
		c0,0.805-0.113,1.615-0.338,2.42c-0.241,0.701-0.578,1.391-1.054,1.98c-0.46,0.57-1.038,1.035-1.737,1.389
		c-0.683,0.348-1.505,0.459-2.429,0.459c-0.926,0-1.736-0.111-2.438-0.459c-0.691-0.354-1.271-0.818-1.729-1.389
		c-0.476-0.59-0.82-1.279-1.046-1.98c-0.232-0.805-0.346-1.504-0.346-2.42c0-0.82,0.112-1.625,0.346-2.445
		c0.225-0.803,0.57-1.391,1.046-1.969c0.458-0.58,1.038-1.047,1.729-1.393c0.699-0.346,1.512-0.459,2.438-0.459
		C262.642,116.803,263.352,117.035,264.033,117.383z M259.868,118.428c-0.467,0.232-0.927,0.701-1.279,1.158
		c-0.346,0.465-0.588,1.037-0.813,1.625c-0.225,0.578-0.225,1.27-0.225,1.857c0,0.57,0.121,1.271,0.225,1.85
		c0.225,0.578,0.467,1.168,0.813,1.625c0.354,0.459,0.813,0.813,1.279,1.158c0.578,0.232,1.148,0.459,1.857,0.459
		c0.691,0,1.271-0.121,1.857-0.459c0.449-0.225,0.916-0.699,1.271-1.158c0.346-0.457,0.57-1.047,0.805-1.625
		c0.232-0.578,0.232-1.166,0.232-1.85c0-0.59-0.12-1.279-0.232-1.857c-0.121-0.588-0.46-1.16-0.805-1.625
		c-0.354-0.457-0.82-0.813-1.271-1.158c-0.477-0.232-1.167-0.465-1.857-0.465C261.018,118.082,260.448,118.193,259.868,118.428z
		 M271.224,117.158v1.971h0.122c0.336-0.701,0.924-1.289,1.494-1.746c0.587-0.459,1.399-0.58,2.324-0.58
		c0.804,0,1.513,0.232,2.092,0.58c0.57,0.344,1.046,0.932,1.271,1.746c0.345-0.814,0.813-1.402,1.502-1.746
		c0.7-0.348,1.393-0.58,2.205-0.58c2.551,0,3.94,1.393,3.94,4.176v8.002h-1.391v-7.891c0-0.916-0.234-1.736-0.57-2.197
		c-0.478-0.465-1.168-0.811-2.214-0.811c-0.578,0-1.157,0.111-1.503,0.346c-0.468,0.232-0.692,0.578-1.046,0.924
		c-0.233,0.355-0.468,0.822-0.468,1.393c-0.111,0.467-0.111,1.047-0.111,1.625v6.725h-1.615v-8.002c0-0.348,0-0.814-0.122-1.148
		c-0.111-0.355-0.224-0.711-0.458-0.936c-0.233-0.232-0.467-0.459-0.821-0.578c-0.345-0.111-0.69-0.234-1.157-0.234
		c-0.578,0-1.157,0.123-1.625,0.355c-0.459,0.225-0.805,0.578-1.037,0.918c-0.232,0.352-0.466,0.811-0.588,1.389
		c-0.104,0.588-0.225,1.168-0.225,1.746v6.605h-1.391V117.16h1.392V117.158z M290.687,117.158v2.193
		c0.354-0.805,0.942-1.512,1.625-1.85c0.82-0.467,1.625-0.699,2.56-0.699c0.924,0,1.625,0.119,2.314,0.465
		c0.701,0.348,1.271,0.813,1.625,1.393c0.459,0.57,0.804,1.281,0.926,1.963c0.232,0.701,0.346,1.504,0.346,2.445
		c0,0.803-0.112,1.615-0.346,2.428c-0.225,0.813-0.571,1.393-0.926,1.98c-0.466,0.563-1.045,1.035-1.625,1.383
		c-0.689,0.346-1.392,0.467-2.314,0.467c-0.459,0-0.813,0-1.271-0.121c-0.467-0.111-0.813-0.227-1.168-0.459
		c-0.345-0.232-0.683-0.467-0.925-0.813c-0.233-0.346-0.466-0.701-0.699-1.166v6.609h-1.392v-16.219H290.687z M298.577,121.211
		c-0.121-0.588-0.354-1.16-0.69-1.625c-0.346-0.457-0.701-0.813-1.168-1.158c-0.458-0.346-1.037-0.465-1.737-0.465
		c-0.813,0-1.503,0.119-1.961,0.465c-0.589,0.232-0.934,0.578-1.271,1.037c-0.354,0.477-0.588,1.053-0.708,1.625
		c-0.111,0.586-0.233,1.279-0.233,1.979c0,0.57,0.122,1.158,0.233,1.85c0.12,0.578,0.354,1.168,0.708,1.625
		c0.338,0.459,0.805,0.813,1.271,1.158c0.458,0.338,1.148,0.459,1.961,0.459c0.7,0,1.28-0.121,1.737-0.459
		c0.467-0.346,0.934-0.699,1.168-1.158c0.337-0.457,0.569-1.047,0.69-1.625s0.232-1.166,0.232-1.85
		C298.811,122.479,298.698,121.902,298.577,121.211z M303.219,119.006c0.233-0.457,0.578-0.924,1.037-1.277
		c0.467-0.346,0.925-0.568,1.504-0.691c0.587-0.113,1.166-0.232,1.856-0.232c0.468,0,1.037,0,1.513,0.119
		c0.459,0.113,0.917,0.346,1.393,0.58c0.466,0.225,0.691,0.691,1.037,1.156c0.232,0.469,0.345,1.16,0.345,1.965v6.264
		c0,0.59,0.233,0.926,0.813,0.926c0.121,0,0.345,0,0.466-0.111v1.158c-0.121,0-0.345,0-0.466,0.121h-0.458
		c-0.355,0-0.7,0-0.935-0.121c-0.232-0.111-0.338-0.232-0.458-0.467c-0.112-0.232-0.232-0.354-0.232-0.691v-0.813
		c-0.233,0.348-0.588,0.701-0.813,1.045c-0.232,0.35-0.579,0.58-0.925,0.693c-0.354,0.232-0.7,0.354-1.159,0.467
		c-0.465,0.111-0.933,0.111-1.513,0.111c-0.577,0-1.046-0.111-1.503-0.225c-0.467-0.121-0.926-0.354-1.271-0.588
		c-0.354-0.232-0.71-0.578-0.821-1.037c-0.226-0.469-0.346-0.934-0.346-1.504c0-0.813,0.226-1.514,0.578-1.979
		c0.354-0.459,0.813-0.803,1.504-1.037c0.588-0.232,1.28-0.467,1.979-0.467c0.805-0.121,1.504-0.24,2.309-0.24
		c0.354,0,0.587-0.105,0.82-0.105c0.232,0,0.459-0.119,0.57-0.232c0.12-0.113,0.233-0.227,0.354-0.467
		c0.121-0.232,0.121-0.467,0.121-0.805c0-0.467-0.121-0.932-0.241-1.168c-0.113-0.344-0.346-0.578-0.691-0.689
		c-0.227-0.234-0.579-0.346-0.934-0.346c-0.338-0.121-0.805-0.121-1.148-0.121c-0.927,0-1.625,0.232-2.205,0.699
		c-0.578,0.457-0.934,1.158-0.934,2.082h-1.625C302.865,120.174,302.986,119.465,303.219,119.006z M310.401,122.479
		c-0.121,0.123-0.232,0.357-0.578,0.357c-0.233,0.109-0.46,0.109-0.692,0.109c-0.586,0.123-1.278,0.242-1.856,0.242
		c-0.691,0.105-1.28,0.227-1.747,0.338c-0.57,0.113-0.915,0.467-1.27,0.701c-0.347,0.344-0.459,0.813-0.459,1.381
		c0,0.355,0.112,0.701,0.226,0.936c0.111,0.223,0.345,0.578,0.587,0.689c0.233,0.244,0.57,0.355,0.813,0.469
		c0.338,0.109,0.69,0.109,0.925,0.109c0.579,0,1.037-0.109,1.625-0.223c0.459-0.111,0.925-0.469,1.271-0.701
		c0.347-0.346,0.692-0.701,0.926-1.158c0.232-0.467,0.354-0.926,0.354-1.502L310.401,122.479z M316.665,117.158v2.072
		c0.233-0.684,0.805-1.27,1.505-1.729c0.683-0.467,1.504-0.699,2.308-0.699c0.821,0,1.512,0.119,2.091,0.355
		c0.58,0.223,1.046,0.457,1.393,0.922c0.354,0.346,0.578,0.813,0.699,1.385c0.104,0.586,0.227,1.158,0.227,1.857v7.535h-1.394
		v-7.295c0-0.475,0-0.939-0.111-1.391c-0.12-0.467-0.232-0.82-0.468-1.168c-0.223-0.346-0.577-0.578-0.925-0.813
		c-0.346-0.232-0.924-0.232-1.513-0.232c-0.57,0-1.036,0.121-1.503,0.354c-0.458,0.232-0.804,0.459-1.158,0.813
		c-0.347,0.338-0.579,0.813-0.691,1.27c-0.12,0.457-0.226,1.047-0.226,1.625v6.838H315.5v-11.701h1.165V117.158z M328.135,117.158
		l3.94,10.076l3.596-10.076h1.384l-5.101,13.551c-0.225,0.465-0.459,0.932-0.57,1.289c-0.242,0.336-0.354,0.568-0.588,0.803
		c-0.225,0.234-0.458,0.346-0.805,0.467c-0.354,0.111-0.708,0.111-1.156,0.111h-0.7c-0.121,0-0.354,0-0.466-0.111v-1.166
		c0.111,0,0.345,0.119,0.466,0.119h0.466c0.347,0,0.579,0,0.805-0.119c0.232-0.105,0.354-0.225,0.587-0.34
		c0.113-0.121,0.233-0.352,0.347-0.588c0.112-0.223,0.233-0.465,0.338-0.803l0.466-1.277l-4.753-11.711h1.746L328.135,117.158
		L328.135,117.158z M305.991,80.643c0-7.42,3.018-11.127,9.162-11.127c6.146,0,9.161,3.709,9.161,11.127
		c0,7.187-3.016,10.776-9.161,10.776C309.009,91.419,305.991,87.83,305.991,80.643 M315.041,64.647
		c-5.565,0-10.432,1.277-14.605,3.707c-4.986,2.903-7.536,6.957-7.536,12.289c0,5.104,2.551,9.156,7.657,12.058
		c4.166,2.311,9.031,3.473,14.484,3.473c5.558,0,10.434-1.162,14.485-3.591c5.107-3.018,7.649-6.957,7.649-11.939
		c0-5.216-2.542-9.273-7.537-12.289C325.474,65.925,320.599,64.647,315.041,64.647 M289.771,82.614h-9.396v4.982
		c0,2.203-1.503,3.25-4.407,3.25c-2.308,0-3.475-1.047-3.475-3.018V70.557h16.006v-4.059h-16.006v-7.878h-6.369
		c-0.588,2.896-1.503,4.87-2.661,6.022c-1.504,1.396-3.951,2.205-7.304,2.205v3.823h4.175v14.606
		c0,6.953,5.202,10.432,15.521,10.432c3.483,0,6.38-0.463,8.816-1.391c3.475-1.158,5.099-3.245,5.099-6.262L289.771,82.614
		L289.771,82.614z M252.21,65.575c-1.393-0.229-3.018-0.346-4.969-0.346c-6.62,0-11.6,2.082-15.073,6.141h-0.121v-6.023
		l-18.78,1.387v3.941h3.716c1.971,0,2.896,1.041,2.896,3.016v14.14c0,2.083-0.925,3.017-2.896,3.017h-3.819v3.938h25.833v-3.938
		h-4.045c-1.867,0-2.904-1.047-2.904-3.018v-4.057c0-3.592,0.468-6.146,1.28-7.883c1.27-2.32,3.48-3.475,6.725-3.475
		c1.961,0,2.895,0.695,2.895,2.204v4.17h9.152V65.575H252.21L252.21,65.575z M210.839,80.411c0-5.1-2.55-9.27-7.536-12.169
		c-4.175-2.316-8.924-3.479-14.489-3.479c-5.444,0-10.314,1.279-14.602,3.713c-4.983,2.895-7.532,6.952-7.532,12.284
		c0,4.987,2.666,9.04,7.882,12.052c4.17,2.32,9.037,3.479,14.604,3.479c4.519,0,8.577-0.694,12.057-1.972
		c4.407-1.619,7.527-4.17,9.377-7.648h-12.395c-0.691,1.625-1.854,2.783-3.708,3.708c-1.625,0.696-3.362,1.04-5.332,1.04
		c-5.795,0-8.924-3.124-9.387-9.273h31.063L210.839,80.411L210.839,80.411z M179.889,78.21c0.467-5.795,3.479-8.694,9.044-8.694
		c5.563,0,8.578,2.9,9.036,8.694H179.889z M139.783,90.958c-6.603,0-9.848-3.473-9.848-10.314c0-3.246,0.93-5.795,2.666-7.648
		c1.738-1.975,4.174-2.9,7.303-2.9s5.445,1.047,7.069,3.018c1.508,1.854,2.32,4.402,2.32,7.531s-0.813,5.563-2.32,7.418
		C145.238,90.033,142.917,90.958,139.783,90.958 M145.467,64.996c-6.724,0-11.823,1.854-15.301,5.562h-0.229v-5.328
		c-4.058,0.229-7.648,0.463-10.781,0.576c-3.125,0.12-5.792,0.35-7.883,0.467v4.172h3.713c1.854,0,2.783,0.813,2.783,2.551v25.378
		c0,2.089-0.93,3.012-2.783,3.012h-3.713v4.063h25.389v-3.951h-3.828c-1.967,0-2.896-1.035-2.896-3.007v-7.186h0.346
		c1.279,1.396,3.479,2.666,6.262,3.596c1.274,0.35,2.55,0.695,3.708,0.924c1.158,0.238,2.438,0.352,3.592,0.352
		c5.453,0,9.857-1.273,13.098-3.824c3.479-2.896,5.217-6.957,5.217-12.285c0-4.871-1.62-8.694-4.749-11.244
		C154.511,66.27,150.566,64.996,145.467,64.996 M92.496,84.122c0,2.083-1.388,3.824-4.055,5.445c-2.319,1.277-4.641,1.97-6.953,1.97
		c-4.402,0-6.61-1.388-6.61-4.175c0-2.199,1.625-3.707,4.757-4.521c1.504-0.345,4.054-0.458,7.416-0.458h5.444L92.496,84.122
		L92.496,84.122z M107.565,90.846c-1.966,0-2.895-1.047-2.895-3.018V74.731c0-4.059-2.55-6.836-7.649-8.232
		c-2.899-0.809-7.069-1.152-12.52-1.152c-13.331,0-20.05,3.127-20.05,9.385H76.62c0-3.476,2.667-5.101,7.882-5.101
		c5.329,0,8.115,1.972,8.115,5.912v2.783H81.023c-12.057,0-18.08,3.007-18.195,9.036c-0.117,5.912,4.632,8.928,14.021,8.928
		c3.017,0,5.911-0.35,8.578-1.042c3.712-1.046,6.028-2.549,6.953-4.524h0.237v4.174h17.384v-4.052L107.565,90.846L107.565,90.846z"
		/>
</g>
</svg>
