<?xml version="1.0" encoding="utf-8"?>
<!-- Generator: Adobe Illustrator 16.0.3, SVG Export Plug-In . SVG Version: 6.00 Build 0)  -->
<!DOCTYPE svg PUBLIC "-//W3C//DTD SVG 1.1//EN" "http://www.w3.org/Graphics/SVG/1.1/DTD/svg11.dtd">
<svg version="1.1" id="Ebene_1" xmlns="http://www.w3.org/2000/svg" xmlns:xlink="http://www.w3.org/1999/xlink" x="0px" y="0px"
	 width="400px" height="216px" viewBox="0 0 400 216" enable-background="new 0 0 400 216" xml:space="preserve">
<g>
	<path fill="#4C4D4F" d="M357.296,130.832c0-1.932,0.007-3.865-0.008-5.797c-0.001-0.313,0.083-0.396,0.393-0.395
		c0.706,0.006,1.416,0.068,2.116-0.082c0.699-0.148,0.976-0.51,0.895-1.227c-0.184-1.611-0.494-3.201-0.804-4.791
		c-1.218-6.256-2.438-12.512-3.663-18.766c-0.409-2.08-0.834-4.158-1.271-6.232c-0.063-0.299,0.01-0.343,0.284-0.343
		c2.699,0.008,5.397,0.009,8.097-0.002c0.273-0.001,0.345,0.087,0.369,0.342c0.216,2.214,0.446,4.427,0.67,6.641
		c0.288,2.844,0.573,5.687,0.857,8.532c0.189,1.893,0.374,3.783,0.563,5.674c0.021,0.217,0.056,0.43,0.158,0.646
		c0.091-0.879,0.186-1.758,0.275-2.637c0.316-3.166,0.635-6.333,0.949-9.501c0.308-3.079,0.617-6.158,0.907-9.238
		c0.033-0.36,0.139-0.462,0.498-0.46c2.522,0.017,5.044,0.017,7.565,0c0.365-0.002,0.404,0.104,0.344,0.422
		c-1.024,5.29-2.043,10.58-3.06,15.871c-0.957,4.988-1.909,9.977-2.866,14.965c-0.235,1.227-0.695,2.361-1.358,3.424
		c-1.082,1.732-2.688,2.582-4.652,2.861c-0.094,0.014-0.214-0.037-0.271,0.094C361.956,130.832,359.626,130.832,357.296,130.832z"/>
	<path fill="#231F20" d="M87.805,85.263c0.006,1.739,0.006,3.479,0.025,5.219c0.003,0.256-0.114,0.292-0.308,0.3
		c-0.368,0.017-0.734,0.034-1.095,0.122c-0.739,0.181-1.023,0.498-1.064,1.25c-0.02,0.368,0.008,0.738-0.008,1.105
		c-0.01,0.231,0.065,0.309,0.301,0.304c0.619-0.014,1.239,0.008,1.857-0.01c0.257-0.008,0.314,0.078,0.313,0.322
		c-0.01,1.829-0.011,3.657,0.002,5.486c0.001,0.277-0.074,0.351-0.344,0.339c-0.515-0.022-1.032,0.001-1.548-0.01
		c-0.206-0.005-0.305,0.055-0.285,0.272c0.01,0.117,0.001,0.236,0.001,0.354c0,8.098-0.003,16.191,0.01,24.289
		c0,0.414-0.116,0.5-0.509,0.498c-2.536-0.02-5.073-0.02-7.609,0c-0.37,0.002-0.454-0.094-0.453-0.459
		c0.011-8.141,0.005-16.282,0.018-24.422c0-0.411-0.071-0.584-0.521-0.538c-0.423,0.044-0.854,0-1.281,0.014
		c-0.212,0.007-0.276-0.064-0.276-0.276c0.007-1.858,0.008-3.716-0.001-5.575c-0.001-0.238,0.079-0.301,0.304-0.293
		c0.442,0.015,0.887-0.015,1.327,0.012c0.335,0.02,0.454-0.064,0.449-0.43c-0.016-1.193,0.048-2.384,0.168-3.573
		c0.245-2.409,1.407-3.681,3.793-4.142c0.451-0.086,0.925-0.052,1.354-0.255c0.146,0,0.295,0,0.442,0
		c0.177,0.072,0.354,0.072,0.53,0c0.974,0,1.947,0,2.921,0c0.337,0.101,0.684,0.016,1.024,0.046
		C87.496,85.228,87.659,85.165,87.805,85.263z"/>
	<path fill="#231F20" d="M23.486,99.504c0.152-0.22,0.346-0.386,0.583-0.517c7.438-4.118,14.874-8.238,22.31-12.358
		c0.816-0.453,1.112-0.371,1.559,0.433c1.646,2.972,3.293,5.945,4.939,8.917c0.057,0.102,0.109,0.205,0.188,0.354
		c-0.809,0.145-1.586,0.292-2.366,0.424c-0.736,0.125-0.737,0.118-1.097-0.529c-0.972-1.749-1.942-3.496-2.914-5.244
		c-0.354-0.635-0.66-0.726-1.29-0.376c-5.737,3.18-11.476,6.36-17.212,9.542c-0.692,0.384-0.778,0.672-0.402,1.349
		c2.154,3.885,4.31,7.77,6.464,11.655c0.369,0.666,0.667,0.752,1.319,0.393c0.476-0.264,0.953-0.523,1.431-0.785
		c0.024-0.012,0.059-0.01,0.104-0.016c0.179,0.984,0.354,1.969,0.538,2.951c0.031,0.172-0.023,0.266-0.177,0.35
		c-1.058,0.578-2.104,1.176-3.167,1.748c-0.501,0.271-0.887,0.115-1.192-0.438c-2.796-5.043-5.589-10.086-8.384-15.128
		c-0.406-0.732-0.82-1.461-1.231-2.192C23.486,99.857,23.486,99.68,23.486,99.504z"/>
	<path fill="#A4A5A6" d="M337.384,85.167c-0.009,0.035-0.018,0.07-0.024,0.105c-0.159,0.139-0.357,0.125-0.546,0.125
		c-2.475,0.005-4.949,0.003-7.424,0c-0.204,0-0.417,0.013-0.587-0.14c-0.001-0.031-0.002-0.061-0.003-0.091
		C331.662,85.167,334.524,85.167,337.384,85.167z"/>
	<path fill="#646262" d="M87.805,85.263c-0.494-0.06-1,0.089-1.485-0.096c0.501,0,1.002,0,1.504,0
		C87.817,85.199,87.81,85.231,87.805,85.263z"/>
	<path fill="#545051" d="M83.398,85.167c-0.177,0.127-0.354,0.146-0.53,0C83.044,85.167,83.222,85.167,83.398,85.167z"/>
	<path fill="#4C4D4F" d="M211.373,96.997c0.377-0.534,0.756-1.067,1.127-1.604c0.918-1.324,2.046-2.352,3.697-2.656
		c1.396-0.258,2.783-0.246,4.166,0.074c1.258,0.292,2.124,1.094,2.777,2.165c0.384,0.629,0.673,1.303,0.935,2.072
		c0.291-0.449,0.549-0.853,0.813-1.253c0.633-0.963,1.263-1.916,2.333-2.48c1.314-0.695,2.723-0.792,4.165-0.732
		c1.34,0.056,2.605,0.353,3.652,1.239c1.295,1.097,1.887,2.562,2.071,4.212c0.039,0.351,0.045,0.706,0.045,1.06
		c0.002,8.494-0.002,16.989,0.012,25.483c0.001,0.43-0.105,0.531-0.529,0.527c-2.521-0.021-5.044-0.021-7.566,0
		c-0.406,0.004-0.473-0.117-0.472-0.49c0.011-7.152,0.009-14.307,0.007-21.457c0-0.608-0.067-1.207-0.303-1.774
		c-0.314-0.759-0.892-1.148-1.712-1.171c-0.822-0.023-1.411,0.333-1.758,1.085c-0.325,0.709-0.444,1.461-0.444,2.234
		c-0.003,7.021-0.005,14.04,0.007,21.06c0,0.385-0.072,0.518-0.494,0.514c-2.536-0.021-5.073-0.021-7.609,0
		c-0.422,0.004-0.497-0.129-0.497-0.516c0.013-7.139,0.008-14.275,0.011-21.415c0-0.608-0.054-1.206-0.284-1.776
		c-0.317-0.776-0.909-1.177-1.743-1.188c-0.838-0.01-1.444,0.346-1.775,1.13c-0.271,0.646-0.39,1.32-0.39,2.022
		c0.005,7.064-0.003,14.129,0.015,21.191c0.001,0.455-0.116,0.553-0.556,0.549c-2.521-0.021-5.044-0.018-7.565-0.002
		c-0.35,0-0.471-0.059-0.471-0.445c0.015-10.338,0.013-20.676,0.004-31.013c0-0.325,0.054-0.451,0.422-0.448
		c2.464,0.019,4.927,0.019,7.389,0c0.384-0.003,0.458,0.115,0.449,0.47c-0.022,1.099-0.01,2.198-0.01,3.298
		C211.32,96.974,211.347,96.985,211.373,96.997z"/>
	<path fill="#4C4D4F" d="M262.207,97.013c0.443-0.667,0.885-1.31,1.305-1.964c0.984-1.532,2.438-2.261,4.2-2.433
		c1.148-0.112,2.3-0.104,3.425,0.193c2.241,0.591,3.409,2.171,3.943,4.325c0.19,0.765,0.216,1.545,0.217,2.326
		c0.006,8.376,0,16.752,0.012,25.127c0,0.391-0.079,0.52-0.498,0.516c-2.537-0.021-5.073-0.02-7.61,0
		c-0.368,0.002-0.459-0.092-0.459-0.461c0.012-7.094,0.011-14.188,0.005-21.279c0-0.737-0.056-1.471-0.399-2.151
		c-0.362-0.713-0.962-1.004-1.73-1c-0.746,0.005-1.296,0.336-1.623,1.015c-0.347,0.718-0.477,1.479-0.477,2.271
		c0.001,7.035-0.003,14.068,0.011,21.103c0.001,0.404-0.104,0.506-0.505,0.502c-2.506-0.021-5.013-0.021-7.521,0
		c-0.438,0.004-0.583-0.08-0.582-0.559c0.02-7.139,0.014-14.275,0.016-21.415c0-0.564-0.062-1.117-0.263-1.648
		c-0.323-0.852-0.923-1.27-1.815-1.272c-0.87-0.002-1.451,0.402-1.785,1.251c-0.292,0.738-0.371,1.513-0.371,2.297
		c-0.002,6.947-0.005,13.892,0.009,20.837c0,0.398-0.096,0.51-0.503,0.506c-2.536-0.02-5.072-0.018-7.608,0
		c-0.359,0.002-0.43-0.107-0.43-0.443c0.011-10.338,0.009-20.676,0.001-31.014c0-0.325,0.054-0.452,0.423-0.449
		c2.479,0.018,4.955,0.018,7.434,0c0.347-0.002,0.407,0.106,0.402,0.422c-0.02,1.116-0.008,2.232-0.008,3.486
		c0.438-0.626,0.799-1.152,1.172-1.668c0.749-1.036,1.561-2.005,2.83-2.436c1.787-0.607,3.594-0.596,5.391-0.087
		c1.473,0.417,2.255,1.581,2.888,2.865C261.891,96.168,262.032,96.584,262.207,97.013z"/>
	<path fill="#4C4D4F" d="M312.203,96.604c0.341-0.459,0.702-0.905,1.018-1.38c1.258-1.891,3.067-2.665,5.277-2.664
		c0.826,0,1.647,0.042,2.448,0.278c2.221,0.655,3.285,2.301,3.773,4.428c0.146,0.632,0.188,1.28,0.188,1.931
		c-0.003,8.45-0.005,16.899,0.007,25.349c0.001,0.42-0.063,0.568-0.534,0.563c-2.521-0.029-5.043-0.021-7.563-0.004
		c-0.381,0.002-0.49-0.08-0.49-0.48c0.015-7.195,0.011-14.391,0.012-21.588c0-0.563-0.026-1.121-0.226-1.655
		c-0.279-0.754-0.846-1.154-1.649-1.168c-0.839-0.015-1.44,0.356-1.755,1.089c-0.292,0.682-0.293,1.406-0.293,2.129
		c-0.001,7.035-0.006,14.068,0.011,21.103c0.001,0.463-0.118,0.576-0.575,0.572c-2.521-0.023-5.044-0.018-7.564-0.006
		c-0.32,0.002-0.451-0.045-0.449-0.42c0.012-10.352,0.009-20.702,0.003-31.054c-0.001-0.304,0.037-0.432,0.396-0.429
		c2.493,0.018,4.983,0.016,7.477,0.001c0.338-0.002,0.419,0.095,0.413,0.42c-0.021,0.983-0.008,1.968-0.008,2.952
		C312.145,96.582,312.173,96.592,312.203,96.604z"/>
	<path fill="#4C4D4F" d="M291.681,121.586c-0.404,0.537-0.737,0.977-1.063,1.418c-0.711,0.969-1.561,1.771-2.708,2.193
		c-1.746,0.641-3.531,0.738-5.276,0.088c-2.206-0.818-3.263-2.586-3.654-4.818c-0.085-0.48-0.092-0.967-0.092-1.453
		c0.002-8.436,0.005-16.873-0.009-25.308c0-0.389,0.079-0.514,0.496-0.51c2.536,0.022,5.072,0.02,7.609,0.001
		c0.392-0.003,0.483,0.098,0.482,0.486c-0.013,7.241-0.008,14.482-0.013,21.724c0,0.602,0.116,1.168,0.39,1.703
		c0.342,0.67,0.887,1.01,1.642,0.975c0.766-0.037,1.311-0.41,1.603-1.121c0.216-0.523,0.281-1.078,0.281-1.645
		c-0.004-7.197,0.001-14.394-0.013-21.591c-0.001-0.414,0.078-0.538,0.518-0.534c2.553,0.024,5.104,0.019,7.654,0.004
		c0.334-0.002,0.415,0.087,0.415,0.417c-0.011,10.353-0.009,20.706-0.001,31.06c0.001,0.314-0.058,0.43-0.404,0.428
		c-2.493-0.016-4.984-0.016-7.478-0.002c-0.316,0.002-0.394-0.098-0.387-0.398C291.692,123.703,291.681,122.707,291.681,121.586z"/>
	<path fill="#4C4D4F" d="M154.182,109.086c0-2.625-0.004-5.25,0.001-7.875c0.007-4.05,1.916-6.766,5.783-7.96
		c3.413-1.054,6.877-1.05,10.229,0.252c3.142,1.221,4.709,3.684,4.973,7c0.11,1.397,0.021,2.801,0.044,4.201
		c0.005,0.227-0.063,0.306-0.298,0.305c-2.654-0.006-5.31-0.009-7.965,0.002c-0.29,0.001-0.291-0.137-0.294-0.351
		c-0.019-1.532,0.057-3.066-0.063-4.597c-0.079-1.009-0.483-1.507-1.358-1.616c-1.232-0.152-2.033,0.243-2.344,1.169
		c-0.123,0.366-0.161,0.747-0.161,1.133c0.001,5.575,0.001,11.15,0,16.726c0,0.4,0.054,0.789,0.212,1.164
		c0.384,0.9,1.104,1.324,2.077,1.209c0.892-0.104,1.413-0.648,1.584-1.633c0.054-0.309,0.054-0.615,0.054-0.926
		c0.001-1.77,0.007-3.539-0.006-5.309c-0.002-0.32,0.044-0.455,0.419-0.451c2.596,0.02,5.192,0.018,7.788,0.002
		c0.339-0.002,0.409,0.094,0.406,0.416c-0.018,1.592-0.008,3.186-0.008,4.777c0,4.449-2.25,7.4-6.58,8.477
		c-3.222,0.799-6.438,0.758-9.536-0.559c-3.309-1.404-4.933-3.973-4.957-7.549C154.166,114.426,154.182,111.756,154.182,109.086z"/>
	<path fill="#231F20" d="M41.364,118.633c-0.56,0-0.884-0.277-0.976-0.795c-0.357-1.998-0.709-3.998-1.062-5.998
		c-0.543-3.086-1.086-6.172-1.629-9.258c-0.025-0.145-0.057-0.289-0.076-0.434c-0.08-0.635,0.198-1.018,0.829-1.128
		c3.392-0.596,6.783-1.188,10.173-1.785c4.086-0.718,8.172-1.438,12.258-2.157c0.132-0.023,0.262-0.044,0.394-0.064
		c0.718-0.111,1.083,0.144,1.212,0.862c0.275,1.535,0.542,3.071,0.813,4.607c0.638,3.623,1.273,7.248,1.914,10.869
		c0.125,0.707-0.119,1.098-0.839,1.227c-3.446,0.615-6.896,1.223-10.345,1.83c-4.086,0.721-8.172,1.439-12.258,2.16
		C41.611,118.596,41.45,118.619,41.364,118.633z"/>
	<path fill="#4C4D4F" d="M342.62,110.285c0-3.376-0.005-6.754,0.008-10.131c0.002-0.358-0.075-0.497-0.455-0.468
		c-0.454,0.035-0.914-0.004-1.37,0.013c-0.244,0.01-0.327-0.06-0.324-0.316c0.009-1.844,0.009-3.687,0-5.53
		c-0.002-0.234,0.068-0.305,0.3-0.298c0.485,0.016,0.974-0.014,1.459,0.012c0.315,0.017,0.394-0.092,0.391-0.397
		c-0.013-2.02,0.009-4.041-0.019-6.061c-0.005-0.445,0.13-0.525,0.542-0.522c2.536,0.02,5.072,0.017,7.608,0.002
		c0.347-0.002,0.441,0.084,0.438,0.436c-0.018,2.035,0,4.07-0.017,6.105c-0.004,0.346,0.082,0.462,0.436,0.438
		c0.47-0.032,0.944,0.004,1.415-0.013c0.232-0.007,0.302,0.068,0.3,0.301c-0.008,1.843-0.009,3.687,0.002,5.53
		c0.002,0.264-0.093,0.321-0.333,0.313c-0.483-0.015-0.973,0.008-1.459-0.01c-0.256-0.009-0.358,0.042-0.358,0.333
		c0.01,5.811,0.007,11.622,0.011,17.433c0,0.189,0.034,0.383,0.067,0.57c0.155,0.861,0.484,1.154,1.357,1.215
		c0.824,0.055,0.824,0.055,0.824,0.885c0,1.742-0.007,3.482,0.006,5.223c0.003,0.307-0.082,0.402-0.396,0.398
		c-1.826-0.023-3.655,0.01-5.482-0.047c-1.403-0.045-2.717-0.396-3.667-1.549c-0.936-1.137-1.273-2.477-1.278-3.91
		C342.613,116.924,342.62,113.605,342.62,110.285z"/>
	<path fill="#231F20" d="M115.966,110.412c0-3.422-0.006-6.843,0.009-10.265c0.002-0.362-0.075-0.491-0.454-0.461
		c-0.454,0.037-0.914-0.003-1.371,0.013c-0.238,0.008-0.331-0.047-0.329-0.31c0.011-1.843,0.011-3.688,0-5.531
		c-0.002-0.273,0.105-0.311,0.335-0.304c0.442,0.015,0.889-0.029,1.327,0.014c0.43,0.043,0.495-0.132,0.491-0.513
		c-0.019-2.005-0.002-4.011-0.016-6.017c-0.001-0.316,0.039-0.455,0.417-0.452c2.565,0.02,5.133,0.018,7.698,0.002
		c0.356-0.002,0.439,0.102,0.438,0.443c-0.016,2.006,0.008,4.013-0.02,6.018c-0.006,0.443,0.126,0.552,0.541,0.518
		c0.454-0.038,0.915,0.002,1.371-0.013c0.213-0.006,0.274,0.061,0.273,0.273c-0.009,1.858-0.009,3.716,0,5.575
		c0.001,0.231-0.061,0.307-0.294,0.297c-0.428-0.019-0.856-0.005-1.283-0.005c-0.597,0-0.597,0-0.597,0.575c0,2.035,0,4.071,0,6.106
		c0,3.453-0.002,6.902,0.002,10.353c0,0.367,0.016,0.736,0.051,1.104c0.094,0.982,0.49,1.357,1.467,1.412
		c0.739,0.041,0.739,0.041,0.739,0.768c0,1.785-0.004,3.57,0.004,5.355c0.001,0.258-0.025,0.389-0.346,0.383
		c-1.813-0.025-3.626-0.025-5.438-0.037c-0.533-0.004-1.057-0.094-1.57-0.229c-2.062-0.547-2.979-2.059-3.354-4.016
		c-0.083-0.436-0.095-0.877-0.095-1.32C115.968,116.902,115.966,113.656,115.966,110.412z"/>
	<path fill="#4C4D4F" d="M328.786,109.104c0-5.147,0.005-10.293-0.009-15.44c0-0.358,0.072-0.469,0.452-0.466
		c2.564,0.018,5.133,0.018,7.696,0c0.38-0.003,0.452,0.116,0.452,0.472c-0.01,10.323-0.01,20.645,0,30.967
		c0,0.363-0.087,0.469-0.457,0.467c-2.564-0.018-5.132-0.02-7.697,0c-0.391,0.004-0.446-0.125-0.445-0.473
		C328.788,119.453,328.786,114.277,328.786,109.104z"/>
	<path fill="#4C4D4F" d="M328.803,85.258c2.853,0.005,5.704,0.009,8.557,0.014c0.004,1.829,0.004,3.657,0.016,5.485
		c0.001,0.249-0.07,0.329-0.324,0.329c-2.653-0.008-5.309-0.008-7.964-0.001c-0.227,0-0.306-0.064-0.305-0.298
		C328.795,88.944,328.797,87.102,328.803,85.258z"/>
	<path fill="#231F20" d="M111.364,109.164c0,2.758,0.043,5.514-0.01,8.271c-0.074,3.787-2.03,6.445-5.648,7.551
		c-3.6,1.1-7.22,1.066-10.712-0.443c-2.885-1.248-4.362-3.568-4.604-6.682c-0.104-1.324-0.038-2.652-0.04-3.979
		c-0.007-4.23-0.014-8.462,0.002-12.693c0.006-2.048,0.544-3.926,1.924-5.499c1.251-1.426,2.862-2.243,4.675-2.672
		c2.986-0.708,5.961-0.665,8.883,0.32c3.557,1.199,5.529,4.051,5.542,7.954c0.011,2.625,0.002,5.249,0.002,7.874
		C111.372,109.164,111.368,109.164,111.364,109.164z M98.884,117.332c-0.001,0.369,0.021,0.738,0.101,1.098
		c0.199,0.896,0.834,1.406,1.765,1.43c1.093,0.023,1.688-0.387,1.956-1.338c0.102-0.357,0.116-0.727,0.116-1.096
		c0-5.512,0.001-11.025-0.001-16.54c0-0.264-0.014-0.53-0.047-0.792c-0.127-1.001-0.746-1.601-1.697-1.661
		c-1.135-0.072-1.831,0.375-2.077,1.352c-0.094,0.373-0.116,0.755-0.115,1.14c0.003,2.742,0.001,5.483,0.001,8.227
		C98.886,111.879,98.888,114.607,98.884,117.332z"/>
	<path fill="#231F20" d="M129.197,109.133c0-2.579-0.006-5.159,0.002-7.739c0.005-1.754,0.343-3.422,1.339-4.909
		c1.267-1.89,3.093-2.952,5.255-3.457c3.367-0.786,6.703-0.725,9.897,0.729c2.582,1.176,4.033,3.248,4.444,6.054
		c0.08,0.557,0.094,1.114,0.094,1.675c0,5.249,0.013,10.499-0.007,15.747c-0.01,2.346-0.693,4.441-2.513,6.043
		c-1.197,1.053-2.619,1.684-4.168,2.01c-3.147,0.662-6.272,0.631-9.296-0.57c-3.184-1.266-4.864-3.699-4.997-7.092
		c-0.108-2.824-0.021-5.658-0.021-8.49C129.216,109.133,129.206,109.133,129.197,109.133z M141.699,100.992
		c0-0.337-0.023-0.679-0.082-1.011c-0.173-1-0.82-1.537-1.837-1.554c-1.061-0.019-1.728,0.465-1.934,1.429
		c-0.063,0.286-0.093,0.584-0.093,0.876c-0.005,5.617-0.003,11.232-0.003,16.85c0,0.385,0.053,0.768,0.181,1.129
		c0.286,0.807,0.939,1.18,1.977,1.146c0.824-0.025,1.401-0.461,1.634-1.238c0.128-0.426,0.161-0.865,0.162-1.309
		c0.001-2.729,0-5.455,0-8.184C141.703,106.417,141.705,103.705,141.699,100.992z"/>
	<path fill="#4C4D4F" d="M199.433,109.205c0,2.668,0.001,5.338,0,8.008c-0.003,3.869-1.997,6.666-5.702,7.789
		c-3.438,1.043-6.905,1.025-10.274-0.287c-3.21-1.252-4.931-3.721-4.999-7.137c-0.106-5.408-0.053-10.821-0.049-16.233
		c0.001-1.864,0.403-3.623,1.542-5.156c1.273-1.714,3.021-2.687,5.057-3.166c3.108-0.731,6.2-0.691,9.216,0.439
		c3.301,1.237,5.202,4.036,5.208,7.558C199.436,103.749,199.433,106.478,199.433,109.205z M186.956,117.326
		c0,0.279,0.022,0.559,0.061,0.836c0.155,1.15,0.804,1.703,1.973,1.695c1.083-0.008,1.723-0.598,1.854-1.727
		c0.039-0.334,0.061-0.674,0.062-1.012c0.003-5.395,0.005-10.788,0-16.183c0-0.667-0.035-1.343-0.483-1.887
		c-0.558-0.675-1.32-0.722-2.102-0.558c-0.772,0.163-1.146,0.728-1.282,1.463c-0.056,0.302-0.079,0.615-0.08,0.923
		c-0.006,2.741-0.003,5.482-0.003,8.222C186.954,111.844,186.952,114.586,186.956,117.326z"/>
</g>
</svg>
