<?xml version="1.0" encoding="utf-8"?>
<!-- Generator: Adobe Illustrator 16.0.3, SVG Export Plug-In . SVG Version: 6.00 Build 0)  -->
<!DOCTYPE svg PUBLIC "-//W3C//DTD SVG 1.1//EN" "http://www.w3.org/Graphics/SVG/1.1/DTD/svg11.dtd">
<svg version="1.1" id="svg2403" xmlns:svg="http://www.w3.org/2000/svg"
	 xmlns="http://www.w3.org/2000/svg" xmlns:xlink="http://www.w3.org/1999/xlink" x="0px" y="0px" width="400px" height="216px"
	 viewBox="0 92 400 216" enable-background="new 0 92 400 216" xml:space="preserve">
<g id="layer1">
	<g id="g3204" transform="translate(197.32956,-147.16287)">
		<polyline id="polyline11" fill="#FFCC0F" points="-192.678,375.721 197.229,375.721 197.229,365.459 -192.678,365.459 		"/>
		<path id="path13" fill="#1B171B" d="M180.563,353.649c0,2.045-0.358,2.465-2.348,3.776l0.094,0.433h11.063l0.112-0.433
			c-1.94-1.313-2.373-1.731-2.373-3.776v-31.118c6.451,0,7.816,1.366,10.49,4.503l0.418-0.208l-2.045-7.34h-24.263l-1.979,7.34
			l0.42,0.208c2.613-3.137,3.979-4.503,10.41-4.503 M157.628,318.604c-6.301,0-11.849,3.666-11.849,10.424
			c0,6.354,4.02,9.556,8.052,12.217l2.948,1.934l2.596,1.928c1.522,1.367,2.541,2.91,2.541,4.937c0,3.661-2.563,5.981-5.561,5.981
			c-5.296,0-8.688-2.942-9.367-7.877l-0.477-0.203l-2.047,7.549c0,0,5.766,3.296,11.891,3.296c6.606,0,12.012-3.72,12.012-10.472
			c0-6.602-4.039-9.641-8.077-12.124l-2.98-1.798l-2.575-1.902c-1.504-1.364-2.509-2.973-2.509-5.188
			c0-3.57,1.836-5.981,5.402-5.981c5.335,0,7.439,2.883,8.157,7.706l0.426,0.209l2.046-7.326
			C168.256,321.912,163.334,318.604,157.628,318.604z M126.709,321.964c5.348,0,9.164,5.712,9.164,16.661
			c0,11.364-3.301,16.771-9.164,16.771c-5.354,0-9.063-5.674-9.063-16.771C117.643,327.467,120.846,321.964,126.709,321.964z
			 M126.709,318.918c-9.432,0-16.293,7.961-16.293,19.706c0,11.686,6.805,19.802,16.293,19.802c9.433,0,16.354-7.868,16.354-19.594
			C143.061,327.089,136.192,318.918,126.709,318.918z M90.963,342.63h-1.477v-20.116h2.635c6.24,0,8.594,3.529,8.594,10.405
			C100.715,341.035,96.905,342.63,90.963,342.63z M92.389,319.486H81.024l-0.111,0.432c1.688,1.307,2.047,1.726,2.047,3.776v29.953
			c0,2.047-0.358,2.465-2.047,3.777l0.111,0.432H92.07l0.111-0.432c-2.262-1.313-2.675-1.73-2.675-3.777v-8.005h1.456
			c10.342,0,16.98-3.719,16.98-13.052C107.944,324.624,103.33,319.486,92.389,319.486z M43.346,357.858h18.973l3.147-7.302
			l-0.377-0.248c-2.654,3.19-5.544,4.497-9.902,4.497l-3.339-0.359v-15.555h1.726c4.019,0,6.072,0.15,8.273,0.83l0.358-0.111
			l1.157-4.288l-0.359-0.11c-2.202,0.68-4.255,0.738-8.272,0.738h-2.883v-13.318l2.196-0.1c6.607,0,7.953,1.366,10.476,4.504
			l0.359-0.208l-1.993-7.341H43.345l-0.092,0.432c1.673,1.307,2.024,1.726,2.024,3.776v29.952c0,2.047-0.354,2.467-2.024,3.778
			L43.346,357.858z M31.548,353.649c0,2.045-0.358,2.465-2.024,3.776l0.092,0.433h10.28l0.15-0.433
			c-1.687-1.313-2.104-1.731-2.104-3.776v-29.954c0-2.052,0.418-2.47,2.104-3.776l-0.15-0.433h-10.28l-0.092,0.433
			c1.666,1.307,2.024,1.726,2.024,3.776v11.836H18.994v-11.836c0-2.052,0.411-2.47,2.077-3.776l-0.144-0.433H10.608l-0.119,0.433
			c1.687,1.307,2.053,1.726,2.053,3.776v29.954c0,2.045-0.366,2.465-2.053,3.776l0.119,0.433h10.319l0.144-0.433
			c-1.666-1.313-2.077-1.731-2.077-3.776v-14.727h12.554V353.649z M-9.906,338.414c0-10.849,3.516-16.562,9.489-16.562
			c3.889,0,5.672,3.412,5.98,8.234l0.471,0.15l2.354-8.438c-2.412-1.83-5.184-2.883-8.484-2.883
			c-10.019,0-17.182,7.751-17.182,18.908c0,12.162,6.39,20.601,16.77,20.601c3.98,0,6.962-1.726,9.368-4.188l-1.662-3.302H6.773
			c-1.777,2.884-3.62,4.46-6.98,4.46C-6.124,355.395-9.906,349.421-9.906,338.414z M-30.488,318.604
			c-6.274,0-11.835,3.666-11.835,10.424c0,6.354,4.02,9.556,8.045,12.217l2.935,1.934l2.609,1.928
			c1.507,1.367,2.541,2.91,2.541,4.937c0,3.661-2.563,5.981-5.542,5.981c-5.294,0-8.706-2.942-9.393-7.877l-0.47-0.203l-2.039,7.549
			c0,0,5.771,3.296,11.901,3.296c6.601,0,11.985-3.72,11.985-10.472c0-6.602-4.038-9.641-8.076-12.124l-2.962-1.798l-2.581-1.902
			c-1.498-1.364-2.504-2.973-2.504-5.188c0-3.57,1.823-5.981,5.385-5.981c5.354,0,7.438,2.883,8.184,7.706l0.412,0.209l2.052-7.326
			C-19.842,321.912-24.776,318.604-30.488,318.604z M-55.056,353.649c0,2.045-0.379,2.465-2.104,3.776l0.11,0.433h10.32l0.099-0.433
			c-1.674-1.313-2.085-1.731-2.085-3.776v-29.954c0-2.052,0.412-2.47,2.046-3.776l-0.11-0.433h-10.208l-0.111,0.433
			c1.667,1.307,2.046,1.726,2.046,3.776v29.954H-55.056z M-68.368,357.858h5.195v-34.163c0-2.052,0.359-2.47,2.354-3.776
			l-0.151-0.433h-7.875l-0.099,0.433c2.144,1.307,2.504,1.726,2.504,3.776v23.145l-15.28-27.354h-7.974l-0.092,0.432
			c1.935,1.307,2.346,1.726,2.346,3.776v29.953c0,2.047-0.413,2.465-2.346,3.777l0.092,0.432h7.854l0.118-0.432
			c-2.111-1.313-2.522-1.73-2.522-3.777v-23.769L-68.368,357.858z M-101.44,353.649c0,2.045-0.359,2.465-2.084,3.776l0.117,0.433
			h10.32l0.092-0.433c-1.674-1.313-2.085-1.731-2.085-3.776v-29.954c0-2.052,0.411-2.47,2.025-3.776l-0.091-0.433h-10.229
			l-0.093,0.433c1.667,1.307,2.026,1.726,2.026,3.776V353.649L-101.44,353.649z M-128.202,357.858h18.965l3.15-7.302l-0.358-0.248
			c-2.682,3.19-5.563,4.497-9.909,4.497l-3.354-0.359v-15.555h1.732c4.033,0,6.065,0.15,8.261,0.83l0.387-0.111l1.157-4.288
			l-0.386-0.11c-2.189,0.68-4.249,0.738-8.269,0.738h-2.883v-13.318l2.196-0.1c6.607,0,7.974,1.366,10.478,4.504l0.378-0.208
			l-1.993-7.341h-19.555l-0.1,0.432c1.674,1.307,2.052,1.726,2.052,3.776v29.952c0,2.047-0.378,2.467-2.052,3.778L-128.202,357.858z
			 M-139.987,353.649c0,2.045-0.379,2.465-2.052,3.776l0.116,0.433h10.269l0.144-0.433c-1.667-1.313-2.08-1.731-2.08-3.776v-29.954
			c0-2.052,0.413-2.47,2.08-3.776l-0.144-0.433h-10.269l-0.116,0.432c1.673,1.307,2.052,1.726,2.052,3.776v11.836h-12.575v-11.836
			c0-2.052,0.412-2.47,2.084-3.776l-0.149-0.433h-10.319l-0.1,0.432c1.667,1.307,2.027,1.726,2.027,3.776v29.952
			c0,2.047-0.359,2.467-2.027,3.778l0.1,0.431h10.319l0.15-0.431c-1.673-1.313-2.084-1.731-2.084-3.778v-14.724h12.575
			L-139.987,353.649L-139.987,353.649z M-180.758,342.191l-3.222-0.176v-19.503h2.065c6.45,0,9.581,3.208,9.581,9.719
			C-172.333,339.349-175.789,342.191-180.758,342.191z M-180.758,319.486h-11.679l-0.118,0.432c1.688,1.308,2.052,1.726,2.052,3.777
			v29.954c0,2.045-0.364,2.465-2.052,3.776l0.118,0.433h10.463l0.118-0.433c-1.687-1.313-2.104-1.731-2.104-3.776v-8.366h2.942
			l8.058,12.575h8.96l0.111-0.432c-1.993-1.313-2.829-2.091-4.045-3.777l-6.653-9.372c4.727-1.573,9.483-5.294,9.483-12.261
			C-165.104,324.264-170.13,319.486-180.758,319.486z"/>
	</g>
</g>
</svg>
