<?xml version="1.0" encoding="utf-8"?>
<!-- Generator: Adobe Illustrator 16.0.3, SVG Export Plug-In . SVG Version: 6.00 Build 0)  -->
<!DOCTYPE svg PUBLIC "-//W3C//DTD SVG 1.1//EN" "http://www.w3.org/Graphics/SVG/1.1/DTD/svg11.dtd">
<svg version="1.1" id="Ebene_1" xmlns="http://www.w3.org/2000/svg" xmlns:xlink="http://www.w3.org/1999/xlink" x="0px" y="0px"
	 width="400px" height="216px" viewBox="0 92 400 216" enable-background="new 0 92 400 216" xml:space="preserve">
<g>
	<g transform="translate(4970)">
		<path fill="#D2112E" d="M-4912.991,165.239c-19.201,0-34.763,15.562-34.763,34.762c0,19.201,15.562,34.761,34.763,34.761
			c19.192,0,34.761-15.561,34.761-34.761C-4878.23,180.8-4893.798,165.239-4912.991,165.239z M-4912.991,171.384
			c8.632,0,16.379,3.833,21.627,9.88h-9.989l0.915-1.871c1.018-2.209-2.89-4.132-4.021-1.707l-1.811,3.578h-28.352
			C-4929.194,174.979-4921.298,171.37-4912.991,171.384z M-4941.609,200c0-5.501,1.556-10.639,4.242-15.003
			c0,0,26.48,1.16,26.748,1.163c0.384-0.003,0.729,0.233,0.865,0.591l2.769,6.523c0.132,0.316,0.117,0.907-0.905,0.907
			l-25.814-0.005c-1.766-0.008-3.201,1.415-3.211,3.18c0,0.002,0,0.004,0,0.006v9.673c0,0.76,0.223,1.449,0.657,1.957
			c0.725,0.842,1.937,1.273,2.146,1.352c0.333,0.119,0.395-0.102,0.395-0.275l-0.003-12.315c0-0.324,0.2-0.47,0.417-0.47
			l2.811,0.002c0.073,0,0.39-0.009,0.156,0.338c-0.874,1.311-1.331,2.576-1.331,4.836c0,3.484,2.577,5.908,3.404,6.504
			c0.092,0.061,0.238,0.293,0.071,0.621c-0.156,0.328-2.529,5.02-2.621,5.195c-0.132,0.252-0.225,0.559,0.092,0.873l12.568,12.481
			C-4931.494,225.711-4941.609,214.047-4941.609,200z M-4911.545,228.58c0,0-12.072-12.102-12.915-12.943
			c-0.289-0.291-0.069-0.52,0.061-0.789c0.127-0.264,4.346-8.233,4.527-8.602c0.129-0.252,0.378-0.42,0.659-0.445h2.841
			c0.079,0,0.428,0.041,0.237,0.428c-0.183,0.39-3.948,7.873-4.039,8.058c-0.097,0.213-0.051,0.461,0.113,0.627
			c0.158,0.174,13.07,13.073,13.07,13.073C-4908.471,228.303-4909.996,228.506-4911.545,228.58z M-4902.258,226.533l-11.426-11.459
			c-0.225-0.236-0.146-0.531-0.088-0.666l4.101-8.189c0.14-0.27,0.424-0.436,0.729-0.416h7.189c0.208,0,0.314,0.187,0.21,0.438
			l-1.93,4.37c-0.029,0.109-0.107,0.414,0.154,0.593l2.642,1.728c0.338,0.219,0.577,0,0.672-0.201
			c0.073-0.16,2.831-6.519,2.831-6.519c0.183-0.319,0.403-0.407,0.74-0.407h2.424c0.088,0.01,0.376,0.077,0.224,0.416
			c-0.155,0.34-2,4.577-2,4.577c-0.037,0.111-0.107,0.412,0.151,0.591l2.663,1.758c0.336,0.219,0.576-0.004,0.666-0.203
			c0.095-0.199,2.929-6.646,3.164-7.193c0.76-1.764,0.434-4.725-3.063-4.725h-3.907c-0.435,0-0.542-0.338-0.542-0.49V187
			c0-0.549,0.287-0.824,0.681-0.87c0.17-0.016,7.361-1.122,7.361-1.122c2.777,4.507,4.242,9.698,4.231,14.992
			C-4884.382,212.012-4891.769,222.289-4902.258,226.533z"/>
	</g>
	<g transform="translate(5015)">
		<path fill="#D2112E" d="M-4753.202,167.061c-0.062-0.309-0.258-0.36-0.473-0.36h-1.79c-0.176-0.002-0.335,0.105-0.402,0.268
			c-0.1,0.21-10.733,25.092-10.92,25.515c-0.188,0.422-0.366,0.366-0.574-0.09c-0.108-0.242-11.579-25.152-11.691-25.384
			c-0.115-0.235-0.273-0.31-0.498-0.31h-1.918c-0.099,0-0.344,0.04-0.395,0.291c-0.045,0.249-5.302,34.081-5.325,34.228
			c-0.024,0.146-0.045,0.508,0.387,0.508h2.387c0.344,0,0.607-0.156,0.659-0.477l3.61-23.126c0.058-0.398,0.167-0.421,0.342-0.049
			c0.101,0.207,10.694,23.245,10.775,23.411c0.082,0.171,0.226,0.242,0.32,0.242h1.185c0.104,0,0.223-0.086,0.309-0.271
			s9.776-22.864,9.946-23.25c0.166-0.383,0.264-0.383,0.347,0.058l4.079,23.116c0.05,0.289,0.226,0.349,0.527,0.349h4.616
			c0.338,0,0.568-0.289,0.52-0.568C-4747.325,200.366-4753.154,167.311-4753.202,167.061z M-4725.049,187.099
			c0.109,0.245,0.082,0.5-0.409,0.5h-9.854c-0.39,0-0.518-0.195-0.361-0.555l4.971-11.511c0.157-0.365,0.422-0.292,0.549-0.002
			C-4729.962,175.961-4725.152,186.862-4725.049,187.099z M-4727.526,167.742c-0.404-0.896-0.881-1.045-1.244-1.045h-1.417
			c-0.145,0-0.338,0.073-0.468,0.363c-0.126,0.29-14.443,33.499-14.664,33.992c-0.174,0.39-0.174,0.675,0.334,0.675h2.585
			c0.237,0,0.429-0.082,0.603-0.472c0.199-0.466,4.09-9.483,4.235-9.831c0.193-0.453,0.584-0.417,0.848-0.417h12.837
			c0.245,0,0.536-0.056,0.732,0.418l4.332,9.812c0.123,0.291,0.413,0.486,0.665,0.486h4.854c0.418,0,0.592-0.348,0.459-0.652
			C-4712.938,200.846-4727.166,168.533-4727.526,167.742z M-4808.579,173.905c0-2.557,1.825-4.523,4.272-5.061
			c2.388-0.525,5.381-0.017,6.939,2.01c0.211,0.272,0.41,0.612,0.601,0.942c0.129,0.224,0.354,0.438,0.825,0.464
			c0.115,0.005,0.584,0.026,0.831,0.033c0.245,0.005,0.591-0.157,0.571-0.516c-0.036-0.695-0.153-3.115-0.174-3.497
			c-0.023-0.479-0.222-0.552-0.508-0.678c-1.24-0.544-2.541-0.942-3.871-1.186c-3.116-0.558-6.453-0.385-9.395,0.852
			c-2.716,1.141-4.764,3.386-5.574,6.229c-0.627,2.199-0.438,4.705,0.757,6.698c1.116,1.851,2.806,3.002,4.737,3.845
			c1.961,0.857,3.984,1.575,5.954,2.414c2.438,1.04,4.342,2.229,4.959,4.3c0.745,2.511,0.288,5.195-1.748,7.038
			c-2.757,2.489-10.175,2.093-12.659-1.582c-0.454-0.67-0.536-1.079-1.246-1.065c-0.448,0.007-1.079,0-1.079,0.608l0.004,3.805
			c0,0.42,0.029,0.76,0.466,0.947c0.774,0.332,1.659,0.64,2.483,0.904c1.333,0.424,2.679,0.633,4.069,0.776
			c8.996,0.939,15.513-3.6,15.513-11.445c0-2.79-1.026-5.558-3.353-7.246c-1.987-1.446-4.495-2.31-6.8-3.088
			c-1.332-0.449-2.936-0.972-4.125-1.743C-4807.825,177.56-4808.557,175.932-4808.579,173.905 M-4637.248,167.281
			c0-0.319-0.258-0.582-0.576-0.583c-0.002,0-0.004,0-0.004,0h-2.396c-0.322,0.001-0.582,0.263-0.584,0.583v23.591
			c0,0.617-0.195,0.795-0.604,0.374c-1.287-1.347-22.006-23.154-23.019-24.212c-0.2-0.233-0.501-0.358-0.808-0.336h-1.781
			c-0.322-0.001-0.584,0.26-0.584,0.582c0,0.001,0,0.001,0,0.001v33.859c0,0.32,0.261,0.584,0.584,0.584h2.394
			c0.321-0.002,0.584-0.262,0.584-0.584v-23.982c0-0.965,0.521-0.428,0.776-0.154c1.527,1.602,20.807,21.896,23.148,24.354
			c0.339,0.357,0.624,0.365,0.768,0.365l1.514,0.002c0.329,0,0.588-0.262,0.588-0.584V167.281L-4637.248,167.281z M-4887.268,200.79
			c-0.579-0.729-10.708-13.702-11.25-14.431c-0.245-0.327-0.17-0.57,0.485-0.813c1.457-0.543,6.592-2.876,6.884-8.992
			c0.243-5.153-3.345-9.855-8.955-9.855h-13.854c-0.321-0.001-0.584,0.26-0.584,0.581c0,0.001,0,0.001,0,0.001v33.861
			c0,0.324,0.264,0.582,0.577,0.582l4.307,0.002c0.316,0,0.603-0.197,0.603-0.584v-14.194c0-0.31,0.26-0.575,0.584-0.575h2.505
			c0.193,0,0.55,0.002,0.899,0.461c0.345,0.459,11.343,14.533,11.343,14.533c0.277,0.283,0.497,0.357,0.745,0.357h5.245
			C-4887.262,201.727-4886.971,201.164-4887.268,200.79z M-4906.188,183.055h-2.315c-0.326,0-0.546-0.291-0.546-0.587v-12.126
			c0-0.317,0.257-0.573,0.573-0.572l0,0h3.71c3.88,0,7.553,1.121,7.553,6.146C-4897.217,178.445-4898.527,183.063-4906.188,183.055z
			 M-4835.805,173.905c0-2.557,1.823-4.523,4.271-5.061c2.39-0.525,5.382-0.017,6.941,2.01c0.211,0.272,0.411,0.612,0.601,0.942
			c0.13,0.224,0.354,0.438,0.823,0.464c0.115,0.005,0.584,0.026,0.832,0.033c0.245,0.005,0.592-0.157,0.573-0.516
			c-0.037-0.695-0.156-3.115-0.174-3.497c-0.025-0.479-0.224-0.552-0.509-0.678c-1.241-0.544-2.539-0.942-3.872-1.186
			c-3.116-0.558-6.454-0.385-9.394,0.852c-2.716,1.141-4.765,3.386-5.574,6.229c-0.625,2.199-0.438,4.705,0.76,6.698
			c1.113,1.851,2.802,3.002,4.736,3.845c1.962,0.857,3.982,1.575,5.954,2.414c2.438,1.04,4.34,2.229,4.957,4.3
			c0.747,2.511,0.288,5.195-1.749,7.038c-2.753,2.489-10.174,2.093-12.659-1.582c-0.451-0.67-0.533-1.079-1.242-1.065
			c-0.448,0.007-1.08,0-1.08,0.608v3.805c0,0.42,0.03,0.76,0.469,0.947c0.776,0.332,1.656,0.64,2.481,0.904
			c1.334,0.424,2.679,0.633,4.069,0.776c8.997,0.939,15.515-3.6,15.515-11.445c0-2.79-1.032-5.558-3.357-7.246
			c-1.985-1.446-4.495-2.31-6.8-3.088c-1.33-0.449-2.931-0.972-4.121-1.743c-1.699-1.104-2.429-2.732-2.449-4.759"/>
		<g>
			<path fill="#D2112E" d="M-4866.522,165.239c-10.561,0-19.119,8.559-19.119,19.119c0,10.561,8.559,19.119,19.119,19.119
				c10.558,0,19.119-8.558,19.119-19.119C-4847.404,173.797-4855.961,165.239-4866.522,165.239z M-4866.522,168.618
				c4.566-0.002,8.908,1.981,11.897,5.433h-5.495l0.504-1.028c0.559-1.215-1.59-2.273-2.211-0.939l-0.999,1.967h-15.591
				C-4875.435,170.595-4871.088,168.612-4866.522,168.618z M-4882.26,184.358c-0.003-2.915,0.804-5.771,2.333-8.252
				c0,0,14.565,0.638,14.712,0.64c0.211-0.001,0.4,0.127,0.474,0.325l1.521,3.587c0.073,0.174,0.065,0.499-0.497,0.499
				l-14.198-0.003c-0.97-0.006-1.76,0.774-1.766,1.744c0,0.002,0,0.004,0,0.007v5.32c0,0.418,0.121,0.797,0.361,1.075
				c0.396,0.464,1.064,0.702,1.18,0.745c0.182,0.066,0.215-0.055,0.215-0.151v-6.775c0-0.177,0.109-0.257,0.231-0.257h1.545
				c0.039,0,0.214-0.006,0.086,0.186c-0.482,0.721-0.732,1.416-0.732,2.659c0,1.917,1.419,3.252,1.874,3.577
				c0.051,0.035,0.129,0.161,0.039,0.343c-0.086,0.18-1.39,2.762-1.441,2.857c-0.073,0.141-0.125,0.306,0.05,0.48l6.914,6.867
				C-4876.832,198.463-4882.26,191.954-4882.26,184.358z M-4865.726,200.078c0,0-6.64-6.658-7.102-7.118
				c-0.16-0.162-0.039-0.287,0.032-0.435c0.069-0.146,2.39-4.53,2.49-4.733c0.071-0.138,0.207-0.23,0.362-0.245h1.561
				c0.043,0,0.233,0.024,0.131,0.234c-0.103,0.214-2.173,4.331-2.223,4.432c-0.052,0.117-0.028,0.254,0.063,0.344
				c0.087,0.096,7.188,7.192,7.188,7.192C-4864.033,199.926-4864.873,200.034-4865.726,200.078z M-4860.618,198.951l-6.281-6.302
				c-0.126-0.131-0.082-0.292-0.051-0.365l2.255-4.506c0.077-0.149,0.236-0.239,0.402-0.229h3.955c0.111,0,0.173,0.103,0.116,0.242
				l-1.063,2.405c-0.017,0.059-0.059,0.226,0.085,0.325l1.453,0.95c0.184,0.119,0.315,0,0.368-0.111l1.558-3.586
				c0.102-0.176,0.222-0.224,0.407-0.224h1.334c0.047,0.006,0.207,0.042,0.125,0.229c-0.084,0.187-1.101,2.519-1.101,2.519
				c-0.021,0.061-0.061,0.226,0.082,0.325l1.466,0.967c0.185,0.12,0.316-0.002,0.363-0.111c0.054-0.109,1.611-3.655,1.741-3.957
				c0.418-0.969,0.237-2.596-1.685-2.596h-2.147c-0.242,0-0.299-0.187-0.299-0.27v-7.444c0-0.303,0.16-0.454,0.375-0.478
				c0.093-0.01,4.05-0.618,4.05-0.618c1.526,2.48,2.334,5.335,2.327,8.247C-4850.781,190.776-4854.673,196.547-4860.618,198.951z"/>
		</g>
		<path fill="#D2112E" d="M-4677.41,167.281c0-0.32-0.26-0.58-0.58-0.583h-2.396c-0.322,0-0.584,0.261-0.587,0.583v23.591
			c0,0.617-0.192,0.795-0.601,0.374c-1.291-1.347-22.006-23.154-23.021-24.212c-0.176-0.208-0.436-0.33-0.709-0.336h-1.877
			c-0.322-0.001-0.585,0.258-0.587,0.581c0,0.001,0,0.002,0,0.003v33.86c0.002,0.321,0.263,0.582,0.585,0.584h2.395
			c0.324,0,0.586-0.263,0.588-0.584v-23.983c0-0.965,0.518-0.428,0.774-0.154c1.528,1.602,20.806,21.896,23.147,24.354
			c0.342,0.356,0.623,0.365,0.765,0.365l1.519,0.002c0.324,0,0.586-0.263,0.586-0.584
			C-4677.41,201.143-4677.41,167.285-4677.41,167.281z"/>
	</g>
</g>
</svg>
