<?xml version="1.0" encoding="utf-8"?>
<!-- Generator: Adobe Illustrator 16.0.3, SVG Export Plug-In . SVG Version: 6.00 Build 0)  -->
<!DOCTYPE svg PUBLIC "-//W3C//DTD SVG 1.1//EN" "http://www.w3.org/Graphics/SVG/1.1/DTD/svg11.dtd">
<svg version="1.1" id="Ebene_1" xmlns="http://www.w3.org/2000/svg" xmlns:xlink="http://www.w3.org/1999/xlink" x="0px" y="0px"
	 width="400px" height="216px" viewBox="0 92 400 216" enable-background="new 0 92 400 216" xml:space="preserve">
<g>
	<path fill="#E40000" d="M45.276,195.348c-8.908,0-17.816-0.018-26.727,0.025c-0.978,0.004-1.158-0.288-1.157-1.196
		c0.027-17.778,0.031-35.556-0.007-53.333c-0.002-1.041,0.299-1.213,1.261-1.211c17.777,0.03,35.556,0.031,53.333,0
		c0.993-0.002,1.254,0.236,1.252,1.246c-0.034,17.737-0.037,35.475,0.005,53.212c0.003,1.131-0.36,1.283-1.354,1.279
		C63.014,195.333,54.145,195.348,45.276,195.348z"/>
	<path fill="#E40000" d="M45.297,260.884c-8.908,0-17.816-0.015-26.726,0.021c-0.93,0.005-1.185-0.217-1.183-1.17
		c0.031-17.816,0.03-35.633,0.001-53.449c-0.001-0.899,0.214-1.117,1.115-1.115c17.856,0.029,35.713,0.031,53.57-0.004
		c1.019-0.003,1.149,0.348,1.148,1.227c-0.021,17.777-0.024,35.555,0.006,53.33c0.001,0.969-0.28,1.187-1.208,1.183
		C63.114,260.87,54.206,260.884,45.297,260.884z"/>
	<path fill="#171A1B" d="M107.16,230.964c-0.444,2.005-0.895,4.009-1.333,6.015c-1.682,7.67-3.371,15.338-5.017,23.015
		c-0.148,0.698-0.385,0.917-1.083,0.907c-2.608-0.037-5.22-0.06-7.828,0.01c-0.846,0.021-1.079-0.303-1.197-1.041
		c-0.884-5.462-1.793-10.918-2.697-16.376c-1.807-10.914-3.615-21.829-5.425-32.743c-0.263-1.581-0.504-3.168-0.819-4.738
		c-0.156-0.779,0.186-0.834,0.813-0.83c3.532,0.022,7.065,0.031,10.599-0.007c0.678-0.008,0.845,0.212,0.93,0.849
		c0.833,6.24,1.708,12.475,2.565,18.711c0.583,4.252,1.158,8.504,1.736,12.755c0.027,0.196,0.046,0.405,0.327,0.493
		c1.48-7.828,2.958-15.652,4.438-23.476c0.537-2.835,1.106-5.663,1.602-8.506c0.114-0.655,0.349-0.834,0.99-0.823
		c2.328,0.037,4.658,0.062,6.985-0.01c0.834-0.025,1.071,0.293,1.205,1.025c1.207,6.623,2.439,13.242,3.666,19.861
		c0.751,4.058,1.503,8.114,2.395,12.186c0.396-2.688,0.803-5.375,1.187-8.064c1.146-8.059,2.288-16.117,3.41-24.179
		c0.081-0.585,0.251-0.828,0.885-0.817c2.288,0.034,4.577,0.049,6.864-0.006c0.796-0.02,0.718,0.357,0.628,0.877
		c-1.06,6.203-2.115,12.406-3.17,18.61c-1.9,11.183-3.81,22.364-5.693,33.55c-0.45,2.668-0.41,2.676-3.168,2.676
		c-1.968,0-3.938-0.051-5.901,0.022c-0.822,0.03-1.089-0.277-1.25-1.017c-1.77-8.101-3.565-16.194-5.357-24.291
		c-0.341-1.541-0.698-3.08-1.049-4.619C107.317,230.977,107.239,230.971,107.16,230.964z"/>
	<path fill="#171A1B" d="M98.797,171.915c1.412-7.52,2.824-15.04,4.236-22.56c0.539-2.874,1.093-5.746,1.609-8.624
		c0.135-0.75,0.33-1.15,1.268-1.109c2.283,0.099,4.574,0.056,6.861,0.018c0.682-0.011,0.932,0.15,1.064,0.883
		c1.873,10.246,3.792,20.484,5.702,30.723c0.07,0.38,0.009,0.809,0.44,1.138c0.826-5.792,1.643-11.535,2.464-17.277
		c0.699-4.88,1.404-9.76,2.112-14.639c0.052-0.355-0.084-0.825,0.576-0.82c2.604,0.021,5.207,0.009,7.861,0.009
		c-1.635,9.663-3.245,19.221-4.867,28.779c-1.468,8.651-2.962,17.298-4.402,25.954c-0.124,0.748-0.337,0.991-1.104,0.978
		c-2.567-0.048-5.138-0.052-7.705,0.002c-0.775,0.017-1.009-0.261-1.164-0.974c-2.067-9.467-4.167-18.928-6.263-28.389
		c-0.05-0.227-0.141-0.444-0.317-0.992c-0.735,3.352-1.404,6.389-2.065,9.428c-1.455,6.691-2.914,13.382-4.346,20.078
		c-0.133,0.623-0.368,0.853-1.026,0.844c-2.688-0.037-5.379-0.045-8.066,0.004c-0.716,0.013-0.868-0.32-0.961-0.89
		c-0.897-5.497-1.803-10.993-2.71-16.489c-1.727-10.437-3.454-20.874-5.184-31.311c-0.34-2.056-0.668-4.114-1.047-6.163
		c-0.128-0.694,0.047-0.884,0.759-0.877c3.572,0.034,7.145,0.024,10.717,0.006c0.517-0.003,0.734,0.083,0.815,0.685
		c1.171,8.741,2.382,17.477,3.582,26.213c0.256,1.867,0.503,3.734,0.755,5.602c0.076,0.075,0.136,0.276,0.175,0.242
		C98.696,172.27,98.716,172.073,98.797,171.915z"/>
	<path fill="#171A1B" d="M203.067,220.784c1.938-1.273,3.801-2.107,5.893-2.438c6.175-0.979,10.38,2.328,10.797,8.559
		c0.045,0.681,0.072,1.363,0.073,2.046c0.004,10.276-0.011,20.556,0.023,30.833c0.003,0.895-0.207,1.145-1.116,1.126
		c-3.011-0.063-6.022-0.063-9.032-0.001c-0.907,0.02-1.122-0.227-1.118-1.123c0.034-9.876,0.021-19.753,0.018-29.629
		c0-0.479-0.025-0.963-0.088-1.438c-0.139-1.081-0.667-1.918-1.745-2.228c-1.217-0.35-2.389-0.112-3.445,0.578
		c-0.459,0.301-0.247,0.813-0.248,1.226c-0.013,10.397-0.031,20.797,0.021,31.194c0.006,1.193-0.322,1.457-1.46,1.425
		c-2.968-0.085-5.94-0.052-8.912-0.013c-0.718,0.01-0.946-0.148-0.944-0.916c0.023-17.584,0.022-35.168,0.001-52.752
		c0-0.656,0.224-0.899,0.817-1.043c3.192-0.768,6.384-1.539,9.561-2.368c0.857-0.224,0.92,0.106,0.918,0.811
		c-0.022,4.857-0.013,9.716-0.013,14.573C203.067,219.645,203.067,220.084,203.067,220.784z"/>
	<path fill="#171A1B" d="M264.028,138.19c0,5.748,0,11.353,0,17.118c1.979-1.286,3.94-2.2,6.18-2.453
		c6.313-0.713,10.202,2.53,10.473,8.919c0.132,3.125,0.063,6.26,0.063,9.391c0.007,7.667-0.013,15.333,0.021,22.999
		c0.003,0.882-0.138,1.237-1.145,1.212c-3.009-0.077-6.021-0.06-9.029-0.007c-0.844,0.015-1.061-0.212-1.057-1.057
		c0.029-9.713,0.02-19.426,0.02-29.139c0-0.401,0.011-0.804-0.013-1.204c-0.153-2.554-1.724-3.607-4.19-2.894
		c-0.99,0.287-1.37,0.762-1.364,1.858c0.047,10.396,0.014,20.791,0.053,31.186c0.004,1.006-0.256,1.275-1.253,1.253
		c-3.01-0.067-6.021-0.046-9.03-0.009c-0.737,0.009-1.021-0.119-1.021-0.958c0.026-17.5,0.021-35,0.02-52.5
		c0-0.524-0.063-0.935,0.703-1.11C256.923,139.998,260.368,139.102,264.028,138.19z"/>
	<path fill="#171A1B" d="M160.676,240.238c-0.11,3.365-0.127,6.732-0.629,10.078c-1.053,7.022-5.286,10.979-12.387,11.437
		c-2.413,0.155-4.81,0.013-7.15-0.666c-4.801-1.392-7.38-4.825-8.326-9.497c-1.487-7.344-1.632-14.771-0.175-22.119
		c1.761-8.878,8.021-11.955,15.973-11.142c7.488,0.767,11.437,5.106,12.263,12.896C160.561,234.223,160.607,237.23,160.676,240.238z
		"/>
	<path fill="#171A1B" d="M301.505,192.12c-1.424,1.754-3.046,2.998-5.06,3.715c-5.6,1.996-10.747-0.696-12.152-6.454
		c-0.897-3.679-0.841-7.425-0.099-11.103c0.881-4.347,4.225-7.015,8.993-7.542c1.96-0.217,3.917-0.307,5.882-0.073
		c0.412,0.049,0.918,0.226,0.884-0.541c-0.098-2.161,0.209-4.337-0.201-6.483c-0.52-2.705-4.455-4.309-6.746-2.785
		c-0.451,0.3-0.381,0.77-0.447,1.175c-0.273,1.66-0.531,3.324-0.73,4.995c-0.066,0.563-0.263,0.749-0.817,0.74
		c-1.604-0.027-3.209-0.024-4.813-0.001c-0.515,0.007-0.701-0.156-0.698-0.684c0.017-3.45,0.015-6.901,0.001-10.352
		c-0.002-0.41,0.125-0.666,0.486-0.862c5.665-3.085,11.595-4.188,17.819-2.046c4.292,1.476,6.691,5.113,6.752,10.085
		c0.082,6.66,0.038,13.321,0.032,19.981c-0.004,3.501,0.291,6.969,1.12,10.376c0.203,0.834,0.056,1.129-0.869,1.107
		c-2.365-0.058-4.735-0.067-7.101,0.006c-0.85,0.026-1.213-0.257-1.416-1.035C302.146,193.646,301.832,192.988,301.505,192.12z"/>
	<path fill="#171A1B" d="M249.148,249.489c0,2.618-0.021,4.985,0.016,7.352c0.009,0.591-0.181,0.988-0.654,1.298
		c-5.021,3.262-10.458,4.553-16.258,2.793c-4.86-1.475-7.672-5.187-8.457-10.039c-1.247-7.709-1.542-15.507,0.2-23.197
		c1.391-6.143,5.229-9.111,11.648-9.469c1.935-0.107,3.854-0.009,5.718,0.563c4.677,1.435,7.031,4.876,7.771,9.469
		c0.771,4.813,0.416,9.687,0.353,14.537c-0.011,0.772-0.466,0.675-0.946,0.675c-4.293-0.003-8.587-0.002-12.882-0.002
		c-1.666,0-1.65,0-1.67,1.729c-0.014,1.209,0.025,2.414,0.303,3.589c0.78,3.317,3.735,5.094,7.409,4.472
		C244.482,252.785,246.938,251.626,249.148,249.489z"/>
	<path fill="#171A1B" d="M335.62,148.074c-1.741-0.46-3.291-1.031-4.971-0.958c-2.217,0.096-3.288,1.057-3.556,3.26
		c-0.396,3.257-0.396,3.257,2.849,3.257c1.204,0,2.41,0.041,3.611-0.016c0.707-0.034,0.874,0.217,0.855,0.885
		c-0.044,1.765-0.063,3.533,0.007,5.296c0.034,0.846-0.289,1.004-1.034,0.982c-1.522-0.045-3.056,0.065-4.572-0.041
		c-1.072-0.074-1.209,0.341-1.207,1.282c0.033,10.674,0.006,21.349,0.046,32.023c0.004,1.032-0.2,1.364-1.298,1.332
		c-2.967-0.088-5.939-0.073-8.907-0.005c-0.932,0.021-1.103-0.262-1.1-1.134c0.03-10.754,0.004-21.509,0.047-32.263
		c0.003-1.015-0.252-1.262-1.248-1.233c-2.567,0.072-2.569,0.021-2.569-2.528c0-1.244,0.039-2.49-0.015-3.731
		c-0.031-0.704,0.219-0.955,0.888-0.85c0.039,0.006,0.08,0.003,0.12,0c0.907-0.065,2.147,0.401,2.633-0.199
		c0.457-0.565,0.152-1.755,0.162-2.67c0.015-1.29,0.179-2.56,0.486-3.809c1.063-4.315,4.306-7.106,8.767-7.521
		c3.071-0.286,6.079,0.055,9.029,0.968c0.692,0.214,1.028,0.505,1,1.321C335.573,143.805,335.62,145.891,335.62,148.074z"/>
	<path fill="#171A1B" d="M220.538,161.078c0,1.645-0.032,3.291,0.015,4.935c0.02,0.691-0.203,0.891-0.88,0.868
		c-1.402-0.048-2.81-0.045-4.212-0.001c-0.677,0.021-0.979-0.114-1.048-0.887c-0.146-1.634-0.436-3.256-0.67-4.882
		c-0.038-0.26,0.063-0.612-0.304-0.711c-1.606-0.435-3.185-0.431-4.623,0.526c-1.087,0.722-1.631,2.313-1.273,3.643
		c0.291,1.091,1.021,1.889,1.867,2.592c1.393,1.157,2.964,2.049,4.493,3c1.708,1.061,3.366,2.189,4.749,3.662
		c3.582,3.816,4.852,8.316,3.295,13.308c-1.555,4.988-5.472,7.452-10.386,8.373c-4.485,0.841-8.76-0.008-12.797-2.121
		c-0.686-0.359-0.934-0.801-0.92-1.597c0.054-3.249,0.049-6.5,0.003-9.749c-0.011-0.795,0.212-1.034,1.002-0.997
		c1.361,0.064,2.729,0.046,4.091,0.005c0.634-0.019,0.892,0.136,0.979,0.826c0.234,1.867,0.599,3.718,0.868,5.581
		c0.065,0.456,0.185,0.75,0.673,0.824c1.438,0.217,2.869,0.34,4.27-0.212c2.641-1.04,3.406-3.87,1.644-6.094
		c-0.758-0.955-1.74-1.649-2.736-2.331c-2.083-1.424-4.312-2.642-6.218-4.313c-4.329-3.797-6.06-8.479-4.583-14.134
		c1.175-4.503,5.009-7.623,9.9-8.266c4.227-0.555,8.203,0.251,12.021,2.071c0.592,0.282,0.818,0.607,0.798,1.269
		C220.503,157.867,220.538,159.473,220.538,161.078z"/>
	<path fill="#171A1B" d="M357.938,186.973c0-1.726,0.021-3.452-0.012-5.178c-0.012-0.574,0.163-0.767,0.746-0.751
		c1.402,0.037,2.813,0.069,4.213-0.011c0.802-0.045,1.033,0.288,1.128,0.984c0.238,1.748,0.543,3.486,0.768,5.235
		c0.085,0.658,0.322,0.99,1.021,1.074c1.37,0.166,2.724,0.247,4.031-0.283c2.523-1.024,3.288-3.725,1.694-5.94
		c-0.742-1.032-1.771-1.736-2.798-2.438c-1.82-1.243-3.731-2.365-5.471-3.712c-4.139-3.206-6.405-7.339-5.769-12.724
		c0.673-5.673,4.702-9.618,10.383-10.321c4.19-0.518,8.126,0.29,11.911,2.069c0.612,0.287,0.881,0.624,0.87,1.347
		c-0.046,3.17-0.053,6.342,0.002,9.513c0.016,0.871-0.261,1.085-1.084,1.046c-1.36-0.065-2.73-0.07-4.093,0.003
		c-0.759,0.04-0.962-0.282-1.037-0.937c-0.18-1.553-0.439-3.098-0.591-4.653c-0.071-0.749-0.449-0.984-1.114-1.094
		c-2.75-0.454-4.797,0.719-5.185,2.993c-0.207,1.211,0.229,2.202,1.007,3.082c1.105,1.251,2.521,2.104,3.917,2.969
		c1.978,1.226,3.973,2.42,5.68,4.027c3.497,3.292,4.986,7.368,4.29,12.073c-0.777,5.265-4.924,9.099-10.672,10.146
		c-4.411,0.804-8.607,0.042-12.62-1.913c-0.888-0.433-1.313-0.978-1.243-2.032C358.015,190.029,357.938,188.499,357.938,186.973z"/>
	<path fill="#171A1B" d="M188.691,248.846c0,2.881-0.008,5.516,0.01,8.147c0.002,0.442-0.299,0.633-0.556,0.868
		c-4.229,3.878-11.771,4.998-16.915,2.455c-4.297-2.125-6.46-5.838-7.033-10.406c-0.847-6.752-0.868-13.539,0.175-20.281
		c0.938-6.072,4.688-10.154,10.101-11.146c4.736-0.865,9.141,0.283,13.378,2.346c0.426,0.207,0.55,0.48,0.549,0.938
		c-0.016,3.974-0.022,7.946,0.004,11.92c0.006,0.697-0.321,0.779-0.883,0.771c-1.483-0.021-2.971-0.042-4.455,0.009
		c-0.662,0.023-0.898-0.218-1.004-0.841c-0.34-2.016-0.754-4.018-1.091-6.031c-0.12-0.719-0.378-1.111-1.162-1.262
		c-2.501-0.477-4.259,0.595-4.596,3.123c-0.531,3.984-0.459,8.007-0.423,12.02c0.021,2.243,0.049,4.492,0.383,6.725
		c0.629,4.205,3.582,6.052,7.653,4.777C184.737,252.377,186.148,251.398,188.691,248.846z"/>
	<path fill="#171A1B" d="M249.701,183.304c0,2.899-0.01,5.496,0.008,8.092c0.003,0.48-0.306,0.712-0.599,0.979
		c-4.2,3.818-11.737,4.918-16.825,2.403c-4.025-1.99-6.286-5.413-6.89-9.71c-1.013-7.221-1.123-14.506,0.151-21.706
		c1.266-7.152,6.321-10.947,13.646-10.621c3.33,0.148,6.466,1.05,9.457,2.509c0.546,0.266,0.758,0.548,0.753,1.163
		c-0.027,3.894-0.027,7.789-0.002,11.683c0.005,0.654-0.133,0.926-0.852,0.899c-1.484-0.054-2.972-0.044-4.456-0.003
		c-0.658,0.018-0.889-0.209-0.996-0.863c-0.343-2.095-0.78-4.175-1.149-6.267c-0.075-0.434-0.191-0.719-0.643-0.893
		c-2.137-0.829-4.298,0.233-4.952,2.438c-0.243,0.82-0.318,1.661-0.345,2.497c-0.166,5.375-0.353,10.753,0.109,16.125
		c0.03,0.358,0.079,0.718,0.156,1.069c0.858,3.937,3.672,5.567,7.544,4.371C246.115,186.761,247.877,185.27,249.701,183.304z"/>
	<path fill="#171A1B" d="M149.692,153.634c2.877,0,5.682,0.009,8.486-0.009c0.461-0.003,0.6,0.197,0.709,0.602
		c0.293,1.081,0.64,2.146,0.98,3.267c0.578-0.096,0.784-0.63,1.12-0.976c3.209-3.298,6.956-4.402,11.392-2.896
		c0.866,0.294,1.247,0.698,1.23,1.706c-0.068,4.373-0.061,8.747-0.004,13.12c0.013,0.936-0.269,1.146-1.141,1.098
		c-1.36-0.074-2.73-0.072-4.09,0.001c-0.735,0.04-0.971-0.226-1.059-0.9c-0.224-1.708-0.531-3.405-0.743-5.114
		c-0.068-0.546-0.266-0.729-0.798-0.803c-2.156-0.302-3.612,0.766-3.867,2.923c-0.07,0.595-0.08,1.2-0.081,1.801
		c-0.006,8.907-0.018,17.814,0.017,26.722c0.003,0.916-0.196,1.22-1.167,1.198c-2.968-0.069-5.939-0.083-8.906,0.005
		c-1.078,0.032-1.199-0.351-1.194-1.284c0.033-9.228,0.003-18.457,0.027-27.685C150.617,162.158,150.452,157.924,149.692,153.634z"
		/>
	<path fill="#171A1B" d="M355.551,185.525c0,2.486-0.014,4.723,0.01,6.958c0.005,0.483-0.238,0.726-0.6,0.944
		c-3.693,2.22-7.663,3.159-11.868,2.036c-3.86-1.031-5.641-3.978-6.249-7.743c-0.182-1.109-0.232-2.23-0.23-3.358
		c0.011-9.593,0.016-19.185-0.01-28.777c-0.001-0.745,0.194-1.246,0.773-1.744c2.949-2.538,5.856-5.127,8.777-7.699
		c0.151-0.132,0.304-0.263,0.452-0.396c0.302-0.27,0.671-0.298,1.019-0.19c0.431,0.134,0.252,0.541,0.254,0.829
		c0.015,2.087,0.04,4.174-0.01,6.26c-0.019,0.756,0.146,1.046,0.971,1.008c1.562-0.071,3.13,0.013,4.693-0.035
		c0.734-0.023,1.061,0.114,1.024,0.958c-0.072,1.723-0.058,3.452-0.006,5.176c0.021,0.773-0.182,1.065-1.003,1.033
		c-1.604-0.063-3.211,0.015-4.814-0.034c-0.694-0.021-0.864,0.21-0.862,0.879c0.022,7.746,0.006,15.492,0.024,23.238
		c0.005,1.987,0.932,2.827,2.921,2.797C352.605,187.638,353.991,186.692,355.551,185.525z"/>
	<path fill="#171A1B" d="M195.242,185.506c0,2.544-0.007,4.85,0.005,7.156c0.002,0.451-0.312,0.616-0.617,0.799
		c-3.465,2.07-7.181,2.976-11.177,2.148c-3.73-0.772-6.09-3.418-6.804-7.362c-0.215-1.19-0.279-2.388-0.278-3.593
		c0.004-9.714,0.008-19.427-0.012-29.141c-0.001-0.69,0.158-1.177,0.708-1.649c2.982-2.563,5.928-5.17,8.876-7.771
		c0.401-0.354,0.811-0.78,1.362-0.53c0.56,0.254,0.274,0.855,0.281,1.294c0.031,1.926,0.043,3.854-0.001,5.779
		c-0.019,0.749,0.136,1.058,0.977,1.021c1.644-0.075,3.291-0.002,4.937-0.033c0.553-0.01,0.771,0.117,0.759,0.722
		c-0.038,1.886-0.042,3.773,0.001,5.659c0.016,0.686-0.277,0.785-0.858,0.774c-1.646-0.029-3.292,0.021-4.937-0.024
		c-0.7-0.02-0.878,0.229-0.876,0.898c0.02,7.707-0.008,15.414,0.027,23.12c0.011,2.432,1.604,3.444,4.146,2.738
		C193.001,187.165,194.072,186.48,195.242,185.506z"/>
	<path fill="#171A1B" d="M146.272,174.558c0,6.582-0.016,13.165,0.021,19.747c0.005,0.836-0.201,1.079-1.054,1.064
		c-3.049-0.054-6.101-0.045-9.149-0.005c-0.786,0.01-1.105-0.123-1.104-1.023c0.031-13.245,0.029-26.49,0.003-39.735
		c-0.002-0.798,0.221-1.001,1.002-0.99c3.09,0.044,6.182,0.054,9.271-0.005c0.881-0.017,1.033,0.27,1.029,1.079
		C146.257,161.313,146.272,167.935,146.272,174.558z"/>
	<path fill="#171A1B" d="M140.678,139.654c1.602,0,3.203,0.028,4.804-0.014c0.632-0.017,0.813,0.173,0.806,0.806
		c-0.035,2.562-0.036,5.125,0,7.686c0.009,0.677-0.182,0.892-0.872,0.885c-3.203-0.034-6.405-0.03-9.608-0.002
		c-0.64,0.006-0.819-0.209-0.812-0.829c0.027-2.602,0.027-5.204-0.001-7.806c-0.007-0.594,0.199-0.747,0.76-0.737
		C137.395,139.673,139.037,139.654,140.678,139.654z"/>
	<path fill="#868889" d="M98.797,171.915c0.078,0.335,0.049,0.737-0.29,0.792c-0.235,0.039-0.154-0.347-0.114-0.563
		C98.527,172.068,98.662,171.991,98.797,171.915z"/>
	<path fill="#FEFEFE" d="M149.39,240.208c-0.036,3.285-0.02,6.573-0.448,9.84c-0.083,0.632-0.229,1.263-0.425,1.867
		c-0.469,1.454-1.186,1.964-2.636,1.955c-1.422-0.011-2.226-0.565-2.667-1.96c-0.576-1.813-0.67-3.707-0.715-5.585
		c-0.12-5.009-0.231-10.019,0.172-15.022c0.09-1.119,0.272-2.222,0.665-3.281c0.428-1.155,1.249-1.672,2.485-1.68
		c1.275-0.009,2.167,0.493,2.616,1.689c0.471,1.248,0.646,2.564,0.712,3.885C149.29,234.678,149.456,237.439,149.39,240.208z"/>
	<path fill="#FEFEFE" d="M299.943,181.337c0,1.2,0.035,2.4-0.008,3.599c-0.055,1.485-0.749,2.589-2.144,3.185
		c-1.527,0.653-2.905,0.083-3.288-1.512c-0.604-2.512-0.697-5.075-0.093-7.604c0.482-2.023,3.415-3.204,5.258-2.22
		c0.396,0.211,0.27,0.541,0.272,0.832c0.016,1.24,0.007,2.479,0.007,3.72C299.947,181.337,299.945,181.337,299.943,181.337z"/>
	<path fill="#FEFEFE" d="M240.002,233.182c0,0.963-0.03,1.926,0.012,2.885c0.026,0.604-0.133,0.855-0.792,0.836
		c-1.48-0.045-2.966-0.041-4.447-0.002c-0.651,0.019-0.811-0.233-0.795-0.84c0.063-2.361-0.109-4.73,0.221-7.084
		c0.064-0.475,0.131-0.955,0.271-1.412c0.389-1.268,1.268-1.889,2.592-1.898c1.264-0.012,2.042,0.669,2.401,1.8
		C240.054,229.323,239.991,231.26,240.002,233.182z"/>
</g>
</svg>
