<?xml version="1.0" encoding="utf-8"?>
<!-- Generator: Adobe Illustrator 16.0.3, SVG Export Plug-In . SVG Version: 6.00 Build 0)  -->
<!DOCTYPE svg PUBLIC "-//W3C//DTD SVG 1.1//EN" "http://www.w3.org/Graphics/SVG/1.1/DTD/svg11.dtd">
<svg version="1.1" id="Ebene_1" xmlns="http://www.w3.org/2000/svg" xmlns:xlink="http://www.w3.org/1999/xlink" x="0px" y="0px"
	 width="400px" height="216px" viewBox="0 0 400 216" enable-background="new 0 0 400 216" xml:space="preserve">
<g>
	<path fill-rule="evenodd" clip-rule="evenodd" fill="#004A8E" d="M142.806,94.679c-0.646,0-1.096,0-1.546,0
		c-6.039,0-12.078-0.015-18.116,0.02c-0.739,0.004-0.889-0.207-0.875-0.898c0.044-2.21,0.033-4.421,0.005-6.631
		c-0.007-0.558,0.074-0.787,0.728-0.785c10.11,0.024,20.22,0.023,30.33,0.001c0.631-0.001,0.749,0.19,0.74,0.772
		c-0.033,2.264-0.029,4.529-0.002,6.793c0.006,0.525-0.16,0.907-0.491,1.3c-6.575,7.814-13.137,15.637-19.701,23.46
		c-0.235,0.279-0.459,0.569-0.708,0.879c0.347,0.196,0.645,0.111,0.925,0.111c6.12,0.006,12.24,0.017,18.36-0.013
		c0.669-0.003,0.854,0.153,0.837,0.833c-0.048,2.129-0.034,4.259-0.006,6.389c0.006,0.515-0.114,0.687-0.66,0.686
		c-10.164-0.016-20.328-0.016-30.492,0c-0.549,0.001-0.676-0.178-0.67-0.695c0.025-2.211,0.028-4.422-0.002-6.632
		c-0.008-0.494,0.232-0.806,0.51-1.132c4.473-5.251,8.947-10.501,13.42-15.752C137.821,100.536,140.247,97.686,142.806,94.679z"/>
	<path fill-rule="evenodd" clip-rule="evenodd" fill="#004A8E" d="M69.548,64.587c0,3.715,0,7.431,0,11.146
		c0,5.311-0.004,10.621,0.005,15.931c0,0.497-0.085,0.937-0.341,1.378c-3.501,6.056-6.988,12.119-10.473,18.183
		c-0.205,0.356-0.438,0.647-0.813,0.858c-7.961,4.502-15.916,9.016-23.871,13.526c-0.133,0.075-0.269,0.145-0.604,0.324
		c12.05-20.596,23.992-41.009,35.935-61.422C69.44,64.537,69.494,64.562,69.548,64.587z"/>
	<path fill-rule="evenodd" clip-rule="evenodd" fill="#1190CF" d="M106.442,127.597c-24.024,0-47.917,0-71.82,0
		c0.019-0.281,0.244-0.307,0.391-0.39c7.913-4.497,15.83-8.988,23.742-13.487c0.341-0.194,0.679-0.279,1.07-0.278
		c7.065,0.008,14.131,0.007,21.196,0.002c0.357,0,0.676,0.056,0.999,0.238c7.962,4.522,15.929,9.033,23.894,13.549
		C106.066,127.317,106.204,127.431,106.442,127.597z"/>
	<path fill-rule="evenodd" clip-rule="evenodd" fill="#40C7F3" d="M71.444,64.415c11.99,20.476,23.896,40.811,35.803,61.145
		c-0.058,0.056-0.115,0.11-0.173,0.166c-0.595-0.333-1.192-0.662-1.785-0.998c-7.377-4.187-14.751-8.378-22.135-12.552
		c-0.443-0.251-0.752-0.558-1.004-0.994c-3.491-6.069-6.996-12.131-10.5-18.192c-0.166-0.286-0.272-0.568-0.272-0.91
		c0.007-9.111,0.007-18.221,0.009-27.332C71.387,64.695,71.404,64.643,71.444,64.415z"/>
	<path fill-rule="evenodd" clip-rule="evenodd" fill="#004A8E" d="M251.167,99.16c0-6.203,0.009-12.405-0.014-18.607
		c-0.002-0.61,0.121-0.818,0.778-0.803c2.103,0.047,4.207,0.035,6.311,0.005c0.501-0.007,0.686,0.151,0.79,0.633
		c0.38,1.762,0.82,3.511,1.205,5.271c0.119,0.544,0.315,0.77,0.937,0.762c2.966-0.042,5.933-0.003,8.898-0.033
		c0.563-0.005,0.723,0.136,0.715,0.708c-0.035,2.292-0.033,4.584-0.002,6.876c0.007,0.555-0.124,0.73-0.704,0.723
		c-2.589-0.033-5.178,0.003-7.767-0.027c-0.581-0.007-0.784,0.11-0.781,0.745c0.026,6.067,0.011,12.135,0.022,18.202
		c0.001,0.916,0.111,1.825,0.407,2.704c0.594,1.764,1.897,2.827,3.759,2.93c1.424,0.078,2.854,0.082,4.283,0.063
		c0.568-0.007,0.797,0.093,0.784,0.74c-0.045,2.292-0.026,4.584-0.009,6.876c0.004,0.453-0.056,0.678-0.602,0.671
		c-3.315-0.046-6.634,0.036-9.945-0.094c-5.133-0.202-8.313-3.266-8.918-8.369c-0.105-0.887-0.15-1.771-0.15-2.662
		C251.169,110.702,251.167,104.931,251.167,99.16z"/>
	<path fill-rule="evenodd" clip-rule="evenodd" fill="#ECC206" d="M60.627,111.616c3.3-5.718,6.52-11.296,9.801-16.98
		c0.216,0.344,0.387,0.598,0.54,0.861c2.959,5.125,5.92,10.25,8.864,15.383c0.131,0.23,0.779,0.733-0.18,0.734
		C73.376,111.619,67.101,111.616,60.627,111.616z"/>
	<path fill-rule="evenodd" clip-rule="evenodd" fill="#004A8E" d="M323.843,115.199c0-8.736,0.008-17.472-0.015-26.207
		c-0.002-0.678,0.151-0.971,0.865-1.097c6.681-1.181,13.397-1.826,20.181-1.314c3.192,0.241,6.27,1.001,9.097,2.577
		c3.868,2.158,6.288,5.476,7.313,9.716c1.497,6.192,1.258,12.364-1.004,18.351c-2.053,5.434-6.149,8.575-11.758,9.763
		c-4.656,0.986-9.261,0.893-13.688-1.106c-0.77-0.348-0.57,0.207-0.57,0.554c-0.007,5.042-0.021,10.085,0.014,15.126
		c0.005,0.752-0.202,0.938-0.938,0.928c-2.857-0.043-5.716-0.041-8.573-0.001c-0.718,0.009-0.944-0.154-0.941-0.919
		C323.854,132.778,323.843,123.989,323.843,115.199z M334.246,116.139c-0.004,0.509,0.173,0.771,0.613,0.987
		c2.007,0.979,4.123,1.527,6.34,1.754c5.169,0.53,8.662-1.852,9.954-6.867c0.775-3.007,0.899-6.067,0.469-9.135
		c-0.635-4.523-3.498-7.401-7.776-7.898c-2.883-0.335-5.745-0.06-8.615,0.217c-0.885,0.086-0.996,0.467-0.987,1.224
		c0.035,3.232,0.015,6.465,0.015,9.697C334.258,109.458,334.27,112.799,334.246,116.139z"/>
	<path fill-rule="evenodd" clip-rule="evenodd" fill="#004A8E" d="M280.777,96.589c0-2.632,0.006-5.241-0.008-7.851
		c-0.002-0.318,0.141-0.415,0.404-0.474c7.245-1.621,14.525-2.619,21.932-1.165c1.643,0.323,3.227,0.856,4.713,1.637
		c4.116,2.163,6.163,5.704,6.227,10.226c0.131,9.353,0.051,18.708,0.074,28.061c0.001,0.489-0.182,0.574-0.61,0.57
		c-1.644-0.021-3.288-0.021-4.933,0.001c-0.415,0.004-0.704-0.139-0.986-0.43c-0.9-0.93-1.855-1.806-2.726-2.763
		c-0.404-0.442-0.668-0.392-1.124-0.104c-5.852,3.701-12.138,4.15-18.618,2.197c-4.612-1.391-7.007-4.766-7.568-9.484
		c-0.32-2.688-0.184-5.334,1.075-7.802c1.598-3.131,4.38-4.727,7.615-5.649c3.665-1.045,7.422-1.221,11.209-1.042
		c1.911,0.09,3.811,0.297,5.693,0.636c0.404,0.073,0.534,0.006,0.526-0.408c-0.021-0.997,0.027-1.997-0.023-2.991
		c-0.119-2.288-1.37-3.731-3.488-4.452c-2.322-0.79-4.723-0.675-7.121-0.544c-4.018,0.218-7.968,0.869-11.877,1.796
		C281.061,96.579,280.952,96.574,280.777,96.589z M303.679,110.942c0.021-0.489-0.171-0.674-0.622-0.73
		c-1.095-0.137-2.184-0.344-3.282-0.438c-2.549-0.215-5.104-0.447-7.644,0.093c-1.604,0.342-3.034,0.991-3.812,2.561
		c-1.575,3.178,0.224,6.859,3.708,7.459c3.87,0.665,7.405-0.332,10.717-2.352c0.706-0.431,1.025-0.911,0.938-1.742
		c-0.072-0.693-0.015-1.401-0.015-2.102C303.668,112.774,303.639,111.856,303.679,110.942z"/>
	<path fill-rule="evenodd" clip-rule="evenodd" fill="#004A8E" d="M183.39,110.671c-4.26,0-8.521,0.023-12.781-0.021
		c-0.786-0.009-0.92,0.228-0.852,0.943c0.309,3.242,2.07,5.345,5.027,6.521c2.105,0.836,4.316,1.104,6.565,1.162
		c4.352,0.114,8.663-0.269,12.941-1.038c0.594-0.106,0.668,0.059,0.663,0.574c-0.02,2.319-0.023,4.639,0.003,6.957
		c0.006,0.516-0.171,0.68-0.666,0.772c-3.506,0.657-7.042,0.911-10.604,1.002c-3.435,0.088-6.834-0.065-10.193-0.84
		c-7.713-1.777-12.535-6.937-13.759-14.747c-0.73-4.661-0.663-9.292,0.662-13.846c1.624-5.587,5.231-9.24,10.873-10.776
		c4.613-1.256,9.281-1.299,13.916-0.204c6.534,1.545,10.288,5.813,11.617,12.313c0.72,3.52,0.684,7.063,0.316,10.62
		c-0.058,0.558-0.318,0.616-0.783,0.615C192.02,110.665,187.705,110.671,183.39,110.671z M185.056,103.39
		c2.354,0,2.354,0,2.025-2.37c-0.458-3.306-2.387-5.433-5.643-6.142c-1.781-0.388-3.587-0.385-5.373-0.026
		c-1.197,0.24-2.307,0.719-3.263,1.51c-1.983,1.641-2.662,3.898-3.023,6.317c-0.082,0.552,0.055,0.733,0.65,0.726
		c2.667-0.034,5.333-0.015,8-0.015C180.639,103.39,182.848,103.39,185.056,103.39z"/>
	<path fill-rule="evenodd" clip-rule="evenodd" fill="#004A8E" d="M223.386,86.263c3.492,0.059,6.806,0.389,9.962,1.632
		c4.505,1.773,7.616,4.947,9.123,9.535c2.062,6.273,2.074,12.633,0.072,18.91c-1.728,5.414-5.554,8.825-11.003,10.306
		c-5.305,1.441-10.671,1.45-15.971-0.008c-6.049-1.665-9.853-5.675-11.426-11.712c-1.39-5.336-1.401-10.728,0.027-16.061
		c1.796-6.705,6.294-10.566,13.01-11.977C219.272,86.449,221.394,86.33,223.386,86.263z M233.193,102.713
		c-0.418-2.348-1.199-4.54-3.021-6.196c-1.976-1.798-4.391-2.252-6.97-2.221c-4.603,0.054-7.746,2.393-8.914,6.83
		c-1.025,3.903-0.975,7.843,0.046,11.744c0.521,1.991,1.493,3.748,3.174,5.03c1.919,1.464,4.146,1.841,6.482,1.804
		c4.279-0.067,7.241-2.24,8.609-6.281c0.718-2.121,0.883-4.314,0.928-5.999C233.541,105.491,233.439,104.094,233.193,102.713z"/>
</g>
</svg>
