<?xml version="1.0" encoding="utf-8"?>
<!-- Generator: Adobe Illustrator 16.0.3, SVG Export Plug-In . SVG Version: 6.00 Build 0)  -->
<!DOCTYPE svg PUBLIC "-//W3C//DTD SVG 1.1//EN" "http://www.w3.org/Graphics/SVG/1.1/DTD/svg11.dtd">
<svg version="1.1" id="Ebene_1" xmlns="http://www.w3.org/2000/svg" xmlns:xlink="http://www.w3.org/1999/xlink" x="0px" y="0px"
	 width="256px" height="256px" viewBox="0 52.5 256 256" enable-background="new 0 52.5 256 256" xml:space="preserve">
<g>
	<path fill="#264DE4" d="M127.915,277.635l-56.471-15.677L58.861,120.812H197.14l-12.598,141.124L127.915,277.635L127.915,277.635z"
		/>
	<path fill="#2965F1" d="M173.757,252.949l10.766-120.598H128v133.283L173.757,252.949L173.757,252.949z"/>
	<path fill="#EBEBEB" d="M87.709,184.702l1.551,17.31H128v-17.31H87.709L87.709,184.702z"/>
	<path fill="#EBEBEB" d="M84.592,149.663l1.574,17.311H128v-17.311H84.592L84.592,149.663z"/>
	<path fill="#EBEBEB" d="M128,229.66l-0.076,0.02l-19.279-5.205l-1.232-13.807H90.035l2.425,27.181l35.46,9.844l0.08-0.021V229.66
		L128,229.66z"/>
	<path d="M91.403,82.454h20.967v8.768h-12.199v8.768h12.199v8.768H91.403V82.454L91.403,82.454z"/>
	<path d="M116.563,82.454h20.967v7.624h-12.199v1.525h12.199v17.536h-20.967v-8.006h12.199v-1.525h-12.199V82.454L116.563,82.454z"
		/>
	<path d="M141.724,82.454h20.967v7.624h-12.199v1.525h12.199v17.536h-20.967v-8.006h12.199v-1.525h-12.199V82.454L141.724,82.454z"
		/>
	<path fill="#FFFFFF" d="M168.18,184.702l3.125-35.039H127.94v17.311h24.393l-1.575,17.728H127.94v17.31h21.318l-2.01,22.451
		l-19.308,5.212v18.01l35.49-9.836l0.26-2.925l4.068-45.574L168.18,184.702L168.18,184.702z"/>
</g>
</svg>
