<?xml version="1.0" encoding="utf-8"?>
<!-- Generator: Adobe Illustrator 16.0.3, SVG Export Plug-In . SVG Version: 6.00 Build 0)  -->
<!DOCTYPE svg PUBLIC "-//W3C//DTD SVG 1.1//EN" "http://www.w3.org/Graphics/SVG/1.1/DTD/svg11.dtd">
<svg version="1.1" id="Ebene_1" xmlns="http://www.w3.org/2000/svg" xmlns:xlink="http://www.w3.org/1999/xlink" x="0px" y="0px"
	 width="256px" height="256px" viewBox="0 -32 256 256" enable-background="new 0 -32 256 256" xml:space="preserve">
<g>
	<path fill="#0080FF" d="M127.806,102.096v20.356c34.501,0,61.366-33.331,50.08-69.485c-4.933-15.799-17.486-28.354-33.286-33.286
		c-36.154-11.287-69.486,15.578-69.486,50.08h20.402c0.003,0,0.005-0.005,0.005-0.005c0.003-21.652,21.432-38.393,44.196-30.132
		c8.435,3.061,15.161,9.787,18.224,18.22c8.262,22.751-8.454,44.171-30.088,44.202V81.754c0,0-0.001-0.001-0.003-0.001h-20.34
		c-0.001,0-0.003,0.002-0.003,0.002v20.34H127.806z M107.502,117.73H91.875l-0.004-0.004v-15.631h15.636v15.631
		C107.506,117.727,107.504,117.73,107.502,117.73z M91.882,102.096H78.781c-0.006,0-0.01-0.003-0.01-0.003V88.998
		c0,0,0.004-0.01,0.01-0.01h13.091c0.005,0,0.01,0.004,0.01,0.004V102.096z"/>
	<path fill="#0080FF" d="M40.707,143.101c-2.652-1.84-5.954-2.772-9.811-2.772H22.5v26.638h8.396c3.847,0,7.149-0.985,9.813-2.925
		c1.45-1.029,2.588-2.468,3.385-4.272c0.793-1.796,1.195-3.914,1.195-6.295c0-2.354-0.402-4.444-1.195-6.215
		C43.298,145.479,42.158,144.081,40.707,143.101z M27.404,144.831h2.635c2.932,0,5.346,0.576,7.176,1.715
		c2.032,1.225,3.063,3.556,3.063,6.928c0,3.474-1.033,5.908-3.069,7.241h-0.002c-1.752,1.16-4.151,1.747-7.13,1.747h-2.672V144.831z
		 M48.729,166.966h4.721v-18.762h-4.721V166.966z M51.135,140c-0.807,0-1.502,0.286-2.063,0.846
		c-0.566,0.54-0.854,1.225-0.854,2.034c0,0.807,0.286,1.502,0.85,2.065c0.563,0.564,1.259,0.851,2.066,0.851
		s1.501-0.286,2.066-0.851s0.851-1.26,0.851-2.065c0-0.81-0.288-1.493-0.851-2.03C52.636,140.286,51.941,140,51.135,140z
		 M70.595,149.771c-1.423-1.267-3.013-2.006-4.732-2.006c-2.606,0-4.772,0.902-6.437,2.678c-1.687,1.763-2.542,4.03-2.542,6.74
		c0,2.648,0.842,4.908,2.506,6.721c1.678,1.754,3.855,2.642,6.473,2.642c1.82,0,3.384-0.507,4.66-1.508v0.433
		c0,1.557-0.417,2.767-1.239,3.599c-0.821,0.831-1.96,1.252-3.384,1.252c-2.179,0-3.545-0.855-5.208-3.104l-3.215,3.089l0.087,0.121
		c0.694,0.976,1.757,1.929,3.161,2.836c1.404,0.901,3.169,1.36,5.247,1.36c2.803,0,5.07-0.864,6.74-2.567
		c1.679-1.713,2.531-4.006,2.531-6.813v-17.039h-4.648V149.771z M69.356,160.852c-0.825,0.938-1.884,1.392-3.238,1.392
		c-1.354,0-2.407-0.454-3.22-1.391c-0.809-0.931-1.22-2.166-1.22-3.669c0-1.527,0.411-2.777,1.221-3.716
		c0.802-0.929,1.885-1.398,3.22-1.398c1.353,0,2.413,0.457,3.238,1.4c0.822,0.938,1.238,2.188,1.238,3.714
		C70.595,158.687,70.178,159.921,69.356,160.852z M79.283,166.966h4.721v-18.762h-4.721V166.966z M81.689,140
		c-0.808,0-1.503,0.286-2.063,0.846c-0.566,0.54-0.854,1.225-0.854,2.034c0,0.807,0.285,1.502,0.85,2.065
		c0.563,0.564,1.259,0.851,2.066,0.851c0.806,0,1.501-0.286,2.066-0.851c0.564-0.564,0.85-1.26,0.85-2.065
		c0-0.81-0.288-1.493-0.85-2.03C83.19,140.286,82.496,140,81.689,140z M94.352,143.135h-4.648v5.069h-2.699v4.303h2.699v7.793
		c0,2.438,0.487,4.184,1.449,5.186c0.963,1.007,2.675,1.518,5.086,1.518c0.767,0,1.539-0.026,2.294-0.075l0.213-0.015v-4.299
		l-1.619,0.084c-1.124,0-1.875-0.197-2.231-0.586c-0.362-0.395-0.544-1.229-0.544-2.481v-7.124h4.394v-4.303h-4.394V143.135z
		 M114.949,149.607L114.949,149.607c-1.431-1.222-3.409-1.842-5.878-1.842c-1.571,0-3.04,0.346-4.368,1.02
		c-1.229,0.624-2.436,1.655-3.204,3.007l0.048,0.058l3.023,2.895c1.245-1.986,2.63-2.675,4.465-2.675
		c0.986,0,1.805,0.264,2.434,0.786c0.626,0.518,0.931,1.177,0.931,2.013v0.91c-1.17-0.355-2.338-0.536-3.474-0.536
		c-2.349,0-4.261,0.553-5.681,1.643c-1.438,1.104-2.167,2.682-2.167,4.693c0,1.763,0.615,3.194,1.832,4.259
		c1.227,1.026,2.761,1.549,4.559,1.549c1.797,0,3.479-0.726,5.005-1.965v1.545h4.648v-12.062
		C117.121,152.621,116.39,150.839,114.949,149.607z M106.567,159.796c0.535-0.373,1.292-0.562,2.249-0.562
		c1.136,0,2.342,0.228,3.584,0.679v1.841c-1.026,0.953-2.397,1.438-4.075,1.438c-0.817,0-1.453-0.182-1.89-0.541
		c-0.428-0.351-0.637-0.799-0.637-1.365C105.798,160.642,106.05,160.154,106.567,159.796z M120.882,166.966h4.721v-26.638h-4.721
		V166.966z M142.732,167.367c-7.571,0-13.731-6.16-13.731-13.733c0-7.572,6.16-13.731,13.731-13.731
		c7.572,0,13.732,6.159,13.732,13.731C156.465,161.207,150.305,167.367,142.732,167.367z M142.732,144.742
		c-4.903,0-8.893,3.988-8.893,8.892c0,4.904,3.989,8.894,8.893,8.894s8.893-3.989,8.893-8.894
		C151.625,148.73,147.636,144.742,142.732,144.742z M173.299,160.257c-0.845,0.946-1.709,1.768-2.374,2.193l0,0
		c-0.652,0.42-1.477,0.633-2.448,0.633c-1.391,0-2.509-0.507-3.421-1.551c-0.906-1.038-1.365-2.371-1.365-3.966
		s0.453-2.927,1.349-3.957c0.898-1.036,2.012-1.54,3.401-1.54c1.521,0,3.124,0.944,4.497,2.57l3.121-2.994
		c-2.035-2.646-4.63-3.88-7.728-3.88c-2.592,0-4.839,0.945-6.678,2.806c-1.83,1.849-2.757,4.201-2.757,6.995
		c0,2.793,0.927,5.152,2.754,7.013c1.829,1.861,4.077,2.807,6.681,2.807c3.418,0,6.177-1.477,8.037-4.18L173.299,160.257z
		 M192.675,150.825c-0.669-0.934-1.58-1.684-2.71-2.232c-1.126-0.549-2.439-0.827-3.901-0.827c-2.636,0-4.792,0.973-6.411,2.893
		c-1.572,1.904-2.367,4.271-2.367,7.035c0,2.844,0.873,5.197,2.598,6.996c1.714,1.788,4.008,2.696,6.818,2.696
		c3.184,0,5.797-1.288,7.765-3.828l0.106-0.137l-3.08-2.959c-0.285,0.344-0.689,0.735-1.059,1.083
		c-0.467,0.439-0.904,0.78-1.373,1.014c-0.706,0.351-1.497,0.524-2.382,0.524c-1.309,0-2.392-0.386-3.22-1.145
		c-0.774-0.709-1.228-1.667-1.348-2.85h12.508l0.042-1.723c0-1.22-0.166-2.395-0.493-3.493
		C193.84,152.773,193.338,151.747,192.675,150.825z M182.357,155.242c0.227-0.897,0.64-1.645,1.232-2.226
		c0.64-0.63,1.472-0.947,2.475-0.947c1.145,0,2.03,0.325,2.633,0.969c0.559,0.596,0.873,1.336,0.939,2.204H182.357z
		 M210.806,149.607L210.806,149.607c-1.432-1.222-3.409-1.842-5.878-1.842c-1.57,0-3.04,0.346-4.369,1.02
		c-1.229,0.624-2.437,1.655-3.203,3.007l0.048,0.058l3.023,2.895c1.245-1.986,2.63-2.675,4.465-2.675
		c0.986,0,1.805,0.264,2.435,0.786c0.626,0.518,0.931,1.177,0.931,2.013v0.91c-1.171-0.355-2.338-0.536-3.476-0.536
		c-2.349,0-4.26,0.553-5.681,1.643c-1.438,1.104-2.167,2.682-2.167,4.693c0,1.763,0.615,3.194,1.832,4.259
		c1.227,1.026,2.761,1.549,4.558,1.549c1.798,0,3.479-0.726,5.005-1.965v1.545h4.649v-12.062
		C212.978,152.621,212.247,150.839,210.806,149.607z M202.424,159.796c0.534-0.373,1.292-0.562,2.248-0.562
		c1.137,0,2.343,0.228,3.585,0.679v1.841c-1.026,0.953-2.397,1.438-4.075,1.438c-0.818,0-1.453-0.182-1.89-0.541
		c-0.428-0.351-0.638-0.799-0.638-1.365C201.654,160.642,201.906,160.154,202.424,159.796z M231.14,149.976
		c-1.315-1.466-3.163-2.21-5.494-2.21c-1.872,0-3.394,0.539-4.531,1.6v-1.161h-4.63v18.762h4.722v-10.348
		c0-1.421,0.338-2.55,1.005-3.355c0.665-0.804,1.581-1.193,2.798-1.193c1.068,0,1.88,0.349,2.478,1.066
		c0.601,0.722,0.905,1.714,0.905,2.954v10.876h4.72V156.09C233.111,153.492,232.448,151.436,231.14,149.976z"/>
</g>
</svg>
