<?xml version="1.0" encoding="utf-8"?>
<!-- Generator: Adobe Illustrator 16.0.3, SVG Export Plug-In . SVG Version: 6.00 Build 0)  -->
<!DOCTYPE svg PUBLIC "-//W3C//DTD SVG 1.1//EN" "http://www.w3.org/Graphics/SVG/1.1/DTD/svg11.dtd">
<svg version="1.1" id="Ebene_1" xmlns="http://www.w3.org/2000/svg" xmlns:xlink="http://www.w3.org/1999/xlink" x="0px" y="0px"
	 width="256px" height="256px" viewBox="128 -53.5 256 256" enable-background="new 128 -53.5 256 256" xml:space="preserve">
<g>
	<path fill="#222222" d="M134.492,94.094V66.691h34.213v-1.603h-34.213V40.09h36.376v-1.603h-37.979v57.208h38.299v-1.602H134.492
		L134.492,94.094z M202.036,54.512l-14.182,18.669l-13.862-18.669h-2.083l14.984,19.871l-16.426,21.313h1.923l15.464-20.11
		l15.544,20.11h2.003l-16.505-21.313l15.063-19.871H202.036L202.036,54.512z M210.209,109.798v-25.64h0.161
		c0.961,3.739,2.858,6.743,5.689,9.014c2.831,2.271,6.437,3.405,10.817,3.405c2.831,0,5.341-0.574,7.531-1.723
		s4.02-2.711,5.489-4.688c1.469-1.976,2.59-4.272,3.365-6.89c0.774-2.618,1.162-5.369,1.162-8.254c0-3.098-0.401-5.956-1.202-8.573
		c-0.801-2.618-1.963-4.888-3.485-6.811c-1.522-1.923-3.365-3.418-5.528-4.487c-2.164-1.068-4.608-1.603-7.332-1.603
		c-2.083,0-4.02,0.307-5.81,0.921c-1.789,0.614-3.378,1.482-4.767,2.604c-1.389,1.122-2.59,2.444-3.606,3.966
		c-1.015,1.522-1.789,3.192-2.323,5.008h-0.161V54.512h-1.602v55.286H210.209L210.209,109.798z M226.875,95.056
		c-5.021,0-9.054-1.723-12.099-5.169c-3.044-3.445-4.567-8.399-4.567-14.863c0-2.67,0.375-5.208,1.122-7.611s1.83-4.514,3.245-6.33
		c1.416-1.816,3.165-3.259,5.248-4.327c2.083-1.068,4.434-1.603,7.051-1.603c2.671,0,5.008,0.534,7.011,1.603
		c2.003,1.068,3.659,2.523,4.968,4.366c1.309,1.843,2.297,3.953,2.964,6.33s1.001,4.901,1.001,7.571
		c0,2.404-0.307,4.795-0.921,7.172s-1.563,4.514-2.845,6.409c-1.281,1.896-2.924,3.446-4.927,4.647
		C232.123,94.454,229.706,95.056,226.875,95.056L226.875,95.056L226.875,95.056z M253.236,95.695V72.38
		c0-2.244,0.32-4.434,0.961-6.57c0.641-2.136,1.629-4.02,2.965-5.648c1.335-1.629,3.03-2.912,5.087-3.846s4.501-1.322,7.332-1.162
		v-1.603c-2.457-0.054-4.607,0.213-6.45,0.801c-1.843,0.587-3.432,1.389-4.768,2.404c-1.335,1.015-2.404,2.203-3.205,3.565
		c-0.801,1.362-1.389,2.817-1.762,4.367h-0.16V54.512h-1.603v41.183H253.236L253.236,95.695z M271.584,75.425h34.453
		c0.107-2.831-0.174-5.555-0.841-8.173c-0.668-2.618-1.736-4.941-3.205-6.971c-1.47-2.03-3.365-3.659-5.688-4.887
		c-2.324-1.229-5.089-1.843-8.293-1.843c-2.297,0-4.541,0.48-6.731,1.442c-2.189,0.961-4.112,2.363-5.768,4.206
		c-1.656,1.843-2.992,4.1-4.007,6.771s-1.522,5.716-1.522,9.135c0,3.044,0.348,5.889,1.042,8.533
		c0.694,2.644,1.763,4.94,3.205,6.891c1.442,1.949,3.298,3.458,5.568,4.527c2.27,1.067,5.008,1.575,8.213,1.521
		c4.7,0,8.653-1.322,11.858-3.966c3.205-2.645,5.101-6.37,5.688-11.178h-1.603c-0.694,4.541-2.471,7.945-5.328,10.216
		c-2.858,2.271-6.45,3.406-10.777,3.406c-2.938,0-5.421-0.508-7.451-1.523c-2.03-1.015-3.686-2.403-4.968-4.166
		s-2.229-3.833-2.844-6.21C271.971,80.779,271.638,78.202,271.584,75.425L271.584,75.425L271.584,75.425z M304.435,73.822h-32.851
		c0.16-2.885,0.694-5.476,1.603-7.772s2.097-4.26,3.565-5.889c1.469-1.629,3.178-2.871,5.128-3.726
		c1.949-0.854,4.046-1.282,6.29-1.282c2.671,0,5.021,0.494,7.051,1.482c2.029,0.988,3.726,2.337,5.088,4.046s2.39,3.699,3.085,5.969
		C304.088,68.921,304.435,71.312,304.435,73.822L304.435,73.822L304.435,73.822z M339.289,66.691h1.603
		c0-4.594-1.336-7.932-4.007-10.015c-2.671-2.083-6.303-3.125-10.896-3.125c-2.563,0-4.728,0.32-6.49,0.961
		s-3.205,1.469-4.326,2.484c-1.122,1.015-1.924,2.137-2.404,3.365s-0.721,2.403-0.721,3.525c0,2.244,0.4,4.033,1.201,5.368
		c0.802,1.335,2.057,2.377,3.767,3.125c1.175,0.534,2.511,1.015,4.006,1.442c1.495,0.427,3.231,0.881,5.208,1.362
		c1.763,0.427,3.499,0.854,5.208,1.282c1.71,0.427,3.219,1.001,4.527,1.722c1.309,0.722,2.377,1.644,3.205,2.765
		s1.241,2.591,1.241,4.407c0,1.763-0.413,3.258-1.241,4.486s-1.884,2.23-3.165,3.005c-1.282,0.774-2.711,1.335-4.287,1.683
		c-1.575,0.348-3.111,0.521-4.606,0.521c-4.861,0-8.587-1.082-11.178-3.245c-2.591-2.164-3.886-5.569-3.886-10.217h-1.603
		c0,5.182,1.401,8.975,4.206,11.378c2.805,2.404,6.958,3.605,12.46,3.605c1.762,0,3.538-0.2,5.328-0.601
		c1.789-0.401,3.392-1.056,4.807-1.963c1.416-0.908,2.564-2.083,3.445-3.526c0.882-1.441,1.323-3.204,1.323-5.288
		c0-1.976-0.388-3.578-1.162-4.807c-0.775-1.229-1.79-2.244-3.045-3.045c-1.255-0.802-2.671-1.429-4.247-1.883
		c-1.575-0.454-3.164-0.895-4.767-1.322c-2.244-0.587-4.207-1.095-5.89-1.522s-3.245-0.935-4.688-1.522
		c-1.389-0.588-2.497-1.429-3.324-2.524c-0.828-1.095-1.242-2.657-1.242-4.687c0-0.374,0.106-1.042,0.32-2.003
		c0.214-0.962,0.721-1.937,1.522-2.925c0.801-0.988,2.029-1.87,3.686-2.644c1.655-0.774,3.926-1.162,6.811-1.162
		c1.977,0,3.779,0.213,5.408,0.641c1.63,0.428,3.031,1.108,4.207,2.043c1.175,0.935,2.083,2.124,2.724,3.565
		C338.968,62.845,339.289,64.607,339.289,66.691L339.289,66.691L339.289,66.691z M376.387,66.691h1.603
		c0-4.594-1.336-7.932-4.007-10.015c-2.671-2.083-6.303-3.125-10.896-3.125c-2.564,0-4.728,0.32-6.49,0.961
		s-3.205,1.469-4.326,2.484c-1.122,1.015-1.924,2.137-2.404,3.365s-0.721,2.403-0.721,3.525c0,2.244,0.4,4.033,1.201,5.368
		c0.802,1.335,2.057,2.377,3.767,3.125c1.175,0.534,2.51,1.015,4.006,1.442c1.495,0.427,3.231,0.881,5.208,1.362
		c1.763,0.427,3.499,0.854,5.208,1.282c1.71,0.427,3.219,1.001,4.526,1.722c1.31,0.722,2.378,1.644,3.206,2.765
		c0.827,1.121,1.241,2.591,1.241,4.407c0,1.763-0.414,3.258-1.241,4.486c-0.828,1.229-1.884,2.23-3.165,3.005
		c-1.282,0.774-2.711,1.335-4.287,1.683c-1.575,0.348-3.111,0.521-4.607,0.521c-4.86,0-8.586-1.082-11.177-3.245
		c-2.591-2.164-3.886-5.569-3.886-10.217h-1.603c0,5.182,1.401,8.975,4.206,11.378c2.805,2.404,6.957,3.605,12.459,3.605
		c1.763,0,3.539-0.2,5.328-0.601c1.79-0.401,3.393-1.056,4.808-1.963c1.416-0.908,2.564-2.083,3.445-3.526
		c0.882-1.441,1.322-3.204,1.322-5.288c0-1.976-0.387-3.578-1.161-4.807c-0.775-1.229-1.79-2.244-3.045-3.045
		c-1.255-0.802-2.671-1.429-4.247-1.883c-1.575-0.454-3.165-0.895-4.767-1.322c-2.244-0.587-4.207-1.095-5.89-1.522
		s-3.245-0.935-4.688-1.522c-1.389-0.588-2.497-1.429-3.325-2.524c-0.827-1.095-1.242-2.657-1.242-4.687
		c0-0.374,0.107-1.042,0.321-2.003c0.214-0.962,0.721-1.937,1.521-2.925c0.802-0.988,2.03-1.87,3.687-2.644
		c1.655-0.774,3.926-1.162,6.811-1.162c1.977,0,3.778,0.213,5.408,0.641c1.629,0.428,3.031,1.108,4.207,2.043
		c1.175,0.935,2.082,2.124,2.724,3.565C376.066,62.845,376.387,64.607,376.387,66.691L376.387,66.691L376.387,66.691z"/>
</g>
</svg>
