<?xml version="1.0" encoding="utf-8"?>
<!-- Generator: Adobe Illustrator 16.0.3, SVG Export Plug-In . SVG Version: 6.00 Build 0)  -->
<!DOCTYPE svg PUBLIC "-//W3C//DTD SVG 1.1//EN" "http://www.w3.org/Graphics/SVG/1.1/DTD/svg11.dtd">
<svg version="1.1" id="Ebene_1" xmlns="http://www.w3.org/2000/svg" xmlns:xlink="http://www.w3.org/1999/xlink" x="0px" y="0px"
	 width="256px" height="256px" viewBox="0 0 256 256" enable-background="new 0 0 256 256" xml:space="preserve">
<g>
	<path fill="#DE4C36" d="M204.502,120.915L135.08,51.498c-3.995-3.999-10.479-3.999-14.48,0l-14.416,14.415L124.471,84.2
		c4.25-1.436,9.123-0.473,12.511,2.915c3.402,3.409,4.359,8.323,2.888,12.587l17.624,17.624c4.264-1.469,9.184-0.518,12.589,2.893
		c4.759,4.758,4.759,12.468,0,17.229c-4.761,4.762-12.472,4.762-17.234,0c-3.58-3.583-4.465-8.841-2.651-13.251l-16.437-16.436
		l-0.001,43.252c1.16,0.574,2.255,1.341,3.223,2.304c4.759,4.757,4.759,12.469,0,17.233c-4.762,4.759-12.477,4.759-17.23,0
		c-4.759-4.765-4.759-12.477,0-17.233c1.176-1.174,2.537-2.063,3.988-2.658v-43.655c-1.451-0.593-2.811-1.476-3.988-2.658
		c-3.606-3.601-4.473-8.892-2.626-13.32L99.102,72.997l-47.601,47.597c-4,4.002-4,10.487,0,14.485l69.422,69.419
		c3.997,3.998,10.479,3.998,14.482,0l69.097-69.096C208.501,131.401,208.501,124.913,204.502,120.915"/>
</g>
</svg>
