<?xml version="1.0" encoding="utf-8"?>
<!-- Generator: Adobe Illustrator 16.0.3, SVG Export Plug-In . SVG Version: 6.00 Build 0)  -->
<!DOCTYPE svg PUBLIC "-//W3C//DTD SVG 1.1//EN" "http://www.w3.org/Graphics/SVG/1.1/DTD/svg11.dtd">
<svg version="1.1" id="Ebene_1" xmlns="http://www.w3.org/2000/svg" xmlns:xlink="http://www.w3.org/1999/xlink" x="0px" y="0px"
	 width="256px" height="256px" viewBox="0 0 256 256" enable-background="new 0 0 256 256" xml:space="preserve">
<g>
	<path fill="#D33833" d="M181.098,110.989c0,30.031-23.811,54.399-53.198,54.399c-29.387,0-53.197-24.368-53.197-54.399
		c0-30.03,23.81-54.398,53.197-54.398C157.287,56.59,181.098,80.959,181.098,110.989"/>
	<path fill="#EF3D3A" d="M76.89,124.461c0,0-3.861-56.715,48.435-58.347l-3.646-6.092l-28.357,9.524l-8.108,9.31l-7.079,13.558
		l-4.033,15.788l1.202,10.554"/>
	<path fill="#231F20" d="M91.477,73.88c-9.31,9.566-15.102,22.736-15.102,37.324l0,0c0,14.586,5.792,27.757,15.102,37.324l0,0
		c9.353,9.566,22.18,15.443,36.423,15.443l0,0c14.243,0,27.071-5.877,36.422-15.443l0,0c9.312-9.566,15.103-22.737,15.103-37.324
		l0,0c0-14.586-5.791-27.758-15.103-37.324l0,0c-9.352-9.523-22.18-15.443-36.422-15.443l0,0
		C113.699,58.437,100.829,64.313,91.477,73.88L91.477,73.88L91.477,73.88z M89.117,150.801
		c-9.91-10.124-16.045-24.153-16.045-39.597l0,0c0-15.445,6.135-29.473,16.045-39.641l0,0c9.91-10.125,23.639-16.432,38.783-16.432
		l0,0c15.144,0,28.874,6.307,38.784,16.432l0,0c9.908,10.125,16.045,24.153,16.045,39.641l0,0c0,15.443-6.137,29.473-16.045,39.597
		l0,0c-9.91,10.169-23.641,16.433-38.784,16.433l0,0C112.755,167.233,99.027,160.97,89.117,150.801L89.117,150.801L89.117,150.801z"
		/>
	<path fill="#F0D6B7" d="M150.294,111.289l-8.108,1.202l-10.939,1.244l-7.078,0.172l-6.907-0.215l-5.276-1.631L107.308,107
		l-3.646-10.339l-0.815-2.231L98,92.8l-2.832-4.676l-2.016-6.692l2.231-5.877l5.277-1.845l4.247,2.018l2.017,4.461l2.445-0.386
		l0.815-1.03l-0.815-4.676l-0.214-5.877l1.201-8.107l-0.043-4.633l3.69-5.922l6.478-4.676l11.326-4.848l12.569,1.844l10.94,7.895
		l5.062,8.107l3.261,5.877l0.815,14.586l-2.445,12.57l-4.462,11.154l-4.204,5.963"/>
	<path fill="#335061" d="M143.43,146.34l-28.958,1.201v4.848l2.445,17.031l-1.201,1.416l-20.25-6.907l-1.416-2.445l-2.016-22.908
		l-4.762-13.729l-1.03-3.26l16.217-11.154l5.062-2.017l4.462,5.491l3.861,3.433l4.461,1.416l2.017,0.601l2.445,10.554l1.845,2.231
		l4.677-1.632l-3.261,6.308l17.589,8.322L143.43,146.34"/>
	<path fill="#6D6B6D" d="M95.38,75.638l5.277-1.844l4.247,2.016l2.017,4.461l2.445-0.386l0.601-2.444l-1.201-4.677l1.201-11.153
		l-1.03-6.092l3.646-4.248l7.894-6.264l-2.23-3.046l-11.155,5.491l-4.676,3.646l-2.617,5.663l-4.032,5.491l-1.201,6.478
		L95.38,75.638"/>
	<path fill="#DCD9D8" d="M103.703,56.59c0,0,3.046-7.507,15.187-11.154c12.141-3.646,0.601-2.617,0.601-2.617l-13.171,5.063
		l-5.063,5.063l-2.23,4.033L103.703,56.59"/>
	<path fill="#DCD9D8" d="M97.611,74.223c0,0-4.247-14.2,11.969-16.216l-0.6-2.445l-11.155,2.617l-3.26,10.555l0.815,6.906
		L97.611,74.223"/>
	<path fill="#F7E4CD" d="M104.089,93.056l2.66-2.574c0,0,1.201,0.129,1.416,1.545c0.214,1.416,0.815,14.201,9.524,21.063
		c0.815,0.644-6.478-1.03-6.478-1.03l-6.479-10.125"/>
	<path fill="#F7E4CD" d="M141.37,89.194c0,0,0.472-6.133,2.146-5.662c1.674,0.472,1.674,2.145,1.674,2.145
		S141.156,88.252,141.37,89.194"/>
	<path fill="#F7E4CD" d="M158.188,66.715c0,0-3.346,0.687-3.646,3.647c-0.3,2.959,3.646,0.601,4.248,0.386"/>
	<path fill="#F7E4CD" d="M133.689,66.93c0,0-4.461,0.601-4.461,3.433c0,2.83,5.063,2.617,6.479,1.416"/>
	<path fill="#F7E4CD" d="M106.148,80.101c0,0-7.679-4.677-8.494-0.215c-0.815,4.462-2.617,7.68,1.201,12.355l-2.617-0.815
		l-2.445-6.264l-0.815-6.093l4.676-4.848l5.277,0.387l3.046,2.444L106.148,80.101"/>
	<path fill="#F7E4CD" d="M109.795,67.315c0,0,3.433-17.847,20.852-21.278c14.328-2.831,21.879,0.601,24.711,3.86
		c0,0-12.785-15.187-24.926-10.553c-12.142,4.676-21.064,13.171-20.851,18.619C109.924,67.315,109.795,67.315,109.795,67.315"/>
	<path fill="#F7E4CD" d="M156.771,51.914c0,0-5.877-0.214-6.092,5.063c0,0,0,0.814,0.387,1.629c0,0,4.676-5.276,7.507-2.445"/>
	<path fill="#F7E4CD" d="M131.074,59.165c0,0-1.029-8.064-7.894-3.389c-4.461,3.045-4.033,7.293-3.261,8.107
		c0.815,0.814,0.601,2.445,1.202,1.33c0.601-1.116,0.429-4.764,2.66-5.792C125.969,58.394,129.658,57.276,131.074,59.165"/>
	<path fill="#49728B" d="M112.026,113.907l-19.048,8.494c0,0,7.894,31.403,3.861,41.142l-2.832-1.029l-0.214-11.97l-5.277-22.652
		l-2.231-6.263l19.863-13.386L112.026,113.907"/>
	<path fill="#49728B" d="M113.957,131.28l2.703,3.305v12.141h-3.218c0,0-0.386-8.494-0.386-9.523c0-1.028,0.386-4.676,0.386-4.676"
		/>
	<path fill="#49728B" d="M114.042,148.569l-9.138,0.387l2.617,1.845l6.479,1.03"/>
	<path fill="#335061" d="M145.23,146.554l7.508-0.214l1.846,18.619l-7.68,1.03L145.23,146.554"/>
	<path fill="#335061" d="M147.248,146.554l11.324-0.601c0,0,4.678-11.755,4.678-12.355c0-0.6,4.033-17.03,4.033-17.03l-9.139-9.524
		l-1.846-1.63l-4.848,4.848v18.833L147.248,146.554"/>
	<path fill="#49728B" d="M152.311,145.139l-7.078,1.415l1.029,5.663c2.616,1.202,7.078-2.017,7.078-2.017"/>
	<path fill="#49728B" d="M152.523,109.659l14.201,10.554l0.387-4.849l-10.727-9.909L152.523,109.659"/>
	<path fill="#FFFFFF" d="M121.078,186.452l-4.205-17.032l-2.102-12.569l-0.343-9.31l19.005-1.029h11.797l-1.071,21.279l1.845,16.431
		l-0.215,3.045l-15.4,1.202L121.078,186.452"/>
	<path fill="#DCD9D8" d="M142.613,146.34c0,0-1.028,21.063,2.018,36.079c0,0-6.092,3.861-14.973,4.848l17.031-0.6l2.017-1.201
		l-2.444-33.205l-0.645-7.122"/>
	<path fill="#FFFFFF" d="M154.884,163.372l7.896-2.231l14.972-0.815l2.231-6.905l-4.032-11.972l-4.677-0.601l-6.479,2.019
		l-6.178,3.046l-3.304-0.603l-2.574,1.03"/>
	<path fill="#DCD9D8" d="M154.756,159.296c0,0,5.276-2.445,6.092-2.23l-2.23-11.153l2.617-1.03c0,0,1.845,10.555,1.845,11.755
		c0,0,11.325,0.601,12.354,0.601c0,0,2.446-4.676,1.846-9.523l2.23,6.479l0.215,3.646l-3.261,4.85l-3.647,0.813l-6.092-0.214
		l-2.016-2.617l-7.079,1.027l-2.229,0.816"/>
	<path fill="#FFFFFF" d="M146.775,144.923l-4.461-11.325l-4.678-6.692c0,0,1.029-2.83,2.446-2.83h4.675l4.463,1.63l-0.387,7.508
		L146.775,144.923"/>
	<path fill="#DCD9D8" d="M147.678,141.063c0,0-5.662-10.939-5.662-12.569c0,0,1.027-2.446,2.443-1.845
		c1.416,0.601,4.462,2.23,4.462,2.23v-3.861l-6.905-1.416l-4.679,0.602l7.896,18.705l1.629,0.215"/>
	<path fill="#FFFFFF" d="M122.88,114.336l-5.621-0.601l-5.276-1.631v1.846l2.574,2.83l8.108,3.646"/>
	<path fill="#DCD9D8" d="M113.828,114.937c0,0,6.264,2.616,8.323,2.017l0.214,2.444l-5.663-1.201l-3.432-2.445L113.828,114.937"/>
	<path fill="#D33833" d="M154.884,124.761c-3.432-0.086-6.563-0.515-9.267-1.288c0.172-1.114-0.172-2.188,0.129-3.003
		c0.771-0.558,2.018-0.558,3.175-0.686c-0.985-0.473-2.403-0.688-3.519-0.387c-0.043-0.771-0.387-1.244-0.6-1.845
		c1.93-0.687,6.477-5.19,9.053-3.731c1.242,0.729,1.758,4.762,1.844,6.779C155.785,122.229,155.527,123.858,154.884,124.761"/>
	<path stroke="#D33833" stroke-width="2" d="M154.884,124.761c-3.432-0.086-6.563-0.515-9.267-1.288
		c0.172-1.114-0.172-2.188,0.129-3.003c0.771-0.558,2.018-0.558,3.175-0.686c-0.985-0.473-2.403-0.688-3.519-0.387
		c-0.043-0.771-0.387-1.244-0.6-1.845c1.93-0.687,6.477-5.19,9.053-3.731c1.242,0.729,1.758,4.762,1.844,6.779
		C155.785,122.229,155.527,123.858,154.884,124.761L154.884,124.761z"/>
	<path fill="#D33833" d="M138.453,119.14c0,0.258,0,0.516-0.044,0.772c-1.072,0.687-2.788,0.687-3.988,1.288
		c1.716,0.086,3.088,0.515,4.29,1.072c-0.044,0.644-0.044,1.33-0.086,1.974c-1.975,1.329-3.775,3.346-6.094,4.633
		c-1.114,0.601-4.932,2.146-6.09,1.845c-0.644-0.172-0.729-0.986-0.987-1.759c-0.558-1.63-1.845-4.291-1.974-6.778
		c-0.128-3.132-0.472-8.408,2.917-7.766c2.746,0.516,5.919,1.759,8.023,2.917C135.75,118.11,136.479,118.969,138.453,119.14"/>
	<path stroke="#D33833" stroke-width="2" d="M138.453,119.14c0,0.258,0,0.516-0.044,0.772c-1.072,0.687-2.788,0.687-3.988,1.288
		c1.716,0.086,3.088,0.515,4.29,1.072c-0.044,0.644-0.044,1.33-0.086,1.974c-1.975,1.329-3.775,3.346-6.094,4.633
		c-1.114,0.601-4.932,2.146-6.09,1.845c-0.644-0.172-0.729-0.986-0.987-1.759c-0.558-1.63-1.845-4.291-1.974-6.778
		c-0.128-3.132-0.472-8.408,2.917-7.766c2.746,0.516,5.919,1.759,8.023,2.917C135.75,118.11,136.479,118.969,138.453,119.14
		L138.453,119.14z"/>
	<path fill="#D33833" d="M140.384,122.873c-0.3-1.716-0.646-2.188-0.515-3.69C144.459,116.137,145.275,124.418,140.384,122.873"/>
	<path stroke="#D33833" stroke-width="2" d="M140.384,122.873c-0.3-1.716-0.646-2.188-0.515-3.69
		C144.459,116.137,145.275,124.418,140.384,122.873L140.384,122.873z"/>
	<path fill="#EF3D3A" d="M146.99,124.246c0,0-1.415-2.017-0.387-2.617c1.029-0.601,2.017,0,2.617-1.03
		c0.602-1.029,0-1.63,0.215-2.832c0.215-1.201,1.201-1.416,2.23-1.63s3.861-0.6,4.247,0.386l-1.202-3.646l-2.443-0.814l-7.681,4.461
		l-0.387,2.23v4.462"/>
	<path fill="#EF3D3A" d="M125.712,130.938c-0.258-3.175-0.515-6.307-0.772-9.48c-0.429-4.719,1.115-3.904,5.233-3.904
		c0.644,0,3.861,0.729,4.076,1.201c1.114,2.273-1.845,1.759,1.287,3.475c2.616,1.416,7.293-0.856,6.221-4.074
		c-0.601-0.729-3.09-0.215-3.989-0.688c-1.588-0.814-3.175-1.63-4.764-2.445c-2.016-1.029-6.649-2.574-8.794-1.115
		c-5.449,3.689,0.343,12.957,2.274,16.818"/>
	<path fill="#231F20" d="M131.074,59.165c-5.534-1.287-8.28,2.316-9.953,6.049c-1.502-0.343-0.901-2.402-0.515-3.432
		c0.986-2.703,4.977-6.351,8.236-5.834C130.216,56.118,132.104,57.405,131.074,59.165"/>
	<path fill="#231F20" d="M157.973,65.428h0.258c1.246,2.575,2.317,5.32,3.903,7.638c-1.071,2.487-7.979,4.633-7.893,0.256
		c1.501-0.643,4.075-0.127,5.405-0.985C158.875,70.233,157.801,68.431,157.973,65.428"/>
	<path fill="#231F20" d="M133.861,65.514c1.203,2.188,1.589,4.462,3.262,6.093c0.771,0.729,2.23,1.629,1.502,3.688
		c-0.172,0.472-1.416,1.544-2.146,1.759c-2.617,0.771-8.751,0.172-6.691-3.131c2.188,0.085,5.105,1.416,6.734-0.172
		C135.277,71.776,133.048,67.831,133.861,65.514"/>
	<path fill="#231F20" d="M156.986,87.565c-3.947,2.531-8.366,5.319-14.887,4.676c-1.373-1.2-1.932-3.903-0.559-5.662
		c0.688,1.201,0.258,3.432,2.23,3.775c3.688,0.644,7.979-2.274,10.64-3.261c1.63-2.789-0.13-3.776-1.63-5.577
		c-3.047-3.646-7.079-8.193-6.951-13.643c1.245-0.901,1.331,1.373,1.503,1.759c1.587,3.688,5.577,8.451,8.451,11.626
		c0.729,0.771,1.888,1.544,2.016,2.059C158.188,84.776,156.814,86.578,156.986,87.565"/>
	<path fill="#231F20" d="M104.732,84.905c-1.244-0.729-1.544-3.818-3.003-3.904c-2.102-0.128-1.716,4.033-1.716,6.479
		c-1.416-1.287-1.673-5.32-0.644-7.379c-1.201-0.601-1.716,0.645-2.402,1.073C97.869,74.952,106.105,78.298,104.732,84.905"/>
	<path fill="#231F20" d="M159.477,90.182c-1.847,3.519-4.463,7.38-9.869,7.507c-0.129-1.115-0.215-2.873,0-3.561
		C153.77,93.7,156.343,91.598,159.477,90.182"/>
	<path fill="#231F20" d="M133.563,92.456c3.434,1.802,9.783,2.016,14.5,1.887c0.258,1.03,0.258,2.316,0.258,3.561
		C142.271,98.162,135.148,96.659,133.563,92.456"/>
	<path fill="#231F20" d="M132.918,95.802c2.402,6.006,10.598,5.32,17.505,5.148c-0.301,0.771-0.944,1.716-1.803,2.017
		c-2.229,0.901-8.322,1.587-11.411-0.043c-1.932-1.03-3.217-3.39-4.291-4.762C132.447,97.519,129.873,95.845,132.918,95.802"/>
	<path fill="#81B0C4" d="M156.688,128.879c-2.789,4.806-5.492,9.737-8.795,13.942c1.373-4.075,1.974-10.939,2.188-16.174
		C152.997,125.276,155.484,126.948,156.688,128.879"/>
	<path fill="#231F20" d="M171.744,146.125c-3.131,0.646-5.319,3.688-8.408,3.476C165.053,147.239,167.971,146.211,171.744,146.125"
		/>
	<path fill="#231F20" d="M173.117,151.017c-2.573,0.256-5.577,0.687-8.15,0.473C166.211,149.601,170.93,150.287,173.117,151.017"/>
	<path fill="#231F20" d="M174.02,155.264c-2.875,0.043-6.437,0-9.183-0.216C166.467,153.289,172.173,154.405,174.02,155.264"/>
	<path fill="#DCD9D8" d="M151.279,166.847c0.43,3.604,1.847,7.25,1.674,11.197c-1.587,0.516-2.488,0.986-4.633,0.986
		c-0.129-3.348-0.602-8.494-0.473-11.713C148.878,167.403,150.423,166.589,151.279,166.847"/>
	<path fill="#F0D6B7" d="M146.646,113.649c-1.459,0.943-2.66,2.102-4.074,3.131c-3.09,0.173-4.764-0.213-6.994-1.974
		c0.043-0.128,0.258-0.085,0.258-0.257C139.141,116.008,143.346,113.95,146.646,113.649"/>
	<path fill="#81B0C4" d="M129.4,136.087c0.9-3.905,4.461-5.964,7.681-8.109c3.303,4.204,5.319,9.61,7.55,14.844
		C139.354,141.233,133.992,138.703,129.4,136.087"/>
	<path fill="#231F20" d="M147.85,167.36c-0.129,3.218,0.299,8.322,0.471,11.713c2.146,0,3.047-0.473,4.634-0.987
		c0.173-3.947-1.244-7.593-1.673-11.197C150.423,166.589,148.878,167.403,147.85,167.36L147.85,167.36z M114.729,149.171
		c1.416,12.913,3.432,23.725,7.164,35.18c8.28,2.53,18.233,2.746,25.569,0.471c-1.33-6.435-0.772-14.284-1.544-21.191
		c-0.602-5.191-0.301-10.382-1.115-15.659C135.923,146.125,123.395,147.541,114.729,149.171L114.729,149.171z M146.904,148.056
		c-0.086,5.534,0.258,11.025,0.687,16.561c2.146-0.301,3.562-0.516,5.535-0.986c-0.646-5.32-0.56-11.368-1.89-16.088
		C149.736,147.584,148.406,147.541,146.904,148.056L146.904,148.056z M157.673,147.155c-1.03-0.217-2.188,0-3.132,0
		c0.473,4.504,1.545,9.479,1.932,14.242c1.5,0.043,2.316-0.687,3.561-0.9C160.118,156.336,159.689,150.586,157.673,147.155
		L157.673,147.155L157.673,147.155z M174.02,162.084c3.174-0.772,5.146-4.634,4.246-8.623c-0.602-2.66-1.629-7.722-2.789-9.438
		c-0.814-1.244-3.088-2.916-4.933-1.759c-2.961,1.888-8.151,2.445-10.297,4.72c1.071,3.604,1.415,8.494,1.845,13.043
		c3.689,0.213,8.194-1.03,11.283,0.299c-2.145,0.688-4.893,0.688-6.734,1.718C168.184,162.771,171.702,162.642,174.02,162.084
		L174.02,162.084L174.02,162.084z M144.588,142.821c-2.23-5.233-4.247-10.641-7.551-14.844c-3.217,2.146-6.734,4.204-7.68,8.109
		C133.992,138.703,139.354,141.233,144.588,142.821L144.588,142.821z M150.079,126.647c-0.214,5.234-0.813,12.099-2.188,16.174
		c3.305-4.246,6.006-9.139,8.795-13.942C155.484,126.948,152.997,125.276,150.079,126.647L150.079,126.647z M143.857,124.461
		c-1.244-0.129-2.315,1.458-3.945,0.772c-0.387,0.429-0.729,0.857-1.116,1.287c3.604,4.375,5.276,10.553,8.065,15.659
		c1.502-4.934,1.33-10.297,1.673-15.659C146.477,126.604,145.316,124.589,143.857,124.461L143.857,124.461z M139.869,119.183
		c-0.131,1.502,0.215,1.975,0.515,3.69C145.275,124.418,144.459,116.137,139.869,119.183L139.869,119.183z M134.421,117.381
		c-2.104-1.158-5.276-2.401-8.023-2.917c-3.39-0.645-3.046,4.633-2.917,7.766c0.129,2.487,1.416,5.104,1.974,6.777
		c0.258,0.771,0.343,1.588,0.987,1.76c1.158,0.258,5.019-1.244,6.091-1.844c2.316-1.245,4.119-3.262,6.093-4.634
		c0.042-0.644,0.042-1.33,0.086-1.974c-1.202-0.601-2.532-0.986-4.29-1.072c1.157-0.602,2.916-0.602,3.988-1.287
		c0-0.258,0-0.516,0.044-0.771C136.479,118.969,135.75,118.11,134.421,117.381L134.421,117.381z M114.257,113.735
		c-1.759,1.802,4.934,4.203,7.036,4.332c0-1.114,0.643-2.188,0.515-3.002C119.276,114.636,115.973,114.937,114.257,113.735
		L114.257,113.735z M135.879,114.55c0,0.172-0.214,0.129-0.258,0.257c2.273,1.759,3.947,2.146,6.992,1.974
		c1.373-0.986,2.617-2.188,4.076-3.131C143.346,113.95,139.141,116.008,135.879,114.55L135.879,114.55z M155.699,120.556
		c-0.086-1.974-0.602-6.049-1.844-6.777c-2.576-1.502-7.123,3.045-9.053,3.731c0.213,0.601,0.557,1.073,0.6,1.845
		c1.158-0.3,2.531-0.086,3.519,0.387c-1.157,0.128-2.403,0.128-3.175,0.686c-0.258,0.814,0.085,1.889-0.129,3.003
		c2.703,0.772,5.835,1.159,9.267,1.287C155.527,123.858,155.785,122.229,155.699,120.556L155.699,120.556z M111.297,115.45
		c-0.558-0.385-4.29-5.233-4.805-5.019c-6.735,2.66-13.042,7.25-18.662,11.626c5.363,11.54,7.551,25.654,7.937,39.254
		c6.135,2.875,11.54,7.036,19.906,7.467c-0.986-6.822-1.845-12.957-2.402-19.393c-2.103-0.9-5.105,0.043-7.079-0.258
		c0-2.357,3.003-1.029,3.26-2.616c0.172-1.202-1.673-1.286-1.072-3.175c1.544,0.559,2.359,1.802,3.99,2.273
		c1.501-3.262,0-9.053,0.214-11.799c0.043-0.515,0.258-2.832,1.416-2.445c1.03,0.344-0.043,6.222,0.043,8.796
		c0.085,2.401-0.301,4.677,0.687,6.178c8.065-1.114,16.258-1.803,25.01-2.06c-1.93-0.815-4.203-1.588-6.691-3.004
		c-1.373-0.771-5.621-2.358-6.006-3.646c-0.644-2.06,1.629-3.133,2.016-4.892c-4.076,2.23-4.848-2.146-5.833-5.19
		c-0.858-2.789-1.373-4.892-1.587-6.479C118.075,119.269,114.3,117.596,111.297,115.45L111.297,115.45L111.297,115.45z
		 M152.139,110.989c5.62-2.703,6.65,10.168,4.42,14.328c0.342,1.244,1.5,1.717,1.974,2.832c-3.132,5.621-6.607,10.854-9.825,16.389
		c2.359-1.501,5.792-0.258,8.581-1.372c1.028-0.388,1.759-2.745,2.53-4.634c2.146-5.147,4.377-11.67,5.363-16.561
		c0.213-1.115,0.857-3.561,0.686-4.547c-0.258-1.802-2.659-3.132-3.903-4.205c-2.272-2.059-3.69-3.818-6.093-5.749
		C154.971,108.887,152.911,109.831,152.139,110.989L152.139,110.989L152.139,110.989z M98.47,61.181
		c-2.661,2.96-2.103,8.452-1.802,12.399c4.848-3.046,11.24,0.257,11.197,5.405c2.317-0.043,0.858-2.875,0.429-4.72
		c-1.373-5.963,2.317-12.397,0.172-17.847C104.304,56.762,100.915,58.437,98.47,61.181L98.47,61.181L98.47,61.181z M117.603,44.064
		c-6.049,1.716-13.814,6.134-16.302,11.583c1.93-0.301,3.26-1.244,5.148-1.373c0.729-0.043,1.673,0.299,2.488,0.084
		c1.63-0.429,3.046-4.117,4.291-5.49c1.201-1.33,2.66-1.931,3.646-3.132c0.644-0.3,1.587-0.3,1.63-1.244
		C118.247,44.192,117.946,43.978,117.603,44.064L117.603,44.064z M149.137,45.693c-6.308-3.561-16.947-6.221-23.64-2.874
		c-5.405,2.703-12.698,7.165-15.187,12.786c2.317,5.447-0.686,10.424-0.901,15.959c-0.085,2.959,1.374,5.49,1.502,8.707
		c-0.815,1.332-3.218,1.459-4.891,1.375c-0.557-2.832-1.544-6.008-4.461-6.351c-4.119-0.472-7.165,2.96-7.336,6.521
		c-0.215,4.205,3.217,11.154,8.108,10.684c1.888-0.172,2.359-2.061,4.418-2.061c1.115,2.231-1.716,2.918-2.017,4.506
		c-0.085,0.429,0.215,2.016,0.429,2.787c0.901,3.647,2.875,8.409,4.805,11.198c2.488,3.562,7.336,4.075,12.57,4.418
		c0.943-2.017,4.375-1.845,6.606-1.329c-2.704-1.074-5.191-3.647-7.25-5.921c-2.359-2.616-4.762-5.405-4.891-8.838
		c4.504,6.222,8.194,11.669,16.345,14.415c6.178,2.059,13.387-0.943,18.147-4.29c1.974-1.373,3.132-3.604,4.547-5.578
		c5.233-7.55,7.681-18.276,7.165-28.7c-0.215-4.291-0.215-8.58-1.674-11.455c-1.502-3.004-6.605-5.75-9.609-3.004
		c-0.559-2.959,2.488-4.762,6.049-3.689C155.441,51.657,152.782,47.753,149.137,45.693L149.137,45.693L149.137,45.693z
		 M160.891,142.692c4.935-2.443,14.114-6.563,17.16,0c1.158,2.446,2.488,6.522,3.047,9.054c0.814,3.519-0.9,10.981-4.549,12.141
		c-3.218,1.03-6.949,0.987-10.811,0.216c-0.473-0.388-0.944-1.029-1.33-1.718c-2.746-0.085-5.362,0.13-7.508,1.288
		c0.215,2.059-1.158,2.359-2.488,2.789c-0.943,3.816,1.931,8.794,1.244,12.227c-0.473,2.487-3.518,2.875-5.748,3.303
		c-0.086,1.373,0.086,2.531,0.257,3.689c-0.515,1.889-2.789,2.961-4.978,3.219c-7.164,0.856-18.018,1.244-24.882-1.246
		c-1.931-4.717-3.432-10.424-5.02-15.785c-6.692,0.729-12.141-2.875-17.246-5.277c-1.759-0.814-4.204-1.286-4.891-2.703
		c-0.644-1.372-0.386-3.988-0.558-6.435c-0.386-6.308-0.772-12.398-2.402-18.834c-0.729-2.917-2.06-5.448-2.96-8.236
		c-0.858-2.573-2.317-5.792-2.703-8.366c-0.558-3.818,3.046-4.033,5.32-5.705c3.561-2.574,6.349-3.99,10.21-6.308
		c1.158-0.687,4.59-2.401,4.977-3.218c0.772-1.588-1.33-3.818-1.888-5.063c-0.901-1.973-1.373-3.646-1.502-5.577
		c-3.217-0.515-5.706-2.445-7.164-4.59c-2.445-3.604-4.161-10.253-2.017-15.271c0.172-0.387,0.987-1.201,1.115-1.803
		c0.258-1.201-0.472-2.789-0.514-4.076c-0.215-6.563,1.115-12.227,5.534-14.2c1.802-7.164,8.237-9.523,14.287-13.084
		c2.273-1.33,4.762-2.188,7.336-3.132c9.223-3.389,23.424-2.746,31.104,3.046c3.261,2.445,8.451,7.636,10.297,11.412
		c4.933,9.91,4.547,26.514,1.115,38.611c-0.473,1.631-1.115,3.99-2.061,5.963c-0.645,1.373-2.66,4.076-2.445,5.277
		c0.258,1.244,4.635,4.548,5.578,5.448c1.672,1.63,4.889,3.776,5.147,5.834c0.3,2.188-0.944,5.19-1.587,7.294
		C165.309,129.907,163.25,136.387,160.891,142.692L160.891,142.692z"/>
	<path fill="#F7E4CD" d="M128.071,93.958c0.258-0.344,1.716-0.901,3.775,0.086c0,0-2.443,0.386-2.229,4.461l-1.029-0.214
		C128.629,98.334,127.557,94.644,128.071,93.958"/>
	<path fill="#1D1919" d="M145.831,128.793c0,0.601-0.515,1.114-1.114,1.114s-1.115-0.514-1.115-1.114s0.516-1.115,1.115-1.115
		C145.359,127.678,145.831,128.192,145.831,128.793"/>
	<path fill="#1D1919" d="M146.947,133.983c0,0.602-0.514,1.115-1.116,1.115c-0.601,0-1.114-0.515-1.114-1.115
		c0-0.6,0.516-1.115,1.114-1.115C146.477,132.868,146.947,133.34,146.947,133.983"/>
	<g transform="translate(0.992248, 367.131783)">
		<path fill="#231F20" d="M87.524-167.51c-0.343,0.043-0.644,0.086-0.901,0.129s-0.515,0.086-0.858,0.173
			c-0.386,0.086-0.601,0.257-0.687,0.514c-0.085,0.259-0.172,0.515-0.172,0.858v10.468c0,0.942-0.214,1.847-0.6,2.66
			c-0.386,0.813-0.901,1.459-1.587,2.017c-0.687,0.516-1.459,0.944-2.317,1.2c-0.858,0.258-1.759,0.431-2.703,0.431
			c-1.673,0-3.003-0.387-4.033-1.201c-1.029-0.814-1.544-1.889-1.544-3.305c0-0.814,0.214-1.501,0.687-2.059
			c0.472-0.559,1.115-0.815,1.93-0.815c0.772,0,1.373,0.216,1.845,0.687c0.472,0.473,0.687,1.029,0.687,1.675
			c0,0.558-0.215,1.114-0.601,1.586c-0.386,0.474-0.858,0.944-1.373,1.33v0.172c0.085,0.173,0.257,0.343,0.514,0.472
			c0.258,0.129,0.558,0.172,0.815,0.172c1.073,0,1.931-0.387,2.531-1.158c0.601-0.771,0.901-1.93,0.901-3.475v-10.726
			c0-0.302-0.042-0.601-0.128-0.813c-0.086-0.216-0.343-0.388-0.729-0.56c-0.258-0.128-0.601-0.215-0.987-0.3
			c-0.386-0.086-0.687-0.129-0.943-0.172v-1.03h10.125v1.073h0.128V-167.51z"/>
		<path fill="#231F20" d="M103.397-152.751c-0.3,0.515-0.686,0.987-1.115,1.459c-0.429,0.473-0.943,0.813-1.501,1.157
			c-0.6,0.344-1.201,0.602-1.802,0.772s-1.33,0.257-2.102,0.257c-1.33,0-2.445-0.171-3.432-0.557
			c-0.944-0.387-1.759-0.859-2.359-1.503c-0.644-0.644-1.073-1.372-1.416-2.229c-0.3-0.858-0.472-1.803-0.472-2.789
			c0-0.9,0.171-1.803,0.515-2.617c0.343-0.814,0.815-1.588,1.416-2.229c0.601-0.646,1.373-1.157,2.317-1.545
			c0.944-0.386,1.974-0.601,3.089-0.601c1.244,0,2.273,0.17,3.089,0.471c0.815,0.301,1.458,0.73,1.974,1.245
			s0.858,1.116,1.115,1.802c0.215,0.688,0.343,1.416,0.343,2.188v0.857h-9.052c0,1.846,0.343,3.219,1.073,4.162
			c0.686,0.943,1.845,1.415,3.346,1.415c0.858,0,1.587-0.214,2.273-0.687c0.687-0.473,1.245-1.029,1.716-1.76L103.397-152.751
			L103.397-152.751z M98.292-157.855c0-0.517-0.043-1.072-0.086-1.631c-0.043-0.558-0.129-1.029-0.3-1.373
			c-0.172-0.429-0.344-0.729-0.644-0.943c-0.257-0.215-0.601-0.299-0.987-0.299c-0.687,0-1.244,0.342-1.63,1.027
			c-0.429,0.688-0.644,1.803-0.686,3.305L98.292-157.855L98.292-157.855z"/>
		<path fill="#231F20" d="M122.317-149.576h-8.065v-0.986c0.171,0,0.386-0.043,0.601-0.087c0.257-0.042,0.429-0.086,0.557-0.128
			c0.172-0.086,0.301-0.258,0.387-0.429c0.085-0.172,0.128-0.472,0.128-0.815v-6.264c0-0.9-0.171-1.587-0.515-2.059
			c-0.343-0.474-0.814-0.688-1.501-0.688c-0.343,0-0.687,0.042-0.987,0.171c-0.3,0.086-0.601,0.257-0.901,0.472
			c-0.257,0.172-0.472,0.345-0.644,0.559c-0.171,0.172-0.3,0.344-0.386,0.516v7.164c0,0.301,0.043,0.559,0.128,0.772
			c0.086,0.214,0.257,0.386,0.429,0.472c0.129,0.087,0.301,0.171,0.515,0.215c0.215,0.042,0.429,0.086,0.643,0.129v0.986h-8.151
			v-0.986c0.215,0,0.429-0.043,0.687-0.087c0.214-0.042,0.429-0.086,0.601-0.128c0.3-0.086,0.472-0.258,0.601-0.472
			c0.085-0.216,0.171-0.474,0.171-0.815v-7.808c0-0.259-0.086-0.558-0.214-0.815c-0.129-0.258-0.343-0.473-0.558-0.644
			c-0.171-0.086-0.343-0.216-0.601-0.259c-0.257-0.086-0.515-0.127-0.815-0.127v-0.988l6.392-0.342l0.215,0.214v1.931h0.042
			c0.257-0.214,0.558-0.472,0.901-0.814c0.343-0.301,0.687-0.559,0.987-0.771c0.343-0.216,0.772-0.386,1.287-0.559
			c0.515-0.172,1.116-0.213,1.716-0.213c1.458,0,2.532,0.428,3.261,1.242s1.073,1.932,1.073,3.305v6.563
			c0,0.344,0.042,0.602,0.128,0.772c0.085,0.214,0.3,0.343,0.558,0.472c0.129,0.043,0.3,0.129,0.515,0.171
			c0.214,0.044,0.429,0.086,0.729,0.13v1.029H122.317z"/>
		<path fill="#231F20" d="M140.766-149.576h-6.308c-0.772-1.373-1.502-2.531-2.146-3.477c-0.644-0.942-1.244-1.844-1.803-2.616
			l-0.771,0.687v2.918c0,0.301,0.042,0.602,0.128,0.772c0.086,0.215,0.258,0.343,0.559,0.473c0.172,0.084,0.342,0.128,0.559,0.17
			c0.214,0.044,0.429,0.087,0.643,0.087v0.986h-8.322v-0.986c0.215,0,0.429-0.043,0.686-0.087c0.215-0.042,0.429-0.086,0.601-0.128
			c0.3-0.086,0.472-0.258,0.6-0.472c0.086-0.216,0.172-0.474,0.172-0.815v-14.93c0-0.301-0.086-0.6-0.215-0.9
			c-0.128-0.301-0.3-0.559-0.557-0.729c-0.172-0.086-0.429-0.215-0.772-0.258c-0.343-0.086-0.644-0.129-0.944-0.129v-0.986
			l6.649-0.344l0.216,0.214v13.815c0.644-0.602,1.415-1.287,2.229-2.062c0.814-0.771,1.502-1.414,1.973-1.931
			c0.302-0.301,0.474-0.515,0.474-0.687c0.043-0.172,0.043-0.257,0.043-0.3c0-0.172-0.129-0.301-0.43-0.387
			c-0.3-0.086-0.687-0.215-1.286-0.301v-0.943h6.777v0.943c-0.9,0.258-1.588,0.474-2.06,0.688c-0.473,0.214-0.985,0.515-1.545,0.857
			c-0.386,0.258-0.729,0.515-1.071,0.771c-0.344,0.257-0.729,0.602-1.201,0.986c0.857,1.287,1.674,2.445,2.401,3.519
			c0.729,1.073,1.502,2.229,2.315,3.433c0.259,0.43,0.602,0.687,1.031,0.857c0.429,0.128,0.813,0.214,1.244,0.258v1.029h0.129
			V-149.576z"/>
		<path fill="#231F20" d="M149.346-149.576h-8.453v-0.986c0.217,0,0.473-0.043,0.688-0.087c0.214-0.042,0.429-0.086,0.558-0.128
			c0.299-0.086,0.471-0.258,0.602-0.472c0.128-0.216,0.171-0.474,0.171-0.815v-7.808c0-0.302-0.086-0.601-0.215-0.815
			c-0.128-0.258-0.3-0.429-0.515-0.558c-0.172-0.086-0.387-0.215-0.729-0.302c-0.343-0.084-0.644-0.17-0.899-0.17v-0.988
			l6.563-0.342l0.214,0.214v10.64c0,0.301,0.086,0.559,0.214,0.815c0.13,0.214,0.345,0.386,0.558,0.472
			c0.174,0.087,0.388,0.171,0.602,0.215c0.216,0.042,0.43,0.086,0.688,0.129v0.986H149.346z M147.414-167.809
			c0,0.688-0.258,1.243-0.771,1.715c-0.516,0.474-1.158,0.73-1.846,0.73c-0.729,0-1.33-0.258-1.888-0.73
			c-0.515-0.472-0.772-1.071-0.772-1.715c0-0.688,0.258-1.244,0.772-1.76c0.517-0.472,1.157-0.729,1.888-0.729
			c0.729,0,1.33,0.257,1.846,0.729C147.157-169.096,147.414-168.496,147.414-167.809L147.414-167.809z"/>
		<path fill="#231F20" d="M168.264-149.576H160.2v-0.986c0.171,0,0.386-0.043,0.601-0.087c0.258-0.042,0.428-0.086,0.559-0.128
			c0.171-0.086,0.3-0.258,0.386-0.429c0.085-0.172,0.129-0.472,0.129-0.815v-6.264c0-0.9-0.172-1.587-0.515-2.059
			c-0.344-0.474-0.816-0.688-1.504-0.688c-0.342,0-0.686,0.042-0.984,0.171c-0.301,0.13-0.602,0.257-0.902,0.472
			c-0.257,0.172-0.471,0.345-0.643,0.559c-0.172,0.172-0.301,0.344-0.387,0.516v7.164c0,0.301,0.043,0.559,0.129,0.772
			s0.258,0.386,0.43,0.472c0.128,0.087,0.301,0.171,0.516,0.215c0.213,0.042,0.428,0.086,0.644,0.129v0.986h-8.151v-0.986
			c0.215,0,0.43-0.043,0.686-0.087c0.216-0.042,0.431-0.086,0.603-0.128c0.302-0.086,0.472-0.258,0.603-0.472
			c0.084-0.216,0.17-0.474,0.17-0.815v-7.808c0-0.259-0.086-0.558-0.215-0.815c-0.129-0.257-0.342-0.473-0.558-0.644
			c-0.172-0.086-0.343-0.216-0.603-0.259c-0.256-0.086-0.514-0.127-0.813-0.127v-0.988l6.394-0.342l0.213,0.214v1.931h0.044
			c0.257-0.214,0.558-0.472,0.901-0.814c0.344-0.301,0.687-0.559,0.985-0.771c0.345-0.216,0.772-0.386,1.288-0.559
			c0.516-0.172,1.115-0.213,1.715-0.213c1.459,0,2.532,0.428,3.262,1.242c0.729,0.814,1.071,1.932,1.071,3.305v6.563
			c0,0.344,0.044,0.602,0.13,0.772c0.086,0.214,0.301,0.343,0.557,0.472c0.129,0.043,0.302,0.129,0.517,0.171
			c0.214,0.044,0.429,0.086,0.729,0.13v1.029H168.264z"/>
		<path fill="#231F20" d="M175.685-149.103c-0.857,0-1.717-0.13-2.531-0.388c-0.815-0.256-1.458-0.515-1.932-0.813l-0.386,0.899
			h-1.028l-0.172-4.976h0.986c0.128,0.386,0.342,0.857,0.688,1.373c0.299,0.514,0.687,0.942,1.071,1.371
			c0.429,0.388,0.9,0.729,1.458,1.031c0.559,0.256,1.116,0.428,1.717,0.428c0.814,0,1.416-0.172,1.803-0.473
			c0.386-0.3,0.601-0.814,0.601-1.458c0-0.343-0.086-0.644-0.258-0.899c-0.172-0.215-0.429-0.43-0.729-0.602
			c-0.343-0.172-0.729-0.344-1.158-0.472c-0.428-0.13-0.942-0.259-1.545-0.474c-0.601-0.172-1.115-0.344-1.545-0.558
			c-0.428-0.172-0.899-0.473-1.328-0.858c-0.387-0.342-0.729-0.771-0.943-1.244c-0.258-0.473-0.344-1.071-0.344-1.758
			c0-1.244,0.516-2.273,1.588-3.047c1.072-0.772,2.445-1.158,4.16-1.158c0.814,0,1.545,0.086,2.231,0.258s1.243,0.344,1.716,0.559
			l0.301-0.771h1.029l0.215,4.547h-0.943c-0.301-0.943-0.858-1.717-1.588-2.402c-0.771-0.688-1.588-1.029-2.445-1.029
			c-0.688,0-1.244,0.129-1.631,0.43s-0.6,0.687-0.6,1.201c0,0.688,0.299,1.158,0.856,1.459s1.373,0.601,2.403,0.856
			c1.587,0.431,2.744,0.987,3.518,1.675c0.729,0.729,1.115,1.631,1.115,2.702c0,1.458-0.559,2.617-1.717,3.39
			C179.032-149.533,177.53-149.103,175.685-149.103L175.685-149.103z"/>
	</g>
</g>
</svg>
