<?xml version="1.0" encoding="utf-8"?>
<!-- Generator: Adobe Illustrator 16.0.3, SVG Export Plug-In . SVG Version: 6.00 Build 0)  -->
<!DOCTYPE svg PUBLIC "-//W3C//DTD SVG 1.1//EN" "http://www.w3.org/Graphics/SVG/1.1/DTD/svg11.dtd">
<svg version="1.1" id="Ebene_1" xmlns="http://www.w3.org/2000/svg" xmlns:xlink="http://www.w3.org/1999/xlink" x="0px" y="0px"
	 width="256px" height="256px" viewBox="0 -43 256 256" enable-background="new 0 -43 256 256" xml:space="preserve">
<g>
	<path fill="#002B64" d="M211.205,27.22c-2.683,0.086-1.834,0.858-7.632,2.285c-5.854,1.441-13.006,0.999-19.312,3.644
		c-18.82,7.893-22.596,34.869-39.705,44.533c-12.788,7.224-25.691,7.799-37.292,11.435c-7.623,2.391-15.963,7.293-22.87,13.245
		c-5.361,4.623-5.501,8.686-11.103,14.482c-5.992,6.2-23.814,0.104-31.892,9.595c2.602,2.631,3.743,3.367,8.871,2.686
		c-1.062,2.012-7.32,3.707-6.095,6.667c1.29,3.115,16.418,5.226,30.172-3.077c6.405-3.867,11.506-9.44,21.482-10.772
		c12.908-1.719,27.779,1.105,42.724,3.26c-2.217,6.606-6.665,11.001-10.229,16.263c-1.104,1.189,2.216,1.321,6.004,0.604
		c6.813-1.686,11.724-3.042,16.865-6.035c6.318-3.677,7.274-13.105,15.025-15.146c4.319,6.638,16.064,8.205,23.354,2.896
		c-6.396-1.81-8.163-15.422-6.004-21.421c2.044-5.678,4.065-14.761,6.124-22.267c2.211-8.061,3.027-18.221,5.702-22.327
		c4.025-6.177,8.474-8.298,12.336-11.783c3.862-3.483,7.396-6.874,7.28-14.845C214.976,28.573,213.647,27.141,211.205,27.22
		L211.205,27.22L211.205,27.22z"/>
	<path fill="#FFFFFF" d="M46.956,135.223c9.794,1.404,15.75,0,23.615-3.41c6.692-2.902,13.155-8.886,21.057-11.422
		c11.606-3.723,24.333,0.005,36.74,0.748c3.021,0.182,6.023,0.184,8.986-0.139c4.621-2.84,4.526-13.466,9.025-14.438
		c-0.134,14.907-6.244,23.839-12.636,32.488c13.47-2.38,21.53-10.171,26.976-20.577c1.651-3.156,3.063-6.55,4.31-10.108
		c1.928,1.48,0.836,5.984,1.805,8.424c9.279-5.169,14.591-16.964,18.109-28.894c4.07-13.807,5.736-27.787,8.362-31.872
		c2.563-3.988,6.55-6.446,10.189-8.999c4.137-2.902,7.825-5.927,8.463-11.458c-4.363-0.403-5.371-1.412-6.017-3.611
		c-2.185,1.231-4.191,1.495-6.462,1.562c-1.967,0.061-4.13-0.028-6.771,0.243c-21.847,2.244-24.622,26.322-38.625,39.972
		c-1.019,0.993-2.119,1.919-3.285,2.788c-4.903,3.653-10.918,6.266-16.45,8.38c-8.955,3.422-17.469,3.665-25.871,6.619
		c-6.167,2.166-12.434,5.313-17.5,8.778c-1.267,0.866-2.46,1.753-3.558,2.651c-2.973,2.432-4.924,5.13-6.811,7.906
		c-1.946,2.861-3.827,5.804-6.692,8.616c-4.643,4.557-21.988,1.329-28.095,5.556c-0.681,0.47-1.221,1.034-1.589,1.713
		c3.332,1.514,5.558,0.585,9.39,1.008C54.124,131.387,45.712,133.549,46.956,135.223L46.956,135.223L46.956,135.223z"/>
	<path fill="#FFFFFF" d="M179.309,109.021c0.261,4.172,2.683,12.452,4.821,14.464c-4.188,1.019-11.403-0.664-13.253-3.619
		C171.828,115.6,176.776,111.7,179.309,109.021L179.309,109.021L179.309,109.021z"/>
	<path fill="#002B64" d="M185.444,42.795c3.092,2.686,9.581,0.53,8.421-4.812C189.062,37.586,186.277,39.217,185.444,42.795
		L185.444,42.795L185.444,42.795z"/>
	<path fill="#002B64" d="M207.005,36.553c-0.823,1.725-2.398,3.95-2.398,8.342c-0.006,0.753-0.571,1.27-0.582,0.108
		c0.044-4.292,1.18-6.148,2.386-8.587C206.972,35.417,207.31,35.829,207.005,36.553L207.005,36.553L207.005,36.553z"/>
	<path fill="#002B64" d="M206.177,35.903c-0.972,1.646-3.308,4.649-3.693,9.024c-0.072,0.75-0.682,1.215-0.59,0.055
		c0.421-4.271,2.289-6.945,3.706-9.269C206.243,34.769,206.546,35.209,206.177,35.903L206.177,35.903L206.177,35.903z"/>
	<path fill="#002B64" d="M205.422,35.042c-1.106,1.558-4.702,5.164-5.455,9.493c-0.135,0.741-0.782,1.153-0.59,0.006
		c0.776-4.223,3.878-7.541,5.484-9.735C205.582,33.916,205.845,34.38,205.422,35.042L205.422,35.042L205.422,35.042z"/>
	<path fill="#002B64" d="M204.747,34.081c-1.313,1.388-5.601,5.986-6.951,10.165c-0.24,0.714-0.938,1.033-0.588-0.077
		c1.362-4.07,5.117-8.455,7.019-10.401C205.064,32.988,205.26,33.486,204.747,34.081L204.747,34.081L204.747,34.081z"/>
</g>
</svg>
