<?xml version="1.0" encoding="utf-8"?>
<!-- Generator: Adobe Illustrator 16.0.3, SVG Export Plug-In . SVG Version: 6.00 Build 0)  -->
<!DOCTYPE svg PUBLIC "-//W3C//DTD SVG 1.1//EN" "http://www.w3.org/Graphics/SVG/1.1/DTD/svg11.dtd">
<svg version="1.1" id="Ebene_1" xmlns="http://www.w3.org/2000/svg" xmlns:xlink="http://www.w3.org/1999/xlink" x="0px" y="0px"
	 width="256px" height="256px" viewBox="166.913 52.619 256 256" enable-background="new 166.913 52.619 256 256"
	 xml:space="preserve">
<g>
	<path fill="#689F63" d="M293.503,255.897c-0.812,0-1.617-0.212-2.329-0.622l-7.411-4.388c-1.107-0.619-0.567-0.838-0.202-0.964
		c1.477-0.517,1.775-0.634,3.351-1.528c0.166-0.095,0.382-0.061,0.552,0.039l5.694,3.379c0.206,0.11,0.498,0.11,0.688,0l22.2-12.815
		c0.205-0.116,0.339-0.355,0.339-0.6V212.78c0-0.255-0.134-0.483-0.344-0.611l-22.191-12.803c-0.206-0.123-0.478-0.123-0.684,0
		l-22.187,12.803c-0.215,0.122-0.352,0.361-0.352,0.606v25.617c0,0.245,0.134,0.479,0.345,0.595l6.079,3.513
		c3.301,1.65,5.318-0.295,5.318-2.251v-25.284c0-0.361,0.283-0.64,0.645-0.64h2.812c0.35,0,0.639,0.278,0.639,0.64v25.295
		c0,4.401-2.401,6.93-6.574,6.93c-1.284,0-2.295,0-5.118-1.389l-5.824-3.357c-1.439-0.833-2.329-2.389-2.329-4.051v-25.617
		c0-1.668,0.889-3.224,2.329-4.046l22.223-12.819c1.406-0.795,3.273-0.795,4.667,0l22.195,12.825
		c1.434,0.828,2.328,2.378,2.328,4.045v25.618c0,1.661-0.895,3.212-2.328,4.045l-22.195,12.821
		c-0.711,0.411-1.517,0.622-2.339,0.622"/>
	<path fill="#689F63" d="M300.361,238.245c-9.714,0-11.75-4.458-11.75-8.198c0-0.355,0.287-0.639,0.643-0.639h2.867
		c0.317,0,0.583,0.23,0.633,0.543c0.434,2.922,1.723,4.396,7.596,4.396c4.68,0,6.669-1.057,6.669-3.538
		c0-1.428-0.566-2.489-7.836-3.2c-6.079-0.601-9.835-1.939-9.835-6.803c0-4.479,3.779-7.146,10.108-7.146
		c7.107,0,10.631,2.467,11.075,7.769c0.017,0.184-0.05,0.361-0.172,0.494c-0.122,0.128-0.295,0.206-0.473,0.206h-2.884
		c-0.3,0-0.562-0.211-0.623-0.5c-0.694-3.073-2.372-4.057-6.935-4.057c-5.107,0-5.701,1.778-5.701,3.111
		c0,1.617,0.7,2.09,7.591,3.001c6.823,0.906,10.063,2.184,10.063,6.979c0,4.835-4.034,7.607-11.069,7.607 M327.368,211.103h0.745
		c0.611,0,0.728-0.428,0.728-0.678c0-0.656-0.45-0.656-0.7-0.656h-0.767L327.368,211.103z M326.462,209.003h1.651
		c0.566,0,1.678,0,1.678,1.267c0,0.884-0.566,1.067-0.905,1.179c0.661,0.044,0.705,0.478,0.795,1.089
		c0.044,0.384,0.116,1.045,0.249,1.268h-1.017c-0.027-0.223-0.184-1.445-0.184-1.512c-0.066-0.272-0.161-0.406-0.5-0.406h-0.839
		v1.923h-0.929V209.003z M324.479,211.392c0,1.989,1.606,3.601,3.579,3.601c1.989,0,3.595-1.645,3.595-3.601
		c0-1.995-1.628-3.579-3.601-3.579c-1.945,0-3.579,1.562-3.579,3.573 M332.342,211.403c0,2.356-1.928,4.279-4.279,4.279
		c-2.334,0-4.278-1.9-4.278-4.279c0-2.423,1.989-4.278,4.278-4.278c2.307,0,4.273,1.861,4.273,4.278"/>
	<path fill="#333333" d="M224.757,155.66c0-1.022-0.539-1.962-1.421-2.47l-23.538-13.542c-0.397-0.233-0.842-0.355-1.293-0.373
		h-0.243c-0.452,0.017-0.897,0.139-1.3,0.373l-23.537,13.542c-0.877,0.511-1.424,1.451-1.424,2.473l0.052,36.476
		c0,0.506,0.261,0.978,0.706,1.228c0.434,0.268,0.978,0.268,1.412,0l13.993-8.013c0.883-0.525,1.423-1.455,1.423-2.468v-17.041
		c0-1.017,0.539-1.956,1.419-2.461l5.957-3.431c0.442-0.255,0.929-0.382,1.423-0.382c0.487,0,0.983,0.126,1.414,0.382l5.955,3.43
		c0.881,0.505,1.422,1.445,1.422,2.461v17.039c0,1.012,0.546,1.945,1.426,2.468l13.983,8.008c0.439,0.262,0.985,0.262,1.422,0
		c0.432-0.25,0.705-0.723,0.705-1.228L224.757,155.66z M335.823,174.652c0,0.254-0.135,0.489-0.355,0.615l-8.084,4.66
		c-0.22,0.126-0.491,0.126-0.71,0l-8.086-4.66c-0.222-0.126-0.355-0.361-0.355-0.615v-9.333c0-0.254,0.134-0.489,0.351-0.617
		l8.08-4.668c0.222-0.127,0.494-0.127,0.717,0l8.085,4.668c0.223,0.128,0.355,0.362,0.355,0.617L335.823,174.652z M338.007,105.522
		c-0.44-0.246-0.978-0.239-1.413,0.015c-0.434,0.256-0.701,0.722-0.701,1.229v36.12c0,0.356-0.189,0.684-0.497,0.862
		c-0.306,0.178-0.687,0.178-0.995,0l-5.896-3.396c-0.878-0.508-1.959-0.508-2.841,0l-23.545,13.589
		c-0.88,0.505-1.423,1.444-1.423,2.456v27.185c0,1.018,0.543,1.951,1.423,2.463l23.545,13.598c0.879,0.506,1.962,0.506,2.844,0
		l23.545-13.604c0.878-0.512,1.423-1.445,1.423-2.462v-67.751c0-1.031-0.562-1.979-1.462-2.484L338.007,105.522z M416.413,165.073
		c0.875-0.508,1.413-1.446,1.413-2.458v-6.588c0-1.014-0.539-1.949-1.416-2.459l-23.395-13.582c-0.884-0.511-1.968-0.511-2.851,0
		l-23.54,13.587c-0.884,0.511-1.422,1.445-1.422,2.462v27.173c0,1.022,0.55,1.968,1.434,2.474l23.389,13.331
		c0.862,0.494,1.918,0.5,2.79,0.017l14.148-7.863c0.444-0.25,0.728-0.723,0.728-1.233c0-0.512-0.272-0.989-0.717-1.239
		l-23.684-13.593c-0.444-0.25-0.717-0.722-0.717-1.228v-8.524c0-0.509,0.267-0.978,0.711-1.232l7.369-4.251
		c0.438-0.256,0.978-0.256,1.417,0l7.374,4.251c0.438,0.25,0.711,0.723,0.711,1.228v6.702c0,0.506,0.272,0.978,0.712,1.234
		c0.438,0.25,0.982,0.25,1.422-0.005L416.413,165.073z"/>
	<path fill="#689F63" d="M391.246,163.802c0.166-0.099,0.375-0.099,0.544,0l4.518,2.606c0.169,0.098,0.272,0.278,0.272,0.473v5.218
		c0,0.194-0.104,0.375-0.272,0.472l-4.518,2.606c-0.169,0.099-0.378,0.099-0.544,0l-4.516-2.606
		c-0.172-0.098-0.277-0.278-0.277-0.472v-5.218c0-0.195,0.1-0.375,0.271-0.473L391.246,163.802z"/>
	<g>
		<defs>
			<path id="SVGID_1_" d="M261.315,140.122l-23.412,13.513c-0.877,0.505-1.415,1.439-1.415,2.448v27.045
				c0,1.01,0.538,1.942,1.415,2.448l23.413,13.523c0.875,0.504,1.955,0.504,2.829,0l23.409-13.523
				c0.873-0.506,1.412-1.439,1.412-2.448v-27.045c0-1.009-0.539-1.943-1.417-2.448l-23.406-13.513
				c-0.438-0.252-0.928-0.378-1.417-0.378c-0.489,0-0.978,0.126-1.417,0.378"/>
		</defs>
		<clipPath id="SVGID_2_">
			<use xlink:href="#SVGID_1_"  overflow="visible"/>
		</clipPath>
		<g transform="translate(-78.306 -164.016)" clip-path="url(#SVGID_2_)">
			
				<linearGradient id="SVGID_3_" gradientUnits="userSpaceOnUse" x1="175.6436" y1="546.4767" x2="176.3102" y2="546.4767" gradientTransform="matrix(-50.7531 103.536 103.536 50.7531 -47307.5898 -45621.7461)">
				<stop  offset="0.3" style="stop-color:#3E863D"/>
				<stop  offset="0.5" style="stop-color:#55934F"/>
				<stop  offset="0.8" style="stop-color:#5AAD45"/>
			</linearGradient>
			<path fill="url(#SVGID_3_)" d="M390.93,315.357l-65.97-32.336l-33.826,69.004l65.969,32.338L390.93,315.357z"/>
		</g>
	</g>
	<g>
		<defs>
			<path id="SVGID_4_" d="M237.069,184.845c0.224,0.291,0.504,0.543,0.834,0.731l20.083,11.601l3.345,1.923
				c0.5,0.289,1.07,0.411,1.63,0.369c0.187-0.015,0.374-0.05,0.556-0.102l24.692-45.212c-0.189-0.206-0.41-0.378-0.658-0.522
				l-15.33-8.853l-8.103-4.663c-0.23-0.133-0.48-0.228-0.734-0.294L237.069,184.845z"/>
		</defs>
		<clipPath id="SVGID_5_">
			<use xlink:href="#SVGID_4_"  overflow="visible"/>
		</clipPath>
		<g transform="translate(-78.306 -164.016)" clip-path="url(#SVGID_5_)">
			
				<linearGradient id="SVGID_6_" gradientUnits="userSpaceOnUse" x1="172.9249" y1="543.8243" x2="173.3575" y2="543.8243" gradientTransform="matrix(142.4074 -105.2221 -105.2221 -142.4074 32906.6328 95996.4688)">
				<stop  offset="0.57" style="stop-color:#3E863D"/>
				<stop  offset="0.72" style="stop-color:#619857"/>
				<stop  offset="1" style="stop-color:#76AC64"/>
			</linearGradient>
			<path fill="url(#SVGID_6_)" d="M286.852,324.921l46.582,63.046l61.605-45.515l-46.584-63.044L286.852,324.921z"/>
		</g>
	</g>
	<g>
		<defs>
			<path id="SVGID_7_" d="M262.447,139.76c-0.393,0.039-0.777,0.161-1.131,0.362l-23.345,13.474l25.173,45.852
				c0.35-0.051,0.695-0.167,1.006-0.348l23.412-13.523c0.722-0.419,1.217-1.128,1.367-1.932l-25.662-43.839
				c-0.189-0.037-0.378-0.056-0.573-0.056c-0.078,0-0.155,0.003-0.233,0.011"/>
		</defs>
		<clipPath id="SVGID_8_">
			<use xlink:href="#SVGID_7_"  overflow="visible"/>
		</clipPath>
		<g transform="translate(-78.306 -164.016)" clip-path="url(#SVGID_8_)">
			
				<linearGradient id="SVGID_9_" gradientUnits="userSpaceOnUse" x1="174.3927" y1="543.172" x2="174.7848" y2="543.172" gradientTransform="matrix(129.8891 0 0 -129.8891 -22335.4043 70885.5859)">
				<stop  offset="0.16" style="stop-color:#6BBF47"/>
				<stop  offset="0.38" style="stop-color:#79B461"/>
				<stop  offset="0.47" style="stop-color:#75AC64"/>
				<stop  offset="0.7" style="stop-color:#659E5A"/>
				<stop  offset="0.9" style="stop-color:#3E863D"/>
			</linearGradient>
			<path fill="url(#SVGID_9_)" d="M316.276,303.766v59.698h50.949v-59.698H316.276z"/>
		</g>
	</g>
</g>
</svg>
