<?xml version="1.0" encoding="utf-8"?>
<!-- Generator: Adobe Illustrator 16.0.3, SVG Export Plug-In . SVG Version: 6.00 Build 0)  -->
<!DOCTYPE svg PUBLIC "-//W3C//DTD SVG 1.1//EN" "http://www.w3.org/Graphics/SVG/1.1/DTD/svg11.dtd">
<svg version="1.1" id="Ebene_1" xmlns="http://www.w3.org/2000/svg" xmlns:xlink="http://www.w3.org/1999/xlink" x="0px" y="0px"
	 width="256px" height="256px" viewBox="0 -6 256 256" enable-background="new 0 -6 256 256" xml:space="preserve">
<g>
	<path fill="#764ABC" d="M173.716,166.154c8.746-0.904,15.381-8.444,15.08-17.492c-0.302-9.049-7.842-16.287-16.89-16.287h-0.603
		c-9.35,0.301-16.588,8.143-16.286,17.493c0.301,4.523,2.11,8.443,4.825,11.159c-10.254,20.207-25.938,34.985-49.461,47.351
		c-15.985,8.446-32.572,11.462-49.16,9.351c-13.572-1.811-24.128-7.843-30.763-17.795c-9.651-14.778-10.556-30.764-2.413-46.748
		c5.73-11.462,14.778-19.906,20.508-24.128c-1.207-3.922-3.016-10.557-3.921-15.383c-43.731,31.669-39.207,74.496-25.937,94.703
		c9.953,15.08,30.159,24.431,52.477,24.431c6.032,0,12.064-0.604,18.096-2.111C127.874,223.157,157.128,200.236,173.716,166.154z
		 M226.797,128.756c-22.922-26.843-56.7-41.622-95.304-41.622h-4.826c-2.714-5.429-8.445-9.048-14.778-9.048h-0.604
		C101.937,78.388,94.699,86.229,95,95.579c0.302,9.048,7.841,16.287,16.889,16.287h0.603c6.635-0.302,12.365-4.524,14.778-10.255
		h5.428c22.921,0,44.636,6.636,64.239,19.604c15.08,9.953,25.937,22.923,31.969,38.605c5.127,12.668,4.825,25.033-0.603,35.59
		c-8.444,15.984-22.62,24.731-41.318,24.731c-12.064,0-23.524-3.619-29.557-6.333c-3.317,3.016-9.349,7.841-13.571,10.856
		c12.969,6.032,26.238,9.35,38.905,9.35c28.953,0,50.366-15.984,58.509-31.97C250.019,184.552,249.416,154.392,226.797,128.756z
		 M73.587,171.282c0.301,9.048,7.841,16.286,16.889,16.286h0.603c9.35-0.303,16.587-8.144,16.286-17.493
		c-0.302-9.048-7.842-16.287-16.889-16.287h-0.603c-0.604,0-1.508,0-2.112,0.302c-12.365-20.508-17.492-42.827-15.683-66.956
		c1.207-18.097,7.238-33.78,17.794-46.749c8.746-11.159,25.635-16.588,37.096-16.89c31.968-0.604,45.541,39.208,46.445,55.193
		c3.921,0.905,10.556,3.016,15.08,4.524c-3.619-48.86-33.778-74.195-62.731-74.195c-27.143,0-52.175,19.604-62.128,48.559
		c-13.873,38.605-4.826,75.702,12.063,104.958C74.19,164.646,73.286,167.964,73.587,171.282z"/>
</g>
</svg>
