<?xml version="1.0" encoding="utf-8"?>
<!-- Generator: Adobe Illustrator 16.0.3, SVG Export Plug-In . SVG Version: 6.00 Build 0)  -->
<!DOCTYPE svg PUBLIC "-//W3C//DTD SVG 1.1//EN" "http://www.w3.org/Graphics/SVG/1.1/DTD/svg11.dtd">
<svg version="1.1" id="Ebene_1" xmlns="http://www.w3.org/2000/svg" xmlns:xlink="http://www.w3.org/1999/xlink" x="0px" y="0px"
	 width="256px" height="256px" viewBox="0 -42.5 256 256" enable-background="new 0 -42.5 256 256" xml:space="preserve">
<g>
	<path fill="#E44D26" d="M102.104,139.287L71.082,54.412l85.194-22.789l15.496,89.022l-32.301,18.994L102.104,139.287"/>
	<path fill="#F16529" d="M137.545,132.239l26.097-15.355l-13.246-76.075l-34.818,9.315L137.545,132.239"/>
	<path fill="#EFEFEF" d="M196.793,75.534l3.97,13.658l-30.39,8.586c0,0,0,18.278-14.748,25.545
		c-14.745,7.266-26.201,1.104-26.201,1.104l-1.834-5.285l21.875-5.947l4.841-18.722L140.213,80.61l-20.259,6.127l-1.759-4.809
		c0,0,9.465-20.92,37.434-9.021c0,0,8.813,5.499,10.79,10.349L196.793,75.534L196.793,75.534z M200.763,74.508l4.842-1.396
		L209.5,87.06l-5.068,1.537L200.763,74.508L200.763,74.508z"/>
	<path fill="#BCBCBC" d="M202.468,73.892l3.137-0.78L209.5,87.06l-5.068,1.537l-1.327-4.67l2.022-0.792L202.468,73.892
		L202.468,73.892z M193.441,76.388l3.352-0.854l3.97,13.658l-30.39,8.586c0,0-0.327,15.948-10.903,23.171
		c-10.559,7.215-22.457,6.997-30.05,3.479l-0.847-2.438c0,0,20.665,4.858,30.896-10.668c6.171-10.237,6.062-17.616,6.062-17.616
		l30.494-8.255L193.441,76.388L193.441,76.388z M118.191,81.92l17.837-5.177l4.177,3.857l-20.254,6.126L118.191,81.92L118.191,81.92
		z"/>
	<path fill="#EFEFEF" d="M55.309,91.601l3.581,13.762l30.495-8.168c0,0,9.357,15.697,25.75,14.391
		c16.397-1.307,23.077-12.46,23.077-12.46l-1.13-5.478l-21.834,6.085l-13.742-13.599l5.013-19.132l20.544-5.102l-0.951-5.034
		c0,0-18.834-13.13-36.781,11.4c0,0-4.75,9.231-3.975,14.408L55.309,91.601L55.309,91.601z M51.375,92.752L46.5,94.029l3.791,13.972
		l5.143-1.269L51.375,92.752L51.375,92.752z"/>
	<path fill="#BCBCBC" d="M49.596,93.09L46.5,94.029l3.791,13.972l5.143-1.269l-1.244-4.696l-2.152,0.357L49.596,93.09L49.596,93.09z
		 M58.634,90.619l-3.325,0.981l3.581,13.762l30.495-8.168c0,0,8.447,13.528,21.226,14.324c12.766,0.788,22.873-5.478,27.601-12.394
		l-0.515-2.525c0,0-15.275,14.752-32.015,6.647c-10.538-5.638-14.215-12.042-14.215-12.042l-30.428,8.52L58.634,90.619
		L58.634,90.619z M126.111,56.871l-17.968,4.674l-1.621,5.458l20.543-5.102L126.111,56.871L126.111,56.871z"/>
</g>
</svg>
