<?xml version="1.0" encoding="utf-8"?>
<!-- Generator: Adobe Illustrator 16.0.3, SVG Export Plug-In . SVG Version: 6.00 Build 0)  -->
<!DOCTYPE svg PUBLIC "-//W3C//DTD SVG 1.1//EN" "http://www.w3.org/Graphics/SVG/1.1/DTD/svg11.dtd">
<svg version="1.1" id="Ebene_1" xmlns="http://www.w3.org/2000/svg" xmlns:xlink="http://www.w3.org/1999/xlink" x="0px" y="0px"
	 width="512px" height="512px" viewBox="0 0 512 512" enable-background="new 0 0 512 512" xml:space="preserve">
<g>
	<path id="rect2987" fill="#EFEFEF" d="M64,0h384c35.346,0,64,28.654,64,64v384c0,35.347-28.654,64-64,64H64
		c-35.348,0-64-28.653-64-64V64C0,28.654,28.654,0,64,0z"/>
	<path d="M313.212,153.354l-21.932,63.097l22.508,4.04c21.16-57.839,31.74-91.056,31.74-99.647c0-7.182-2.437-10.772-7.31-10.772
		C330.908,110.07,322.573,124.498,313.212,153.354z M255.694,285.511l6.348,16.929c4.745-5.387,9.299-9.684,13.658-12.89
		l-6.348-1.058l-7.406-1.348L255.694,285.511z M199.522,113.148c0,12.567,10.195,45.976,30.586,100.224
		c2.309-1.283,5.451-1.924,9.426-1.924c1.924,0,6.733,0.32,14.429,0.962l-23.277-67.521c-9.618-28.214-17.505-42.32-23.661-42.32
		c-2.437,0-4.296,1.123-5.579,3.366C200.162,108.178,199.522,110.583,199.522,113.148z M184.323,259.156
		c0,4.616,3.302,12.247,9.907,22.892c6.604,10.646,14.139,20.455,22.604,29.434c8.464,8.977,14.875,13.466,19.236,13.466
		c1.795,0,3.43-0.834,4.905-2.501c1.475-1.667,2.212-3.398,2.212-5.194c0-3.078-2.052-9.618-6.156-19.621
		c-1.667-4.104-3.719-8.721-6.156-13.851c-2.437-5.13-5.481-10.837-9.137-17.121s-7.599-11.479-11.831-15.582
		c-4.231-4.104-8.208-6.156-11.927-6.156c-2.565,0-5.482,1.731-8.753,5.194C185.96,253.577,184.323,256.591,184.323,259.156z
		 M153.93,323.6c0,5.259,1.603,11.928,4.809,20.006c7.566,18.597,19.333,33.151,35.3,43.668
		c15.967,10.518,34.018,15.774,54.152,15.774c29.112,0,53.607-10.901,73.485-32.703c19.492-21.674,29.239-49.054,29.239-82.142
		c0-5.516-0.063-9.812-0.191-12.889c-0.129-3.077-0.866-7.055-2.213-11.928c-1.348-4.873-3.303-8.464-5.867-10.771
		c-7.183-6.284-20.743-11.125-40.687-14.524c-19.941-3.397-37.287-5.098-52.035-5.098c-4.745,0-7.888,0.706-9.427,2.116
		c-1.539,0.641-2.309,2.885-2.309,6.732c0,4.36,1.378,8.208,4.136,11.542c2.757,3.334,6.316,5.899,10.676,7.694
		c4.36,1.796,9.33,3.303,14.908,4.521c5.579,1.219,11.189,1.955,16.833,2.212s11.093,0.514,16.352,0.771
		c5.259,0.256,9.747,0.256,13.466,0h4.425c3.078,0,5.643,1.218,7.695,3.655c1.923,2.437,3.142,5.963,3.653,10.58
		c-3.591,3.591-9.746,7.054-18.467,10.388c-7.823,2.821-13.787,5.771-17.891,8.849c-8.208,5.899-15.165,13.21-20.872,21.932
		c-5.707,8.721-8.562,17.505-8.562,26.354c0,3.977,1.188,9.65,3.56,17.024c2.373,7.374,3.56,12.984,3.56,16.832l-0.577,2.309
		c-0.514,1.539-0.77,2.437-0.77,2.693c-17.57-1.282-26.932-15.134-28.086-41.553c-1.026,0.258-3.655,0.386-7.887,0.386
		c0.256,0.896,0.385,2.244,0.385,4.04c0,6.797-2.597,12.535-7.791,17.217c-5.194,4.681-11.253,7.021-18.179,7.021
		c-10.518,0-21.193-5.002-32.03-15.005s-16.255-20.199-16.255-30.587c0-4.36,2.115-8.656,6.348-12.889
		c6.668,8.208,10.516,13.081,11.542,14.62c9.875,13.338,18.403,20.007,25.585,20.007c1.539,0,3.238-0.545,5.098-1.636
		s2.789-2.404,2.789-3.943c0-4.36-5.61-13.658-16.832-27.894s-18.691-21.354-22.41-21.354c-5.516,0-10.004,2.854-13.467,8.561
		C155.66,311.896,153.93,317.7,153.93,323.6z M132,325.331c0-12.953,2.725-23.405,8.176-31.356
		c5.45-7.95,14.203-13.594,26.258-16.929c-3.591-9.49-5.386-16.159-5.386-20.006c0-7.952,3.911-15.838,11.733-23.662
		c7.823-7.823,15.646-11.734,23.47-11.734c3.719,0,8.208,0.962,13.466,2.886c-20.904-59.25-31.356-95.607-31.356-109.073
		c0-10.259,2.629-18.627,7.888-25.104c5.258-6.476,12.889-9.714,22.892-9.714c16.8,0,37.64,37.255,62.52,111.767
		c0.771,2.18,1.282,3.654,1.539,4.424c0.77-2.052,2.63-7.149,5.578-15.293c2.949-8.145,5.739-15.742,8.368-22.796
		c2.629-7.055,6.092-15.229,10.388-24.527s8.434-17.185,12.408-23.662c3.977-6.476,8.496-12.022,13.563-16.64
		c5.064-4.617,9.972-6.925,14.717-6.925c9.104,0,16.287,3.142,21.545,9.426s7.887,14.106,7.887,23.469
		c0,13.852-10.194,49.118-30.586,105.803c7.822,1.925,14.268,4.874,19.333,8.85s8.816,8.977,11.253,15.004
		c2.438,6.027,4.104,12.022,5.002,17.986s1.348,13.05,1.348,21.257c0,19.236-3.015,37.19-9.041,53.862
		c-6.028,16.673-14.492,31.101-25.394,43.283c-10.9,12.185-24.432,21.802-40.59,28.855c-16.159,7.054-33.985,10.58-53.479,10.58
		c-14.235,0-28.535-2.693-42.898-8.079c-19.109-7.312-35.653-19.59-49.631-36.839C138.99,363.195,132,344.824,132,325.331z"/>
</g>
</svg>
