<?xml version="1.0" ?><svg height="512" id="Layer_1" version="1.1" viewBox="0 0 512 512" width="512" xml:space="preserve" xmlns="http://www.w3.org/2000/svg" xmlns:cc="http://creativecommons.org/ns#" xmlns:dc="http://purl.org/dc/elements/1.1/" xmlns:inkscape="http://www.inkscape.org/namespaces/inkscape" xmlns:rdf="http://www.w3.org/1999/02/22-rdf-syntax-ns#" xmlns:sodipodi="http://sodipodi.sourceforge.net/DTD/sodipodi-0.dtd" xmlns:svg="http://www.w3.org/2000/svg"><defs id="defs12"/><g id="g3759" transform="translate(-0.003935,-0.003935)"><rect height="512" id="rect2984" rx="64" ry="64" style="fill:#ec0005;fill-opacity:1;fill-rule:nonzero;stroke:none" width="512" x="0" y="0"/><path d="m 347.45669,386.75197 c 49.6063,-31.0748 82.62992,-86.70473 82.62992,-150.12992 0,-97.44095 -77.95275,-176.456696 -174.08267,-176.456696 -96.16536,0 -174.08268,79.015746 -174.08268,176.456696 0,97.47637 77.91732,176.45669 174.08268,176.45669 14.13779,0 27.85039,-1.73622 41.03149,-4.96063 16.51181,30.04724 41.70473,51.34252 95.1378,41.17323 l 0,-29.94095 c 0,0 -34.26378,-8.61023 -44.71654,-32.59842 z m -1.20472,-126.77953 c 0,29.44488 -9.38977,56.19685 -24.62599,75.93307 -19.13385,-20.37401 -49.11023,-37.09842 -87.16535,-34.97244 l 0,3.57874 0,31.11024 c 0,0 25.83071,1.02756 43.47638,31.3937 -6.62599,1.94882 -13.5,3.01181 -20.62205,3.01181 -49.11024,0 -88.90157,-49.2874 -88.90157,-110.05512 l 0,-45.46063 c 0,-60.80315 39.79133,-110.09055 88.90157,-110.09055 49.11024,0 88.93701,49.2874 88.93701,110.09055 l 0,45.46063 z" id="path3763" style="fill:#ffffff;fill-opacity:1;fill-rule:nonzero;stroke:none"/></g></svg>