<?xml version="1.0" encoding="utf-8"?>
<!-- Generator: Adobe Illustrator 16.0.3, SVG Export Plug-In . SVG Version: 6.00 Build 0)  -->
<!DOCTYPE svg PUBLIC "-//W3C//DTD SVG 1.1//EN" "http://www.w3.org/Graphics/SVG/1.1/DTD/svg11.dtd">
<svg version="1.1" id="Ebene_1" xmlns="http://www.w3.org/2000/svg" xmlns:xlink="http://www.w3.org/1999/xlink" x="0px" y="0px"
	 width="400px" height="216px" viewBox="-128.5 -90.501 400 216" enable-background="new -128.5 -90.501 400 216"
	 xml:space="preserve">
<g transform="translate(190 0)">
	<g transform="translate(60 60)">
		<path fill="#B95A84" d="M-343-2.243h329v-80.519h-329V-2.243z"/>
		<g transform="translate(35.100000742319466 80.86956507450826)">
			<g transform="translate(-0.004084131121636858 14.927456092834472)">
				<path fill="#FFFFFF" d="M-359.089-122.943l13.384-30.982h6.692l13.383,30.982h-7.355l-2.88-6.687h-12.985l-2.878,6.687H-359.089
					z M-346.236-135.718h7.759l-3.851-8.988L-346.236-135.718z"/>
				<path fill="#FFFFFF" d="M-316.666-122.943v-30.982h9.362l7.967,17.009l8.031-17.009h9.304v30.982h-6.923v-19.503l-8.37,16.935
					h-4.116l-8.309-16.935v19.503H-316.666z"/>
				<path fill="#FFFFFF" d="M-273.023-122.943l13.365-30.982h6.711l13.36,30.982h-7.358l-2.86-6.687h-12.984l-2.882,6.687H-273.023z
					 M-260.174-135.718h7.743l-3.85-8.988L-260.174-135.718z"/>
				<path fill="#FFFFFF" d="M-230.608-122.943v-30.982h6.92v12.718l11.691-12.718h8.58l-12.335,13.689
					c1.054,1.467,3.016,4.221,5.904,8.278c2.859,4.014,4.98,7.046,6.434,9.015h-8.067l-9.115-12.22l-3.09,3.407v8.808
					L-230.608-122.943L-230.608-122.943z"/>
				<path fill="#FFFFFF" d="M-194.189-136.611v-17.312h6.926v17.125c0,2.45,0.584,4.404,1.706,5.86
					c1.178,1.415,2.73,2.161,4.677,2.161c1.942,0,3.493-0.748,4.612-2.161c1.16-1.456,1.734-3.401,1.734-5.86v-17.125h6.877v17.312
					c0,4.487-1.244,7.947-3.728,10.332c-2.453,2.428-5.639,3.644-9.501,3.644c-3.864,0-7.049-1.221-9.547-3.664
					C-192.934-128.699-194.189-132.155-194.189-136.611z"/>
				<path fill="#FFFFFF" d="M-155.063-122.943v-30.982h11.758c4.819,0,8.221,0.814,10.301,2.441
					c2.031,1.628,3.047,4.239,3.047,7.856c0,4.962-1.957,8.167-5.871,9.589l7.813,11.1h-8.481l-6.851-9.895h-4.791v9.89H-155.063z
					 M-148.127-138.802h5.011c2.395,0,4.006-0.399,4.837-1.154c0.867-0.775,1.285-2.001,1.285-3.663c0-1.679-0.431-2.82-1.325-3.444
					c-0.854-0.598-2.425-0.913-4.651-0.913h-5.163v9.175L-148.127-138.802L-148.127-138.802z"/>
				<path fill="#FFFFFF" d="M-117.47-122.943v-30.982h6.944v30.982H-117.47z"/>
				<path fill="#FFFFFF" d="M-101.547-122.943l13.344-30.982h6.713l13.383,30.982h-7.359l-2.877-6.687h-12.964l-2.886,6.687
					H-101.547z M-88.698-135.718h7.739l-3.852-8.988L-88.698-135.718z"/>
			</g>
		</g>
	</g>
</g>
</svg>
