<?xml version="1.0" encoding="utf-8"?>
<!-- Generator: Adobe Illustrator 16.0.3, SVG Export Plug-In . SVG Version: 6.00 Build 0)  -->
<!DOCTYPE svg PUBLIC "-//W3C//DTD SVG 1.1//EN" "http://www.w3.org/Graphics/SVG/1.1/DTD/svg11.dtd">
<svg version="1.1" id="svg3058" xmlns:svg="http://www.w3.org/2000/svg"
	 xmlns="http://www.w3.org/2000/svg" xmlns:xlink="http://www.w3.org/1999/xlink" x="0px" y="0px" width="400px" height="216px"
	 viewBox="0 92 400 216" enable-background="new 0 92 400 216" xml:space="preserve">
<g id="layer1">
	<path id="polygon3036" fill="#FF6600" d="M67.659,230.048v-39.311l-16.865,39.311h-9.355l-16.585-39.311v39.311H7.433v-68.094
		h23.321l16.021,38.447l16.767-38.447h21.534v68.093L67.659,230.048L67.659,230.048z M98.484,230.048v-68.094h14.896
		c1.305,0,2.61,1.305,2.61,2.725v65.369H98.484z M164.322,190.832h22.143c1.747,0,2.734,1.43,2.734,3.109v35.174
		c-6.229,1.393-15.961,2.246-23.196,2.246c-25.385,0-38.772-12.103-38.772-35.453c0.001-20.836,13.388-35.271,35.701-35.271
		c9.829,0,18.447,2.62,23.995,6.363l-6.862,11.719c-4.801-2.15-11.258-3.647-15.828-3.647c-12.83,0-18.83,8.513-18.83,20.836
		c0,13.158,6.948,21.287,19.761,21.287c2.341,0,5.26-0.086,7.592-0.451v-11.995h-8.438L164.322,190.832L164.322,190.832z
		 M228.05,175.074h-8.569v17.073h8.569c5.115,0,9.137-2.725,9.137-9.204C237.187,176.378,233.165,175.074,228.05,175.074z
		 M240.949,230.048l-8.081-18.744c-1.651-3.819-2.806-5.71-6.309-5.71h-7.08v24.454h-17.112v-65.369c0-1.42,1.556-2.725,2.669-2.725
		h24.155c13.129,0,24.386,2.725,24.386,19.674c0,7.591-4.2,15.367-12.083,16.94c3.927,1.334,7.883,6.364,10.021,11.825l7.784,19.654
		L240.949,230.048L240.949,230.048z M297.133,175.074c-9.186,0-15.721,6.555-15.721,20.836c0,14.483,6.535,21.019,15.72,21.019
		c7.88,0,14.329-6.536,14.329-21.019C311.462,181.628,305.012,175.074,297.133,175.074z M297.133,231.361
		c-22.295,0-34.092-15.748-34.092-35.452c0-19.532,11.797-35.271,34.091-35.271c20.885,0,32.699,15.739,32.699,35.271
		C329.832,215.613,318.016,231.361,297.133,231.361z M363.353,231.361c-11.516,0-22.208-4.125-26.978-7.408l7.765-13.764
		c4.328,2.621,12.754,6.651,20.52,6.651c4.396,0,9.952-0.845,9.952-5.729c0-4.586-6.209-5.987-14.35-8.32
		c-9.827-2.813-21.267-6.728-21.267-19.943c0-14.243,12.657-22.208,29.129-22.208c10.872,0,19.299,3.848,23.599,7.965l-9.454,10.759
		c-4.673-2.793-9.453-4.961-14.809-4.961c-6.449,0-10.096,2.447-10.096,6.007c0.001,3.532,4.674,5.336,10.565,7.111
		c10.415,3.216,24.638,6.498,24.638,20.135C392.571,221.708,381.339,231.361,363.353,231.361z"/>
</g>
</svg>
