<?xml version="1.0" encoding="utf-8"?>
<!-- Generator: Adobe Illustrator 16.0.3, SVG Export Plug-In . SVG Version: 6.00 Build 0)  -->
<!DOCTYPE svg PUBLIC "-//W3C//DTD SVG 1.1//EN" "http://www.w3.org/Graphics/SVG/1.1/DTD/svg11.dtd">
<svg version="1.1" id="svg2" xmlns="http://www.w3.org/2000/svg" xmlns:xlink="http://www.w3.org/1999/xlink" x="0px" y="0px"
	 width="400px" height="216px" viewBox="0 92 400 216" enable-background="new 0 92 400 216" xml:space="preserve">
<g id="g4148">
	<g id="g4154" transform="translate(175.0479,177.3706)">
		<path id="path4156" fill="#9EA2A2" d="M-111.907,16.756c-0.538-0.562-0.911-1.958-1.015-2.171
			C-114.092,15.484-112.922,17.154-111.907,16.756 M-110.962,16.487c1.227-0.473,0.71-2.828-0.922-2.489
			C-111.786,14.19-111.043,15.638-110.962,16.487 M-112.355,13.499c1.186-0.241,2.611,0.957,3.984,1.594
			c-1.29,1.877-4.315,2.023-5.527,2.692C-114.172,17.369-115.086,14.034-112.355,13.499 M-122.97,14.682
			c-0.085,0.204-0.465,1.567-0.984,2.124C-122.97,17.194-121.81,15.562-122.97,14.682 M-123.976,14.111
			c-1.594-0.331-2.1,1.966-0.9,2.429C-124.8,15.706-124.071,14.295-123.976,14.111 M-122.035,17.804
			c-1.179-0.65-4.111-0.791-5.371-2.616c1.34-0.615,2.727-1.789,3.888-1.549C-120.874,14.159-121.764,17.393-122.035,17.804
			 M-129.568-2.963c-4.116,7.737,10.094,4.221,8.252,10.807C-118.089,0.145-131.018,4.146-129.568-2.963 M-132.068-10.923
			c-0.757-2.559-4.952-1.421-4.103-0.396C-135.77-10.841-134.134-12.27-132.068-10.923 M-133.88-1.941
			c0.18-2.436,1.736-4.585,1.714-7.065c-0.026-3.646-4.211-0.199-4.848-1.734c-1.675-4.07,10.691-6.12,10.549,1.085
			c-0.083,3.793-1.134,7.987,1.835,8.421l2.249-9.184l2.363,13.181c-2.154-2.713-6.415-1.593-7.371-5.936
			c-0.701-3.152,3.251-11.071-5.459-10.489c10.082,3.068-5.613,11.615,3.709,17.074c2.496,1.468,3.373,4.068,2.253,5.191
			c-0.148-3.7-3.825-4.163-5.175-5.732c-1.204-1.409-1.704-2.668-1.818-3.855l-3.47-1.655L-133.88-1.941z M-122.067,11.424
			c-1.394-0.009-3.003,1.546-3.298,0.539c-0.221-0.783,1.21-2.079,3.081-2.213c-1.582-0.443-4.193,1.022-4.665,2.62
			c-0.501,0.048-1.372-0.601-1.372-0.601c0.432,3.668,3.851,0.445,5.153,0.445c1.167,0,4.831,2.642,4.901-0.641
			C-119.552,13.071-120.454,11.424-122.067,11.424 M-115.066,13.146c1.854,0,2.129-0.866,3.538-0.866
			c1.402,0,1.915,0.921,3.044,0.921c1.118,0,1.801-0.81,1.284-1.518c-0.723,1.193-2.022-0.424-2.977-0.424
			c-1.461,0-2.085,0.602-3.036,1.074c-1.065,0.543-2.087,0.026-1.688-0.601c-0.825-0.008-1.348-1.016,0.055-2.206
			C-117.321,9.801-116.928,13.146-115.066,13.146 M-113.094,26.271c-0.073,0.183-0.614,0.401-1.716,0.819
			c-0.151,0.247-0.489,0.657-0.829,0.856C-114.326,28.313-112.862,26.983-113.094,26.271 M-114.382,30.931
			c2.228,3.946-2.209,5.281-0.846,11.381c0.932,4.131,3.017,3.752,3.202,6.811c0.201,3.052-1.654,5.154-0.302,7.184
			c1.334,2.013,3.982,2.908,3.129,5.481c1.377-2.531-1.245-4.53-1.932-7.307c-0.517-2.134,2.707-4.034,1.788-6.813
			c-0.379-1.137-0.827-1.853-1.581-3.369l-1.582-3.188C-114.416,37.074-110.592,34.17-114.382,30.931 M-122.217,52.507
			c2.826-3.537,1.013-1.802,2.03-6.565c0.629-2.943,1.523-2.844,2.475-5.249c0.824-2.096,0.424-6.756-2.83-8.983
			c1.752,3.025,1.644,5.15,0.914,7.662c-0.726,2.499-1.756,2.762-2.86,5.602c-0.825,2.143-0.396,4.256-0.396,4.256L-122.217,52.507z
			 M-124.205,54.014c0-3.099-0.949-2.892-0.949-6.651c0-4.098,3.5-5.201,3.794-8.427c0.404-4.35-3.913-4.471-2.527-10.56
			c-1.834,8.053,0.767,7.414,0.767,10.293c0,2.878-4.582,3.234-4.582,8.287c0,2.977,1.829,3.8,1.829,6.967
			c0,3.177-2.057,4.04-2.057,4.04C-127.157,58.048-124.205,57.471-124.205,54.014 M-123.242,25.069
			c0.067,0.53,2.395,1.418,2.395,1.418s-0.573,0.44-1.772,0.011c0.619,1.064,2.151,1.049,2.151,1.049s-0.115,0.629-1.792,0.182
			c0.406,1.191,2.188,1.481,2.755,1.313c0.607-0.185,1.311-2.088,1.039-2.674C-118.467,26.368-120.918,25.211-123.242,25.069
			 M-122.177,23.321c0.065,1.365,2.049,1.736,2.863,1.624c-2.494-0.568-2.349-1.954-1.493-2.236
			C-120.768,22.147-122.222,22.247-122.177,23.321 M-120.872,29.853c-0.283,0-0.343,0.097-0.343,0.15
			c-0.017,0.102,0.131,0.229,0.34,0.285c0.016,0.002,1.976,0.465,3.141,0.404c1.153,0.061,3.118-0.402,3.137-0.404
			c0.21-0.056,0.351-0.183,0.342-0.285c-0.011-0.055-0.07-0.15-0.355-0.15c-0.051,0-2.066,0.057-3.125,0.057
			C-118.798,29.909-120.808,29.853-120.872,29.853 M-131.47,33.612c-0.13-3.691,2.196-8.453,3.191-8.985
			c-7.284,3.896-4.12,10.399-6.171,14.143c-3.163,5.747-8.735,2.601-10.588,6.081c-1.155,2.158,1.937,2.266,1.937,6.91
			c0-1.127-0.399-3.837,1.717-4.979l-0.969,0.09c-0.304-1.094-1.405-0.748-1.405-0.748c1.115-1.881,5.457-0.581,11.581-5.793
			c5.419-4.606,5.06-11.924,6.595-14.703l-1.462,1.466c-2.162,2.319-2.248,6.1-4.981,10.485
			C-131.503,36.737-131.398,35.59-131.47,33.612 M-144.48,49.713c-0.325,2.026-1.225,1.556-1.382,1.471
			c-0.157-0.087-0.222-0.309-0.101-0.462c0.141-0.17,0.161-0.4-0.035-0.563c-0.197-0.165-1.656,0.264-1.385,1.7
			c0.125,0.708,0.837,1.431,1.947,1.293C-144.343,53.015-143.284,52.034-144.48,49.713 M-133.269,26.836
			c-1.24,1.968-3.329,3.801-5.949,3.202c-2.618-0.604-6.642-1.46-7.825,2.466C-144,29.129-138.077,37.167-133.269,26.836
			 M-151.373,34.296c1.474,1.114,3.45-0.705,2.516-2.531c-3.508,1.933-4.674-2.24-6.933,0.498c0.852-0.234,1.711,0.258,3.201,1.374
			L-151.373,34.296z M-137.301,26.836c2.551-0.151,4.528-0.923,4.654-2.825c-0.616,0.706-2.112,1.667-4.744,1.828
			c-2.611,0.162-6.91-3.049-8.556,1.682c3.71-2.059,7.162,2.519,9.652,0.319 M-137.679,20.216c-3.623,0.678-8.867-4.042-9.848-5.183
			c-0.59-0.688-1.148-1.377-2.282-1.544c-0.069-0.015-0.052,0.08-0.039,0.197c0.012,0.161,0.039,0.399-0.061,0.446
			c-0.063,0.037-0.226,0.006-0.63-0.341c-0.405-0.357-1.035-0.523-1.753-0.465c-0.625,0.047-1.264,0.267-1.68,0.578
			c-0.422,0.312-0.569,0.66-0.422,0.98c0.216,0.5,0.922,0.118,1.727,0.062c0.65-0.037,1.391,0.271,2.047,0.48
			c0.525,0.161,0.891,0.742,1.424,1.32C-146.528,19.638-141.276,21.72-137.679,20.216 M-156.082,18.054c0,0,3.222-3.074,5.981-0.325
			C-152.36,15.482-155.13,14.923-156.082,18.054 M-141.666,2.958c-5.708-0.974-4.307-4.215-3.28-5.994
			C-148.369-3.304-148.545,4.477-141.666,2.958 M-92.595,21.531c1.317,0.095,5.411-4.652,4.001-5.213
			C-89.997,15.745-89.897,20.494-92.595,21.531 M-113.694,25.169c-0.398,0.287-1.362,0.564-2.114,1.065
			c-0.08,0.133-0.206,0.588-0.37,0.699C-115.41,27.092-113.756,25.987-113.694,25.169 M-130.552,11.607
			c-6.442,1.061-2.739-6.691-7.704-7.024c2.726,1.3,1.587,2.999,2.004,5.695C-135.747,13.527-131.692,13.939-130.552,11.607
			 M-107.542,18.363c0.162,0.952,1.844-1.03,5.068,0.347C-103.575,17.108-107.784,16.953-107.542,18.363 M-97.969,7.158
			c1.559-0.402,2.523,0.965,3.738,0.603c0.679-0.195,0.695-0.964,0.155-1.165c0,0,2.059-2.121,1.372-3.308
			C-94.397,6.722-97.642,6.597-97.969,7.158 M-103.242,0.431c1.738-2.539,3.333-2.107,4.162-4.808
			c-1.168,2.154-4.155,2.603-5.352,4.375c-2.088,3.096,0.7,7.583-3.685,8.881C-102.59,9.018-105.239,2.637-103.242,0.431
			 M-108.271,3.177c-0.753,2.031-2.85,2.601-3.865,4.375c0.569,0.016,3.535-1.134,4.66-3.023c1.08-1.829,0.084-6.708,3.563-8.014
			c3.63-1.365,7.433-3.375,3.139-7.749c6.585,1.67,2.883,8.672,2.102,9.7c-0.741,0.952-3.166,2.866-3.166,5.949
			c0,2.275-2.055,4.877-3.655,5.193c1.691,0.678,4.21-3.177,4.21-3.177l8.216-10.579l-4.726,2.431c0,0,1.296-1.113,1.296-4.81
			c0-5.221-5.631-6.158-5.571-4.536c0.04,1.075,1.912,1.837,1.967,3.616c0.058,1.778-2.442,2.783-4.394,3.347l-0.868-2.919v3.284
			C-108.552-2.092-107.476,1.036-108.271,3.177 M-106.008,16.03c0.334,0.728,1.698-0.892,3.75-0.268
			C-103.249,15.086-106.186,15.093-106.008,16.03 M-115.17-6.709c1.994,6.433-2.633,6.423-2.62,9.596
			C-118.603-0.832-114.126-3.254-115.17-6.709 M-115.135,6.516c-3.245,1.474-2.571-2.372-1.679-3.367c0,0,1.547,2.163,3.718,3.061
			c-2.896-4.782,0.371-4.661-0.167-10.942c-0.271-3.174-1.965-4.224-1.919-7.136c0.061-3.506,5.238-4.428,5.293-3.074
			c0.035,0.965-3.769,1.069-3.829,4.692c-0.05,3.392,3.753,4.212,3.663,7.508c-0.06,2.157-3.945,4.148-1.522,8.205l5.515-15.508
			l-4.222,4.76c-1.354-1.679-2.422-1.838-2.422-4.854c0-3.027,3.38-3.459,3.38-4.863c0-1.132-1.692-1.294-2.925-1.353
			c-1.913-0.083-5.291,1.562-5.291,5.074c0,3.515,2.378,5.293,0.016,8.584l-2.046-3.073l1.515,3.933c0,0-1.382,1.611-1.382,4.474
			C-119.436,8.259-114.81,8.776-115.135,6.516 M-85.667,46.402l-0.81-0.828c1.122,0.222,2.482-0.668,3.295-1.149
			c-1.518,0.896-3.49,0.355-4.849-0.729l0.724,1.16c-3.61-0.959-3.213-6.78-5.356-8.652c-1.84-1.614-3.917-0.738-6.708-2.879
			c-2.758-2.113-3.896-7.7-9.004-11.148c6.946-1.964,9.227,10.587,15.877,10.587c3.315,0,5.07-2.8,8.06-3.268
			c2.097-0.328,4.386-0.142,4.744,1.742c0.372,1.983-0.368,3.545-0.368,3.545s1.012-1.076,1.012-3.002
			c0-3.788-3.795-3.743-5.085-3.64c-2.938,0.239-3.652,2.128-7.317,1.287c-4.667-1.078-5.594-9.185-11.026-9.691
			c2.834-2.36,5.556,1.911,8.119,1.875c1.862-0.033,2.489-1.537,3.712-4.541c1.411-3.471,3.379-0.638,4.947,0.823
			c1.585,1.45,3.903,0.896,5.256-0.281c-0.363,1.119-1.612,1.095-1.125,1.833c0.215,0.329,0.542,0.175,0.892-0.138
			c1.779-1.644,2.202-5.961,0.289-6.995c1.46,6.861-4.597,5.252-4.429,4.332c1.123,0.377,3.032-0.756,2.247-0.756
			c-5.275,0-4.468-2.549-7.348-2.282c0,0-2.399-0.108-3.837,3.747c-0.921,2.468-3.397-0.957-6.323,0
			c1.961-2.597,3.434-0.421,5.044-1.502c1.61-1.094,3.476-4.465,7.296-2.776l2.038-1.786l-1.358,2.224
			c3.969,2.609,6.272,2.365,5.884-2.546c5.134,2.992,2.303,9.877-1.584,9.83c-2.296-0.02-3.079-1.183-4.4-1.698
			c-0.934-0.35-1.682,0.366-2.557,1.286l3.686,1.446l-4.468-0.646c-1.356,1.334-3.375,2.51-6.222,1.238l0.558,1.046h15.704
			l-10.747,4.787c2.872,0.594,6.41-2.93,10.464-0.492c3.909,2.346,2.144,7.682,0.512,7.672c-1.461-0.017,1.333-4.798-2.66-4.698
			c-1.466,0.035-2.639,1.236-4.064,2.364l1.313,3.253l-2.157-2.632c-1.157,0.83-2.398,1.458-3.803,1.273l7.429,4.383h-5.063
			c-0.059,1.239,0.056,2.108,0.559,3.181l0.51-0.212c0.393,0.815,2.677,2.183,5.886,1.633c-1.193,4.614-7.878,3.315-9.15,2.022
			l0.069,1.662c-2.925-7.206-5.173-7.636-9.527-7.636l10.128,10.226l-2.418-0.51c0.73,2.87-2.709,7.874-5.17,8.156
			c-0.961,0.109,1.738-1.893,1.738-4.749c0-2.872-3.2-3.742-4.558-4.863c-2.481-2.057-3.485-6.246-4.446-7.864
			c1.745,0.909,3.812,4.299,5.326,6.028c1.524,1.724,4.747,2.993,4.747,5.694c0,2.693-1.008,3.642-1.126,3.97
			c1.011,0,4.171-5.527,1.182-8.171c-1.479-1.319-2.423-2.149-3.942-3.407c-2.001-1.663-3.888-3.865-5.204-5.808
			c-2.803-4.113-7.276-7.055-5.174-10.388c-3.246,5.146,2.684,9.016,3.361,13.05c0.679,4.032,2.854,8.351,5.176,8.928
			c-0.406,0.111-0.791,0.152-1.152,0.152l-0.657-0.059c-3.764-0.723-6.912-13.065-6.912-11.302c0,3.239,5.649,17.977,5.649,17.977
			l-5.13-3.263c-0.831,3.375,2.875,3.535,2.52,6.597c-0.416,3.467-4.44,3.147-4.363,2.355c0.048-0.5,1.59,0.022,1.59-0.797
			c0-0.798-2.49-1.291-3.54-2.516c-0.646-0.756-1.206-1.368-1.43-4.248l-1.569,2.068c0,0,1.9-4.947,2.174-6.243
			c0.26-1.274-2.712-1.426-3.583-3.961l-0.585,12.602l-3.795-5.143c-0.724,5.647-8.698,5.271-9.21,4.683
			c5.794-4.289,2.992-6.216,1.55-9.866l-3.062,1.827l2.665-3.015c-0.176-0.671-0.231-1.534-0.168-2.339
			c0.328-4.462,6.828-4.059,2.926-8.471l-10.504,16.849l1.329-9.069c-6.229,2.229-4.07,2.551-5.852,6.62
			c-1.456,3.32-4.422,2.421-5.313,1.006c-1.317-2.048,0.289-3.596,2.011-3.517c1.037-0.855-1.954-2.19-0.757-4.888
			c1.745-3.929,6.663-2.224,9.159-5.492l-6.146,0.648l6.865-1.903c0.487-1.123,0.776-2.647,0.79-4.718l-13.06,7.194l3.977-6.547
			c-7.292,6.022-9.052-1.529-12.527-0.933c0.897-4.034,4.278-1.731,5.771-1.731c1.5,0,3.68-2.665,4.438-3.247l-7.809-4.166h19.465
			c1.463,0,2.284-0.501,1.574-1.334c-0.923-1.108-4.521,0.205-8.589,0.507c-2.478,0.172-3.97-0.778-5.197-1.906l-3.426,1.039
			l2.902-1.539c-1.998-1.982-3.524-4.013-8.233-1.162c-1.461-3.782,2.058-7.014,5.218-7.095c4.494-0.116,5.368,5.15,8.849,3.312
			l-5.959-6.918l9.673,4.755l-1.238-3.664l-4.166-1.091l4.056,0.332c-1.128-3.778-5.375-3.107-7.115-4.949
			c-3.776-4.008,0.309-9.128,3.397-7.695c-2.13,4.545,1.805,6.483,5.065,5.838l-1.578-5.291l12.493,12.638
			c-2.863,2.162-6.048,0.25-7.624-4.433c-1.512-4.482-4.593,0.572-9.325-1.172c2.502,0.924,5.762-0.411,6.434,4.99
			c0.441,3.527,2.195,6.754,6.027,5.877c-1.489,2.225-5.06-0.537-7.321,2.676c3.938-0.437,5.369,2.847,8.097,4.721
			c-3.372-2.327-0.935-4.738-5.094-5.283c1.51,0.197,2.679,0.342,4.137-0.139c1.51-0.493,2.255-1.517,2.147-3.005
			c1.567,0.625,1.71,2.111,0.984,3.074c-0.73,0.965-2.184,1.503-2.224,2.333c0,0,0.043-0.15,1.048-0.637
			c-0.755,1.008-0.264,2.385,0.566,3.283c-0.043-0.6-0.042-1.536,0.31-1.71c0.633,1.458,2.055,2.228,2.974,2.009
			c-1.671-1.767-0.52-3.274-0.52-3.274c-0.727-0.019-1.468,1.026-1.468,1.026s-0.501-1.667,1.258-2.37
			c-0.14-0.248-0.021-0.54-0.021-0.54c1.431,1.453,3.976,1.379,4.689,1.856c0,0-3.721-0.53-3.273,1.508
			c0.417,1.914,6.215,0.638,5.483-5.218c0,0,1.005-0.104,1.373,0.262c0.376,0.352-0.074,1.431-0.074,1.431l0.74,0.338
			c0,0-0.785,2.928-0.604,3.494c0.107,0.322,1.428,0.348,1.636,0.356c0.29,0.021,0.11,0.302-0.016,0.302h-2.086
			c-0.307,0.022-1.226,1.114-0.354,1.308c0,0,1.077,0.273,2.17,0.273c1.095,0,2.168-0.273,2.168-0.273s-0.178,0.871-2.193,0.871
			c-2.005,0-2.8-0.344-2.8-0.344c-0.467,1.254,2.186,2.518,2.452,2.601c0.276,0.086,0.704,0.059,0.794-0.001
			c0.089-0.067,1.929-1.524,1.929-1.524l-0.556,0.892c2.467-0.572,2.1-1.813,1.25-2.093c-0.034-0.561,1.415-0.461,1.371,0.612
			c-0.06,1.365-3.559,2.125-3.993,3.047c-0.281,0.586,0.432,2.489,1.033,2.674c0.574,0.169,1.936,0.149,2.624-0.225
			c0.207-0.111,2.071-3.6,2.071-4.459c0-0.857-1.918-5.076-1.918-5.076c0.366-1.088,2.004-0.805,3.498-1.765
			c-2.434,2.525-0.782,2.848,1.005,2.929c-1.354,1.139-2.295,1.883-1.759,3.643c7.871,1.725,6.307,10.833,12.003,12.771
			c-4.528,0.682-8.189-5.048-8.61-7.675c-0.169,2.8,0.854,5.288,3.002,7.543c1.867,1.948,5.108,1.646,7.739,1.653
			c4.668,0.044,3.087,6.048,6.991,7.404C-89.616,45.786-88.216,46.402-85.667,46.402 M-90.916,7.238
			c0.729,4.645-8.992,2.904-10.147,6.667C-99.197,7.834-91.881,11.701-90.916,7.238 M-99.7,15.853c0.99-2.876,5.45-2.806,7.357-4.07
			c1.335-0.881,2.631-1.782,2.691-5.999c0.052-3.611,1.746-4.564,2.757-4.887c0-1.031-1.558-0.338-2.853,0.725
			c1.864-4.631,5.821-0.749,5.821-0.749c-2.342-4.055-5.647-2.174-6.853-0.174c-1.2,2.019-0.308,6.575-2.784,7.703
			c-2.464,1.135-3.769-0.943-5.498-0.447c-2.529,0.725-2.593,4.067-5.127,2.983c1.94-1.24,1.854-2.409,3.15-3.821
			c2.701-2.953,7.13,0.287,8.109-8.067l0.444,1.584c4.671-6.279,10.058-0.778,9.266,0.937c-6.471-1.186-5.115,3.947-5.736,7.402
			h4.723L-99.7,15.853z"/>
	</g>
	<g id="g4158" transform="translate(772.6582,238.0312)">
		<path id="path4160" fill="#D62130" d="M-431.958-72.079c3.448,0,5.914,2.464,5.914,5.832c0,3.369-2.466,5.832-5.914,5.832
			c-3.45,0-5.913-2.462-5.913-5.832C-437.872-69.615-435.408-72.079-431.958-72.079 M-437.46-54.664h10.922v37.782h-10.922V-54.664z
			 M-484.543-72.079c3.451,0,5.915,2.464,5.915,5.832c0,3.369-2.464,5.832-5.915,5.832c-3.449,0-5.912-2.462-5.912-5.832
			C-490.455-69.615-487.992-72.079-484.543-72.079 M-490.044-54.664h10.925v37.782h-10.925V-54.664z M-534.76-18.379
			c7.558,0,8.873-10.266,8.873-18.972c0-9.694-2.876-16.428-8.296-16.428c-3.532,0-6.819,2.795-7.394,8.212v19.878
			C-541.577-21.993-538.456-18.379-534.76-18.379 M-532.624-16.078c-4.354,0-7.394-1.971-8.953-4.517v3.698h-10.925v-59.959h10.925
			v25.628c1.646-2.878,5.339-4.685,10.102-4.685c10.104,0,16.922,6.98,16.922,18.396C-514.553-24.455-521.782-16.078-532.624-16.078
			 M-508.802-16.897h10.923v-59.959h-10.923V-16.897z M-571.155-16.899h10.924v-37.779h-10.924v27.759
			c0,4.106-4.023,7.721-8.049,7.721c-4.189,0-6.49-2.874-6.49-8.706c0-6.485,4.687-26.772,4.687-26.772h-10.923
			c0,0-4.602,20.287-4.602,26.445c0,7.39,5.257,12.154,13.062,12.154c6.077,0,10.347-2.789,12.316-6.159V-16.899L-571.155-16.899z
			 M-623.881-16.062c13.552,0,22.833-9.692,22.833-23.654c0-16.511-13.716-28.172-28.831-28.172
			c-16.425,0-28.338,11.577-28.338,27.759c0,5.996,1.563,11.502,4.437,16.266l1.641-0.825c-1.971-3.614-3.285-8.788-3.285-13.552
			c0-13.717,9.857-21.437,22.26-21.437c12.236,0,21.436,8.542,21.436,21.273c0,11.748-6.486,20.207-16.917,20.207v-28.894
			l-10.924-0.009V0.605h10.924v-16.913C-627.166-16.144-625.689-16.062-623.881-16.062 M-453.783-55.899
			c-12.318,0-19.136,8.708-19.136,19.878c0,12.318,6.979,19.958,19.218,19.958c7.558,0,10.925-3.532,10.925-3.532l-1.315-1.233
			c0,0-2.958,2.3-6.899,2.3c-7.64,0-10.186-7.962-10.186-17.575c0-11.086,2.629-17.497,9.445-17.497c3.862,0,6.41,1.889,6.41,1.889
			l1.315-1.394C-444.005-53.105-447.213-55.899-453.783-55.899 M-404.669-69.698c6.735,0,10.353,3.123,10.353,3.123l-1.482,1.232
			c0,0-2.788-2.382-7.966-2.382c-3.776,0-6.405,2.627-6.405,6.323c0,4.683,4.515,8.953,9.855,14.456
			c4.685,4.847,9.694,10.349,9.694,17.002c0,8.623-7.721,13.882-17.495,13.882c-4.718,0-8.072-1.166-11.061-3.647l1.314-1.56
			c2.134,1.889,5.394,3.233,9.336,3.233c4.926,0,8.626-2.543,8.626-6.817c0-4.516-4.932-9.771-9.696-14.701
			c-5.418-5.667-10.678-11.417-10.678-17.658C-420.274-64.849-413.949-69.698-404.669-69.698"/>
	</g>
	<g id="g4162" transform="translate(682.8955,82.8906)">
		<path id="path4164" fill="#D62130" d="M-383.885,155.118c1.81,0,2.996-0.969,2.996-2.404v-0.031c0-1.561-1.171-2.371-2.935-2.371
			h-2.762v4.807H-383.885z M-387.819,149.172h4.09c2.466,0,4.088,1.309,4.088,3.464v0.033c0,2.355-1.967,3.571-4.292,3.571h-2.652
			v3.854h-1.233V149.172z"/>
	</g>
	<path id="path4166" fill="#D62130" d="M305.43,232.063h1.233v10.924h-1.233V232.063z"/>
	<g id="g4168" transform="translate(724.7773,95.6914)">
		<path id="path4170" fill="#D62130" d="M-406.314,136.372l-4.027,5.353l4.183,5.57h-1.467l-3.495-4.712l-3.497,4.712h-1.419
			l4.184-5.57l-4.026-5.353h1.45l3.34,4.493l3.34-4.493H-406.314z"/>
	</g>
	<g id="g4172" transform="translate(729.5254,95.6914)">
		<path id="path4174" fill="#D62130" d="M-408.857,136.372h7.896v1.123h-6.665v3.729h5.962v1.124h-5.962v3.823h6.744v1.123h-7.975
			V136.372z"/>
	</g>
	<g id="g4176" transform="translate(751.5264,95.6914)">
		<path id="path4178" fill="#D62130" d="M-420.64,136.372h1.231v9.783h6.149v1.14h-7.381V136.372z"/>
	</g>
	<g id="g4180" transform="translate(780.3115,82.8906)">
		<path id="path4182" fill="#D62130" d="M-436.057,155.118c1.811,0,2.996-0.969,2.996-2.404v-0.031c0-1.561-1.17-2.371-2.934-2.371
			h-2.762v4.807H-436.057z M-439.991,149.172h4.089c2.467,0,4.089,1.309,4.089,3.464v0.033c0,2.355-1.966,3.571-4.291,3.571h-2.653
			v3.854h-1.234L-439.991,149.172L-439.991,149.172z"/>
	</g>
	<g id="g4184" transform="translate(807.0771,80.8066)">
		<path id="path4186" fill="#D62130" d="M-450.391,158.169l-2.482-5.557l-2.495,5.557H-450.391z M-453.434,151.178h1.154
			l4.978,11.001h-1.327l-1.279-2.886h-5.946l-1.295,2.886h-1.263L-453.434,151.178z"/>
	</g>
	<g id="g4188" transform="translate(827.9229,83.6963)">
		<path id="path4190" fill="#D62130" d="M-461.555,153.938c1.64,0,2.81-0.843,2.81-2.249v-0.028c0-1.344-1.031-2.153-2.794-2.153
			h-3.372v4.432L-461.555,153.938L-461.555,153.938z M-466.143,148.367h4.697c1.343,0,2.419,0.405,3.105,1.092
			c0.53,0.529,0.843,1.296,0.843,2.152v0.031c0,1.809-1.248,2.872-2.965,3.184l3.354,4.464h-1.514l-3.166-4.243h-3.123v4.243h-1.231
			L-466.143,148.367L-466.143,148.367z"/>
	</g>
	<g id="g4192" transform="translate(842.2695,95.6914)">
		<path id="path4194" fill="#D62130" d="M-469.239,136.372h1.233v6.523l6.272-6.523h1.593l-4.682,4.773l4.884,6.149h-1.544
			l-4.198-5.288l-2.325,2.355v2.933h-1.233V136.372L-469.239,136.372z"/>
	</g>
</g>
</svg>
