<?xml version="1.0" encoding="utf-8"?>
<!-- Generator: Adobe Illustrator 16.0.3, SVG Export Plug-In . SVG Version: 6.00 Build 0)  -->
<!DOCTYPE svg PUBLIC "-//W3C//DTD SVG 1.1//EN" "http://www.w3.org/Graphics/SVG/1.1/DTD/svg11.dtd">
<svg version="1.1" id="Ebene_1" xmlns="http://www.w3.org/2000/svg" xmlns:xlink="http://www.w3.org/1999/xlink" x="0px" y="0px"
	 width="400px" height="216px" viewBox="0 92 400 216" enable-background="new 0 92 400 216" xml:space="preserve">
<g>
	<path fill="#010202" d="M136.106,228.109h-33.7c-1.131,0-1.972-0.875-1.972-2.051v-4.213c-0.035-1.031,0.29-1.482,0.94-2.304
		l26.819-31.905h-26.269c-1.139,0-1.98-0.877-1.98-2.043v-2.983c0-1.131,0.843-2.036,1.98-2.036h34.018
		c1.133,0,1.973,0.87,1.973,2.036v4.313c0,0.777-0.254,1.42-0.84,2.135l-26.856,32.009h25.915c1.139,0,1.979,0.877,1.979,2.035v3
		C138.079,227.234,137.237,228.109,136.106,228.109z M202.489,228.975L202.489,228.975c2.433-0.029,4.214-0.553,4.893-1.315
		c0.227-0.312,0.354-0.623,0.326-0.947c-0.036-0.269-0.036-0.269-0.68-3.437l-0.035-0.058c-0.127-0.848-0.715-1.216-1.202-1.216
		c-0.027,0-0.092,0-0.063,0c0,0-0.615-0.027-1.193-0.027l0,0c-1.719-0.057-3.146-0.312-3.175-2.884v-54.004
		c0-0.905-0.522-1.817-1.555-1.845h-0.298l-4.693,1.23c-0.813,0.099-1.619,0.679-1.591,1.746v53.015
		C193.256,225.509,196.529,228.975,202.489,228.975L202.489,228.975L202.489,228.975z M297.603,228.109h-4.2
		c-1.146,0-1.979-0.875-1.979-2.051v-32.461c-0.07-5.507-1.685-7.034-7.451-7.097c-6.504,0-13.121,1.689-15.326,2.304v37.299
		c0,1.157-0.776,2.035-1.867,2.035h-4.283c-1.146,0-1.98-0.878-1.98-2.035v-36.458c-0.069-3.372,0.271-5.705,4.937-7.261
		c4.469-1.583,13.051-2.912,18.721-2.912c10.787,0,15.411,4.016,15.411,13.348v33.284
		C299.554,227.234,298.704,228.109,297.603,228.109L297.603,228.109z M339.765,187.83c-1.556-0.417-5.939-1.428-10.859-1.428
		c-9.034,0.099-12.823,2.594-12.923,18.012c0.1,16.91,5.021,17.816,13.021,17.929v0.341V222.3c4.99,0,9.261-1.06,10.787-1.483
		V187.83H339.765L339.765,187.83z M341.996,227.488l-0.479,0.128c-2.658,0.679-6.32,1.653-12.739,1.653h-0.025
		c-17.66-0.027-21.168-9.162-21.168-24.941c0.043-18.083,5.613-24.827,20.644-24.855c5.316,0,8.936,0.714,11.565,1.357
		l-0.027-14.577c-0.029-0.65,0.254-1.492,1.752-1.753l4.694-1.231h0.255c1.074,0.036,1.471,1.005,1.471,1.853v54.76
		C347.992,223.305,347.597,226.259,341.996,227.488L341.996,227.488z M376.241,222.2c-11.564-0.056-12.145-6.15-12.243-17.814
		c0.1-11.728,0.649-17.851,12.243-17.915c11.565,0.063,12.188,6.187,12.244,17.916C388.402,216.05,387.808,222.173,376.241,222.2
		L376.241,222.2z M376.241,179.437c-19.088,0.036-20.7,12.895-20.728,24.949c0,12.017,1.611,24.827,20.728,24.856
		c19.088-0.029,20.698-12.811,20.729-24.856C396.94,191.781,395.329,179.473,376.241,179.437L376.241,179.437L376.241,179.437z
		 M243.902,204.641c-1.924,0.026-11.185,0.17-14.875,0.976l-0.296,0.069c-4.144,0.935-7.424,1.711-7.479,8.004
		c0,7.932,5.924,8.652,11.989,8.682v0.354v-0.354c3.787,0,7.381-0.553,10.66-1.654V204.641L243.902,204.641L243.902,204.641z
		 M252.103,193.082v25.203c0.085,6.263-1.499,8.271-7.663,9.713c-2.688,0.595-6.83,1.245-11.311,1.273
		c-6.562-0.028-20.276-0.028-20.305-15.201c-0.029-11.918,6.928-14.025,15.384-15.313c5.542-0.919,11.185-1.045,14.024-1.045
		c0.792,0,1.272,0,1.556,0V193.4c-0.027-2.849-0.027-4.566-2.614-5.57c-1.598-0.679-3.987-1.004-7.509-1.004
		c-5.839,0-11.084,1.329-14.563,2.234l-1.329,0.326c-0.111,0.034-0.283,0.063-0.479,0.098c-0.622,0-1.302-0.389-1.528-1.201
		l-0.027-0.063l-0.776-4.05v-0.227c0-0.94,0.691-1.521,1.329-1.718c2.785-1.068,10.166-2.75,18.14-2.75
		c5.797,0,10.011,0.777,12.839,2.361C252.131,184.429,252.103,189.222,252.103,193.082z M175.372,220.744
		c-3.274,1.104-6.865,1.654-10.662,1.654v0.367v-0.367c-6.06-0.058-11.982-0.735-11.982-8.683c0.027-6.319,3.301-7.069,7.48-8.003
		l0.296-0.056c3.688-0.82,12.958-0.991,14.868-0.991V220.744L175.372,220.744L175.372,220.744z M178.743,181.834
		c-2.821-1.583-7.034-2.361-12.831-2.361c-7.968,0-15.327,1.682-18.146,2.75c-0.616,0.197-1.295,0.777-1.33,1.718v0.198l0.777,4.051
		l0.036,0.092c0.262,0.813,0.903,1.201,1.519,1.201c0.199,0,0.362-0.034,0.488-0.098l1.329-0.326
		c3.472-0.869,8.718-2.234,14.55-2.234c3.527,0,5.932,0.325,7.549,1.004c2.588,1.004,2.588,2.722,2.624,5.57v4.254
		c-0.291,0-0.813,0-1.591,0c-2.85,0-8.483,0.113-14.026,1.019c-8.455,1.33-15.454,3.422-15.391,15.37
		c0,15.17,13.709,15.199,20.318,15.199c4.468,0,8.582-0.681,11.304-1.273c6.157-1.456,7.713-3.464,7.648-9.713v-25.174
		C183.536,189.222,183.536,184.429,178.743,181.834L178.743,181.834z"/>
	<path fill="#ED6A1D" d="M76.682,193.4c-5.536-6.963-13.249-13.701-23.387-19.794l-0.035-0.029
		c-10.173-5.966-19.766-9.431-28.412-10.858c-5.38-0.905-7.975,0.134-9.141,0.849c-1.167,0.678-3.337,2.46-5.281,7.677
		c-3.11,8.392-4.92,18.628-5.021,30.651v0.028c0.064,12.019,1.909,22.283,5.021,30.683c1.944,5.246,4.114,7,5.281,7.705
		c1.166,0.693,3.761,1.754,9.141,0.85c8.646-1.43,18.204-4.936,28.412-10.887l0.035-0.043c10.138-6.08,17.851-12.823,23.387-19.795
		c3.437-4.326,3.859-7.155,3.859-8.513C80.541,200.566,80.151,197.741,76.682,193.4"/>
</g>
</svg>
