<?xml version="1.0" encoding="utf-8"?>
<!-- Generator: Adobe Illustrator 16.0.3, SVG Export Plug-In . SVG Version: 6.00 Build 0)  -->
<!DOCTYPE svg PUBLIC "-//W3C//DTD SVG 1.1//EN" "http://www.w3.org/Graphics/SVG/1.1/DTD/svg11.dtd">
<svg version="1.1" id="Ebene_1" xmlns="http://www.w3.org/2000/svg" xmlns:xlink="http://www.w3.org/1999/xlink" x="0px" y="0px"
	 width="400px" height="216px" viewBox="0 0 400 216" enable-background="new 0 0 400 216" xml:space="preserve">
<g>
	<path fill="#004A8E" d="M144.966,99.227c-0.646,0-1.096,0-1.546,0c-6.039,0-12.078-0.015-18.116,0.02
		c-0.739,0.004-0.889-0.207-0.875-0.898c0.044-2.21,0.033-4.421,0.005-6.631c-0.007-0.558,0.074-0.787,0.729-0.785
		c10.109,0.024,20.22,0.023,30.33,0.001c0.631-0.001,0.749,0.19,0.739,0.772c-0.032,2.264-0.028,4.529-0.002,6.793
		c0.007,0.525-0.159,0.907-0.49,1.3c-6.575,7.814-13.138,15.637-19.701,23.459c-0.235,0.279-0.459,0.568-0.708,0.879
		c0.347,0.196,0.645,0.111,0.925,0.111c6.12,0.006,12.24,0.017,18.36-0.014c0.669-0.002,0.854,0.153,0.837,0.834
		c-0.048,2.129-0.034,4.258-0.006,6.389c0.006,0.515-0.114,0.688-0.66,0.686c-10.164-0.016-20.328-0.016-30.492,0
		c-0.549,0.002-0.676-0.178-0.67-0.695c0.024-2.211,0.028-4.422-0.002-6.631c-0.008-0.494,0.231-0.807,0.51-1.133
		c4.473-5.251,8.947-10.501,13.42-15.751C139.98,105.083,142.407,102.233,144.966,99.227z"/>
	<path fill="#004A8E" d="M71.708,69.134c0,3.715,0,7.431,0,11.146c0,5.311-0.004,10.621,0.005,15.931
		c0,0.497-0.085,0.937-0.341,1.378c-3.501,6.056-6.988,12.119-10.474,18.182c-0.204,0.356-0.438,0.647-0.813,0.858
		c-7.961,4.502-15.916,9.017-23.871,13.526c-0.133,0.074-0.269,0.145-0.604,0.324c12.05-20.597,23.991-41.009,35.935-61.422
		C71.599,69.084,71.654,69.109,71.708,69.134z"/>
	<path fill="#1190CF" d="M108.601,132.145c-24.023,0-47.917,0-71.819,0c0.019-0.281,0.244-0.308,0.391-0.391
		c7.913-4.497,15.83-8.988,23.742-13.486c0.341-0.195,0.679-0.279,1.07-0.279c7.064,0.009,14.131,0.008,21.195,0.002
		c0.357,0,0.676,0.057,0.999,0.238c7.962,4.522,15.93,9.033,23.895,13.549C108.225,131.863,108.364,131.979,108.601,132.145z"/>
	<path fill="#40C7F3" d="M73.603,68.962c11.99,20.476,23.896,40.811,35.804,61.145c-0.059,0.056-0.115,0.109-0.173,0.166
		c-0.596-0.334-1.192-0.662-1.785-0.998c-7.377-4.188-14.751-8.379-22.136-12.553c-0.442-0.251-0.752-0.558-1.004-0.994
		c-3.49-6.068-6.996-12.13-10.5-18.191c-0.166-0.286-0.271-0.568-0.271-0.91c0.007-9.111,0.007-18.221,0.009-27.332
		C73.547,69.242,73.563,69.19,73.603,68.962z"/>
	<path fill="#004A8E" d="M253.327,103.708c0-6.203,0.009-12.405-0.015-18.607c-0.002-0.61,0.121-0.818,0.778-0.803
		c2.104,0.047,4.207,0.035,6.312,0.005c0.501-0.007,0.686,0.151,0.79,0.633c0.38,1.762,0.819,3.511,1.204,5.271
		c0.119,0.544,0.315,0.77,0.938,0.762c2.966-0.042,5.933-0.003,8.897-0.033c0.563-0.005,0.724,0.136,0.716,0.708
		c-0.035,2.292-0.033,4.584-0.002,6.876c0.007,0.555-0.124,0.73-0.704,0.723c-2.589-0.033-5.179,0.003-7.768-0.027
		c-0.581-0.007-0.784,0.11-0.78,0.745c0.025,6.067,0.011,12.134,0.021,18.202c0.001,0.916,0.111,1.824,0.407,2.703
		c0.594,1.765,1.896,2.828,3.759,2.931c1.424,0.078,2.854,0.082,4.283,0.063c0.567-0.008,0.797,0.093,0.784,0.739
		c-0.045,2.292-0.026,4.585-0.01,6.876c0.005,0.453-0.056,0.678-0.602,0.672c-3.315-0.047-6.634,0.035-9.945-0.095
		c-5.133-0.202-8.313-3.266-8.918-8.369c-0.104-0.887-0.149-1.771-0.149-2.661C253.329,115.249,253.327,109.479,253.327,103.708z"/>
	<path fill="#ECC206" d="M62.787,116.163c3.3-5.718,6.52-11.296,9.801-16.98c0.216,0.344,0.387,0.598,0.54,0.861
		c2.959,5.125,5.92,10.25,8.864,15.382c0.131,0.229,0.778,0.733-0.181,0.734C75.536,116.166,69.26,116.163,62.787,116.163z"/>
	<path fill="#004A8E" d="M326.003,119.746c0-8.736,0.008-17.472-0.016-26.207c-0.002-0.678,0.151-0.971,0.865-1.097
		c6.681-1.181,13.397-1.826,20.181-1.314c3.192,0.241,6.271,1.001,9.098,2.577c3.868,2.158,6.288,5.476,7.313,9.716
		c1.497,6.192,1.258,12.364-1.004,18.35c-2.053,5.435-6.148,8.575-11.758,9.764c-4.656,0.986-9.261,0.893-13.688-1.106
		c-0.77-0.348-0.569,0.207-0.569,0.554c-0.007,5.043-0.021,10.086,0.014,15.127c0.005,0.752-0.202,0.938-0.938,0.928
		c-2.857-0.043-5.717-0.041-8.573-0.002c-0.718,0.01-0.944-0.153-0.941-0.918C326.014,137.324,326.003,128.536,326.003,119.746z
		 M336.406,120.686c-0.004,0.51,0.174,0.771,0.613,0.987c2.007,0.979,4.123,1.526,6.34,1.754c5.169,0.53,8.662-1.853,9.954-6.866
		c0.775-3.008,0.899-6.067,0.469-9.135c-0.635-4.523-3.498-7.401-7.775-7.898c-2.883-0.335-5.745-0.06-8.615,0.217
		c-0.885,0.086-0.996,0.467-0.987,1.224c0.035,3.232,0.016,6.465,0.016,9.697C336.418,114.005,336.43,117.346,336.406,120.686z"/>
	<path fill="#004A8E" d="M282.937,101.136c0-2.632,0.007-5.241-0.008-7.851c-0.002-0.318,0.142-0.415,0.404-0.474
		c7.245-1.621,14.524-2.619,21.932-1.165c1.643,0.323,3.227,0.856,4.713,1.637c4.116,2.163,6.163,5.704,6.228,10.226
		c0.131,9.353,0.051,18.708,0.073,28.061c0.001,0.488-0.182,0.574-0.609,0.569c-1.645-0.021-3.288-0.021-4.934,0.001
		c-0.415,0.004-0.704-0.139-0.985-0.43c-0.9-0.93-1.855-1.807-2.727-2.764c-0.403-0.441-0.668-0.392-1.124-0.104
		c-5.852,3.701-12.138,4.15-18.617,2.197c-4.612-1.391-7.007-4.766-7.568-9.484c-0.32-2.688-0.184-5.334,1.075-7.802
		c1.598-3.131,4.38-4.727,7.615-5.648c3.665-1.045,7.422-1.221,11.209-1.042c1.91,0.09,3.811,0.297,5.692,0.636
		c0.404,0.073,0.534,0.006,0.526-0.408c-0.021-0.997,0.026-1.997-0.023-2.991c-0.119-2.288-1.37-3.731-3.488-4.452
		c-2.321-0.79-4.723-0.675-7.12-0.544c-4.019,0.218-7.969,0.869-11.877,1.796C283.221,101.126,283.113,101.122,282.937,101.136z
		 M305.839,115.488c0.021-0.488-0.171-0.674-0.622-0.729c-1.095-0.137-2.185-0.344-3.282-0.438
		c-2.549-0.215-5.104-0.446-7.644,0.094c-1.604,0.342-3.034,0.99-3.813,2.561c-1.574,3.178,0.225,6.859,3.708,7.459
		c3.87,0.665,7.405-0.332,10.717-2.352c0.706-0.432,1.025-0.911,0.938-1.742c-0.072-0.693-0.016-1.4-0.016-2.102
		C305.828,117.32,305.799,116.402,305.839,115.488z"/>
	<path fill="#004A8E" d="M185.55,115.218c-4.26,0-8.521,0.022-12.781-0.021c-0.786-0.01-0.92,0.228-0.852,0.942
		c0.309,3.242,2.07,5.345,5.027,6.521c2.104,0.836,4.315,1.104,6.564,1.161c4.353,0.115,8.663-0.269,12.941-1.037
		c0.594-0.106,0.668,0.059,0.663,0.574c-0.021,2.318-0.023,4.639,0.003,6.957c0.006,0.516-0.171,0.68-0.666,0.771
		c-3.506,0.657-7.042,0.911-10.604,1.002c-3.435,0.088-6.834-0.064-10.192-0.84c-7.714-1.777-12.535-6.938-13.76-14.747
		c-0.729-4.661-0.663-9.292,0.662-13.846c1.624-5.587,5.231-9.24,10.873-10.776c4.613-1.256,9.281-1.299,13.916-0.204
		c6.534,1.545,10.288,5.813,11.617,12.313c0.72,3.52,0.684,7.063,0.316,10.619c-0.059,0.559-0.318,0.617-0.783,0.615
		C194.179,115.212,189.865,115.218,185.55,115.218z M187.216,107.938c2.354,0,2.354,0,2.025-2.37
		c-0.458-3.306-2.388-5.433-5.644-6.142c-1.781-0.388-3.587-0.385-5.373-0.026c-1.196,0.24-2.307,0.719-3.263,1.51
		c-1.983,1.641-2.662,3.898-3.023,6.317c-0.082,0.552,0.056,0.733,0.65,0.726c2.667-0.034,5.333-0.015,8-0.015
		C182.799,107.938,185.008,107.938,187.216,107.938z"/>
	<path fill="#004A8E" d="M225.546,90.811c3.492,0.059,6.806,0.389,9.962,1.632c4.505,1.773,7.616,4.947,9.123,9.535
		c2.063,6.273,2.074,12.632,0.072,18.909c-1.729,5.414-5.555,8.825-11.003,10.307c-5.306,1.44-10.671,1.449-15.972-0.008
		c-6.049-1.666-9.853-5.676-11.426-11.713c-1.39-5.336-1.4-10.728,0.027-16.06c1.796-6.705,6.294-10.566,13.01-11.977
		C221.432,90.997,223.554,90.877,225.546,90.811z M235.353,107.26c-0.418-2.348-1.198-4.54-3.021-6.196
		c-1.977-1.798-4.392-2.252-6.97-2.221c-4.604,0.054-7.746,2.393-8.914,6.83c-1.025,3.903-0.976,7.842,0.046,11.744
		c0.521,1.991,1.493,3.748,3.174,5.03c1.919,1.464,4.146,1.841,6.481,1.804c4.279-0.067,7.241-2.24,8.609-6.281
		c0.718-2.121,0.883-4.313,0.928-5.999C235.701,110.038,235.599,108.641,235.353,107.26z"/>
</g>
</svg>
