<?xml version="1.0" encoding="utf-8"?>
<!-- Generator: Adobe Illustrator 21.0.2, SVG Export Plug-In . SVG Version: 6.00 Build 0)  -->
<svg version="1.1" id="Ebene_1" xmlns="http://www.w3.org/2000/svg" xmlns:xlink="http://www.w3.org/1999/xlink" x="0px" y="0px"
	 viewBox="0 0 1600 1600" style="enable-background:new 0 0 1600 1600;" xml:space="preserve">
<style type="text/css">
	.st0{fill:none;}
</style>
<g>
	<g>
		<path d="M242.1,685.2v55.4H359c-48.3,47.7-135.4,133.5-135.4,133.5l38.8,39.7c0,0,102-102.4,156.7-157.3v156.2h54V685.2H242.1z"/>
		<circle cx="366.2" cy="876.5" r="36.5"/>
	</g>
	<g>
		<path d="M1246.5,780.2c-1.8,3-6.2,5.8-11.7,5.8c-7.2,0-9.7-4-9.7-8.5c0-5.1,3.4-8,9.7-8c6,0,8.8,0.9,11.7,2.7V780.2z M1263.2,799
			v-42.8c0-14.4-10.5-22.4-25.9-22.4c-10.3,0-16.5,2.2-24,6.5l6.4,11.7c5.8-3.2,9.8-4.3,17.5-4.3c6.1,0,9.1,3.7,9.1,8.2v3.2
			c-2.7-1.3-6.4-2.6-12.3-2.6c-14.5,0-25.9,7.1-25.9,21.2c0,15.5,11.9,22.7,23.8,22.7c6,0,11.3-2.4,14.4-5.6v4.3h16.9V799z"/>
		<path d="M1359.4,799v-67.1l-17.8,9.3v-16.4l20.6-11h14.1v85.1h-16.9L1359.4,799L1359.4,799z"/>
		<path d="M633.5,741.2c0,7.4-4.3,11.1-12.2,11.1h-17.9v-22h17.7C628.6,730.3,633.5,733.8,633.5,741.2z M651,740.8
			c0-18.1-13.3-27-29.3-27h-35.3v85.1h17v-30.2h16.8C637.8,768.8,651,760.6,651,740.8z"/>
		<path d="M694,754.8c-2.7-2.4-6-4.1-9.7-4.1c-6.6,0-10.8,2.8-10.8,13.9v34.5h-16.8v-63.9h16.8v4.3c2.9-3,7.2-5.6,13.1-5.6
			c5.5,0,9.6,2.2,11.8,4.5L694,754.8z"/>
		<path d="M741.3,767.2c0,8.9-3.9,17-11.9,17s-11.8-7.2-11.8-17c0-9.9,3.8-17.2,11.8-17.2C737.5,750,741.3,757.3,741.3,767.2z
			 M758.3,767.2c0-19.6-12.3-33.3-28.9-33.3c-16.7,0-28.8,13.7-28.8,33.3s12.2,33.2,28.8,33.2C746.1,800.3,758.3,786.7,758.3,767.2z
			"/>
		<path d="M797.1,800.3c-14.2,0-26.6-6-33.1-15.5l12.3-10.9c6,6.9,13.6,9.7,21.8,9.7c10.1,0,14.8-2.8,14.8-9.2
			c0-5.5-2.9-7.9-19-11.6c-15.7-3.7-26.6-8.6-26.6-25.4c0-15.4,13.6-24.9,30.4-24.9c13.3,0,23,5,31,13.4l-12.3,11.9
			c-5.5-5.6-11.5-8.8-19.3-8.8c-9.1,0-12.2,3.9-12.2,7.7c0,5.3,3.6,7.1,17.1,10.2c13.5,3.2,28.5,7.8,28.5,26.3
			C830.6,789.3,820.5,800.3,797.1,800.3z"/>
		<path d="M851.2,729.8c-5.2,0-9.6-4.4-9.6-9.6s4.4-9.6,9.6-9.6c5.2,0,9.6,4.4,9.6,9.6C860.8,725.6,856.5,729.8,851.2,729.8z
			 M842.8,799v-63.9h16.8V799H842.8z"/>
		<path d="M911.8,759.8H890c0.6-6.4,4.4-11.4,10.5-11.4C908,748.3,911.3,754.2,911.8,759.8z M928.1,767.2c0-18.2-9.9-33.3-26.9-33.3
			c-16.2,0-28.5,13.7-28.5,33.3c0,20.2,11.7,33.2,30,33.2c8.5,0,17.8-3.8,22.9-10.3l-11.9-10c-2.4,2.8-6.3,4.5-11,4.5
			c-6.1,0-12.5-3.3-13.1-12h38.2C928,771.2,928.1,769.6,928.1,767.2z"/>
		<path d="M979,768.2c0,10.7-3.5,16.3-10,16.3c-4.9,0-8.8-1.9-11.3-5.5V755c2.4-3.2,5.1-5.3,10.3-5.3
			C974.7,749.7,979,755.1,979,768.2z M996.1,767.8c0-23.8-11.2-34.1-24.8-34.1c-6.1,0-10.3,2.6-13.5,5.4v-27.9H941V799h16.8v-3.6
			c3,2.8,7.9,5,13.5,5C987.1,800.3,996.1,787,996.1,767.8z"/>
		<path d="M1043.4,759.8h-21.9c0.6-6.4,4.4-11.4,10.5-11.4C1039.5,748.3,1042.9,754.2,1043.4,759.8z M1059.7,767.2
			c0-18.2-9.8-33.3-26.9-33.3c-16.2,0-28.5,13.7-28.5,33.3c0,20.2,11.7,33.2,30,33.2c8.5,0,17.8-3.8,22.9-10.3l-11.9-10
			c-2.4,2.8-6.3,4.5-10.9,4.5c-6.1,0-12.5-3.3-13.1-12h38.2C1059.5,771.2,1059.7,769.6,1059.7,767.2z"/>
		<path d="M1109.9,799v-34.5c0-11.4-3.9-14.8-10.8-14.8c-6.9,0-10.9,3.4-10.9,14.5v34.9h-16.8v-63.9h16.8v4.3c2.9-3,8.3-5.6,15-5.6
			c16.3,0,23.6,11.2,23.6,29.2v36L1109.9,799L1109.9,799L1109.9,799z"/>
		<path d="M1167.5,800.3c-14.2,0-26.6-6-33.1-15.5l12.3-10.9c6,6.9,13.6,9.7,21.8,9.7c10.1,0,14.8-2.8,14.8-9.2
			c0-5.5-2.9-7.9-19-11.6c-15.7-3.7-26.6-8.6-26.6-25.4c0-15.4,13.6-24.9,30.4-24.9c13.3,0,23,5,31,13.4l-12.3,11.9
			c-5.5-5.6-11.6-8.8-19.3-8.8c-9.1,0-12.2,3.9-12.2,7.7c0,5.3,3.6,7.1,17.1,10.2c13.5,3.2,28.5,7.8,28.5,26.3
			C1201,789.3,1190.8,800.3,1167.5,800.3z"/>
		<path d="M650.7,912.7v-57.7v-9.1c-0.9,3.3-3.3,9.6-5.1,14.1l-22.7,54.9l-22.4-54.9c-1.8-4.4-4.1-10.8-5-14.1v9.1v57.7h-9.1v-85.1
			H597l20.1,51c2.1,5.1,5.1,13,6.1,16.5c1.1-3.7,4.1-11.6,6.1-16.5l20.3-51H660v85.1H650.7z"/>
		<path d="M718.3,876.3H684c1.1-14.2,7.7-21,17.2-21C712.3,855.3,717.6,864,718.3,876.3z M727,878.8c0-18.2-9-31.4-25.7-31.4
			c-15.2,0-26.4,12.7-26.4,33c0,25.1,14.2,33.6,25.9,33.6c9.6,0,15.2-2.6,22.9-7.4l-4.3-6.6c-5.8,3.9-10.2,6.1-17.6,6.1
			c-10.5,0-16.9-8.6-17.8-22.3h42.6C726.7,882.3,727,881.1,727,878.8z"/>
		<path d="M780.1,896.8c-4.5,5.6-10.1,9.2-16.9,9.2c-10.1,0-16.2-8.4-16.2-24.4c0-17.1,5.2-26.3,15.8-26.3c7.5,0,13.7,4.3,17.3,9.6
			L780.1,896.8L780.1,896.8z M789.2,912.7v-85.1h-9.1V856c-4.5-5.1-10-8.5-18-8.5c-13.4,0-24.1,11.7-24.1,34.3
			c0,22.5,10.1,32.2,22.9,32.2c8.6,0,14.7-4.3,19.2-9.1v7.8H789.2L789.2,912.7z"/>
		<path d="M814.3,837.3c-3.8,0-6.7-2.9-6.7-6.4c0-3.6,2.9-6.6,6.7-6.6c3.4,0,6.3,2.9,6.3,6.6C820.6,834.5,817.7,837.3,814.3,837.3z
			 M809.5,912.7v-63.9h9.1v63.9H809.5z"/>
		<path d="M875.6,897c-3.9,5.4-10.1,9.6-18.4,9.6c-7.8,0-13-4.1-13-13.6c0-8,5.6-12.5,15-12.5c7.8,0,12.3,1.3,16.4,3.6V897z
			 M884.7,912.7v-44.5c0-14.8-8.6-20.7-22.4-20.7c-8.3,0-15.8,2.1-21.4,5.1l3.4,7.4c5.2-3,10.7-4.9,17.4-4.9
			c9.4,0,13.9,4.6,13.9,14.1v7.5c-3.8-2.1-9.5-3.6-15.9-3.6c-12.7,0-24.5,6.1-24.5,20.4c0,15.4,10.5,20.4,20.4,20.4
			c9.1,0,15.4-4.3,19.9-9.1v7.8L884.7,912.7L884.7,912.7z"/>
		<path d="M963.3,882.3H934l9.4-27.7c2.1-6,4.5-13.6,5.4-17c0.9,3.5,3.3,11.2,5.2,16.8L963.3,882.3z M983.5,912.7l-29.6-85.1h-10.5
			l-29.5,85.1h9.7l7.4-21.7h35.2l7.3,21.7H983.5z"/>
		<path d="M1024.1,914c-20.8,0-34.4-18.9-34.4-43.8c0-25.3,14.2-44,34.8-44c11.7,0,20.4,4.4,27.1,13.6l-7.5,5.7
			c-5.5-7.4-10.6-10.7-19.8-10.7c-14.6,0-25.1,14.5-25.1,35.2c0,20.8,10.9,35.4,25.2,35.4c14.3,0,22-8.8,22-25.4v-0.7h-15.3v-8.8
			h24.6v8.3C1055.6,902.2,1042.1,914,1024.1,914z"/>
		<path d="M1317.4,798.2c-0.1,0.1-10,2.2-16.3,2.2c-10.3,0-17-8-17-19.2v-30.2h-10.7v-15.8h10.7v-21.3h16.8v21.3h15.3v15.8h-15.3
			v25.7c0,7.5,2.2,8.2,6.2,8.2c3.1,0,8.2-0.6,10.4-1.1L1317.4,798.2L1317.4,798.2z"/>
		<path d="M1338.4,800.2c-5.8,0-10.8-4.9-10.8-10.8c0-5.8,4.9-10.8,10.8-10.8c5.8,0,10.8,4.9,10.8,10.8
			C1349.1,795.3,1344.2,800.2,1338.4,800.2z"/>
	</g>
</g>
<rect x="1" y="-1" class="st0" width="1599" height="1600"/>
</svg>
