<?xml version="1.0" encoding="UTF-8" standalone="no"?>
<!-- Created with Inkscape (http://www.inkscape.org/) -->
<svg
   xmlns:dc="http://purl.org/dc/elements/1.1/"
   xmlns:cc="http://creativecommons.org/ns#"
   xmlns:rdf="http://www.w3.org/1999/02/22-rdf-syntax-ns#"
   xmlns:svg="http://www.w3.org/2000/svg"
   xmlns="http://www.w3.org/2000/svg"
   xmlns:sodipodi="http://sodipodi.sourceforge.net/DTD/sodipodi-0.dtd"
   xmlns:inkscape="http://www.inkscape.org/namespaces/inkscape"
   width="730"
   height="500"
   id="svg2"
   sodipodi:version="0.32"
   inkscape:version="0.46"
   version="1.0"
   sodipodi:docname="Adidas-logo.svg"
   inkscape:output_extension="org.inkscape.output.svg.inkscape">
  <defs
     id="defs4">
    <inkscape:perspective
       sodipodi:type="inkscape:persp3d"
       inkscape:vp_x="0 : 526.18109 : 1"
       inkscape:vp_y="0 : 1000 : 0"
       inkscape:vp_z="744.09448 : 526.18109 : 1"
       inkscape:persp3d-origin="372.04724 : 350.78739 : 1"
       id="perspective10" />
    <inkscape:perspective
       id="perspective2399"
       inkscape:persp3d-origin="358.69965 : 161.21951 : 1"
       inkscape:vp_z="717.39929 : 241.82927 : 1"
       inkscape:vp_y="0 : 1000 : 0"
       inkscape:vp_x="0 : 241.82927 : 1"
       sodipodi:type="inkscape:persp3d" />
  </defs>
  <sodipodi:namedview
     id="base"
     pagecolor="#ffffff"
     bordercolor="#666666"
     borderopacity="1.0"
     inkscape:pageopacity="0.0"
     inkscape:pageshadow="2"
     inkscape:zoom="0.84501992"
     inkscape:cx="350"
     inkscape:cy="264.28571"
     inkscape:document-units="px"
     inkscape:current-layer="layer1"
     showgrid="false"
     inkscape:window-width="1280"
     inkscape:window-height="781"
     inkscape:window-x="-4"
     inkscape:window-y="-4" />
  <metadata
     id="metadata7">
    <rdf:RDF>
      <cc:Work
         rdf:about="">
        <dc:format>image/svg+xml</dc:format>
        <dc:type
           rdf:resource="http://purl.org/dc/dcmitype/StillImage" />
      </cc:Work>
    </rdf:RDF>
  </metadata>
  <g
     inkscape:label="Ebene 1"
     inkscape:groupmode="layer"
     id="layer1"
     transform="translate(-24.157502,-284.81863)">
    <g
       transform="translate(-33.947634,-146.48574)"
       id="g2402"
       inkscape:label="Ebene 1">
      <g
         style="fill:#000000"
         id="g3035">
        <path
           id="path2405"
           class="ps00"
           d="M 533.9435,756.70465 L 386.43318,500.34377 L 492.40483,439.4751 L 675.83313,756.70465 L 533.9435,756.70465"
           style="fill:#000000;fill-rule:nonzero;stroke:none" />
        <path
           id="path2407"
           class="ps00"
           d="M 141.03958,720.78673 L 247.01123,659.50688 L 303.0816,756.70465 L 161.60329,756.70465 L 141.03958,720.78673"
           style="fill:#000000;fill-rule:nonzero;stroke:none" />
        <path
           id="path2409"
           class="ps00"
           d="M 349.00724,920.25463 L 379.1673,920.25463 L 379.1673,798.24338 L 349.00724,798.24338 L 349.00724,920.25463 z"
           style="fill:#000000;fill-rule:nonzero;stroke:none" />
        <path
           id="path2411"
           class="ps00"
           d="M 726.96825,923.13364 C 693.24373,923.13364 672.95412,905.72304 671.85744,881.18363 L 703.66273,881.18363 C 703.66273,888.86078 708.46092,900.10224 729.02465,900.51357 C 742.73378,900.51357 749.17704,892.42508 749.17704,886.3931 C 748.35443,876.79671 736.29036,875.9741 723.40384,873.91776 C 710.51732,871.86136 699.54998,869.53084 691.59866,865.4181 C 681.45378,860.20862 674.59924,848.96717 674.59924,836.08065 C 674.59924,814.28298 693.51785,797.0096 725.04891,797.0096 C 755.6203,797.0096 774.95024,813.04924 777.00664,836.9031 L 746.29803,836.9031 C 746.02391,830.45984 744.79013,820.31512 726.69398,820.31512 C 714.49285,820.31512 706.40452,822.78264 705.71897,831.28245 C 705.71897,843.75764 731.08099,842.93519 750.82211,848.14456 C 769.74071,852.94286 781.80478,864.7327 781.80478,881.18363 C 781.80478,911.4809 757.26537,923.13364 726.96825,923.13364"
           style="fill:#000000;fill-rule:nonzero;stroke:none" />
        <path
           id="path2413"
           class="ps00"
           d="M 762.06356,761.50285 C 769.32943,761.50285 775.90991,767.67199 775.90991,775.07492 C 775.90991,782.34079 769.32943,788.50978 762.06356,788.50978 C 754.79785,788.50978 748.76571,782.34079 748.76571,775.07492 C 748.76571,767.67199 754.79785,761.50285 762.06356,761.50285 z M 762.06356,759.44645 C 753.5639,759.44645 746.70931,766.4382 746.70931,775.07492 C 746.70931,783.57458 753.5639,790.56618 762.06356,790.56618 C 770.70038,790.56618 777.96615,783.57458 777.96615,775.07492 C 777.96615,766.4382 770.70038,759.44645 762.06356,759.44645 z M 765.76503,775.62326 C 767.27304,775.07492 768.36976,773.42985 768.36976,771.2364 C 768.36976,767.94611 765.76503,766.4382 762.6119,766.4382 L 756.71703,766.4382 L 756.71703,783.57458 L 759.45883,783.57458 L 759.45883,776.58293 L 763.16029,776.58293 C 765.21664,776.58293 765.76503,778.228 765.76503,781.51818 C 765.76503,782.47785 765.76503,783.02619 766.31337,783.57458 L 768.9181,783.57458 C 768.36976,782.47785 768.36976,780.96979 768.36976,778.77639 C 768.36976,776.03459 766.86176,775.62326 765.76503,775.62326 z M 759.45883,769.04278 L 763.16029,769.04278 C 764.6683,769.04278 765.76503,770.13967 765.76503,771.78474 C 765.76503,773.42985 763.57157,773.97819 762.06356,773.97819 L 759.45883,773.97819 L 759.45883,769.04278"
           style="fill:#000000;fill-rule:nonzero;stroke:none" />
        <path
           id="path2415"
           class="ps00"
           d="M 265.24438,611.93622 L 371.21603,550.79344 L 490.07426,756.70465 L 379.1673,756.70465 L 379.1673,786.86471 L 349.00724,786.86471 L 349.00724,756.56759 L 265.24438,611.93622"
           style="fill:#000000;fill-rule:nonzero;stroke:none" />
        <path
           id="path2417"
           class="ps01"
           d="M 267.98623,923.13364 C 232.89081,923.13364 204.3758,894.48143 204.3758,859.79745 C 204.3758,824.70198 232.89081,797.0096 267.98623,797.0096 C 281.28409,797.0096 293.3481,800.57385 303.90416,807.83972 L 303.90416,756.70465 L 334.06427,756.70465 L 334.06427,920.25463 L 303.90416,920.25463 L 303.90416,912.1663 C 293.3481,919.02089 281.28409,923.13364 267.98623,923.13364 z M 233.30209,859.79745 C 233.30209,878.71595 249.47887,894.48143 268.80874,894.48143 C 287.72735,894.48143 303.90416,878.71595 303.90416,859.79745 C 303.90416,840.87879 287.72735,824.70198 268.80874,824.70198 C 249.47887,824.70198 233.30209,840.87879 233.30209,859.79745"
           style="fill:#000000;fill-rule:evenodd;stroke:none" />
        <path
           id="path2419"
           class="ps01"
           d="M 490.89682,756.70465 L 520.64565,756.70465 L 520.64565,920.25463 L 490.89682,920.25463 L 490.89682,912.1663 C 480.75204,919.02089 468.27675,923.13364 454.56761,923.13364 C 419.88347,923.13364 391.36848,894.48143 391.36848,859.79745 C 391.36848,824.70198 419.88347,797.0096 454.56761,797.0096 C 468.27675,797.0096 480.34076,800.57385 490.89682,807.83972 L 490.89682,756.70465 z M 420.70603,859.79745 C 420.70603,878.71595 436.88279,894.48143 455.39017,894.48143 C 474.72006,894.48143 490.89682,878.71595 490.89682,859.79745 C 490.89682,840.87879 474.72006,824.70198 455.39017,824.70198 C 436.88279,824.70198 420.70603,840.87879 420.70603,859.79745"
           style="fill:#000000;fill-rule:evenodd;stroke:none" />
        <path
           id="path2421"
           class="ps01"
           d="M 593.98956,923.13364 C 559.44253,923.13364 530.79043,894.48143 530.79043,859.79745 C 530.79043,824.70198 559.44253,797.0096 593.98956,797.0096 C 607.28747,797.0096 619.76266,800.57385 629.90754,807.83972 L 629.90754,798.10632 L 660.0676,798.10632 L 660.0676,920.25463 L 629.90754,920.25463 L 629.90754,912.1663 C 619.76266,919.02089 607.69875,923.13364 593.98956,923.13364 z M 560.12798,859.79745 C 560.12798,878.71595 576.30474,894.48143 595.22335,894.48143 C 614.14201,894.48143 629.90754,878.71595 629.90754,859.79745 C 629.90754,840.87879 614.14201,824.70198 595.22335,824.70198 C 576.30474,824.70198 560.12798,840.87879 560.12798,859.79745"
           style="fill:#000000;fill-rule:evenodd;stroke:none" />
        <path
           id="path2423"
           class="ps01"
           d="M 93.468866,859.79745 C 93.468866,878.71595 109.64565,894.48143 128.56427,894.48143 C 147.89414,894.48143 164.07093,878.71595 164.07093,859.79745 C 164.07093,840.87879 147.89414,824.70198 128.56427,824.70198 C 109.64565,824.70198 93.468866,840.87879 93.468866,859.79745 z M 127.74171,923.13364 C 93.057586,923.13364 64.405492,894.48143 64.405492,859.79745 C 64.405492,824.70198 93.057586,797.0096 127.74171,797.0096 C 141.03958,797.0096 153.5149,800.57385 164.07093,807.83972 L 164.07093,798.10632 L 193.81976,798.10632 L 193.81976,920.25463 L 164.07093,920.25463 L 164.07093,912.1663 C 153.92618,919.02089 141.45085,923.13364 127.74171,923.13364"
           style="fill:#000000;fill-rule:evenodd;stroke:none" />
      </g>
    </g>
  </g>
</svg>
