<?xml version="1.0" encoding="utf-8"?>
<!-- Generator: Adobe Illustrator 16.0.3, SVG Export Plug-In . SVG Version: 6.00 Build 0)  -->
<!DOCTYPE svg PUBLIC "-//W3C//DTD SVG 1.1//EN" "http://www.w3.org/Graphics/SVG/1.1/DTD/svg11.dtd">
<svg version="1.1" id="Ebene_1" xmlns="http://www.w3.org/2000/svg" xmlns:xlink="http://www.w3.org/1999/xlink" x="0px" y="0px"
	 width="400px" height="216px" viewBox="-128.5 -90.501 400 216" enable-background="new -128.5 -90.501 400 216"
	 xml:space="preserve">
<g transform="translate(190 0)">
	<g transform="translate(60 60)">
		<path fill="#B95A84" d="M-313-9.584h269v-65.835h-269V-9.584z"/>
		<g transform="translate(35.100000742319466 80.86956507450826)">
			<g transform="translate(-0.004084131121636858 14.927456092834472)">
				<path fill="#FFFFFF" d="M-332.555-125.744l10.943-25.332h5.472l10.942,25.332h-6.014l-2.355-5.467h-10.617l-2.353,5.467
					H-332.555z M-322.046-136.189h6.344l-3.148-7.349L-322.046-136.189z"/>
				<path fill="#FFFFFF" d="M-297.869-125.744v-25.332h7.655l6.514,13.908l6.566-13.908h7.607v25.332h-5.661v-15.946l-6.843,13.847
					h-3.365l-6.793-13.847v15.946H-297.869z"/>
				<path fill="#FFFFFF" d="M-262.185-125.744l10.927-25.332h5.487l10.924,25.332h-6.016l-2.338-5.467h-10.616l-2.356,5.467
					H-262.185z M-251.679-136.189h6.331l-3.148-7.349L-251.679-136.189z"/>
				<path fill="#FFFFFF" d="M-227.505-125.744v-25.332h5.658v10.398l9.559-10.398h7.016l-10.086,11.193
					c0.862,1.2,2.466,3.451,4.827,6.769c2.338,3.281,4.072,5.761,5.261,7.37h-6.597l-7.453-9.991l-2.527,2.786v7.201
					L-227.505-125.744L-227.505-125.744z"/>
				<path fill="#FFFFFF" d="M-197.728-136.919v-14.155h5.662v14.002c0,2.003,0.478,3.601,1.396,4.791
					c0.963,1.157,2.232,1.768,3.823,1.768c1.589,0,2.856-0.612,3.771-1.768c0.948-1.19,1.418-2.781,1.418-4.791v-14.002h5.623
					v14.155c0,3.669-1.018,6.498-3.048,8.447c-2.006,1.985-4.61,2.979-7.769,2.979c-3.159,0-5.763-0.998-7.806-2.996
					C-196.702-130.45-197.728-133.275-197.728-136.919z"/>
				<path fill="#FFFFFF" d="M-165.738-125.744v-25.332h9.613c3.94,0,6.722,0.666,8.423,1.996c1.66,1.332,2.491,3.466,2.491,6.424
					c0,4.057-1.601,6.677-4.801,7.84l6.388,9.075h-6.935l-5.602-8.09h-3.917v8.086H-165.738z M-160.067-138.71h4.097
					c1.958,0,3.275-0.326,3.955-0.943c0.709-0.634,1.051-1.636,1.051-2.995c0-1.373-0.353-2.306-1.084-2.816
					c-0.698-0.489-1.982-0.747-3.803-0.747h-4.222v7.502L-160.067-138.71L-160.067-138.71z"/>
				<path fill="#FFFFFF" d="M-135-125.744v-25.332h5.678v25.332H-135z"/>
				<path fill="#FFFFFF" d="M-121.982-125.744l10.91-25.332h5.489l10.941,25.332h-6.017l-2.353-5.467h-10.6l-2.359,5.467H-121.982z
					 M-111.476-136.189h6.327l-3.148-7.349L-111.476-136.189z"/>
			</g>
		</g>
	</g>
</g>
</svg>
