<?xml version="1.0" encoding="UTF-8" standalone="no"?>
<!-- Created with Inkscape (http://www.inkscape.org/) -->

<svg
   xmlns:dc="http://purl.org/dc/elements/1.1/"
   xmlns:cc="http://creativecommons.org/ns#"
   xmlns:rdf="http://www.w3.org/1999/02/22-rdf-syntax-ns#"
   xmlns:svg="http://www.w3.org/2000/svg"
   xmlns="http://www.w3.org/2000/svg"
   xmlns:sodipodi="http://sodipodi.sourceforge.net/DTD/sodipodi-0.dtd"
   xmlns:inkscape="http://www.inkscape.org/namespaces/inkscape"
   width="710.87488"
   height="236.23611"
   id="svg4722"
   version="1.1"
   inkscape:version="0.48.2 r9819"
   sodipodi:docname="Neues Dokument 4">
  <title
     id="title5193">DocMorris Logo</title>
  <defs
     id="defs4724">
    <clipPath
       clipPathUnits="userSpaceOnUse"
       id="clipPath3039">
      <path
         inkscape:connector-curvature="0"
         d="m 286.299,620.788 164.409,0 0,73.7 -164.409,0 0,-73.7 z"
         id="path3041" />
    </clipPath>
    <clipPath
       clipPathUnits="userSpaceOnUse"
       id="clipPath3039-4">
      <path
         inkscape:connector-curvature="0"
         d="m 286.299,620.788 164.409,0 0,73.7 -164.409,0 0,-73.7 z"
         id="path3041-0" />
    </clipPath>
  </defs>
  <sodipodi:namedview
     id="base"
     pagecolor="#ffffff"
     bordercolor="#666666"
     borderopacity="1.0"
     inkscape:pageopacity="0.0"
     inkscape:pageshadow="2"
     inkscape:zoom="1"
     inkscape:cx="-10.227926"
     inkscape:cy="140.7347"
     inkscape:document-units="px"
     inkscape:current-layer="layer1"
     showgrid="false"
     fit-margin-top="5"
     fit-margin-left="5"
     fit-margin-right="5"
     fit-margin-bottom="5"
     inkscape:window-width="1388"
     inkscape:window-height="824"
     inkscape:window-x="129"
     inkscape:window-y="72"
     inkscape:window-maximized="0" />
  <metadata
     id="metadata4727">
    <rdf:RDF>
      <cc:Work
         rdf:about="">
        <dc:format>image/svg+xml</dc:format>
        <dc:type
           rdf:resource="http://purl.org/dc/dcmitype/StillImage" />
        <dc:title>DocMorris Logo</dc:title>
        <dc:creator>
          <cc:Agent>
            <dc:title>DocMorris N.V.</dc:title>
          </cc:Agent>
        </dc:creator>
        <dc:source>http://www.docmorris.de/medias/sys_master/cmsdummy/8452674571097024.pdf</dc:source>
      </cc:Work>
    </rdf:RDF>
  </metadata>
  <g
     inkscape:label="Ebene 1"
     inkscape:groupmode="layer"
     id="layer1"
     transform="translate(-105.22793,-436.86076)">
    <g
       id="g5157">
      <g
         transform="matrix(5.037163,0,0,-5.037163,221.25507,619.20677)"
         id="g3031">
        <path
           id="path3033"
           style="fill:#000000;fill-opacity:1;fill-rule:nonzero;stroke:none"
           d="m 0,0 1.653,0 1.567,-3.7 0.033,0 1.567,3.7 1.534,0 0,-7.758 -1.142,0 0,6.061 -0.022,0 -1.578,-3.798 -0.86,0 -1.588,3.786 -0.033,0 0,-6.049 L 0,-7.758 0,0 z"
           inkscape:connector-curvature="0" />
      </g>
      <g
         transform="matrix(5.037163,0,0,-5.037163,275.67707,641.46238)"
         id="g3043">
        <path
           id="path3045"
           style="fill:#000000;fill-opacity:1;fill-rule:nonzero;stroke:none"
           d="M 0,0 0,0.467 C 0,1.012 -0.25,1.545 -0.979,1.545 -1.643,1.545 -1.958,1.044 -1.958,0.5 L -1.958,0 0,0 z m -3.155,-1.393 0,1.567 c 0,1.469 1,2.263 2.208,2.263 1.262,0 2.09,-0.773 2.09,-2.067 l 0,-1.207 -3.101,0 0,-0.545 c 0,-0.805 0.489,-1.11 1.24,-1.11 0.588,0 1.088,0.229 1.403,0.37 L 1.001,-2.926 C 0.446,-3.34 -0.25,-3.471 -0.925,-3.471 c -1.262,0 -2.23,0.609 -2.23,2.078"
           inkscape:connector-curvature="0" />
      </g>
      <path
         id="path3047"
         style="fill:#000000;fill-opacity:1;fill-rule:nonzero;stroke:none"
         d="m 287.44237,629.84568 5.97408,0 0,28.44485 -5.97408,0 0,-28.44485 z m 0,-10.63849 5.97408,0 0,6.79513 -5.97408,0 0,-6.79513 z"
         inkscape:connector-curvature="0" />
      <g
         transform="matrix(5.037163,0,0,-5.037163,300.2141,629.84316)"
         id="g3049">
        <path
           id="path3051"
           style="fill:#000000;fill-opacity:1;fill-rule:nonzero;stroke:none"
           d="m 0,0 1.132,0 0,-0.892 0.021,0 c 0.37,0.729 1.012,1.022 1.72,1.022 0.805,0 1.457,-0.663 1.457,-1.555 l 0,-4.222 -1.185,0 0,3.983 c 0,0.597 -0.251,0.859 -0.806,0.859 -0.543,0 -1.153,-0.533 -1.153,-1.273 l 0,-3.569 L 0,-5.647 0,0 z"
           inkscape:connector-curvature="0" />
      </g>
      <g
         transform="matrix(5.037163,0,0,-5.037163,343.9664,641.46238)"
         id="g3053">
        <path
           id="path3055"
           style="fill:#000000;fill-opacity:1;fill-rule:nonzero;stroke:none"
           d="M 0,0 0,0.467 C 0,1.012 -0.25,1.545 -0.979,1.545 -1.643,1.545 -1.958,1.044 -1.958,0.5 L -1.958,0 0,0 z m -3.155,-1.393 0,1.567 c 0,1.469 1,2.263 2.209,2.263 1.261,0 2.089,-0.773 2.089,-2.067 l 0,-1.207 -3.101,0 0,-0.545 c 0,-0.805 0.489,-1.11 1.24,-1.11 0.588,0 1.088,0.229 1.403,0.37 L 1.001,-2.926 C 0.446,-3.34 -0.25,-3.471 -0.925,-3.471 c -1.262,0 -2.23,0.609 -2.23,2.078"
           inkscape:connector-curvature="0" />
      </g>
      <g
         transform="matrix(5.037163,0,0,-5.037163,365.80199,629.84316)"
         id="g3057">
        <path
           id="path3059"
           style="fill:#94c11c;fill-opacity:1;fill-rule:nonzero;stroke:none"
           d="m 0,0 1.131,0 0,-0.892 0.023,0 c 0.369,0.729 1.011,1.022 1.718,1.022 0.806,0 1.458,-0.663 1.458,-1.555 l 0,-4.222 -1.186,0 0,3.983 c 0,0.597 -0.25,0.859 -0.805,0.859 -0.543,0 -1.153,-0.533 -1.153,-1.273 l 0,-3.569 L 0,-5.647 0,0 z"
           inkscape:connector-curvature="0" />
      </g>
      <g
         transform="matrix(5.037163,0,0,-5.037163,409.5558,641.46238)"
         id="g3061">
        <path
           id="path3063"
           style="fill:#94c11c;fill-opacity:1;fill-rule:nonzero;stroke:none"
           d="M 0,0 0,0.467 C 0,1.012 -0.25,1.545 -0.979,1.545 -1.643,1.545 -1.958,1.044 -1.958,0.5 L -1.958,0 0,0 z m -3.155,-1.393 0,1.567 c 0,1.469 1,2.263 2.209,2.263 1.262,0 2.089,-0.773 2.089,-2.067 l 0,-1.207 -3.101,0 0,-0.545 c 0,-0.805 0.489,-1.11 1.24,-1.11 0.587,0 1.088,0.229 1.403,0.37 L 1.001,-2.926 C 0.446,-3.34 -0.25,-3.471 -0.925,-3.471 c -1.262,0 -2.23,0.609 -2.23,2.078"
           inkscape:connector-curvature="0" />
      </g>
      <g
         transform="matrix(5.037163,0,0,-5.037163,421.13473,651.16194)"
         id="g3065">
        <path
           id="path3067"
           style="fill:#94c11c;fill-opacity:1;fill-rule:nonzero;stroke:none"
           d="m 0,0 0,4.232 1.186,0 0,-3.917 c 0,-0.598 0.185,-0.924 0.783,-0.924 0.631,0 1.175,0.587 1.175,1.327 l 0,3.514 1.186,0 0,-5.647 -1.109,0 -0.033,0.903 -0.022,0 C 2.927,-1.11 2.241,-1.545 1.534,-1.545 0.729,-1.545 0,-1.012 0,0"
           inkscape:connector-curvature="0" />
      </g>
      <g
         transform="matrix(5.037163,0,0,-5.037163,464.9923,641.46238)"
         id="g3069">
        <path
           id="path3071"
           style="fill:#94c11c;fill-opacity:1;fill-rule:nonzero;stroke:none"
           d="M 0,0 0,0.467 C 0,1.012 -0.251,1.545 -0.98,1.545 -1.643,1.545 -1.959,1.044 -1.959,0.5 L -1.959,0 0,0 z m -3.156,-1.393 0,1.567 c 0,1.469 1.001,2.263 2.209,2.263 1.263,0 2.09,-0.773 2.09,-2.067 l 0,-1.207 -3.102,0 0,-0.545 c 0,-0.805 0.49,-1.11 1.241,-1.11 0.587,0 1.088,0.229 1.403,0.37 l 0.316,-0.804 c -0.555,-0.414 -1.252,-0.545 -1.926,-0.545 -1.262,0 -2.231,0.609 -2.231,2.078"
           inkscape:connector-curvature="0" />
      </g>
      <g
         transform="matrix(5.037163,0,0,-5.037163,504.47156,642.8335)"
         id="g3073">
        <path
           id="path3075"
           style="fill:#000000;fill-opacity:1;fill-rule:nonzero;stroke:none"
           d="m 0,0 -0.947,3.438 -0.021,0 L -1.936,0 0,0 z m -1.664,4.712 1.523,0 2.285,-7.78 -1.284,0 -0.577,2.079 -2.491,0 -0.578,-2.079 -1.186,0 2.308,7.78 z"
           inkscape:connector-curvature="0" />
      </g>
      <g
         transform="matrix(5.037163,0,0,-5.037163,536.6268,649.63064)"
         id="g3077">
        <path
           id="path3079"
           style="fill:#000000;fill-opacity:1;fill-rule:nonzero;stroke:none"
           d="m 0,0 0,2.198 c 0,0.544 -0.217,0.925 -0.892,0.925 -0.588,0 -1.099,-0.555 -1.099,-1.425 l 0,-1.284 c 0,-0.838 0.598,-1.403 1.164,-1.403 C -0.315,-0.989 0,-0.674 0,0 m -3.177,3.928 1.132,0 0,-0.892 0.022,0 c 0.369,0.729 1.054,1.034 1.61,1.034 1.087,0 1.599,-0.838 1.599,-1.785 l 0,-2.209 c 0,-1.087 -0.675,-1.925 -1.741,-1.925 -0.522,0 -1.175,0.305 -1.414,0.86 l -0.022,0 0,-2.677 -1.186,0 0,7.594 z"
           inkscape:connector-curvature="0" />
      </g>
      <g
         transform="matrix(5.037163,0,0,-5.037163,564.39315,648.64336)"
         id="g3081">
        <path
           id="path3083"
           style="fill:#000000;fill-opacity:1;fill-rule:nonzero;stroke:none"
           d="m 0,0 0,1.85 c 0,0.62 -0.316,1.088 -1.012,1.088 -0.707,0 -0.99,-0.5 -0.99,-1.132 l 0,-1.817 c 0,-0.653 0.305,-1.098 1.012,-1.098 C -0.25,-1.109 0,-0.631 0,0 m -3.199,0.022 0,1.731 c 0,1.392 0.979,2.11 2.176,2.11 1.218,0 2.22,-0.642 2.22,-2.078 l 0,-1.741 c 0,-1.448 -1.012,-2.089 -2.198,-2.089 -1.219,0 -2.198,0.631 -2.198,2.067"
           inkscape:connector-curvature="0" />
      </g>
      <g
         transform="matrix(5.037163,0,0,-5.037163,579.36914,652.53054)"
         id="g3085">
        <path
           id="path3087"
           style="fill:#000000;fill-opacity:1;fill-rule:nonzero;stroke:none"
           d="m 0,0 0,3.503 -0.838,0 0,0.947 0.838,0 0,1.513 1.197,0 0,-1.513 1.36,0 0,-0.947 -1.36,0 0,-3.133 c 0,-0.37 0.173,-0.567 0.62,-0.567 0.217,0 0.424,0.045 0.62,0.099 l 0,-0.958 C 2.067,-1.186 1.708,-1.242 1.382,-1.242 0.707,-1.242 0,-0.99 0,0"
           inkscape:connector-curvature="0" />
      </g>
      <g
         transform="matrix(5.037163,0,0,-5.037163,597.46313,619.20668)"
         id="g3089">
        <path
           id="path3091"
           style="fill:#000000;fill-opacity:1;fill-rule:nonzero;stroke:none"
           d="m 0,0 1.186,0 0,-2.938 0.022,0 c 0.337,0.652 1.001,0.957 1.665,0.957 0.859,0 1.458,-0.664 1.458,-1.556 l 0,-4.221 -1.186,0 0,3.949 c 0,0.599 -0.207,0.892 -0.805,0.892 -0.544,0 -1.154,-0.533 -1.154,-1.273 l 0,-3.568 L 0,-7.758 0,0 z"
           inkscape:connector-curvature="0" />
      </g>
      <g
         transform="matrix(5.037163,0,0,-5.037163,641.27134,641.46238)"
         id="g3093">
        <path
           id="path3095"
           style="fill:#000000;fill-opacity:1;fill-rule:nonzero;stroke:none"
           d="M 0,0 0,0.467 C 0,1.012 -0.25,1.545 -0.979,1.545 -1.643,1.545 -1.958,1.044 -1.958,0.5 L -1.958,0 0,0 z m -3.155,-1.393 0,1.567 c 0,1.469 1.001,2.263 2.209,2.263 1.262,0 2.089,-0.773 2.089,-2.067 l 0,-1.207 -3.101,0 0,-0.545 c 0,-0.805 0.489,-1.11 1.24,-1.11 0.588,0 1.088,0.229 1.404,0.37 L 1.002,-2.926 C 0.447,-3.34 -0.25,-3.471 -0.925,-3.471 c -1.262,0 -2.23,0.609 -2.23,2.078"
           inkscape:connector-curvature="0" />
      </g>
      <path
         inkscape:connector-curvature="0"
         d="m 653.00642,619.20668 5.97408,0 0,23.24147 9.09711,-12.60298 6.68432,0 -7.28878,9.53535 7.34922,18.90447 -6.3569,0 -5.37465,-14.41132 -4.11032,5.5308 0,8.88052 -5.97408,0 0,-39.07831 z"
         style="fill:#000000;fill-opacity:1;fill-rule:nonzero;stroke:none"
         id="path3099" />
      <g
         transform="matrix(5.037163,0,0,-5.037163,694.31468,641.46238)"
         id="g3101">
        <path
           id="path3103"
           style="fill:#000000;fill-opacity:1;fill-rule:nonzero;stroke:none"
           d="m 0,0 0,0.467 c 0,0.545 -0.25,1.078 -0.979,1.078 -0.664,0 -0.98,-0.501 -0.98,-1.045 L -1.959,0 0,0 z m -3.155,-1.393 0,1.567 c 0,1.469 1.001,2.263 2.209,2.263 1.262,0 2.089,-0.773 2.089,-2.067 l 0,-1.207 -3.102,0 0,-0.545 c 0,-0.805 0.49,-1.11 1.241,-1.11 0.589,0 1.088,0.229 1.405,0.37 L 1.002,-2.926 C 0.446,-3.34 -0.25,-3.471 -0.924,-3.471 c -1.263,0 -2.231,0.609 -2.231,2.078"
           inkscape:connector-curvature="0" />
      </g>
    </g>
    <g
       id="g5136">
      <g
         transform="matrix(5.037163,0,0,-5.037163,256.58471,566.05252)"
         id="g3105">
        <path
           id="path3107"
           style="fill:#94c11c;fill-opacity:1;fill-rule:nonzero;stroke:none"
           d="m 0,0 c -2.319,0 -3.288,0.729 -3.288,2.916 0,2.187 0.969,2.917 3.288,2.917 2.319,0 3.288,-0.73 3.288,-2.917 C 3.288,0.729 2.319,0 0,0 m 0,8.752 c -5.226,0 -7.164,-1.461 -7.164,-5.836 0,-4.374 1.938,-5.836 7.164,-5.836 5.226,0 7.164,1.462 7.164,5.836 0,4.375 -1.938,5.836 -7.164,5.836"
           inkscape:connector-curvature="0" />
      </g>
      <path
         inkscape:connector-curvature="0"
         d="m 724.8283,577.15947 0,-51.59062 c 0,-1.54641 -1.24922,-2.80067 -2.79563,-2.80067 l -13.93783,0 c -1.54137,0 -2.79562,1.25426 -2.79562,2.80067 l 0,51.59062 c 0,1.54641 1.24922,2.79563 2.79059,2.79563 l 13.9479,0 c 1.54137,0 2.79059,-1.24922 2.79059,-2.79563"
         style="fill:#000000;fill-opacity:1;fill-rule:nonzero;stroke:none"
         id="path3111" />
      <g
         transform="matrix(5.037163,0,0,-5.037163,738.93387,482.42)"
         id="g3113">
        <path
           id="path3115"
           style="fill:#94c11c;fill-opacity:1;fill-rule:nonzero;stroke:none"
           d="m 0,0 c 0,-0.306 -0.248,-0.555 -0.555,-0.555 l -2.144,0 c -0.203,-0.003 -0.366,-0.167 -0.366,-0.37 l 0,-2.14 c 0,-0.306 -0.249,-0.555 -0.556,-0.555 l -2.236,0 c -0.307,0 -0.555,0.249 -0.556,0.555 l 0,2.14 c 0,0.203 -0.163,0.367 -0.365,0.37 l -2.144,0 c -0.307,0 -0.555,0.249 -0.555,0.555 l 0,2.237 c 0,0.306 0.248,0.555 0.555,0.555 l 2.143,0 c 0.202,0.002 0.366,0.167 0.366,0.37 l 0,2.14 c 0,0.306 0.249,0.555 0.556,0.555 l 2.236,0 c 0.307,0 0.556,-0.248 0.556,-0.555 l 0,-2.14 c 0,-0.203 0.164,-0.368 0.367,-0.37 l 2.143,0 C -0.248,2.792 0,2.543 0,2.237 L 0,0 z m 0.671,5.003 -1.348,0 c -0.102,0 -0.185,0.083 -0.185,0.185 l 0,1.335 c 0,0.845 -0.684,1.529 -1.528,1.529 l -4.697,0 c -0.845,0 -1.528,-0.684 -1.528,-1.529 l 0,-1.335 c 0,-0.102 -0.083,-0.185 -0.185,-0.185 l -1.347,0 C -10.991,5 -11.673,4.317 -11.673,3.474 l 0,-4.711 c 0,-0.844 0.685,-1.529 1.529,-1.529 l 1.344,0 c 0.102,0 0.185,-0.083 0.185,-0.185 l 0,-1.343 c 0.004,-0.84 0.686,-1.521 1.528,-1.521 l 4.697,0 c 0.841,0 1.524,0.68 1.528,1.521 l 0,1.343 c 0,0.102 0.083,0.185 0.185,0.185 l 1.345,0 c 0.843,0 1.527,0.685 1.527,1.529 l 0,4.711 c 0,0.843 -0.682,1.527 -1.524,1.529"
           inkscape:connector-curvature="0" />
      </g>
      <g
         transform="matrix(5.037163,0,0,-5.037163,169.39948,561.65307)"
         id="g3117">
        <path
           id="path3119"
           style="fill:#94c11c;fill-opacity:1;fill-rule:nonzero;stroke:none"
           d="m 0,0 -7.267,0 0,8.689 7.267,0 C 1.4,8.689 3.527,8.293 3.51,4.344 3.493,0.396 1.4,0 0,0 m 0.319,12.323 -11.511,0 c -0.307,0 -0.555,-0.249 -0.555,-0.556 l 0,-14.845 c 0,-0.307 0.248,-0.555 0.555,-0.555 l 11.511,0 c 2.854,0 7.492,0.553 7.512,7.977 0.02,7.425 -4.658,7.979 -7.512,7.979"
           inkscape:connector-curvature="0" />
      </g>
      <g
         transform="matrix(5.037163,0,0,-5.037163,366.38278,577.15947)"
         id="g3121">
        <path
           id="path3123"
           style="fill:#94c11c;fill-opacity:1;fill-rule:nonzero;stroke:none"
           d="m 0,0 0,1.918 c -0.001,0.306 -0.248,0.554 -0.555,0.554 l -5.221,0 c -0.901,0 -2.443,0 -2.443,2.649 0,2.769 1.519,2.769 2.442,2.769 l 5.062,0 c 0.307,0 0.555,0.249 0.555,0.556 l 0,1.796 c 0,0.307 -0.248,0.556 -0.555,0.556 l -5.451,0 c -1.953,0 -5.929,0 -5.929,-5.677 0,-5.677 3.976,-5.677 5.929,-5.677 l 5.61,0 C -0.249,-0.556 0,-0.307 0,0"
           inkscape:connector-curvature="0" />
      </g>
      <g
         transform="matrix(5.037163,0,0,-5.037163,793.22089,544.2406)"
         id="g3125">
        <path
           id="path3127"
           style="fill:#000000;fill-opacity:1;fill-rule:nonzero;stroke:none"
           d="m 0,0 -6.181,0 c -0.364,0 -0.857,0 -0.857,0.677 0,0.678 0.493,0.678 0.857,0.678 2.052,0 7.93,0 7.93,0 0.303,0.004 0.547,0.251 0.547,0.555 l 0,1.797 c 0,0.307 -0.249,0.555 -0.555,0.555 l -8.796,0 c -1.968,0 -3.549,-1.596 -3.549,-3.565 0,-1.969 1.581,-3.446 3.549,-3.446 l 6.242,0 c 0.258,0 0.877,0 0.877,-0.717 0,-0.718 -0.619,-0.718 -0.877,-0.718 l -9.076,0 c -0.307,0 -0.555,-0.248 -0.555,-0.555 l 0,-1.796 c 0,-0.307 0.248,-0.555 0.555,-0.555 l 9.889,0 c 1.969,0 3.55,1.596 3.55,3.564 C 3.55,-1.556 1.969,0 0,0"
           inkscape:connector-curvature="0" />
      </g>
      <g
         transform="matrix(5.037163,0,0,-5.037163,600.14593,577.15947)"
         id="g3129">
        <path
           id="path3131"
           style="fill:#000000;fill-opacity:1;fill-rule:nonzero;stroke:none"
           d="m 0,0 c 0,-0.307 0.248,-0.556 0.555,-0.556 l 2.765,0 c 0.307,0 0.555,0.249 0.555,0.556 0,0 10e-4,3.681 10e-4,4.962 0,2.187 0.969,2.916 3.288,2.916 l 0.916,0 c 0.307,0 0.556,0.249 0.556,0.556 l 0,1.788 c 0,0.307 -0.249,0.556 -0.556,0.556 -0.002,0 -0.58,0.02 -0.916,0.02 C 1.938,10.798 0,9.337 0,4.962 L 0,0 z"
           inkscape:connector-curvature="0" />
      </g>
      <g
         transform="matrix(5.037163,0,0,-5.037163,650.73667,577.15947)"
         id="g3133">
        <path
           id="path3135"
           style="fill:#000000;fill-opacity:1;fill-rule:nonzero;stroke:none"
           d="m 0,0 c 0,-0.307 0.249,-0.556 0.556,-0.556 l 2.765,0 c 0.306,0 0.555,0.249 0.555,0.556 l 0,4.962 c 10e-4,2.187 0.97,2.916 3.288,2.916 l 0.917,0 c 0.307,0 0.556,0.249 0.556,0.556 l 0,1.788 c 0,0.307 -0.249,0.556 -0.556,0.556 -0.003,0 -0.58,0.02 -0.917,0.02 C 1.938,10.798 0,9.337 0,4.962 L 0,0 z"
           inkscape:connector-curvature="0" />
      </g>
      <g
         transform="matrix(5.037163,0,0,-5.037163,550.9127,566.05252)"
         id="g3137">
        <path
           id="path3139"
           style="fill:#000000;fill-opacity:1;fill-rule:nonzero;stroke:none"
           d="m 0,0 c -2.318,0 -3.288,0.729 -3.288,2.916 0,2.187 0.97,2.917 3.288,2.917 2.319,0 3.288,-0.73 3.288,-2.917 C 3.288,0.729 2.319,0 0,0 m 0,8.752 c -5.226,0 -7.164,-1.461 -7.164,-5.836 0,-4.374 1.938,-5.836 7.164,-5.836 5.226,0 7.164,1.462 7.164,5.836 0,4.375 -1.938,5.836 -7.164,5.836"
           inkscape:connector-curvature="0" />
      </g>
      <g
         transform="matrix(5.037163,0,0,-5.037163,448.31778,579.9556)"
         id="g3141">
        <path
           id="path3143"
           style="fill:#000000;fill-opacity:1;fill-rule:nonzero;stroke:none"
           d="m 0,0 c 0.209,0 0.391,0.116 0.485,0.287 0,0 4.255,8.682 5.714,11.556 0.005,0.01 0.018,0.034 0.029,0.037 0.012,0.002 0.029,0 0.029,-0.037 l 0,-11.288 C 6.257,0.248 6.506,0 6.813,0 l 3.013,0 c 0.306,0.001 0.554,0.249 0.554,0.555 l 0,14.846 c 0,0.306 -0.249,0.555 -0.556,0.555 l -5.439,0 c -0.212,0 -0.395,-0.118 -0.489,-0.292 0,0 -5.027,-9.276 -5.069,-9.354 -0.042,0.078 -5.069,9.354 -5.069,9.354 -0.094,0.174 -0.278,0.292 -0.489,0.292 l -5.439,0 c -0.307,0 -0.555,-0.249 -0.555,-0.555 l 0,-14.846 c 0,-0.306 0.247,-0.554 0.553,-0.555 l 3.013,0 c 0.307,0 0.555,0.248 0.555,0.555 l 0,11.288 c 0,0.037 0.018,0.039 0.03,0.037 0.011,-0.003 0.023,-0.027 0.029,-0.037 C -7.087,8.969 -2.831,0.287 -2.831,0.287 -2.737,0.116 -2.555,0 -2.346,0 L 0,0 z"
           inkscape:connector-curvature="0" />
      </g>
    </g>
  </g>
</svg>
