<svg
   xmlns="http://www.w3.org/2000/svg"
   version="1.1"
   id="svg2"
   viewBox="0 0 981.43951 220.6239"
   height="62.264969mm"
   width="276.98404mm">
  <defs
     id="defs4">
    <clipPath
       clipPathUnits="userSpaceOnUse"
       id="clipPath4150">
      <path
         d="m 0,329.629 942.628,0 L 942.628,0 0,0 0,329.629 Z"
         id="path4152" />
    </clipPath>
  </defs>
  <g
     transform="translate(-600.70882,-890.62165)"
     id="layer1">
    <g
       id="g4144"
       transform="matrix(1.25,0,0,-1.25,504.2802,1201.4593)">
      <g
         id="g4146">
        <g
           id="g4148"
           clip-path="url(#clipPath4150)">
          <g
             id="g4154"
             transform="translate(175.0479,177.3706)">
            <path
               d="M 0,0 C -1.156,1.211 -1.961,4.215 -2.181,4.673 -4.702,2.738 -2.181,-0.856 0,0 M 2.036,0.577 C 4.676,1.596 3.564,6.665 0.052,5.936 0.262,5.527 1.862,2.408 2.036,0.577 m -3,6.437 c 2.552,0.517 5.62,-2.065 8.576,-3.434 -2.776,-4.04 -9.29,-4.355 -11.9,-5.795 -0.586,0.898 -2.556,8.079 3.324,9.229 M -23.817,4.466 c -0.185,-0.438 -1.001,-3.373 -2.119,-4.574 2.119,-0.832 4.615,2.678 2.119,4.574 m -2.167,1.231 c -3.432,0.714 -4.524,-4.235 -1.939,-5.234 0.165,1.8 1.734,4.833 1.939,5.234 m 4.181,-7.957 c -2.54,1.404 -8.852,1.707 -11.564,5.638 2.885,1.322 5.871,3.848 8.368,3.333 5.693,-1.122 3.778,-8.08 3.196,-8.971 m -16.222,44.718 c -8.862,-16.66 21.736,-9.087 17.767,-23.267 6.949,16.575 -20.888,7.961 -17.767,23.267 m -5.381,17.139 c -1.632,5.51 -10.663,3.06 -8.833,0.852 0.86,-1.032 4.385,2.044 8.833,-0.852 m -3.902,-19.34 c 0.388,5.244 3.739,9.872 3.691,15.209 -0.058,7.851 -9.068,0.429 -10.437,3.734 -3.606,8.762 23.021,13.179 22.711,-2.335 -0.178,-8.167 -2.439,-17.197 3.952,-18.132 l 4.842,19.776 5.091,-28.381 c -4.641,5.84 -13.813,3.428 -15.871,12.78 -1.509,6.787 6.999,23.836 -11.753,22.583 21.706,-6.606 -12.086,-25.008 7.986,-36.761 5.372,-3.161 7.261,-8.759 4.851,-11.176 -0.319,7.967 -8.235,8.961 -11.145,12.341 -2.59,3.033 -3.668,5.746 -3.913,8.301 l -7.474,3.565 7.469,-1.504 z m 25.433,-28.779 c -2.999,0.022 -6.466,-3.327 -7.101,-1.157 -0.474,1.684 2.608,4.475 6.633,4.763 -3.405,0.956 -9.028,-2.201 -10.041,-5.64 -1.079,-0.104 -2.954,1.295 -2.954,1.295 0.931,-7.898 8.291,-0.96 11.097,-0.96 2.513,0 10.398,-5.687 10.553,1.379 -2.767,-3.225 -4.715,0.32 -8.187,0.32 M -6.8,7.775 c 3.99,0 4.584,1.864 7.618,1.864 3.018,0 4.121,-1.987 6.555,-1.987 2.406,0 3.876,1.743 2.763,3.269 -1.558,-2.567 -4.355,0.913 -6.408,0.913 -3.147,0 -4.491,-1.297 -6.538,-2.313 -2.293,-1.167 -4.494,-0.057 -3.634,1.292 -1.779,0.02 -2.906,2.188 0.117,4.751 -5.33,-0.59 -4.483,-7.789 -0.473,-7.789 m 4.245,-28.26 c -0.153,-0.396 -1.319,-0.864 -3.695,-1.765 -0.323,-0.528 -1.054,-1.414 -1.782,-1.846 2.826,-0.788 5.976,2.078 5.477,3.611 m -2.772,-10.036 c 4.796,-8.494 -4.759,-11.369 -1.821,-24.501 2.004,-8.897 6.494,-8.08 6.892,-14.668 0.434,-6.573 -3.559,-11.094 -0.649,-15.466 2.874,-4.332 8.571,-6.261 6.738,-11.802 2.967,5.447 -2.681,9.754 -4.159,15.732 -1.112,4.594 5.827,8.685 3.85,14.667 -0.816,2.448 -1.781,3.988 -3.404,7.254 l -3.403,6.863 c -4.118,8.696 4.115,14.948 -4.044,21.921 m -16.87,-46.456 c 6.086,7.616 2.179,3.88 4.372,14.137 1.353,6.336 3.279,6.124 5.325,11.304 1.776,4.51 0.913,14.544 -6.091,19.345 3.772,-6.518 3.54,-11.094 1.97,-16.5 -1.566,-5.381 -3.783,-5.947 -6.158,-12.062 -1.778,-4.609 -0.854,-9.164 -0.854,-9.164 l 1.436,-7.06 z m -4.28,-3.245 c 0,6.677 -2.043,6.229 -2.043,14.323 0,8.824 7.538,11.197 8.169,18.144 0.87,9.365 -8.425,9.625 -5.44,22.739 -3.948,-17.342 1.653,-15.963 1.653,-22.163 0,-6.198 -9.867,-6.967 -9.867,-17.843 0,-6.406 3.94,-8.179 3.94,-15.002 0,-6.835 -4.429,-8.696 -4.429,-8.696 1.662,-0.187 8.017,1.058 8.017,8.498 m 2.072,62.325 c 0.143,-1.143 5.155,-3.053 5.155,-3.053 0,0 -1.232,-0.95 -3.814,-0.024 1.332,-2.29 4.63,-2.26 4.63,-2.26 0,0 -0.246,-1.354 -3.858,-0.391 0.875,-2.564 4.712,-3.189 5.936,-2.826 1.305,0.395 2.821,4.497 2.234,5.757 0,0 -5.278,2.491 -10.283,2.797 m 2.294,3.763 c 0.14,-2.941 4.412,-3.739 6.162,-3.493 -5.367,1.22 -5.059,4.205 -3.215,4.812 0.085,1.208 -3.046,0.993 -2.947,-1.319 m 2.81,-14.063 c -0.608,0 -0.738,-0.208 -0.738,-0.326 -0.037,-0.216 0.282,-0.492 0.733,-0.614 0.032,-0.005 4.255,-1 6.762,-0.868 2.482,-0.132 6.713,0.863 6.755,0.868 0.45,0.122 0.757,0.398 0.737,0.614 -0.024,0.118 -0.149,0.326 -0.767,0.326 -0.109,0 -4.447,-0.124 -6.725,-0.124 -2.292,0 -6.622,0.124 -6.757,0.124 m -22.819,-8.095 c -0.277,7.952 4.729,18.204 6.871,19.349 -15.684,-8.389 -8.871,-22.392 -13.287,-30.452 -6.809,-12.373 -18.806,-5.599 -22.796,-13.093 -2.484,-4.647 4.171,-4.874 4.171,-14.874 0,2.423 -0.861,8.257 3.695,10.718 l -2.086,-0.191 c -0.653,2.354 -3.023,1.61 -3.023,1.61 2.4,4.053 11.749,1.25 24.935,12.473 11.67,9.92 10.896,25.676 14.2,31.659 l -3.149,-3.157 c -4.654,-4.993 -4.84,-13.136 -10.724,-22.576 1.122,1.803 1.347,4.274 1.193,8.534 M -70.131,-70.96 c -0.698,-4.363 -2.636,-3.348 -2.976,-3.166 -0.338,0.187 -0.476,0.665 -0.216,0.995 0.302,0.364 0.347,0.86 -0.074,1.211 -0.426,0.354 -3.567,-0.566 -2.984,-3.663 0.272,-1.521 1.804,-3.078 4.193,-2.783 2.353,0.296 4.63,2.408 2.057,7.406 m 24.139,49.257 c -2.67,-4.235 -7.166,-8.183 -12.807,-6.893 -5.64,1.301 -14.305,3.145 -16.849,-5.313 6.549,7.267 19.302,-10.035 29.656,12.206 m -38.981,-16.061 c 3.173,-2.399 7.429,1.515 5.417,5.446 -7.552,-4.161 -10.064,4.828 -14.926,-1.074 1.833,0.507 3.681,-0.551 6.89,-2.955 l 2.619,-1.417 z m 30.299,16.061 c 5.489,0.325 9.747,1.989 10.019,6.082 -1.325,-1.518 -4.55,-3.587 -10.214,-3.936 -5.621,-0.345 -14.878,6.567 -18.423,-3.618 7.989,4.431 15.419,-5.421 20.784,-0.69 m -2.978,16.416 c -7.802,-1.458 -19.091,8.7 -21.205,11.159 -1.272,1.48 -2.472,2.964 -4.914,3.321 -0.149,0.035 -0.113,-0.17 -0.084,-0.423 0.026,-0.347 0.084,-0.859 -0.13,-0.962 -0.137,-0.077 -0.489,-0.01 -1.357,0.738 -0.873,0.766 -2.228,1.125 -3.776,1 -1.346,-0.102 -2.721,-0.574 -3.618,-1.246 -0.909,-0.672 -1.225,-1.42 -0.909,-2.11 0.466,-1.078 1.986,-0.256 3.72,-0.133 1.4,0.079 2.993,-0.583 4.407,-1.034 1.129,-0.344 1.918,-1.595 3.067,-2.841 5.741,-6.224 17.053,-10.708 24.799,-7.469 m -39.626,4.653 c 0,0 6.94,6.62 12.881,0.699 -4.868,4.84 -10.83,6.044 -12.881,-0.699 m 31.039,32.506 c -12.291,2.095 -9.274,9.075 -7.063,12.903 -7.368,0.574 -7.749,-16.175 7.063,-12.903 M 41.581,-10.28 c 2.836,-0.202 11.65,10.017 8.612,11.226 -3.017,1.233 -2.801,-8.993 -8.612,-11.226 m -45.429,-7.834 c -0.856,-0.62 -2.931,-1.216 -4.551,-2.295 -0.172,-0.285 -0.444,-1.264 -0.796,-1.501 1.651,-0.344 5.215,2.038 5.347,3.796 m -36.293,29.2 c -13.87,-2.284 -5.9,14.407 -16.588,15.121 5.869,-2.799 3.42,-6.453 4.315,-12.26 1.087,-6.994 9.816,-7.883 12.273,-2.861 M 9.4,-3.461 c 0.345,-2.048 3.97,2.22 10.912,-0.743 C 17.938,-0.76 8.878,-0.423 9.4,-3.461 m 20.611,24.129 c 3.357,0.864 5.433,-2.081 8.05,-1.3 1.46,0.421 1.497,2.075 0.333,2.504 0,0 4.433,4.571 2.951,7.125 -3.644,-7.394 -10.63,-7.125 -11.334,-8.329 m -11.354,14.48 c 3.744,5.471 7.178,4.535 8.96,10.353 -2.515,-4.638 -8.945,-5.604 -11.523,-9.417 -4.495,-6.669 1.509,-16.33 -7.935,-19.124 11.904,-0.3 6.198,13.437 10.498,18.188 M 7.829,29.237 c -1.622,-4.374 -6.135,-5.598 -8.321,-9.421 1.225,-0.032 7.612,2.44 10.034,6.509 2.324,3.937 0.183,14.444 7.672,17.256 7.813,2.939 16.002,7.267 6.758,16.684 C 38.151,56.67 30.177,41.596 28.5,39.38 26.904,37.332 21.682,33.211 21.682,26.569 c 0,-4.897 -4.424,-10.498 -7.869,-11.18 3.641,-1.462 9.063,6.84 9.063,6.84 l 17.69,22.779 -10.173,-5.236 c 0,0 2.789,2.398 2.789,10.357 0,11.241 -12.123,13.257 -11.995,9.764 0.086,-2.314 4.117,-3.956 4.234,-7.785 0.127,-3.828 -5.258,-5.992 -9.458,-7.206 l -1.869,6.286 0,-7.071 C 7.225,40.582 9.542,33.846 7.829,29.237 M 12.703,1.562 c 0.72,-1.567 3.653,1.919 8.075,0.578 C 18.644,3.595 12.32,3.58 12.703,1.562 M -7.022,50.523 c 4.29,-13.851 -5.672,-13.829 -5.646,-20.658 -1.75,8.002 7.893,13.218 5.646,20.658 m 0.075,-28.475 c -6.989,-3.173 -5.536,5.107 -3.616,7.249 0,0 3.328,-4.655 8.003,-6.588 -6.233,10.295 0.8,10.032 -0.359,23.56 C -3.5,53.103 -7.148,55.362 -7.05,61.633 -6.921,69.181 4.229,71.166 4.344,68.25 4.422,66.175 -3.769,65.949 -3.899,58.147 -4.007,50.843 4.181,49.08 3.989,41.983 3.859,37.339 -4.505,33.051 0.714,24.316 L 12.585,57.707 3.496,47.46 c -2.915,3.614 -5.214,3.957 -5.214,10.451 0,6.516 7.279,7.447 7.279,10.47 0,2.437 -3.645,2.785 -6.298,2.912 -4.117,0.18 -11.39,-3.363 -11.39,-10.925 0,-7.568 5.118,-11.396 0.034,-18.484 l -4.404,6.617 3.263,-8.471 c 0,0 -2.976,-3.466 -2.976,-9.633 0,-12.1 9.96,-13.218 9.263,-8.349 m 63.447,-85.879 -1.745,1.783 c 2.417,-0.477 5.347,1.438 7.098,2.476 -3.27,-1.93 -7.516,-0.768 -10.442,1.566 l 1.56,-2.501 c -7.775,2.068 -6.919,14.603 -11.533,18.632 -3.959,3.476 -8.434,1.59 -14.442,6.199 -5.937,4.55 -8.389,16.583 -19.388,24.002 14.957,4.23 19.865,-22.792 34.185,-22.792 7.14,0 10.916,6.027 17.353,7.036 4.513,0.7 9.442,0.305 10.217,-3.756 0.8,-4.27 -0.796,-7.632 -0.796,-7.632 0,0 2.18,2.318 2.18,6.465 0,8.158 -8.172,8.06 -10.952,7.838 -6.323,-0.516 -7.859,-4.584 -15.752,-2.772 C 33.999,-24.967 32,-7.511 20.304,-6.42 c 6.104,5.081 11.96,-4.114 17.481,-4.038 4.008,0.07 5.358,3.309 7.991,9.777 3.039,7.474 7.277,1.373 10.653,-1.773 3.414,-3.12 8.402,-1.928 11.317,0.608 -0.782,-2.41 -3.472,-2.358 -2.422,-3.949 0.462,-0.709 1.166,-0.379 1.922,0.298 3.829,3.538 4.74,12.834 0.618,15.059 3.147,-14.769 -9.896,-11.307 -9.534,-9.325 2.419,-0.813 6.53,1.627 4.839,1.627 -11.358,0 -9.622,5.492 -15.822,4.916 0,0 -5.164,0.234 -8.262,-8.068 -1.984,-5.314 -7.314,2.062 -13.613,0 4.223,5.591 7.394,0.907 10.86,3.233 3.467,2.358 7.484,9.616 15.708,5.98 l 4.389,3.843 -2.925,-4.786 C 62.049,1.364 67.007,1.891 66.171,12.465 77.227,6.024 71.131,-8.803 62.763,-8.7 c -4.944,0.042 -6.631,2.549 -9.478,3.654 -2.012,0.753 -3.619,-0.786 -5.505,-2.765 l 7.938,-3.114 -9.622,1.393 c -2.92,-2.87 -7.267,-5.403 -13.397,-2.664 l 1.202,-2.255 33.811,0 -23.139,-10.305 c 6.184,-1.28 13.799,6.307 22.532,1.058 8.416,-5.052 4.615,-16.543 1.099,-16.519 -3.144,0.035 2.871,10.331 -5.726,10.114 -3.157,-0.073 -5.682,-2.659 -8.752,-5.086 l 2.825,-7.007 -4.642,5.668 c -2.491,-1.788 -5.163,-3.142 -8.19,-2.744 l 15.994,-9.437 -10.898,0 c -0.13,-2.668 0.118,-4.537 1.201,-6.849 l 1.097,0.457 c 0.848,-1.753 5.764,-4.696 12.676,-3.516 -2.571,-9.935 -16.963,-7.138 -19.702,-4.351 l 0.148,-3.58 c -6.298,15.514 -11.138,16.44 -20.511,16.44 l 21.808,-22.015 -5.207,1.094 c 1.571,-6.178 -5.831,-16.953 -11.133,-17.562 -2.067,-0.233 3.743,4.076 3.743,10.225 0,6.184 -6.888,8.061 -9.812,10.474 -5.344,4.427 -7.505,13.45 -9.572,16.932 3.757,-1.959 8.205,-9.257 11.467,-12.979 3.282,-3.712 10.221,-6.445 10.221,-12.26 0,-5.804 -2.171,-7.843 -2.426,-8.548 2.178,0 8.98,11.901 2.544,17.592 -3.185,2.842 -5.213,4.63 -8.488,7.337 -4.308,3.58 -8.372,8.321 -11.204,12.502 -6.034,8.858 -15.665,15.19 -11.138,22.367 -6.989,-11.083 5.78,-19.414 7.236,-28.098 1.464,-8.682 6.147,-17.982 11.147,-19.224 -0.876,-0.24 -1.702,-0.329 -2.484,-0.329 l -1.414,0.128 c -8.105,1.556 -14.881,28.134 -14.881,24.333 0,-6.972 12.164,-38.706 12.164,-38.706 l -11.046,7.027 c -1.786,-7.267 6.189,-7.612 5.426,-14.205 -0.896,-7.46 -9.562,-6.77 -9.396,-5.071 0.106,1.079 3.423,-0.049 3.423,1.72 0,1.716 -5.36,2.775 -7.621,5.415 -1.39,1.624 -2.595,2.943 -3.077,9.148 l -3.378,-4.456 c 0,0 4.091,10.659 4.68,13.446 0.559,2.738 -5.839,3.064 -7.716,8.523 l -1.262,-27.129 -8.172,11.073 c -1.556,-12.162 -18.728,-11.344 -19.829,-10.084 12.475,9.237 6.442,13.388 3.339,21.246 l -6.593,-3.934 5.738,6.49 c -0.377,1.446 -0.498,3.303 -0.362,5.036 0.706,9.606 14.7,8.74 6.301,18.237 l -22.615,-36.277 2.862,19.527 c -13.411,-4.801 -8.765,-5.489 -12.601,-14.254 -3.132,-7.149 -9.521,-5.214 -11.44,-2.167 -2.837,4.411 0.622,7.741 4.33,7.574 2.234,1.84 -4.205,4.715 -1.629,10.521 3.757,8.459 14.344,4.786 19.72,11.828 l -13.233,-1.399 14.78,4.096 c 1.049,2.418 1.671,5.702 1.697,10.163 l -28.116,-15.495 8.561,14.097 c -15.701,-12.965 -19.489,3.299 -26.971,2.011 1.93,8.687 9.211,3.729 12.425,3.729 3.23,0 7.923,5.737 9.559,6.992 l -16.815,8.966 41.91,0 c 3.15,0 4.918,1.081 3.389,2.873 -1.988,2.386 -9.731,-0.438 -18.492,-1.09 -5.335,-0.374 -8.547,1.674 -11.188,4.101 l -7.375,-2.236 6.247,3.312 c -4.303,4.266 -7.589,8.644 -17.73,2.502 -3.144,8.145 4.433,15.103 11.238,15.275 9.676,0.251 11.556,-11.086 19.05,-7.13 l -12.83,14.895 20.828,-10.239 -2.665,7.89 -8.969,2.349 8.732,-0.715 c -2.43,8.135 -11.573,6.689 -15.32,10.658 -8.129,8.627 0.666,19.651 7.317,16.566 -4.587,-9.784 3.884,-13.959 10.905,-12.57 l -3.396,11.393 26.898,-27.209 c -6.167,-4.654 -13.023,-0.536 -16.417,9.543 -3.253,9.653 -9.886,-1.231 -20.076,2.521 5.388,-1.989 12.406,0.888 13.854,-10.741 0.948,-7.595 4.722,-14.542 12.974,-12.656 -3.204,-4.789 -10.892,1.157 -15.763,-5.761 8.48,0.94 11.561,-6.13 17.434,-10.163 -7.26,5.007 -2.014,10.2 -10.965,11.372 3.248,-0.424 5.766,-0.739 8.907,0.3 3.249,1.063 4.854,3.265 4.623,6.472 3.373,-1.345 3.681,-4.544 2.119,-6.617 -1.574,-2.081 -4.704,-3.24 -4.789,-5.025 0,0 0.095,0.325 2.257,1.369 -1.624,-2.171 -0.568,-5.136 1.222,-7.068 -0.095,1.29 -0.091,3.306 0.666,3.682 1.361,-3.141 4.424,-4.8 6.404,-4.327 -3.601,3.806 -1.121,7.051 -1.121,7.051 -1.566,0.039 -3.161,-2.211 -3.161,-2.211 0,0 -1.077,3.589 2.71,5.104 -0.3,0.531 -0.047,1.161 -0.047,1.161 3.081,-3.124 8.561,-2.969 10.095,-3.993 0,0 -8.01,1.14 -7.048,-3.249 0.897,-4.119 13.382,-1.374 11.806,11.235 0,0 2.162,0.224 2.955,-0.564 0.813,-0.758 -0.16,-3.082 -0.16,-3.082 l 1.594,-0.728 c 0,0 -1.691,-6.303 -1.302,-7.521 0.23,-0.693 3.076,-0.749 3.523,-0.766 0.623,-0.047 0.236,-0.65 -0.035,-0.65 l -4.493,0 c -0.657,-0.047 -2.636,-2.398 -0.762,-2.816 0,0 2.319,-0.589 4.672,-0.589 2.361,0 4.67,0.589 4.67,0.589 0,0 -0.382,-1.874 -4.72,-1.874 -4.317,0 -6.03,0.74 -6.03,0.74 -1.004,-2.7 4.705,-5.42 5.282,-5.601 0.592,-0.184 1.515,-0.124 1.708,0.005 0.193,0.142 4.154,3.28 4.154,3.28 l -1.199,-1.918 c 5.312,1.231 4.524,3.9 2.694,4.507 -0.074,1.208 3.048,0.993 2.949,-1.319 -0.128,-2.941 -7.661,-4.575 -8.598,-6.56 -0.602,-1.26 0.932,-5.362 2.227,-5.757 1.233,-0.363 4.168,-0.324 5.649,0.485 0.446,0.241 4.458,7.749 4.458,9.6 0,1.849 -4.13,10.931 -4.13,10.931 0.788,2.341 4.314,1.73 7.533,3.798 -5.24,-5.435 -1.686,-6.132 2.162,-6.304 -2.915,-2.457 -4.939,-4.056 -3.785,-7.847 16.944,-3.714 13.577,-23.326 25.842,-27.497 -9.748,-1.47 -17.63,10.873 -18.537,16.526 -0.363,-6.028 1.842,-11.389 6.465,-16.244 4.021,-4.191 10.999,-3.54 16.662,-3.561 10.052,-0.093 6.647,-13.023 15.052,-15.942 0,0 3.014,-1.325 8.503,-1.325 M 45.196,20.493 c 1.57,-10 -19.361,-6.251 -21.847,-14.355 4.017,13.07 19.769,4.747 21.847,14.355 M 26.283,1.945 c 2.134,6.192 11.734,6.042 15.841,8.764 2.875,1.896 5.666,3.836 5.796,12.916 0.109,7.774 3.761,9.828 5.936,10.521 0,2.221 -3.353,0.729 -6.142,-1.56 4.015,9.97 12.533,1.61 12.533,1.61 -5.044,8.732 -12.161,4.682 -14.754,0.374 -2.582,-4.345 -0.663,-14.156 -5.994,-16.583 -5.306,-2.443 -8.114,2.028 -11.836,0.96 -5.445,-1.561 -5.584,-8.755 -11.043,-6.421 4.178,2.667 3.991,5.182 6.783,8.226 5.817,6.359 15.353,-0.616 17.459,17.368 L 41.82,34.71 C 51.877,48.228 63.475,36.382 61.769,32.693 47.837,35.247 50.757,24.196 49.418,16.756 l 10.168,0 L 26.283,1.945 Z"
               style="fill:#9ea2a2;fill-opacity:1;fill-rule:nonzero;stroke:none"
               id="path4156" />
          </g>
          <g
             id="g4158"
             transform="translate(772.6582,238.0312)">
            <path
               d="m 0,0 c 7.426,0 12.732,-5.305 12.732,-12.556 0,-7.254 -5.306,-12.555 -12.732,-12.555 -7.431,0 -12.733,5.301 -12.733,12.555 C -12.733,-5.305 -7.431,0 0,0 m -11.848,-37.495 23.516,0 0,-81.346 -23.516,0 0,81.346 z M -113.217,0 c 7.427,0 12.734,-5.305 12.734,-12.556 0,-7.254 -5.307,-12.555 -12.734,-12.555 -7.428,0 -12.732,5.301 -12.732,12.555 0,7.251 5.304,12.556 12.732,12.556 m -11.848,-37.495 23.522,0 0,-81.346 -23.522,0 0,81.346 z m -96.278,-78.124 c 16.273,0 19.106,22.102 19.106,40.846 0,20.872 -6.193,35.372 -17.863,35.372 -7.606,0 -14.682,-6.018 -15.919,-17.682 l 0,-42.8 c 0,-7.957 6.72,-15.736 14.676,-15.736 m 4.601,-4.954 c -9.373,0 -15.917,4.242 -19.277,9.724 l 0,-7.96 -23.522,0 0,129.096 23.522,0 0,-55.178 c 3.541,6.196 11.495,10.085 21.752,10.085 21.754,0 36.431,-15.027 36.431,-39.611 0,-28.122 -15.563,-46.156 -38.906,-46.156 m 51.287,1.764 23.517,0 0,129.096 -23.517,0 0,-129.096 z m -134.247,0.003 23.518,0 0,81.344 -23.518,0 0,-59.768 c 0,-8.842 -8.666,-16.623 -17.33,-16.623 -9.022,0 -13.975,6.187 -13.975,18.746 0,13.964 10.09,57.645 10.09,57.645 l -23.519,0 c 0,0 -9.907,-43.681 -9.907,-56.939 0,-15.913 11.317,-26.168 28.122,-26.168 13.084,0 22.276,6.004 26.519,13.257 l 0,-11.494 z m -113.525,-1.803 c 29.179,0 49.163,20.867 49.163,50.931 0,35.549 -29.531,60.656 -62.073,60.656 -35.365,0 -61.011,-24.929 -61.011,-59.769 0,-12.907 3.362,-24.761 9.551,-35.021 l 3.533,1.776 c -4.244,7.78 -7.073,18.922 -7.073,29.18 0,29.531 21.226,46.154 47.927,46.154 26.346,0 46.151,-18.391 46.151,-45.803 0,-25.291 -13.964,-43.506 -36.423,-43.506 l 0,62.214 -23.522,0.02 0,-102.717 23.522,0 0,36.414 c 3.182,-0.353 6.363,-0.529 10.255,-0.529 m 366.238,85.773 c -26.524,0 -41.203,-18.751 -41.203,-42.8 0,-26.523 15.028,-42.973 41.378,-42.973 16.27,0 23.522,7.606 23.522,7.606 l -2.833,2.654 c 0,0 -6.367,-4.949 -14.857,-4.949 -16.444,0 -21.928,17.144 -21.928,37.841 0,23.87 5.659,37.672 20.339,37.672 8.313,0 13.797,-4.069 13.797,-4.069 l 2.833,3 c 0,0 -6.903,6.018 -21.048,6.018 M 58.757,-5.127 c 14.501,0 22.284,-6.722 22.284,-6.722 l -3.185,-2.652 c 0,0 -6.007,5.127 -17.153,5.127 -8.132,0 -13.792,-5.653 -13.792,-13.614 0,-10.083 9.723,-19.276 21.22,-31.125 10.083,-10.435 20.87,-22.28 20.87,-36.608 0,-18.565 -16.624,-29.888 -37.665,-29.888 -10.163,0 -17.383,2.511 -23.818,7.856 l 2.829,3.357 c 4.594,-4.069 11.612,-6.967 20.102,-6.967 10.605,0 18.57,5.479 18.57,14.678 0,9.726 -10.614,21.041 -20.874,31.655 -11.666,12.2 -22.989,24.581 -22.989,38.02 0,16.444 13.617,26.883 33.601,26.883"
               style="fill:#d62130;fill-opacity:1;fill-rule:nonzero;stroke:none"
               id="path4160" />
          </g>
          <g
             id="g4162"
             transform="translate(682.8955,82.8906)">
            <path
               d="m 0,0 c 3.897,0 6.451,2.083 6.451,5.174 l 0,0.067 c 0,3.361 -2.52,5.108 -6.317,5.108 l -5.946,0 L -5.812,0 0,0 Z m -8.468,12.801 8.804,0 c 5.31,0 8.804,-2.822 8.804,-7.459 l 0,-0.068 C 9.14,0.201 4.905,-2.42 -0.101,-2.42 l -5.711,0 0,-8.299 -2.656,0 0,23.52 z"
               style="fill:#d62130;fill-opacity:1;fill-rule:nonzero;stroke:none"
               id="path4164" />
          </g>
          <path
             d="m 696.719,95.691 2.654,0 0,-23.52 -2.654,0 0,23.52 z"
             style="fill:#d62130;fill-opacity:1;fill-rule:nonzero;stroke:none"
             id="path4166" />
          <g
             id="g4168"
             transform="translate(724.7773,95.6914)">
            <path
               d="m 0,0 -8.668,-11.524 9.004,-11.996 -3.158,0 -7.527,10.148 -7.526,-10.148 -3.058,0 9.005,11.996 L -20.597,0 -17.472,0 -10.281,-9.677 -3.091,0 0,0 Z"
               style="fill:#d62130;fill-opacity:1;fill-rule:nonzero;stroke:none"
               id="path4170" />
          </g>
          <g
             id="g4172"
             transform="translate(729.5254,95.6914)">
            <path
               d="m 0,0 17.001,0 0,-2.419 -14.347,0 0,-8.03 12.835,0 0,-2.419 -12.835,0 0,-8.233 14.515,0 0,-2.419 L 0,-23.52 0,0 Z"
               style="fill:#d62130;fill-opacity:1;fill-rule:nonzero;stroke:none"
               id="path4174" />
          </g>
          <g
             id="g4176"
             transform="translate(751.5264,95.6914)">
            <path
               d="m 0,0 2.654,0 0,-21.066 13.239,0 0,-2.454 L 0,-23.52 0,0 Z"
               style="fill:#d62130;fill-opacity:1;fill-rule:nonzero;stroke:none"
               id="path4178" />
          </g>
          <g
             id="g4180"
             transform="translate(780.3115,82.8906)">
            <path
               d="m 0,0 c 3.897,0 6.451,2.083 6.451,5.174 l 0,0.067 c 0,3.361 -2.52,5.108 -6.317,5.108 l -5.947,0 L -5.813,0 0,0 Z m -8.468,12.801 8.804,0 c 5.309,0 8.803,-2.822 8.803,-7.459 l 0,-0.068 c 0,-5.073 -4.234,-7.694 -9.241,-7.694 l -5.711,0 0,-8.299 -2.655,0 0,23.52 z"
               style="fill:#d62130;fill-opacity:1;fill-rule:nonzero;stroke:none"
               id="path4182" />
          </g>
          <g
             id="g4184"
             transform="translate(807.0771,80.8066)">
            <path
               d="M 0,0 -5.343,11.962 -10.719,0 0,0 Z m -6.553,15.053 2.487,0 10.718,-23.688 -2.855,0 -2.756,6.216 -12.802,0 -2.788,-6.216 -2.722,0 10.718,23.688 z"
               style="fill:#d62130;fill-opacity:1;fill-rule:nonzero;stroke:none"
               id="path4186" />
          </g>
          <g
             id="g4188"
             transform="translate(827.9229,83.6963)">
            <path
               d="m 0,0 c 3.527,0 6.048,1.814 6.048,4.839 l 0,0.067 c 0,2.89 -2.218,4.637 -6.015,4.637 l -7.258,0 L -7.225,0 0,0 Z m -9.879,11.995 10.113,0 c 2.89,0 5.208,-0.873 6.687,-2.351 1.142,-1.143 1.814,-2.79 1.814,-4.637 l 0,-0.068 c 0,-3.897 -2.687,-6.182 -6.383,-6.854 l 7.223,-9.609 -3.259,0 -6.82,9.138 -6.721,0 0,-9.138 -2.654,0 0,23.519 z"
               style="fill:#d62130;fill-opacity:1;fill-rule:nonzero;stroke:none"
               id="path4190" />
          </g>
          <g
             id="g4192"
             transform="translate(842.2695,95.6914)">
            <path
               d="m 0,0 2.654,0 0,-14.044 L 16.162,0 19.589,0 9.509,-10.281 20.025,-23.52 l -3.326,0 -9.038,11.391 -5.007,-5.074 0,-6.317 L 0,-23.52 0,0 Z"
               style="fill:#d62130;fill-opacity:1;fill-rule:nonzero;stroke:none"
               id="path4194" />
          </g>
        </g>
      </g>
    </g>
  </g>
</svg>
