<?xml version="1.0" encoding="utf-8"?>
<!-- Generator: Adobe Illustrator 19.2.1, SVG Export Plug-In . SVG Version: 6.00 Build 0)  -->
<svg version="1.1" id="Ebene_1" xmlns="http://www.w3.org/2000/svg" xmlns:xlink="http://www.w3.org/1999/xlink" x="0px" y="0px"
	 viewBox="0 0 2167.8 321.6" style="enable-background:new 0 0 2167.8 321.6;" xml:space="preserve">
<style type="text/css">
	.st0{fill:#FF8C1C;}
</style>
<path class="st0" d="M2089.6,26.6C2075.5,76,2050.7,99,2015.4,99h-33.6V26.6h-8.8c-15.9,42.4-35.3,67.1-70.6,79.5v10.6h31.8v137.7
	c0,42.4,14.1,58.3,45.9,58.3c23,0,40.6-12.4,53-35.3l1.8-5.3l-7.1-3.5c-8.8,10.6-15.9,15.9-24.7,15.9c-15.9,0-21.2-10.6-21.2-42.4
	V116.6h68.9v137.7c0,42.4,14.1,58.3,45.9,58.3c26.5,0,45.9-15.9,58.3-45.9l-7.1-3.5c-10.6,14.1-17.7,19.4-28.3,19.4
	c-15.9,0-21.2-10.6-21.2-42.4V116.6h49.4V99h-49.4V26.6L2089.6,26.6 M590.3,155.5c15.9-19.4,31.8-28.3,47.7-28.3
	c21.2,0,28.3,14.1,28.3,51.2v81.2c0,31.8-5.3,38.9-26.5,42.4v7.1h102.4V302c-21.2,0-26.5-8.8-26.5-38.8v-88.3
	c0-54.7-17.7-81.2-56.5-81.2c-23,0-47.7,15.9-68.9,45.9V93.7h-8.8l-68.9,24.7l1.8,7.1c3.5-1.8,7.1-1.8,8.8-1.8
	c14.1,0,17.7,8.8,17.7,37.1v97.1c0,33.6-3.5,42.4-21.2,42.4v7.1h97.1v-7.1c-21.2,0-26.5-8.8-26.5-42.4V155.5L590.3,155.5z
	 M1222.5,3.6h-10.6l-70.6,26.5l1.8,7.1h3.5c3.5,0,7.1-1.8,8.8-1.8c12.4,0,15.9,10.6,15.9,37.1V265c0,26.5-7.1,35.3-26.5,35.3v7.1
	H1249v-7.1c-19.4,0-26.5-10.6-26.5-35.3V3.6L1222.5,3.6z M1374.4,95.4c-3.5,3.5-7.1,5.3-10.6,5.3c-3.5,0-7.1,0-17.7-3.5
	c-10.6-3.5-14.1-3.5-21.2-3.5c-40.6,0-68.9,24.7-68.9,61.8c0,28.3,7.1,37.1,49.4,65.3c47.7,31.8,47.7,31.8,47.7,49.4
	c0,17.7-14.1,28.3-31.8,28.3c-30,0-45.9-19.4-56.5-63.6h-7.1v77.7h8.8c3.5-3.5,7.1-3.5,10.6-3.5c1.8,0,3.5,0,7.1,0
	c23,5.3,28.3,7.1,38.8,7.1c42.4,0,74.2-28.3,74.2-65.3c0-28.3-14.1-44.1-61.8-72.4c-33.6-19.4-44.1-30-44.1-44.1s12.4-23,30-23
	c26.5,0,40.6,14.1,49.4,54.7h8.8V95.4L1374.4,95.4L1374.4,95.4z M1688.7,3.6h-10.6l-70.6,26.5l1.8,7.1c7.1-1.8,10.6-1.8,12.4-1.8
	c12.4,0,17.7,10.6,17.7,37.1V265c0,26.5-7.1,35.3-26.5,35.3v7.1h102.4v-7.1c-19.4,0-26.5-8.8-26.5-35.3V3.6L1688.7,3.6z
	 M1835.3,277.3v8.8c0,19.4,1.8,23,23,23h53V302c-21.2,0-26.5-8.8-26.5-44.1v-95.4c0-53-17.7-68.9-72.4-68.9c-49.4,0-86.5,23-86.5,53
	c0,14.1,8.8,23,23,23c14.1,0,23-8.8,23-21.2v-5.3c0-3.5,0-5.3,0-7.1c0-17.7,12.4-28.3,31.8-28.3c24.7,0,33.6,14.1,33.6,49.4v15.9
	c-93.6,35.3-118.3,53-118.3,90.1c0,31.8,21.2,54.7,51.2,54.7c17.7,0,35.3-8.8,58.3-31.8l5.3-5.3L1835.3,277.3L1835.3,277.3z
	 M1835.3,261.4c-14.1,14.1-24.7,19.4-37.1,19.4c-17.7,0-31.8-14.1-31.8-33.6c0-24.7,10.6-33.6,68.9-60V261.4z M1471.5,3.6h-8.8
	l-70.6,26.5l1.8,7.1c3.5-1.8,7.1-1.8,8.8-1.8c14.1,0,19.4,8.8,19.4,37.1v219c33.6,17.7,53,24.7,77.7,24.7
	c61.8,0,107.7-51.2,107.7-120.1c0-60-31.8-102.4-74.2-102.4c-21.2,0-42.4,12.4-56.5,31.8l-5.3,7.1l-1.8,3.5V3.6L1471.5,3.6z
	 M1471.5,148.4c12.4-12.4,23-17.7,35.3-17.7c31.8,0,53,33.6,53,83c0,49.4-19.4,83-49.4,83c-12.4,0-23-5.3-38.8-17.7V148.4
	L1471.5,148.4z M1136,231.4c-14.1,28.3-33.6,40.6-58.3,40.6c-38.8,0-63.6-35.3-68.9-93.6h134.2c-3.5-56.5-30-86.5-79.5-86.5
	c-56.5,0-95.4,47.7-95.4,114.8c0,63.6,35.3,106,88.3,106c44.1,0,68.9-24.7,86.5-79.5L1136,231.4L1136,231.4z M1010.6,162.5
	c1.8-33.6,19.4-53,42.4-53c23,0,37.1,17.7,38.8,53H1010.6z M940,3.6h-10.6l-68.9,26.5l1.8,7.1c5.3-1.8,7.1-1.8,10.6-1.8
	c14.1,0,17.7,8.8,17.7,37.1v37.1c-17.7-12.4-28.3-17.7-47.7-17.7c-53,0-93.6,51.2-93.6,116.5c0,61.8,33.6,106,79.5,106
	c23,0,31.8-5.3,61.8-30c0,21.2,1.8,23,23,23h53v-7.1c-23,0-26.5-7.1-26.5-49.4V3.6L940,3.6z M888.8,268.5
	c-15.9,10.6-24.7,14.1-33.6,14.1c-31.8,0-53-37.1-53-91.8c0-51.2,15.9-81.2,40.6-81.2c31.8,0,45.9,23,45.9,68.9V268.5z M438.5,286.2
	c0,19.4,1.8,23,23,23h47.7V302c-17.7,0-21.2-7.1-21.2-44.1v-95.4c0-53-17.7-68.9-74.2-68.9c-49.4,0-84.8,23-84.8,54.7
	c0,14.1,8.8,23,23,23c14.1,0,23-8.8,23-21.2v-7.1c0-3.5,0-5.3,0-7.1c0-17.7,12.4-28.3,31.8-28.3c24.7,0,33.6,14.1,33.6,49.4v15.9
	c-91.8,33.6-118.3,53-118.3,90.1c0,31.8,23,54.7,51.2,54.7c19.4,0,33.6-7.1,58.3-31.8c5.3-3.5,5.3-5.3,7.1-7.1V286.2L438.5,286.2z
	 M438.5,261.4c-15.9,14.1-24.7,19.4-37.1,19.4c-17.7,0-31.8-14.1-31.8-33.6c0-24.7,14.1-35.3,68.9-60V261.4z M231.9,162.5v97.1
	c0,31.8-5.3,38.9-35.3,40.6v8.8h127.1v-8.8c-31.8-1.8-35.3-7.1-35.3-45.9V54.8c0-31.8,7.1-40.6,30-40.6h5.3V3.6H196.5v8.8
	c30,1.8,35.3,7.1,35.3,37.1v93.6H103V51.3c0-31.8,7.1-38.8,35.3-38.8V3.6H12.9v8.8c28.3,0,35.3,8.8,35.3,38.8v201.3
	c0,38.8-5.3,45.9-35.3,45.9v8.8H140v-8.8c-30,0-35.3-5.3-35.3-40.6v-95.4L231.9,162.5L231.9,162.5z"/>
</svg>
