<?xml version="1.0" encoding="utf-8"?>
<!-- Generator: Adobe Illustrator 20.1.0, SVG Export Plug-In . SVG Version: 6.00 Build 0)  -->
<svg version="1.1" id="Ebene_1" xmlns="http://www.w3.org/2000/svg" xmlns:xlink="http://www.w3.org/1999/xlink" x="0px" y="0px"
	 viewBox="0 0 300 116" style="enable-background:new 0 0 300 116;" xml:space="preserve">
<style type="text/css">
	.st0{fill:#BCBCBB;}
	.st1{fill:#1D1D1B;}
	.st2{fill:#E40040;}
</style>
<title>barmenia</title>
<g>
	<g>
		<path class="st0" d="M57.7,40.2v9.1H77c-8,7.9-22.3,22-22.3,22l6.4,6.6c0,0,16.8-16.9,25.8-25.9v25.8h8.9V40.2L57.7,40.2z"/>
		<circle class="st0" cx="78.2" cy="71.8" r="6"/>
	</g>
	<g>
		<path class="st1" d="M223.3,55.9c-0.3,0.5-1,1-1.9,1c-1.2,0-1.6-0.7-1.6-1.4c0-0.8,0.6-1.3,1.6-1.3c1,0,1.4,0.1,1.9,0.4V55.9z
			 M226.1,59V52c0-2.4-1.7-3.7-4.3-3.7c-1.7,0-2.7,0.4-4,1.1l1.1,1.9c1-0.5,1.6-0.7,2.9-0.7c1,0,1.5,0.6,1.5,1.3v0.5
			c-0.4-0.2-1.1-0.4-2-0.4c-2.4,0-4.3,1.2-4.3,3.5c0,2.5,2,3.8,3.9,3.8c1,0,1.9-0.4,2.4-0.9V59H226.1z"/>
		<path class="st1" d="M242,59V47.9l-2.9,1.5v-2.7l3.4-1.8h2.3v14H242z"/>
		<path class="st1" d="M122.3,49.5c0,1.2-0.7,1.8-2,1.8h-3v-3.6h2.9C121.5,47.7,122.3,48.3,122.3,49.5z M125.2,49.4
			c0-3-2.2-4.5-4.8-4.5h-5.8v14h2.8v-5h2.8C123,54,125.2,52.7,125.2,49.4z"/>
		<path class="st1" d="M132.2,51.7c-0.4-0.4-1-0.7-1.6-0.7c-1.1,0-1.8,0.5-1.8,2.3V59h-2.8V48.5h2.8v0.7c0.5-0.5,1.2-0.9,2.2-0.9
			c0.9,0,1.6,0.4,1.9,0.7L132.2,51.7z"/>
		<path class="st1" d="M140,53.8c0,1.5-0.6,2.8-2,2.8c-1.3,0-1.9-1.2-1.9-2.8c0-1.6,0.6-2.8,1.9-2.8C139.4,50.9,140,52.2,140,53.8z
			 M142.9,53.8c0-3.2-2-5.5-4.8-5.5c-2.7,0-4.8,2.3-4.8,5.5c0,3.2,2,5.5,4.8,5.5C140.8,59.2,142.9,57,142.9,53.8z"/>
		<path class="st1" d="M149.2,59.2c-2.3,0-4.4-1-5.5-2.5l2-1.8c1,1.1,2.2,1.6,3.6,1.6c1.7,0,2.4-0.5,2.4-1.5c0-0.9-0.5-1.3-3.1-1.9
			c-2.6-0.6-4.4-1.4-4.4-4.2c0-2.5,2.2-4.1,5-4.1c2.2,0,3.8,0.8,5.1,2.2l-2,2c-0.9-0.9-1.9-1.4-3.2-1.4c-1.5,0-2,0.6-2,1.3
			c0,0.9,0.6,1.2,2.8,1.7c2.2,0.5,4.7,1.3,4.7,4.3C154.8,57.4,153.1,59.2,149.2,59.2z"/>
		<path class="st1" d="M158.2,47.6c-0.9,0-1.6-0.7-1.6-1.6c0-0.9,0.7-1.6,1.6-1.6c0.9,0,1.6,0.7,1.6,1.6
			C159.8,46.9,159,47.6,158.2,47.6z M156.8,59V48.5h2.8V59H156.8z"/>
		<path class="st1" d="M168.2,52.6h-3.6c0.1-1.1,0.7-1.9,1.7-1.9C167.5,50.7,168.1,51.6,168.2,52.6z M170.8,53.8
			c0-3-1.6-5.5-4.4-5.5c-2.7,0-4.7,2.3-4.7,5.5c0,3.3,1.9,5.5,5,5.5c1.4,0,2.9-0.6,3.8-1.7l-2-1.6c-0.4,0.5-1,0.7-1.8,0.7
			c-1,0-2.1-0.5-2.2-2h6.3C170.8,54.4,170.8,54.2,170.8,53.8z"/>
		<path class="st1" d="M179.2,53.9c0,1.8-0.6,2.7-1.6,2.7c-0.8,0-1.4-0.3-1.9-0.9v-4c0.4-0.5,0.8-0.9,1.7-0.9
			C178.5,50.9,179.2,51.8,179.2,53.9z M182.1,53.9c0-3.9-1.8-5.6-4.1-5.6c-1,0-1.7,0.4-2.2,0.9v-4.6H173V59h2.8v-0.6
			c0.5,0.5,1.3,0.8,2.2,0.8C180.6,59.2,182.1,57,182.1,53.9z"/>
		<path class="st1" d="M189.9,52.6h-3.6c0.1-1.1,0.7-1.9,1.7-1.9C189.2,50.7,189.8,51.6,189.9,52.6z M192.5,53.8
			c0-3-1.6-5.5-4.4-5.5c-2.7,0-4.7,2.3-4.7,5.5c0,3.3,1.9,5.5,5,5.5c1.4,0,2.9-0.6,3.8-1.7l-2-1.6c-0.4,0.5-1,0.7-1.8,0.7
			c-1,0-2.1-0.5-2.2-2h6.3C192.5,54.4,192.5,54.2,192.5,53.8z"/>
		<path class="st1" d="M200.8,59v-5.7c0-1.9-0.6-2.4-1.8-2.4c-1.1,0-1.8,0.6-1.8,2.4V59h-2.8V48.5h2.8v0.7c0.5-0.5,1.4-0.9,2.5-0.9
			c2.7,0,3.9,1.8,3.9,4.8V59H200.8z"/>
		<path class="st1" d="M210.3,59.2c-2.3,0-4.4-1-5.5-2.5l2-1.8c1,1.1,2.2,1.6,3.6,1.6c1.7,0,2.4-0.5,2.4-1.5c0-0.9-0.5-1.3-3.1-1.9
			c-2.6-0.6-4.4-1.4-4.4-4.2c0-2.5,2.2-4.1,5-4.1c2.2,0,3.8,0.8,5.1,2.2l-2,2c-0.9-0.9-1.9-1.4-3.2-1.4c-1.5,0-2,0.6-2,1.3
			c0,0.9,0.6,1.2,2.8,1.7c2.2,0.5,4.7,1.3,4.7,4.3C215.8,57.4,214.2,59.2,210.3,59.2z"/>
		<path class="st1" d="M235,58.9c0,0-1.6,0.4-2.7,0.4c-1.7,0-2.8-1.3-2.8-3.2v-5h-1.8v-2.6h1.8V45l2.8,0v3.5h2.5v2.6h-2.5v4.2
			c0,1.2,0.4,1.3,1,1.3c0.5,0,1.3-0.1,1.7-0.2V58.9z"/>
		<path class="st1" d="M238.5,59.2c-1,0-1.8-0.8-1.8-1.8c0-1,0.8-1.8,1.8-1.8c1,0,1.8,0.8,1.8,1.8C240.3,58.4,239.5,59.2,238.5,59.2
			z"/>
		<g>
			<g>
				<path class="st2" d="M121.6,63.9c0.9,0.3,1.6,0.9,2.2,1.8c0.5,0.7,0.8,1.5,0.9,2.3c0.2,0.8,0.2,1.6,0.2,2.4c0,1.9-0.3,3.5-1,4.8
					c-0.9,1.8-2.4,2.7-4.3,2.7H114V63.6h5.6C120.4,63.6,121,63.7,121.6,63.9z M116.6,66v9.3h2.5c1.3,0,2.2-0.7,2.7-2.1
					c0.3-0.8,0.4-1.7,0.4-2.7c0-1.5-0.2-2.6-0.6-3.3c-0.4-0.8-1.2-1.2-2.5-1.2H116.6z"/>
				<path class="st2" d="M127,67.3h2.5v10.5H127V67.3z"/>
				<circle class="st2" cx="144.4" cy="64.5" r="1.4"/>
				<path class="st2" d="M136.8,67.3c0.6,0.3,1.1,0.8,1.5,1.5v-1.5h2.4v10c0,1.4-0.2,2.4-0.6,3.1c-0.7,1.2-2.1,1.8-4.1,1.8
					c-0.1,0-0.3,0-0.4,0c0-0.5,0-1.4,0-2.1c0.2,0,0.4,0,0.6,0c0.9,0,1.5-0.3,1.8-1c0.2-0.4,0.3-1.1,0.3-2.1v-0.7
					c-0.2,0.5-0.5,0.8-0.8,1c-0.5,0.4-1.1,0.6-1.9,0.6c-1.2,0-2.2-0.5-2.9-1.4c-0.7-1-1.1-2.2-1.1-3.9c0-1.6,0.4-2.9,1.1-3.9
					c0.7-1.1,1.7-1.6,3-1.6C136,67,136.5,67.1,136.8,67.3z M137.7,74.8c0.4-0.5,0.6-1.3,0.6-2.3c0-1-0.2-1.8-0.6-2.3
					c-0.4-0.5-0.9-0.8-1.5-0.8c-0.9,0-1.5,0.5-1.8,1.4c-0.2,0.5-0.3,1.1-0.3,1.8c0,0.6,0.1,1.2,0.3,1.6c0.3,0.9,0.9,1.3,1.8,1.3
					C136.8,75.5,137.3,75.3,137.7,74.8z"/>
				<path class="st2" d="M143.3,67.3h2.5v10.5h-2.5V67.3z"/>
				<g>
					<circle class="st2" cx="128.1" cy="64.5" r="1.4"/>
				</g>
				<path class="st2" d="M147.4,69.3v-2h1.3v-3.8h2.5v3.8h1.6v2h-1.6v5.6c0,0.4,0,0.7,0.1,0.8c0.1,0.1,0.4,0.2,0.9,0.2
					c0.1,0,0.2,0,0.2,0c0.1,0,0.2,0,0.2,0v2.1l-1.2,0c-1.2,0-2-0.2-2.4-0.7c-0.3-0.3-0.4-0.8-0.4-1.5v-6.5H147.4z"/>
				<path class="st2" d="M158.3,71.4c0.5-0.1,0.8-0.1,1-0.2c0.4-0.2,0.5-0.4,0.5-0.8c0-0.4-0.1-0.7-0.4-0.9
					c-0.3-0.2-0.7-0.2-1.2-0.2c-0.6,0-1,0.2-1.3,0.5c-0.2,0.2-0.3,0.6-0.4,1h-2.4c0.1-0.9,0.3-1.7,0.7-2.3c0.7-0.9,1.8-1.4,3.4-1.4
					c1.1,0,2,0.2,2.8,0.7c0.8,0.5,1.2,1.3,1.2,2.6v4.8c0,0.3,0,0.7,0,1.2c0,0.4,0.1,0.6,0.1,0.7c0.1,0.1,0.2,0.2,0.4,0.3v0.4h-2.7
					c-0.1-0.2-0.1-0.4-0.2-0.6s-0.1-0.4-0.1-0.6c-0.3,0.4-0.7,0.8-1.2,1.1c-0.5,0.3-1.2,0.5-1.8,0.5c-0.9,0-1.6-0.3-2.2-0.8
					c-0.6-0.5-0.9-1.3-0.9-2.3c0-1.3,0.5-2.2,1.4-2.8c0.5-0.3,1.2-0.5,2.2-0.7L158.3,71.4z M159.8,72.7c-0.2,0.1-0.3,0.2-0.5,0.3
					c-0.2,0.1-0.4,0.1-0.7,0.2l-0.6,0.1c-0.5,0.1-0.9,0.2-1.1,0.4c-0.4,0.3-0.6,0.6-0.6,1.2c0,0.5,0.1,0.8,0.4,1
					c0.2,0.2,0.5,0.3,0.9,0.3c0.5,0,1-0.2,1.5-0.5c0.5-0.3,0.7-1,0.7-1.9V72.7z"/>
				<path class="st2" d="M167.2,77.8h-2.5V63.6h2.5V77.8z"/>
			</g>
		</g>
	</g>
</g>
</svg>
