<svg id="Ebene_1" data-name="Ebene 1" xmlns="http://www.w3.org/2000/svg" viewBox="0 0 280 186"><defs><style>.cls-1{fill:#f3f3f3;}.cls-2{fill:#c71f3c;fill-rule:evenodd;}</style></defs><title>kunden_rossmann</title><rect class="cls-1" width="280" height="186"/><path class="cls-2" d="M38.92,101.46c0,2.61,0,4.84,0,4.84H34.75v-4.84Zm12.33,0L55,106.3H49.66l-3.77-4.83Zm10.92,0a11.86,11.86,0,0,0,6.17,3.2l-3.22-3.2h2.58l3.38,3.38A11.94,11.94,0,0,0,73,104.6l-3.13-3.14H72.4L74.92,104a11.87,11.87,0,0,0,3.86-2.53h3.35a14.4,14.4,0,0,1-23.31,0Zm28.47,0a6.18,6.18,0,0,0,.37.63,7.69,7.69,0,0,0,3.46,2.84,8.56,8.56,0,0,0,2.39.28,5,5,0,0,0,4.76-3.75h3.51a8.8,8.8,0,0,1-3.47,4.05c-2.71,1.61-6.61,1.64-9.59.9a20.52,20.52,0,0,1-2.81-1l0-3.93Zm21.43,0a6.12,6.12,0,0,0,.37.63,7.69,7.69,0,0,0,3.46,2.84,8.56,8.56,0,0,0,2.39.28,5,5,0,0,0,4.76-3.75h3.51a8.8,8.8,0,0,1-3.47,4.05c-2.71,1.61-6.61,1.64-9.59.9a20.51,20.51,0,0,1-2.81-1l0-3.93Zm22.73,0c-.28,2.31-.5,4.18-.53,4.84h-2.6l.62-4.84Zm14.4,0L147,106.3h-1.29c-.41-.8-1.32-2.63-2.42-4.83Zm12.15,0c.34,2.45.58,4.28.66,4.84h-4.09l-.66-4.84Zm6.92,0c-.62,1.43-1.25,2.86-2.11,4.84h-2.78l2.1-4.84Zm18.14,0,2.14,4.84h-4.61l-2.15-4.84Zm7.63,0c0,2,0,3.8,0,4.84h-2.58c0-.55,0-2.37,0-4.84Zm20.42,0c0,2.44,0,4.27,0,4.84h-1.9c-.64-.7-2.38-2.55-4.55-4.84Zm10.38,0c0,2.31,0,4.15,0,4.84h-2.58c0-.55,0-2.37,0-4.83Zm20.42,0v4.84h-1.9c-.64-.7-2.38-2.55-4.55-4.84Z"/><path class="cls-2" d="M34.75,101.46V79.71h9.37c2.49,0,4.73.59,6.27,2.8a6.55,6.55,0,0,1,1.21,3.68A7.17,7.17,0,0,1,49.42,91a7.9,7.9,0,0,1-4.56,2.25c1,1.27,3.85,4.94,6.38,8.17H45.89c-2.35-3-5-6.43-6.1-7.74h-.89c0,1.12,0,4.68,0,7.73Zm24.07,0a14.4,14.4,0,1,1,23.31,0H78.78a11.87,11.87,0,0,0,1.8-14.67H77.25v6.63h1.84c1.24,0,1.65,1,1.27,2L79,98.46l-1.38-.9.92-2.15H77.1l-1.34,3.05-1.38-.9.89-2.15H72l-1.94,3.72,2.33,2.33H69.82l-2.4-2.4,1.84-3.66H67.65l-2,4,2.07,2.07H65.12L63,99.34l1.29-2.53A3.58,3.58,0,0,1,62.74,94a3.23,3.23,0,0,1,.65-2.15h-1.5v5.48c-.68-.28-1.32-.55-1.32-1.44v-4a1.32,1.32,0,0,1,1.33-1.32H73.12l-1.59-3.8H60.38a11.86,11.86,0,0,0,1.79,14.67Zm30.47,0v-.73l.94,0c.15.26.27.52.41.78Zm12.32,0a5.08,5.08,0,0,0-1.37-5.27,10.85,10.85,0,0,0-3.57-1.81,27.41,27.41,0,0,1-4.31-2,5.91,5.91,0,0,1-3.16-5.3,7.47,7.47,0,0,1,2.34-5.45c1.23-1.17,3.08-2.2,6.65-2.2a13.83,13.83,0,0,1,2.15.15,12.73,12.73,0,0,1,3.5,1.11c0,1.28.2,4.23.2,4.23h-1.25c-.73-1.48-1.36-3-2.87-3.57A6.39,6.39,0,0,0,97.45,81c-3.35,0-4.33,3.22-4.33,4.59a3.74,3.74,0,0,0,.76,2.21A6.69,6.69,0,0,0,97,89.83c2.15.92,5.13,1.54,6.83,3.24a7.35,7.35,0,0,1,2,5.18,8.54,8.54,0,0,1-.63,3.21Zm9.11,0v-.73l.94,0c.15.26.27.52.41.78Zm12.32,0a5.08,5.08,0,0,0-1.37-5.27,10.85,10.85,0,0,0-3.57-1.81,27.41,27.41,0,0,1-4.31-2,5.91,5.91,0,0,1-3.16-5.3A7.47,7.47,0,0,1,113,81.65c1.23-1.17,3.08-2.2,6.65-2.2a13.84,13.84,0,0,1,2.15.15,12.73,12.73,0,0,1,3.5,1.11c0,1.28.2,4.23.2,4.23h-1.25c-.73-1.48-1.36-3-2.87-3.57a6.39,6.39,0,0,0-2.48-.41c-3.35,0-4.33,3.22-4.33,4.59a3.74,3.74,0,0,0,.76,2.21,6.69,6.69,0,0,0,3.1,2.06c2.15.92,5.13,1.54,6.83,3.24a7.35,7.35,0,0,1,2,5.18,8.54,8.54,0,0,1-.63,3.21Zm9.24,0,2.78-21.75H137c.44,1.06,9.1,18.45,10.11,20.24.37-.75,8.61-18.15,9.63-20.24h1.66c.17,1.23,2,14.34,3,21.75h-4.09c-.64-4.65-1.5-10.95-1.8-13.3-1.45,2.9-4.27,9-6.26,13.3h-5.93c-2.5-5-6-12.06-6.77-13.52-.14,1.36-1.08,8.49-1.7,13.52Zm33.18,0c3.21-7.42,8.75-20.28,9.38-21.75h2c.4,1,6.31,14.32,9.59,21.75h-4.62l-2.31-5.24c-1.52,0-7.25,0-9,0-.91,2.19-1.56,3.72-2.22,5.24Zm26,0c0-6.81,0-18.5,0-21.75h2.17c.76.85,16,16.85,18.13,19.07,0-3.74,0-16.92,0-19.07h2.72c0,2.49,0,14.7,0,21.74H208c-5.23-5.52-13-13.63-13.86-14.53,0,2.07-.09,9.27-.12,14.53Zm30.8,0c0-6.88,0-18.75,0-21.75h2.17c.76.85,16,16.85,18.13,19.07,0-3.74,0-17.39,0-19.07h2.73v21.75h-6.45c-5.23-5.52-13-13.63-13.86-14.53,0,2-.08,9.4-.11,14.53ZM61.51,85.24H73.26L74,83.75c.47-1,2.09-.21,1.67.71l-.38.78h4.14a11.86,11.86,0,0,0-17.92,0Zm110,8.62h6.9L174.91,86c-.52,1.11-2.82,6.41-3.42,7.9ZM41.33,81.39H38.91c0,1.75,0,4.28,0,6.08,0,1.43,0,3.26,0,4.72a15.29,15.29,0,0,0,5-.5,5.33,5.33,0,0,0,3.38-5.07c0-3.75-3-5.23-5.93-5.23Z"/></svg>