<?xml version="1.0" encoding="UTF-8" standalone="no"?>
<!-- Created with Inkscape (http://www.inkscape.org/) -->
<svg
   xmlns:svg="http://www.w3.org/2000/svg"
   xmlns="http://www.w3.org/2000/svg"
   version="1.0"
   width="602.36218"
   height="118.31102"
   id="svg2403">
  <defs
     id="defs2405" />
  <g
     id="layer1">
    <g
       transform="translate(197.32956,-147.16287)"
       id="g3204">
      <polyline
         transform="translate(-179.61297,164.87938)"
         points="0,82.878 565.782,82.878 565.782,67.988 0,67.988    "
         id="polyline11"
         style="fill:#ffcc0f;fill-opacity:1" />
      <path
         d="M 361.98503,215.73038 C 361.98503,218.69938 361.46403,219.30638 358.58103,221.21238 L 358.71403,221.83738 L 374.76903,221.83738 L 374.93103,221.21238 C 372.11503,219.30638 371.48803,218.69838 371.48803,215.73038 L 371.48803,170.57838 C 380.84903,170.57838 382.83203,172.56038 386.71103,177.11238 L 387.31603,176.80938 L 384.34903,166.15938 L 349.14403,166.15938 L 346.27103,176.80938 L 346.87803,177.11238 C 350.67103,172.56038 352.65303,170.57838 361.98503,170.57838 M 328.70603,164.87938 C 319.56303,164.87938 311.51303,170.19938 311.51303,180.00538 C 311.51303,189.22438 317.34503,193.87038 323.19703,197.73138 L 327.47403,200.53838 L 331.24003,203.33638 C 333.44903,205.31938 334.92903,207.55738 334.92903,210.49738 C 334.92903,215.80838 331.21003,219.17538 326.85903,219.17538 C 319.17503,219.17538 314.25403,214.90738 313.26703,207.74738 L 312.57603,207.45238 L 309.60703,218.40738 C 309.60703,218.40738 317.97203,223.18638 326.85903,223.18638 C 336.44703,223.18638 344.28903,217.79038 344.28903,207.99338 C 344.28903,198.41438 338.42803,194.00438 332.56803,190.40138 L 328.24203,187.79338 L 324.50603,185.03338 C 322.32403,183.05238 320.86503,180.71938 320.86503,177.50438 C 320.86503,172.32538 323.52903,168.82638 328.70703,168.82638 C 336.44703,168.82638 339.50003,173.00838 340.54303,180.00738 L 341.16003,180.31138 L 344.12903,169.68038 C 344.12803,169.67838 336.98503,164.87938 328.70603,164.87938 z M 283.83903,169.75338 C 291.59703,169.75338 297.13603,178.04238 297.13603,193.92838 C 297.13603,210.42038 292.34703,218.26338 283.83903,218.26338 C 276.07103,218.26338 270.68503,210.03138 270.68503,193.92838 C 270.68403,177.73838 275.33303,169.75338 283.83903,169.75338 z M 283.83903,165.33438 C 270.15303,165.33438 260.19603,176.88538 260.19603,193.92838 C 260.19603,210.88538 270.06903,222.66438 283.83903,222.66438 C 297.52503,222.66438 307.56803,211.24638 307.56803,194.23138 C 307.56703,177.18938 297.60003,165.33438 283.83903,165.33438 z M 231.97103,199.74138 L 229.82803,199.74138 L 229.82803,170.55038 L 233.65003,170.55038 C 242.70703,170.55038 246.12103,175.67138 246.12103,185.64938 C 246.12203,197.42738 240.59303,199.74138 231.97103,199.74138 z M 234.04003,166.15938 L 217.54803,166.15938 L 217.38603,166.78538 C 219.83303,168.68138 220.35503,169.28938 220.35503,172.26638 L 220.35503,215.72938 C 220.35503,218.69838 219.83403,219.30538 217.38603,221.21138 L 217.54803,221.83638 L 233.57503,221.83638 L 233.73703,221.21138 C 230.45603,219.30538 229.85803,218.69738 229.85803,215.72938 L 229.85803,204.11338 L 231.97103,204.11338 C 246.97503,204.11338 256.61003,198.71738 256.61003,185.17438 C 256.61003,173.61338 249.91503,166.15938 234.04003,166.15938 z M 162.87403,221.83738 L 190.40503,221.83738 L 194.97503,211.24538 L 194.42603,210.88438 C 190.57403,215.51338 186.38303,217.40938 180.05703,217.40938 L 175.21103,216.88838 L 175.21103,194.31738 L 177.71503,194.31738 C 183.54703,194.31738 186.52603,194.53538 189.72103,195.52138 L 190.24203,195.36038 L 191.92203,189.13838 L 191.40103,188.97738 C 188.20403,189.96338 185.22703,190.04938 179.39503,190.04938 L 175.21103,190.04938 L 175.21103,170.72138 L 178.39903,170.57838 C 187.98703,170.57838 189.94003,172.56038 193.60003,177.11238 L 194.12103,176.80938 L 191.22803,166.15938 L 162.87303,166.15938 L 162.74003,166.78538 C 165.16803,168.68138 165.67903,169.28938 165.67903,172.26638 L 165.67903,215.72938 C 165.67903,218.69838 165.16703,219.30538 162.74003,221.21138 L 162.87403,221.83738 z M 145.75503,215.73038 C 145.75503,218.69938 145.23403,219.30638 142.81603,221.21238 L 142.94903,221.83738 L 157.86703,221.83738 L 158.08603,221.21238 C 155.63903,219.30638 155.03103,218.69838 155.03103,215.73038 L 155.03103,172.26738 C 155.03103,169.28938 155.63803,168.68238 158.08603,166.78638 L 157.86703,166.16038 L 142.94903,166.16038 L 142.81603,166.78638 C 145.23403,168.68238 145.75503,169.29038 145.75503,172.26738 L 145.75503,189.44238 L 127.53803,189.44238 L 127.53803,172.26738 C 127.53803,169.28938 128.13603,168.68238 130.55403,166.78638 L 130.34503,166.16038 L 115.37003,166.16038 L 115.19803,166.78638 C 117.64503,168.68238 118.17703,169.29038 118.17703,172.26738 L 118.17703,215.73038 C 118.17703,218.69938 117.64603,219.30638 115.19803,221.21238 L 115.37003,221.83738 L 130.34503,221.83738 L 130.55403,221.21238 C 128.13603,219.30638 127.53803,218.69838 127.53803,215.73038 L 127.53803,194.36338 L 145.75503,194.36338 L 145.75503,215.73038 z M 85.600031,193.62438 C 85.600031,177.88138 90.702031,169.59238 99.370031,169.59238 C 105.01303,169.59238 107.60203,174.54338 108.04803,181.54238 L 108.73203,181.76038 L 112.14603,169.51738 C 108.64603,166.86138 104.62503,165.33438 99.835031,165.33438 C 85.296031,165.33438 74.903031,176.58238 74.903031,192.77138 C 74.903031,210.42038 84.176031,222.66438 99.237031,222.66438 C 105.01203,222.66438 109.33903,220.16038 112.82903,216.58438 L 110.41903,211.79538 L 109.80403,211.79538 C 107.22403,215.97938 104.55003,218.26438 99.675031,218.26438 C 91.091031,218.26338 85.600031,209.59538 85.600031,193.62438 z M 55.735031,164.87938 C 46.631031,164.87938 38.561031,170.19938 38.561031,180.00538 C 38.561031,189.22438 44.394031,193.87038 50.235031,197.73138 L 54.493031,200.53838 L 58.278031,203.33638 C 60.467031,205.31938 61.966031,207.55738 61.966031,210.49738 C 61.966031,215.80838 58.249031,219.17538 53.925031,219.17538 C 46.243031,219.17538 41.293031,214.90738 40.297031,207.74738 L 39.614031,207.45238 L 36.655031,218.40738 C 36.655031,218.40738 45.029031,223.18638 53.925031,223.18638 C 63.503031,223.18638 71.318031,217.79038 71.318031,207.99338 C 71.318031,198.41438 65.457031,194.00438 59.597031,190.40138 L 55.300031,187.79338 L 51.554031,185.03338 C 49.382031,183.05238 47.921031,180.71938 47.921031,177.50438 C 47.921031,172.32538 50.567031,168.82638 55.735031,168.82638 C 63.503031,168.82638 66.528031,173.00838 67.610031,180.00738 L 68.208031,180.31138 L 71.185031,169.68038 C 71.184031,169.67838 64.024031,164.87938 55.735031,164.87938 z M 20.086031,215.73038 C 20.086031,218.69938 19.536031,219.30638 17.032031,221.21238 L 17.193031,221.83738 L 32.168031,221.83738 L 32.311031,221.21238 C 29.883031,219.30638 29.286031,218.69838 29.286031,215.73038 L 29.286031,172.26738 C 29.286031,169.28938 29.884031,168.68238 32.255031,166.78638 L 32.094031,166.16038 L 17.281031,166.16038 L 17.119031,166.78638 C 19.538031,168.68238 20.088031,169.29038 20.088031,172.26738 L 20.088031,215.73038 L 20.086031,215.73038 z M 0.76803118,221.83738 L 8.3080312,221.83738 L 8.3080312,172.26738 C 8.3080312,169.28938 8.8290312,168.68238 11.722031,166.78638 L 11.503031,166.16038 L 0.075031179,166.16038 L -0.067968821,166.78638 C 3.0430312,168.68238 3.5650312,169.29038 3.5650312,172.26738 L 3.5650312,205.84938 L -18.606969,166.15938 L -30.176969,166.15938 L -30.309969,166.78538 C -27.502969,168.68138 -26.905969,169.28938 -26.905969,172.26638 L -26.905969,215.72938 C -26.905969,218.69838 -27.503969,219.30538 -30.309969,221.21138 L -30.176969,221.83638 L -18.777969,221.83638 L -18.606969,221.21138 C -21.669969,219.30538 -22.267969,218.69738 -22.267969,215.72938 L -22.267969,181.23838 L 0.76803118,221.83738 z M -47.218969,215.73038 C -47.218969,218.69938 -47.740969,219.30638 -50.243969,221.21238 L -50.073969,221.83738 L -35.097969,221.83738 L -34.964969,221.21238 C -37.392969,219.30638 -37.989969,218.69838 -37.989969,215.73038 L -37.989969,172.26738 C -37.989969,169.28938 -37.391969,168.68238 -35.050969,166.78638 L -35.183969,166.16038 L -50.025969,166.16038 L -50.158969,166.78638 C -47.740969,168.68238 -47.218969,169.29038 -47.218969,172.26738 L -47.218969,215.73038 L -47.218969,215.73038 z M -86.054969,221.83738 L -58.533969,221.83738 L -53.962969,211.24538 L -54.483969,210.88438 C -58.372969,215.51338 -62.554969,217.40938 -68.861969,217.40938 L -73.726969,216.88838 L -73.726969,194.31738 L -71.212969,194.31738 C -65.360969,194.31738 -62.411969,194.53538 -59.225969,195.52138 L -58.665969,195.36038 L -56.986969,189.13838 L -57.546969,188.97738 C -60.723969,189.96338 -63.711969,190.04938 -69.543969,190.04938 L -73.726969,190.04938 L -73.726969,170.72138 L -70.539969,170.57838 C -60.951969,170.57838 -58.969969,172.56038 -55.336969,177.11238 L -54.786969,176.80938 L -57.679969,166.15938 L -86.054969,166.15938 L -86.197969,166.78538 C -83.769969,168.68138 -83.219969,169.28938 -83.219969,172.26638 L -83.219969,215.72938 C -83.219969,218.69838 -83.769969,219.30538 -86.197969,221.21138 L -86.054969,221.83738 z M -103.15497,215.73038 C -103.15497,218.69938 -103.70497,219.30638 -106.13297,221.21238 L -105.96197,221.83738 L -91.062969,221.83738 L -90.853969,221.21238 C -93.272969,219.30638 -93.870969,218.69838 -93.870969,215.73038 L -93.870969,172.26738 C -93.870969,169.28938 -93.272969,168.68238 -90.853969,166.78638 L -91.062969,166.15938 L -105.96197,166.15938 L -106.13297,166.78538 C -103.70497,168.68138 -103.15497,169.28938 -103.15497,172.26638 L -103.15497,189.44138 L -121.40197,189.44138 L -121.40197,172.26738 C -121.40197,169.28938 -120.80497,168.68238 -118.37697,166.78638 L -118.59397,166.15938 L -133.56997,166.15938 L -133.71197,166.78538 C -131.29397,168.68138 -130.77197,169.28938 -130.77197,172.26638 L -130.77197,215.72938 C -130.77197,218.69838 -131.29297,219.30538 -133.71197,221.21138 L -133.56997,221.83638 L -118.59497,221.83638 L -118.37697,221.21138 C -120.80497,219.30538 -121.40197,218.69738 -121.40197,215.72938 L -121.40197,194.36338 L -103.15497,194.36338 L -103.15497,215.73038 z M -162.31497,199.10638 L -166.98997,198.85038 L -166.98997,170.55038 L -163.99297,170.55038 C -154.63297,170.55038 -150.08997,175.20638 -150.08997,184.65338 C -150.08997,194.98138 -155.10697,199.10638 -162.31497,199.10638 z M -162.31497,166.15938 L -179.26197,166.15938 L -179.43297,166.78538 C -176.98597,168.68238 -176.45497,169.28938 -176.45497,172.26738 L -176.45497,215.73038 C -176.45497,218.69938 -176.98597,219.30638 -179.43297,221.21238 L -179.26197,221.83738 L -164.07897,221.83738 L -163.90797,221.21238 C -166.35497,219.30638 -166.96197,218.69838 -166.96197,215.73038 L -166.96197,203.59238 L -162.69397,203.59238 L -151.00097,221.83838 L -137.99897,221.83838 L -137.83797,221.21338 C -140.73097,219.30738 -141.94397,218.17838 -143.70897,215.73138 L -153.36297,202.13238 C -146.50597,199.84738 -139.60197,194.45038 -139.60197,184.34038 C -139.60097,173.09238 -146.89397,166.15938 -162.31497,166.15938 z"
         id="path13"
         style="fill:#1b171b" />
    </g>
  </g>
</svg>
