<?xml version="1.0" encoding="UTF-8" standalone="no"?>
<svg
   xmlns:dc="http://purl.org/dc/elements/1.1/"
   xmlns:cc="http://creativecommons.org/ns#"
   xmlns:rdf="http://www.w3.org/1999/02/22-rdf-syntax-ns#"
   xmlns:svg="http://www.w3.org/2000/svg"
   xmlns="http://www.w3.org/2000/svg"
   xmlns:xlink="http://www.w3.org/1999/xlink"
   xmlns:sodipodi="http://sodipodi.sourceforge.net/DTD/sodipodi-0.dtd"
   xmlns:inkscape="http://www.inkscape.org/namespaces/inkscape"
   version="1.1"
   id="Layer_1"
   x="0px"
   y="0px"
   width="782"
   height="107"
   viewBox="0 0 781.99998 107"
   enable-background="new 0 0 552.567 889.89"
   xml:space="preserve">
<path
   style="fill:#58595b;fill-rule:evenodd"
   inkscape:connector-curvature="0"
   id="path51"
   d="M 110.587,114.382 109.041,95.37 h -3.565 l -3.146,11.81 c -0.341,1.269 -0.551,2.511 -0.63,2.98 h -0.052 c -0.052,-0.414 -0.262,-1.573 -0.655,-3.119 L 97.951,95.37 h -3.538 l -1.625,19.012 h 2.464 L 96.169,101.8 c 0.078,-0.995 0.158,-2.732 0.184,-3.394 h 0.052 c 0.105,0.495 0.419,1.931 0.813,3.394 l 3.303,12.582 h 2.176 l 3.591,-13.19 c 0.288,-1.021 0.55,-2.206 0.656,-2.76 h 0.052 c 0.026,0.554 0.052,1.987 0.13,3.008 l 0.944,12.942 h 2.517 z"
   clip-rule="evenodd"
   clip-path="url(#SVGID_10_)"
   transform="matrix(2.1194414,0,0,2.1194414,-68.898804,-77.902188)" /><path
   style="fill:#58595b;fill-rule:evenodd"
   inkscape:connector-curvature="0"
   id="path53"
   d="m 126.02,108.007 v -0.44 c -0.027,-3.174 -0.446,-4.719 -1.599,-5.962 -0.918,-0.991 -2.097,-1.49 -3.565,-1.49 -1.626,0 -2.911,0.608 -3.959,1.904 -1.127,1.409 -1.573,2.952 -1.573,5.354 0,4.525 2.228,7.312 5.873,7.312 1.703,0 3.25,-0.579 4.534,-1.766 l -0.917,-1.518 c -0.944,0.884 -1.992,1.324 -3.224,1.324 -1.259,0 -2.334,-0.523 -3.015,-1.628 -0.393,-0.662 -0.55,-1.573 -0.55,-2.759 v -0.331 h 7.995 z m -2.517,-1.876 h -5.452 c 0,-2.512 0.917,-4.084 2.753,-4.084 0.838,0 1.466,0.415 1.887,0.965 0.523,0.692 0.812,1.794 0.812,3.119"
   clip-rule="evenodd"
   clip-path="url(#SVGID_10_)"
   transform="matrix(2.1194414,0,0,2.1194414,-68.898804,-77.902188)" /><path
   style="fill:#58595b;fill-rule:evenodd"
   inkscape:connector-curvature="0"
   id="path55"
   d="m 134.35,96.307 c 0,-1.047 -0.786,-1.848 -1.73,-1.848 -0.943,0 -1.703,0.829 -1.703,1.848 0,0.994 0.734,1.823 1.677,1.823 0.97,0 1.756,-0.829 1.756,-1.823 m -0.496,18.075 v -14.156 l -2.491,0.414 v 13.742 h 2.491 z"
   clip-rule="evenodd"
   clip-path="url(#SVGID_10_)"
   transform="matrix(2.1194414,0,0,2.1194414,-68.898804,-77.902188)" /><path
   style="fill:#58595b;fill-rule:evenodd"
   inkscape:connector-curvature="0"
   id="path57"
   d="m 149.707,114.382 v -10.458 c 0,-0.634 -0.105,-1.242 -0.315,-1.738 -0.471,-1.187 -1.704,-1.96 -3.093,-1.96 -0.813,0 -1.677,0.221 -2.437,0.69 -0.551,0.332 -0.944,0.691 -1.704,1.352 0,-0.856 -0.132,-1.463 -0.447,-2.124 l -2.28,0.661 c 0.367,0.995 0.498,1.628 0.498,3.285 v 10.292 h 2.385 v -10.237 c 0.892,-0.993 2.308,-1.768 3.251,-1.768 0.603,0 1.075,0.194 1.337,0.554 0.314,0.441 0.419,0.883 0.419,2.125 v 9.326 h 2.386 z"
   clip-rule="evenodd"
   clip-path="url(#SVGID_10_)"
   transform="matrix(2.1194414,0,0,2.1194414,-68.898804,-77.902188)" /><path
   style="fill:#58595b;fill-rule:evenodd"
   inkscape:connector-curvature="0"
   id="path59"
   d="m 176.251,104.889 c 0,-2.621 -0.525,-4.801 -1.6,-6.374 -1.65,-2.401 -3.643,-3.145 -6.763,-3.145 h -4.193 v 19.012 h 4.508 c 3.146,0 4.824,-0.91 6.083,-2.567 1.205,-1.574 1.965,-3.836 1.965,-6.926 m -2.805,0.331 c 0,1.876 -0.315,3.588 -0.97,4.856 -0.813,1.546 -2.149,2.126 -4.221,2.126 h -1.991 V 97.494 h 2.045 c 1.755,0 2.805,0.359 3.8,1.683 1.074,1.437 1.337,3.394 1.337,6.043"
   clip-rule="evenodd"
   clip-path="url(#SVGID_10_)"
   transform="matrix(2.1194414,0,0,2.1194414,-68.898804,-77.902188)" /><path
   style="fill:#58595b;fill-rule:evenodd"
   inkscape:connector-curvature="0"
   id="path61"
   d="m 188.513,100.254 c -0.211,-0.082 -0.499,-0.138 -0.813,-0.138 -1.389,0 -2.516,0.801 -3.566,2.4 v -0.247 c 0,-0.69 -0.208,-1.601 -0.445,-2.126 l -2.333,0.634 c 0.315,0.857 0.498,1.768 0.498,3.451 v 10.153 h 2.412 v -8.912 c 0,-1.517 1.259,-2.815 2.727,-2.815 0.261,0 0.445,0.056 0.68,0.138 l 0.84,-2.538 z"
   clip-rule="evenodd"
   clip-path="url(#SVGID_10_)"
   transform="matrix(2.1194414,0,0,2.1194414,-68.898804,-77.902188)" /><path
   style="fill:#58595b;fill-rule:evenodd"
   inkscape:connector-curvature="0"
   id="path63"
   d="m 202.766,107.593 c 0,-4.165 -1.886,-7.421 -5.766,-7.421 -3.46,0 -5.637,2.814 -5.637,7.285 0,4.498 2.177,7.312 5.69,7.312 3.485,0 5.713,-2.789 5.713,-7.176 m -2.699,0.111 c 0,3.616 -1.127,5.106 -2.962,5.106 -2.045,0 -3.067,-1.408 -3.067,-5.629 0,-3.477 0.864,-5.05 2.962,-5.05 1.888,-0.001 3.067,1.297 3.067,5.573"
   clip-rule="evenodd"
   clip-path="url(#SVGID_10_)"
   transform="matrix(2.1194414,0,0,2.1194414,-68.898804,-77.902188)" /><path
   style="fill:#58595b;fill-rule:evenodd"
   inkscape:connector-curvature="0"
   id="path65"
   d="m 219.982,101.688 -1.232,-1.574 c -0.708,0.526 -1.363,0.802 -2.149,0.802 -0.577,0 -1.285,-0.221 -1.967,-0.442 -0.786,-0.249 -1.337,-0.304 -2.045,-0.304 -3.014,0 -5.033,1.849 -5.033,4.637 0,1.904 1.075,3.338 3.094,3.973 -1.494,0.58 -2.568,1.132 -2.568,2.428 0,1.022 0.681,1.71 1.834,1.848 0.498,0.056 1.546,0.139 2.464,0.139 2.595,0 3.618,0.772 3.618,2.099 0,1.461 -1.075,2.371 -3.224,2.371 -2.046,0 -3.172,-0.772 -3.172,-2.207 0,-0.386 0.13,-0.827 0.236,-1.048 l -2.36,0.136 c -0.13,0.414 -0.236,0.828 -0.236,1.409 0,2.289 2.097,3.64 5.768,3.64 3.198,0 5.53,-1.487 5.53,-4.468 0,-2.153 -1.39,-3.807 -4.744,-3.807 h -2.019 c -0.629,0 -0.944,-0.277 -0.944,-0.69 0,-0.608 1.259,-1.242 2.071,-1.518 3.434,0 4.718,-2.29 4.718,-4.278 0,-0.882 -0.261,-1.628 -0.943,-2.539 0.63,0.195 0.734,0.221 1.128,0.221 0.813,0 1.441,-0.221 2.175,-0.828 m -5.032,3.064 c 0,1.709 -0.813,2.621 -2.386,2.621 -1.546,0 -2.412,-0.856 -2.412,-2.566 0,-1.767 0.839,-2.649 2.386,-2.649 1.651,0 2.412,0.828 2.412,2.594"
   clip-rule="evenodd"
   clip-path="url(#SVGID_10_)"
   transform="matrix(2.1194414,0,0,2.1194414,-68.898804,-77.902188)" /><path
   style="fill:#58595b;fill-rule:evenodd"
   inkscape:connector-curvature="0"
   id="path67"
   d="m 233.554,108.007 v -0.44 c -0.027,-3.174 -0.446,-4.719 -1.599,-5.962 -0.918,-0.991 -2.097,-1.49 -3.565,-1.49 -1.626,0 -2.911,0.608 -3.959,1.904 -1.127,1.409 -1.573,2.952 -1.573,5.354 0,4.525 2.229,7.312 5.873,7.312 1.703,0 3.25,-0.579 4.534,-1.766 l -0.917,-1.518 c -0.944,0.884 -1.992,1.324 -3.226,1.324 -1.258,0 -2.332,-0.523 -3.013,-1.628 -0.393,-0.662 -0.55,-1.573 -0.55,-2.759 v -0.331 h 7.995 z m -2.517,-1.876 h -5.451 c 0,-2.512 0.916,-4.084 2.751,-4.084 0.839,0 1.469,0.415 1.888,0.965 0.523,0.692 0.812,1.794 0.812,3.119"
   clip-rule="evenodd"
   clip-path="url(#SVGID_10_)"
   transform="matrix(2.1194414,0,0,2.1194414,-68.898804,-77.902188)" /><path
   style="fill:#58595b;fill-rule:evenodd"
   inkscape:connector-curvature="0"
   id="path69"
   d="m 245.608,100.254 c -0.211,-0.082 -0.5,-0.138 -0.813,-0.138 -1.389,0 -2.518,0.801 -3.566,2.4 v -0.247 c 0,-0.69 -0.209,-1.601 -0.445,-2.126 l -2.333,0.634 c 0.313,0.857 0.498,1.768 0.498,3.451 v 10.153 h 2.412 v -8.912 c 0,-1.517 1.257,-2.815 2.725,-2.815 0.263,0 0.447,0.056 0.681,0.138 l 0.841,-2.538 z"
   clip-rule="evenodd"
   clip-path="url(#SVGID_10_)"
   transform="matrix(2.1194414,0,0,2.1194414,-68.898804,-77.902188)" /><path
   style="fill:#58595b;fill-rule:evenodd"
   inkscape:connector-curvature="0"
   id="path71"
   d="m 252.55,96.307 c 0,-1.047 -0.788,-1.848 -1.73,-1.848 -0.945,0 -1.705,0.829 -1.705,1.848 0,0.994 0.735,1.823 1.677,1.823 0.97,0 1.758,-0.829 1.758,-1.823 m -0.499,18.075 v -14.156 l -2.49,0.414 v 13.742 h 2.49 z"
   clip-rule="evenodd"
   clip-path="url(#SVGID_10_)"
   transform="matrix(2.1194414,0,0,2.1194414,-68.898804,-77.902188)" /><path
   style="fill:#58595b;fill-rule:evenodd"
   inkscape:connector-curvature="0"
   id="path73"
   d="m 267.878,108.007 v -0.44 c -0.027,-3.174 -0.446,-4.719 -1.601,-5.962 -0.916,-0.991 -2.095,-1.49 -3.563,-1.49 -1.626,0 -2.911,0.608 -3.959,1.904 -1.127,1.409 -1.573,2.952 -1.573,5.354 0,4.525 2.228,7.312 5.873,7.312 1.702,0 3.25,-0.579 4.534,-1.766 l -0.917,-1.518 c -0.944,0.884 -1.993,1.324 -3.226,1.324 -1.257,0 -2.332,-0.523 -3.013,-1.628 -0.394,-0.662 -0.55,-1.573 -0.55,-2.759 v -0.331 h 7.995 z m -2.517,-1.876 h -5.451 c 0,-2.512 0.916,-4.084 2.75,-4.084 0.838,0 1.468,0.415 1.888,0.965 0.524,0.692 0.813,1.794 0.813,3.119"
   clip-rule="evenodd"
   clip-path="url(#SVGID_10_)"
   transform="matrix(2.1194414,0,0,2.1194414,-68.898804,-77.902188)" /><path
   style="fill:#58595b;fill-rule:evenodd"
   inkscape:connector-curvature="0"
   id="path75"
   d="m 289.657,114.382 v -10.32 c 0,-2.538 -1.312,-3.891 -3.356,-3.891 -1.335,0 -2.697,0.719 -4.01,2.18 -0.656,-1.49 -1.887,-2.18 -3.12,-2.18 -1.231,0 -2.568,0.719 -3.696,1.959 0,-0.773 -0.182,-1.462 -0.445,-1.931 l -2.255,0.579 c 0.367,0.966 0.473,1.49 0.473,3.449 v 10.155 h 2.386 v -10.376 c 1.126,-1.131 2.121,-1.6 3.013,-1.6 1.206,0 1.626,0.579 1.626,2.126 v 9.85 h 2.358 v -10.155 c 0.996,-1.048 1.862,-1.876 3.067,-1.876 1.101,0 1.572,0.552 1.572,2.125 v 9.906 h 2.387 z"
   clip-rule="evenodd"
   clip-path="url(#SVGID_10_)"
   transform="matrix(2.1194414,0,0,2.1194414,-68.898804,-77.902188)" /><path
   style="fill:#58595b;fill-rule:evenodd"
   inkscape:connector-curvature="0"
   id="path77"
   d="m 305.773,113.251 c -1.022,-0.663 -1.076,-1.436 -1.076,-3.34 0,-2.015 0.106,-4.138 0.106,-5.132 0,-1.351 -0.053,-1.822 -0.263,-2.428 -0.498,-1.461 -1.887,-2.208 -3.8,-2.208 -2.544,0 -4.221,1.049 -5.506,1.822 l 1.101,1.821 c 1.074,-0.855 2.647,-1.572 4.038,-1.572 1.834,0 2.043,1.102 2.043,2.732 v 0.908 c -0.341,-0.026 -0.603,-0.026 -0.916,-0.026 -4.247,0 -6.686,1.71 -6.686,4.911 0,2.65 1.625,4.057 4.247,4.057 2.281,0 3.382,-1.38 3.722,-1.821 0.315,0.965 0.945,1.656 1.757,1.985 l 1.233,-1.709 z m -3.408,-5.658 -0.079,3.533 c -0.602,1.105 -1.65,1.82 -2.752,1.82 -1.337,0 -2.072,-0.882 -2.072,-2.4 0,-0.911 0.186,-1.407 0.683,-2.013 0.524,-0.637 1.626,-0.995 3.435,-0.995 0.208,0 0.419,0.028 0.785,0.055"
   clip-rule="evenodd"
   clip-path="url(#SVGID_10_)"
   transform="matrix(2.1194414,0,0,2.1194414,-68.898804,-77.902188)" /><path
   style="fill:#58595b;fill-rule:evenodd"
   inkscape:connector-curvature="0"
   id="path79"
   d="m 317.485,100.254 c -0.211,-0.082 -0.498,-0.138 -0.813,-0.138 -1.389,0 -2.517,0.801 -3.565,2.4 v -0.247 c 0,-0.69 -0.21,-1.601 -0.444,-2.126 l -2.334,0.634 c 0.314,0.857 0.498,1.768 0.498,3.451 v 10.153 h 2.411 v -8.912 c 0,-1.517 1.259,-2.815 2.727,-2.815 0.261,0 0.446,0.056 0.681,0.138 l 0.839,-2.538 z"
   clip-rule="evenodd"
   clip-path="url(#SVGID_10_)"
   transform="matrix(2.1194414,0,0,2.1194414,-68.898804,-77.902188)" /><path
   style="fill:#58595b;fill-rule:evenodd"
   inkscape:connector-curvature="0"
   id="path81"
   d="M 323.953,114.382 V 97.163 c 0,-1.132 -0.156,-2.289 -0.313,-3.035 l -2.438,0.607 c 0.209,0.801 0.339,1.738 0.339,3.145 v 16.502 h 2.412 z m 8.677,0 -5.845,-7.975 4.69,-5.878 h -2.936 l -4.326,5.989 5.401,7.864 h 3.016 z"
   clip-rule="evenodd"
   clip-path="url(#SVGID_10_)"
   transform="matrix(2.1194414,0,0,2.1194414,-68.898804,-77.902188)" /><path
   style="fill:#58595b;fill-rule:evenodd"
   inkscape:connector-curvature="0"
   id="path83"
   d="m 342.147,100.558 h -3.198 c 0,-1.408 0.131,-3.146 0.236,-4.14 l -2.49,0.607 c -0.133,1.05 -0.158,2.457 -0.158,3.533 h -1.574 v 1.794 h 1.574 v 8.913 c 0,2.012 0.42,2.288 0.971,2.814 0.419,0.414 1.361,0.69 2.227,0.69 0.867,0 1.652,-0.193 2.387,-0.579 l -0.288,-1.547 c -0.419,0.194 -0.786,0.276 -1.231,0.276 -1.311,0 -1.705,-0.524 -1.705,-2.235 v -8.332 h 2.596 l 0.653,-1.794 z"
   clip-rule="evenodd"
   clip-path="url(#SVGID_10_)"
   transform="matrix(2.1194414,0,0,2.1194414,-68.898804,-77.902188)" /><path
   style="fill:#d7213d;fill-rule:evenodd"
   inkscape:connector-curvature="0"
   id="path85"
   d="m 44.041,41.646 h -4.239 c 10e-4,3.072 0.024,7.502 0.024,10.659 0,2.511 -0.084,5.706 -0.045,8.277 2.719,0.077 6.186,-0.009 8.726,-0.881 1.865,-0.684 5.918,-3.291 5.918,-8.881 0,-6.577 -5.267,-9.174 -10.384,-9.174 M 68.067,85.303 H 58.649 C 55.927,81.803 44.503,67.167 41.355,63.267 l -1.553,0.02 c 0.056,3.638 10e-4,22.016 10e-4,22.016 l -7.299,0.012 V 38.713 h 16.414 c 4.364,0 8.283,1.033 10.998,4.905 1.293,1.836 2.117,4.167 2.117,6.441 -0.068,1.629 -0.546,5.313 -3.807,8.504 -2.566,2.501 -4.612,3.22 -7.984,3.935 C 53,66.1 64.576,80.833 68.067,85.303"
   clip-rule="evenodd"
   clip-path="url(#SVGID_10_)"
   transform="matrix(2.1194414,0,0,2.1194414,-68.898804,-77.902188)" /><path
   style="fill:#d7213d"
   inkscape:connector-curvature="0"
   id="path87"
   d="m 307.143,38.713 h 3.798 c 1.329,1.481 27.975,29.538 31.774,33.42 0.063,-6.547 -0.027,-29.661 0,-33.42 h 4.771 c -0.007,5.879 -0.007,42.693 0,46.603 l -3.33,-0.001 c -3.824,-4.182 -30.008,-31.713 -32.266,-33.947 -0.074,5.049 -0.244,27.427 -0.224,33.935 h -4.523 c 0.014,-3.626 0.047,-38.827 0,-46.59"
   clip-path="url(#SVGID_10_)"
   transform="matrix(2.1194414,0,0,2.1194414,-68.898804,-77.902188)" /><path
   style="fill:#d7213d"
   inkscape:connector-curvature="0"
   id="path89"
   d="m 246.294,38.713 h 2.904 c 0.396,2.877 5.801,42.674 6.35,46.59 l -7.166,0.012 C 247.714,80.368 244.849,59.554 244.064,53.508 240,61.626 229.846,83.905 229.183,85.315 l -2.258,-0.012 c -2.347,-4.62 -14.143,-28.482 -16.093,-32.172 -0.364,3.465 -3.711,28.497 -3.908,32.172 h -4.559 c 0.758,-5.918 5.963,-46.59 5.963,-46.59 h 3.361 c 0.773,1.865 15.951,32.342 17.718,35.466 0.658,-1.311 15.095,-31.82 16.887,-35.466"
   clip-path="url(#SVGID_10_)"
   transform="matrix(2.1194414,0,0,2.1194414,-68.898804,-77.902188)" /><path
   style="fill:#d7213d"
   inkscape:connector-curvature="0"
   id="path91"
   d="m 128.108,75.552 1.643,-0.076 c 0.46,0.824 0.804,1.643 1.356,2.459 0.662,0.982 3.074,4.044 6.063,4.979 0.593,0.221 2.254,0.489 4.187,0.489 8.234,-0.069 11.574,-10.807 5.938,-15.812 -1.78,-1.638 -4.073,-2.31 -6.251,-3.177 -3.667,-1.421 -6.045,-2.535 -7.546,-3.471 -3.456,-2.174 -5.533,-4.986 -5.533,-9.28 0,-1.964 0.463,-6.102 4.108,-9.56 2.147,-2.058 5.396,-3.848 11.654,-3.848 0.454,0 2.208,0.003 3.764,0.268 2.657,0.475 3.663,0.876 6.135,1.945 0.079,2.249 0.355,7.41 0.355,7.41 h -2.188 c -1.273,-2.6 -2.387,-5.174 -5.036,-6.258 -0.975,-0.4 -2.308,-0.719 -4.356,-0.719 -5.878,0 -7.589,5.65 -7.589,8.052 0,1.927 0.921,3.344 1.324,3.875 0.917,1.23 2.325,2.34 5.425,3.608 3.771,1.612 8.99,2.706 11.971,5.678 2.302,2.217 3.43,5.8 3.43,9.082 -0.067,7.486 -5.105,11.457 -7.202,12.732 -4.742,2.825 -11.579,2.878 -16.808,1.582 -1.703,-0.42 -3.304,-1.137 -4.925,-1.798 0.001,-0.001 0.055,-5.623 0.081,-8.16"
   clip-path="url(#SVGID_10_)"
   transform="matrix(2.1194414,0,0,2.1194414,-68.898804,-77.902188)" /><path
   style="fill:#d7213d;fill-rule:evenodd"
   inkscape:connector-curvature="0"
   id="path93"
   d="m 272.176,63.495 h 12.097 l -6.104,-13.84 c -0.906,1.946 -4.936,11.231 -5.993,13.84 m 5.877,-24.783 h 3.439 c 0.941,2.267 19.434,44.022 20.563,46.602 h -8.083 c -2.71,-6.119 -5.138,-11.576 -7.814,-17.665 -2.658,0 -12.709,0.038 -15.755,0 -3.11,7.446 -4.458,10.514 -7.593,17.653 h -4.879 c 2.435,-5.552 18.664,-43.215 20.122,-46.59"
   clip-rule="evenodd"
   clip-path="url(#SVGID_10_)"
   transform="matrix(2.1194414,0,0,2.1194414,-68.898804,-77.902188)" /><path
   style="fill:#d7213d;fill-rule:evenodd"
   inkscape:connector-curvature="0"
   id="path95"
   d="m 79.417,48.392 h 20.588 l 1.316,-2.599 c 0.821,-1.761 3.658,-0.365 2.92,1.239 l -0.664,1.36 h 7.251 c -3.809,-4.391 -9.435,-7.173 -15.705,-7.173 -6.276,0 -11.895,2.774 -15.706,7.173 m 23.5,32.872 -8.505,-8.528 3.407,-6.526 h 5.717 l -1.56,3.775 2.412,1.577 2.356,-5.352 2.457,-0.002 -1.621,3.777 2.412,1.577 2.46,-5.359 c 0.655,-1.775 -0.062,-3.427 -2.229,-3.463 h -3.231 l 0.007,-11.626 5.831,-0.003 c 1.951,3.166 3.072,6.895 3.072,10.887 0,8.722 -5.367,16.185 -12.985,19.266 m -6.744,1.486 c 1.125,-0.056 2.235,-0.2 3.306,-0.429 l -9.695,-9.698 3.22,-6.42 h -2.821 l -3.562,6.99 9.552,9.557 z M 77.425,51.103 c -1.953,3.168 -3.081,6.9 -3.081,10.895 0,10.198 7.347,18.67 17.036,20.432 l -9.397,-9.327 2.256,-4.427 c -1.459,-1.184 -2.676,-2.74 -2.676,-4.89 0,-1.786 0.391,-2.716 1.138,-3.762 h -2.628 v 9.605 c -1.186,-0.493 -2.318,-0.965 -2.318,-2.523 v -7.023 c 0,-1.285 1.041,-2.313 2.327,-2.313 h 19.686 l -2.793,-6.657 -19.55,-0.01 z M 95.123,36.756 c 13.94,0 25.242,11.302 25.242,25.242 0,13.941 -11.302,25.243 -25.242,25.243 -13.94,0 -25.242,-11.302 -25.242,-25.243 0,-13.94 11.302,-25.242 25.242,-25.242"
   clip-rule="evenodd"
   clip-path="url(#SVGID_10_)"
   transform="matrix(2.1194414,0,0,2.1194414,-68.898804,-77.902188)" /><path
   style="fill:#d7213d"
   inkscape:connector-curvature="0"
   id="path97"
   d="m 165.666,75.552 1.643,-0.076 c 0.46,0.824 0.805,1.643 1.356,2.459 0.662,0.982 3.074,4.044 6.063,4.979 0.593,0.221 2.255,0.489 4.187,0.489 8.234,-0.069 11.574,-10.807 5.938,-15.812 -1.778,-1.638 -4.073,-2.31 -6.251,-3.177 -3.667,-1.421 -6.045,-2.535 -7.546,-3.471 -3.456,-2.174 -5.533,-4.986 -5.533,-9.28 0,-1.964 0.463,-6.102 4.109,-9.56 2.148,-2.058 5.395,-3.848 11.653,-3.848 0.454,0 2.208,0.003 3.764,0.268 2.657,0.475 3.663,0.876 6.135,1.945 0.079,2.249 0.355,7.41 0.355,7.41 h -2.188 c -1.272,-2.6 -2.387,-5.174 -5.036,-6.258 -0.975,-0.4 -2.308,-0.719 -4.355,-0.719 -5.879,0 -7.59,5.65 -7.59,8.052 0,1.927 0.921,3.344 1.324,3.875 0.918,1.23 2.325,2.34 5.425,3.608 3.771,1.612 8.99,2.706 11.971,5.678 2.302,2.217 3.43,5.8 3.43,9.082 -0.067,7.486 -5.104,11.457 -7.201,12.732 -4.743,2.825 -11.58,2.878 -16.808,1.582 -1.704,-0.42 -3.304,-1.137 -4.926,-1.798 -0.001,-0.001 0.053,-5.623 0.081,-8.16"
   clip-path="url(#SVGID_10_)"
   transform="matrix(2.1194414,0,0,2.1194414,-68.898804,-77.902188)" /><path
   style="fill:#d7213d"
   inkscape:connector-curvature="0"
   id="path99"
   d="m 361.116,38.715 h 3.798 c 1.323,1.476 27.973,29.538 31.771,33.417 0.063,-6.543 -0.009,-30.483 -0.009,-33.417 h 4.778 v 46.602 h -3.33 C 394.3,81.132 368.118,53.601 365.859,51.369 c -0.072,5.049 -0.234,30.078 -0.216,33.93 h -4.527 c 0.009,-3.618 0.063,-39.465 0,-46.584"
   clip-path="url(#SVGID_10_)"
   transform="matrix(2.1194414,0,0,2.1194414,-68.898804,-77.902188)" />
</svg>