<svg version="1.1" xmlns="http://www.w3.org/2000/svg" viewBox="0 -5 143 31" enable-background="new 0 0 143 31" xml:space="preserve" role="img" >
<path d="M40.34,20.29h-10.4c-0.35,0-0.61-0.27-0.61-0.63v-1.3c-0.01-0.32,0.09-0.46,0.29-0.71L37.9,7.8h-8.11
c-0.35,0-0.61-0.27-0.61-0.63V6.25c0-0.35,0.26-0.63,0.61-0.63h10.5c0.35,0,0.61,0.27,0.61,0.63v1.33c0,0.24-0.08,0.44-0.26,0.66
l-8.29,9.88h8c0.35,0,0.61,0.27,0.61,0.63v0.92C40.95,20.02,40.69,20.29,40.34,20.29z M60.83,20.56L60.83,20.56
c0.75-0.01,1.3-0.17,1.51-0.41c0.07-0.09,0.11-0.19,0.1-0.29c-0.01-0.08-0.01-0.08-0.21-1.06l-0.01-0.02
c-0.04-0.26-0.22-0.37-0.37-0.37c-0.01,0-0.03,0-0.02,0c0,0-0.19-0.01-0.37-0.01h0c-0.53-0.02-0.97-0.1-0.98-0.89V0.84
c0-0.28-0.16-0.56-0.48-0.57h-0.09l-1.45,0.38c-0.25,0.03-0.5,0.21-0.49,0.54v16.36C57.98,19.49,58.99,20.56,60.83,20.56
L60.83,20.56L60.83,20.56z M90.19,20.29h-1.3c-0.35,0-0.61-0.27-0.61-0.63V9.64c-0.02-1.7-0.52-2.17-2.3-2.19
c-2.01,0-4.05,0.52-4.73,0.71v11.51c0,0.36-0.24,0.63-0.58,0.63h-1.32c-0.35,0-0.61-0.27-0.61-0.63V8.42
c-0.02-1.04,0.08-1.76,1.52-2.24c1.38-0.49,4.03-0.9,5.78-0.9c3.33,0,4.76,1.24,4.76,4.12v10.27
C90.79,20.02,90.53,20.29,90.19,20.29L90.19,20.29z M103.2,7.86c-0.48-0.13-1.83-0.44-3.35-0.44c-2.79,0.03-3.96,0.8-3.99,5.56
c0.03,5.22,1.55,5.5,4.02,5.53l0,0.11V18.5c1.54,0,2.86-0.33,3.33-0.46V7.86L103.2,7.86L103.2,7.86z M103.89,20.1l-0.15,0.04
c-0.82,0.21-1.95,0.51-3.93,0.51h-0.01c-5.45-0.01-6.53-2.83-6.53-7.7c0.01-5.58,1.73-7.66,6.37-7.67c1.64,0,2.76,0.22,3.57,0.42
l-0.01-4.5c-0.01-0.2,0.08-0.46,0.54-0.54l1.45-0.38h0.08c0.33,0.01,0.45,0.31,0.45,0.57v16.9
C105.74,18.81,105.62,19.72,103.89,20.1L103.89,20.1z M114.46,18.47c-3.57-0.02-3.75-1.9-3.78-5.5c0.03-3.62,0.2-5.51,3.78-5.53
c3.57,0.02,3.76,1.91,3.78,5.53C118.21,16.57,118.03,18.46,114.46,18.47L114.46,18.47z M114.46,5.27c-5.89,0.01-6.39,3.98-6.4,7.7
c0,3.71,0.5,7.66,6.4,7.67c5.89-0.01,6.39-3.95,6.4-7.67C120.85,9.08,120.35,5.28,114.46,5.27L114.46,5.27L114.46,5.27z
 M73.61,13.05c-0.59,0.01-3.45,0.05-4.59,0.3l-0.09,0.02c-1.28,0.29-2.29,0.53-2.31,2.47c0,2.45,1.83,2.67,3.7,2.68v0.11v-0.11
c1.17,0,2.28-0.17,3.29-0.51L73.61,13.05L73.61,13.05L73.61,13.05z M76.14,9.48v7.78c0.03,1.93-0.46,2.55-2.36,3
c-0.83,0.18-2.11,0.38-3.49,0.39c-2.03-0.01-6.26-0.01-6.27-4.69c-0.01-3.68,2.14-4.33,4.75-4.73c1.71-0.28,3.45-0.32,4.33-0.32
c0.24,0,0.39,0,0.48,0V9.58c-0.01-0.88-0.01-1.41-0.81-1.72c-0.49-0.21-1.23-0.31-2.32-0.31c-1.8,0-3.42,0.41-4.49,0.69l-0.41,0.1
c-0.04,0.01-0.09,0.02-0.15,0.03c-0.19,0-0.4-0.12-0.47-0.37l-0.01-0.02l-0.24-1.25V6.66c0-0.29,0.21-0.47,0.41-0.53
c0.86-0.33,3.14-0.85,5.6-0.85c1.79,0,3.09,0.24,3.96,0.73C76.15,6.81,76.14,8.29,76.14,9.48z M52.46,18.02
c-1.01,0.34-2.12,0.51-3.29,0.51v0.11l0-0.11c-1.87-0.02-3.7-0.23-3.7-2.68c0.01-1.95,1.02-2.18,2.31-2.47l0.09-0.02
c1.14-0.25,4-0.3,4.59-0.3L52.46,18.02L52.46,18.02L52.46,18.02z M53.5,6.01c-0.87-0.49-2.17-0.73-3.96-0.73
c-2.46,0-4.73,0.52-5.6,0.85c-0.19,0.06-0.4,0.24-0.41,0.53l0,0.06l0.24,1.25L43.78,8c0.08,0.25,0.28,0.37,0.47,0.37
c0.06,0,0.11-0.01,0.15-0.03l0.41-0.1c1.07-0.27,2.69-0.69,4.49-0.69c1.09,0,1.83,0.1,2.33,0.31c0.8,0.31,0.8,0.84,0.81,1.72v1.31
c-0.09,0-0.25,0-0.49,0c-0.88,0-2.62,0.04-4.33,0.32c-2.61,0.41-4.77,1.05-4.75,4.74c0,4.68,4.23,4.69,6.27,4.69
c1.38,0,2.65-0.21,3.49-0.39c1.9-0.45,2.38-1.07,2.36-3V9.48C54.98,8.29,54.98,6.81,53.5,6.01L53.5,6.01z"/>
<path fill="#FF6900" d="M22,9.58c-1.71-2.15-4.09-4.23-7.22-6.11l-0.01-0.01C11.63,1.62,8.67,0.55,6,0.11
C4.34-0.17,3.54,0.15,3.18,0.37C2.82,0.58,2.15,1.13,1.55,2.74C0.59,5.33,0.03,8.49,0,12.2v0.01c0.02,3.71,0.59,6.88,1.55,9.47
c0.6,1.62,1.27,2.16,1.63,2.38c0.36,0.21,1.16,0.54,2.82,0.26c2.67-0.44,5.62-1.52,8.77-3.36l0.01-0.01
c3.13-1.88,5.51-3.96,7.22-6.11c1.06-1.34,1.19-2.21,1.19-2.63S23.07,10.92,22,9.58"/>
</svg>
